<?xml version="1.0" encoding="UTF-8" standalone="no"?><!DOCTYPE svg PUBLIC "-//W3C//DTD SVG 1.1//EN" "http://www.w3.org/Graphics/SVG/1.1/DTD/svg11.dtd"><svg width="100%" height="100%" viewBox="0 0 1000 1000" version="1.1" xmlns="http://www.w3.org/2000/svg" xmlns:xlink="http://www.w3.org/1999/xlink" xml:space="preserve" xmlns:serif="http://www.serif.com/" style="fill-rule:evenodd;clip-rule:evenodd;stroke-linejoin:round;stroke-miterlimit:1.41421;"><rect x="0" y="0" width="1000" height="1000" style="fill:#ebebeb;"/><rect x="67.9" y="68.106" width="382.294" height="382.294" style="fill:#60ad5e;"/><rect x="549.13" y="66.959" width="382.294" height="382.294" style="fill:#2e7d32;"/><rect x="68.348" y="550.374" width="382.294" height="382.294" style="fill:#c62828;"/><rect x="549.578" y="549.226" width="382.294" height="382.294" style="fill:#f9a825;"/><g id="Hori-Arrow" serif:id="Hori Arrow"><path d="M113.03,514.987l0,28.913l-44.482,-44.482l44.482,-44.482l0,28.913l775.714,0l0,-28.913l44.482,44.482l-44.482,44.482l0,-28.913l-775.714,0Z"/><text x="703.144px" y="508.497px" style="font-family:'ArialMT', 'Arial', sans-serif;font-size:30.612px;fill:#fff;">Urgent</text><text x="179.144px" y="509.497px" style="font-family:'ArialMT', 'Arial', sans-serif;font-size:30.612px;fill:#fff;">Not Urgent</text></g><g id="Hori-Arrow1" serif:id="Hori Arrow"><path d="M515.547,887.181l28.913,0l-44.482,44.482l-44.482,-44.482l28.914,0l0,-775.715l-28.914,0l44.482,-44.482l44.482,44.482l-28.913,0l0,775.715Z"/><g transform="matrix(6.1149e-17,-1,1,6.1149e-17,-607.525,586.569)"><text x="263.502px" y="1116.58px" style="font-family:'ArialMT', 'Arial', sans-serif;font-size:30.612px;fill:#fff;">Important</text></g><g transform="matrix(6.1149e-17,-1,1,6.1149e-17,-1112.53,1093.57)"><text x="264.502px" y="1622.58px" style="font-family:'ArialMT', 'Arial', sans-serif;font-size:30.612px;fill:#fff;">Not Important</text></g></g><text x="646.852px" y="153.304px" style="font-family:'ArialMT', 'Arial', sans-serif;font-size:56.273px;fill:#fff;">Do now</text><text x="638.041px" y="640.2px" style="font-family:'ArialMT', 'Arial', sans-serif;font-size:56.3px;fill:#fff;">Delegate</text><text x="141.912px" y="645.792px" style="font-family:'ArialMT', 'Arial', sans-serif;font-size:56.273px;fill:#fff;">Eliminate</text><text x="135.479px" y="153.634px" style="font-family:'ArialMT', 'Arial', sans-serif;font-size:56.273px;fill:#fff;">Schedule</text><g transform="matrix(1,0,0,1,-14.3216,4.7259)"><text x="141.592px" y="214.76px" style="font-family:'ArialMT', 'Arial', sans-serif;font-size:30px;fill:#fff;">these are tasks with</text><text x="109.08px" y="245.742px" style="font-family:'ArialMT', 'Arial', sans-serif;font-size:30px;fill:#fff;">long term impact on your</text><text x="131.199px" y="276.723px" style="font-family:'ArialMT', 'Arial', sans-serif;font-size:30px;fill:#fff;">life but don&apos;t put short</text><text x="132.422px" y="307.704px" style="font-family:'ArialMT', 'Arial', sans-serif;font-size:30px;fill:#fff;">term pressure on you</text><text x="146.58px" y="369.667px" style="font-family:'ArialMT', 'Arial', sans-serif;font-size:30px;fill:#fff;">E.g. doing exercise</text></g><g transform="matrix(1,0,0,1,465.678,4.7259)"><text x="112.368px" y="214.76px" style="font-family:'ArialMT', 'Arial', sans-serif;font-size:30px;fill:#fff;">these are either planned</text><text x="139.907px" y="245.742px" style="font-family:'ArialMT', 'Arial', sans-serif;font-size:30px;fill:#fff;">tasks or unexpected</text><text x="97.405px" y="276.723px" style="font-family:'ArialMT', 'Arial', sans-serif;font-size:30px;fill:#fff;">tasks with high importance</text><text x="127.412px" y="369.667px" style="font-family:'ArialMT', 'Arial', sans-serif;font-size:30px;fill:#fff;">E.g. unexpected crisis</text></g><g transform="matrix(1,0,0,1,-11.3216,504.726)"><text x="106.545px" y="214.76px" style="font-family:'ArialMT', 'Arial', sans-serif;font-size:30px;fill:#fff;">things that draw attention</text><text x="129.888px" y="245.742px" style="font-family:'ArialMT', 'Arial', sans-serif;font-size:30px;fill:#fff;">and time, but have no</text><text x="120.747px" y="276.723px" style="font-family:'ArialMT', 'Arial', sans-serif;font-size:30px;fill:#fff;">positive impact on your</text><text x="204.968px" y="307.704px" style="font-family:'ArialMT', 'Arial', sans-serif;font-size:30px;fill:#fff;">life &amp; work</text><text x="118.213px" y="369.667px" style="font-family:'ArialMT', 'Arial', sans-serif;font-size:30px;fill:#fff;">E.g. phone notiﬁcations</text></g><g transform="matrix(1,0,0,1,468.447,505.107)"><text x="123.691px" y="214.76px" style="font-family:'ArialMT', 'Arial', sans-serif;font-size:30px;fill:#fff;">or if you can&apos;t delegate</text><text x="117.429px" y="245.742px" style="font-family:'ArialMT', 'Arial', sans-serif;font-size:30px;fill:#fff;">this task try to eliminate</text><text x="195.769px" y="276.723px" style="font-family:'ArialMT', 'Arial', sans-serif;font-size:30px;fill:#fff;">it altogether</text><text x="92.38px" y="369.667px" style="font-family:'ArialMT', 'Arial', sans-serif;font-size:30px;fill:#fff;">E.g. unproductive meetings</text></g></svg>