<?xml version="1.0" encoding="UTF-8" standalone="no"?><!DOCTYPE svg PUBLIC "-//W3C//DTD SVG 1.1//EN" "http://www.w3.org/Graphics/SVG/1.1/DTD/svg11.dtd"><svg width="100%" height="100%" viewBox="0 0 287 97" version="1.1" xmlns="http://www.w3.org/2000/svg" xmlns:xlink="http://www.w3.org/1999/xlink" xml:space="preserve" xmlns:serif="http://www.serif.com/" style="fill-rule:evenodd;clip-rule:evenodd;stroke-linejoin:round;stroke-miterlimit:1.41421;"><path d="M95.013,2.959c2.906,-3.992 9.484,-2.8 13.117,-0.492c1.597,1.016 2.597,1.625 3.215,1.949c4.484,2.356 1.527,10.266 0.449,13.754c-0.93,2.996 -3.586,9.188 -7.496,9.09c-1.473,-0.035 -3.297,-0.84 -4.828,-2.058c-0.372,1.82 -1.149,3.589 -2.09,5.148c-0.164,0.27 -0.317,0.527 -0.469,0.777c0.004,0.055 0.004,0.118 0.004,0.204c0,4.761 0.332,12.238 -3.188,16.378c0.067,0.18 0.137,0.368 0.215,0.551c0.922,2.324 1.406,2.754 1.406,5.25c0,0.586 -0.003,0.977 -0.042,1.246c0.007,0.008 0.011,0.016 0.019,0.028c1.074,1.648 0.961,6.726 0.805,8.574c-0.254,3.066 0.457,7.863 2.679,10.199c0.34,0.359 0.559,0.719 0.672,1.035c0.325,-0.008 0.805,0.024 1.516,0.074c2.207,0.157 2.207,0.157 3.621,0.454c0.41,0.086 1.551,0.832 2.086,1.48c1.137,-0.332 3.668,-1.09 4.687,-0.394c1.313,0.894 4.754,2.304 5.172,3.98c0.024,0.094 0.032,0.176 0.024,0.246c0.461,0.039 0.801,0.238 0.91,0.664c0.281,1.137 -3.215,2.508 -4.449,1.926c-0.055,0.019 -0.11,0.039 -0.164,0.059c-0.219,0.238 -0.809,0.437 -1.711,0.437c-0.973,0 -2.645,-0.187 -3.715,-0.422c-0.141,-0.027 -0.578,-0.215 -1.004,-0.441c-0.172,0.062 -0.379,0.129 -0.629,0.199c-2.754,0.758 -7.258,0.766 -9.859,-0.504c-0.563,-0.277 -1.328,-1.48 -1.446,-2.223c-0.332,-0.644 -0.851,-1.769 -1.191,-2.222c-0.387,-0.508 -0.895,-1.301 -1.281,-1.992c-0.211,-0.379 -0.578,-0.875 -0.965,-1.321c-0.141,3.438 0.699,8.324 3.008,10.782c0.379,0.406 0.621,0.808 0.746,1.164c0.359,-0.008 0.894,0.023 1.683,0.082c2.446,0.171 2.446,0.171 4.012,0.507c0.453,0.098 1.719,0.934 2.313,1.664c1.261,-0.375 4.07,-1.226 5.195,-0.445c1.457,1.004 5.273,2.586 5.734,4.465c0.028,0.105 0.035,0.199 0.032,0.281c0.507,0.043 0.886,0.262 1.003,0.746c0.313,1.27 -3.562,2.813 -4.933,2.16c-0.059,0.024 -0.121,0.043 -0.18,0.063c-0.242,0.27 -0.894,0.496 -1.894,0.496c-1.079,0 -2.934,-0.215 -4.122,-0.473c-0.156,-0.035 -0.64,-0.246 -1.113,-0.5c-0.191,0.071 -0.422,0.145 -0.695,0.223c-3.055,0.856 -8.047,0.863 -10.93,-0.566c-0.625,-0.309 -1.472,-1.657 -1.605,-2.489c-0.367,-0.726 -0.942,-1.992 -1.321,-2.496c-0.429,-0.574 -0.992,-1.461 -1.421,-2.242c-0.391,-0.711 -1.258,-1.773 -1.926,-2.367c-0.649,-0.574 -1.278,-1.219 -1.824,-1.922c-0.395,0.684 -1.106,1.109 -2.165,1.336c-0.335,0.07 -0.617,0.098 -0.855,0.086c-0.844,1.742 -3.812,1.785 -5.281,1.019c-0.172,-0.085 -0.324,-0.183 -0.461,-0.285c-0.211,0.813 -0.637,1.563 -1.367,2.219c-2.832,2.559 -4.352,2.684 -4.797,2.121c-0.246,0.024 -0.555,0.02 -0.922,-0.012c-1.129,-0.101 -2.781,0.118 -4.07,0.532c-2.043,0.66 -2.258,0.66 -3.723,0c-1.434,-0.649 -6.031,-0.301 -10.199,0.265c-1.875,0.258 -9.801,0.086 -13.016,-0.347c-3.176,-0.43 -6.363,-0.821 -7.781,-1.008c-0.262,0.176 -0.746,0.316 -1.613,0.5c-0.961,0.066 -1.907,0.223 -2.719,0.324c-2.969,0.367 -2.969,0.367 -4.781,0.367c-0.481,0 -0.844,0.012 -1.118,0.051c-0.535,-0.023 -1.523,0.27 -2.054,0.219c-3.563,-0.223 -4.067,-0.485 -5.184,0.101c-0.32,0.172 -3.039,0.875 -4.18,0.567c-1.57,-0.414 -5.394,0.429 -5.406,0.433c-0.699,-0.113 -1.609,-2.691 -0.89,-4.066c0.57,-1.094 2.605,-2.539 4.136,-2.449c0.766,-1.492 2.703,-3.012 3.977,-3.418c0.519,-0.164 2.199,-0.235 3.41,0.047c0.25,0.007 0.484,0.05 0.684,0.144l0.003,0.004c1.094,-0.227 2.071,-0.66 2.567,-1.434c2.473,-3.867 6.461,-9.769 11.582,-6.343c0.703,0.472 1.199,1.476 2.066,4.195c0.137,0.426 0.258,0.805 0.36,1.137c0.562,0.062 1.332,0.172 2.394,0.328c0.008,-0.004 0.016,-0.008 0.028,-0.008c0.343,0.055 0.769,0.109 1.296,0.176c0.086,0.012 0.332,0.039 0.676,0.07c0.531,-0.058 1.321,-0.14 2.504,-0.265c2.895,-0.297 3.906,-0.575 5.481,-1.493c1.617,-0.941 3.605,-2.195 5.511,-2.195c0.203,0 0.399,0.043 0.559,0.117c0.078,-0.031 0.152,-0.062 0.234,-0.09c0.235,-0.086 0.489,-0.152 0.727,-0.183c0.941,-0.129 1.867,-0.192 2.789,-0.188c-2.609,-1.035 -6.992,-2.863 -8.074,-4.843c-0.075,0.027 -0.149,0.054 -0.219,0.078c-0.09,0.164 -0.328,0.187 -0.754,0.226c-0.18,0.016 -0.348,-0.019 -0.496,-0.101l-0.004,-0.004c-0.402,-0.125 -0.672,-0.442 -0.656,-0.785c-0.274,-0.59 -0.399,-1.368 -0.356,-1.993c-2.437,-0.742 -9.929,-7.804 -11.476,-9.648c0,-0.004 -0.004,-0.004 -0.004,-0.008c-1.824,-1.758 -3.199,-3.953 -4.246,-6.371c-1.875,-4.328 0.191,-10.605 2.636,-14.508c0.11,-0.172 0.407,-0.508 0.735,-0.801c0.047,-0.195 0.117,-0.421 0.215,-0.683c0.316,-0.863 0.73,-6.215 2.218,-5.645c0.043,0.016 0.082,0.039 0.122,0.059c0.414,-0.313 2.441,-1.074 3.035,-1.008c0.203,-0.48 0.828,-0.93 1.5,-1.16c-0.133,-0.215 1.234,-0.93 1.675,-0.656c2.922,-1.989 4.895,-4.551 8.649,-4.754c0.238,-0.574 0.687,-1.141 1.383,-1.762c4.738,-4.226 10.726,-6.73 17.066,-6.41c1.641,0.082 3.613,-0.109 3.942,-0.469c1.207,-1.316 3.171,-2.414 5.113,-2.863c0.949,-0.035 1.922,-0.086 2.773,-0.152c0.379,0.039 0.668,0.07 0.938,0.101c0.429,-0.137 1.371,-0.176 2.367,-0.121c0.641,0.031 1.305,0.102 1.867,0.211c1.836,-0.41 4.246,-0.875 5.93,-0.031c1.262,-0.528 4.043,-1.207 6.191,-2.371c-0.09,-0.137 -0.164,-0.289 -0.215,-0.446c-0.675,-2.05 0.754,-4.832 1.911,-6.422Zm1.265,1.024c0.832,-0.992 1.883,-1.715 3.086,-1.867c3.043,-0.391 6.09,0.742 8.547,2.386c1.641,1.094 4.184,2.204 4.117,4.465c-0.156,5.133 -2.668,12.715 -6.922,15.938c-2.156,1.633 -5.683,-2.59 -6.558,-4.399c-0.321,-0.668 -1.731,-3.57 -2.172,-1.461c-0.188,0.914 -0.043,1.848 0.34,2.743c-0.254,0.164 -0.582,0.386 -1.024,0.683c-0.769,0.516 -1.367,0.824 -1.976,1.027c-0.032,-0.046 -0.063,-0.097 -0.09,-0.148c-0.102,-0.156 -0.262,-0.312 -0.449,-0.437c0.242,-0.297 0.441,-0.809 0.484,-1.473c0.094,-1.383 -0.086,-4.258 -1.512,-5.066c-0.347,-0.2 -0.761,-0.364 -0.918,-0.364c-0.824,0 0.313,1.922 0.449,2.199c0.614,1.239 0.723,1.887 0.551,3.352c-0.058,0.512 -0.039,0.895 0.032,1.16c-0.168,0.078 -0.282,0.262 -0.29,0.594c-0.007,0.375 0.348,1.34 0.797,2.141c2.942,5.273 -1.394,10.855 -4.195,15.093c1.129,-0.211 1.863,-0.718 2.465,-1.429c-0.051,0.3 -0.086,0.523 -0.09,0.586c-0.348,3.121 -0.348,3.121 -0.695,6.953c-0.239,2.632 -0.746,5.718 -2.391,7.929c-0.078,-0.265 -0.129,-0.472 -0.137,-0.586c-0.039,-0.394 -0.328,-0.683 -0.679,-0.683c-0.543,0 -0.063,3.64 0.203,4.363c0.625,1.719 1.765,4.449 1.402,6.289c-0.18,0.899 -0.16,1.055 0.438,1.024c-0.043,1.109 0.105,2.539 0.125,2.789c0.347,4.168 0.347,6.422 0.347,8.34c0,3.808 0.993,7.492 3.461,10.5c0.602,0.73 1.102,1.027 1.438,1.031c0.402,0.234 1.301,0.383 3.285,0.64c2.762,0.356 3.617,0.594 3.859,1.082c0.141,0.286 0.414,0.469 0.723,0.504c0.625,0.243 1.601,0.399 2.07,0.399l2.86,0c1.558,0 3.586,2.215 4.914,3.054c0.011,0.008 0.023,0.016 0.035,0.02c-0.746,0.258 -1.5,0.664 -2.031,1.09c-0.735,-0.012 -1.789,0.32 -2.395,0.719c-1.246,-0.008 -2.859,-0.161 -3.609,-0.352c-1.391,-0.348 -1.391,-0.348 -2.102,-0.348c-0.394,0 -0.582,0.063 -0.621,0.168c-0.348,0.008 -0.703,0.047 -1.027,0.114c-2.414,0.507 -2.864,0.503 -5.891,-0.047c-2.93,-0.539 -3.312,-0.696 -3.605,-1.481c-0.176,-0.484 -0.512,-0.949 -0.743,-1.039c-0.062,-0.023 -0.121,-0.043 -0.179,-0.054c-0.028,-0.145 -0.059,-0.293 -0.09,-0.442c-0.867,-4.16 -3.934,-7.262 -6.344,-10.555c-0.547,-0.746 -1.168,-2.117 -1.391,-3.05c-0.214,-0.934 -0.871,-2.582 -1.453,-3.668c-1.058,-1.977 -1.058,-1.977 -0.789,-6.211c0.239,-3.805 -0.023,-3.817 -0.308,-4.321c-0.278,-0.675 -0.672,-2.464 -0.891,-3.097l0.414,-4.524c0.082,-1.183 0.141,-2.035 0.168,-2.64c0.574,-0.125 0.543,-1.719 -0.262,-2.922c-1.519,-2.274 -0.386,-6.039 0.09,-8.422c0.477,-2.367 1.899,-4.137 1.899,-5.133c0,-0.316 -0.535,-2.004 -1.621,-5.043c-0.614,-1.719 -1.282,-3.289 -2.532,-4.578l0.457,1.93c-0.191,-0.153 -0.39,-0.278 -0.562,-0.356c-1.883,-0.847 -3.484,-2.125 -4.711,-3.601c-2.035,-2.457 -1.508,1.23 -0.363,2.285c1.504,1.39 3.191,2.637 5.418,2.988c0.222,0.035 0.402,0.047 0.543,0.039c0.273,1.063 0.625,2.168 0.921,2.91l-0.003,0c-0.567,-0.054 -1.387,-0.132 -2.563,-0.277c-3.285,-0.398 -4.512,1.191 -7.461,-0.129c-0.808,-0.098 -7.457,-5.23 -7.59,-5.344c-1.109,0.125 -1.73,0.782 -4.203,0.93c-1.242,0.074 -2.273,0.137 -3.129,0.18c-0.027,0.008 -0.054,0.011 -0.082,0.019c-1.23,0.66 -2.347,1.356 -2.793,1.903c-1.144,1.382 1.532,0.086 2.399,-0.153c2.949,-0.812 2.949,-0.812 3.789,-0.914c0.722,-0.09 2.176,0.16 4.019,-0.367c0.828,1.289 3.75,3.613 4.785,4.141c4.02,2.043 7.762,1.832 12.286,1.507c0.55,-0.039 0.933,-0.078 1.191,-0.14c-0.207,0.472 -0.383,1.211 -0.422,1.945c-0.058,0.973 -0.531,1.793 -0.933,3.117c-2.309,2.551 -4.883,3.516 -10.446,3.016c-0.828,-0.074 -3.929,-3.363 -4.285,-1.645c-0.109,0.512 -0.012,0.805 0.598,1.282c-0.121,-0.008 -0.246,-0.012 -0.379,-0.02c-2.426,-0.129 -3.852,-0.39 -4.922,-0.902c-0.508,-0.246 -2.477,-0.356 -5.207,1.922c-0.934,-2.129 -3.641,-4.129 -5.238,-5.512c-0.149,-0.129 -0.34,-0.289 -0.543,-0.461c-2.297,-2.535 -6.258,-6.48 -7.653,-7.473c-0.449,-0.32 -0.832,-0.59 -1.156,-0.824c0.824,-0.512 0.152,-0.484 0.848,-1.105c0.547,-0.493 1.793,-1.118 2.777,-1.399c1.352,-0.383 2.641,-0.765 3.746,-1.676c0.102,-0.082 0.199,-0.183 0.285,-0.296c1.137,-0.536 3.168,-2.723 3.594,-3.082c4.344,-3.649 9.785,-5.247 15.399,-5.247c3.542,0 3.542,0 3.281,-0.488c-0.039,-0.078 -0.117,-0.14 -0.246,-0.203c1.269,-0.258 3.824,-1.48 4.355,-1.734c2.949,-1.41 6.207,-0.571 6.953,-0.524c1.317,0.082 1.317,0.082 3.692,-0.156c1.855,-0.18 2.586,-0.082 3.343,0.449c1.856,1.301 2.539,0.567 2.004,-0.441c0.071,-0.055 0.098,-0.125 0.094,-0.207c1.203,0.027 2.141,-0.426 3.066,-0.961c0.473,-0.274 1.075,-0.731 1.688,-1.317c0.246,-0.238 0.387,-0.523 0.41,-0.769c0.234,0.039 0.418,-0.18 0.383,-0.813c-0.094,-1.789 0.656,-4.007 1.949,-5.562Zm-50.363,79.848c-2.668,-0.739 -2.668,-0.739 -3.356,-0.926c-1.214,-0.324 -0.203,1.035 0.262,1.308c2.074,1.235 4.602,1.457 6.926,1.457c2.266,0 3.086,-0.132 3.379,-0.554c0.308,-0.45 0.246,-0.559 -0.32,-0.555c-2.352,0.02 -4.598,-0.098 -6.891,-0.73Zm50.144,-51.485c-0.496,0.574 -1.082,1 -1.945,1.211c-0.434,1.164 -0.988,2.281 -1.605,3.32c-0.184,0.301 -0.352,0.594 -0.52,0.871c0,0.063 0,0.133 0,0.231c0,5.344 0.367,13.734 -3.531,18.379c0.074,0.207 0.156,0.414 0.238,0.621c1.02,2.609 1.559,3.09 1.559,5.895c0,0.656 -0.004,1.097 -0.047,1.398c0.008,0.012 0.012,0.019 0.019,0.027c0.942,1.461 1.063,5.325 0.985,7.907c1.664,2.109 3.265,4.292 3.832,6.972c0.027,0.133 0.054,0.262 0.082,0.391c0.047,0.015 0.101,0.031 0.16,0.055c0.207,0.074 0.508,0.492 0.672,0.921c0.262,0.7 0.605,0.84 3.246,1.317c2.734,0.496 3.137,0.5 5.316,0.047c0.293,-0.063 0.614,-0.098 0.926,-0.106c0.035,-0.09 0.203,-0.144 0.559,-0.144c0.644,0 0.644,0 1.894,0.308c0.68,0.168 2.133,0.305 3.254,0.309c0.547,-0.352 1.5,-0.649 2.164,-0.637c0.477,-0.379 1.156,-0.742 1.832,-0.969c-0.011,-0.007 -0.023,-0.011 -0.035,-0.019c-1.195,-0.75 -3.023,-2.723 -4.426,-2.723l-2.582,0c-0.426,0 -1.304,-0.137 -1.867,-0.355c-0.281,-0.032 -0.527,-0.196 -0.652,-0.449c-0.219,-0.434 -0.992,-0.645 -3.477,-0.965c-1.793,-0.231 -2.601,-0.36 -2.969,-0.571c-0.304,-0.004 -0.75,-0.265 -1.293,-0.918c-2.23,-2.675 -3.125,-5.961 -3.125,-9.355c0,-1.707 0,-3.719 -0.312,-7.43c-0.02,-0.222 -0.152,-1.496 -0.113,-2.484c-0.539,0.027 -0.555,-0.11 -0.395,-0.91c0.328,-1.641 -0.699,-4.071 -1.265,-5.606c-0.239,-0.644 -0.672,-3.887 -0.18,-3.887c0.316,0 0.574,0.258 0.609,0.606c0.012,0.105 0.055,0.285 0.125,0.523c1.485,-1.964 1.942,-4.718 2.156,-7.062c0.313,-3.414 0.313,-3.414 0.625,-6.195c0.008,-0.055 0.04,-0.254 0.086,-0.524Zm-23.32,46.164l0.004,0.004c0.672,1.856 1.391,3.781 1.496,5.543c0.207,0.012 0.453,0.051 0.734,0.129c1.161,0.316 2.641,0.621 3.665,-0.223c0.386,-0.316 0.812,-0.437 1.089,-0.308c0.161,-0.09 0.344,-0.172 0.555,-0.242c1.113,-0.372 1.34,-0.567 1.438,-1.473c-0.075,-0.16 -0.149,-0.328 -0.215,-0.492c-0.797,-0.106 -1.727,-0.45 -2.078,-0.602c-0.204,-0.09 -0.594,-0.199 -1.055,-0.293c-0.34,0.207 -0.899,0.321 -1.422,0.328c-0.246,0.508 -1.773,-0.074 -2.102,-0.304c-0.925,-0.653 -0.937,-0.657 -2.109,-2.067Zm-1.719,-4.461c0.012,0.035 0.028,0.071 0.039,0.106c1.809,1.109 4.207,3.32 5.387,5.312c0.465,-0.14 1.043,-0.156 1.5,-0.039c0.949,-0.117 1.91,-0.07 2.637,0.344c0.137,0.078 0.246,0.141 0.34,0.187c-0.235,-0.546 -0.617,-1.418 -1.367,-3.121c-0.844,-1.922 -1.418,-3.773 -1.403,-4.129c0.047,-1.125 -0.062,-2.671 0.477,-4.785c0.23,-0.91 -0.567,-3.953 -0.946,-4.785c-0.214,-0.476 -0.394,-0.851 -0.519,-1.187c-0.082,0.089 -0.176,0.183 -0.27,0.273c-1.804,1.711 -5.254,2.82 -8.441,6.481c1.039,1.691 1.84,3.476 2.566,5.343Zm-18,-29.265c-0.414,0.386 -0.785,0.761 -1.043,1.019c-0.136,-0.012 -0.293,-0.023 -0.464,-0.039c-1.926,-0.16 -3.567,0.551 -5.286,1.324c-1.277,0.575 -4.398,2.223 -4.398,3.907c0,1.457 1.195,-0.024 1.691,-0.469c1.789,-1.602 3.641,-2.313 5.629,-3.051c0.137,0.098 0.301,0.207 0.489,0.332c0.113,0.07 0.246,0.18 0.406,0.32c0.004,0.121 0.078,0.207 0.242,0.231c1.074,1.035 2.766,3.094 3.832,4.531c1.973,2.656 0.688,2.629 3.617,4.125c0.176,0.09 0.43,1.192 1,1.621c0.039,0.055 0.082,0.117 0.133,0.18c-0.879,0.437 -1.859,1.035 -1.934,1.094c-1.589,1.195 -3.101,2.39 -4.226,3.328c-0.961,0.808 -3,2.011 -4.528,2.679c-1.722,0.75 -2.398,1.137 -2.492,1.512c-1.16,0.754 -2.277,1.59 -3.136,2.133c-0.289,-0.871 -0.719,-1.617 -1,-1.727c-0.196,-0.074 -0.356,-0.05 -0.481,0.043c-0.43,-0.503 -0.98,-1.015 -1.16,-1.16c-1.355,-1.09 -0.648,-1.121 -1.512,-1.617c-1.004,-0.578 -2.285,-1.621 -2.894,-2.383c-0.606,-0.761 -1.547,-1.804 -2.606,-2.867c-0.738,-0.742 -1.535,-1.152 -2.203,-1.328c-0.719,-0.988 -1.512,-1.934 -2.23,-2.883c-1.739,-2.285 -3.164,-4.812 -2.293,-7.672c0.336,-1.101 0.757,-3.008 0.941,-4.234c0.184,-1.25 0.715,-2.891 1.207,-3.719c0.817,-1.379 0.875,-1.48 1.039,-2.125c0.199,-0.226 0.399,-0.512 0.582,-0.844c0.738,-1.355 0.785,-2.73 1.043,-4.16c0.492,-0.195 1.168,-0.64 1.754,-0.863c0.176,0.312 0.438,0.633 0.652,0.793c0.606,0.453 2.063,1.215 3.235,1.691c3.144,1.27 6.133,2.891 9.16,4.407c-2.277,-1.442 -4.555,-2.864 -6.938,-4.141c-2.585,-1.383 -2.585,-1.383 -3.957,-2.395c-0.343,-0.25 -0.632,-0.461 -0.875,-0.632c0.973,-0.317 2.282,-0.942 2.735,-1.286c1.203,0.977 5.926,4.696 7.238,5.348c0.719,0.356 1.899,1.363 2.621,2.234c0.32,0.391 0.684,0.754 1.047,1.063c0.188,0.199 0.367,0.383 0.676,0.691c0.75,0.754 0.75,0.754 2.25,2.801c0.125,0.168 1.633,1.738 2.437,2.188Zm6.493,14.84c0.074,0.089 0.144,0.175 0.214,0.265c1.243,1.555 6.387,8.336 6.985,9.117c0.344,0.453 3.59,7.024 4.043,8.379c0.226,0.684 0.414,1.188 0.59,1.551c1.085,2.77 1.867,4.902 0.464,7.68c-0.968,1.918 -3.355,2.199 -3.824,2.543c-0.347,-0.137 -0.805,-0.235 -1.34,-0.254c-1.238,-0.055 -2.953,0.125 -3.804,0.394c-1.2,0.383 -1.946,0.383 -3.328,0c-3.418,-0.941 -15.688,0.606 -18.864,0.086c-2.246,-0.371 -8.41,-0.754 -10.437,-0.937c-0.477,-0.047 -0.614,-0.11 -1.012,-0.102c-0.441,-0.078 -0.887,-0.133 -1.285,-0.137c-0.098,-0.011 -0.211,-0.007 -0.34,0.008c-0.215,0.016 -0.406,0.051 -0.555,0.11c-5.281,1.132 -5.613,0.293 -8.468,0.648c-0.286,0.035 -3.293,0.352 -4.61,0.231c-1.16,-0.106 -2.136,-0.504 -3.375,-0.114c-0.215,0.293 -1.398,1.434 -2.812,0.895c-0.535,0.062 -1.309,0 -1.825,0.004c-1.07,0.14 -3.07,0.875 -3.773,0.609c-0.105,0.004 0.039,-1.441 0.578,-1.879c0.379,-0.308 1.625,-0.57 2.785,-0.594c0.899,-0.722 1.41,-1.851 2.16,-2.836c0.063,-0.078 0.118,-0.148 0.176,-0.214c0.317,-0.246 0.664,-0.481 1.024,-0.692c0.293,-0.062 0.59,-0.117 0.875,-0.164c0.328,-0.012 0.73,-0.015 1.23,-0.015c5.442,0 6.778,-4.809 10.629,-7.977c2.949,-2.426 4.242,1.199 5.078,3.422c0.528,1.398 0.805,2.023 1.184,2.336c0.027,0.285 0.597,0.48 1.859,0.453c0.344,-0.008 1.512,-0.063 2.613,-0.274c0.165,0.016 1.082,-0.144 2.184,-0.386c0.141,0.019 0.234,0.027 0.246,0.027c2.93,0 6.231,-0.496 8.723,-2.23c0.89,-0.618 2.258,-1.329 3.043,-1.579c0.262,-0.082 0.496,-0.179 0.695,-0.281c0.156,0.02 0.348,0.031 0.582,0.031c2.66,0 11.668,2.047 14.317,2.387c0.25,-0.383 -5.797,-2.433 -5.493,-2.765c-0.394,-0.211 -0.8,-0.399 -1.113,-0.528l-0.004,0c-1.832,-1.586 -6.828,-2.984 -7.941,-3.734c-1.524,-1.031 -1.961,-2.168 -2.274,-2.871c1.02,-0.746 2.032,-1.672 2.805,-2.489c0.418,-0.183 0.789,-0.371 1.02,-0.457c2.589,-0.941 4.855,-2.589 6.792,-4.531c1.473,-1.476 1.473,-1.476 2.059,-1.832c0.555,-0.34 1.082,-0.793 1.524,-1.304Zm3.753,2.507c0.516,-0.527 1.012,-1.047 1.399,-1.429c0.707,-0.707 1.523,-2.34 2.387,-3.828c-0.774,0.457 -1.571,0.832 -2.368,1.062c-0.589,0.172 -3.05,1.387 -3.914,1.172c-0.23,0.023 -0.507,-0.004 -0.8,-0.063c0.222,0.149 0.48,0.329 0.769,0.532c0.828,0.582 1.07,0.773 1.281,1.027c0.422,0.508 0.836,1.012 1.246,1.527Zm4.313,5.192c1.586,-0.965 3.379,-2.52 4.457,-3.653c0.977,-1.023 3.406,-2.308 4.504,-3.211c0.191,-0.156 0.363,-0.273 0.516,-0.351c0.046,-0.199 0.105,-0.414 0.183,-0.652c0.067,-0.196 0.137,-0.352 0.211,-0.469c0.023,-0.629 0.086,-1.524 0.18,-2.809c0.152,-2.129 0.238,-3.191 0.39,-3.711l-0.004,-0.004c-0.367,-0.804 -0.597,-1.754 -0.73,-2.773c-0.918,0.363 -2.758,1.305 -3.531,1.828c-0.875,0.594 -2.313,2.043 -4.024,3.445c-0.457,1.219 -1.683,3.266 -2.609,4.688c-0.692,1.062 -1.926,2.367 -3.078,3.48c1.121,1.407 1.898,1.336 3.535,4.192Zm-9.371,-11.649c0.16,-0.426 0.531,-1.043 1.332,-1.957c2.359,-2.687 4.785,-5.332 5.465,-8.949c0.035,-0.199 0.078,-0.383 0.121,-0.551c-1.231,0.278 -3.738,0.707 -5.586,-0.328c-2.277,-1.281 -2.313,-0.223 -3.699,0.867c-0.52,1.524 -3.016,2.844 -4.321,3.336c0.254,0.231 0.434,0.481 0.516,0.723c0.621,0.293 1.168,0.535 1.988,1.398c1.852,-0.582 3.696,-1.148 5.59,-1.586c0.731,-0.168 3.402,-1.039 1.649,0.192c-1.907,1.336 -4.723,1.539 -7.079,1.566c0.774,0.844 1.786,2.227 3.301,4.629c0.149,0.234 0.406,0.453 0.723,0.66Zm22.461,-10.879c-0.164,-0.945 -0.715,-1.785 -0.996,-0.382c-0.231,1.121 0.347,2.238 0.82,3.218c0.219,0.457 1.281,0.828 2.215,0.891c0,0.008 0,0.019 0.004,0.031c0.133,1.77 -0.067,5.16 -1.082,6.535c-0.407,0.547 -0.883,1.664 -1.063,2.481c-0.5,2.281 1.051,1.234 1.547,-0.176c0.586,-1.645 1.328,-3.461 1.738,-5.926c0.137,-0.824 0.512,-1.136 0.235,-2.461c-0.043,-0.218 -0.121,-0.437 -0.219,-0.636c0.23,-0.11 0.371,-0.282 0.371,-0.528c0,-0.519 -0.195,-0.656 -0.824,-0.566c-1.402,0.195 -2.531,-1.246 -2.746,-2.481Zm-30.266,2.571c0.133,-0.18 0.297,-0.364 0.469,-0.543c-0.313,0.121 -0.617,0.238 -0.922,0.355c0.027,0.008 0.055,0.02 0.082,0.031c0.129,0.047 0.25,0.102 0.371,0.157Zm-1.758,-2.727c-1.511,0 -3,0.238 -4.5,0.375c-0.613,0.059 -3.273,0.418 -3.086,1.477c0.118,0.664 1.782,-0.262 2.235,-0.367c2.351,-0.555 5.73,-1.102 8.101,-0.657c0.25,0.047 0.383,-0.054 0.328,-0.254c-0.191,-0.695 -2.496,-0.574 -3.078,-0.574Zm15.969,12.07c0.809,-0.296 1.543,-0.675 2.508,-1.543c1.266,-1.136 2.48,-3.136 2.519,-3.164c1.368,-0.89 5.254,-3.367 6.883,-3.609c0.235,-0.035 0.457,-0.078 0.641,-0.102c-0.086,-1.73 0.035,-3.562 0.191,-5.183c-0.66,0.512 -1.332,0.926 -1.875,1.183c-2.726,1.301 -5.886,1.274 -8.66,0.207c-0.004,0.184 -0.015,0.383 -0.039,0.594c-0.141,1.375 -3.309,6.664 -3.953,7.782c-0.606,1.046 -0.75,1.234 -2.16,2.851c-0.106,0.117 -0.481,0.508 -0.918,0.828c0.672,0.383 1.285,0.809 1.531,1.352c0.215,-0.098 0.484,-0.207 0.816,-0.336c1.032,-0.406 1.801,-0.602 2.516,-0.86Zm24.402,-33.027c-0.832,-0.355 -4.57,-1.582 -4.734,0.039c-0.062,0.633 0.059,0.711 0.852,0.524c1.343,-0.313 4.371,1.031 4.941,2.226c0.348,0.731 0.957,-1.121 0.773,-1.566c-0.117,-0.289 -0.941,-0.84 -1.832,-1.223Zm8.86,-0.031c0.183,0.223 0.379,0.437 0.586,0.648c-0.313,3.035 -2.375,6.004 -4.094,8.528c0.812,-2.508 1.035,-5.184 0.141,-7.664c1.179,-0.321 2.289,-0.829 3.367,-1.512Zm-40.59,-0.301l3.508,-1.41c-1.473,-0.363 -2.875,0.187 -4.27,0.707c-0.414,0.152 -5.953,2.601 -3.781,2.273c1.039,-0.156 1.039,-0.156 4.543,-1.57Zm20.863,-4.125c0.266,-0.07 0.516,-0.152 0.711,-0.23c0.434,-0.172 0.844,-0.352 1.203,-0.52c1.145,1.629 4.864,3.856 6.813,3.375c2.301,-0.57 -2.399,-1.664 -2.817,-1.976c-1.105,-0.825 -1.75,-1.77 -2.546,-2.165c-0.024,-0.011 -0.055,-0.023 -0.094,-0.039c0.039,-0.043 0.058,-0.082 0.051,-0.109c-0.403,-1.48 -3.934,0.637 -4.469,0.949c-0.18,0.106 -0.332,0.203 -0.457,0.289c-2.086,-0.261 -4.488,0.391 -5.078,2.75c-0.446,1.766 0.152,0.883 1.265,0.012c1.614,-1.266 2.762,-2.063 4.856,-1.508c1.914,0.504 1.656,-0.308 0.562,-0.828Z"/><path d="M263.641,2.616c2.907,-3.992 9.485,-2.801 13.118,-0.492c1.597,1.019 2.597,1.624 3.214,1.945c4.485,2.359 1.528,10.269 0.45,13.758c-0.926,2.996 -3.586,9.187 -7.493,9.089c-1.476,-0.035 -3.296,-0.843 -4.832,-2.058c-0.371,1.82 -1.148,3.59 -2.085,5.148c-0.165,0.27 -0.321,0.528 -0.473,0.778c0.004,0.054 0.004,0.113 0.004,0.203c0,4.761 0.332,12.238 -3.184,16.379c0.067,0.183 0.137,0.367 0.211,0.55c0.922,2.325 1.41,2.754 1.41,5.254c0,0.582 -0.008,0.973 -0.043,1.243c0.004,0.007 0.012,0.019 0.016,0.027c1.074,1.648 0.965,6.726 0.809,8.574c-0.258,3.067 0.457,7.867 2.675,10.199c0.344,0.36 0.559,0.719 0.672,1.035c0.324,-0.007 0.809,0.024 1.52,0.075c2.207,0.156 2.207,0.156 3.617,0.453c0.41,0.086 1.551,0.832 2.086,1.48c1.137,-0.332 3.672,-1.09 4.687,-0.394c1.313,0.894 4.758,2.304 5.172,3.98c0.024,0.09 0.031,0.176 0.028,0.246c0.457,0.039 0.8,0.235 0.906,0.664c0.281,1.137 -3.215,2.508 -4.449,1.926l-0.164,0.059c-0.219,0.238 -0.805,0.437 -1.707,0.437c-0.973,0 -2.649,-0.187 -3.719,-0.418c-0.141,-0.031 -0.574,-0.218 -1.004,-0.445c-0.172,0.063 -0.379,0.129 -0.625,0.199c-2.758,0.758 -7.258,0.766 -9.86,-0.504c-0.562,-0.273 -1.332,-1.476 -1.445,-2.222c-0.336,-0.645 -0.851,-1.77 -1.195,-2.223c-0.387,-0.508 -0.895,-1.301 -1.281,-1.992c-0.211,-0.383 -0.575,-0.875 -0.965,-1.321c-0.141,3.438 0.699,8.325 3.011,10.782c0.379,0.402 0.618,0.808 0.743,1.164c0.359,-0.008 0.894,0.023 1.683,0.082c2.446,0.172 2.446,0.172 4.012,0.508c0.457,0.097 1.723,0.933 2.312,1.664c1.262,-0.375 4.071,-1.227 5.196,-0.446c1.457,1.004 5.277,2.586 5.738,4.465c0.023,0.106 0.031,0.199 0.027,0.281c0.508,0.043 0.887,0.262 1.008,0.743c0.309,1.277 -3.566,2.816 -4.933,2.164c-0.063,0.023 -0.121,0.043 -0.184,0.062c-0.242,0.27 -0.895,0.496 -1.895,0.496c-1.078,0 -2.933,-0.215 -4.121,-0.472c-0.156,-0.035 -0.636,-0.246 -1.113,-0.5c-0.187,0.07 -0.418,0.144 -0.695,0.222c-3.055,0.856 -8.047,0.86 -10.93,-0.562c-0.625,-0.309 -1.473,-1.66 -1.601,-2.492c-0.372,-0.727 -0.946,-1.993 -1.325,-2.5c-0.429,-0.571 -0.992,-1.461 -1.422,-2.239c-0.39,-0.711 -1.257,-1.773 -1.925,-2.367c-1.352,-1.199 -2.625,-2.699 -3.262,-4.453c-0.313,-0.863 -0.313,-0.863 -1.848,-4.355c-0.843,-1.922 -1.422,-3.774 -1.406,-4.129c0.047,-1.125 -0.059,-2.672 0.477,-4.782c0.054,-0.218 0.05,-0.562 0.011,-0.964c-1.023,1.046 -2.605,2.246 -3.597,3.031c-0.25,0.195 -1.18,0.672 -3.125,1.742c-0.821,0.453 -1.618,0.949 -2.387,1.492c0.07,0.176 0.141,0.363 0.211,0.559c1.289,3.453 3.047,7.273 0.223,9.715c-0.957,0.828 -1.762,1.382 -2.422,1.738c0.547,0.621 1.031,1.262 1.398,1.883c0.465,-0.141 1.047,-0.156 1.5,-0.039c0.949,-0.117 1.914,-0.071 2.637,0.343c0.609,0.348 0.609,0.348 1.41,0.383c0.453,0.016 0.699,0.168 0.777,0.481c0.223,0.164 0.407,0.527 0.442,1.097c0.113,1.914 -0.676,2.934 -2.528,3.329c-0.336,0.074 -0.621,0.097 -0.859,0.085c-0.844,1.743 -3.809,1.789 -5.281,1.024c-0.547,-0.289 -0.934,-0.664 -1.125,-1.024l-0.004,0c-0.18,0.098 -0.406,0.207 -0.684,0.321c-0.863,0.363 -4.285,0.98 -5.562,0.332c-0.129,0.113 -0.461,0.082 -1.071,-0.211c-2.601,-1.258 -6.265,-1.137 -9.019,-0.66c-0.652,0.113 -1.137,0.195 -1.496,0.238c-0.141,0.027 -0.289,0.047 -0.449,0.066c-2.18,0.227 -4.911,-0.621 -4.371,-3.461c0.136,-0.742 0.14,-0.75 1.515,-3.035c-3.109,0.965 -8,-0.074 -11.078,-0.472c-4.039,-0.524 -4.039,-0.524 -6.141,-0.524c-0.082,0 -0.25,-0.008 -0.461,-0.035c-0.238,-0.09 -0.488,-0.164 -0.726,-0.234c-0.149,-0.043 -0.297,-0.078 -0.438,-0.114c-0.277,0.149 -0.738,0.274 -1.511,0.426c-0.95,0.063 -1.883,0.211 -2.684,0.309c-2.934,0.347 -2.934,0.347 -4.723,0.347c-0.476,0 -0.832,0.008 -1.101,0.043c-0.531,-0.019 -1.508,0.258 -2.027,0.211c-3.52,-0.211 -4.02,-0.461 -5.122,0.098c-0.316,0.16 -3,0.824 -4.128,0.531c-1.551,-0.394 -5.329,0.406 -5.336,0.414c-0.692,-0.109 -1.59,-2.543 -0.879,-3.843c0.562,-1.04 2.57,-2.403 4.082,-2.321c0.754,-1.41 2.668,-2.847 3.926,-3.23c0.515,-0.157 2.175,-0.223 3.371,0.043c0.246,0.008 0.476,0.05 0.675,0.14c1.082,-0.214 2.047,-0.621 2.536,-1.351c2.445,-3.656 6.378,-9.239 11.441,-5.996c0.691,0.441 1.184,1.394 2.035,3.961c0.137,0.406 0.254,0.761 0.359,1.074c0.555,0.058 1.317,0.164 2.36,0.312c0.012,-0.004 0.019,-0.007 0.027,-0.007c0.344,0.05 0.762,0.105 1.281,0.167c0.082,0.008 0.329,0.036 0.668,0.063c0.524,-0.055 1.305,-0.133 2.473,-0.246c2.859,-0.285 3.859,-0.547 5.414,-1.414c1.594,-0.887 3.559,-2.074 5.442,-2.074c0.199,0 0.394,0.039 0.554,0.109c0.074,-0.031 0.149,-0.059 0.227,-0.086c0.234,-0.078 0.484,-0.141 0.722,-0.172c0.321,-0.043 0.645,-0.078 0.965,-0.105c-0.855,-0.469 -1.66,-1.032 -2.09,-1.664c-0.679,0.332 -1.336,0.593 -1.933,0.777c-0.09,0.168 -0.328,0.191 -0.754,0.23c-0.18,0.016 -0.344,-0.023 -0.496,-0.101l-0.004,-0.004c-0.399,-0.125 -0.672,-0.445 -0.652,-0.785c-0.278,-0.59 -0.403,-1.367 -0.36,-1.992c-2.437,-0.743 -5.094,-3.543 -6.64,-5.383c-0.309,-0.367 -0.676,-1.016 -0.899,-1.559c-0.055,-0.023 -0.101,-0.051 -0.152,-0.074c-0.949,-0.465 -1.387,-0.684 -1.508,-0.836c-3.012,-1.922 -5.082,-4.836 -6.527,-8.176c-1.875,-4.328 0.191,-10.605 2.636,-14.504c0.11,-0.175 0.411,-0.511 0.735,-0.804c0.047,-0.192 0.117,-0.422 0.215,-0.684c0.32,-0.863 0.734,-6.215 2.218,-5.644c0.043,0.015 0.086,0.035 0.121,0.058c0.418,-0.316 1.004,-0.41 1.598,-0.344c0.203,-0.48 0.828,-0.925 1.5,-1.16c-0.133,-0.211 -0.191,-0.398 -0.148,-0.535c0.132,-0.445 0.425,-0.617 0.879,-0.512c0.332,0.079 0.5,0.118 0.941,0.391c2.926,-1.988 6.34,-5.211 10.094,-5.418c0.234,-0.574 0.683,-1.141 1.383,-1.762c4.734,-4.226 10.722,-6.73 17.062,-6.41c1.641,0.082 3.613,-0.109 3.941,-0.469c1.211,-1.316 3.172,-2.414 5.114,-2.863c0.949,-0.035 1.926,-0.086 2.773,-0.152c0.383,0.039 0.668,0.07 0.938,0.101c0.433,-0.136 1.375,-0.175 2.371,-0.121c0.64,0.032 1.301,0.102 1.867,0.211c1.836,-0.406 4.242,-0.875 5.93,-0.031c1.257,-0.523 4.039,-1.211 6.187,-2.371c-0.086,-0.137 -0.164,-0.289 -0.215,-0.445c-0.675,-2.051 0.754,-4.832 1.91,-6.422Zm1.266,1.023c0.832,-0.996 1.883,-1.715 3.086,-1.867c3.047,-0.391 6.09,0.742 8.547,2.387c1.644,1.093 4.187,2.203 4.117,4.465c-0.156,5.132 -2.668,12.714 -6.918,15.937c-2.16,1.633 -5.687,-2.59 -6.559,-4.398c-0.324,-0.668 -1.734,-3.571 -2.171,-1.465c-0.192,0.918 -0.043,1.851 0.336,2.746c-0.25,0.164 -0.579,0.387 -1.024,0.683c-0.769,0.516 -1.367,0.825 -1.976,1.028c-0.032,-0.051 -0.059,-0.098 -0.09,-0.149c-0.098,-0.156 -0.262,-0.312 -0.446,-0.437c0.239,-0.297 0.438,-0.809 0.485,-1.473c0.09,-1.383 -0.09,-4.258 -1.516,-5.07c-0.348,-0.195 -0.762,-0.36 -0.918,-0.36c-0.824,0 0.313,1.922 0.449,2.2c0.618,1.238 0.723,1.89 0.555,3.351c-0.062,0.508 -0.043,0.891 0.027,1.16c-0.168,0.079 -0.281,0.262 -0.289,0.594c-0.007,0.375 0.352,1.34 0.797,2.141c2.942,5.273 -1.394,10.855 -4.195,15.094c1.129,-0.215 1.863,-0.719 2.469,-1.43c-0.055,0.297 -0.086,0.523 -0.094,0.586c-0.344,3.121 -0.344,3.121 -0.691,6.957c-0.239,2.629 -0.747,5.715 -2.395,7.926c-0.078,-0.27 -0.125,-0.473 -0.137,-0.586c-0.039,-0.395 -0.328,-0.684 -0.676,-0.684c-0.542,0 -0.066,3.641 0.2,4.363c0.629,1.719 1.765,4.446 1.402,6.289c-0.176,0.899 -0.156,1.055 0.441,1.024c-0.046,1.109 0.102,2.539 0.122,2.789c0.347,4.168 0.347,6.422 0.347,8.34c0,3.808 0.992,7.496 3.465,10.5c0.602,0.73 1.098,1.027 1.434,1.031c0.406,0.234 1.304,0.383 3.289,0.637c2.758,0.359 3.613,0.601 3.855,1.086c0.141,0.285 0.414,0.468 0.727,0.5c0.625,0.246 1.597,0.402 2.066,0.402l2.863,0c1.555,0 3.586,2.215 4.911,3.055c0.011,0.007 0.023,0.015 0.035,0.023c-0.746,0.254 -1.5,0.664 -2.028,1.086c-0.738,-0.012 -1.793,0.32 -2.398,0.719c-1.246,-0.008 -2.855,-0.16 -3.609,-0.352c-1.391,-0.347 -1.391,-0.347 -2.102,-0.347c-0.394,0 -0.578,0.062 -0.617,0.164c-0.348,0.011 -0.703,0.05 -1.027,0.121c-2.418,0.504 -2.868,0.504 -5.895,-0.051c-2.93,-0.539 -3.313,-0.695 -3.602,-1.48c-0.179,-0.485 -0.515,-0.95 -0.746,-1.04c-0.062,-0.023 -0.121,-0.043 -0.175,-0.054c-0.032,-0.145 -0.059,-0.293 -0.09,-0.442c-0.868,-4.16 -3.938,-7.257 -6.348,-10.554c-0.547,-0.743 -1.168,-2.118 -1.387,-3.051c-0.218,-0.93 -0.871,-2.582 -1.453,-3.672c-1.058,-1.973 -1.058,-1.973 -0.793,-6.207c0.242,-3.805 -0.023,-3.82 -0.304,-4.32c-0.282,-0.676 -0.676,-2.465 -0.891,-3.102l0.41,-4.523c0.082,-1.18 0.145,-2.028 0.168,-2.637c0.574,-0.125 0.543,-1.719 -0.262,-2.922c-1.519,-2.277 -0.386,-6.043 0.09,-8.422c0.481,-2.367 0.871,-5.125 0.871,-6.121c0,-0.316 -0.011,-0.582 -0.035,-0.797c0.02,0 0.039,-0.004 0.055,-0.008c0.488,-0.14 0.472,-0.207 -0.613,-3.25c-0.614,-1.718 -1.282,-3.285 -2.532,-4.578l0.457,1.926c-0.191,-0.148 -0.386,-0.273 -0.562,-0.352c-1.883,-0.847 -3.485,-2.124 -4.711,-3.605c-2.035,-2.453 -1.508,1.234 -0.363,2.289c1.503,1.387 3.191,2.637 5.421,2.988c0.219,0.036 0.399,0.047 0.543,0.039c0.27,1.063 0.621,2.172 0.918,2.911l-0.004,0c-0.566,-0.055 -1.386,-0.133 -2.558,-0.278c-3.289,-0.402 -4.516,1.188 -7.465,-0.129c-0.809,-0.097 -7.457,-5.23 -7.59,-5.343c-1.109,0.121 -1.73,0.781 -4.203,0.929c-1.242,0.075 -2.273,0.137 -3.129,0.18c-0.027,0.004 -0.055,0.012 -0.082,0.019c-1.23,0.657 -2.344,1.356 -2.793,1.903c-1.144,1.383 1.535,0.086 2.403,-0.153c2.945,-0.812 2.945,-0.812 3.785,-0.914c0.722,-0.089 2.179,0.161 4.019,-0.367c0.832,1.289 3.75,3.614 4.785,4.141c4.02,2.043 7.762,1.832 12.289,1.508c0.551,-0.039 0.93,-0.078 1.188,-0.141c-0.203,0.473 -0.379,1.207 -0.422,1.945c-0.039,0.672 -0.277,1.27 -0.551,2.012c-0.187,-0.133 -0.41,-0.254 -0.648,-0.344c-3.383,-1.277 -6.891,-0.285 -10.289,0.266c-2.328,0.379 -2.852,0.609 -3.227,1.437c-0.078,-0.117 -0.152,-0.218 -0.215,-0.3c0.286,-0.207 0.368,-0.524 0.258,-0.981c-0.414,-1.679 -4.129,-0.246 -5.539,1.188c-0.25,-0.114 -0.535,-0.2 -0.859,-0.266c-1.953,-0.402 -4.364,-0.629 -6.16,0.414c-0.032,-0.105 -0.149,-0.133 -0.325,-0.086c-0.382,-0.566 -0.91,-1.199 -1.215,-1.371c-1.328,-0.75 -3.089,-2.375 -3.695,-3.812c-0.074,-0.184 -0.531,-0.403 -1.008,-0.489c-2.601,-0.472 -4.882,-2.187 -6.972,-3.679c-0.449,-0.317 -0.832,-0.59 -1.157,-0.821c0.821,-0.515 1.59,-1.152 2.29,-1.777c0.542,-0.488 1.792,-1.113 2.773,-1.395c1.352,-0.382 2.645,-0.769 3.75,-1.675c0.098,-0.082 0.195,-0.184 0.285,-0.297c1.133,-0.535 3.164,-2.723 3.594,-3.082c4.344,-3.649 9.785,-5.246 15.398,-5.246c3.543,0 3.543,0 3.282,-0.489c-0.04,-0.074 -0.122,-0.14 -0.25,-0.199c1.269,-0.262 3.824,-1.484 4.355,-1.738c2.953,-1.41 6.207,-0.57 6.953,-0.524c1.317,0.082 1.317,0.082 3.692,-0.152c1.855,-0.183 2.586,-0.086 3.343,0.445c1.856,1.301 2.543,0.567 2.004,-0.441c0.071,-0.055 0.098,-0.125 0.094,-0.207c1.203,0.027 2.145,-0.426 3.066,-0.961c0.473,-0.273 1.075,-0.73 1.688,-1.316c0.25,-0.235 0.387,-0.524 0.41,-0.77c0.238,0.039 0.418,-0.176 0.383,-0.812c-0.09,-1.789 0.656,-4.008 1.949,-5.563Zm-18.34,48.859c-0.105,0.606 -0.183,1.629 -0.304,3.34c-0.094,1.282 -0.157,2.176 -0.184,2.805c-0.074,0.117 -0.145,0.273 -0.207,0.469c-0.219,0.668 -0.305,1.144 -0.281,1.574c-0.254,0.016 -0.762,0.297 -1.59,0.965c-1.106,0.89 -2.082,1.742 -3.071,2.754c-2.328,2.375 -5.707,3.39 -8.746,4.551l1.383,0c0.406,0 0.571,0.003 1.219,0.015c3.551,0.07 7.207,-3.961 9.586,-6.152c0.633,-0.586 1.098,-1.184 1.301,-1.598c0.117,0.449 0.343,0.914 0.644,1.574c0.18,0.399 0.457,1.301 0.668,2.239c-0.371,0.402 -0.754,1.004 -1.215,1.476c-0.297,0.305 -2.277,2.004 -3.328,2.473c-1.906,0.855 -4.871,2.687 -6.027,3.441c-2.531,1.657 -4.598,4.289 -6.813,6.383c-0.996,0.941 -1.57,1.766 -1.5,2.152c0.102,0.579 0.368,0.649 0.692,0.485c0.195,0.199 0.512,0.41 0.965,0.66c1.695,0.934 2.836,2.18 4.066,3.664c1.215,1.465 1.215,1.465 2.152,2.121c0.329,0.231 1.852,0.809 2.098,0.305c0.523,-0.008 1.086,-0.121 1.426,-0.328c0.461,0.097 0.851,0.203 1.055,0.293c0.39,0.172 1.507,0.578 2.347,0.625c-0.015,0.078 -0.023,0.156 -0.031,0.242c-0.094,1.105 -0.258,1.297 -1.465,1.699c-0.207,0.07 -0.391,0.152 -0.551,0.242c-0.281,-0.129 -0.703,-0.008 -1.09,0.313c-1.023,0.844 -2.503,0.539 -3.664,0.222c-0.757,-0.211 -1.246,-0.156 -1.492,0.043c-0.601,-0.14 -1.582,-0.152 -2.32,-0.093c-0.891,0.074 -1.789,0.109 -2.469,0.105c-1.254,-0.402 -2.887,-0.656 -3.258,-0.402c-2.703,-0.805 -7.074,-1.074 -9.765,-0.172c-0.16,-0.008 -0.336,-0.004 -0.524,0.008c-3.527,0.207 -2.597,-2.68 -1.25,-5.25c0.09,-0.11 0.188,-0.235 0.289,-0.375c1.254,-1.735 1.254,-1.735 3.637,-4.032l1.012,-0.976c0.566,-0.02 1.386,-0.754 2.855,-2.547c1.598,-1.957 9.172,-12.77 9.637,-13.094c0.234,-0.168 0.473,-0.383 0.672,-0.609c0.015,-0.43 0.101,-1.082 0.234,-2.094c0.043,-0.348 0.09,-0.66 0.137,-0.945c0.293,-0.445 0.605,-0.945 0.894,-1.41c1.145,-1.149 1.204,-1.18 2.098,-1.645c0.438,-0.23 0.668,-0.418 0.731,-0.625c2.121,-0.961 4.132,-2.191 6.187,-3.523c1.047,-0.68 2.313,-1.223 3.16,-1.368Zm18.121,-20.496c-0.492,0.575 -1.082,1 -1.945,1.211c-0.434,1.164 -0.988,2.285 -1.605,3.321c-0.18,0.3 -0.352,0.593 -0.52,0.871c0.004,0.062 0.004,0.129 0.004,0.23c0,5.34 0.367,13.735 -3.535,18.383c0.078,0.203 0.156,0.414 0.238,0.617c1.023,2.61 1.563,3.09 1.563,5.899c0,0.648 -0.008,1.093 -0.047,1.394c0.004,0.008 0.011,0.02 0.015,0.028c0.942,1.46 1.063,5.324 0.989,7.906c1.664,2.109 3.265,4.297 3.828,6.972c0.027,0.133 0.054,0.262 0.082,0.391c0.051,0.016 0.105,0.031 0.16,0.055c0.207,0.078 0.508,0.492 0.672,0.918c0.261,0.703 0.605,0.843 3.25,1.32c2.73,0.496 3.136,0.5 5.312,0.047c0.293,-0.063 0.614,-0.098 0.926,-0.106c0.039,-0.093 0.203,-0.148 0.563,-0.148c0.64,0 0.64,0 1.89,0.313c0.68,0.167 2.137,0.304 3.258,0.308c0.547,-0.351 1.496,-0.648 2.164,-0.637c0.477,-0.379 1.156,-0.742 1.828,-0.972c-0.012,-0.004 -0.019,-0.012 -0.031,-0.016c-1.195,-0.75 -3.024,-2.723 -4.43,-2.723l-2.582,0c-0.422,0 -1.301,-0.136 -1.867,-0.355c-0.281,-0.031 -0.523,-0.195 -0.652,-0.449c-0.219,-0.434 -0.989,-0.645 -3.477,-0.965c-1.793,-0.227 -2.601,-0.359 -2.965,-0.57c-0.304,-0.004 -0.754,-0.266 -1.297,-0.922c-2.226,-2.672 -3.125,-5.957 -3.125,-9.352c0,-1.707 0,-3.719 -0.312,-7.43c-0.02,-0.222 -0.149,-1.496 -0.11,-2.484c-0.539,0.027 -0.558,-0.109 -0.398,-0.91c0.328,-1.641 -0.699,-4.074 -1.262,-5.602c-0.242,-0.644 -0.672,-3.89 -0.183,-3.89c0.316,0 0.574,0.258 0.609,0.609c0.012,0.102 0.055,0.281 0.125,0.52c1.488,-1.965 1.945,-4.719 2.16,-7.059c0.313,-3.418 0.313,-3.418 0.625,-6.199c0.004,-0.055 0.035,-0.254 0.082,-0.524Zm-36.718,27.907c0.086,0.218 0.242,0.465 0.484,0.73c1.062,1.164 2.016,1.942 2.711,2.34c-1.223,1.68 -5.09,7.074 -6.231,9.062c-1.785,3.11 -4.027,5.504 -6.769,7.77c-2.047,-0.012 -4.024,-0.16 -6.039,-0.691c-2.633,-0.7 -2.633,-0.7 -3.313,-0.872c-1.199,-0.308 -0.199,0.977 0.258,1.239c2.047,1.164 4.543,1.375 6.844,1.375c0.351,0 0.668,-0.004 0.953,-0.012c-0.508,0.391 -0.988,0.754 -1.41,1.059c-0.399,0.75 -0.742,1.539 -1.102,2.316c-0.117,0.203 -0.218,0.414 -0.3,0.617c-3.458,0.442 -10.297,-0.375 -13.211,-0.836c-2.223,-0.347 -2.223,-0.347 -4.227,-0.519c-0.469,-0.043 -0.605,-0.102 -0.996,-0.094c-0.434,-0.078 -0.875,-0.129 -1.262,-0.133c-0.097,-0.012 -0.207,-0.008 -0.332,0.008c-0.219,0.016 -0.406,0.047 -0.555,0.106c-5.222,1.07 -5.546,0.277 -8.367,0.609c-0.285,0.035 -3.25,0.336 -4.55,0.223c-1.149,-0.106 -2.114,-0.481 -3.333,-0.11c-0.214,0.278 -1.382,1.356 -2.777,0.848c-0.531,0.058 -1.293,0 -1.805,0c-1.054,0.133 -3.031,0.828 -3.726,0.578c-0.102,0.004 0.039,-1.363 0.57,-1.774c0.375,-0.296 1.606,-0.542 2.754,-0.566c0.883,-0.68 1.391,-1.75 2.133,-2.676c0.058,-0.078 0.117,-0.144 0.168,-0.211c0.316,-0.23 0.66,-0.449 1.016,-0.648c0.289,-0.063 0.582,-0.113 0.859,-0.156c0.328,-0.012 0.726,-0.016 1.219,-0.016c5.375,0 6.695,-4.547 10.496,-7.543c2.914,-2.293 4.191,1.137 5.015,3.234c0.52,1.325 0.793,1.918 1.168,2.211c0.028,0.27 0.59,0.454 1.836,0.43c0.344,-0.008 1.496,-0.059 2.578,-0.262c0.164,0.016 1.075,-0.136 2.164,-0.363c0.137,0.016 0.227,0.027 0.239,0.027c2.894,0 6.152,-0.468 8.613,-2.109c0.879,-0.586 2.23,-1.258 3.004,-1.492c0.258,-0.078 0.492,-0.172 0.687,-0.266c0.153,0.02 0.344,0.032 0.579,0.032c2.625,0 5.257,0.343 7.875,0.667c0.25,-0.363 0.535,-0.714 0.835,-1.027c-0.617,-0.316 -1.261,-0.582 -1.539,-0.637c-0.757,-0.144 -1.5,-0.246 -2.242,-0.308c-0.929,-0.86 -2.656,-1.61 -3.285,-2.024c-0.266,-0.179 -0.488,-0.324 -0.672,-0.445c2.113,-1.289 4.086,-3.102 4.582,-4.941c0.012,-0.047 0.02,-0.09 0.031,-0.129c0.516,0.312 0.911,0.496 1.235,0.578c0.777,0.191 0.844,-0.266 0.652,-0.793c0.485,-0.004 0.981,-0.211 1.344,-0.774c0.227,-0.355 1.027,-2 2.945,-3.66c0.352,0.27 1.242,0.2 2.196,0.028Zm9.003,13.968c-0.011,-0.023 -0.023,-0.046 -0.031,-0.07c-0.617,0.5 -1.211,1.031 -1.773,1.598c-0.942,0.945 -1.844,2.14 -2.969,2.859c-0.328,0.215 -0.328,0.215 -1.906,1.746c-0.094,0.09 -0.219,0.231 -0.36,0.391c0.778,0.223 1.657,0.715 2.004,0.918c0.938,0.535 2.071,1.41 3.121,2.418c0.887,-0.317 2.039,-0.844 2.637,-1.981c1.406,-2.664 0.594,-4.699 -0.5,-7.371c-0.019,-0.051 -0.105,-0.234 -0.223,-0.508Zm-18.519,-10.093c-0.867,0.41 -1.93,1.273 -2.234,1.554c-1.582,1.453 -3.235,2.746 -5.036,3.879c-0.293,-0.871 -0.718,-1.617 -1.004,-1.726c-0.191,-0.075 -0.355,-0.051 -0.48,0.043c-0.43,-0.504 -0.98,-1.016 -1.156,-1.16c-1.356,-1.09 -1.719,-1.348 -2.582,-1.848c-1.008,-0.578 -1.008,-0.578 -1.614,-1.34c-0.371,-0.465 -0.515,-0.648 -0.816,-0.961c3.242,0.875 7.242,0.598 10.336,0.305c1.953,-0.188 3.121,0.312 4.586,1.254Zm21.226,4.14c1.286,-1.664 -1.722,0.27 -2.066,0.489c-2.941,1.871 -5.519,4.285 -8.207,6.503l1.391,-0.542c3.32,-1.29 6.695,-3.629 8.882,-6.45Zm-7.906,-27.824c-1.039,0.461 -2.793,1.168 -3.945,1.309c0.09,0.449 0.082,1.109 -0.051,1.695c-0.758,3.355 -3.676,6.684 -6.742,8.156c-1.215,0.578 -2.391,1.215 -3.566,1.864c0.859,-1.153 1.765,-2.024 2.894,-2.938c2.859,-2.309 5.332,-4.426 6.422,-8.035c0.094,-0.32 0.187,-0.57 0.277,-0.762c-0.207,-0.062 -0.336,-0.183 -0.359,-0.387c-1.922,-0.211 -3.852,-0.347 -5.695,0.336c-0.43,0.16 -0.813,0.243 -1.118,0.258c-0.25,0.645 -0.398,0.84 -1.277,2c-0.883,1.164 -1.141,1.567 -1.562,2.438c-0.758,1.578 -2.688,1.539 -1.536,-0.11c0.414,-0.597 0.5,-0.699 2.309,-2.73c0.094,-0.106 0.367,-0.488 0.699,-0.946c-0.484,0.465 -0.953,0.938 -1.316,1.504c-1.168,1.817 -4.695,1.266 -1.645,-0.433c0.828,-0.465 2.094,-1.461 2.809,-2.219c0.316,-0.336 0.629,-0.598 0.906,-0.781c-0.406,-0.301 -0.629,-0.371 -1.531,-0.656c-0.711,-0.223 -1.727,-1.024 -2.508,-1.965c-0.719,-0.871 -1.902,-1.879 -2.621,-2.235c-1.309,-0.652 -1.309,-0.652 -3.219,-1.699c-1.91,-1.047 -1.91,-1.047 -2.09,-1.051c-0.582,-0.015 -2.164,-0.957 -3.367,-1.933c-0.656,0.496 -1.656,0.926 -2.297,0.808c-0.64,0.16 -1.457,0.731 -2.027,0.953c-0.262,1.434 -0.305,2.805 -1.047,4.161c-0.18,0.332 -0.383,0.617 -0.582,0.847c-0.16,0.641 -0.219,0.742 -1.035,2.121c-0.492,0.832 -1.027,2.469 -1.211,3.719c-0.18,1.227 -0.605,3.133 -0.941,4.238c-0.872,2.856 0.554,5.383 2.293,7.668c1.195,1.575 2.582,3.125 3.496,4.899c0.293,-0.121 0.582,-0.078 0.879,0.121c0.293,0.199 1.707,0.516 3.14,0.699c1.664,0.211 4.274,0.207 7.242,-0.012c4.414,-0.328 4.684,-0.308 5.551,0.364c0.914,0.707 0.914,0.707 1.574,0.851c0.539,0.114 0.637,0.133 1.246,0.571c0.028,-0.008 0.063,-0.016 0.094,-0.02c0.399,-0.07 0.942,-0.445 1.211,-0.836c0.27,-0.391 2.188,-3.117 3.235,-3.84c4.664,-3.234 8.246,-11 7.128,-16.605c-0.074,-0.367 -0.136,-0.934 -0.117,-1.387Zm1.578,18.676c-0.714,0.637 -1.234,1.383 -1.425,2.558c-0.024,0.133 -0.075,0.29 -0.149,0.465c-0.394,-0.566 -1.015,-1.301 -1.902,-2.187c-0.028,-0.039 -0.059,-0.071 -0.09,-0.106c0.504,-0.125 0.914,-0.226 1.129,-0.254c0.84,-0.113 1.648,-0.273 2.437,-0.476Zm12.618,-9.074c0.082,0.55 0.195,1.074 0.351,1.558c-1.883,0.207 -3.578,1.488 -5.308,2.238c-1.594,0.692 -2.915,1.536 -4.665,2.68c-2.515,1.641 -5.679,1.52 -8.531,2.168c-0.172,0.039 -0.336,0.074 -0.484,0.113c0.195,-0.218 0.387,-0.445 0.574,-0.691c0.25,-0.32 0.445,-0.656 0.574,-0.988c0.325,-0.371 0.633,-0.762 0.922,-1.164c0.895,0.332 3.004,-0.106 3.578,-0.262c0.594,-0.16 1.453,-0.281 1.91,-0.273c1.989,0.046 5.204,-1.84 6.379,-3.137c1.004,-1.106 3.075,-1.844 4.7,-2.242Zm3.332,-5.254c-0.164,-0.942 -0.715,-1.782 -1,-0.379c-0.227,1.121 0.347,2.238 0.82,3.219c0.223,0.457 1.281,0.828 2.215,0.89c0,0.008 0.004,0.02 0.004,0.035c0.136,1.766 -0.067,5.157 -1.082,6.532c-0.407,0.546 -0.883,1.664 -1.063,2.48c-0.5,2.281 1.051,1.234 1.551,-0.176c0.582,-1.644 1.324,-3.461 1.738,-5.925c0.137,-0.825 0.512,-1.137 0.235,-2.461c-0.047,-0.219 -0.125,-0.438 -0.223,-0.637c0.23,-0.11 0.375,-0.281 0.375,-0.528c0,-0.519 -0.199,-0.656 -0.828,-0.566c-1.399,0.195 -2.528,-1.25 -2.742,-2.484Zm-2.856,-4.41c-0.172,0.621 -0.328,1.351 -0.418,2.253c-0.191,1.93 -0.363,4.215 -0.191,6.29c-1.684,-0.145 -4.321,1.156 -5.336,2.3c-2.008,2.254 -5.301,3.289 -8.356,3.715c-1.199,0.168 -1.773,0.207 -2.14,0.125c1.051,-1.66 1.84,-3.508 2.398,-5.371c0.606,-2.031 1.543,-6.047 0.735,-8.465c0.402,-0.133 0.918,-0.422 1.246,-0.539c3.265,-1.191 8.644,-1.551 11.922,-0.355c0.046,0.015 0.093,0.031 0.14,0.047Zm11.199,-16.7c-0.832,-0.359 -4.57,-1.582 -4.734,0.043c-0.063,0.629 0.062,0.707 0.852,0.52c1.343,-0.313 4.371,1.031 4.941,2.226c0.348,0.731 0.957,-1.121 0.773,-1.57c-0.117,-0.285 -0.941,-0.836 -1.832,-1.219Zm8.86,-0.031c0.183,0.223 0.379,0.438 0.586,0.649c-0.313,3.031 -2.375,6.003 -4.09,8.523c0.812,-2.504 1.031,-5.18 0.137,-7.66c1.179,-0.321 2.292,-0.828 3.367,-1.512Zm-40.586,-0.301l3.504,-1.41c-1.473,-0.363 -2.871,0.188 -4.27,0.707c-0.414,0.153 -5.953,2.602 -3.781,2.274c1.043,-0.157 1.043,-0.157 4.547,-1.571Zm20.859,-4.121c0.27,-0.074 0.516,-0.156 0.715,-0.234c0.434,-0.172 0.84,-0.352 1.199,-0.52c1.145,1.629 4.867,3.856 6.813,3.375c2.301,-0.57 -2.399,-1.664 -2.817,-1.976c-1.101,-0.824 -1.75,-1.77 -2.547,-2.164c-0.023,-0.012 -0.054,-0.024 -0.093,-0.035c0.039,-0.047 0.058,-0.086 0.05,-0.114c-0.402,-1.48 -3.933,0.633 -4.464,0.949c-0.18,0.106 -0.332,0.204 -0.457,0.29c-2.09,-0.266 -4.489,0.39 -5.082,2.75c-0.446,1.765 0.152,0.882 1.265,0.011c1.617,-1.269 2.766,-2.062 4.86,-1.508c1.914,0.504 1.652,-0.308 0.558,-0.824Z"/></svg>