<?xml version="1.0" encoding="UTF-8" standalone="no"?><!DOCTYPE svg PUBLIC "-//W3C//DTD SVG 1.1//EN" "http://www.w3.org/Graphics/SVG/1.1/DTD/svg11.dtd"><svg width="100%" height="100%" viewBox="0 0 366 121" version="1.1" xmlns="http://www.w3.org/2000/svg" xmlns:xlink="http://www.w3.org/1999/xlink" xml:space="preserve" xmlns:serif="http://www.serif.com/" style="fill-rule:evenodd;clip-rule:evenodd;stroke-linejoin:round;stroke-miterlimit:1.41421;"><path d="M226.744,70.898c-0.019,0.218 -0.035,0.453 -0.05,0.707c-0.004,0.039 -0.008,0.078 -0.008,0.117c-0.051,0.511 -0.067,1.011 -0.047,1.504c0,1.679 0.223,3.488 1.082,4.871c0.305,1.218 0.145,2.828 0.387,4.367c0.058,0.379 1.23,2.375 2.117,5.098c1.262,3.894 0.684,4.562 1.086,7.043c0.332,2.046 0.387,2.625 1.383,3.324c0.457,0.32 0.746,0.445 0.922,0.437l0.003,0.004c0.325,0.301 0.7,0.539 1.125,0.758c0.559,0.723 1.809,1.262 2.407,1.664c1.644,1.102 4.367,0.996 5.711,-0.582c0.004,0 0.007,0.004 0.011,0.008c0.008,-0.047 0.02,-0.09 0.028,-0.141c0.156,-0.754 0.308,-0.851 1.32,-0.851c0.629,0 2.063,0.269 3.184,0.597c0.203,0.059 0.515,0.211 0.843,0.403c0.137,-0.012 0.27,-0.032 0.399,-0.055c0.078,0.043 0.187,0.07 0.316,0.078c0.629,0.164 1.098,0.078 1.328,-0.152c0.192,-0.055 0.321,-0.121 0.407,-0.223c0.183,-0.027 0.371,-0.066 0.566,-0.109c0.422,-0.02 0.676,-0.114 0.793,-0.25c0.676,-0.266 1.293,-0.645 1.582,-1.117c0.457,-0.278 0.695,-0.801 0.781,-1.356c0.285,-0.121 0.41,-0.434 0.196,-1.031c-0.762,-2.094 -4.954,-2.672 -6.883,-3.379c-1.68,-0.613 -1.68,-0.613 -2.117,-0.766c-0.04,-0.015 -0.082,-0.019 -0.118,-0.019c-1.086,-0.367 -1.882,-0.559 -2.117,-0.504c-0.023,-0.008 -0.047,-0.016 -0.074,-0.028c-1.402,-0.5 -1.402,-0.5 -3.219,-0.8c-0.293,-0.047 -0.543,-0.086 -0.754,-0.117c-0.027,-0.204 -0.054,-0.426 -0.086,-0.672c-0.375,-2.786 -0.375,-2.786 -0.636,-3.852c-0.032,-0.129 -0.063,-0.246 -0.098,-0.344c0.344,-0.808 0.352,-2.148 0.395,-2.601c0.265,-2.895 0.265,-2.895 0.265,-4.309c0,-0.863 -0.289,-2.043 -0.734,-3.023c-0.086,-0.192 -0.184,-0.379 -0.285,-0.559c-0.082,-0.707 -0.161,-1.242 -0.207,-1.473c-0.02,-0.097 -0.039,-0.195 -0.059,-0.281c1.055,-3.812 -0.496,-5.972 -1.848,-8.015c0.5,-1.254 -0.132,-4.215 -0.183,-4.809c-0.086,-1.027 -0.156,-1.773 -0.227,-2.312c0.141,-1.454 0.184,-3.09 -0.191,-4.465c-0.196,-0.719 -0.446,-1.364 -0.699,-1.895c0.746,-1.406 1.234,-3.75 1.597,-4.566c1.102,-2.477 1.274,-4.508 -0.262,-6.848c-0.023,-0.035 -0.046,-0.07 -0.07,-0.105c-0.125,-0.461 -0.269,-0.942 -0.433,-1.446c0.453,-0.554 0.761,-1.261 1.007,-2.039c0.414,-0.324 0.805,-0.719 1.172,-1.203c0.934,-1.254 2.852,-3.828 2.668,-5.707c-0.019,0.004 -0.043,0.012 -0.062,0.016c0,-0.012 0.004,-0.024 0.004,-0.035c0.082,-0.633 0.09,-1.102 0.039,-1.426c0.019,-0.082 0.035,-0.149 0.043,-0.196c0.312,-1.839 0.707,-3.089 1.293,-4.023c0.332,-0.34 0.476,-0.316 0.804,-0.77c0.094,-0.136 0.18,-0.273 0.258,-0.406c0.91,0.742 1.602,-0.027 1.84,0.102c0.512,0.281 0.305,1.109 0.84,1.441c0.406,0.762 2.117,0.754 2.004,0.297c0.304,0.203 0.613,0.414 0.933,0.633c1.106,0.773 2.489,1.48 3.071,1.574c1.054,0.172 1.113,1.668 1.996,2.234c1.105,0.715 2.629,1.446 4.191,1.934c1.215,0.383 2.457,0.617 3.543,0.582c0.988,0.07 4.473,-0.777 5.348,-0.996c2.019,-0.508 1.91,-1.586 3.98,-1.254c1.02,0.164 2.692,0.961 3.258,0.754c0.867,-0.316 1.266,-0.121 2.566,1.266c1.18,1.261 1.372,1.949 3.292,0.945c1.103,-0.57 0.587,0.68 1.712,0.894c0.723,0.133 2.047,1.004 2.364,0.708c0.062,-0.055 0.129,-0.18 0.199,-0.34c3.734,1.578 7.991,2.367 11.562,1.757c0.493,0.399 1.223,0.747 2.024,1.047c1.139,4.641 2.539,11.578 5.015,15.317c1.129,1.707 2.879,2.597 4.762,3.226c0.277,0.637 0.824,1.313 1.012,1.5c0.984,0.996 1.726,1.825 2.605,2.903c1.211,1.496 1.211,1.496 2.727,3.132c1.332,1.442 1.719,1.879 3.211,3.61c1.015,1.176 1.422,1.648 1.797,2.043c0.496,0.844 0.984,1.793 1.461,2.883c-0.059,0.211 -0.11,0.41 -0.106,0.57c-0.558,1.254 -0.504,2.699 -0.543,3.254c-0.008,0.094 -0.015,0.199 -0.023,0.32c-0.012,1.293 -0.008,2.574 0.176,3.891c0.066,0.488 0.336,1.168 0.371,1.777c0.894,1.492 3.953,1.809 5.812,1.777c1.516,0.063 3.035,-0.093 4.434,-0.543c0.472,-0.062 0.984,-0.105 1.586,-0.121c0.449,-0.003 0.875,0.02 1.285,0.067c0.012,0.301 0.289,0.32 1.258,0.312c0.09,0 0.179,0 0.265,0.004c1.106,0.328 2.133,0.864 3.239,1.59c0.152,0.098 1.097,0.371 1.312,0.457c0.215,0.031 0.449,0.051 0.695,0.063c0.145,0.004 0.457,-0.008 0.856,-0.039c0.594,0.269 1.172,0.48 1.48,0.625c1.149,0.531 2.672,0.363 4.032,-0.129c2.687,0.043 5.328,-0.547 6.656,-3.153c0.055,-0.109 0.101,-0.215 0.148,-0.308c0.746,-0.418 0.801,-2.43 0.633,-3.098c-0.121,-0.465 -0.324,-0.609 -0.555,-0.539c-0.074,-0.184 -0.254,-0.277 -0.589,-0.324c-0.254,-0.125 -0.653,-0.223 -1.297,-0.348c-1.676,-0.332 -1.68,-0.328 -1.993,-0.328c-0.113,-0.047 -0.222,-0.094 -0.32,-0.141c1.813,0.067 2.883,-0.375 4.508,-1.453c0.031,-0.019 0.066,-0.039 0.098,-0.062l0.004,-0.004c0.519,-0.379 0.71,-1.125 0.835,-1.832c0.059,-0.207 0.086,-0.367 0.067,-0.434c0.008,-0.039 0.016,-0.074 0.019,-0.109c0.247,-1.567 0.247,-1.567 -1.664,-1.66c-0.484,-0.024 -2.339,-0.438 -3.066,-0.914c-1.789,-1.297 -2.426,-1.825 -4.539,-0.891c-0.078,-0.031 -1.391,-0.738 -1.457,-0.801c-3.039,-2.89 -4.36,-3.512 -6.141,-5.41c-2.34,-2.5 -4.543,-3.234 -7.457,-4.898c-0.406,-0.231 -0.75,-0.426 -1.035,-0.594c-0.098,-0.145 -0.238,-0.313 -0.449,-0.578c-1.567,-1.922 -2.906,-4.692 -3.66,-7.055c-0.266,-0.824 -0.278,-0.867 -0.821,-1.527c-2.531,-6.68 -4.156,-12.52 -9.289,-16.524c-0.355,-0.523 -0.797,-1.082 -1.027,-1.508c-0.043,-0.14 -0.094,-0.293 -0.148,-0.437c0.062,-1.594 -1.512,-4.41 -2.067,-5.031l-0.152,-0.172c-0.028,-0.07 -0.051,-0.145 -0.078,-0.219c-0.016,0.02 -0.032,0.035 -0.047,0.055c-0.379,-0.719 -0.864,-1.391 -1.141,-1.742c-0.473,-0.598 -0.765,-0.969 -1.148,-1.301c-1.606,-2.239 -4.75,-3.789 -6.473,-5.574c-1.883,-1.95 -3.672,-3.274 -5.883,-4.364c-0.547,-0.269 -1,-0.492 -1.375,-0.672c-1.161,-0.824 -2.441,-1.519 -3.738,-2c-0.832,-0.586 -1.664,-1.125 -2.301,-1.484c-0.004,-0.641 -0.169,-1.266 -0.504,-1.754c-0.402,-0.582 -0.75,-0.598 -1.015,-0.355c-1.297,-0.528 -3.414,-0.313 -4.489,-0.508c-0.297,-0.051 -0.57,0.019 -0.75,0.164c-0.777,-0.145 -1.847,-0.516 -2.708,-0.957c-2.788,-1.426 -5.381,-1.004 -8.456,-1.543c-0.269,-0.047 -0.515,-0.086 -0.734,-0.117c-0.641,-0.414 -1.68,-0.696 -2.024,-0.633c-0.523,0.09 -0.601,0.101 -1.035,0.238c-0.629,-0.824 -1.121,-1.492 -1.601,-1.961c-0.227,-0.035 -0.489,-0.066 -0.774,-0.09c-0.933,0.079 -1.941,0.129 -2.718,-0.046c-0.036,0 -0.071,0.003 -0.106,0.007c-0.051,0 -0.101,0.004 -0.148,0.008c-0.067,0.035 -0.133,0.07 -0.2,0.106c-0.32,0.179 -1.023,0.359 -1.8,0.531c-0.774,-0.485 -2.176,-0.445 -2.868,-0.473c-0.406,-0.015 -0.742,-0.027 -1.023,-0.035c-0.191,-0.176 -0.41,-0.285 -0.668,-0.238c-0.18,0.031 -0.406,0.117 -0.656,0.226c-0.27,0.016 -0.453,0.059 -0.762,0.133c-0.402,0.094 -0.867,0.328 -1.156,0.649c-0.34,0.089 -0.664,0.121 -0.945,0.046c-0.579,-0.148 -1.348,-0.253 -2.172,0.059c-2.067,-0.367 -2.075,-0.359 -2.446,-0.195c-0.074,0.035 -0.132,0.117 -0.172,0.23c-0.39,-0.129 -0.957,-0.219 -1.73,-0.246c-0.285,-0.012 -0.559,-0.015 -0.824,-0.008c-1.391,-0.234 -4.613,0.371 -5.547,1.891c-0.438,-0.293 -1.098,-0.539 -1.91,-0.602c-0.27,-0.019 -0.571,-0.011 -0.895,0.024c-0.64,0 -1.258,0.14 -1.844,0.383c-0.226,0.062 -0.457,0.136 -0.687,0.211c-1.152,-0.004 -2.684,0.5 -3.137,0.695c-1.269,0.531 -3.23,1.555 -3.535,3.055c-1.902,-0.032 -3.808,0.558 -5.465,1.574c-0.367,0.074 -0.707,0.172 -0.957,0.238c-1.633,0.402 -2.867,1.356 -3.578,2.793c-0.273,0.063 -0.531,0.137 -0.75,0.195c-1.566,0.422 -2.848,1.395 -3.09,3.09c-0.008,0.043 -0.008,0.09 -0.008,0.141l0,0.004c-0.148,0.172 -0.281,0.363 -0.394,0.566c-0.039,0.031 -0.074,0.067 -0.109,0.102c-0.418,0.418 -1.278,1.976 -1.524,3.234c-0.008,0.008 -0.019,0.016 -0.027,0.027c-0.496,0.45 -0.754,0.899 -0.914,1.391c-0.192,0.426 -0.285,0.93 -0.305,1.438c-0.082,0.449 -0.18,0.941 -0.363,1.496c-0.309,0.949 -0.258,1.793 -0.219,2.437c-0.473,0.438 -0.961,0.992 -1.313,1.52c-0.437,0.324 -0.777,0.613 -0.82,0.664c-1.355,1.66 -0.859,4.875 -0.894,6.453c-0.102,0.355 -0.043,1.98 0.308,3.973c0.004,1.195 0.41,2.503 0.965,3.777c0.453,1.277 1.035,2.492 1.789,3.445c0.156,0.274 0.305,0.543 0.449,0.797c0.219,0.387 0.625,0.934 1.121,1.418c0.086,0.813 0.168,1.918 0.266,2.254c-1.574,0.355 -3.715,1.672 -4.547,2.23c-1.871,1.254 -2.039,2.391 -1.75,4.629c0.125,0.989 1.059,3.965 2.039,5.528c0.063,0.746 0.145,1.496 0.235,2.207c-0.27,2.5 -0.297,5.218 0.421,7.523c0.262,1.426 0.797,2.797 1.61,4c0.359,1.215 0.594,2.156 0.461,2.52c-0.543,1.461 -0.594,2.265 -0.266,4.187c0.043,0.258 0.094,0.488 0.153,0.699c0.011,1.743 0.347,3.883 0.894,5.297c-0.012,0.555 -0.043,1.211 -0.113,1.996c-0.473,5.446 1.469,8.055 3.761,12.075c0.364,0.789 0.809,1.558 1.219,2.292c0.285,0.602 0.59,1.286 0.91,1.969c0.008,0.012 0.012,0.02 0.016,0.031c0.246,0.567 0.512,1.192 0.77,1.809c0.679,1.645 1.226,3.109 1.211,3.258c-0.075,0.676 0.374,1.449 0.972,1.914c0.047,0.043 0.098,0.082 0.156,0.113c0.024,0.016 0.047,0.028 0.071,0.039c0.047,0.032 0.097,0.059 0.148,0.086l0.004,0c2.285,1.239 5.109,1.567 7.527,0.508c0.762,0.102 2.071,0.457 2.211,0.555c0.563,0.386 1.121,0.711 1.692,0.961c0.219,0.179 0.531,0.355 0.926,0.488c1.269,0.437 4.554,1.047 6,-0.031c1.812,0.183 3.937,-0.414 4.105,-2.227c1.355,0.008 3.082,-0.914 2.859,-2.258l0,-0.004c0.079,-0.187 0.016,-0.457 -0.265,-0.812c-0.91,-1.16 -2.645,-1.965 -3.981,-2.516c-0.09,-0.035 -0.187,-0.074 -0.293,-0.113c-0.558,-0.453 -1.793,-0.637 -2.851,-0.578c-0.11,-0.024 -0.223,-0.043 -0.332,-0.066c-0.278,-0.094 -0.621,-0.165 -0.985,-0.208l0,-0.007c0.25,-0.524 0.371,-1.211 0.125,-1.707c-0.207,-0.418 -0.629,-0.61 -1.007,-0.61l-0.004,-0.004c-0.153,-0.152 -0.356,-0.207 -0.641,-0.207c-0.148,0 -0.27,0.028 -0.363,0.075c-0.586,-0.192 -1.516,-0.375 -2.672,-0.512c-2.246,-0.274 -3.078,-0.289 -3.703,0.035c-1.078,-0.207 -2.414,-0.293 -3.227,-0.09c-0.137,-0.265 -0.262,-0.492 -0.332,-0.633c-0.07,-0.136 -0.137,-0.277 -0.207,-0.414c-0.199,-0.875 -0.535,-1.652 -0.918,-1.926c-0.019,-0.039 -0.035,-0.078 -0.051,-0.117c-0.09,-0.383 -0.164,-0.699 -0.226,-0.972c0.035,-1.18 0.176,-2.696 0.386,-4.786c0.204,-2.015 0.188,-3.777 0.055,-5.21c-0.074,-1.715 -0.367,-3.387 -0.941,-4.676c0.078,-0.524 0.082,-1.379 0.082,-2.817c0,-3.617 -0.77,-3.238 -1.703,-6.781c0.015,-0.043 0.031,-0.082 0.047,-0.125c0.175,-0.539 0.457,-1.918 0.687,-3.812c0.25,-0.012 0.527,-0.047 0.816,-0.11c1.481,-0.332 2.875,-0.746 4.125,-1.386Zm-6.511,0.003c0.004,-0.199 -0.004,-0.398 -0.016,-0.593c-0.019,-0.219 -0.031,-0.461 -0.039,-0.715c-0.07,-1.793 0.016,-4.383 0.215,-6.16c0.051,-0.457 0.027,-0.825 -0.035,-1.149c-1.235,-0.793 -1.942,-3.383 -2.071,-4.519c-0.003,-0.012 -0.003,-0.02 -0.003,-0.032c-0.856,-1.847 -4.122,-8.3 -0.735,-4.921c0.926,0.925 1.629,2.812 1.985,4.402c0.136,0.16 0.265,0.348 0.371,0.551c0.097,0.187 0.406,0.746 0.734,1.422c0.605,-0.711 1.07,-1.196 1.211,-1.719c0.086,-0.32 0.637,-1.34 1.23,-2.274c1.965,-3.101 1.985,-7.504 0.825,-10.953c-0.414,-1.23 -0.329,-2.601 0.8,-1.375c0.098,-0.105 0.211,-0.207 0.34,-0.312c0.594,-0.496 1.016,-1.117 1.258,-1.801c0.008,-0.781 -0.101,-1.555 -0.23,-2.168c-0.176,-0.836 -0.172,-1.613 -0.063,-2.199c-1.574,2.027 -3.648,4.429 -6.41,3.886c-1.25,-0.242 0.156,-1.132 0.726,-1.339c1.872,-0.684 3.286,-1.731 4.688,-3.125c0.543,-0.547 3.273,-2.34 1.812,-0.481c-0.007,0.008 -0.015,0.016 -0.019,0.028c0.309,0.128 0.648,0.722 0.914,1.976c0.016,0.039 0.031,0.078 0.047,0.121c0.824,2.11 0.793,4.582 -0.766,6.242c-0.265,0.399 -0.593,0.688 -1,0.809c-0.074,0.043 -0.144,0.082 -0.215,0.117c0.469,1.156 0.676,2.531 0.665,3.981c0.124,-0.161 0.234,-0.329 0.328,-0.496c0.394,-0.727 1.156,-1.141 1.625,-1.102c0.086,-0.152 0.222,-0.363 0.402,-0.648c0.414,-0.645 0.789,-1.454 0.898,-1.934c0.188,-0.828 0.188,-0.828 0.188,-4.316c0,-2.387 0.082,-3.231 0.41,-3.438l0.004,0c0.609,-2.07 1.223,-4.105 1.441,-6.266c0.055,-0.558 0.204,-1.054 0.387,-1.39c0.152,0.015 0.297,0.035 0.438,0.051c-0.012,-0.356 0.023,-0.817 0.125,-1.379c0.382,-2.157 0.812,-3.004 2.441,-4.828c1.699,-1.903 2.063,-2.333 2.605,-3.063c0.051,-0.07 0.125,-0.148 0.211,-0.227c-0.269,-0.015 -0.472,-0.031 -0.574,-0.043c-1.906,-0.171 -6,-1.828 -1.695,-1.296c1.25,0.156 2.133,0.132 2.887,-0.09c0.191,-0.106 0.41,-0.207 0.66,-0.293c0.273,-0.098 0.824,-0.465 1.469,-0.879l0.003,-0.004c0.161,-0.383 0.348,-0.582 0.465,-0.289c1.403,-0.867 3.02,-1.691 3.231,-0.484c0.191,1.07 -0.938,1.961 -2.196,2.578c-0.062,0.133 -0.164,0.246 -0.304,0.34c0.148,0.222 0.336,0.488 0.57,0.82c0.203,0.293 0.379,0.558 0.527,0.793c0.395,0.023 0.754,0.215 1.036,0.648c0.203,0.02 0.464,0.102 0.8,0.274c0.223,0.117 0.453,0.234 0.68,0.355c-0.027,-0.148 -0.047,-0.301 -0.07,-0.457c-0.172,-1.34 -0.102,-4.23 0.156,-6.426c0.328,-2.808 0.715,-9.55 1.617,-12.648c-0.625,0.219 -1.535,0.316 -2.539,0.129c-0.027,-0.008 -0.055,-0.012 -0.078,-0.016c-0.266,0.055 -0.531,0.074 -0.766,0.055c-0.215,-0.02 -0.465,0.031 -0.781,0.16c-0.18,0.008 -0.387,0.039 -0.703,0.086c-1.184,0.18 -2.758,0.871 -3.684,1.887c-0.265,-0.012 -0.586,-0.059 -0.968,-0.149c-0.918,-0.211 -1.848,-0.136 -3.098,0.246c-0.301,0.09 -0.606,0.141 -0.883,0.149c-0.047,-0.09 -0.09,-0.18 -0.137,-0.27c-0.121,0.039 -0.25,0.082 -0.382,0.121c-1.004,0.297 -2.395,1.02 -3.387,1.739c-0.442,0.738 -0.574,1.625 -0.227,2.679c-2.34,-0.695 -6.984,-0.492 -7.715,1.942c-0.289,0.156 -0.578,0.312 -0.859,0.461c0.055,0.007 0.113,0.015 0.172,0.023c0.199,0.024 0.426,0.106 0.676,0.231c0.082,0.144 0.234,0.222 0.433,0.25l0.004,0c1.797,1.144 4.102,3.925 2.758,4.203l-3.633,-3.34c-0.711,-0.266 -1.433,-0.324 -2.125,-0.227c-0.09,0.051 -0.199,0.102 -0.332,0.157c-2.07,-0.059 -4.605,1.445 -4.484,3.378c-0.055,0.032 -0.11,0.071 -0.156,0.11c-0.922,0.773 -1.461,2.039 -1.559,3.312c-0.035,0.239 -0.051,0.477 -0.043,0.707c-0.043,0.035 -0.086,0.071 -0.133,0.106c-0.012,0.008 -0.023,0.015 -0.035,0.027c-0.82,0.16 -1.156,1.434 -1.312,2.36c-0.165,0.949 -0.192,2.636 0.339,3.722c-0.023,0.289 -0.046,0.582 -0.078,0.879c-0.265,2.664 -0.945,0.266 -1.343,0.336c-0.047,0.008 -0.387,0.293 -0.856,0.789c-1.152,1.223 -0.941,5.676 -0.75,8.832c0.27,0.715 0.352,0.899 1.035,2.371c0.574,1.235 1.02,3.008 1.785,4.371c0.067,-1.226 0.293,-2.445 0.418,-3.066c0.203,-0.992 0.606,-1.973 1.172,-2.844c0,-0.098 0,-0.203 0,-0.312c0,-1.387 0.125,-2.918 0.395,-4.481c0.191,-4.879 2.445,-11.945 7.801,-12.465c0.656,-0.289 1.359,-0.507 2.109,-0.64c0.285,-0.051 1.105,-0.215 2.043,-0.34c0.269,-0.442 0.914,-1.09 1.551,-1.512c0.375,-0.73 0.914,-1.344 1.558,-1.867c0.367,-1.055 1.016,-2.09 1.809,-2.746c0.324,-0.27 1.203,-0.524 1.324,0.031c0.063,0.305 0.063,0.305 -1.769,2.844c-0.5,0.691 -1.079,1.801 -1.422,2.125c0.007,0.676 0.05,1.359 0.136,2.031c-0.257,0.094 -0.617,0.184 -1.086,0.274c-0.238,0.109 -0.464,0.152 -0.644,0.109c-0.363,0.055 -0.766,0.113 -1.223,0.168c-6.308,0.781 -8.992,5.391 -10.691,10.957c-0.024,0.527 -0.035,1.293 -0.055,2.746c-0.008,0.387 -0.012,0.723 -0.019,1.016c1.57,-1.778 4.304,-4.028 5.461,-1.875c0.316,0.589 0.136,0.754 -1.09,1c-0.867,0.172 -1.617,0.55 -2.25,1.078c-0.016,0.035 -0.032,0.07 -0.051,0.109c-0.504,1.067 -0.504,1.067 -0.961,1.348c-0.191,0.117 -0.363,0.254 -0.523,0.406c-1.067,1.859 -1.477,4.234 -1.34,6.117c0.015,0.246 0.074,0.571 0.144,0.922c0.465,-0.433 0.668,-1.289 0.782,-2.269c0.144,-1.305 1.097,-1.715 1.296,0.406c0.246,2.637 -2.562,5.344 -4.238,7.355c-0.156,0.184 -0.297,0.332 -0.426,0.446c-0.035,0.097 -0.074,0.199 -0.117,0.304c-0.937,2.414 -2.101,4.559 -2.504,7.586c0.02,0.047 0.039,0.106 0.059,0.176c0.117,0.434 0.117,0.434 0.269,2.715c0.102,1.578 -0.058,3.242 -0.117,4.887c0.035,0.293 0.07,0.597 0.102,0.91c0.297,2.976 0.629,4.25 1.457,5.593c0.066,0.11 0.136,0.223 0.203,0.336c0.012,-0.097 0.027,-0.199 0.043,-0.304c0.097,-0.668 -0.442,-6.449 0.469,-4.571c0.531,1.098 0.714,4.539 0.519,7.176c0.164,0.418 0.199,0.797 -0.098,0.992c-0.109,0.875 -0.269,1.586 -0.484,1.965c-0.195,0.34 -0.305,0.918 -0.324,1.649l0,0.007c0.043,0.227 0.086,0.493 0.133,0.793l0.004,0.004c0.168,0.168 0.32,0.375 0.425,0.551c0.395,0.656 1.379,2.977 1.043,3.988c0.094,0.211 0.067,0.602 -0.031,1.399c-0.105,0.844 -0.156,3.062 -0.113,4.93c0.031,1.214 0.043,1.996 0.019,2.503c0.926,3.332 2.985,6.067 4.887,10.067c0.012,0.027 0.027,0.062 0.043,0.098c0.004,0.007 0.008,0.019 0.016,0.027c0.129,0.242 0.414,0.754 1.562,2.805c0.117,0.207 0.348,0.589 0.621,1.066c0.106,1.691 0.668,3.871 2.516,3.988c1.863,0.668 4.601,0.164 6.324,-0.113c0.352,-0.059 0.715,-0.113 1.074,-0.16c0.34,0.121 0.668,0.281 0.961,0.492c0.797,0.566 2.309,1.266 3.36,1.555c0.293,0.078 0.664,0.246 1,0.453c0,-0.035 0,-0.063 0,-0.094c0.855,0.211 1.808,-0.25 2.058,-1.168c0.094,0.004 0.192,0.008 0.293,0.016c0.016,-0.016 0.035,-0.035 0.055,-0.051c0.137,0.027 0.289,0.051 0.453,0.078c1.008,0.164 2.582,0.141 2.863,-0.926l0.004,0c0.219,0.043 0.434,0.051 0.625,0.016c0.184,-0.285 0.481,-0.59 0.832,-0.867l0,-0.008c0.008,-0.051 0.02,-0.109 0.024,-0.164c0.011,-0.102 0.023,-0.192 0.031,-0.27c-0.516,-0.148 -0.949,-0.414 -1.106,-0.828c-0.308,-0.156 -0.609,-0.324 -0.882,-0.496c-0.118,-0.031 -0.239,-0.062 -0.368,-0.094c-0.566,-0.144 -1,-0.257 -1.339,-0.343c-1.36,-0.067 -3.469,-0.539 -4.141,-1.239c-0.348,-0.117 -0.582,-0.289 -0.613,-0.527c-0.035,-0.258 0.25,-0.43 0.691,-0.527l0.004,0c-0.047,-0.328 -0.133,-0.723 -0.187,-1.106c-0.641,0.117 -1.77,0.168 -2.864,0.121c-0.902,-0.043 -1.812,-0.179 -2.504,-0.219c-0.859,0.161 -1.824,0.211 -1.976,0.211c-0.16,0 -0.453,-0.007 -0.793,-0.039c-0.824,0.258 -1.61,0.661 -2.172,1.016c-0.199,0.125 -0.363,0.273 -0.488,0.434c-0.52,0.16 -1.028,0.382 -1.391,0.718c-0.98,-0.019 -0.109,-1.25 0.559,-1.847c0.078,0 0.164,-0.008 0.261,-0.016c1.332,-0.125 0.032,-2.105 -0.664,-3.141c-0.035,-0.199 -0.062,-0.394 -0.078,-0.586c-0.211,-0.566 -0.414,-1.179 -0.586,-1.804l0,-0.004c0.16,-0.551 0.242,-1.609 0.348,-3.824c0.199,-4.09 0.199,-4.09 0.199,-5.442c0,-1.687 -0.238,-3.957 -1.129,-5.445c-0.004,-0.035 -0.004,-0.07 -0.004,-0.102c-0.062,-0.132 -0.125,-0.257 -0.195,-0.379c-0.051,-0.089 -0.09,-0.179 -0.125,-0.265c-0.082,-0.082 -0.172,-0.18 -0.274,-0.293c-1.136,-1.281 -2.386,-2.766 -3.132,-4.324c-0.84,-0.172 -2.004,-1.039 -2.297,-1.414c-0.453,-0.571 -1.156,-2.356 0.14,-1.305c0.754,0.613 0.754,0.613 1.993,1.246c0.687,0.355 1.007,0.621 1.046,0.898c0.196,0.067 0.356,0.18 0.418,0.336c0.114,0.297 0.688,1.114 1.555,2.215c0.184,0.231 0.457,0.735 0.695,1.262c0.055,-0.055 0.114,-0.098 0.18,-0.133c0.856,-3.715 -2.527,-8.992 -2.664,-9.465c-0.551,-1.867 0.195,-1.91 1.449,-0.484c0.149,-0.84 0.512,-2.254 0.524,-3.645Zm8.125,0.239c-0.149,0.918 -0.207,1.504 -0.149,2.054c0.063,0.313 0.137,0.625 0.211,0.926c0.156,0.473 0.403,1.024 0.75,1.805c0.063,0.14 0.11,0.402 0.153,0.746c0.375,0.73 0.906,1.793 0.226,2.223c0.141,1.242 0.371,2.64 0.856,3.75c1.414,3.578 1.75,6.433 2.175,9.347c0.071,1.219 0.211,2.446 0.36,3.301c0.07,0.121 0.148,0.262 0.23,0.422c0.926,1.808 1.813,0.594 3.153,2.211c0.937,0.535 2.242,1.617 3.363,1.418c0.183,-0.031 0.582,-0.129 1.051,-0.219c-0.028,-0.144 -0.032,-0.258 0.011,-0.355c-0.043,-0.079 -0.093,-0.161 -0.152,-0.247c-1.094,-0.312 -2.07,-1.421 -2.199,-2.484c-0.078,-0.652 0.004,-1.016 0.23,-1.016c0.18,0 0.895,0.59 1.637,1.344c0.293,-0.297 0.711,-0.445 1.176,-0.445c0.465,0 0.465,0 2.289,0.269c0.652,0.094 1.101,0.286 1.371,0.516c0.238,0.078 0.519,0.172 0.848,0.281c2.015,0.68 2.238,0.758 3.652,1.008c0.019,-0.019 0.039,-0.039 0.059,-0.058c0.937,0.05 1.937,-0.079 2.503,-0.372c0.047,-0.324 0.172,-0.679 0.34,-1.019c-0.019,-0.012 -0.039,-0.027 -0.054,-0.039c-0.082,-0.059 -0.188,-0.129 -0.317,-0.199c-0.117,-0.028 -0.246,-0.039 -0.375,-0.043c-0.332,-0.262 -1.031,-0.575 -2.379,-1.117c-0.062,-0.043 -0.121,-0.09 -0.179,-0.133c-0.176,-0.043 -0.344,-0.09 -0.536,-0.149c-0.093,-0.039 -0.183,-0.074 -0.273,-0.109c-0.953,-0.266 -2.387,-0.668 -3.051,-1.309c-0.219,-0.031 -0.472,-0.058 -0.765,-0.078l-0.004,-0.004c-0.227,-0.195 -0.703,-0.203 -1.903,-0.172c-0.234,0.008 -0.441,0.012 -0.621,0.016l-1.664,-0.23c-1.969,0.195 -7.043,-0.637 -3.543,-1.02c0.055,-0.008 0.11,-0.016 0.172,-0.023c-0.34,-1.754 -0.144,-6.309 -0.144,-9.094c0,-2.684 0.324,-4.078 0.062,-6.754c0,-0.008 -0.004,-0.012 -0.008,-0.02c-0.074,-0.183 -0.293,-0.699 -0.437,-1.211c-0.434,0.016 -0.715,-0.441 -0.383,-1.597c1.055,-3.676 0.73,-4.172 -1.777,-7.176c-1.586,-1.898 -1.704,-3.777 -0.348,-3.039c-0.094,-1.106 -0.07,-2.441 0.07,-3.715c-0.008,-0.078 -0.015,-0.156 -0.023,-0.234c-0.039,-0.352 -0.117,-1.082 -0.164,-1.801c-0.168,-2.156 -0.692,-3.617 -1.078,-4.555l-0.004,-0.004c-0.024,-0.035 -0.043,-0.078 -0.051,-0.129c-0.145,-0.347 -0.266,-0.617 -0.336,-0.82c-0.309,-0.058 -0.148,-0.746 0.645,-1.648c0.425,-0.481 0.761,-1.02 1.027,-1.59c0.004,-0.035 0.008,-0.063 0.008,-0.082c-0.016,-0.117 0.238,-0.883 0.601,-1.848c0.293,-1.523 0.25,-3.16 0.055,-4.699l-0.41,-2.004c-0.031,0.617 -0.113,1.344 -0.231,1.977c-0.254,1.371 -0.715,2.289 -1.375,2.75c-1.457,1.011 -1.422,-0.551 -0.648,-1.457c0.391,-0.457 0.992,-1.797 1.34,-2.981c0.285,-0.969 0.492,-1.465 0.64,-1.621l-0.144,-0.703c-0.156,-1.063 1.363,-1.82 1.773,-2.301c1.102,-1.273 1.309,-1.543 1.469,-1.898c0.176,-0.399 0.184,-0.411 1.121,-3.211c-0.027,-0.274 -0.035,-0.621 -0.008,-1.047c0.035,-0.637 0.121,-1.129 0.235,-1.457c-0.098,-0.488 -0.188,-0.961 -0.231,-1.422c-0.668,1.144 -0.773,1.203 -1.211,1.441c-1.676,0.899 0.746,-3.25 0.867,-3.429c0.813,-1.184 1.516,-1.903 1.887,-2.043c0.16,-0.145 0.352,-0.313 0.567,-0.481c-0.004,-0.008 -0.008,-0.015 -0.008,-0.019c0.472,-0.403 0.992,-0.782 1.5,-1.024c-0.414,-0.461 -0.813,-0.988 -1.086,-1.5c-0.223,0.039 -0.457,0.063 -0.692,0.082c0.032,0.317 -0.199,0.84 -0.546,1.211c-2.079,2.207 -5.649,4.071 -6.004,7.317c-0.071,0.617 -0.176,1.074 -0.297,1.375c0.105,0.07 0.211,0.132 0.32,0.195c0.137,0.078 0.285,0.148 0.441,0.215c-0.054,0.008 -0.105,0.015 -0.156,0.027c0.008,0.094 0.012,0.203 0.016,0.32c0.058,2.079 -0.973,6.118 -2.793,7.524c0.051,0.57 0.07,1.402 0.07,2.594c0,1.668 0.258,6.308 -2.117,6.89c-0.082,0.02 -0.16,0.039 -0.227,0.055c0.036,0.141 0.016,0.336 -0.089,0.59c0.171,0.047 0.371,0.144 0.605,0.304c0.555,0.372 1.066,1.204 0.926,1.649c0.066,0.273 0.031,0.703 -0.133,1.324c-0.32,1.211 -2.695,3.832 -2.531,4.199c1.859,4.153 5.707,8 2.48,12.672c-0.336,0.481 -0.699,0.91 -1.09,1.289c-0.113,0.11 -0.23,0.219 -0.347,0.321c-0.024,0.144 -0.051,0.296 -0.078,0.461c-0.067,0.39 -0.125,0.73 -0.172,1.035Zm-13.481,17.117c-0.437,-1.891 -0.875,-2.086 -1.027,0.094c-0.231,3.289 0.91,6.078 2.004,8.879c0.246,0.625 1.023,3.699 1.262,3.628c0.433,-0.128 0.046,-2.75 -0.731,-5.156c-0.426,-1.324 -1.281,-3.441 -1.375,-4.359c-0.09,-0.918 0.082,-2.153 -0.133,-3.086Zm1.559,-4.891c-0.781,-1.855 -1.399,-2.019 -1.399,0.164c0,3.297 1.836,6.004 3.606,8.719c0.238,0.367 0.828,1.606 1.336,2.516c-0.031,-0.989 -0.09,-1.973 -0.176,-2.95c-0.176,-0.378 -0.371,-0.757 -0.578,-1.128c-0.715,-1.289 -2.09,-3.344 -2.305,-4.25c-0.218,-0.911 -0.097,-2.153 -0.484,-3.071Zm67.996,-52.011c3.004,1.41 6.171,2.324 9.695,1.945c0.43,-0.047 2.383,0.144 3.578,0.488c0.204,-0.129 0.411,-0.258 0.614,-0.39c1.156,1.226 3.23,2.308 5.007,2.996c0.922,0.836 1.317,1.707 -0.824,1.558c-0.785,-0.058 -1.64,-0.336 -2.5,-0.762c0.055,0.18 0.114,0.364 0.18,0.543c-0.059,-0.027 -0.121,-0.054 -0.18,-0.082c0.305,5.5 2.41,13.645 8.059,15.782c0.176,0.066 0.461,0.136 0.777,0.215c2.238,4.152 6.082,7.621 9.196,11.093c0.707,0.785 1.468,1.547 2.031,2.043c0.039,0.082 0.078,0.164 0.113,0.246c0.031,0.047 0.055,0.094 0.086,0.141c0.43,0.355 0.742,0.789 0.961,1.219c1.301,-0.059 3.211,0.3 2.359,0.734c-0.355,0.18 -1.187,0.371 -1.945,0.375c0.043,0.168 0.07,0.32 0.094,0.449c0.886,-0.476 3.929,-0.929 3.617,0.364c-0.113,0.496 -0.473,0.714 -1.469,0.902c-0.855,0.16 -1.484,0.488 -1.789,0.937c-0.078,0.114 -0.183,0.239 -0.308,0.356c0.316,1.816 0.226,3.793 0.023,5.648c0.199,0.172 0.359,0.407 0.434,0.668c0.195,0.688 0.535,1.082 1.093,1.262c0.242,0.078 0.453,0.215 0.618,0.383c0.085,0.015 0.171,0.027 0.253,0.039c2.286,0.332 4.68,0.199 6.914,-0.387c0.547,-0.144 1.864,-0.277 1.836,0.461c1.387,0.043 1.485,0.074 2.305,0.324c0.031,0.012 0.063,0.02 0.094,0.032c0.687,0.05 1.363,0.211 1.746,0.367c1.867,0.761 4.125,1.238 6.305,1.32c0.047,-0.019 0.086,-0.035 0.121,-0.051c0.226,-0.129 0.398,-0.312 0.508,-0.523c0.464,0.254 1.003,0.422 1.476,0.523c0.371,-0.031 0.734,-0.082 1.09,-0.144c0.32,-0.055 0.852,-0.16 1.332,-0.172c0.758,-0.297 2.195,-1.004 2.918,-1.477c0.195,-0.129 0.383,-0.425 0.559,-0.722c0.554,-1.051 0.449,-1.071 -0.602,-1.254c-0.164,-0.032 -1.715,0.379 -3.129,-0.742c-1.262,-1 -1.664,-2.012 -3.242,-1.754c-0.055,0.007 -0.121,0.015 -0.192,0.019c-0.097,-0.004 -0.222,-0.008 -0.375,-0.015c-0.511,-0.024 -2.05,-0.329 -2.261,-0.536c-0.379,-0.371 -0.379,-0.371 -0.891,-0.988c-1.07,-1.281 -2.285,-1.445 -3.617,-2.422c-0.246,-0.265 -0.488,-0.511 -0.695,-0.734c-0.868,-0.828 -1.864,-1.445 -2.903,-1.984c-0.211,-0.137 -0.445,-0.282 -0.629,-0.391c-0.144,-0.086 -0.269,-0.156 -0.386,-0.215c-0.481,-0.355 -0.977,-0.641 -1.559,-0.824c-0.164,-0.051 -0.34,-0.086 -0.512,-0.102c-0.808,-0.597 -1.64,-1.156 -2.523,-1.672c-1.426,-0.824 -2.578,-2.308 -3.18,-3.527c-0.082,-0.098 -0.129,-0.152 -0.156,-0.187c-0.035,-0.122 -0.137,-0.348 -0.285,-0.649c-0.004,-0.008 -0.008,-0.016 -0.012,-0.023c-0.375,-0.926 -0.859,-1.809 -1.426,-2.684c-1.441,-2.226 -2.359,-4.691 -3.539,-7.059c-0.324,-0.656 -0.469,-0.945 -0.707,-1.281c-0.058,-0.238 -0.121,-0.492 -0.195,-0.785c-0.992,-3.93 -3.637,-8.309 -6.277,-11.34c-0.028,-0.031 -0.055,-0.062 -0.09,-0.097c-0.02,0.003 -0.043,0.007 -0.067,0.011c-0.586,0.075 -0.707,-0.093 -0.922,-1.273c-0.023,-0.11 -0.046,-0.227 -0.074,-0.348c-0.047,-0.074 -0.094,-0.144 -0.14,-0.215c-0.055,-0.203 -0.106,-0.394 -0.157,-0.574c-0.394,-0.82 -1.273,-2.191 -2.05,-3.191c-0.094,-0.121 -0.582,-0.758 -0.93,-1.418c-1.039,0.105 -1.035,0.066 -0.774,-2.442c0.012,-0.14 0.024,-0.281 0.032,-0.422c-0.453,-0.554 -0.875,-1.328 -1.203,-2.097c-0.012,-0.012 -0.02,-0.028 -0.028,-0.039c-0.765,-0.461 -2.07,-1.211 -2.926,-1.981c-0.05,0 -0.101,0 -0.148,0.004c-0.094,0.004 -0.23,-0.019 -0.395,-0.062c-1.692,-3.2 -5.708,-5.332 -8.812,-6.766c-1.18,-0.703 -2.441,-1.273 -3.809,-1.652c-0.339,-0.094 -0.613,-0.184 -0.855,-0.301c0.043,0.262 0.062,0.504 0.047,0.711c-0.25,3.191 -1.418,6.406 -2.543,9.383c-0.582,1.543 -0.817,3.777 -1.84,5.215Zm5,-17.922c0.133,0.058 0.276,0.121 0.441,0.187c0.496,0.215 1.36,0.731 2.288,1.36c1.547,0.578 3.119,1.347 4.576,2.296l0.007,0.004c0.589,0.785 1.473,1.473 2.165,1.899c0.058,0.039 0.121,0.078 0.179,0.117c0.258,0.316 0.571,0.523 0.917,0.641c1.056,0.804 1.919,1.699 2.669,2.668c0.918,-0.207 2.414,0.625 3.18,1.332c0.273,0.148 0.617,0.371 1,0.64c0.383,0.27 1.004,1.121 1.48,2.055c0.067,0.101 0.129,0.207 0.188,0.32c0.082,-0.035 0.164,-0.074 0.246,-0.113c0.094,0.183 0.187,0.367 0.285,0.539c0.301,0.746 0.551,1.523 0.738,2.316c0.082,0.348 0.149,0.7 0.2,1.051c0.078,0.223 0.144,0.434 0.203,0.625l0.05,0.055c0.141,0.16 0.356,0.473 0.594,0.875c-0.008,0.109 -0.004,0.222 0.012,0.336c0.902,1.121 1.641,2.469 1.883,3.738c0.332,0.359 0.726,0.836 1.207,1.457c0.008,0.008 0.012,0.016 0.019,0.02c0.078,0.089 0.137,0.164 0.184,0.242c1.746,2.281 3.086,4.476 4.098,6.883c0.121,0.183 0.238,0.371 0.355,0.562c0.055,0.149 0.109,0.297 0.168,0.442c0.59,1.484 1.355,3.183 1.699,3.773c0.082,0.141 0.16,0.266 0.242,0.375c1.723,3.637 3.493,7.937 6.012,13.387c0.375,0.222 0.985,0.57 2.024,1.164c2.91,1.664 7.675,4.117 10.015,6.617c1.781,1.898 2.281,1.656 3.742,3.164c0.067,0.066 0.973,0.48 1.047,0.516c0.785,-0.188 1.356,-0.215 1.867,-0.11c0.004,-0.004 0.004,-0.008 0.008,-0.011c0.012,0.007 0.024,0.011 0.035,0.019c0.336,0.07 0.645,0.203 0.969,0.383c0.317,0.094 0.629,0.156 0.887,0.199c0.473,0.074 1.121,-0.027 1.676,-0.281c0.566,-0.153 2.48,0.062 3.332,-0.492c0,-0.004 0,-0.004 0.004,-0.004c0.074,-0.145 0.164,-0.317 0.269,-0.512c0.777,-1.441 0.777,-1.441 -0.39,-1.648c-0.165,-0.028 -1.715,0.382 -3.133,-0.739c-1.262,-1 -1.657,-1.105 -3.231,-0.843c-0.058,0.011 -0.121,0.015 -0.195,0.019c-0.098,-0.004 -0.219,-0.008 -0.375,-0.016c-0.512,-0.023 -1.199,-0.015 -1.551,0.407c-0.012,-0.02 -0.027,-0.039 -0.035,-0.063c-0.164,-0.277 -0.465,-0.672 -0.672,-0.879c-0.379,-0.371 -0.379,-0.371 -0.894,-0.988c-1.071,-1.281 -2.293,-2.359 -3.625,-3.336c-0.247,-0.266 -0.489,-0.512 -0.696,-0.73c-0.867,-0.829 -1.859,-1.446 -2.898,-1.985c-0.215,-0.136 -0.449,-0.285 -0.633,-0.394c-0.141,-0.086 -0.266,-0.157 -0.383,-0.211c-0.48,-0.356 -0.98,-0.641 -1.562,-0.824c-0.16,-0.055 -0.336,-0.09 -0.512,-0.106c-0.805,-0.598 -1.637,-1.156 -2.523,-1.668c-0.317,-0.187 -0.594,-0.348 -0.832,-0.496c-0.731,-0.445 -1.133,-0.746 -1.333,-1.039l-0.312,-0.242c-0.176,-0.215 -0.816,-1.891 -0.855,-1.938c-0.227,-0.773 -3.239,-6.25 -3.454,-6.738c-0.308,-0.691 -0.582,-1.336 -0.832,-1.941c-0.773,-4.434 -2.656,-10.336 -6.418,-12.852c-0.148,-0.172 -0.332,-0.375 -0.57,-0.641c-0.207,-0.226 -0.387,-0.41 -0.543,-0.554c-0.043,-0.055 -0.086,-0.106 -0.129,-0.157c-1.254,-0.453 -2.031,-2.125 -2.043,-3.531c-0.019,-0.027 -0.035,-0.047 -0.054,-0.066c-0.024,-0.215 -0.032,-0.426 -0.028,-0.617c-0.109,-0.7 -0.289,-1.309 -0.672,-1.883c-0.015,0.004 -0.031,0.008 -0.047,0.012c-0.75,0.187 -1.043,0.031 -1.207,-0.633c-0.121,-0.485 -0.984,-1.789 -1.921,-2.895c-0.872,-1.035 -1.301,-1.539 -1.536,-1.898c-0.062,-0.035 -0.125,-0.074 -0.191,-0.11c-1.105,-0.632 -2.152,-1.332 -3.176,-2.089c-2.215,-2.348 -4.403,-4.86 -7.156,-6.602c-0.234,-0.145 -0.461,-0.301 -0.673,-0.453c-0.003,0.004 -0.007,0.008 -0.007,0.012c-1.386,-0.981 -1.386,-0.981 -2.636,-1.332c-0.129,-0.036 -0.239,-0.067 -0.344,-0.094c-0.121,-0.09 -0.243,-0.176 -0.363,-0.262c-0.731,-0.406 -1.481,-0.738 -2.247,-0.984c-0.265,-0.082 -0.531,-0.157 -0.796,-0.219c-0.149,0.625 -0.473,1.203 -0.946,1.601c0.41,0.239 0.745,0.52 1,0.844c0.245,0.317 0.41,0.676 0.469,1.067Zm-53.598,62.359c-0.105,-1.648 -0.5,-1.91 -1.015,-0.156c-0.778,2.648 -0.141,5.195 0.449,7.738c0.133,0.566 0.375,3.27 0.617,3.262c0.445,-0.008 0.512,-2.246 0.16,-4.395c-0.191,-1.183 -0.668,-3.113 -0.601,-3.886c0.062,-0.774 0.441,-1.747 0.39,-2.563Zm-23.117,-14.133c-0.226,-2.066 -1.215,-2.461 -1.527,-0.179c-0.313,2.304 0.543,3.812 2.894,4.148c0.344,0.047 0.641,0.055 0.883,0.035c-0.406,1.391 -0.625,3.926 -0.644,4.184c-0.414,5.183 -0.414,5.183 -0.414,5.351c0,0.535 0.093,1.547 0.859,1.414c1.496,-0.265 1.348,-6.043 1.426,-7.105c0.121,-1.629 0.074,-3.387 -0.102,-3.902c-0.086,-0.243 -0.168,-0.43 -0.246,-0.563c-0.027,-0.383 -0.527,-0.836 -1.469,-1.07c-1.351,-0.34 -1.461,-0.492 -1.66,-2.313Zm-5.57,-3.73c0.058,-0.403 0.148,-0.75 0.277,-1.016c0.836,-1.781 1.445,-3.031 2.418,-5.176c-2.555,2.52 -4.723,2.25 -2.695,6.192Zm20.906,-9.039c-0.43,0.433 -1.07,0.695 -1.652,0.84c-0.035,0.421 -0.09,0.851 -0.157,1.277c-0.062,3.32 -1.703,6.457 -3.476,9.215c-0.211,0.324 -0.59,0.726 -0.992,1.015c0.273,0.996 0.402,2.332 0.402,4.938c0,1.691 -0.09,3.293 -0.215,4.707c3.133,-0.688 8.547,-3.66 7.852,-7.453c-0.477,-2.586 -2.457,-5.524 -3.957,-7.668c-0.977,-1.395 1.34,-4.692 2.968,-5.875c-0.382,-0.238 -0.648,-0.621 -0.773,-0.996Zm78.438,-7.571c-1.055,-2.41 -1.055,-2.41 -1.235,-2.41c-0.851,0.008 0.031,2.703 0.153,3.004c0.347,0.84 0.761,2.051 0.925,2.695c0.672,2.661 2.446,5.411 4.012,7.637c0.512,0.731 1.008,1.387 1.91,1.485l-1.969,-3.586c-1.082,-1.973 -2.144,-4.227 -2.355,-5.004c-0.215,-0.778 -0.863,-2.496 -1.441,-3.821Zm-56.473,-16.929c-0.52,-1.731 -0.742,-3.535 -0.785,-5.375c-0.407,-3.071 -0.793,-6.629 0.074,-9.504c0.191,-0.645 0.48,-1.176 0.727,-1.387c0.058,-1.226 0.152,-2.43 1.003,-3.43c0.661,-0.781 0.719,-0.347 0.481,0.504c-0.508,1.828 -0.93,3.739 -1.215,5.668c-0.121,2.071 -0.008,4.145 0.254,6.199c0.316,2.493 0.316,2.493 0.742,5.469c0.059,0.403 0.184,1.758 0.078,2.547c4.754,2.559 8.418,8.422 16.645,2.106c2.543,-1.957 2.687,-0.5 1.508,0.703c0.074,0.015 0.152,0.031 0.226,0.05c0.707,0.18 2.531,0.907 3.598,0.594c1.836,-0.535 2,-0.496 3.012,0.703c1.125,1.328 0.914,1.86 2.875,1.293c0.519,-0.152 1.984,0.094 3.242,0.504c1.803,-2.219 2.644,-6.945 3.093,-9.652c0.27,-1.633 1.083,-3.539 1.071,-5.297c-0.227,-0.211 -0.301,-0.535 -0.098,-0.937c-0.024,-0.122 -0.055,-0.243 -0.094,-0.364c-0.148,-0.469 -0.16,-0.824 -0.082,-1.07c-0.273,-0.406 -0.488,-0.836 -0.578,-1.203c-0.145,-0.067 -0.285,-0.113 -0.41,-0.137c-0.066,-0.012 -0.137,-0.035 -0.208,-0.062c-1.636,0.293 -4.417,-0.957 -5.159,-1.918c-0.555,-0.715 -1.274,-1.082 -2.145,-1.098c-0.973,-0.016 -1.464,-0.305 -1.914,-1.133c-0.441,-0.812 -1.148,-1.246 -2.617,-1.605c-1.074,-0.262 -3.133,-0.383 -4.605,-0.914c-0.293,0.515 -1.012,0.367 -1.602,-0.942c-0.887,-1.965 -1.758,-3.277 -4.012,-2.656c-0.828,0.23 -3.964,1.172 -6.023,0.449c-0.996,0.11 -2.41,0.297 -3.316,0.117c-0.297,0.11 -0.598,0.207 -0.891,0.266c-0.024,0.035 -0.051,0.074 -0.078,0.109c-0.504,0.657 -2.203,0.68 -3.574,0.297c-0.055,0.278 -0.129,0.602 -0.231,0.985c-0.055,0.211 -0.851,1.101 -0.957,1.718c0.16,0.567 -0.695,6.528 -0.68,6.813c0.086,1.469 -0.754,6.887 -0.285,10.031c0.942,0.512 1.922,1.043 2.93,1.559Zm-14.754,9.789c0.922,-0.094 1.188,-2.492 1.176,-3.817l-0.004,0c-0.348,-0.015 -0.68,-0.047 -1,-0.093c-0.09,0.203 -0.149,0.382 -0.168,0.464c-0.301,1.489 -0.301,1.489 -0.492,2.469c-0.172,0.856 -0.114,0.977 0.433,0.977c0.02,0 0.039,0 0.055,0Zm-7.723,-1.145c0.477,-0.047 1.43,-0.625 1.875,-1.144c0.649,-0.762 1.075,-1.645 1.211,-2.512c0.035,-0.23 0.059,-0.418 0.067,-0.578c-0.258,-0.043 -0.516,-0.09 -0.778,-0.145c-0.777,0.91 -1.886,2.895 -2.148,3.235c-0.676,0.89 -0.598,1.179 -0.227,1.144Zm59.836,-6.433c-2.41,-0.653 1.325,1.859 1.784,2.086c2.344,1.156 4.908,1.668 7.361,0.562c2.597,-1.172 0.804,-1.242 -1.059,-0.984c-3.063,0.414 -5.261,-0.895 -8.086,-1.664Zm-72.758,-5c-0.304,-0.629 -0.957,-0.543 -1.117,0.129c-0.176,0.742 0.485,3.445 1.508,3.265c1.043,-0.183 -0.058,-2.707 -0.391,-3.394Zm18.766,-0.289c1.051,-1.934 1.051,-1.934 -0.019,-1.934c-1.977,0 -2.45,2.894 -2.93,4.301c-0.856,2.492 -0.938,2.734 -0.32,2.625c1.425,-0.25 2.675,-3.899 3.269,-4.992Zm-17.262,-3.164c-0.429,-1.778 -0.929,-0.301 -0.843,0.765c0.07,0.922 0.308,1.949 0.523,2.281c0.227,0.352 0.633,0.563 0.973,0.504c0.992,-0.176 -0.461,-2.769 -0.653,-3.55Zm63.973,-2.102c-0.703,-0.348 -1.535,1.562 -1.685,1.824c-0.835,1.445 -1.022,1.797 -1.585,3.02c-1.05,2.265 -2.667,4.226 -4.113,6.25c3.567,-0.926 5.64,-6.793 7.262,-9.649c0.05,-0.093 0.101,-0.187 0.144,-0.281c0.008,1.996 -0.335,4.016 -0.769,5.945c-0.543,2.403 -0.57,4.285 -0.145,6.688c1.657,-4.383 1.817,-8.321 1.614,-12.926c-0.035,-0.832 -0.664,-1.746 -0.723,-0.871Zm-52.582,-1.246c0.219,-2.043 0.219,-2.043 0.531,-2.809c0.317,-0.765 0.317,-0.765 -0.332,-0.176c-1.043,0.95 -1.199,2.489 -1.133,3.813c0.114,2.406 0.801,0.41 0.934,-0.828Zm45.141,-10.203c0.152,0.093 0.293,0.179 0.421,0.258c0.043,0.007 0.086,0.011 0.133,0.015c1.942,0.215 2.676,0.528 3.543,1.524c0.601,0.691 1.489,1.238 1.976,1.222l0.094,0c0.464,0.02 0.969,0.285 1.156,0.621c0.368,0.645 0.368,0.645 1.235,1.114c0.778,0.421 3.66,0.632 4.348,1.293c0.116,0.023 0.241,0.054 0.375,0.089c0.016,-0.003 0.035,-0.003 0.055,-0.003c0.092,-0.004 0.179,-0.012 0.261,-0.012c0.07,-0.379 0.387,-0.887 0.657,-1.34c0.085,-0.348 0.156,-0.742 0.207,-1.129c-0.075,-0.016 -0.172,-0.016 -0.301,0.008c-0.43,0.066 -1.293,-0.258 -1.922,-0.723c-0.716,-0.523 -1.574,-0.738 -2.285,-0.562c-0.797,0.199 -1.563,-0.047 -2.567,-0.824c-0.786,-0.606 -1.949,-1.153 -2.586,-1.215c-1.031,-0.098 -3.023,-0.09 -4.8,-0.336Zm-28.852,2.035c-0.207,-1.52 -3.016,-0.262 -3.672,-0.067c-3.351,1.016 -6.887,2.375 -8.023,6.129c-0.574,1.903 0.754,2.336 1.148,0.735c0.637,-2.578 5.156,-4.231 7.246,-4.938c2.535,-0.851 3.371,-1.324 3.301,-1.859Z"/><path d="M326.506,86.265c-1.863,-0.082 -2.566,0.504 -3.527,0.3c0.023,0.055 0.043,0.114 0.062,0.172c0.512,1.465 0.34,13.762 1.016,19.938c0.402,3.687 1.246,7.277 0.43,10.953c0.668,-0.125 2.672,0.289 3.328,0.289c1.344,0 1.734,0 2.676,0.074c3.222,-0.176 6.32,-0.004 10.859,0.215c8.949,0.027 5.91,0.547 18.75,0.574c0.004,-0.004 0.594,-0.656 0.598,-0.66c0.004,0.004 0.007,0.008 0.015,0.012c0.145,0.004 0.289,0.016 0.43,0.031c0.023,-0.437 0.059,-0.918 0.109,-1.402c0.043,-0.418 0.094,-1.035 0.176,-1.571c-0.269,-2.804 -0.543,-6.425 -0.75,-10.16c-0.312,-5.648 -0.613,-15.824 -0.578,-17.754c-13.547,-0.453 -12.977,-1.296 -26.535,-1.296c-0.895,0 -6.211,0.324 -7.059,0.285Zm35.172,1.925c0.051,1.082 0.148,2.161 0.297,3.235c0.316,2.332 0.43,10.59 0.43,12.933c0,1.676 0.183,3.293 0.449,4.883c0.008,0.188 0.015,0.371 0.027,0.551c0.078,-0.434 0.16,-0.859 0.246,-1.254c0.36,-1.656 0.559,-2.488 0.762,-2.902c-0.012,-0.297 0.004,-0.723 0.039,-1.332c-0.269,-0.145 -0.32,-0.715 -0.445,-2.645c-0.184,-2.734 -0.055,-11.933 -0.5,-14.816c-0.457,-2.949 -0.297,-8.395 -0.145,-11.383c-0.187,1.152 -0.926,8.293 -1.14,9.441c-0.016,0.067 -0.032,0.141 -0.051,0.219c-0.031,1.024 -0.02,2.047 0.031,3.07Zm2.875,-0.039c-0.351,-4.355 -0.539,-8.793 -0.074,-13.125c0.191,-1.761 0.258,-3.843 0.152,-4.625c-0.168,-1.23 -0.383,-1.457 -0.601,-1.168c-0.004,-0.058 -0.016,-0.109 -0.024,-0.148c0.047,-0.055 0.094,-0.105 0.149,-0.156c-0.11,-0.035 -0.227,-0.063 -0.36,-0.082c-0.019,-0.012 -0.043,-0.02 -0.07,-0.024c-0.074,-0.023 -0.149,-0.027 -0.219,-0.008c-0.969,-0.07 -2.277,0.161 -2.828,0.161c-0.695,0 -1.102,0 -1.82,-0.02c-1.508,-0.207 -14.867,-0.414 -15.156,0.082c-0.133,0.223 -0.145,0.395 -0.067,0.531c0.277,0.489 1.707,0.473 2.785,0.469l0.258,0c0.25,0 0.473,0.004 0.641,0.024c3.992,0.382 4.742,0.382 7.48,0.511c2.281,0.11 4.481,0.106 6.766,0.024c0.383,-0.016 0.719,-0.028 1.011,-0.039l0,0.007c-1.238,3.692 -1.777,7.778 -2.542,11.563c-0.352,1.73 -0.485,2.73 -0.446,3.492c-2.867,-0.598 -6.297,-0.043 -9.082,-0.043c-6.316,0 -5.199,-0.336 -10.351,-0.75c-5.153,-0.41 -10.715,-0.578 -12.364,-0.375c-1.648,0.207 -3.351,0.207 -3.785,0c-0.394,-0.187 -0.961,-0.152 -1.453,0.016c0.859,-0.961 1.516,-2.141 2.109,-3.387c-0.785,0.227 -1.503,0.262 -2.074,-0.035c-0.777,1.125 -1.519,2.105 -2.004,2.961c0.082,0.765 0.164,1.531 0.25,2.297c0.039,0.246 0.098,0.515 0.176,0.808c0.348,1.34 0.621,3.762 0.695,5.922c0.52,3.504 1.039,12.965 0.911,16.555c-0.008,0.207 -0.016,0.402 -0.024,0.594c0.094,0.547 0.192,1.089 0.297,1.636c-0.215,1.731 -0.035,3.45 0.168,5.219c0.066,0.606 0.129,1.074 0.187,1.442c-0.148,0.074 -0.23,0.16 -0.253,0.257c-0.067,0.27 0.023,0.457 0.3,0.586l22.192,0.809c4.855,0.375 2.09,0.668 7.324,0.668c4.184,0 7.238,0 8.801,-0.207c0.094,0.035 0.179,0.019 0.265,-0.035c0.012,-0.004 0.024,-0.008 0.039,-0.008c0,-0.008 0,-0.016 0,-0.024c0.036,-0.031 0.067,-0.062 0.098,-0.101c0.176,-0.055 0.309,-0.153 0.434,-0.356c0.043,-0.05 0.074,-0.117 0.101,-0.203c0.153,-0.359 0.297,-0.933 0.504,-1.879c0.281,-1.289 0.57,-3.254 0.641,-4.367c0,-0.023 0.004,-0.051 0.008,-0.082c-0.02,-0.094 -0.043,-0.191 -0.063,-0.285c0.145,-0.848 0.383,-1.91 0.645,-2.828c0.414,-1.442 0.781,-3.199 0.82,-3.906c0.047,-0.914 0.027,-1.184 -0.277,-1.258c-0.012,-0.274 -0.036,-0.617 -0.067,-1.047c0.231,-0.199 0.246,-0.754 0.246,-2.473c0,-2.531 0,-8.531 -0.289,-11.726c-0.058,-0.621 -0.109,-1.243 -0.16,-1.864Z"/><path d="M73.925,73.81c-0.39,-0.332 -0.718,-0.684 -0.902,-1.008c-0.511,-0.906 -2.949,-6.492 -2.851,-8.477c0.019,-1.047 0.055,-1.902 0.098,-2.578c-0.793,-2.387 -2.024,-7.523 -2.161,-8.449c-0.535,-3.567 -0.882,-6.336 -1.07,-8.473c0.059,-0.496 0.125,-1.07 0.199,-1.75c0.196,-1.781 0.477,-3.703 0.707,-4.929c0.016,0.039 0.028,0.085 0.043,0.136c0.032,-0.785 0.2,-1.961 0.407,-2.746c0.625,-2.422 0.355,-5.031 3.062,-5.851c2.215,-0.668 4.379,-1.965 6.656,-1.664c0.106,-0.102 0.227,-0.2 0.37,-0.301c1.513,-1.074 3,-1.903 4.654,-0.727c0.132,0.094 0.246,0.176 0.346,0.25c0.091,0.02 0.197,0.051 0.322,0.086c1.14,0.324 2.011,1.063 2.647,1.992c0.247,0.321 0.462,0.606 0.65,0.852l0.183,0.113c0.664,0.391 2.859,2.438 3.254,3.867c0.09,0.118 0.18,0.235 0.258,0.348c0.324,0.313 0.875,0.68 1.34,1.047c5.683,2.094 8.777,6.808 12.91,12.012c0.668,0.429 0.695,0.464 1.16,1.121c1.34,1.879 3.313,3.953 5.246,5.218c0.262,0.172 0.43,0.282 0.559,0.383c0.301,0.067 0.66,0.141 1.09,0.235c3.054,0.648 5.214,0.679 8,2.23c2.117,1.18 3.464,1.356 6.976,3.059c0.078,0.039 1.442,0.293 1.52,0.297c1.609,-1.422 2.324,-1.137 4.277,-0.489c0.777,0.215 2.543,0.059 2.981,-0.058c1.718,-0.457 1.718,-0.457 1.945,1c0.004,0.031 0.012,0.066 0.015,0.101c0.036,0.055 0.055,0.207 0.059,0.403c0.094,0.66 0.137,1.375 -0.219,1.863l-0.004,0c-0.023,0.031 -0.046,0.058 -0.066,0.086c-1.137,1.41 -1.961,2.109 -3.59,2.558c0.102,0.012 0.211,0.024 0.324,0.036c0.278,-0.094 0.278,-0.094 1.86,-0.274c0.605,-0.07 0.992,-0.098 1.25,-0.062c0.312,-0.047 0.492,-0.02 0.617,0.125c0.18,-0.129 0.402,-0.059 0.641,0.32c0.339,0.543 0.859,2.34 0.312,2.922c-0.012,0.101 -0.023,0.203 -0.043,0.316c-0.441,2.684 -2.617,3.949 -5.012,4.672c-1.07,0.82 -2.371,1.402 -3.539,1.25c-0.316,-0.039 -0.89,-0.062 -1.488,-0.133c-0.352,0.141 -0.621,0.239 -0.754,0.274c-0.223,0.062 -0.433,0.109 -0.633,0.144c-0.215,-0.019 -1.132,0.008 -1.293,-0.039c-1.183,-0.328 -2.25,-0.515 -3.32,-0.492c-0.082,0.023 -0.16,0.047 -0.242,0.07c-0.856,0.282 -1.11,0.344 -1.203,0.082c-0.379,0.071 -0.762,0.172 -1.16,0.301c-0.528,0.184 -0.965,0.371 -1.372,0.559c-1.113,0.793 -2.418,1.359 -3.777,1.73c-1.641,0.551 -4.445,1.133 -5.66,0.067c-0.203,-0.528 -0.633,-1.059 -0.832,-1.469c-0.535,-1.117 -0.902,-2.25 -1.258,-3.395c-0.027,-0.109 -0.051,-0.207 -0.07,-0.293c-0.125,-0.504 -0.582,-1.765 -0.438,-3.035c-0.05,-0.137 -0.062,-0.328 -0.066,-0.535c-0.731,-0.832 -1.434,-1.531 -2.113,-2.137c-0.442,-0.246 -0.942,-0.55 -2.172,-1.304c-1.813,-1.114 -2.282,-1.391 -3.871,-2.293c-1.805,-1.02 -1.805,-1.02 -3.305,-2c-0.771,-0.504 -1.441,-0.914 -2.177,-1.321c0.755,1.911 1.275,3.864 1.404,5.75c0.402,-0.297 1.234,0.059 1.25,0.121c0.382,-0.632 1.621,2.547 1.273,4.25c-0.234,1.157 1.375,3.981 2.086,6.633c2.266,8.43 0.719,16.989 -7.696,22.043c-3.765,2.262 -9.875,0.985 -15.547,0.336c-1.073,-0.125 -1.909,-0.351 -2.523,-0.605c-0.207,-0.27 -0.562,-0.461 -0.997,-0.567c-0.027,-0.023 -0.053,-0.047 -0.073,-0.07l0,0.004c0.015,0.199 -0.035,0.383 -0.148,0.527c-0.076,0.004 -0.141,0.004 -0.208,0.004l-1.855,0c-0.035,0 -0.07,0 -0.102,0.004c-0.027,-0.047 -0.05,-0.098 -0.07,-0.145c-0.015,-0.031 -0.031,-0.066 -0.043,-0.097c-0.07,-0.02 -0.148,-0.047 -0.226,-0.074c-0.106,0.035 -0.211,0.078 -0.309,0.121c-0.051,-0.09 -0.102,-0.184 -0.145,-0.278c-0.257,-0.093 -0.515,-0.199 -0.753,-0.316c-0.211,-0.012 -0.411,-0.047 -0.59,-0.113c-0.172,-0.067 -0.313,-0.168 -0.422,-0.289c-0.008,0.004 -0.02,0.007 -0.027,0.011c-0.051,-0.004 -0.102,-0.011 -0.153,-0.015c-0.051,-0.004 -0.101,-0.008 -0.148,-0.012c0.023,-0.145 0.051,-0.293 0.074,-0.434c-0.105,-0.324 -0.102,-0.699 -0.031,-1.031c-0.223,-0.07 -0.442,-0.164 -0.641,-0.277c-0.156,-0.039 -0.316,-0.086 -0.48,-0.141c-0.907,0.203 -2.438,0 -3.379,-0.472c-0.02,0.007 -0.039,0.011 -0.059,0.019c-0.078,0.02 -0.152,0.043 -0.219,0.066c-0.086,0.036 -0.168,0.075 -0.25,0.11c-0.113,0.078 -0.222,0.148 -0.328,0.211c-1.074,0.148 -2.945,0.484 -4.695,0.855c-0.356,0.074 -0.684,0.141 -0.988,0.203c-0.493,-0.035 -0.965,-0.015 -1.418,0.055l-0.004,0.004c-0.129,0.148 -0.246,0.262 -0.324,0.328c-2.2,1.832 -4.418,3.961 -7.086,5.094c-1.129,0.48 -1.641,0.871 -1.829,1.398c-0.519,1.481 -3.273,3.852 -4.781,4.375c-0.129,0.047 -0.246,0.082 -0.355,0.102c-0.953,0.668 -1.684,0.953 -3.039,1.262c-0.567,0.125 -1.188,0.289 -1.66,0.562c-0.504,-0.004 -0.637,0.012 -0.989,0.055c-0.629,0.082 -2.445,0.398 -3.672,0.277c0.024,0.078 0.047,0.16 0.071,0.25c0.066,0.258 0.07,0.512 0.031,0.75c0.684,-0.047 1.375,0 1.762,0.164c0.027,-0.008 0.054,-0.014 0.082,-0.019c0.426,-0.055 0.48,-0.059 2.176,0.497c0.285,0.542 1.019,0.75 1.906,0.753c1.332,0.648 3.277,1.761 2.121,2.117c-0.149,0.047 -0.348,0.062 -0.586,0.052c-0.297,0.789 -1.25,1.703 -1.766,1.842c-0.218,0.059 -0.422,0.067 -0.605,0.039c0.219,1.189 0.129,1.364 -0.797,1.658c-0.363,0.117 -0.906,-0.025 -1.18,-0.244c-1.285,0.051 -1.711,0.219 -1.91,0.739c-0.226,0.578 -0.465,0.781 -0.676,0.716c-0.133,0.053 -0.304,0.096 -0.515,0.135c-1.828,0.318 -3.375,-0.015 -5.028,-0.871c-0.113,-0.058 -0.906,-0.178 -1.59,-0.23c-0.773,0.203 -1.613,0.375 -2.46,0.492c-0.512,0.105 -1.043,0.16 -1.567,0.156c-0.937,0.047 -1.855,0.016 -2.699,-0.129c-0.445,-0.074 -0.914,-0.303 -1.301,-0.605c-1.625,-0.487 -2.246,-2.003 -2.125,-3.839c0.028,-0.439 0.074,-0.841 0.141,-1.177c-0.028,-0.121 -0.055,-0.258 -0.078,-0.418c-0.11,-0.686 -0.071,-1.569 0.031,-2.519c-0.477,0.261 -0.961,0.484 -1.457,0.679c-6.235,2.435 -12.125,-5.687 -13.34,-10.355c-0.48,-1.828 -0.676,-4.262 -0.668,-4.348c0.113,-1.074 0.809,-2.293 1.313,-3.176c0.695,-1.207 8.957,-12.062 13.484,-10.472c1.203,0.422 2.207,1.719 3.379,3.168c0.265,0.332 1.531,-0.672 2.133,-0.516c0.277,0.07 1.289,0.125 2.183,0.207c0.211,-0.23 0.43,-0.433 0.66,-0.594c0.09,-0.164 0.188,-0.32 0.289,-0.468c0.079,-0.293 0.2,-0.625 0.36,-0.996c0.808,-1.86 1.297,-2.532 2.535,-3.493c0.105,-0.082 0.215,-0.246 0.328,-0.476c0.027,-0.004 0.055,-0.004 0.082,-0.008c-0.566,-2.625 1.688,-6.66 3.61,-7.789c0.238,-0.141 1.007,-0.664 1.738,-0.926c2.336,-1.746 5.469,-4.633 7.996,-3.289c1.508,0.797 1.949,3.551 2.023,5.078c0.004,0.098 0.008,0.192 0.008,0.285c0.91,-0.859 2.52,-1.55 3.211,-1.578c0.594,-0.035 0.594,-0.035 2.211,0.356c0.488,0.117 0.883,0.324 1.164,0.558c0.113,0.024 0.219,0.051 0.324,0.078c1.602,-0.632 3.883,-0.859 5.528,-0.519c0.527,0.113 2,0.437 2.984,0.941c0.109,-0.004 0.219,-0.011 0.356,-0.015c2.554,-0.125 8.136,0.191 10.792,2.156c0.145,-0.035 0.274,0.082 0.391,0.27l0,-0.004c0.184,-0.563 0.844,-0.641 1.469,-0.454c0.265,-0.144 0.515,-0.32 0.715,-0.515c0.277,0.148 0.554,0.308 0.808,0.48c0.469,-0.261 1.039,-0.386 1.637,-0.414c0.047,0.059 0.098,0.125 0.152,0.18c0.02,-0.008 0.039,-0.02 0.062,-0.027Zm-36.995,5.683c0.066,0.227 0.125,0.465 0.176,0.707c0.98,0.774 1.058,2.824 0.957,3.828c-0.286,2.68 -2.899,5.43 -5.653,6.164c-0.144,0.215 -0.293,0.426 -0.453,0.618c-0.168,0.875 -0.547,1.691 -1.062,2.425c-0.137,0.618 -0.34,1.235 -0.606,1.774c-0.016,0.051 -0.027,0.101 -0.039,0.152c-0.437,0.852 -1.191,2.094 -2.059,3.469c-0.265,0.277 -0.546,0.531 -0.835,0.762c-0.727,0.937 -1.856,2.136 -3.012,2.898c-0.285,0.555 -0.485,1.199 -0.617,1.977c-0.036,0.203 -0.051,0.371 -0.047,0.496c-0.063,0.234 -0.121,0.476 -0.18,0.718c-0.078,0.305 -0.144,0.586 -0.203,0.829c-0.328,0.546 -0.602,1.015 -0.824,1.421c-0.11,0.52 -0.18,1.055 -0.18,1.43c-0.09,0.348 -0.152,0.676 -0.16,0.93c-0.25,0.254 -0.469,0.57 -0.555,0.704c-0.652,1.022 -0.652,1.022 -1.281,1.522c-0.93,0.744 -0.336,1.379 0.66,0.934c0.606,-0.27 1.633,-1.27 2.02,-2.198c0.625,-0.103 1.191,-0.279 1.546,-0.544c0.446,-0.328 1.891,-0.198 3.274,-0.309c1.019,-0.086 2.059,-0.265 2.637,-0.449c0.093,0.348 0.218,0.703 0.3,1l-0.003,0c-0.395,0.141 -0.641,0.332 -0.579,0.566c0.2,0.75 2.512,0.489 3.551,0.055c0.004,0.009 0.004,0.017 0.008,0.031c0.266,0.809 2.316,1.797 4.09,2.314c-0.16,0.261 -0.457,0.53 -0.774,0.682c-0.222,0.102 -0.382,0.227 -0.48,0.365c-0.32,-0.197 -0.629,-0.029 -0.637,0.823c-0.004,0.172 -0.031,0.344 -0.074,0.5c-0.348,0.005 -0.785,0.027 -1.332,0.062c-2.566,0.172 -2.633,0.176 -2.418,1.451c-0.336,-0.15 -0.699,-0.263 -0.977,-0.302c-1.003,-0.141 -2.48,-0.612 -3.289,-1.042c-0.23,-0.125 -0.476,-0.22 -0.73,-0.289c-0.324,-0.306 -1.156,-0.345 -4.109,-0.458c-3.793,-0.145 -4.082,-0.159 -4.875,-0.051c-0.172,-0.16 -0.329,-0.344 -0.477,-0.559c-0.031,-0.043 -0.063,-0.085 -0.09,-0.125c-0.008,-0.043 -0.016,-0.086 -0.023,-0.127c-0.192,-0.888 -0.426,-2.873 -0.516,-4.412c-0.008,-0.096 -0.019,-0.222 -0.039,-0.371c0.23,-1.187 0.41,-2.332 0.484,-2.812c1.028,-6.586 0.325,-11.059 4.094,-16.098c0.309,-0.805 0.715,-1.508 1.305,-1.867c0.836,-1.484 1.23,-2.961 1.273,-3.258c0.004,-0.043 0.008,-0.082 0.008,-0.121c0.086,-0.164 0.172,-0.328 0.254,-0.488c0.664,-0.871 0.859,-1.137 0.578,-1.211c0.047,-0.11 0.094,-0.223 0.145,-0.332c0.047,-0.121 0.086,-0.219 0.113,-0.301c0.633,-1.18 1.297,-2.031 1.808,-2.309c0.438,-0.238 1.055,-0.886 1.723,-1.738c2.11,-0.867 4.922,-1.039 7.141,-1.297c0.449,-0.051 0.793,0.617 1.043,1.461Zm-12.328,27.168c-0.129,0.805 -0.329,1.598 -0.59,2.387c-0.024,0.074 -0.086,0.187 -0.172,0.324c0.164,-0.109 0.328,-0.238 0.492,-0.398c0.234,-0.227 0.473,-0.387 0.836,-0.489c-0.32,-0.582 -0.484,-1.285 -0.566,-1.824Zm51.57,-31.355c-0.008,-0.059 -0.012,-0.121 -0.008,-0.184c1.058,0.34 -1.556,-2.965 -2.262,-5.281c-0.575,-1.887 -1.082,-3.789 -1.523,-5.434c2.293,2.047 7.848,2.41 9.562,2.785c4.417,0.957 9.761,2.512 13.907,0.063c0.222,0.371 0.566,0.867 0.855,1.031c-0.269,0.781 0.094,1.797 0.153,2.684c0.281,4.199 0.898,5.937 2.007,9.301c0.95,2.89 0.274,5.3 -0.933,7.843c-3.824,8.067 -8.114,11.395 -17.031,9.262c-0.235,-0.059 -2.005,-0.457 -3.352,-0.773c-1.305,0.476 -1.914,-0.68 -2.184,-1.887c-0.214,-0.274 -0.418,-0.559 -0.609,-0.813c-0.157,-0.207 -0.309,-0.48 -0.445,-0.793c-0.047,0.106 -0.098,0.215 -0.145,0.321c-0.578,-1.864 -0.367,-4.051 -0.137,-5.895c0.347,-2.781 0.347,-2.781 0.347,-3.781c0,-0.777 -0.284,-1.445 -0.659,-0.41c-1.219,3.383 -1.79,8.25 -0.141,11.621c-0.066,0.226 -0.109,0.445 -0.133,0.66c-0.391,0.02 -0.839,0.234 -1.168,0.527c-0.101,-0.226 -0.191,-0.445 -0.269,-0.656c-0.199,0.211 -0.449,0.383 -0.766,0.512c-0.261,-0.09 -0.566,-0.184 -1.156,-0.379c-0.187,-0.059 -0.348,-0.113 -0.484,-0.149c-0.016,-0.031 -0.035,-0.066 -0.051,-0.101c0.238,-0.172 0.293,-0.508 0.012,-1.047c-0.004,-0.004 -0.004,-0.004 -0.004,-0.008c-1.242,-0.051 -2.582,-0.328 -3.063,-0.535c-1.449,-0.625 -1.172,-2.391 -0.609,-3.691c0.133,-0.305 0.219,-0.696 0.351,-1.008c0.204,-1.727 0.243,-3.465 0.375,-4.223c0.465,-2.629 2.79,-3.875 2.719,-5.594c-0.004,-0.046 -0.004,-0.093 -0.004,-0.14c0.016,-0.137 0.035,-0.266 0.059,-0.387c0,-0.012 0,-0.023 0.004,-0.031c0.062,-0.219 0.097,-0.481 0.121,-0.758c0.16,-1.031 0.242,-1.574 0.265,-1.922c0.04,-0.023 0.071,-0.055 0.09,-0.094c0.008,0.075 0.016,0.153 0.028,0.239c0.664,5.25 -0.809,9.078 -1.711,14.347c-0.039,0.223 -0.117,0.711 -0.18,1.258c0.164,0.086 0.422,0.141 0.805,0.223c0.148,0.027 0.312,0.051 0.488,0.07c0.258,-1.074 0.453,-2.641 0.594,-4.785c0.281,-4.277 2.565,-6.781 1.375,-10.969c0.23,-0.023 0.554,-0.164 0.984,-0.472c0.067,-0.051 0.137,-0.09 0.215,-0.129l0.004,0.004l0,0.007c0.137,0.524 0.558,1.079 1.112,1.586c-0.089,-0.027 -0.175,-0.047 -0.261,-0.066c0.165,0.215 0.328,0.457 0.5,0.734c0.042,0.063 0.106,0.176 0.183,0.317c0.578,0.121 1.078,0.234 1.267,0.207c0.592,0.324 1.183,0.562 1.656,0.652c-0.004,0.613 0.039,1.418 0.097,1.641c0.653,2.414 2.214,4.64 3.676,6.629c0.614,0.832 1.379,1.582 1.699,1.66c0.325,0.078 0.589,0.144 0.505,-0.035c-0.09,-0.184 -0.09,-0.184 -1.122,-1.809c-1.539,-2.422 -3.707,-4.988 -4.497,-7.84c1.724,2.738 4.849,5.207 7.884,5.848c0.633,0.133 2.785,-0.356 1.136,-0.621c-0.495,-0.078 -1.554,-0.543 -2.355,-1.028c-1.453,-0.886 -1.453,-0.886 -2.328,-1.164c-0.48,-0.152 -1.058,-0.531 -1.281,-0.84c-0.223,-0.312 -1.199,-1.554 -2.168,-2.761c-0.062,-0.082 -0.149,-0.184 -0.243,-0.305c-0.034,-0.203 -0.132,-0.453 -0.308,-0.758c-0.625,-1.105 -1.359,-1.59 -1.445,-2.476Zm-34.844,20.66c0.121,-0.012 0.262,-0.016 0.414,-0.004l0.383,-0.227l-0.723,0.09c-0.636,0.082 -0.996,0.703 -0.519,0.586c-0.067,-0.277 0.125,-0.406 0.445,-0.445Zm26.656,-19.477c-0.046,0.782 0.004,1.641 0.231,2.203c-0.188,0.489 -0.461,1.059 -0.766,1.645c-0.054,0.531 -0.332,1.367 -0.843,2.555c-0.09,0.214 -0.176,0.406 -0.25,0.586c-0.036,0.261 -0.125,0.457 -0.258,0.601c-0.555,1.301 -0.633,1.59 -1.039,3.035c-0.075,0.27 -0.164,0.516 -0.266,0.727c-0.004,0.023 -0.012,0.043 -0.02,0.066c-0.906,2.797 -0.906,2.797 -1.062,3.672c0,0.004 0,0.008 0,0.012c-0.25,0.07 -0.5,0.234 -0.727,0.406c-0.531,0.277 -1.074,0.535 -1.621,0.777c-1.757,0.079 -3.531,0.352 -5.152,0.993c-0.039,0.015 -0.078,0.031 -0.117,0.047c-0.61,-0.153 -1.028,0.097 -1.367,0.703c-0.707,1.269 -2.121,2.05 -3.266,2.89c-1.422,1.047 -1.422,1.047 -1.844,1.399c-1.015,0.859 -2.539,1.347 -3.773,1.816c-1.18,0.449 -1.867,2.258 -2.59,3.195c-0.508,0.649 -1.105,1.137 -1.758,1.653c-0.078,0.062 -0.16,0.133 -0.234,0.207c-1.184,0.558 -2.489,0.945 -3.957,1.332c-0.41,0.109 -0.891,0.312 -1.297,0.547c-0.785,0.113 -1.57,0.23 -2.328,0.371c-1.117,0.207 -1.824,0.336 -2.254,0.457c-0.141,-0.078 -0.313,-0.09 -0.531,-0.063c-0.137,0.016 -0.246,0.055 -0.329,0.11c-0.511,-0.098 -1.289,-0.153 -2.246,-0.16c-0.148,-0.586 -0.797,-1.329 -1.043,-1.672c-0.414,-0.563 -0.914,-1.606 -1.113,-2.317c-0.008,-0.023 -0.012,-0.043 -0.019,-0.062c0.386,-0.504 0.816,-1.059 1.296,-1.668c1.094,-1.403 1.958,-2.735 2.618,-3.922c1.191,-1.629 2.101,-3.649 2.437,-5.535c0.149,-0.211 0.324,-0.469 0.535,-0.785c2.059,-0.801 4.297,-2.657 5.571,-4.825c0.234,4.145 0.101,9.004 -0.032,9.02c-0.203,0.027 -2.414,4.519 -2.738,7.336c-0.402,3.519 0.953,4.914 1.211,1.504c0.344,-4.61 2.898,-6.071 3.465,-10.094c0.176,0.219 0.812,0.359 2.125,0.477c1.203,0.109 2.59,0.421 3.082,0.699c0.516,0.289 2.297,0.765 1.844,-0.41c-0.348,-0.903 -1.457,-1.371 -2.512,-1.614c-0.543,-0.422 -1.328,-0.422 -2.102,-0.281c-1.046,-0.086 -1.101,-0.082 -1.476,-0.035c-0.395,0.051 -0.723,0.242 -0.891,0.539c0.02,-0.234 0.031,-0.477 0.039,-0.734c0.137,-6.161 0.141,-6.414 -0.976,-9.813c0.008,-0.66 -0.114,-1.316 -0.387,-1.949c-0.059,-0.133 -0.113,-0.25 -0.168,-0.356c-0.094,-1.003 -0.418,-2.148 -0.773,-3.074c-0.426,-0.539 0.175,-1.59 0.644,-2.148c0.629,-0.61 1.305,-1.176 1.969,-1.75c1.785,-1.414 3.562,-2.231 6.289,-1.785c0.422,0.066 0.758,0.218 1.012,0.41c0.125,-0.113 0.25,-0.207 0.359,-0.266c0.145,-0.082 0.301,-0.16 0.465,-0.234c0.098,0 0.203,-0.012 0.312,-0.031c2.973,-0.551 5.231,0.601 8.075,0.968c0.347,0.047 0.57,0.028 0.73,-0.078c0.063,0.051 0.125,0.106 0.188,0.164c0.167,-0.027 0.347,-0.051 0.539,-0.078c2.32,-0.34 6.988,0.293 8.957,1.676c0.058,0.043 0.132,0.086 0.214,0.129c-0.039,0.25 -0.066,0.523 -0.082,0.812Zm-20.98,11.981c0.422,-0.227 0.883,-0.899 0.965,-1.121c0.68,-1.942 -1.758,-0.082 -1.606,0.812c-1.16,-0.043 -0.152,3.586 -0.148,4.52c0.004,0.867 0.047,0.902 0.726,0.644c1.094,-0.418 0.93,-3.906 0.063,-4.855Zm-30.949,17.484c0.078,-0.48 0.144,-0.922 0.187,-1.312c0.457,-4.235 0.289,-7.317 1.746,-10.668c0.02,-0.34 0.098,-0.813 0.223,-1.27c0.191,-0.723 0.98,-2.348 1.754,-3.609c0.387,-0.629 0.867,-1.649 1.453,-2.617c-1.48,0.023 -3.18,0.246 -4.227,0.46c-0.25,0.051 -0.468,-0.066 -0.683,-0.277c0.238,0.832 0.457,2.035 0.648,3.539c0.383,3.008 0.375,3.344 -0.086,3.488c-0.402,0.126 -0.507,0.008 -0.492,-0.585c0.008,-0.407 -0.379,-2.262 -0.859,-4.118c-0.481,-1.855 -0.832,-3.566 -0.781,-3.804c0.046,-0.235 0.121,-0.36 0.214,-0.407c-0.636,-0.785 -1.472,-1.343 -2.785,-0.746c-1.976,0.899 -3.054,2.821 -3.16,2.887c-2.25,1.344 -7.375,4.863 -6.851,9.918c0.109,1.043 0.566,3.328 1.523,5.371c1.633,3.5 4.84,7.602 8.746,6.91c1.094,-0.199 2.191,-0.82 3.156,-1.519c0.094,-0.567 0.192,-1.125 0.274,-1.641Zm28.765,-21.203c-1.023,-2.012 -2.336,2.625 -2.535,3.066c-0.035,0.071 -0.066,0.145 -0.094,0.215c-0.187,0.063 -0.277,0.332 -0.168,0.766c0.004,0.133 0.04,0.238 0.098,0.312c0,0.004 0.004,0.008 0.004,0.012c0.43,1.113 0.43,1.113 0.52,1.824c0.089,0.707 0.089,0.707 0.203,1.141c0.066,0.254 0.324,0.371 0.613,0.285c0.859,-0.269 0.316,-2.394 -0.133,-3.375c0.363,-0.211 0.723,-0.531 0.973,-0.902c0.66,-0.977 1.094,-2.219 0.519,-3.344Zm14.641,-4.113c-0.57,0.035 -1.125,0.097 -1.652,0.179c-0.36,-0.043 -0.743,-0.023 -1.133,0.047c0.058,0.203 -0.141,0.293 -0.738,0.426c-0.594,0.129 -1.352,0.668 -2.086,1.473c-0.149,0.164 -0.504,0.621 -0.891,0.996c-0.055,0.195 -0.082,0.394 -0.082,0.601c-0.004,0.012 -0.004,0.028 0,0.043c-0.063,0.032 -0.125,0.067 -0.184,0.102c-0.004,0.918 -0.711,1.375 -1.441,0.644c-0.109,-0.031 -0.211,-0.097 -0.313,-0.211c0.016,-0.035 0.036,-0.07 0.051,-0.101c-0.773,-1.078 -1.773,-2.43 -3.031,-2.961c-0.379,-0.16 -0.918,-0.184 -1.418,-0.246c-0.121,0.156 -0.281,0.113 -0.707,-0.137c-0.051,-0.015 -0.098,-0.035 -0.145,-0.051c-0.066,0.004 -0.136,0.012 -0.207,0.02c-0.57,-0.645 -1.316,-1.195 -1.929,-1.594c-0.938,-0.617 -0.938,-0.617 -1.227,-0.578c-0.078,0.008 -0.148,0.02 -0.211,0.039c-0.453,-0.383 -0.746,-0.805 -0.695,-1.25c0.043,-0.387 0.187,-0.715 0.316,-0.734c0.235,-0.028 0.235,-0.028 2.024,1.058c0.433,0.262 1.441,0.719 2.172,1.289c0.777,-0.261 1.98,0.02 2.617,0.266c1.219,0.469 2.539,1.391 3.363,2.547c0.746,-1.262 2.512,-2.567 3.738,-2.418c0.086,-0.082 0.184,-0.16 0.289,-0.223c1.711,-1.082 6.141,-1.05 8.036,-0.543c0.668,0.18 1.527,0.711 1.992,1.235c0.914,1.027 0.383,1.527 -0.797,0.918c-1.469,-0.762 -3.668,-0.961 -5.711,-0.836Zm-10.758,-5.606c0.008,-0.019 0.016,-0.031 0.024,-0.047c0.351,-0.019 0.64,-0.086 1.652,-0.324c0.281,-0.066 0.57,-0.113 0.863,-0.133c0.371,0.024 0.735,0.094 1.082,0.219c0.598,0.215 1.211,0.336 1.828,0.484c0.645,0.153 0.645,0.153 0.965,0.321c0.196,0.101 0.348,0.164 0.602,0.25c0.273,0.207 0.527,0.437 0.758,0.691c-0.254,0.324 -1.516,-0.183 -1.809,-0.363c-1.656,-0.988 -4.613,-1.094 -6.062,0.344c-0.137,0.136 -0.317,0.203 -0.489,0.211c-0.066,0.074 -0.172,0.132 -0.328,0.156c-0.848,0.121 -1.922,-0.52 -2.687,-0.797c-0.832,-0.301 -1.711,0.09 -2.305,0.625c-0.207,0.191 -0.625,0.457 -0.957,0.441c0.379,-0.375 0.711,-0.711 0.937,-0.902c0.864,-0.73 2.375,-1.297 3.606,-1.094c0.488,0.149 0.961,0.364 1.301,0.602c0.047,-0.09 0.109,-0.176 0.179,-0.25c0.403,-0.012 0.684,-0.184 0.84,-0.434Zm-8.16,-2.004c-1.488,0.586 -2.98,2.332 -3.668,3.586c-2.18,-1.097 -7.254,0.516 -9.035,1.989c0.433,-1.141 0.851,-2.832 1.004,-3.43c0.015,-0.063 0.031,-0.125 0.051,-0.184c0.152,-0.258 0.312,-0.535 0.464,-0.758c0.231,-0.335 0.477,-0.644 0.747,-0.929c0.683,-0.563 1.515,-0.985 2.234,-1.41c0.512,-0.301 0.93,-0.664 1.113,-0.954c0.953,-0.492 1.934,-0.933 2.871,-1.421c2.977,-1.551 3.965,-0.547 4.297,2.902c0.016,0.203 0.043,0.387 0.078,0.551c-0.054,0.019 -0.105,0.035 -0.156,0.058Zm33.781,-31.347c0.282,-0.641 0.555,-1.282 0.82,-1.922c0.739,0.457 1.551,0.84 2.212,1.316c1.316,0.953 3.761,1.399 5.738,1.52c1.055,0.484 1.652,1.144 -0.289,1.613c-0.723,0.172 -1.578,0.168 -2.481,0.027c0.043,0.079 0.078,0.149 0.101,0.211c1.786,4.801 5.997,11.606 11.688,11.907c0.176,0.011 0.45,-0.012 0.75,-0.032c3.16,3.051 7.551,5.035 11.297,7.227c0.848,0.5 1.742,0.961 2.383,1.238c0.055,0.063 0.109,0.125 0.168,0.188c0.039,0.035 0.078,0.066 0.117,0.101c0.481,0.192 0.879,0.492 1.199,0.809c1.137,-0.422 2.93,-0.641 2.301,-0.016c-0.265,0.258 -0.953,0.664 -1.621,0.879c0.082,0.137 0.152,0.266 0.207,0.375c0.652,-0.672 3.223,-1.934 3.317,-0.699c0.035,0.465 -0.223,0.762 -1.051,1.211c-0.711,0.383 -1.18,0.855 -1.324,1.336c-0.036,0.121 -0.094,0.265 -0.172,0.402c0.793,1.516 1.273,3.293 1.621,4.992c0.222,0.098 0.429,0.262 0.57,0.473c0.371,0.555 0.785,0.805 1.328,0.809c0.235,0 0.461,0.062 0.653,0.164c0.082,-0.012 0.16,-0.024 0.242,-0.036c2.117,-0.351 4.207,-1.144 6.023,-2.293c0.445,-0.285 1.574,-0.777 1.758,-0.113c1.242,-0.355 1.34,-0.355 2.137,-0.363c0.031,0 0.062,0 0.093,0c0.622,-0.149 1.27,-0.195 1.653,-0.164c1.871,0.148 4.011,-0.07 5.969,-0.613c0.035,-0.028 0.066,-0.055 0.089,-0.079c0.168,-0.179 0.266,-0.39 0.305,-0.605c0.481,0.09 1.012,0.086 1.457,0.043c0.317,-0.133 0.629,-0.277 0.926,-0.43c0.265,-0.144 0.711,-0.383 1.133,-0.531c0.59,-0.477 1.664,-1.512 2.172,-2.133c0.136,-0.168 0.218,-0.484 0.293,-0.797c0.191,-1.09 0.093,-1.074 -0.891,-0.941c-0.152,0.019 -1.414,0.82 -2.988,0.226c-1.399,-0.527 -2.043,-1.312 -3.368,-0.636c-0.046,0.023 -0.105,0.047 -0.168,0.07c-0.089,0.023 -0.199,0.055 -0.339,0.094c-0.457,0.121 -1.911,0.285 -2.153,0.164c-0.441,-0.223 -0.441,-0.223 -1.074,-0.625c-1.309,-0.832 -2.434,-0.637 -3.894,-1.125c-0.293,-0.168 -0.579,-0.313 -0.821,-0.453c-1.008,-0.489 -2.062,-0.754 -3.137,-0.938c-0.226,-0.062 -0.476,-0.121 -0.671,-0.168c-0.149,-0.039 -0.282,-0.066 -0.403,-0.082c-0.527,-0.179 -1.047,-0.289 -1.613,-0.289c-0.16,0 -0.328,0.016 -0.484,0.051c-0.883,-0.297 -1.786,-0.559 -2.711,-0.766c-1.5,-0.328 -2.942,-1.316 -3.821,-2.226c-0.101,-0.063 -0.156,-0.102 -0.191,-0.121c-0.066,-0.098 -0.219,-0.27 -0.438,-0.496c-0.003,-0.004 -0.007,-0.012 -0.011,-0.016c-0.598,-0.715 -1.278,-1.363 -2.028,-1.977c-1.906,-1.566 -3.421,-3.488 -5.136,-5.254c-0.473,-0.488 -0.68,-0.699 -0.989,-0.937c-0.117,-0.191 -0.25,-0.398 -0.394,-0.637c-1.992,-3.199 -5.578,-6.328 -8.777,-8.273c-0.032,-0.016 -0.071,-0.039 -0.107,-0.059c-0.018,0.008 -0.038,0.02 -0.058,0.028c-0.496,0.234 -0.652,0.117 -1.179,-0.864c-0.047,-0.093 -0.102,-0.191 -0.16,-0.289c-0.063,-0.054 -0.125,-0.105 -0.188,-0.152c-0.105,-0.164 -0.203,-0.32 -0.301,-0.465c-0.583,-0.613 -1.75,-1.582 -2.722,-2.246c-0.118,-0.078 -0.731,-0.508 -1.227,-0.996c-0.891,0.387 -0.898,0.355 -1.375,-1.942c-0.051,-0.242 -0.114,-0.476 -0.187,-0.703c-0.494,-0.711 -0.947,-1.449 -1.313,-2.218c-0.203,-0.207 -0.422,-0.399 -0.656,-0.571c-0.254,-0.066 -0.512,-0.195 -0.695,-0.332c-0.189,-0.136 -0.516,-0.297 -0.891,-0.472c-0.45,-0.145 -0.926,-0.235 -1.43,-0.27c-0.087,-0.004 -0.215,-0.039 -0.359,-0.094c0.051,-0.121 0.1,-0.242 0.152,-0.355c-1.563,-0.113 -3.355,-0.09 -4.719,0.707c-0.519,0.301 -1.371,0.609 -1.891,0.676c-0.757,0.101 -0.96,0.25 -1.027,0.761c-0.042,0.348 -0.589,2.161 -1.21,4.024c-0.207,0.617 -1.047,2.777 -1.594,3.195c0.023,0.035 0.051,0.07 0.078,0.102c-0.301,1.574 -0.242,3.39 0.012,5.285c0.023,0.555 0.113,1.097 0.242,1.547c0.004,0.011 0.008,0.023 0.012,0.039c0.175,0.972 0.39,1.949 0.621,2.914c0,-0.012 -0.09,-0.781 -0.203,-1.719c0,0.008 0.003,0.016 0.007,0.02c0.118,0.964 0.215,1.765 0.215,1.789c0.219,0.902 0.465,1.793 0.731,2.668c1.21,4.007 1.828,6.05 1.953,7.039c0.879,1.269 1.71,2.597 2.226,3.011c3.016,2.454 7.664,4.059 12.281,4.45c-0.437,-0.868 -0.675,-3.246 -0.703,-3.551c-0.328,-3.442 -1.433,-7.082 -3.656,-9.793c-0.797,-0.973 -1.613,-2.215 -1.816,-2.758c-0.274,-0.742 -0.274,-1.109 0,-1.461c0.113,-0.152 0.226,-0.23 0.34,-0.258c-1.107,-1.761 -2.121,-3.504 -3,-4.929c-0.16,-0.258 -0.31,-0.5 -0.442,-0.727c-1.105,-0.461 -2.16,-1.047 -3.035,-1.687c-0.005,-0.004 -0.005,-0.004 -0.008,-0.004Zm1.925,27.957c-1.163,-0.903 -2.1,-1.836 -2.75,-3.145l2.078,1.594c2.45,1.879 5.145,3.488 7.962,4.766c1.163,0.527 1.879,1.023 1.817,1.25c-0.102,0.378 -0.102,0.378 -3.637,-1.293c-1.946,-0.918 -4.406,-2.348 -5.47,-3.172Zm4.04,-40.637l0.004,0.004c1.313,0.254 2.32,0.687 3.112,1.324c0.201,0.34 0.392,0.633 0.505,0.789c0.184,0.246 0.992,1.192 1.714,1.875c0.482,0.578 0.923,1.199 1.31,1.844c0.172,0.285 0.332,0.578 0.48,0.875c0.129,0.176 0.25,0.344 0.355,0.496l0.058,0.035c0.172,0.102 0.45,0.317 0.775,0.606c0.022,0.101 0.062,0.199 0.109,0.293c1.113,0.742 2.147,1.726 2.723,2.781c0.398,0.226 0.882,0.535 1.488,0.949c0.003,0.004 0.012,0.012 0.019,0.012c0.094,0.058 0.165,0.109 0.234,0.164c2.192,1.527 4.001,3.094 5.579,4.941c0.16,0.129 0.32,0.262 0.473,0.395c0.093,0.121 0.187,0.234 0.277,0.344c0.941,1.148 2.102,2.437 2.574,2.863c0.113,0.105 0.219,0.191 0.321,0.262c2.558,2.738 5.343,6.046 9.121,10.164c0.394,0.089 1.035,0.226 2.121,0.457c3.054,0.652 7.976,1.48 10.761,3.031c2.114,1.18 2.489,0.824 4.215,1.746c0.074,0.043 0.996,0.156 1.074,0.16c0.641,-0.383 1.141,-0.57 1.625,-0.621c0,-0.004 0,-0.008 0,-0.012c0.016,0.004 0.028,0.004 0.04,0.008c0.316,-0.031 0.628,-0.004 0.968,0.063c0.309,-0.004 0.598,-0.035 0.84,-0.071c0.442,-0.07 0.988,-0.343 1.406,-0.722c0.461,-0.297 2.223,-0.645 2.821,-1.379l0,-0.004c0.027,-0.149 0.058,-0.324 0.097,-0.527c0.278,-1.497 0.278,-1.497 -0.812,-1.352c-0.156,0.023 -1.418,0.824 -2.988,0.23c-1.403,-0.531 -1.782,-0.511 -3.106,0.168c-0.047,0.024 -0.105,0.047 -0.168,0.067l0,0.004c-0.086,0.023 -0.199,0.054 -0.336,0.09c-0.461,0.125 -1.07,0.328 -1.262,0.8c-0.019,-0.015 -0.035,-0.031 -0.05,-0.043c-0.223,-0.203 -0.602,-0.468 -0.844,-0.593c-0.441,-0.223 -0.441,-0.223 -1.074,-0.621c-1.309,-0.832 -2.699,-1.442 -4.157,-1.934c-0.296,-0.164 -0.578,-0.313 -0.824,-0.453c-1.004,-0.485 -2.062,-0.75 -3.136,-0.938c-0.227,-0.058 -0.477,-0.121 -0.668,-0.168c-0.153,-0.035 -0.286,-0.062 -0.403,-0.078c-0.527,-0.183 -1.047,-0.293 -1.617,-0.289c-0.16,-0.004 -0.324,0.012 -0.484,0.047c-0.883,-0.297 -1.782,-0.559 -2.711,-0.762c-0.332,-0.074 -0.625,-0.144 -0.879,-0.203l-0.004,0c-0.77,-0.191 -1.211,-0.34 -1.469,-0.543l-0.347,-0.129c-0.219,-0.14 -1.262,-1.445 -1.309,-1.476c-0.418,-0.621 -4.637,-4.621 -4.965,-4.992c-0.473,-0.528 -0.898,-1.02 -1.289,-1.485c-1.941,-3.707 -5.281,-8.406 -9.328,-9.57c-0.181,-0.109 -0.402,-0.238 -0.692,-0.406c-0.246,-0.141 -0.458,-0.254 -0.636,-0.34c-0.056,-0.035 -0.11,-0.067 -0.161,-0.102c-1.242,-0.047 -2.402,-1.308 -2.808,-2.551c-0.023,-0.015 -0.047,-0.027 -0.067,-0.043c-0.081,-0.183 -0.148,-0.367 -0.203,-0.539c-0.257,-0.527 -0.55,-0.972 -0.972,-1.347c0.003,0.019 0.008,0.035 0.012,0.054c-1.137,-1.175 -2.27,-2.496 -3.602,-3.48c-0.648,-0.055 -1.594,-0.391 -1.93,-0.516c-1.539,-0.578 -1.652,-0.621 -2.363,-0.054c0.183,0.121 0.336,0.261 0.453,0.402Zm6.063,27.211c0.886,2.16 1.144,4.769 1.207,6.805c0.062,1.941 -0.04,3.476 -0.25,3.847c-0.009,0.012 -0.012,0.02 -0.02,0.035c2.156,0.129 4.288,-0.011 6.223,-0.457l0.004,0c-0.086,-0.336 -0.176,-0.664 -0.27,-0.972c-0.812,-2.629 -1.617,-5.098 -2.617,-7.446c-1.383,-0.148 -2.707,-0.531 -3.84,-1.445c-0.145,-0.117 -0.293,-0.238 -0.437,-0.367Zm0.945,-10.145c-1.617,-1.836 -1.617,-1.836 -1.778,-1.785c-0.75,0.246 0.794,2.383 0.985,2.617c0.546,0.645 1.258,1.602 1.582,2.125c1.348,2.168 3.703,4.102 5.719,5.629c0.664,0.504 1.289,0.946 2.117,0.778l-2.762,-2.625c-1.519,-1.438 -3.097,-3.133 -3.508,-3.762c-0.406,-0.629 -1.468,-1.969 -2.355,-2.977Z"/><path d="M117.211,81.329c-1.863,-0.086 -2.562,0.5 -3.523,0.297c0.019,0.055 0.039,0.113 0.062,0.176c0.512,1.461 0.336,13.758 1.012,19.937c0.402,3.684 1.25,7.274 0.433,10.949c0.668,-0.124 2.672,0.29 3.328,0.29c1.344,0 1.731,0 2.672,0.075c3.227,-0.172 6.325,-0.005 10.86,0.214c8.949,0.028 5.914,0.55 18.754,0.578c0,-0.003 0.59,-0.659 0.593,-0.664c0.008,0.005 0.012,0.007 0.016,0.011c0.145,0.004 0.293,0.016 0.434,0.033c0.023,-0.439 0.058,-0.919 0.109,-1.404c0.039,-0.418 0.094,-1.035 0.176,-1.57c-0.274,-2.805 -0.543,-6.426 -0.75,-10.16c-0.317,-5.649 -0.614,-15.824 -0.578,-17.754c-13.551,-0.453 -12.981,-1.297 -26.536,-1.297c-0.898,0 -6.214,0.324 -7.062,0.289Zm35.172,1.926c0.051,1.078 0.152,2.156 0.297,3.234c0.32,2.328 0.433,10.586 0.433,12.93c0,1.68 0.184,3.293 0.446,4.883c0.007,0.191 0.019,0.375 0.031,0.551c0.074,-0.434 0.156,-0.86 0.246,-1.254c0.355,-1.657 0.555,-2.485 0.758,-2.899c-0.012,-0.297 0.004,-0.726 0.043,-1.336c-0.27,-0.14 -0.321,-0.711 -0.449,-2.64c-0.18,-2.739 -0.051,-11.938 -0.497,-14.821c-0.457,-2.949 -0.296,-8.39 -0.144,-11.382c-0.188,1.156 -0.93,8.293 -1.145,9.441c-0.011,0.066 -0.027,0.141 -0.046,0.219c-0.032,1.023 -0.024,2.047 0.027,3.074Zm2.875,-0.043c-0.352,-4.356 -0.539,-8.793 -0.07,-13.125c0.187,-1.762 0.253,-3.844 0.148,-4.625c-0.164,-1.231 -0.379,-1.453 -0.598,-1.168c-0.007,-0.059 -0.015,-0.109 -0.027,-0.148c0.047,-0.055 0.098,-0.106 0.148,-0.153c-0.105,-0.039 -0.226,-0.066 -0.355,-0.086c-0.023,-0.008 -0.047,-0.015 -0.07,-0.023c-0.078,-0.024 -0.149,-0.028 -0.219,-0.008c-0.969,-0.07 -2.281,0.16 -2.832,0.16c-0.692,0 -1.102,0 -1.82,-0.019c-1.504,-0.207 -12.614,-0.414 -12.907,0.082c-0.133,0.222 -0.14,0.398 -0.062,0.535c0.277,0.488 1.707,0.469 2.781,0.465l0.262,0c0.25,0 0.469,0.007 0.636,0.023c3.993,0.383 2.493,0.383 5.231,0.512c2.281,0.109 4.484,0.105 6.766,0.023c0.386,-0.015 0.722,-0.023 1.011,-0.039l0,0.008c-1.234,3.691 -1.773,7.781 -2.539,11.562c-0.351,1.735 -0.488,2.731 -0.445,3.493c-2.867,-0.598 -6.297,-0.043 -9.086,-0.043c-6.316,0 -5.199,-0.336 -10.348,-0.746c-5.152,-0.414 -10.718,-0.582 -12.367,-0.375c-1.648,0.203 -3.351,0.203 -3.781,0c-0.399,-0.192 -0.965,-0.157 -1.457,0.015c0.762,-0.851 1.363,-1.871 1.902,-2.957c-0.492,0.059 -1.094,-0.078 -1.851,-0.484c-0.786,1.129 -1.528,2.117 -2.02,2.976c0.082,0.766 0.164,1.532 0.25,2.297c0.043,0.246 0.102,0.516 0.18,0.809c0.344,1.34 0.621,3.762 0.695,5.926c0.516,3.5 1.035,12.961 0.906,16.55c-0.007,0.207 -0.015,0.407 -0.019,0.594c0.094,0.547 0.191,1.094 0.293,1.637c-0.215,1.73 -0.031,3.449 0.168,5.22c0.07,0.604 0.129,1.073 0.191,1.44c-0.152,0.074 -0.23,0.16 -0.254,0.263c-0.07,0.264 0.02,0.456 0.301,0.581l22.188,0.808c4.859,0.375 2.089,0.672 7.328,0.672c4.183,0 7.234,0 8.8,-0.207c0.094,0.031 0.18,0.016 0.262,-0.039c0.012,-0.004 0.028,-0.004 0.043,-0.008c0,-0.007 0,-0.015 0,-0.023c0.031,-0.031 0.063,-0.063 0.098,-0.102c0.176,-0.054 0.308,-0.152 0.43,-0.351c0.042,-0.055 0.078,-0.12 0.101,-0.203c0.152,-0.36 0.297,-0.938 0.504,-1.878c0.281,-1.294 0.57,-3.259 0.641,-4.368c0.004,-0.028 0.004,-0.055 0.007,-0.086c-0.019,-0.094 -0.039,-0.192 -0.058,-0.285c0.14,-0.848 0.379,-1.911 0.644,-2.829c0.411,-1.441 0.778,-3.199 0.817,-3.906c0.051,-0.914 0.027,-1.183 -0.274,-1.258c-0.011,-0.273 -0.035,-0.613 -0.07,-1.047c0.234,-0.199 0.246,-0.753 0.246,-2.472c0,-2.528 0,-8.528 -0.289,-11.727c-0.055,-0.617 -0.109,-1.238 -0.16,-1.863Z"/></svg>