<?xml version="1.0" encoding="UTF-8" standalone="no"?><!DOCTYPE svg PUBLIC "-//W3C//DTD SVG 1.1//EN" "http://www.w3.org/Graphics/SVG/1.1/DTD/svg11.dtd"><svg width="100%" height="100%" viewBox="0 0 302 88" version="1.1" xmlns="http://www.w3.org/2000/svg" xmlns:xlink="http://www.w3.org/1999/xlink" xml:space="preserve" xmlns:serif="http://www.serif.com/" style="fill-rule:evenodd;clip-rule:evenodd;stroke-linejoin:round;stroke-miterlimit:1.41421;"><path d="M99.922,63.098c-1.097,-0.395 -2.222,-0.578 -3.316,-0.496c-0.027,0.004 -0.051,0.004 -0.074,0.004c0.05,0.589 -0.059,1.175 -0.371,1.761c-3.399,-4.093 -7.399,-9.707 -12.762,-11.004c-0.211,-0.05 -0.473,-0.132 -0.746,-0.238c0.051,0.195 0.101,0.414 0.168,0.692c0.703,3.015 -1.766,0.187 -2.34,-0.891c-0.157,-0.293 -1.176,-1.774 -1.86,-3.117c-0.433,1.593 -1.359,2.547 -3.429,3.25c0,0.168 -0.012,0.363 -0.039,0.597c-0.028,0.239 -0.067,0.461 -0.129,0.672c0.136,0.281 0.258,0.559 0.34,0.781c0.707,1.981 0.941,2.297 1.898,2.563c1.527,0.426 1.359,1.141 -0.168,1.281c-1.902,0.18 -2.605,-1.429 -2.941,-3.09c-0.305,0.364 -0.692,0.754 -1.188,1.211c-0.41,0.375 -0.804,0.75 -1.195,1.125c0.227,0.063 0.5,0.164 0.82,0.301c1.11,0.492 2.551,1.551 3.207,2.359c2.301,2.848 3.965,5.458 7.188,7.438c4.043,2.492 9.347,4.344 11.883,8.68c0.695,1.183 0.402,4.777 -0.719,2.093c-0.453,-1.086 -1.246,-2.058 -2.211,-2.914l0.004,0.004c0.066,0.184 0.015,0.602 -0.219,1.332c-0.281,0.867 -0.113,6.078 -1.609,3.242c-0.856,-1.625 1.121,-4.742 1.703,-4.683c-1.672,-1.442 -3.817,-2.527 -5.594,-3.223c-0.777,-0.301 -2.226,-1.07 -3.609,-1.914c-1.098,-0.664 -4.254,-2.097 -4.747,-3.398c-0.031,-0.09 -0.031,-0.09 -1.773,-2.465c-0.961,-1.309 -1.875,-2.867 -2.031,-3.465c-0.188,-0.691 -0.809,-1.293 -1.723,-1.664c-0.605,-0.246 -1.09,-0.625 -1.359,-0.973c-1.899,1.785 -3.777,3.403 -6.207,4.16c0.504,0.079 0.726,0.227 0.055,0.551c-0.082,0.039 -0.161,0.078 -0.239,0.114c-0.281,1.402 -2.828,3.242 -3.687,3.718c-0.836,0.461 -1.668,1.035 -2.512,1.614c-0.234,3.203 -1.894,6.851 -3.633,9.476c-1.082,1.621 -2.187,3.695 -3.539,5.399c0.305,0 0.563,0.121 0.703,0.414c0.223,-0.008 0.52,-0.008 1.004,-0.008c3.27,0 6.528,0.058 9.746,-0.637c2.246,-0.48 3.356,-0.527 4.664,-0.187c0.161,0.039 0.399,0.082 0.707,0.125c0.797,0.023 1.7,0.109 2.801,0.257c1.395,0.094 3.035,0.172 4.645,0.207c1.128,0.028 2.078,0.055 2.875,0.09c-0.25,-0.207 -0.352,-0.418 -0.375,-0.672c-0.043,-0.484 0.113,-0.879 0.355,-0.879c0.438,0 0.438,0 2.137,0.637c2.121,0.789 5.766,1.793 8.863,1.723c0.496,-0.027 0.988,-0.07 1.481,-0.129c0.004,0 0.011,0 0.015,0c1.02,-0.168 1.926,-0.496 2.625,-1.051c1.274,-1.008 3.574,-1.086 3.77,-0.258c0.031,-0.004 0.062,-0.007 0.097,-0.007c2.797,-0.579 5.528,-0.786 7.739,-2.848c1.476,-1.379 2.48,-2.422 3.301,-3.832c0.07,-0.606 0.175,-1.207 0.304,-1.692c-0.168,-0.332 -0.297,-0.906 -0.34,-1.777c-0.207,-4.121 -4.105,-8.828 -8.414,-10.359Zm-16.277,11.726c0.086,-0.039 0.172,-0.078 0.258,-0.113c0.945,-0.402 1.656,-0.965 1.578,-1.25c-0.363,-1.332 -3.004,0.082 -3.527,0.313c-0.512,0.222 -1.168,0.535 -1.88,0.921c0.122,-0.464 -0.332,-1.578 -0.449,-2.269c-0.656,-3.891 -2.238,1.25 -0.457,2.254c0.223,0.129 0.399,0.199 0.531,0.222c-0.847,0.473 -1.753,1.047 -2.582,1.688c-0.043,-0.074 -0.093,-0.152 -0.152,-0.234c-0.582,-0.821 -0.871,-1.903 -0.871,-3.231c0,-1.769 -0.434,-2.07 -0.793,-1.547c-0.121,-0.047 -0.262,-0.09 -0.418,-0.129c-1.601,-0.394 -1.152,-2.468 -1.426,-3.738c-0.304,-1.406 -0.976,1.227 -1.019,1.527c-0.215,1.621 0.277,4.379 2.422,3.786c-0.028,0.226 -0.039,0.476 -0.039,0.734c0,1.445 0.242,3.004 0.539,3.465c0.132,0.203 0.304,0.363 0.488,0.476c-0.742,0.75 -1.32,1.559 -1.582,2.41c-0.324,0.016 -0.648,0.04 -0.973,0.063c-1.554,-0.09 -3.57,0.223 -4.117,0.32c-0.554,0.094 -0.953,0.184 -1.215,0.266c-0.418,0.051 -0.839,0.101 -1.257,0.148l0.828,0.098c-0.008,0.363 3.082,0.527 4.55,0.613c0.047,0 0.09,0.004 0.133,0.008c0.231,0.012 0.407,0.024 0.516,0.035c0.625,0.059 1.098,0.094 1.453,0.106c0.035,0.152 0.086,0.265 0.144,0.343c-0.015,0.043 -0.027,0.09 -0.035,0.137c0.028,-0.031 0.051,-0.055 0.082,-0.086c0.563,0.551 1.813,-1.633 1.981,-1.902c0.051,-0.082 0.101,-0.16 0.152,-0.238c0.274,-0.274 0.543,-0.543 0.816,-0.817c1.403,-1.402 3.321,-2.918 4.262,-3.363c0.235,-0.113 0.461,-0.238 0.672,-0.371c0.465,-0.231 0.93,-0.445 1.387,-0.645Zm-11.523,0.867c0.664,-4.171 -3.321,2.227 -1.196,3.637c1.578,1.051 4.031,1.403 2.016,-0.851c-0.883,-0.985 -1.027,-1.481 -0.82,-2.786Zm-20.915,-21.171c-0.601,-0.817 -1.402,-1.821 -2.031,-2.895c-4.836,1.449 -9.152,3.606 -11.543,8.891c-0.867,1.918 -1.113,2.23 -1.953,2.117c-0.129,0.211 -0.269,0.426 -0.422,0.637c-2.961,4.195 -1.719,8.816 -0.062,13.246c0.508,1.367 0.801,2.152 0.898,2.625c0.766,0.308 1.774,0.765 2.61,1.183c1.191,0.594 3.043,1.207 4.117,1.356c0.656,0.09 1.648,0.414 2.699,0.887c0.059,-0.036 0.125,-0.075 0.195,-0.118c1.789,-1.066 2.946,-2.574 3.762,-4.468c0.738,-1.711 0.738,-1.711 1.379,-2.989c0.074,-0.152 0.215,-0.515 0.394,-0.937c-2.445,1.859 -4.984,3.023 -8.339,3.023c2.324,-0.969 4.507,-2.051 6.515,-3.601c0.106,-0.082 0.219,-0.18 0.344,-0.286c-1.746,0.376 -2.793,0.36 -5.039,0.075c-1.934,-0.242 -5.227,-1.551 -1.363,-1.11c1.593,0.184 5.461,0.965 6.8,-0.215c0.157,-0.144 0.672,-0.222 1.313,-0.226c-0.477,-0.199 -0.668,-0.508 0.176,-0.762c3.832,-1.168 7.554,-3.539 10.172,-6.476c-2.723,0.129 -5.047,-1.504 -6.758,-4.297c-0.567,-0.922 -2.196,-3.317 -3.621,-5.324c-0.078,-0.11 -0.157,-0.223 -0.243,-0.336Zm5.684,15.593c-0.887,0.571 -1.801,1.086 -2.75,1.434c-0.094,0.098 -0.219,0.215 -0.375,0.359l0.699,0.075l-1.093,0.289c-0.321,0.289 -0.641,0.57 -0.957,0.843c-0.161,0.77 -0.45,1.907 -0.766,3.164c-0.559,2.207 -1.977,6.391 -4.809,6.954c0.891,0.5 1.731,1.078 2.344,1.683c0.344,-1.074 0.742,-2.109 1.395,-3.082c2.32,-3.449 4.929,-6.797 5.992,-10.855c0.039,-0.153 0.16,-0.481 0.32,-0.864Zm21.828,0.922c0.52,-0.14 0.52,-0.14 -1.266,-2.785l-1.785,-2.641c0.176,1.161 1.336,5.891 3.051,5.426Zm21.692,-9.367c0.55,0.129 1.101,0.309 1.644,0.527c-0.016,-0.086 -0.027,-0.179 -0.043,-0.273l0,-0.004c-1.148,-1.613 -2.32,-3.172 -4.078,-4.191c-0.586,-0.34 -2.379,-1.102 -3.984,-1.696c-2.149,-0.789 -2.719,-1 -2.629,-1.218c-0.239,-0.176 -1.141,-0.922 -2.059,-1.719c-0.957,-0.828 -2.723,-1.86 -3.926,-2.293c-0.257,-0.094 -1.261,-0.68 -1.863,-1.223c-0.59,-0.265 -1.383,-0.91 -1.566,-1.148c-0.649,-0.856 -1.809,-1.965 -2.575,-2.465c-0.117,-0.074 -0.226,-0.148 -0.328,-0.223c0.004,0.442 -0.012,0.887 -0.031,1.332c-0.008,0.176 -0.02,0.352 -0.031,0.524c0.582,0.265 1.363,1.168 2.152,2.5c0.496,0.836 0.821,1.379 1.043,1.789c1.645,0.203 1.676,0.215 3.707,0.816c1.129,0.336 2.758,1.207 3.61,1.93c1.75,1.492 5.632,4.043 6.769,6.769c0.363,-0.148 0.82,-0.23 1.305,-0.175c1.89,0.211 1.89,0.211 2.883,0.441Zm-19.543,-4.215c-0.231,-0.113 -2.594,-1.054 -2.141,0c0.445,1.043 2.695,2.098 3.719,2.426c1.019,0.328 2.242,1.023 2.758,2.027c-0.411,-0.175 -0.95,0.567 -1.079,1.895c-0.152,1.555 0.137,4.34 2.141,4.707c1.457,0.269 0.313,-1.512 -0.059,-2.168c-0.281,-0.5 -0.511,-1.738 -0.511,-2.754c0,-0.41 -0.035,-0.734 -0.09,-0.992c0.547,0.676 1.683,1.75 1.683,0.984c0,-3.211 -4.05,-4.988 -6.421,-6.125Zm22.277,5.242c3.828,1.973 6.937,5.977 6.937,10.188c0,0.082 0,0.164 -0.003,0.242c0.425,-0.812 0.902,-1.453 1.105,-1.168c0.711,-0.344 1.383,-0.582 1.668,-0.75c1.039,-0.578 1.898,-0.988 2.809,-1.137c-0.161,-0.726 0.07,-0.675 3.086,0.012c2.929,0.668 5.585,0.867 8.425,-0.074c0.41,-0.184 0.797,-0.395 1.141,-0.649c3.039,-2.273 2.391,-6.941 1.109,-10.164c-0.746,-1.878 -1.98,-3.566 -2.613,-4.265c-1.934,-2.145 -4.937,-2.363 -7.488,-2.051c-1.406,-0.762 -5.524,0.828 -6.453,0.992c-1.692,0.297 -3.446,0.977 -3.059,2.848c0.348,0.43 0.395,0.574 0.707,1.566c0.199,0.641 1.43,2.164 2.731,3.391c0.144,0.133 3.91,3.086 2.168,3.394c-2.165,0.379 -4.61,-2.937 -5.782,-4.675c-0.504,0.601 -1.121,1.125 -1.586,1.418c-0.191,0.254 -0.382,0.519 -0.582,0.796c-0.191,0.274 -0.863,0.036 -0.875,0.032c-1.261,-0.082 -2.425,-0.356 -3.281,-0.797c-0.031,0.32 -0.09,0.609 -0.164,0.851Zm-52.426,-27.57c-0.097,-0.16 -0.18,-0.32 -0.246,-0.473c-1.578,0.188 -4.152,-0.687 -4.707,-1.543c-0.426,-0.66 -0.582,-0.871 -1.879,-2.363c-0.215,0.59 -1.265,1.774 -1.605,2.137c-1.828,1.93 -3.899,4.184 -4.891,6.707c-0.281,0.723 -2.117,0.891 -1.738,0.211c1.801,-3.215 3.769,-7.375 7.258,-9.106c0.308,-0.156 0.535,-0.242 0.695,-0.273c-0.141,-0.16 -0.293,-0.332 -0.457,-0.52c-0.664,-0.761 -1.176,-1.445 -1.516,-2.007c-2.136,1.179 -4.39,2.511 -5.902,4.281c-3.391,3.957 -5.813,8.652 -11.051,11.055c-0.949,0.433 -1.785,0.617 -2.383,0.617c-0.105,0.008 -0.222,0.015 -0.347,0.019c-0.856,0.039 -2.512,0.453 -3.68,0.922c-1.906,0.762 -6.695,2.375 -8.688,1.231c-0.66,-0.383 -0.66,-0.383 -2.785,-0.594c-2.125,-0.211 -2.125,-0.211 -3.504,-0.606c-3.296,-0.937 0.024,3.829 1.614,4.27c0.777,0.219 1.804,0.891 2.281,1.492c1.465,1.863 4.258,1.817 6.367,1.57c0.738,-0.085 1.809,0.168 2.328,0.532c0.457,0.062 0.965,0.218 1.438,0.484c1.297,0.734 1.297,0.734 1.336,0.828c0.66,1.692 2.336,3.996 4.191,4.406c0.067,0.012 0.129,0.032 0.188,0.047c0.453,-0.797 1.168,-2.222 1.625,-3.25c0.152,-0.343 0.351,-0.758 0.582,-1.207c-0.098,-0.078 -0.114,-0.289 -0.02,-0.679c0.121,-0.493 1.113,-1.95 2.199,-3.243c3.336,-3.964 7.762,-6.925 12.789,-8.488c0.078,-0.023 0.157,-0.043 0.243,-0.055c-0.004,-0.011 -0.004,-0.019 -0.008,-0.031c-0.071,-0.406 -0.129,-0.738 0.105,-0.617c1.063,0.566 5.719,-0.684 6.496,-1.715c0.539,-0.707 0.539,-0.707 2.258,-2.851c0.192,-0.239 0.797,-0.754 1.414,-1.188Zm53.18,25.516c-0.25,-0.098 -0.465,-0.196 -0.625,-0.274c-0.227,-1.8 -1.106,-3.203 -2.813,-4.168c-1.476,-0.836 -1.476,-0.836 -4.812,-1.789c-1.375,-0.394 -2.18,-0.625 -2.692,-0.699c-0.304,-0.758 -0.878,-1.633 -1.714,-2.312c-0.895,-0.731 -2.926,-1.805 -4.516,-2.391c-0.727,-0.266 -1.27,-0.465 -1.676,-0.602c-0.105,-0.332 -0.269,-0.687 -0.453,-1.007c-0.773,-1.352 -1.769,-2.344 -3.09,-3.075c-1.773,-0.984 -1.934,-1.074 -2.73,-1.222c-0.332,-1.668 -1.075,-3.184 -2.602,-4.305c-0.039,-0.68 -0.148,-1.691 -0.312,-3.207c-0.161,-1.418 -0.391,-3.441 -0.813,-5.512c-2.023,-3.101 -3,-7.711 -1.84,-11.281c-0.007,-0.047 -0.011,-0.086 -0.019,-0.125c0.894,-2.242 1.281,-4.898 1.113,-6.578c0,-0.004 0,-0.012 0,-0.016c1.684,-0.73 3.215,-1.777 2.824,-3.73c0.133,-0.172 0.274,-0.387 0.418,-0.649c0.664,-1.207 1.473,-5.406 -0.047,-6.265c-0.406,-0.231 -0.879,-0.496 -1.238,-0.36c-0.023,-0.015 -0.047,-0.031 -0.066,-0.047c-0.129,-0.089 -0.266,-0.175 -0.403,-0.25c-0.922,-0.507 -2.058,-0.73 -3.078,-0.578c-1.05,-0.297 -2.648,-0.351 -3.117,0.473l-0.008,0c-0.515,0.164 -0.984,0.379 -1.195,0.453c-7.43,2.504 -5.305,8.699 -7.488,15.121c-0.039,0.113 -0.071,0.231 -0.102,0.352c-0.266,-0.223 -0.547,-0.422 -0.848,-0.586c-0.296,-0.215 -0.41,-0.258 -0.578,-0.266c-1.804,-0.707 -4.257,-0.961 -6.039,-0.09c-0.605,0.293 -2.301,1.188 -3.109,2.125c-0.457,-0.035 -0.863,0.012 -1.121,0.176c-0.981,-0.457 -2.813,-0.269 -3.219,0.418c-0.086,0.149 -0.152,0.293 -0.199,0.438c-1.149,-0.246 -2.82,0.601 -2.996,1.793c-0.012,0.062 -0.02,0.125 -0.02,0.191c-0.226,0.039 -0.437,0.105 -0.617,0.191c-1.035,0.481 -1.09,1.555 -0.785,2.418c-0.371,0.102 -0.688,0.223 -0.785,0.297c-0.653,0.496 -0.551,1.25 -0.153,1.895c-0.488,0.347 -0.882,0.676 -1.011,0.761c-2.563,1.715 -2.563,1.715 -4.254,3.208c-0.977,0.863 -1.641,1.8 -1.567,2.218c0,0.008 0.004,0.016 0.004,0.024c-1.66,1.726 -2.812,3.953 -4.179,5.761c-1.489,1.969 -3.825,3.055 -6.129,4.164c-0.317,0.153 -0.59,0.301 -0.821,0.442c-1.789,-0.371 -5.41,0.891 -6.175,1.183c-2.582,0.977 -4.622,1.387 -7.2,0.387c-0.933,-0.363 -2.179,-0.562 -2.761,-0.445c-0.586,0.117 -2.149,-0.016 -3.477,-0.297c-5.215,-1.098 -2.008,6.758 1.074,8.059c1.071,0.449 2.121,1.148 2.336,1.55c1.207,2.254 6.707,1.786 8.817,1.25c0.195,0.164 0.453,0.34 0.789,0.536c0.925,0.527 1.996,1.691 2.64,2.859c1.004,1.828 2.114,2.871 4.172,3.164c0.871,0.125 1.387,-0.223 1.496,-0.668c1.645,-0.84 2.789,-4.031 3.356,-5.402c0.593,-1.45 0.593,-1.45 1.547,-3.196c0.261,-0.484 0.41,-0.855 0.468,-1.132c3.477,-3.407 7.821,-4.731 12.004,-7.149c0.321,-0.184 0.5,-0.359 0.578,-0.519c1.129,0.035 2.602,-0.293 3.571,-0.582c-0.192,0.39 -0.332,0.707 -0.371,0.781c-0.739,1.379 -1.309,2.734 -1.379,3.269c-0.106,0.039 -0.215,0.082 -0.317,0.125c-0.574,0.239 -1.058,0.492 -1.437,0.75c-0.324,-0.261 -1.098,0.5 -1.543,1.828c-0.395,1.18 -0.617,2.903 -0.524,4.082c0.008,0.141 0.028,0.274 0.047,0.403c-2.406,2.203 -4.418,5.144 -5.269,7.625c-0.367,0.262 -0.684,0.551 -0.821,0.672c-3.097,2.715 -2.742,8.562 -2.117,12.195c0.188,1.09 0.969,4.746 2.301,6.043c0.238,0.477 0.742,1.023 1.223,1.312c1.554,0.93 1.554,0.93 3.254,2.016c0.937,0.594 2.464,1.176 3.402,1.293c1,0.125 2.586,0.84 3.863,1.742c0.274,0.196 3.621,1.969 4.164,1.067c0.551,-0.067 1.242,-0.375 1.731,-0.762c0.097,0.047 0.199,0.09 0.304,0.129c4.043,1.441 9.27,0.027 13.305,-0.977c0.836,-0.211 1.711,-0.308 2.59,-0.304c0.402,0.027 0.781,0.089 1.156,0.171c0.86,0.192 1.781,0.34 2.739,0.454c2.777,0.714 8.132,1.714 10.378,0.511c0.063,-0.035 0.125,-0.07 0.18,-0.101c1.266,0.32 2.527,0.469 3.785,0.492c3.348,0.5 6.977,0.43 9.52,-1.219c1.191,-0.222 2.387,-0.43 3.586,-0.574c0.117,0.008 0.226,0.016 0.32,0.016c3.172,0 8.082,-1.559 9.5,-4.985c0.566,-0.488 0.781,-1.355 0.82,-2.25c0.411,-0.887 0.735,-1.808 0.953,-2.734c0.09,-0.031 0.192,-0.067 0.297,-0.106c0.914,-0.351 4.535,-1.839 5.672,-3.203c0.055,0.004 0.113,0.008 0.176,0.016c0.227,0.105 0.484,0.207 0.773,0.305c0.723,0.25 1.5,0.433 2.309,0.558c0.219,0.051 0.422,0.086 0.605,0.094c0.075,0.004 0.149,0.012 0.223,0.012c2.559,0.261 5.313,-0.055 7.555,-0.829c1.379,-0.48 1.976,-0.753 2.16,-1.109c1.266,-0.707 1.453,-3.234 1.387,-4.984c0.582,-3.547 -0.559,-7.66 -1.969,-9.856c-0.918,-1.422 -2.43,-3.019 -2.492,-3.066c-0.164,-0.113 -0.348,-0.219 -0.539,-0.309c-0.192,-0.406 -0.461,-0.781 -0.727,-0.965c-0.711,-0.496 -2.191,-0.711 -5.449,-0.796c-4.164,-0.11 -16.254,0.894 -12.609,8.183c0.011,0.024 0.019,0.043 0.035,0.067l-0.004,0c-0.563,0.589 -1.11,1.32 -1.465,1.961c-0.816,0.511 -2.113,0.171 -2.996,-0.176Zm-47.145,-13.535c-0.086,-0.008 -0.175,-0.02 -0.277,-0.032c-1.812,-0.242 -3.754,-0.367 -5.695,-0.316c-0.746,-0.289 -1.903,-0.16 -2.875,0.215c-1.391,0.172 -2.75,0.457 -4.024,0.875c-0.765,0.25 -1.367,0.379 -1.808,0.41c-0.032,0.117 -0.071,0.242 -0.114,0.375c-0.351,1.062 -0.539,2.258 -0.531,3.262c1.535,-1.157 3.16,-1.957 4.707,-2.141c0.395,-0.047 0.785,-0.102 1.184,-0.164c0.832,0.066 1.957,-0.227 2.836,-0.652c0.015,0.031 0.031,0.062 0.047,0.097c2.199,-0.504 4.418,-1.179 6.55,-1.929Zm1.434,-1.106c-1.356,-1.371 -2.719,-2.883 -3.551,-4.609c-0.328,-0.68 -1.324,-2.457 -2.219,-3.95c-0.183,-0.308 -0.539,-0.734 -0.91,-1.203c-1.004,1.661 -2.293,3.461 -3.886,4.582c-0.051,1.129 -0.676,3.043 -1.477,4.325c1.375,-0.286 2.734,-0.356 4.266,-0.356c1.394,0 6.648,-0.273 7.222,1.242l0,0.004c0.18,-0.019 0.367,-0.031 0.555,-0.035Zm18.75,3.383c1.136,-2.156 0.457,-4.938 -1.055,-7.316c-0.238,-0.372 -0.644,-1.09 -0.976,-1.821c-0.227,-0.078 -0.321,-0.32 -0.364,-0.898c-0.179,-0.535 -0.246,-0.985 -0.082,-1.18c-0.062,-0.23 -0.117,-0.508 -0.164,-0.84c-0.019,-0.148 -0.047,-0.301 -0.082,-0.461c-0.125,-1.64 -0.343,-3.242 -0.535,-4.629c-0.015,-0.113 -0.035,-0.226 -0.051,-0.343c-1.468,-2.637 -2.988,-5.274 -2.785,-8.36c-0.101,-0.14 -0.207,-0.277 -0.316,-0.406c0.176,-0.672 0.301,-1.246 0.367,-1.41c0.387,-1 0.656,-3.02 0.656,-4.922c0,-0.289 -0.008,-0.559 -0.019,-0.805c0.16,-0.457 0.312,-0.886 0.461,-1.289c0.105,-0.523 0.222,-0.812 0.367,-0.957c0.015,-0.043 0.031,-0.086 0.047,-0.129c0.054,-1.527 0.363,-2.265 0.66,-2.203c0.269,-0.539 0.722,-1.121 1.051,-1.305c0.917,-0.515 1.519,-1.171 1.714,-1.855l0,-0.004c-0.058,-0.457 0.067,-1.098 0.446,-1.762c0.711,-1.25 0.894,-3.129 -0.914,-3.3c-0.137,-0.012 -0.274,-0.047 -0.403,-0.102c-0.031,-0.016 -0.066,-0.031 -0.097,-0.043c-0.161,-0.078 -0.309,-0.176 -0.434,-0.285c-0.152,-0.02 -0.312,-0.035 -0.473,-0.047c-1.542,-0.523 -2.972,-0.84 -4.179,0.223c-1.035,0.211 -1.985,0.558 -2.668,1.086c-0.258,0.273 -0.496,0.527 -0.727,0.789c-0.004,0 -0.004,0 -0.004,0.004c-0.656,1.074 -0.738,1.214 -1.234,1.546c-0.418,0.821 -0.832,2.211 -1.129,3.821c-0.062,0.344 -0.133,0.679 -0.203,0.996c-0.383,4.223 -0.383,4.223 -0.801,5.605c-0.172,0.575 -0.558,1.02 -0.902,1.207c1.148,1.45 1.863,3.274 2.094,5.086c0.246,1.934 0.3,4.676 -0.965,6.196c-0.117,1.558 -0.356,2.761 -0.664,3.304c-1.774,3.137 -1.528,5.797 0.179,8.848c0.532,0.945 0.903,1.613 1.141,2.09c0.781,-0.332 1.398,-0.363 1.52,0.316c0.187,1.071 -2.126,2.535 -2.918,2.93c-0.489,0.246 -0.965,0.508 -1.43,0.773c0.168,0.368 -0.098,0.399 -0.488,0.282c-1.36,0.777 -2.692,1.543 -4.286,1.964c-1.683,0.442 -3.382,0.836 -5.046,1.27c0.199,0.277 0.453,0.578 0.839,1.043c2.543,3.031 4.602,7.793 8.137,9.894c0.277,-0.136 0.66,-0.246 1.168,-0.312c2.641,-0.32 4.648,-0.91 6.715,-2.711c0.976,-0.852 1.926,-1.719 3.027,-2.406c0.465,-0.567 1.653,-2.367 2.625,-3.43c-0.078,-0.449 0.93,-1.527 1.395,-1.836c0.82,-0.539 1.402,-1.187 1.785,-1.906Zm-41.477,-11.359c1.207,-0.954 -3.078,1.402 -3.507,1.722c-1.852,1.379 -3.192,2.789 -4.094,4.871c1.5,-0.926 2.726,-2.195 4.023,-3.386c2.649,-2.434 3.063,-2.809 3.578,-3.207Zm17.082,-18.364c-0.875,0.211 -2.543,0.028 -3.32,-0.515c-0.164,0.05 -0.371,0.089 -0.609,0.113c-0.793,0.074 -1.297,0.387 -1.379,0.848c-0.18,1.019 -0.875,0.964 -1.305,0.41c-0.023,0.004 -0.047,0.008 -0.07,0.011c-0.656,0.082 -1.082,0.454 -1.274,1.118c0.008,0.039 0.02,0.082 0.028,0.125c0.082,0.453 -0.184,0.789 -0.692,0.879c-0.472,0.085 -0.871,0.546 -0.937,1.078c-0.063,0.472 -0.196,0.742 -0.363,0.859c0,0.02 0,0.039 0.003,0.063c0.231,0.054 0.403,0.218 0.489,0.531c0.035,0.129 -0.117,0.367 -0.399,0.656c-0.004,0.102 -0.008,0.195 -0.019,0.281c0.051,0.051 0.101,0.11 0.152,0.168c2.004,2.528 4.012,6.371 7.527,6.801c0.125,0.016 0.243,0.031 0.348,0.047c0.82,-0.539 2.383,1.336 2.707,1.937c1.586,2.911 3.024,5.707 4.942,8.434c0.597,0.852 1.171,1.687 1.636,2.375c0.028,-0.012 0.055,-0.02 0.082,-0.031c0.332,-0.137 1.164,-0.758 2.075,-1.356c-0.391,-0.359 -0.825,-1.062 -1.563,-2.355c-1.633,-2.86 -1.828,-5.766 -0.551,-8.707c-0.129,-0.071 -0.238,-0.164 -0.336,-0.274c-0.578,-0.648 -0.578,-0.648 -2.168,-1.781c-0.871,-0.621 -1.382,-1.207 -1.601,-1.844c-0.203,0.121 -0.461,-0.043 -0.789,-0.699c-0.207,-0.41 -0.262,-1.957 -0.129,-3.441c0.066,-0.75 0.164,-1.301 0.273,-1.684c-0.59,-0.297 -1.316,-1.051 -1.89,-1.98c-0.149,-0.235 -0.676,-1.235 -0.868,-2.067Zm14.301,8.383c-1.269,-1.844 -1.269,-1.844 -1.531,-1.894c-0.613,-0.122 0.676,3.148 0.891,3.418c1.925,2.39 1.945,7.019 2.476,9.953c0.391,2.179 0.192,-0.789 0.192,-1.7c0,-3.281 -0.094,-6.972 -2.028,-9.777Zm-5.91,3.539c0.512,-1.23 0.93,-2.82 1.137,-4.367c0.187,-1.375 0.39,-2.152 0.582,-2.461c-0.91,-4.59 -3.52,-10.566 -9.059,-7.152c-0.156,0.097 -0.644,0.453 -1.222,0.816l0.003,0c0.098,0.059 0.192,0.117 0.274,0.176c0.094,-0.094 0.234,-0.149 0.43,-0.149c0.218,0 0.3,0 0.578,0.399c0.164,0.238 0.398,0.617 0.769,1.226c0.246,0.399 2.891,3.434 1.871,3.786c0.16,0.527 0.282,1.281 0.325,2.168c0.011,0.214 -0.024,1.289 -0.176,2.199c0.418,0.281 1.109,0.777 1.801,1.293c0.418,0.308 1.734,1.195 2.687,2.066Z"/><path d="M274.024,59.645c-0.609,-2.789 -2.035,-4.313 -4.59,-5.399c-0.762,-0.445 -1.699,-0.89 -2.5,-1.183c-1.277,-0.465 -2.812,-0.848 -3.41,-0.848c-0.051,0 -0.098,0 -0.145,0.004c-1.269,-1.727 -2.66,-3.317 -4.621,-4.281c-0.847,-0.418 -2.093,-0.766 -2.863,-0.801c-0.207,-0.102 -0.395,-0.192 -0.555,-0.274c-0.144,-0.07 -0.293,-0.14 -0.441,-0.203c-2.086,-3.906 -6.641,-6.75 -10.793,-8.203c-0.07,-0.027 -0.137,-0.055 -0.191,-0.078c-0.204,-0.281 -0.536,-0.523 -0.883,-0.73c-0.18,-0.153 -0.348,-0.239 -0.504,-0.274c-0.266,-0.137 -0.512,-0.262 -0.692,-0.371c-0.132,-0.082 -0.254,-0.156 -0.359,-0.223c1.566,-1.226 1.734,-3.632 1.836,-5.48c0.012,-0.207 0.019,-0.402 0.023,-0.59c0.098,-0.258 0.196,-0.559 0.254,-0.824c0.145,-0.625 0.418,-1.199 0.762,-1.738c1.531,-1.301 3.234,-3.512 3.84,-4.145c0.234,-0.246 0.43,-0.465 0.59,-0.668c0.578,-0.187 1.222,-0.793 1.453,-1.547c0.242,-0.808 0.539,-2.492 0.66,-3.746c0.02,-0.199 0.031,-0.383 0.035,-0.555c0.063,-0.359 0.074,-0.89 0.074,-1.683c0,-2.356 0,-2.356 -1.906,-2.465c-0.305,-0.016 -0.66,0.047 -1,0.164c-1.133,-0.594 -3.246,-0.055 -4.351,0.465c-1.266,0.125 -2.704,0.66 -3.168,1.058c-0.438,0.372 -0.715,0.696 -0.872,0.977c-0.503,0.313 -1.035,0.926 -1.238,1.195c-0.875,1.133 -1.043,1.606 -0.898,3.114c-1.063,-0.922 -5.758,-3.457 -6.242,-3.516c-1,-0.641 -3.454,-0.336 -4.543,0.582c-0.383,-0.414 -0.887,-0.645 -1.512,-0.531c-1.203,-0.711 -3.723,-0.895 -4.203,-0.168c-0.996,-0.379 -2.602,-0.246 -3.004,0.379c-0.094,0.14 -0.168,0.285 -0.223,0.429c-1.133,-0.3 -2.84,0.473 -3.074,1.653c-0.012,0.066 -0.02,0.125 -0.023,0.191c-0.227,0.031 -0.442,0.086 -0.625,0.164c-1.055,0.434 -1.161,1.504 -0.891,2.379c-0.375,0.09 -0.699,0.192 -0.797,0.262c-0.582,0.402 -0.613,1.023 -0.375,1.609c-0.191,0.91 0.176,2.399 0.875,3.055c-1.957,0.144 -4.852,2.344 -6.145,2.988c-3.089,1.535 -4.968,4.692 -7.16,7.024c-0.941,1 -2.09,1.718 -3.34,2.308c-0.48,0.176 -0.871,0.348 -1.027,0.406c-2.347,0.868 -2.347,0.868 -4.473,1.465c-0.425,0.117 -0.769,0.235 -1.031,0.352c-1.902,-0.027 -4.804,0.984 -5.484,1.238c-2.586,0.977 -4.625,1.383 -7.199,0.383c-0.934,-0.363 -2.176,-0.566 -2.762,-0.449c-0.586,0.113 -2.148,-0.02 -3.473,-0.301c-5.215,-1.109 -2.019,6.754 1.063,8.059c1.066,0.449 2.117,1.148 2.332,1.554c1.207,2.254 6.707,1.793 8.816,1.258c0.196,0.164 0.453,0.344 0.789,0.535c0.922,0.531 1.996,1.696 2.633,2.867c1.004,1.832 2.113,2.871 4.168,3.168c0.871,0.125 1.391,-0.218 1.5,-0.664c1.645,-0.836 2.793,-4.031 3.359,-5.406c0.547,-1.32 0.594,-1.434 1.329,-2.773c0.66,-0.567 2.125,-2.477 2.148,-2.496c4.086,-3.965 8.168,-3.403 13.098,-5.575c0.336,-0.152 0.539,-0.308 0.632,-0.457c0.2,0.028 0.415,0.047 0.633,0.055c-0.195,0.379 -0.332,0.691 -0.375,0.766c-0.679,1.242 -1.203,2.468 -1.269,2.949c-0.098,0.035 -0.196,0.074 -0.293,0.113c-0.274,0.109 -0.524,0.227 -0.746,0.344c-0.012,-0.004 -0.024,-0.008 -0.032,-0.012c-0.304,-0.09 -0.546,-0.008 -0.789,0.317c-0.347,0.113 -0.851,0.738 -1.171,1.679c-0.368,1.063 -0.575,2.621 -0.489,3.684c0.008,0.109 0.02,0.211 0.035,0.312c0,0.489 0.067,0.957 0.219,1.375c-1.844,1.992 -3.328,4.336 -4.031,6.375c-0.367,0.258 -0.684,0.547 -0.82,0.668c-3.102,2.711 -2.754,8.559 -2.129,12.196c0.183,1.089 0.961,4.746 2.289,6.046c0.238,0.473 0.742,1.024 1.222,1.309c1.555,0.938 1.555,0.938 3.254,2.023c0.934,0.598 2.461,1.18 3.399,1.297c1,0.129 2.582,0.844 3.859,1.746c0.316,0.223 0.094,2.274 4.348,0.61c0.121,-0.051 0.761,-0.211 1.363,-0.391c0.152,0.086 0.316,0.164 0.488,0.223c2.555,0.914 5.586,0.687 8.493,0.144c1.48,-0.004 2.359,-0.031 2.894,-0.125c0.59,-0.039 1.406,-0.125 2.539,-0.261c2.699,-0.317 4.852,-0.325 6.891,-0.036c0.636,0.09 1.136,0.161 1.558,0.219c2.496,0.465 5.489,0.778 7.266,0.176c4.23,1.266 10.078,1.313 13.918,-1.168c1.488,-0.262 2.98,-0.492 4.48,-0.59c0.758,-0.051 1.493,-0.199 2.192,-0.429c0.449,-0.067 0.719,-0.18 0.926,-0.364c1.394,-0.636 2.636,-1.609 3.679,-2.785c0.625,-0.465 1.153,-1.144 1.586,-1.906c1.391,-0.379 4.121,-2.676 4.824,-4.274c1.309,-0.707 2.809,-2.144 3.266,-2.5c0.277,-0.046 0.52,-0.086 0.715,-0.117l0.008,0.004c0.308,0.16 6.496,1.402 11.605,-0.961c0.02,-0.023 0.043,-0.039 0.067,-0.058c1.699,-0.836 2.937,-2.243 3.168,-4.618c0.011,-0.164 0.019,-0.339 0.023,-0.523c0.863,-4.719 -1.227,-11.305 -3.773,-14.176c-2.489,-2.801 -8.141,-1.683 -11.59,-1.332c-1.211,0.121 -2.903,0.36 -4.223,1.008c-1.234,0.125 -2.766,0.926 -3.496,1.281c-1.227,0.598 -1.301,2.328 -0.941,3.805c-0.211,0.973 0.39,0.949 0.449,2.086c-0.645,0.348 -1.407,1.144 -1.821,1.91l-0.003,0c-0.692,-0.523 -1.657,-0.871 -2.348,-0.734Zm-5.414,3.289c-1.129,-0.528 -2.266,-0.887 -3.356,-1.012c0.328,0.519 0.118,0.578 -0.328,0.699c-0.32,0.086 -0.695,-0.043 -1.097,-0.316c-0.559,-0.145 -1.36,-0.641 -2.192,-1.371c-3.285,-2.879 -6.605,-8.715 -11.152,-9.59c-0.711,-0.137 -1.176,-0.227 -1.508,-0.305c-0.059,-0.933 -0.438,-1.82 -1.012,-2.57c-0.25,-0.656 -0.519,-1.25 -0.734,-1.695c-0.762,-1.579 -1.957,-3.461 -3.527,-4.321c-0.055,-0.031 -0.11,-0.058 -0.165,-0.086c-0.984,-2.183 -3.683,-3.867 -5.41,-5.129c-1.019,-0.746 -2.097,-1.312 -3.187,-1.945c-0.172,-0.102 -0.43,-0.238 -0.727,-0.375c-0.183,-0.152 -0.355,-0.297 -0.519,-0.426c-0.746,-0.437 -1.489,-0.914 -2.153,-1.468c-0.836,-0.442 -1.218,-0.493 -1.695,-1.133c-0.586,-0.547 -1.187,-1.192 -1.664,-1.821c0.121,-0.586 -0.019,-1.293 -0.098,-1.796c-0.05,-0.348 -0.093,-0.692 -0.121,-1.04c0,-0.515 -0.035,-1.039 -0.086,-1.535c-0.023,-0.758 -0.023,-1.519 -0.039,-2.285c-0.039,-1.793 -0.039,-1.793 -0.836,-2.23c-0.757,-0.414 -0.797,-0.434 -1.711,-0.707c-0.156,-0.328 -0.382,-0.868 -0.535,-1.399c-0.082,-0.144 -0.16,-0.285 -0.222,-0.422c-0.907,0.129 -2.457,-0.132 -3.176,-0.683c-0.168,0.043 -0.371,0.074 -0.613,0.086c-0.793,0.039 -1.317,0.328 -1.418,0.785c-0.223,1.008 -0.918,0.926 -1.321,0.355c-0.019,0 -0.047,0.004 -0.07,0.004c-0.656,0.055 -1.098,0.406 -1.32,1.059c0.007,0.043 0.015,0.086 0.019,0.129c0.063,0.457 -0.219,0.781 -0.73,0.847c-0.473,0.063 -0.895,0.508 -0.985,1.036c-0.082,0.468 -0.226,0.734 -0.398,0.843c-0.008,0.246 0,0.512 0.023,0.778c0.028,0.304 0.02,0.554 -0.019,0.754c0.051,0.054 0.101,0.113 0.144,0.175c0.879,1.215 5.965,6.157 6.864,6.707c0.882,1.086 1.179,1.618 2.113,2.325c0.863,0.656 0.863,0.656 1.16,0.855c0.141,0.094 0.297,0.168 0.461,0.223c1.5,3.148 3.812,8.304 5.445,10.863c0.996,1.559 2.824,3.152 3.153,3.25c0.273,0.082 0.609,0.289 1.55,0.953c1.121,0.793 4.497,1.879 4.664,3.371c0.043,0.391 -0.089,0.617 -0.332,0.719c0.043,0.101 0.079,0.184 0.102,0.238c0.832,2.043 1.648,2.559 3.559,3.676c0.175,0.105 0.613,0.516 0.98,0.969c0.453,0.004 0.832,0.265 0.996,0.929c0.051,0.207 0.039,0.411 -0.019,0.606c0.004,0 0.004,0 0.007,0.004c0.508,0.633 0.985,1.25 1.457,1.855c0.278,0.946 0.911,1.875 1.415,2.586c0.554,0.781 1.859,1.996 3.097,2.547c0.496,0.328 1.055,0.59 1.406,0.766c0.852,0.422 0.852,0.422 2.34,1.656c1.371,1.133 3.336,2.262 5.242,2.527c0.524,0.364 1.036,0.754 1.516,1.168c0.535,0.934 1.375,1.895 1.746,2.496c0.313,1.028 0.395,2.145 0.403,3.223c-0.09,-0.148 -0.188,-0.34 -0.29,-0.59c-0.453,-1.086 -1.242,-2.058 -2.207,-2.914l0,0.004c0.067,0.184 0.016,0.602 -0.218,1.328c-0.282,0.871 -0.121,6.082 -1.614,3.242c-0.855,-1.629 1.129,-4.742 1.707,-4.683c-0.984,-0.852 -2.136,-1.586 -3.281,-2.18c-0.027,-0.019 -0.055,-0.035 -0.086,-0.051c-0.101,-0.058 -0.207,-0.109 -0.312,-0.152c-0.5,-0.25 -3.614,0.004 -4.774,0.543c-1.39,0.308 -2.558,1.254 -3.797,2.16c-0.031,0.027 -0.066,0.047 -0.093,0.074c-0.707,0.473 -1.539,1.133 -2.149,1.887c-0.269,0.281 -0.535,0.574 -0.789,0.871c-0.355,0.356 -0.668,0.738 -0.914,1.16c-0.262,0.36 -0.512,0.723 -0.758,1.098c-0.05,0.078 -0.093,0.156 -0.136,0.23c-0.598,-0.07 -1.485,-0.129 -2.313,-0.05c-0.047,-0.012 -0.09,-0.024 -0.137,-0.036c-0.156,-0.003 -0.308,-0.019 -0.461,-0.043c-0.601,-0.097 -0.933,-0.148 -1.285,-0.199c-0.082,-0.004 -0.16,-0.004 -0.238,-0.004c-0.441,0 -0.848,-0.07 -1.156,-0.179c-0.164,-0.02 -0.348,-0.043 -0.551,-0.067l-1.887,-0.238c0.617,-0.066 1.231,-0.141 1.848,-0.215c0.055,-0.187 0.418,-0.359 1.23,-0.43c0.844,-0.078 2.039,0.043 3.063,-0.128c-0.563,-0.086 -1.305,-0.391 -1.914,-0.797c-1.442,-0.961 -0.067,-4.215 0.758,-4.899c0.129,-0.015 0.261,-0.043 0.394,-0.078l0.004,0.004c0.129,0.145 0.168,0.555 0.043,1.336c-0.211,1.309 -0.066,1.801 0.816,2.785c0.629,0.703 0.821,1.156 0.743,1.41c0.32,-0.14 0.601,-0.34 0.812,-0.625c0.402,-0.539 0.84,-1.07 1.309,-1.586c-0.172,-0.113 -0.325,-0.261 -0.446,-0.449c-0.296,-0.461 -0.539,-2.019 -0.535,-3.465c0,-0.258 0.012,-0.504 0.043,-0.734c-2.148,0.594 -2.637,-2.168 -2.418,-3.789c0.039,-0.301 0.715,-2.93 1.02,-1.524c0.273,1.27 -0.18,3.344 1.422,3.739c0.156,0.035 0.297,0.082 0.418,0.132c0.359,-0.523 0.793,-0.222 0.789,1.547c0,1.254 0.258,2.286 0.773,3.09c0.285,-0.508 0.715,-1.035 1.16,-1.336c0.211,-0.14 0.473,-0.316 0.774,-0.508c-1.164,-1.46 0.226,-5.523 0.828,-1.941c0.058,0.348 0.203,0.809 0.316,1.238c1.383,-0.808 3.102,-1.633 4.528,-1.679c-0.586,-0.317 -1.231,-0.684 -1.856,-1.067c-1.098,-0.668 -4.25,-2.105 -4.742,-3.406c-0.031,-0.086 -0.031,-0.086 -1.77,-2.469c-0.699,-0.953 -1.371,-2.035 -1.746,-2.785c-0.265,0.176 -0.558,0.309 -0.828,0.387c0.188,0.469 0.094,0.812 -0.16,1.015c-0.219,-0.187 -0.469,-0.347 -0.719,-0.484c-1.156,-0.613 -2.3,-0.48 -3.394,-0.055c-0.653,0.032 -1.309,0.203 -1.852,0.567l-0.004,0.004c-0.218,0.254 -0.449,0.457 -0.687,0.605c-0.071,0.086 -0.129,0.168 -0.176,0.258c-0.016,0.031 -0.031,0.062 -0.051,0.09c-0.226,0.16 -0.476,0.344 -0.699,0.535c-0.191,-0.055 -0.402,-0.098 -0.645,-0.133c-1.675,-0.246 -3.464,-0.152 -4.621,1.348c-0.117,0.148 -0.273,0.418 -0.41,0.734c-0.082,0.024 -0.164,0.047 -0.254,0.059c-0.367,0.207 -0.722,0.426 -1.062,0.648c0.262,1.102 0.066,1.567 -0.328,1.606c-0.004,0.011 -0.008,0.023 -0.012,0.039c-0.012,0.25 -0.027,0.504 -0.051,0.758c-0.363,4.347 -1.965,10.847 -4.832,14.269c-0.047,0.051 -0.094,0.106 -0.137,0.16c1.016,-0.23 2.5,0.27 3.184,0.27l15.231,-0.86c1.39,0.211 3.156,0.395 4.734,0.516c0.539,0.008 1.039,-0.004 1.437,-0.039c-0.089,-0.176 -0.136,-0.367 -0.132,-0.574c-0.075,-0.141 -0.075,-0.242 0.035,-0.285c0.121,-0.743 0.23,-0.704 2.898,0.16c4.426,1.441 8.52,2.718 12.574,0.199c0.371,-0.227 2.043,-0.992 2.985,-0.856c0.093,0.024 0.183,0.051 0.265,0.067c0.051,0.027 0.102,0.051 0.145,0.086c0.043,-0.012 0.09,-0.016 0.137,-0.024c0.019,0 0.035,0.004 0.046,0.004c3.372,0.313 6.223,-1.437 8.739,-3.5c0.547,-0.449 0.875,-0.785 1.066,-1.109c0.305,-0.238 0.598,-0.465 0.875,-0.672c0.324,-0.242 0.633,-0.535 0.914,-0.863c1.262,-0.801 2.567,-2.254 3.461,-3.887c1.43,-0.547 3.512,-1.461 4.817,-2.625c0.332,-0.062 0.664,-0.074 0.98,-0.008c2.477,0.481 8.152,0.528 10.168,-1.222c0.086,-0.079 0.184,-0.153 0.289,-0.219c0.133,-0.063 0.266,-0.137 0.395,-0.215c0.074,-0.035 0.148,-0.066 0.222,-0.094c0.039,-0.043 0.078,-0.082 0.117,-0.125c0.43,-0.289 0.79,-0.597 0.891,-0.781c1.863,-3.293 1.359,-7.176 -0.242,-10.242c-0.422,-0.809 -0.914,-2.344 -1.16,-2.539c-0.282,-0.598 -0.571,-1.082 -0.723,-1.266c-0.656,-0.808 -1.062,-1.43 -2.027,-1.586c-0.84,-0.484 -1.832,-0.508 -2.746,-0.32c-3.039,-1.086 -12.504,2.219 -12.688,2.328c-0.031,0.141 -0.043,0.602 -0.051,1.062c-0.082,0.258 -0.117,0.504 -0.082,0.684c0.02,0.109 0.047,0.215 0.075,0.324l0,0.008c0,0 0,0.004 0.003,0.004c0.59,2.43 2.364,5.055 3.965,6.867c0.321,0.36 0.883,0.715 1.512,0.965c0.84,0.977 0.602,1.02 -0.5,1.219c-1.223,0.222 -1.574,0.062 -2.727,-1.235c-0.707,-0.793 -1.843,-2.64 -2.57,-4.156c-0.008,0 -0.015,-0.004 -0.023,-0.004c-0.426,1.883 -2.578,4.274 -4.465,5.258c1.199,1.188 1.598,3.449 2.219,4.965c0.511,0.828 0.648,3.016 0.941,3.906c-0.004,0.266 0,0.375 0.031,0.328c0,0.145 0.004,0.282 0.012,0.41c-0.168,0.254 -0.355,0.504 -0.559,0.747c-0.675,0.523 -1.425,0.964 -2.183,1.39c-0.082,-0.222 -0.121,-0.437 -0.067,-0.621c0.278,-0.949 0.528,-2.141 0.664,-3.094c-0.015,-0.144 -0.027,-0.297 -0.035,-0.465c-0.183,-3.753 -3.179,-7.671 -7.437,-9.675Zm-39.125,-7.676c-0.41,-0.301 -0.805,-0.684 -1.09,-1.047c-3.055,-3.937 -8.684,-6.871 -13.746,-6.391c-0.215,0.016 -0.563,0.004 -0.93,-0.046c-0.265,0.082 -0.562,0.179 -0.894,0.281c-0.508,0.16 -0.934,0.297 -1.286,0.402c-0.32,-0.172 -0.691,-0.098 -1.019,0.461c-0.617,1.051 -0.57,2.606 -0.348,3.981c-0.125,0.425 -0.265,0.832 -0.418,1.156c-0.273,0.965 -0.355,0.785 -0.472,1.617c-0.235,0.203 -0.434,0.43 -0.575,0.602c-1.183,1.445 -2.335,3.496 -2.875,5.417c-0.929,0.645 -1.832,2.215 -2.066,2.653c-0.141,0.269 -0.312,0.707 -0.461,1.219c-1.383,3.218 -1.14,6.363 0.152,9.839c0.508,1.364 2.098,2.875 2.192,3.344c0.766,0.313 1.773,0.766 2.609,1.188c1.192,0.597 3.043,1.207 4.114,1.359c0.66,0.09 1.652,0.418 2.699,0.891c0.058,-0.039 0.125,-0.078 0.195,-0.117c1.789,-1.067 2.949,-2.571 3.77,-4.465c0.742,-1.711 0.742,-1.711 1.382,-2.985c0.075,-0.152 0.215,-0.519 0.395,-0.937c-2.445,1.855 -4.988,3.019 -8.344,3.015c2.324,-0.972 4.508,-2.05 6.524,-3.597c0.101,-0.078 0.214,-0.176 0.339,-0.285c-1.746,0.375 -2.793,0.355 -5.039,0.07c-1.929,-0.246 -5.222,-1.559 -1.359,-1.109c1.59,0.183 5.457,0.968 6.797,-0.211c0.16,-0.141 0.687,-0.223 1.336,-0.223c0.789,-0.582 1.64,-1.012 2.371,-0.789c0.039,0.012 0.078,0.023 0.113,0.035c-0.457,0.461 -0.847,1.066 -1.008,1.664c-0.191,0.164 -0.378,0.328 -0.566,0.488c-0.164,0.774 -0.449,1.907 -0.77,3.164c-0.558,2.207 -1.98,6.391 -4.812,6.946c0.887,0.5 1.727,1.078 2.34,1.691c0.137,-0.437 0.57,-0.594 1.058,-0.703c0.067,0.027 0.141,0.051 0.227,0.07c1.793,0.434 3.16,-3.406 3.934,-4.55c1.418,-2.102 1.847,-4.657 2.175,-7.133c0.137,-1.02 0.102,-1.785 -0.183,-2.594c0.043,-0.465 0.058,-0.938 0.058,-1.453c0,-0.149 0.02,-0.391 0.059,-0.668c-0.246,-0.391 -0.445,-0.824 -0.555,-1.266c-1.398,0.481 -8.515,0.387 -4.058,-0.574c4.422,-0.957 5.429,-3.094 6.922,-7.387c0.441,-1.281 0.804,-2.269 1.113,-3.023Zm6.922,16.141c-1.2,-0.731 -2.188,-0.985 -4.278,-1.098c-3.324,-0.18 -2.761,0.351 0.106,1.055c3.488,0.851 4.992,2.156 6.812,5.128c0.539,-2.179 -0.777,-3.945 -2.64,-5.085Zm5.476,0.218c0.004,-0.207 -0.781,-0.898 -1.633,-1.484c-0.171,-0.184 -0.359,-0.371 -0.562,-0.559c-1.672,-1.547 -1.543,-2.25 -1.664,-2.484c0.031,0.144 0.055,0.301 0.074,0.48c0.203,2.075 1.301,3.637 3.109,4.641c0.094,0.051 0.204,0.109 0.317,0.172c-0.051,-0.215 -0.117,-0.418 -0.192,-0.609c0.329,0.089 0.547,0.058 0.551,-0.157Zm6.403,-0.926c0.519,-0.14 0.519,-0.14 -1.262,-2.785l-1.781,-2.644c0.175,1.16 1.328,5.894 3.043,5.429Zm20.906,-9.335c1.558,0.363 3.09,1.097 4.461,2.093c0.199,-0.191 0.422,-0.359 0.644,-0.488c0.239,-0.133 0.492,-0.305 0.754,-0.5c0.02,-0.125 0.028,-0.203 0.016,-0.203c-0.461,-0.055 -0.863,-0.09 -1.219,-0.164c-0.336,0.328 -0.832,0.176 -1.121,-0.59c-0.117,-0.125 -0.227,-0.273 -0.328,-0.453c0.137,-0.035 -0.242,-2.543 -0.125,-2.672c-1.055,-1.461 -1.461,-1.707 -3.063,-2.641c-0.261,-0.152 -0.769,-0.39 -1.39,-0.656c-0.219,-0.066 -0.442,-0.129 -0.664,-0.191c-1.371,-0.387 -3.297,-0.645 -4.078,-0.95c-0.137,0.055 -0.297,0.098 -0.485,0.122c-0.988,-1.512 -2.351,-2.254 -3.726,-3.379c-1.262,-1.028 -2.641,-1.727 -3.852,-1.942c-0.453,-0.082 -0.797,-0.125 -1.047,-0.129c-0.422,-2.175 -3.219,-4.582 -4.648,-5.644c-0.508,-0.375 -1.074,-0.731 -1.496,-0.949c-0.293,-0.235 -0.543,-0.434 -0.707,-0.551c-0.211,-0.102 -4.024,-1.379 -4.231,-1.481c1.836,1.52 4.778,3.813 5.602,6.657c0.113,0.39 1.074,1.605 1.066,1.894c0.188,0.039 0.707,0.32 1.207,0.555c0.363,0.297 0.903,0.539 1.375,0.719c0.195,0.269 0.5,0.414 0.809,0.437c1.172,0.75 1.215,0.777 1.867,1.164c0.105,0.063 0.238,0.137 0.391,0.215c0.351,0.398 0.734,0.848 1.214,1.359c1.094,0.903 1.868,1.524 2.75,2.539c0.414,0.473 2.118,1.524 2.43,2.102c0.434,0.445 0.891,0.941 1.344,1.469c0.445,0.519 0.82,0.953 1.133,1.324c0.898,0.187 1.988,0.453 2.234,0.484c1.895,0.215 1.895,0.215 2.883,0.45Zm-26.621,-1.45c-0.102,-0.066 -0.207,-0.125 -0.321,-0.183c-0.074,-0.035 -0.152,-0.071 -0.23,-0.106c-0.031,-0.019 -0.066,-0.035 -0.098,-0.047c-0.32,-0.129 -0.601,-0.293 -0.84,-0.476c-0.796,-0.5 -1.507,-1.11 -2.019,-1.781c-0.113,1.023 -0.375,2.324 -0.766,3.554c1.27,-0.32 2.567,-0.336 3.535,0.141c0.102,-0.348 0.379,-0.75 0.739,-1.102Zm7.879,-2.793c-0.231,-0.113 -2.59,-1.058 -2.141,-0.004c0.445,1.047 2.695,2.102 3.719,2.434c1.019,0.328 2.238,1.024 2.754,2.027c-0.41,-0.175 -0.95,0.567 -1.078,1.895c-0.157,1.555 0.128,4.34 2.132,4.711c1.457,0.269 0.313,-1.512 -0.054,-2.172c-0.282,-0.5 -0.512,-1.738 -0.512,-2.75c0,-0.41 -0.031,-0.738 -0.09,-0.996c0.547,0.68 1.688,1.754 1.688,0.988c0.004,-3.211 -4.047,-4.992 -6.418,-6.133Zm-5.5,-2.351c-0.387,-1.09 -1.797,-3.555 -1.465,-0.906c0.25,2.003 0.637,4.988 3.191,4.753c1.528,-0.14 1.696,-0.855 0.168,-1.281c-0.957,-0.265 -1.191,-0.582 -1.894,-2.566Zm-22.207,-19.797l0.004,-0.004c-0.332,-0.473 -7.649,-6.156 -7.934,-6.512c-0.195,-0.246 -0.379,-0.488 -0.547,-0.715c-0.035,0.016 -0.078,0.032 -0.121,0.051c-2.496,1.047 -5.199,2.231 -7.098,4.024c-3.691,3.48 -7.574,7.769 -12.465,9.972c-2.347,0.106 -3.91,0.715 -6.015,1.551c-0.746,0.172 -1.567,0.418 -2.231,0.684c-1.902,0.761 -6.695,2.367 -8.687,1.222c-0.66,-0.382 -0.66,-0.382 -2.785,-0.597c-2.121,-0.215 -2.121,-0.215 -3.5,-0.61c-3.297,-0.941 0.019,3.828 1.605,4.27c0.781,0.219 1.805,0.894 2.281,1.496c1.461,1.863 4.254,1.824 6.368,1.578c0.734,-0.086 1.804,0.168 2.328,0.535c0.453,0.059 0.965,0.219 1.433,0.489c1.297,0.73 1.297,0.73 1.332,0.828c0.661,1.687 2.336,3.996 4.188,4.41c0.066,0.015 0.129,0.031 0.191,0.047c0.453,-0.797 1.168,-2.223 1.629,-3.25c0.449,-1.012 1.332,-2.684 2.024,-3.844c-0.114,-0.371 0.062,-1.023 0.476,-1.621c0.363,-0.52 1.824,-1.625 3.242,-2.453c1.5,-0.871 3.094,-1.688 4.789,-2.442c1.18,-0.636 2.407,-1.183 3.676,-1.64c0.34,-0.184 0.543,-0.348 0.899,-0.621c0.023,-0.02 0.05,-0.036 0.086,-0.063c0.265,-0.027 0.488,-0.062 0.621,-0.082c1.707,-0.285 3.687,-0.648 5.488,-1.246c2.141,-0.469 3.965,-1.094 5.695,-2.496c0.239,-0.238 0.52,-0.52 0.864,-0.863c0.082,-0.082 0.218,-0.192 0.398,-0.321c0.137,-0.148 0.273,-0.297 0.41,-0.457c0.332,-0.39 0.856,-0.906 1.356,-1.32Zm14.187,23.269c0.082,-0.214 0.152,-0.429 0.215,-0.632c0.223,-0.766 0.223,-0.766 0.531,-2.254c0.02,-0.11 0.043,-0.219 0.071,-0.321c-0.633,-0.632 -1.192,-1.296 -1.622,-1.953c-0.21,-0.113 -0.375,-0.203 -0.476,-0.265c-1.031,-0.629 -2.055,-1.282 -2.988,-2.051c-0.254,0.832 -0.645,1.621 -1.137,2.336c-0.008,0.012 -0.016,0.023 -0.027,0.035c0.554,0.16 0.203,0.809 -0.344,2.609c-0.738,2.434 -1.348,4.254 -2.961,6.661c-0.371,0.554 -0.527,2.453 -1.016,2.871l0.004,0c0.035,0.015 0.074,0.031 0.109,0.058c0.739,-0.511 1.645,-0.883 2.211,-1.113c0.704,-0.285 2.422,-0.977 3.805,-1.047c0.172,-0.227 0.512,-0.559 0.856,-0.832c1.175,-0.941 2.207,-2.594 2.769,-4.102Zm6.828,-6.546c0.102,-0.008 0.223,-0.024 0.375,-0.043c0.805,-0.114 0.805,-0.114 0.516,-1.434c-0.156,-0.723 -0.254,-1.551 -0.207,-1.84c0.133,-0.89 -1.617,-1.582 -2.184,-1.984c-1.023,-0.731 -1.812,-1.813 -2.051,-3.051c-0.015,-0.023 -0.031,-0.047 -0.05,-0.078c-0.297,-0.16 -0.645,-0.367 -1.071,-0.629c-0.078,-0.047 -0.156,-0.094 -0.23,-0.137c0.219,1.508 0.754,3.211 1.609,4.387c0.098,0.133 0.2,0.297 0.293,0.48c0.176,0.133 0.395,0.293 0.672,0.497c1.324,0.968 1.387,1.058 1.637,2.453c0.211,1.179 0.25,1.398 0.691,1.379Zm-13.465,1.14c0.106,-0.277 0.313,-0.691 0.782,-1.621c0.316,-0.637 0.515,-1.031 0.644,-1.293c-0.133,-0.129 -0.262,-0.262 -0.383,-0.398c-0.398,-0.438 -1.605,-2.332 -2.035,-3.25c-0.945,-0.969 -2.949,-4.5 -3.523,-5.828c-0.297,-0.692 -1.215,-2.512 -2.039,-4.043c-0.043,-0.086 -0.102,-0.18 -0.168,-0.282c-0.059,0.098 -0.133,0.211 -0.223,0.336c-0.051,0.071 -0.105,0.141 -0.156,0.215c-0.793,1.328 -1.727,2.403 -2.793,3.231c-0.969,0.894 -2.043,1.632 -3.207,1.996c-0.117,0.039 -0.297,0.082 -0.516,0.129c-0.152,0.148 -0.328,0.293 -0.511,0.433c-0.797,0.598 -1.688,1.676 -1.981,2.399c-0.133,0.328 -0.269,0.586 -0.426,0.781c0.735,-0.059 1.446,-0.031 1.992,0.055c0.454,0.07 0.883,0.191 1.204,0.332c0.011,0 0.023,0.004 0.039,0.007c0.058,-0.226 0.156,-0.453 0.3,-0.671c1.239,-1.907 1.926,-3.606 4.036,-4.774c1.605,-0.891 1.605,-0.891 2.086,-1.375c0.21,-0.207 1.269,-0.875 1.269,-0.121c-0.004,1.035 -1.113,1.754 -1.898,2.215c-2.125,1.242 -3.848,2.594 -4.782,4.922c1.5,0.34 2.961,0.894 4.141,1.351c2.684,1.024 6.379,2.617 8.148,5.254Zm-13.839,-19.258c0.296,-0.41 0.375,-0.73 0.023,-0.566c-3.141,1.469 -1.895,0.805 -5.453,2.801c-2.777,1.554 -5.348,3.187 -5.692,3.66c-1.101,1.508 0.383,0.32 1.329,-0.188c1.961,-1.046 1.961,-1.046 2.703,-1.418c0.742,-0.371 0.742,-0.371 3.711,-2.046c2.968,-1.68 2.968,-1.68 3.379,-2.243Zm-10.039,1.973c1.691,-0.68 3.23,-1.676 4.781,-2.664c0.625,-1.023 1.972,-2.184 3.074,-2.645c-0.074,-0.125 -0.141,-0.25 -0.195,-0.378c-0.707,0.238 -1.282,0.441 -1.45,0.527c-2.679,1.305 -4.726,2.777 -6.41,5.238l0.2,-0.078Zm27.421,-3.102c-0.91,-0.492 -1.25,-0.734 -2.011,-1.371c-0.547,-0.515 -1.086,-1.039 -1.618,-1.57c-0.011,-0.039 -0.089,-0.16 -0.207,-0.32c0.047,-0.164 0.082,-0.356 0.106,-0.582c0.074,-0.735 -0.117,-2.778 -0.43,-4.539c-0.109,-0.633 -0.265,-1.211 -0.445,-1.684c0.891,-0.441 -0.934,-2.008 -1.582,-2.351c0.004,-0.207 -0.012,-0.446 -0.047,-0.723c-0.004,-0.008 -0.004,-0.02 -0.004,-0.027c0.129,-0.067 0.262,-0.129 0.395,-0.184c0.054,-0.301 0.289,-0.606 0.707,-0.805c0.996,-0.472 2.441,0.11 3.382,0.5c2.192,0.91 6.422,3.184 4.915,6.203c-0.149,0.688 -0.301,1.258 -0.438,1.571c-0.547,1.265 -0.547,1.265 -0.668,1.773c-0.051,0.215 -0.062,0.332 -0.008,0.352l0.008,0c-0.23,0.433 -0.519,0.933 -0.797,1.367c-0.492,0.773 -0.961,1.562 -1.058,1.773c-0.094,0.207 -0.161,0.414 -0.2,0.617Zm7.465,1.34c0.266,-0.691 0.395,-1.531 0.469,-2.371c0.035,-0.242 0.055,-0.476 0.055,-0.707l0,-0.004c0.011,-0.152 0.019,-0.304 0.027,-0.453c0.133,-0.129 0.258,-0.281 0.375,-0.457c0.605,-0.902 1.785,-2.789 2.074,-4.312c0.914,-0.536 1.629,-1.356 2.465,-2.071c1.191,-0.336 2.043,-1.57 1.883,-2.789c1.09,-1.176 1.285,-3.367 0.949,-4.742c-0.289,-1.176 -1.242,-1.18 -1.914,-0.773c-0.395,0.027 -0.727,0.179 -0.988,0.476c-0.004,-0.004 -0.008,-0.008 -0.008,-0.011c-0.149,0.023 -0.305,0.05 -0.481,0.085c-0.171,-0.109 -0.363,-0.191 -0.566,-0.234c-1.187,-0.242 -2.531,0.156 -3.5,0.953c-0.445,0.067 -0.855,0.223 -1.07,0.406c-0.332,0.282 -0.598,0.797 -0.696,1.325c-0.011,0.027 -0.027,0.054 -0.043,0.082c-0.496,0.359 -0.964,1.113 -1.058,1.437c-0.129,0.457 -0.254,1.262 -0.238,2.055c-0.262,1.051 -0.422,2.125 -0.497,3.141c-0.05,0.624 -0.164,1.097 -0.382,1.488c-0.071,0.41 -0.157,0.687 -0.301,1.164c-0.039,0.129 -0.094,0.254 -0.156,0.367c0.019,0.68 -0.313,1.5 -0.594,2.004c-0.352,0.629 -0.352,0.629 -0.918,1.516c-0.621,0.972 -0.77,1.679 -0.34,2.242l0.004,0c0.012,0.011 0.023,0.019 0.035,0.031c0.016,0.426 0.516,0.738 1.031,0.828l0,0.004c0.344,0.734 1.118,1.383 2.118,0.992c0.324,0.051 0.8,-0.074 1.308,-0.394c0.438,-0.278 0.742,-0.727 0.957,-1.278Z"/></svg>