<?xml version="1.0" encoding="UTF-8" standalone="no"?><!DOCTYPE svg PUBLIC "-//W3C//DTD SVG 1.1//EN" "http://www.w3.org/Graphics/SVG/1.1/DTD/svg11.dtd"><svg width="100%" height="100%" viewBox="0 0 720 720" version="1.1" xmlns="http://www.w3.org/2000/svg" xmlns:xlink="http://www.w3.org/1999/xlink" xml:space="preserve" xmlns:serif="http://www.serif.com/" style="fill-rule:evenodd;clip-rule:evenodd;stroke-linecap:round;stroke-linejoin:round;stroke-miterlimit:1.5;"><path id="dp_path022" d="M286.171,258.766c-0.01,-0.272 -0.01,-0.532 -0.01,-0.778c0,-15.062 6.61,-28.206 23.5,-28.594c1.43,-3.076 9.08,-6.269 11.65,-7.273c4.36,-1.7 7.72,-3.857 9.07,-4.555c1.45,-0.742 4.27,-3.882 4.42,-5.952c0.36,-4.981 0.34,-8.596 0.68,-10.426c-0.12,-0.668 -0.33,-1.651 -0.78,-3.823c-0.13,-0.603 -0.26,-1.207 -0.4,-1.808c-0.11,-0.303 -0.21,-0.601 -0.3,-0.897c-1.94,-0.795 -3.91,-3.726 -4.63,-5.11c-1.27,-2.433 -2.08,-8.809 1.02,-10.286c0.25,-0.123 0.72,-0.331 1.23,-0.476c0.04,-0.676 0.11,-1.352 0.21,-2.032c0.71,-4.624 0.71,-4.624 1.35,-7.335c0.82,-3.449 0.53,-6.559 2.4,-9.703c1.67,-2.808 7.22,-4.484 11.26,-5.041c0.73,-0.36 1.51,-0.601 2.23,-0.601c1.23,0 1.23,0 4.47,0.334c0.24,0.024 0.49,0.056 0.74,0.091c4,0.256 11.04,1.991 12.96,5.217c1.88,3.144 1.59,6.254 2.41,9.703c0.64,2.711 0.64,2.711 1.34,7.335c0.11,0.68 0.18,1.356 0.22,2.032c0.5,0.145 0.97,0.353 1.23,0.476c3.1,1.477 2.28,7.853 1.02,10.286c-0.72,1.384 -2.69,4.315 -4.63,5.11c-0.1,0.296 -0.2,0.594 -0.3,0.897c-0.14,0.601 -0.27,1.205 -0.4,1.808c-0.46,2.172 -0.66,3.155 -0.78,3.823c0.33,1.83 0.31,5.445 0.68,10.426c0.15,2.07 2.97,5.21 4.41,5.952c1.36,0.698 4.72,2.855 9.08,4.555c2.57,1.004 10.22,4.197 11.65,7.273c16.88,0.388 23.5,13.532 23.5,28.594c0,0.246 -0.01,0.506 -0.02,0.778c0.54,0.18 1.13,0.771 1.22,0.888c4.41,5.536 9.94,15.932 11.11,22.048c0.87,4.519 0.28,8.654 0.56,9.759c0.45,1.797 0.99,2.564 1.27,4.532c0.6,0.679 1.54,2.499 2.22,3.177c2.71,2.676 4.07,8.395 4.88,12.104c1.24,1.762 2.78,4.654 3.93,6.695c6.21,11.047 3.85,24.248 6.25,36.329c1.7,8.54 1.7,8.54 1.99,11.046c0.15,1.308 0.38,7.072 -0.88,9.004c0.04,0.441 0.08,0.94 0.12,1.504c0.16,2.386 0.66,6.694 1.12,9.576c0.24,1.548 0.41,2.641 0.51,3.425c1.84,7.716 -1.53,16.941 -3.35,24.496c-0.45,1.879 -1.3,4.221 -1.88,5.204c-0.55,0.931 -1.17,1.507 -1.72,1.609c-0.02,0.214 -0.42,0.14 -1.29,-0.02c-2.43,-0.449 -3.09,-3.024 -3.26,-5.153c-0.04,-0.559 -0.02,-1.055 0.07,-1.511c-0.18,-0.509 -0.29,-1.09 -0.36,-1.654c-0.2,-0.315 -0.31,-0.699 -0.38,-1.12l0,-0.003c-1.1,-0.653 -1.16,-2.515 -1.09,-3.711c0.04,-0.69 0.34,-1.354 0.7,-1.801c0,-0.259 0.01,-0.54 0.02,-0.843c-0.35,-0.502 -0.73,-1.578 -0.76,-2.594c-0.45,0.35 -1.01,0.596 -1.65,0.69c-2.49,0.356 -4.36,-0.078 -4.14,-2.81c0.01,-0.084 0.03,-0.238 0.08,-0.435c-0.18,-0.389 -0.18,-1.079 -0.1,-2.44c-0.07,-0.559 -0.16,-1.149 -0.26,-1.744c-0.65,-4.079 -0.7,-4.675 0,-6.684c0.23,-2.071 0.33,-4.055 0.44,-5.992c-0.04,-0.115 -0.08,-0.239 -0.13,-0.372c-0.84,-2.627 -0.89,-5.732 0.64,-8.099c0.14,-0.225 0.41,-0.652 0.69,-1.03c0.44,-1.704 1.05,-3.419 1.94,-5.174c0.04,-0.082 0.1,-0.209 0.17,-0.358c0.04,-0.223 0.08,-0.442 0.12,-0.658c0.05,-0.349 0.15,-1.318 0.32,-2.237c-0.43,-1.004 -1,-2.508 -2.08,-5.352c-2.3,-6.032 -2.3,-6.032 -2.24,-6.261c0.05,-0.188 -0.2,-0.536 -1.36,-1.938c-4.3,-5.182 -12.62,-15.12 -14.39,-21.73c-0.98,-3.679 -1.04,-4.547 -3.16,-7.812c-2.89,-4.448 -3.43,-8.204 -3.59,-13.551c-0.02,-0.525 0.04,-1.067 0.16,-1.572c-4.22,-3.731 -8.11,-12.871 -10.64,-18.864c-1.5,5.563 -3.48,15.029 -7.16,17.355c-0.1,0.588 -1,8.541 -3.04,10.816c0.04,0.453 0.05,1.057 0.05,1.844c0,3.23 1.13,3.23 1.75,8.126c0.25,1.967 0.4,5.422 0.4,6.126c0.1,0.368 0.19,0.74 0.24,1.097c0.59,3.779 0.08,6.191 -0.95,7.491c0.18,0.776 0.23,1.986 0.2,3.288c0.2,0.046 0.35,0.2 0.4,0.516c0.03,0.14 0.01,0.317 -0.06,0.517c0.03,0.08 0.06,0.18 0.08,0.304c0.11,0.577 -0.28,3.023 -0.59,3.288c0.05,0.075 0.11,0.157 0.16,0.245c0.27,0.467 0.58,1.315 0.65,2.087c0.52,0.164 0.57,0.303 0.49,1.009c0.06,0.108 0.11,0.208 0.16,0.298c3.88,7.068 3.7,16.902 2.83,22.868c5.52,18.054 8.4,40.149 6.43,58.861c-0.88,8.317 -3.69,16.52 -3.69,24.883c0,2.381 0,2.381 -0.21,4.576c-0.02,0.246 -0.05,0.466 -0.08,0.662c0.1,0.239 0.2,0.487 0.29,0.744c1.94,5.304 1.61,16.566 0.88,22.072c1.24,3.894 3.21,10.443 3.36,10.899c2.9,9.381 5.68,16.392 5.97,23.284c0.5,11.964 -0.5,22.096 -2.32,33.94c-0.69,4.459 -2.76,15.873 -3.16,18.075c0.09,2.68 0.27,5.377 0.72,6.989c0.75,2.712 2.17,5.932 2.34,7.444c0.11,0.939 0.02,1.66 -0.17,2.155c0.67,0.746 1.22,1.413 1.46,1.649c2.18,2.187 3.81,4.929 5.66,7.393c0.49,0.658 1.34,2.162 2.02,3.596c1.51,-0.192 3.6,1.224 4.61,2.118c1.41,1.256 1.38,4.988 0.53,6.545c-0.35,0.625 -0.76,0.864 -1.12,0.84c-0.28,0.133 -0.58,0.225 -0.91,0.269c-0.79,0.955 -3.06,1.132 -3.95,1.034c-0.22,-0.026 -0.42,-0.06 -0.61,-0.102c-1.17,1.004 -3.52,1.487 -4.49,1.23c-0.77,-0.208 -1.52,-0.915 -2.03,-1.666l0,-0.001c-0.46,0.585 -1.01,1.087 -1.38,1.271c-0.63,0.317 -2.11,0.461 -3.43,0.308c-1.16,0.153 -2.47,-0.111 -3.44,-0.5c-0.17,-0.068 -0.51,-0.29 -0.86,-0.563c-0.46,0.023 -0.94,-0.008 -1.4,-0.111c-0.48,0.175 -1.1,0.347 -1.81,0.498c-3.03,0.642 -5.62,0.672 -8.31,-0.804c-0.44,-0.244 -0.84,-0.794 -1.09,-1.359c-1.61,-1.203 -1.36,-3.845 -1.14,-5.723c0.33,-2.858 0.33,-2.858 1.29,-6.66c0.08,-0.316 0.56,-1.83 1.04,-2.813c0.08,-0.523 0.18,-0.907 0.28,-1.1c-0.87,-1.673 -1.43,-3.068 -1.58,-4.115c-0.16,-1.205 0.18,-2.802 0.48,-4.721c0.04,-0.3 0.42,-3.74 0.47,-4.013c-0.87,-6.148 -0.46,-16.602 -1.61,-22.304c-0.64,-3.162 -2.16,-12.628 -3.14,-14.1c-1.62,-2.46 -6.59,-15.048 -5.82,-18.054c0.13,-0.521 3,-26.124 3.22,-27.548c0.09,-0.596 0.18,-1.053 0.27,-1.39c-0.53,-0.94 -1.02,-1.927 -1.51,-2.923c-1.35,-2.799 -2.41,-5.556 -2.53,-6.544c-0.72,-1.151 -1.67,-8.973 -3.34,-12.951c-4.23,-10.085 -7.04,-19.261 -7.47,-30.236c-0.64,-0.493 -3.73,-11.009 -4.48,-13.652c-0.96,-3.368 -6.04,-22.001 -6.91,-26.28c-0.86,4.279 -5.94,22.912 -6.9,26.28c-0.76,2.643 -3.84,13.159 -4.49,13.652c-0.42,10.975 -3.23,20.151 -7.47,30.236c-1.67,3.978 -2.61,11.8 -3.34,12.951c-0.12,0.988 -1.17,3.745 -2.53,6.544c-0.48,0.996 -0.97,1.983 -1.51,2.923c0.09,0.337 0.18,0.794 0.28,1.39c0.22,1.424 3.09,27.027 3.22,27.548c0.77,3.006 -3.45,16.102 -5.07,18.56c-0.97,1.472 -3.26,10.432 -3.89,13.594c-1.16,5.702 -1.12,14.032 -1.99,20.18c0.05,0.272 0.39,4.874 0.43,5.174c0.29,1.92 1.15,4.007 0.99,5.212c-0.11,0.766 -0.49,1.971 -1.03,3.218c0.25,0.322 0.46,0.71 0.54,1.037c0.76,3.037 1.93,6.235 1.93,9.392c0,0.605 -0.08,1.041 -0.2,1.332c0.08,0.903 0.11,1.792 0.06,2.645c-0.09,1.903 -0.14,2.458 -0.56,2.691c-0.56,2.941 -4.3,2.597 -6.84,2.001c-0.57,-0.009 -1.11,-0.064 -1.6,-0.157c-1.21,1.523 -4.35,1.549 -5.93,1.188c-0.07,-0.016 -0.13,-0.032 -0.19,-0.049c-1.42,2.274 -5.38,1.862 -7.54,-0.235c-0.1,0.103 -0.22,0.187 -0.33,0.247c-1.95,0.978 -7.27,0.76 -8.99,-0.466c-0.17,-0.118 -0.31,-0.253 -0.42,-0.398c-0.89,0.084 -1.75,-0.51 -2.37,-1.232c-0.45,0.324 -1.07,0.216 -1.56,-0.675c-0.86,-1.557 -0.88,-5.289 0.53,-6.545c0.73,-0.651 2.04,-1.579 3.28,-1.96c2.34,-3.975 4.73,-7.91 7.67,-11.472c0.34,-0.41 1.46,-1.848 2.58,-2.62c0,-0.263 0.01,-0.55 0.05,-0.859c0.16,-1.512 1.58,-4.732 2.34,-7.444c0.45,-1.612 0.63,-4.309 0.72,-6.989c-0.4,-2.202 -2.38,-14.326 -3.07,-18.784c-1.82,-11.843 -2.91,-21.267 -2.41,-33.231c0.28,-6.892 3.06,-13.903 5.97,-23.284c0.14,-0.456 2.12,-7.005 3.36,-10.899c-0.74,-5.506 -1.07,-16.768 0.87,-22.072c0.1,-0.257 0.2,-0.505 0.3,-0.744c-0.03,-0.196 -0.06,-0.416 -0.08,-0.662c-0.22,-2.195 -0.22,-2.195 -0.22,-4.576c0,-8.363 -2.81,-16.566 -3.68,-24.883c-1.97,-18.712 0.9,-40.807 6.43,-58.861c-0.83,-5.695 -1.04,-14.914 2.32,-21.887l0,-0.001c-0.11,-0.478 0.42,-1.198 0.8,-1.53l0,-0.002c0.09,-1.17 0.29,-4.692 0.82,-5.383c-0.02,-0.051 -0.03,-0.1 -0.03,-0.148c-0.02,-0.192 0.01,-0.365 0.07,-0.513c-0.03,-0.07 -0.04,-0.136 -0.05,-0.202c-0.04,-0.353 0.04,-0.632 0.21,-0.829c-0.07,-1.536 -0.03,-3.024 0.18,-3.925c-1.03,-1.3 -1.54,-5.988 -0.95,-9.767c0.05,-0.359 0.13,-0.731 0.24,-1.099c0,-0.704 0.14,-1.881 0.4,-3.848c0.61,-4.896 1.75,-4.896 1.75,-8.126c0,-0.787 0.01,-1.391 0.05,-1.844c-2.04,-2.275 -2.64,-10.415 -2.74,-11.003c-4.35,-0.769 -6.7,-12.672 -7.29,-18.821c-1.09,2.577 -3.33,9.47 -4.65,11.994c-1.75,3.343 -3.76,6.396 -6.16,8.523c0.11,0.505 0.18,1.047 0.16,1.572c-0.17,5.347 -0.7,9.103 -3.59,13.551c-2.12,3.265 -2.18,4.133 -3.16,7.812c-1.77,6.61 -10.09,16.548 -14.39,21.73c-1.16,1.402 -1.41,1.75 -1.36,1.938c0.05,0.229 0.05,0.229 -2.24,6.261c-1.09,2.852 -1.66,4.355 -2.08,5.36c0.14,0.179 0.25,0.472 0.32,0.891c0.17,1.053 3.44,11.064 3.48,12.964c0.01,0.944 1.06,7.568 0.64,11.708c-0.28,2.554 -0.65,7.778 -2.38,8.089c-0.56,0.223 -1.26,0.321 -2.72,-0.123c-0.9,-0.273 -1.34,-2.15 -1.86,-2.786c-0.1,0.193 -0.19,0.388 -0.28,0.584c0.52,1.981 0.92,4.464 0.92,5.889c0,0.423 -0.07,8.311 -0.04,8.773c0.07,1.263 0,3.267 -1.29,3.808c0.35,1.148 -0.03,2.363 -0.45,2.71c0,0.222 0.06,0.386 -0.02,1.481c-0.17,2.129 -0.83,4.704 -3.26,5.152c-0.88,0.161 -1.28,0.235 -1.29,0.021c-0.55,-0.102 -1.07,-5.072 -2.03,-4.574c-3.22,1.668 -2.5,-1.728 -2.96,-3.606c-0.06,-0.284 -0.17,-0.557 -0.21,-0.841c-1.97,-13.096 -4.4,-18.767 -3.73,-23.372c0.36,-2.469 1.04,-10.123 1.34,-13.393c0.1,-1.195 0.92,-5.423 1,-6.196c-0.79,-2.484 0.34,-4.788 0.51,-6.252c0.28,-2.506 0.28,-2.506 1.98,-11.046c2.41,-12.081 0.05,-25.282 6.26,-36.329c1.15,-2.041 2.69,-4.933 3.93,-6.695c0.8,-3.709 2.17,-9.428 4.88,-12.104c0.68,-0.678 1.62,-2.498 2.22,-3.177c0.28,-1.968 0.82,-2.735 1.27,-4.532c0.28,-1.105 -0.31,-5.24 0.55,-9.759c1.18,-6.116 6.71,-16.512 11.12,-22.048c0.09,-0.117 0.68,-0.708 1.21,-0.888Zm27.99,96.536c0.5,0.279 7.56,5.963 8.85,6.632c1.97,1.028 9.37,8.015 13.84,13.722c1.7,6.18 1.64,12.797 1.97,19.028c0.29,5.708 0.46,6.929 1.14,8.426c0.42,0.931 0.62,1.367 0.75,1.316c0.11,-0.045 0.17,-0.468 0.28,-1.26c0.95,-6.792 -0.29,-14.293 -1.49,-20.94c-0.39,-2.168 -0.58,-3.237 -0.68,-3.836c0.65,1.008 1.12,1.918 1.36,2.672c0.86,2.7 0.86,2.7 1.37,3.594c0.16,0.277 0.37,0.57 0.63,0.826c0.67,1.867 1.64,3.702 2.6,4.935c0.7,0.907 2.35,2.465 4.08,3.559c-0.2,0.872 -0.33,1.84 -0.33,2.608c0,6.761 -5.66,29.146 -6.69,31.325c-0.6,0.597 -3.37,14.936 -3.4,14.984c-0.08,-3.407 -2.25,-17.995 -2.58,-21.355c-0.47,-4.696 -1.29,-13.646 -1.68,-16.801c-0.29,2.76 -2.32,11.717 -2.62,14.477c-0.82,7.782 3.58,13.488 4.06,21.3c0.84,14.091 1.27,18.658 -5.46,31.374c-1.59,3.004 -5.19,21.232 -5.4,21.888c-1.84,3.501 -4.01,6.826 -4.82,7.393c-1.46,1.028 -1.46,1.028 -3.31,1.495c-2.87,0.726 -0.75,2.292 1.31,1.789c2.71,-0.657 4.56,-2.255 6.02,-4.272c-0.18,1.3 -0.32,2.732 -0.38,3.431c-0.48,5.549 -0.39,7.88 0.6,15.684c0.5,4.026 0.79,6.284 0.94,7.601c-0.18,0.543 -0.32,1.097 -0.38,1.479c-0.56,3.545 -1.69,10.245 -3.73,13.197c-0.19,0.276 -0.71,1.055 -1.22,1.969c-0.56,-0.173 -1.85,4.404 -3.71,12.399c-0.02,0.076 -1.47,20.703 -1.48,20.776c-0.14,0.192 -0.22,0.587 -0.26,1.091c-0.61,2.676 -0.63,3.105 0.05,3.174c0.08,1.214 0.19,2.23 0.21,2.327c0.41,2.931 0.91,5.695 1.23,6.923c-0.1,0.238 -0.19,0.513 -0.25,0.818c-0.46,2.32 -2.55,8.174 -2.81,9.231c-1.15,4.652 0.9,2.892 1.83,-0.249c0.26,-0.908 0.38,-1.576 0.4,-2.035l0.04,-0.015c0.2,-0.076 0.39,-0.197 0.58,-0.354c0.08,1.052 0.31,2.656 0.67,5.09c0.44,2.935 0.71,4.639 0.98,5.603l0,0.004c-0.45,1.251 -1.82,1.772 -3.13,1.823c0,-0.136 -0.01,-0.274 -0.06,-0.408c-0.57,-1.908 -2.87,-1.788 -4.04,-1.206c-0.33,-1.886 -2.32,1.134 -3.92,1.983c-0.01,-0.089 -0.03,-0.181 -0.05,-0.276c-0.42,-2.157 -0.7,-2.164 -2.29,-0.721c-1.87,1.712 -5.03,-0.082 -6.76,-1.459c-1.67,-1.327 -2.23,-0.141 -2.02,1.171c-0.18,0.098 -0.35,0.222 -0.5,0.373c-0.35,0.331 -1.29,0.476 -2.09,0.324c-1.14,-0.219 -1.36,-0.161 -1.17,0.809c-0.28,-0.245 -0.7,-0.49 -1.19,-0.706c-1.55,-0.675 -1.55,-0.675 -1.98,-0.651c-0.15,0.007 -0.23,0.165 -0.24,0.403c-0.19,-0.17 -0.39,-0.331 -0.6,-0.474c-0.54,-0.386 -0.97,-0.665 -1.27,-0.825c-0.52,-2.144 1.49,-2.529 3.28,-3.703c1.28,-0.85 1.64,-1.333 1.37,-1.949c1.54,-1.94 3.42,-4.668 5.13,-6.817c2.02,-2.54 2.52,-3.126 4.6,-5.451c1.28,-1.431 2.26,-2.981 2.18,-3.444c-0.16,-0.868 -0.72,-0.859 -1.44,-0.421c0.34,-1.832 2.27,-5.239 3,-7.32c0.99,-2.827 -0.4,-13.638 -1.47,-16.984c-0.08,-0.58 -0.15,-1.188 -0.24,-1.827c-1.48,-11.5 -3.18,-28.491 -3.18,-40.1c0,-7.296 4.21,-15.757 6.79,-22.523c0.34,-0.897 0.57,-1.802 0.72,-2.698c0.59,1.736 1.46,3.252 2.59,4.86c0.2,1.116 0.47,2.378 0.56,3.148c1.89,15.941 1.34,36.608 0.41,52.586c2.53,-4.501 1.63,-15.877 1.8,-20.825c0.28,-8.567 0.24,-17.728 -0.11,-23.876c-0.26,-4.455 -0.47,-7.123 -0.75,-8.895c1.07,0.731 1.65,0.116 0.5,-2.196c-3.7,-7.452 -4.71,-26.662 -3.06,-35.577c0.63,-0.625 1.14,-2.693 1.06,-9.687c-0.05,-3.63 -1.3,-9.309 -2.53,-14.868c-0.04,-0.468 -0.09,-0.984 -0.14,-1.541c-0.23,-2.5 -0.41,-7.712 -0.41,-11.583c0,-7.04 0,-7.04 0.15,-7.741c0.09,-0.385 -0.02,-0.701 -0.23,-0.701c-0.22,0 -0.5,3.778 -0.62,8.396c-0.07,2.37 -0.08,4.969 -0.03,7.221c-0.51,-2.495 -0.91,-4.777 -1.07,-6.604c-1.42,-16.707 2.32,-29.879 5.62,-46.228c0.14,-0.659 0.26,-1.317 0.36,-1.969c1.07,-2.079 2.36,-8.486 1.83,-12.563c-0.55,-4.248 0.53,-7.615 1.53,-11.303Zm68.58,3.403c3.25,-2.665 5.29,-4.179 5.64,-4.493c1.06,4.13 2.42,7.732 1.81,12.393c-0.53,4.077 0.77,10.484 1.84,12.563c0.1,0.652 0.22,1.31 0.35,1.969c3.3,16.349 7.05,29.521 5.63,46.228c-0.15,1.668 -0.49,3.715 -0.94,5.957c0.37,-4.656 0.12,-9.526 -0.65,-13.756c-0.28,-1.558 -0.56,-2.72 -1.4,-4.021l0.7,6.759c0.54,5.141 0.76,10.145 0.46,15.236c-1.37,6.265 -3,13.096 -3.05,17.246c-0.09,6.994 0.43,9.062 1.06,9.687c1.65,8.915 0.64,28.125 -3.06,35.577c-1.15,2.312 -0.57,2.927 0.5,2.196c-0.29,1.772 -0.5,4.44 -0.75,8.895c-0.36,6.148 -0.4,15.309 -0.11,23.876c0.17,4.948 -0.73,16.324 1.8,20.825c-0.93,-15.978 -1.49,-36.645 0.41,-52.586c0.09,-0.77 0.36,-2.032 0.55,-3.148c1.14,-1.608 2,-3.124 2.6,-4.86c0.15,0.896 0.38,1.801 0.72,2.698c2.58,6.766 6.79,15.227 6.79,22.523c0,11.609 -1.7,28.6 -3.19,40.1c-0.08,0.639 -0.16,1.247 -0.23,1.827c-1.08,3.346 -2.46,14.157 -1.47,16.984c0.73,2.081 2.66,5.488 3,7.32c-0.72,-0.438 -1.28,-0.447 -1.44,0.421c-0.08,0.463 0.9,2.013 2.18,3.444c2.08,2.325 2.57,2.911 4.6,5.451c1.71,2.149 3.59,4.877 5.13,6.817c-0.27,0.616 0.08,1.099 1.37,1.949c1.78,1.174 3.79,1.559 3.28,3.703c-0.3,0.16 -0.73,0.439 -1.28,0.825c-0.06,0.04 -0.12,0.084 -0.18,0.131l0,0.001c-0.16,0.048 -0.31,0.155 -0.41,0.334c-0.02,-0.234 -0.1,-0.388 -0.24,-0.395c-0.44,-0.024 -0.44,-0.024 -1.98,0.651c-0.16,0.072 -0.32,0.146 -0.47,0.226c-0.19,-0.121 -0.43,-0.184 -0.69,-0.202c-0.09,-0.296 -0.44,-0.274 -1.21,-0.127c-0.79,0.152 -1.73,0.007 -2.08,-0.324c-0.16,-0.151 -0.33,-0.275 -0.5,-0.373c0.2,-1.312 -0.35,-2.498 -2.02,-1.171c-1.73,1.377 -4.89,3.171 -6.77,1.459c-1.58,-1.443 -1.86,-1.436 -2.29,0.721c-0.01,0.095 -0.03,0.187 -0.04,0.276c-1.6,-0.849 -3.6,-3.869 -3.93,-1.983c-1.16,-0.582 -3.46,-0.702 -4.04,1.206c-0.04,0.134 -0.06,0.272 -0.06,0.408c-1.3,-0.051 -2.67,-0.572 -3.12,-1.823l0,-0.004c0.26,-0.964 0.54,-2.668 0.98,-5.603c0.36,-2.434 0.58,-4.038 0.67,-5.09c0.18,0.157 0.37,0.278 0.57,0.354l0.05,0.015c0.01,0.459 0.13,1.127 0.4,2.035c0.93,3.141 2.97,4.901 1.83,0.249c-0.26,-1.057 -2.35,-6.911 -2.81,-9.231c-0.06,-0.305 -0.15,-0.58 -0.26,-0.818c0.33,-1.228 0.83,-3.992 1.24,-6.923c0.01,-0.097 0.13,-1.113 0.21,-2.327c0.67,-0.068 0.66,-0.498 0.04,-3.174c-0.04,-0.504 -0.12,-0.899 -0.25,-1.091c-0.01,-0.073 -0.03,-0.147 -0.05,-0.223c-1.87,-7.994 -1.84,-16.176 -2.75,-24.33c-0.04,-0.374 -1.84,-8.795 -2.4,-8.622c-0.51,-0.914 -1.02,-1.693 -1.21,-1.969c-2.04,-2.952 -3.17,-9.652 -3.73,-13.197c-0.07,-0.382 -0.2,-0.936 -0.38,-1.479c0.15,-1.317 0.43,-3.575 0.94,-7.601c0.99,-7.804 1.08,-10.135 0.6,-15.684c-0.06,-0.699 -0.2,-2.131 -0.39,-3.431c1.47,2.017 3.32,3.615 6.02,4.272c2.07,0.503 4.19,-1.063 1.32,-1.789c-1.85,-0.467 -1.85,-0.467 -3.31,-1.495c-0.81,-0.567 -2.98,-3.892 -4.82,-7.393c-0.21,-0.656 -3.82,-18.884 -5.41,-21.888c-6.72,-12.716 -6.3,-17.283 -5.45,-31.374c0.47,-7.812 4.88,-13.518 4.05,-21.3c-0.29,-2.76 -2.32,-11.717 -2.61,-14.477c-0.39,3.155 -1.21,12.105 -1.68,16.801c-0.33,3.36 -2.5,17.948 -2.59,21.355c-0.02,-0.048 -2.79,-14.387 -3.39,-14.984c-1.03,-2.179 -6.69,-24.564 -6.69,-31.325c0,-0.734 -0.12,-1.647 -0.31,-2.488c3.23,-0.923 6.07,-4.48 6.53,-7.887c0.38,-0.915 0.65,-1.872 0.69,-2.728c0.21,-0.513 0.46,-1.101 0.96,-2.271c0.44,-1.03 1.17,-2.15 1.9,-3.205c-0.08,0.5 -0.25,1.487 -0.74,4.221c-1.2,6.647 -2.44,14.148 -1.49,20.94c0.23,1.695 0.23,1.695 1.03,-0.056c0.68,-1.497 0.85,-2.718 1.14,-8.426c0.34,-6.598 0.26,-13.628 2.28,-20.114c1.32,-3.224 6.4,-7.082 6.93,-7.576c3.74,-3.446 7,-6.217 9.52,-8.289Zm24.62,246.756c-0.53,-1.676 -4.76,-1.908 -6,-0.844c-1.55,1.321 0.69,1.311 1.57,1.109c1.23,-0.281 2.81,-0.537 3.22,0.966c0.31,1.158 1.53,-0.223 1.21,-1.231Zm-106.23,-1.4c-1.53,-0.316 -5.19,-0.923 -5.01,1.563c0.09,1.093 0.92,1.509 1.14,0.236c0.24,-1.323 3.45,-0.234 4.44,-0.094c1.93,0.271 0.67,-1.448 -0.57,-1.705Zm93.35,-13.744c-0.7,-0.963 -0.7,-0.963 -0.94,-0.963c-0.25,0 0.45,1.559 2.41,5.882c2.65,5.881 2.65,5.881 2.94,6.521c0.46,1.027 0.33,0.096 0.38,-0.636c0.25,-3.205 -2.97,-8.272 -4.79,-10.804Zm-84.66,-3.783c1.4,-2.602 1.41,-3.089 -0.54,-0.414c-3.26,4.446 -4.21,10.058 -6.23,15.13c2.3,-0.956 2.76,-4.3 3.48,-6.436c1.07,-3.19 2.55,-6.917 3.29,-8.28Zm72.77,-67.858c1.13,4.289 1.99,9.07 1.19,13.484c-0.36,2.029 -0.56,8.484 -0.56,10.532c4.29,-7.754 2.63,-21.164 -0.57,-29.09c-0.45,1.736 -0.53,3.294 -0.06,5.074Zm-62.35,0c-1.13,4.289 -2,9.07 -1.2,13.484c0.37,2.029 0.57,8.484 0.57,10.532c-4.29,-7.754 -2.63,-21.164 0.57,-29.09c0.44,1.736 0.53,3.294 0.06,5.074Zm76.25,-12.43c0.28,2.219 0.28,2.219 1.44,6.295c0.95,3.324 1.11,5.071 0.88,9.453c-0.28,5.378 -0.28,5.378 -0.72,10.166c-0.37,4.01 -0.44,9.344 0.36,9.22c0.59,-0.092 0.92,-5.982 1.29,-9.835c0.72,-7.591 1.64,-16.392 -1.36,-23.723c-0.8,-1.957 -2.43,-5.862 -1.89,-1.576Zm-90.15,0c-0.28,2.219 -0.28,2.219 -1.44,6.295c-0.95,3.324 -1.11,5.071 -0.88,9.453c0.28,5.378 0.28,5.378 0.72,10.166c0.37,4.01 0.44,9.344 -0.36,9.22c-0.6,-0.092 -0.92,-5.982 -1.29,-9.835c-0.72,-7.591 -1.65,-16.392 1.36,-23.723c0.8,-1.957 2.43,-5.862 1.89,-1.576Zm5.46,-33.518c0.58,2.152 2.54,10.258 4.9,9.918c2.02,-0.288 2.84,1.363 0.6,1.775c-2.88,0.533 -5.08,-7.383 -5.85,-9.931c-0.32,-1.069 -0.28,-4.053 0.35,-1.762Zm79.23,0c-0.58,2.152 -2.54,10.258 -4.9,9.918c-2.03,-0.288 -2.84,1.363 -0.6,1.775c2.88,0.533 5.08,-7.383 5.84,-9.931c0.33,-1.069 0.28,-4.053 -0.34,-1.762Zm-12.08,11c0.51,4.45 2.93,11.348 7.18,13.638c2.65,1.431 -0.74,-4.534 -0.91,-4.749c-3.44,-4.48 -5.47,-13.637 -5.47,-19.519c0,-1.386 0.39,-2.917 -0.69,-1.21c-0.52,0.816 -0.54,8.076 -0.11,11.84Zm-55.07,0c-0.51,4.45 -2.93,11.348 -7.18,13.638c-2.66,1.431 0.74,-4.534 0.9,-4.749c3.44,-4.48 5.48,-13.637 5.48,-19.519c0,-1.386 -0.39,-2.917 0.69,-1.21c0.51,0.816 0.54,8.076 0.11,11.84Zm45.13,-25.83c-0.53,-1.516 -1.14,-1.364 -0.95,0.228c0.33,2.796 3.44,6.538 6.48,4.572c1.07,-0.697 1,-2.093 -0.47,-1.262c-2.45,1.384 -4.39,-1.599 -5.06,-3.538Zm10.61,-27.729c-0.45,0 1.28,9.384 1.73,14.048c0.89,9.139 0.08,21.195 -9.15,21.647c-3.15,0.153 2.08,5.898 6.27,4.297c4.09,-1.56 4.48,-5.411 4.75,-10.436c1.36,4.145 4.61,6.047 9.07,2.688c1.42,-1.075 0.97,-2.467 -0.78,-1.865c-2.56,0.881 -5.51,0.508 -6.88,-1.958c-0.65,-1.178 -0.69,-3.254 -1.19,-5.654c-0.01,-0.422 -0.54,-10.816 -1.78,-16.095c-0.87,-3.669 -1.79,-6.672 -2.04,-6.672Zm-50.39,32.537c2.15,-0.246 2.72,-3.924 1.15,-1.806c-0.8,1.076 -1.28,1.326 -2.14,1.114c-1.66,-0.408 -0.51,0.864 0.99,0.692Zm-6.03,-32.537c0.46,0 -1.27,9.384 -1.72,14.048c-0.89,9.139 -0.08,21.195 9.15,21.647c3.14,0.153 -2.09,5.898 -6.27,4.297c-4.09,-1.56 -4.48,-5.411 -4.75,-10.436c-1.37,4.145 -4.61,6.047 -9.07,2.688c-1.43,-1.075 -0.97,-2.467 0.78,-1.865c2.56,0.881 5.51,0.508 6.88,-1.958c0.65,-1.178 0.69,-3.254 1.19,-5.654c0,-0.422 0.53,-10.816 1.78,-16.095c0.87,-3.669 1.78,-6.672 2.03,-6.672Zm9.92,30.86c2.02,-3.677 0.45,-2.655 -1.23,-0.085l-1.85,2.833c1.59,-0.199 2.31,-1.353 3.08,-2.748Zm45.56,-36.573c0.69,1.713 1.43,3.433 1.43,5.297c-1.15,-2.072 -2.33,-4.143 -2.63,-6.543c-0.29,-2.32 -0.29,-2.32 -0.26,-2.304c0.02,0.015 0.02,0.015 1.46,3.55Zm-51.97,-5.296c-1.39,4.037 -1.74,8.532 -5.41,11.09c2,-3.366 3.89,-6.281 4.48,-10.266c0.48,-3.258 2.48,-5.306 0.93,-0.824Zm115.69,-6.224c0.43,0.669 1.02,1.326 1.5,1.704c-0.44,1.933 -0.7,3.172 -0.82,3.972c-0.45,-0.812 -0.95,-2.288 -1.27,-3.72c0.67,-0.178 0.78,-0.288 0.4,-0.904l0,-0.003c0.32,-0.185 0.32,-0.592 0.19,-1.049Zm-181.45,2.409c0.47,-1.337 0.03,-2.971 1.51,-4.025c0.91,-0.65 0.72,-1.74 0.73,-1.643c0.17,1.115 -0.04,2.551 -0.47,3.321c-0.09,0.164 -0.17,0.311 -0.24,0.439c0.02,0.923 0.04,1.855 -0.16,2.531c-0.4,0.757 -0.77,1.182 -1.11,1.394c-0.28,1.688 -0.91,3.672 -1.47,4.666c-0.11,-0.8 -0.38,-2.039 -0.81,-3.972c0.72,-0.572 1.7,-1.787 2.02,-2.711Zm124.07,-27.093c0.18,0.272 0.18,0.272 1.08,4.874c2.12,10.771 2.43,16.772 -1.47,27.095c-0.54,1.431 -4.91,15.623 -2.64,15.26c1.13,-0.181 1.77,-1.137 3.22,-4.817c4.09,-10.427 5.33,-23.686 2.37,-34.57c-0.68,-2.497 -1.22,-5.346 -1.2,-6.329c0.02,-1.709 -1.32,-1.587 -1.36,-1.52l0,0.007Zm-67.21,0c-0.18,0.272 -0.18,0.272 -1.09,4.874c-2.11,10.771 -2.42,16.772 1.48,27.095c0.53,1.431 4.91,15.623 2.64,15.26c-1.13,-0.181 -1.77,-1.137 -3.22,-4.817c-4.1,-10.427 -5.34,-23.686 -2.38,-34.57c0.68,-2.497 1.23,-5.346 1.21,-6.329c-0.03,-1.709 1.32,-1.587 1.36,-1.52l0,0.007Zm52.23,-12.663c-2.38,0.871 -2.1,2.313 -2.1,7.225c0,5.471 3.5,23.658 5.57,28.792c2.41,5.996 5.76,8.279 7.56,14.508c0.52,-1.524 -2.91,-11.562 -3.38,-13.156c-2.87,-9.798 -7.65,-17.22 -7.65,-27.744c0,-3.33 0.01,-6.258 3.21,-7.021c1.18,-0.283 2.23,-2.033 0.39,-2.033c-0.52,0 -2.29,-1.051 -3.6,-0.571Zm-37.25,0c2.38,0.871 2.1,2.313 2.1,7.225c0,5.471 -3.51,23.658 -5.57,28.792c-2.41,5.996 -5.76,8.279 -7.56,14.508c-0.52,-1.524 2.91,-11.562 3.38,-13.156c2.86,-9.798 7.65,-17.22 7.65,-27.744c0,-3.33 -0.02,-6.258 -3.21,-7.021c-1.18,-0.283 -2.23,-2.033 -0.39,-2.033c0.51,0 2.29,-1.051 3.6,-0.571Zm-10.45,-9.111c3.33,1 3.75,8.755 3.72,13.402c0.9,1.249 0.95,2.65 0.98,4.732c0.06,3.926 -0.16,9.154 -1.9,12.469c-1.67,3.168 -1.19,-13.159 -1,-14.267c0,-0.009 1.33,-7.688 -1.12,-12.756c-1.4,-2.901 -2.83,-1.954 -3.25,1.172c-0.28,2.123 -0.28,2.123 -1.22,6.188l-0.94,4.066c0.24,-4.055 -0.17,-9.688 1.14,-13.342c0.33,-0.913 0.75,-2.013 1.64,-2.07c0.49,-0.031 0.49,-0.031 1.95,0.406Zm58.15,0c-3.33,1 -3.75,8.755 -3.72,13.402c-0.9,1.249 -0.95,2.65 -0.98,4.732c-0.06,3.926 0.16,9.154 1.9,12.469c1.67,3.168 1.19,-13.159 1,-14.267c0,-0.009 -1.33,-7.688 1.12,-12.756c1.4,-2.901 2.83,-1.954 3.24,1.172c0.28,2.123 0.28,2.123 1.23,6.188l0.94,4.066c-0.24,-4.055 0.17,-9.688 -1.14,-13.342c-0.33,-0.913 -0.76,-2.013 -1.65,-2.07c-0.48,-0.031 -0.48,-0.031 -1.94,0.406Zm-64.93,-18.676c0.53,0.184 6.44,3.962 7.89,4.951c2.85,1.943 9.41,6.001 11.64,6.957c8.65,3.703 7.48,4.043 16.83,4.304c7.13,0.199 19.29,-5.857 34.83,-15.253c0.4,0.743 0.65,1.688 0.72,2.623c0.09,-0.034 0.18,-0.074 0.26,-0.119c-0.97,1.081 -7.87,5.823 -8.98,6.755c-0.79,0.654 -10.66,9.784 -11.21,10.709c-0.9,1.521 -9.44,13.985 -9.79,15.011c-0.94,2.766 -2.83,6.38 -6.17,5.981c-2.88,-0.345 -5.11,-3.888 -6.9,-5.988c-0.06,-0.076 -8.56,-14.912 -19.89,-23.839c-0.97,-0.766 -9.32,-7.808 -9.71,-8.01c-0.1,-0.076 -0.21,-0.142 -0.33,-0.2c0.32,-0.5 0.57,-3.331 0.81,-3.882Zm-7.2,-78.154c2.36,2.608 5.01,5.42 6.19,6.886c4.6,5.746 8.91,6.894 19.54,6.446c0.38,0.088 1,0.057 1.89,-0.167c1.37,-0.347 4.62,-0.759 7.23,-0.915c2.27,-0.137 4.47,-0.473 5.33,-0.796c-0.02,0.22 -0.01,0.475 0.02,0.764c0.13,1.047 0.35,2.654 0.85,4.023c-0.35,-0.353 -0.71,-0.595 -1.11,-0.771c-1.19,-0.525 -2.59,-0.818 -3.19,0.39c-2.05,-0.238 -5.36,3.204 -6.01,5.74c-1.88,-0.054 -3.71,1.21 -4.73,1.796c-1.55,0.896 -2.26,3.217 -2.38,4.753c-1.09,-1.661 -2.77,-3.972 -3.32,-4.723c0.63,1.84 2.35,6.079 4.26,6.531c0.14,0.033 0.02,-0.259 -0.26,-0.737c0.16,-0.282 0.35,-0.73 0.56,-1.379c1.07,-3.383 3.52,-4.081 6.53,-3.957c2.15,0.088 2.19,0.061 1.66,-1.068c-0.01,-0.031 -0.02,-0.06 -0.04,-0.087c0.89,-0.941 4.88,-12.485 8.85,-0.955c0.26,0.782 0.53,1.356 0.79,1.751c0.1,0.533 0.35,0.804 0.69,0.679c0.36,0.132 0.63,-0.178 0.73,-0.774c0.23,-0.39 0.47,-0.934 0.71,-1.656c3.85,-11.53 7.71,0.014 8.58,0.955c-0.02,0.027 -0.03,0.056 -0.04,0.087c-0.51,1.129 -0.47,1.156 1.61,1.068c2.92,-0.124 5.3,0.574 6.34,3.957c0.1,0.328 0.2,0.607 0.29,0.836c-1.02,0.527 -1.86,1.156 -1.86,1.565c0,0.514 4.99,-0.961 5.23,-2.077c0.15,-0.72 -1.13,-0.475 -2.46,0.084c-0.1,-1.535 -0.78,-3.937 -2.31,-4.853c-0.99,-0.586 -2.76,-1.85 -4.59,-1.796c-0.63,-2.536 -3.84,-5.978 -5.83,-5.74c-0.58,-1.208 -1.94,-0.915 -3.09,-0.39c-0.85,0.386 -1.51,1.082 -2.33,2.571c-0.6,-0.388 -1.12,-1.003 -1.56,-1.72c2.22,-0.969 3.91,-2.847 4.07,-5.379c0.01,-0.136 0.01,-0.256 0.01,-0.361c0.24,0.296 0.48,0.544 0.69,0.725c0.42,0.362 2.63,0.787 4.92,0.944c2.28,0.156 5.13,0.568 6.32,0.915c0.76,0.217 1.29,0.253 1.63,0.173c10.31,0.724 14.91,-0.71 19.51,-6.452c1.18,-1.466 3.83,-4.278 6.18,-6.886c-0.44,4.238 0.19,7.6 1.53,10.242c0.52,1.016 1.04,2.158 1.57,3.388c-0.11,0.343 -2.93,3.368 -3.06,3.906c-0.58,2.396 -1.42,8.297 -2.2,9.664c-0.58,1.005 -5.15,6.16 -4,6.489c0.03,0.008 0.06,0.015 0.09,0.02l0.01,0.001c-0.05,0.36 -0.08,0.792 -0.08,1.306c0,1.881 -0.54,4.31 -1.45,6.548c-0.49,1.206 -3.84,5.225 -1.98,5.462c0.09,1.104 1.57,15.618 2.03,16.172c0.11,2.975 1.31,4.583 -0.94,7.03c-0.38,0.405 -0.78,0.788 -1.21,1.15c-0.88,0.668 -1.86,1.392 -2.83,2.083c-0.72,0.488 -1.39,0.927 -1.91,1.331c-1.04,0.705 -1.95,1.282 -2.55,1.589c-0.2,0.1 -0.38,0.213 -0.55,0.339c-0.85,-1.29 -2.23,3.566 -2.57,4.552c-0.49,1.413 -0.8,2.306 -1.06,2.993c-1.44,0.72 -2.9,1.421 -4.41,2.091c0.09,-0.328 0.2,-0.696 0.32,-1.114c0.39,-1.406 0.59,-2.946 0.58,-3.912c0,0.018 0,0.035 0.01,0.051c0.37,1.568 0.32,0.369 0.45,-0.68c0.22,-1.695 0.22,-1.695 1.97,-6.715c0.96,-2.762 1.7,-5.717 1.64,-6.565c-0.25,-3.365 -1.06,0.548 -1.15,1.824c-0.13,2.135 -1.92,4.953 -2.85,7.411c-0.71,1.865 -0.06,3.617 -0.08,4.442c0,0.003 0,0.006 0,0.008c-0.08,-1.185 -0.57,-1.189 -1.55,1.803c-0.36,1.088 -2.46,3.376 -3.43,5.131c-1.67,0.63 -3.41,1.22 -5.23,1.756c-6.03,1.777 -11.44,1.116 -17.11,-0.163c-1.48,-0.335 -2.92,-0.793 -4.32,-1.343c-0.05,-1.354 -3.09,-3.99 -3.54,-5.381c-1.76,-5.359 -1.94,-1.107 -0.98,2.333c0.09,0.423 0.18,0.783 0.26,1.09c-1.5,-0.775 -3,-1.62 -4.51,-2.492c-0.23,-0.628 -0.51,-1.43 -0.9,-2.568c-0.34,-0.986 -1.72,-5.842 -2.57,-4.552c-0.17,-0.126 -0.36,-0.239 -0.55,-0.339c-0.6,-0.307 -1.51,-0.884 -2.55,-1.589c-0.52,-0.404 -1.19,-0.843 -1.92,-1.331c-0.96,-0.691 -1.94,-1.415 -2.82,-2.083c-0.43,-0.362 -0.84,-0.745 -1.21,-1.15c-2.26,-2.447 -1.05,-4.055 -0.94,-7.03c0.46,-0.554 1.94,-15.068 2.03,-16.172c1.86,-0.237 -1.5,-4.256 -1.99,-5.462c-0.91,-2.238 -1.44,-4.667 -1.44,-6.548c0,-0.514 -0.03,-0.946 -0.08,-1.306l0.01,-0.001c0.03,-0.005 0.06,-0.012 0.09,-0.02c1.15,-0.329 -3.42,-5.484 -4,-6.489c-0.78,-1.367 -0.23,-7.588 -0.81,-9.984c-0.13,-0.538 -3.34,-5.447 -3.45,-5.79c0.53,-1.23 1.05,-2.372 1.57,-3.388c1.34,-2.642 0.96,-3.8 0.52,-8.038Zm8.9,74.582c0.08,-0.053 1.5,1.728 1.49,1.574c0.01,0.009 0.11,0.054 0.27,0.121c1.68,1.853 4.43,3.533 6.08,4.116c0.18,0.063 0.35,0.115 0.5,0.153c0.06,0.387 0.13,0.811 0.22,1.252c-0.65,-0.37 -1.3,-0.738 -1.97,-1.101c-1.46,-0.799 -4.33,-3.171 -7.15,-5.021c0.08,-0.42 0.25,-0.794 0.55,-1.082c0,-0.006 0,-0.01 0.01,-0.012Zm59.96,5.964c0.16,-0.038 0.33,-0.09 0.51,-0.153c1.65,-0.583 4.39,-2.263 6.08,-4.116l0,-0.001c0.16,-0.067 0.26,-0.111 0.27,-0.12c-0.01,0.16 1.5,-1.75 1.49,-1.562c0.38,0.362 0.55,0.858 0.6,1.408c-2.4,1.587 -6.3,4.136 -9.21,5.992c0.11,-0.512 0.2,-1.004 0.26,-1.448Zm-24.39,-18.061c0.85,0.484 0.85,0.484 -0.71,0.941c-1.23,0.363 -2.37,2.307 -0.38,1.815c1.25,-0.308 1.36,-0.62 1.58,0.697c0.28,1.692 -4.75,1.307 -4.94,-0.765c-0.22,-2.344 2.55,-3.773 4.45,-2.688Zm-21.88,15.989c0.23,1.998 0.46,3.924 0.96,5.862c-2.69,-3.728 -3.92,-8.575 -3.88,-13.178c0.02,-2.245 1.16,-4.01 1.16,-6.256c1.12,4.663 1.22,8.799 1.76,13.572Zm36.02,-15.986c0,4.05 -2.74,16.18 -8.2,16.18c-1.75,0 -5.11,1.233 -1.8,1.81c8.83,1.542 13.48,-11.83 11.82,-18.63c-0.88,-3.59 -1.82,-2.216 -1.82,0.64Zm-31.11,0c0,4.05 1.84,14.489 7.04,16.18c1.9,0.617 6.27,1.233 2.96,1.81c-8.83,1.542 -13.48,-11.83 -11.82,-18.63c0.88,-3.59 1.82,-2.216 1.82,0.64Zm35.23,-1.915c-0.37,1.655 -0.93,5.257 -0.93,7.887c0,3.556 -0.17,4.448 0.56,4.568c0.73,0.12 1.17,-1.382 1.75,-5.976c0.43,-3.376 1.1,-6.67 1.5,-7.32c2.33,-3.831 -1.87,-3.738 -2.88,0.841Zm-49.16,-34.804c-1.53,3.419 2.55,8.144 7.15,8.276c0.84,0.024 2.44,-2.305 2.58,-2.04c0.69,2.668 3.02,3.843 3.97,2.776c1.67,-1.861 6.39,-4.076 8.78,-3.221c1.73,0.618 3.51,2.626 5.02,0.876c0.99,-1.147 1.55,-1.422 2.25,-4.607c0.82,1.175 1.32,3.46 2.28,4.607c1.47,1.75 3.2,-0.258 4.88,-0.876c2.33,-0.855 6.32,2.138 8.53,3.221c3.06,1.493 2.78,-1.997 3.87,-2.621c0.14,-0.326 1.7,1.908 2.51,1.885c4.59,-0.132 8.68,-4.857 7.14,-8.276c0.03,-0.068 0.06,-0.133 0.09,-0.193c-0.84,0.54 -1.64,0.974 -2.23,1.258c-4.59,2.21 -2.43,-1.864 0.72,-3.761c1.77,-1.067 3.38,-3.856 4.45,-4.896c1.96,-1.889 2.3,-0.229 2.41,0.961c0.16,1.827 -1.2,3.062 -3.08,4.455c0.37,0.155 0.6,0.696 0.84,1.443c0.56,1.74 0.59,3.272 0.24,4.61c1.97,-1.261 3.95,-2.733 4.51,-3.358c0.94,-1.067 1.11,-1.006 1.5,0.52c0.6,2.385 -1.16,3.772 -3.11,4.725c0.1,0.201 0.23,0.485 0.41,0.868c2.18,4.664 -10.84,14.657 -15.1,11.831c-0.22,-0.148 -0.41,-0.292 -0.56,-0.435c0.25,1.407 0.38,3.007 0.34,3.291c-0.46,3.114 -1.34,6.218 -2.95,8.133c-0.09,0.107 -1.47,1.94 -1.99,2.268c-0.21,1.655 -1.53,2.181 -4.04,0.744c-2.3,-1.312 -6.09,-2.36 -7.82,-0.885c-1.68,1.426 -2.78,1.43 -3.99,-1.808c-1.24,3.238 -2.34,3.234 -4.05,1.808c-1.75,-1.475 -5.6,-0.427 -7.92,0.885c-2.55,1.437 -3.88,0.911 -4.1,-0.744c-0.52,-0.328 -1.92,-2.161 -2.01,-2.268c-1.64,-1.915 -2.52,-5.019 -2.99,-8.133c-0.04,-0.282 0.08,-1.846 0.33,-3.24c-0.14,0.126 -0.31,0.254 -0.5,0.384c-4.26,2.826 -17.29,-7.167 -15.11,-11.831c0.18,-0.383 0.32,-0.667 0.42,-0.868c-1.95,-0.953 -3.71,-2.34 -3.11,-4.725c0.39,-1.526 0.56,-1.587 1.5,-0.52c0.55,0.625 2.53,2.097 4.51,3.358c-0.35,-1.338 -0.32,-2.87 0.24,-4.61c0.23,-0.747 0.47,-1.288 0.84,-1.443c-1.88,-1.393 -2.33,-4.069 -2.16,-5.896c0.1,-1.191 0.6,-0.928 2.56,0.961c1.08,1.04 1.61,3.348 3.38,4.415c3.15,1.897 5.31,5.971 0.72,3.761c-0.59,-0.284 -1.39,-0.718 -2.23,-1.258c0.03,0.06 0.05,0.125 0.08,0.193Zm8.03,32.793c0.37,1.656 2,5.876 2,8.506c0,3.556 0.88,5.84 0.15,5.96c-0.73,0.12 -1.18,-1.382 -1.76,-5.976c-0.42,-3.376 -1.09,-6.67 -1.49,-7.32c-2.34,-3.831 0.09,-5.748 1.1,-1.17Zm-11.15,-25.81c0.62,0.274 1.24,0.513 1.78,0.732c0.22,0.09 0.43,0.172 0.63,0.244c2.79,2.325 6.97,3.429 9.92,3.586c0.56,0.031 0.93,0.02 1.16,-0.044c1.77,3.016 5.43,0.155 7.33,-1.444c2.23,-1.876 7.45,-1.61 9.8,0.254c1.03,0.813 1.78,0.617 2.3,-0.13c0.5,0.747 1.23,0.943 2.23,0.13c2.29,-1.864 7.36,-2.13 9.53,-0.254c1.84,1.595 5.39,4.448 7.11,1.463l0,-0.003c0.24,0.048 0.58,0.055 1.08,0.028c2.95,-0.157 7.14,-1.261 9.93,-3.586c0.19,-0.072 0.4,-0.154 0.63,-0.244c0.54,-0.219 1.16,-0.458 1.78,-0.732c-0.26,0.389 0.95,1.75 -0.77,3.917c-2.35,2.945 -7.04,5.317 -8.32,4.847c-1.27,-0.462 -2.83,-0.123 -3.37,0.616c-0.13,-0.354 -0.29,-0.574 -0.45,-0.574c-0.4,0 -0.36,2.552 -1.61,5.068c-1.24,2.47 -1.75,3.411 -2.64,5.668c-3.02,2.546 -6.32,2.536 -9.74,1.372c-0.04,0.022 -0.08,0.044 -0.11,0.066c-0.77,0.485 -3.43,1.188 -4.98,-3.148c0.01,-0.16 0.01,-0.319 0.01,-0.475c-0.34,0.06 -0.68,0.105 -1.02,0.135c0,0.1 0,0.201 0.01,0.305c-1.57,4.375 -4.28,3.669 -5.06,3.183c-0.45,-0.282 -6.35,0.774 -6.63,1.062c-0.55,0.546 -2.47,-1.862 -3.04,-1.701c-1.1,-3.044 -1.59,-3.733 -2.98,-6.467c-1.28,-2.516 -1.23,-5.068 -1.64,-5.068c-0.16,0 -0.31,0.206 -0.44,0.539c-0.56,-0.715 -2.09,-1.036 -3.34,-0.581c-1.29,0.47 -5.97,-1.902 -8.32,-4.847c-1.73,-2.167 -0.52,-3.528 -0.77,-3.917Zm-52.76,21.612c-0.65,2.196 -1.12,5.878 -3.32,7.065c1.12,-2.868 2.05,-5.773 2.83,-8.755c0.67,-2.518 1.46,-4.578 1.77,-4.578c0.57,0 0.34,0.757 -1.28,6.268Zm170,-5.03c0.35,0.812 1.01,3.298 1.47,5.522c0.64,3.088 1.38,4.92 3.13,7.748c0.83,1.33 3.6,4.792 0.97,2.594c-1.81,-1.518 -3.33,-3.484 -4.05,-5.76c-0.46,-1.454 -0.46,-1.454 -1.67,-6.517c-0.26,-1.1 -1.57,-7.669 0.15,-3.587Zm-61.27,-1.632c-0.76,0.515 -2.05,4.454 -2.87,5.967c-1.61,2.971 -0.21,4.697 1.55,1.392c0.69,-1.303 1.79,-5.001 2.44,-5.436c2.6,-1.752 1.5,-3.684 -1.12,-1.923Zm-46.74,0c0.76,0.515 2.06,4.454 2.88,5.967c1.6,2.971 0.2,4.697 -1.55,1.392c-0.69,-1.303 -1.79,-5.001 -2.44,-5.436c-2.61,-1.752 -1.5,-3.684 1.11,-1.923Zm-47.04,-0.09c-2.63,1.417 -4.78,3.748 -6.06,6.461c-1.59,3.391 -0.73,-1.571 0.25,-3.063c1.25,-1.893 4.85,-4.852 7.29,-4.852l1.23,0l-2.71,1.454Zm144.1,-0.459c4.12,3.516 7.35,8.189 6.7,13.833c-1.49,-5.9 -3.36,-10.418 -8.56,-13.853c-3.61,-2.388 0.36,-1.256 1.86,0.02Zm-73.2,-6.859c0.02,0.15 0.04,0.29 0.06,0.42c0.21,-1.185 1.06,-3.244 1.98,-4.002c0.52,-0.427 3.62,-0.043 1.92,0.517c-0.51,0.168 -1.57,1.369 -2.36,2.669c-0.81,1.318 -1.27,1.758 -1.47,1.678c0.05,2.91 -3.03,-3.423 -2.93,-4.387c0.09,-0.835 2.68,2.381 2.8,3.105Zm-0.95,-21.8c0.04,0.024 0.08,0.05 0.12,0.071c0.26,0.148 0.73,0.265 1.18,0.309c-0.16,0.318 -0.33,0.662 -0.51,1.038c-0.01,0.024 -0.02,0.048 -0.03,0.073c-0.01,-0.025 -0.02,-0.048 -0.03,-0.073c-0.26,-0.532 -0.5,-1.002 -0.73,-1.418Zm28.59,-3.56c0.53,3.295 0.01,5.983 -2.67,6.77c-2.6,0.764 -3.68,-1.868 -3.11,-2.19c1.4,-0.788 5.42,-3.209 4.75,-5.41c-0.48,-1.59 0.87,-0.219 1.03,0.83Zm-51.2,1.935c2.22,1.708 0.23,1.625 0.93,4.513c-3.52,-1.752 -3.78,-3.078 -4.84,-7.226l-0.24,-0.946c1.32,1.324 2.67,2.516 4.15,3.659Zm78.24,-20.775c0.02,0.143 0.04,0.439 0.06,0.847c-0.02,-0.008 -0.04,-0.015 -0.05,-0.02c-1.57,-0.577 -3.03,-1.405 -4.73,-1.057c-0.35,0.072 -2.24,0.674 -1.59,0.985c0.18,0.087 0.96,0.217 1.72,0.288c1.55,0.145 3.28,0.124 4.68,0.76c0.09,2.777 0.21,7.732 0.93,8.788c5.25,6.408 6.28,16.499 12.81,22.803c-0.25,1.894 -0.45,5.626 -0.45,8.629c0,5.415 1.47,5.951 2.52,6.081c1.06,0.134 -0.6,-3.756 -0.6,-8.325c0,-2.697 1.19,-7.017 0.51,-9.272c-3.43,-11.444 -5.57,-14.425 -5.66,-13.261c-0.11,1.252 1.04,2.389 1.42,3.781c0.68,2.525 0.83,5.215 0.63,6.139c-0.24,-0.388 -3.22,-3.968 -3.48,-4.31l-5.99,-13.21c-0.2,-0.371 -1.18,-4.431 -1.95,-7.452c0.03,0.021 0.07,0.045 0.1,0.069c0.5,0.368 2.87,3.265 2.76,2.777c-0.19,-0.925 -1.17,-2.252 -2.16,-3.182c3.3,-1.622 5.57,-5.179 5.82,-8.939c0.1,-1.612 -0.25,-2.955 -0.9,-4.389l-0.48,3.61c-0.57,4.274 -2.03,6.57 -4.73,9.459c-0.23,-0.205 -0.47,-0.383 -0.69,-0.52l0,-0.003c-0.53,-2.052 -0.85,-3.125 -0.5,-1.076Zm-50.14,5.519c0.91,3.311 5.18,6.461 8.46,6.061c1.2,-0.146 9.11,-0.229 4.9,0.691c-5.24,1.144 -12.28,0.563 -13.86,-5.725c-0.18,-0.758 0.14,-2.387 0.5,-1.027Zm19.6,1.327c-1.99,1.128 -1.83,3.556 0.71,3.148c3.4,-0.543 2.96,-5.231 -0.71,-3.148Zm-29.87,1.682c-2.86,2.203 -5.63,3.743 -9.34,3.743c-2.97,0 -3.62,-0.851 -0.27,-1.019c3.25,-0.165 5.66,-1.657 8.17,-3.606c1.4,-1.094 2.45,-1.599 4.12,-1.188l-2.68,2.07Zm-19.38,-1.682c1.98,1.128 1.83,3.556 -0.71,3.148c-3.4,-0.543 -2.96,-5.231 0.71,-3.148Zm-15.6,-10.128c-0.25,-0.639 -0.75,-1.579 -1.22,-2.51c0.52,-0.722 1.06,-7.494 1.34,-8.269c1.09,-2.924 -1.97,3.853 -3.01,5.709c-2.26,4.016 -6.78,5.252 -10.86,6.575l1.99,0.569c1.52,0.438 3.14,0.312 4.68,-0.202c0.22,0.512 0.85,1.36 1.7,2.386c-0.45,2.514 -0.74,5.8 -0.66,6.472c0.71,6.66 -5,15.342 -7.53,21.256c-3.47,8.122 -7.24,10.523 -12.66,16.762c-3.18,3.654 1.94,1.493 3.37,-0.268c1.94,-2.379 1.98,-2.434 3.16,-3.126c-0.18,5.983 -2,9.423 -5.39,14.446c-1.19,1.766 -1.64,2.357 -2.22,5.496c-1.29,6.886 -4.94,11.529 -10.26,16.146c-3.94,3.412 -8.44,17.53 -10.2,22.311c-1.26,3.424 -1.53,4.812 -1.11,5.664c1.06,2.131 2.46,-1.911 3.75,0.255c1.35,2.282 1.89,4.09 1.66,6.824c-0.15,1.694 0.02,4.318 0.39,5.83c0.53,2.186 1.22,1.9 1.25,4.827c0.05,5.789 -2.62,7.329 -3.08,4.919c-0.3,-1.591 -1.14,-3.358 -1.82,-4.755c-0.1,-1.256 -0.49,-3.145 -0.73,-3.741c0.08,-0.752 -0.73,-2.467 -0.77,-2.926c-0.66,3.063 -2.16,5.088 -2.57,5.966c-0.21,0.446 -1.58,2.446 -1.58,4.029c0,2.82 -0.6,5.56 -0.32,9.545c0.25,3.568 1.42,9.67 -0.1,12.959c0.08,0.051 -1.86,0.864 -2.01,0.319c-1.7,-6.231 -2,-15.476 -3.31,-20.055c-1.23,-4.305 -0.53,-3.335 0.5,-9.04c0.63,-3.444 1.34,-9.955 1.34,-11.555c0,-1.885 1,-2.813 0.52,-3.105c-0.05,-0.705 -0.12,-1.589 -0.22,-2.695c-0.52,-6.002 0.87,-11.224 2.4,-16.968c0.84,-3.181 1.12,-5.414 0.88,-7.117c-0.89,-6.284 1.14,-12.64 2.74,-18.705c0.45,-1.723 1.95,-4.964 3.32,-7.204c1.38,-2.24 2.66,-5.058 2.86,-6.262c0.61,-3.641 1.36,-8.482 3.75,-11.22c1.35,-1.534 2.38,-3.614 3.21,-4.969c0.27,-1.527 4.92,-17.373 12.04,-25.647c-3.81,1.254 -7.02,5.755 -9.6,13.104c0.66,-10.333 5.69,-15.265 8.69,-20.765c0.28,-0.528 0.66,-1.027 0.96,-1.509c0.51,4.308 1.55,9.042 2.07,9.042c0.7,0 0.14,-4.57 0.14,-9.818c0,-9.26 1.62,-14.999 6.7,-22.802c3.24,-4.965 7.44,-5.822 10.98,-5.925c0.61,-0.019 4.93,-0.092 5.2,-0.119c0,0 0.21,-0.318 0.43,-0.64c3.54,-2.148 6.38,-0.904 9.01,-0.293c0.82,0.191 0.74,0.071 -0.13,-1.189c-0.87,-1.254 -2.9,-1.774 -4.92,-1.638c1.33,-0.964 3.08,-1.91 4.12,-2.209c0.82,-0.232 1.24,-0.445 1.39,-0.627c2.02,-0.649 11.94,-5.781 12.38,-6.408c0.01,-0.014 0.02,-0.028 0.03,-0.042c0.55,-0.483 1.07,-0.998 1.49,-1.512c0,0.001 0,0.004 0,0.006c0.41,3.47 -0.38,6.427 -0.08,6.492c0.56,0.12 3.32,-6.138 2.88,-13.777c-0.16,-2.804 0.23,-2.941 0,-4.639c1.03,1.226 1.16,1.106 2.07,2.028c2,2.032 4.78,1.568 7.67,1.919c0.5,0.061 6.55,0.061 7.05,0c2.88,-0.351 5.66,0.113 7.66,-1.919c0.91,-0.922 1.36,-0.802 2.39,-2.028c-0.23,1.698 0.16,1.691 0,4.495c-0.44,7.639 2.01,14.041 2.56,13.921c0.09,-0.018 0.09,-0.264 0.05,-0.686c0.16,0.336 0.39,0.73 0.69,1.185c0.93,1.415 1.59,3.004 2.15,4.625c-1.09,-0.01 -2.12,0.074 -2.89,0.328c-3.53,1.167 -4.38,1.256 -5.63,1.54c-1.29,0.292 -2.94,0.411 -3.9,0.798c0.13,-0.698 0.31,-1.528 0.5,-2.399c0.36,-1.527 5.64,-16.176 2.16,-10.955c-0.66,0.99 -3.01,8.268 -3.47,10.755c-0.29,1.559 -0.46,2.571 -0.52,3.24c-0.66,0.38 -1.24,0.837 -1.76,1.407c0.35,-2.472 -0.89,-5.482 -1.34,-1.62c-0.21,1.873 -0.19,3.456 -1.21,3.74c-0.22,0.061 -0.41,0.126 -0.57,0.196c-0.17,-0.07 -0.37,-0.135 -0.61,-0.196c-1.09,-0.284 -1.07,-1.867 -1.3,-3.74c-0.48,-3.862 -1.82,-0.852 -1.44,1.62c-0.56,-0.57 -1.19,-1.027 -1.89,-1.407c-0.07,-0.669 -0.25,-1.681 -0.56,-3.24c-0.49,-2.487 -3.13,-11.205 -3.84,-12.195c-3.74,-5.221 2.04,10.868 2.42,12.395c0.22,0.871 0.41,1.701 0.55,2.399c-1.04,-0.387 -2.82,-0.506 -4.2,-0.798c-1.34,-0.284 -2.26,-0.373 -6.06,-1.54c-3.01,-0.924 -9.59,0.39 -10.15,0.39c-0.32,0 -0.4,0.402 -0.2,0.897c0.18,0.435 5.83,1.368 7.54,1.203c3.08,-0.295 7.09,1.509 9.88,2.489c5.57,1.137 6.07,4.116 8.2,7.229c1.93,2.547 1.45,0.018 0.87,-1.606c-0.38,-1.078 -0.77,-1.996 -1.19,-2.786c0.72,0.274 1.46,0.283 1.98,0.146c0.49,0.137 1.18,0.128 1.85,-0.146c-0.4,0.79 -0.76,1.708 -1.11,2.786c-0.54,1.624 -0.98,4.153 0.81,1.606c1.98,-3.113 2.45,-6.092 7.62,-7.229c2.59,-0.98 6.32,-2.784 9.18,-2.489c0.3,0.029 0.71,0.024 1.2,-0.01c0.05,0.178 0.11,0.358 0.17,0.536c-0.02,-0.184 -0.04,-0.365 -0.07,-0.545c2.17,-0.165 5.58,-0.836 5.71,-1.184c0.19,-0.495 0.11,-0.897 -0.18,-0.897c-0.36,0 -3.27,-0.602 -5.99,-0.703c-0.31,-1.5 -0.72,-2.969 -1.32,-4.429c-0.8,-1.923 -1.79,-2.887 -2.22,-2.854c-0.1,-1.161 -0.18,-2.698 0.02,-4.348c0,-0.002 0,-0.005 0,-0.006c0.41,0.514 0.94,1.029 1.49,1.512c0.01,0.014 0.02,0.028 0.03,0.042c0.44,0.627 10.36,5.759 12.37,6.408c0.16,0.182 0.58,0.395 1.39,0.627c1.04,0.299 2.8,1.245 4.13,2.209c-2.02,-0.136 -4.05,0.384 -4.92,1.638c-0.87,1.26 -0.95,1.38 -0.14,1.189c2.64,-0.611 5.47,-1.855 9.02,0.293c0.22,0.322 0.43,0.64 0.43,0.64c0.26,0.027 4.59,0.1 5.2,0.119c3.53,0.103 7.74,0.96 10.97,5.925c5.09,7.803 6.7,13.542 6.7,22.802c0,5.248 -0.55,9.818 0.15,9.818c0.52,0 1.56,-4.734 2.07,-9.042c0.29,0.482 0.67,0.981 0.96,1.509c3,5.5 8.03,10.432 8.69,20.765c-2.58,-7.349 -5.79,-11.85 -9.6,-13.104c7.12,8.274 11.77,24.12 12.04,25.647c0.82,1.355 1.86,3.435 3.2,4.969c2.4,2.738 3.15,7.579 3.75,11.22c0.2,1.204 1.49,4.022 2.87,6.262c1.37,2.24 2.87,5.481 3.32,7.204c1.59,6.065 3.63,12.421 2.74,18.705c-0.24,1.703 0.04,3.936 0.88,7.117c1.52,5.744 2.92,10.966 2.4,16.968c-0.1,1.106 -0.17,1.99 -0.22,2.695c-0.49,0.292 -0.68,1.196 -0.68,3.084c0,1.599 0.51,5.727 1.13,9.169c1.04,5.707 0.88,10.307 -0.56,15.886c-1.19,4.609 -1.19,4.609 -2.9,12.145c-0.05,0.241 -0.11,0.477 -0.16,0.704c-1.52,-3.289 -1.45,-6.489 -1.2,-10.059c0.29,-3.985 0.29,-3.985 0.29,-6.804c0,-1.582 -0.13,-2.272 -0.33,-2.392c0.68,-0.816 -0.79,-4.212 -1,-4.657c-0.41,-0.879 -3.31,-10.655 -3.73,-6.116c-0.04,0.459 -0.02,1.108 0.05,1.861c-0.24,0.596 -0.44,1.528 -0.54,2.783c-0.24,2.943 -0.66,4.429 -1.64,5.721c-0.14,0.186 -0.29,0.39 -0.45,0.6c-0.15,-0.47 -0.39,-0.962 -0.66,-1.416c-0.02,-0.542 -0.08,-1.102 -0.18,-1.549c-0.62,-2.86 -0.65,-4.161 -0.12,-6.347c0.36,-1.512 0.54,-4.136 0.39,-5.83c-0.24,-2.734 0.3,-4.542 1.66,-6.824c1.19,-2.016 1.12,-2.978 0.38,-2.786c0.21,-0.392 0.39,-0.785 0.51,-1.154c0.86,2.092 1.98,5.454 2.86,3.685c0.42,-0.852 0.15,-2.24 -1.11,-5.664c-1.76,-4.781 -6.27,-18.899 -10.2,-22.311c-5.33,-4.617 -8.97,-9.26 -10.26,-16.146c-0.59,-3.139 -1.03,-3.73 -2.22,-5.496c-3.39,-5.023 -5.21,-8.463 -5.39,-14.446c1.18,0.692 1.22,0.747 3.16,3.126c1.43,1.761 6.55,3.922 3.37,0.268c-5.42,-6.239 -9.19,-8.64 -12.66,-16.762c-2.53,-5.914 -8.24,-14.596 -7.53,-21.256c0.07,-0.672 -0.22,-3.958 -0.66,-6.472c0.85,-1.028 1.47,-1.874 1.7,-2.386c1.54,0.514 3.16,0.64 4.68,0.202l1.99,-0.569c-4.08,-1.323 -8.6,-2.559 -10.86,-6.575c-0.49,-0.87 -1.1,-2.469 -1.5,-3.626c0,-0.227 -0.02,-0.398 -0.05,-0.498c-0.58,-1.554 -0.4,-0.814 0.05,0.498c0.02,1.534 -0.63,5.557 -0.18,6.186c-0.46,0.931 -0.96,1.871 -1.21,2.51c-0.25,0.625 -7.09,12.346 -11.58,14.582c-2.04,1.018 -6.13,2.831 -10.34,3.315l-4.73,-0.288c-4.46,-0.915 -9.18,1.464 -10.92,-5.449c-0.33,-1.308 -0.89,-0.767 -0.99,0.405c-0.13,1.392 0.78,3.327 1.74,4.675c-0.32,0.318 -0.72,1.176 -0.89,1.665c-0.36,1.044 -1.04,2.147 -1.51,2.449c-0.32,0.212 -1.12,0.928 -1.64,1.519c-0.62,-1.247 -1,-2.677 -1.06,-3.776c-0.03,-0.579 -0.15,-0.977 -0.31,-1.204c1.18,-1.531 2.41,-4.816 2.23,-6.48c-0.12,-1.173 -0.76,-1.712 -1.14,-0.407c-2,6.975 -8.53,5.63 -13.64,6.603c-4.17,-0.493 -12.46,-1.993 -14.54,-3.027c-4.49,-2.236 -10.88,-13.957 -11.13,-14.582Zm-15.17,3.312c-0.64,-1.988 -1.13,-3.863 -0.03,-5.908c0.22,-0.394 3.45,-3.942 3.45,-3.5c0,0.265 0,0.265 -0.87,1.789c-1.03,1.789 -2.05,3.499 -2.05,5.633l0,2.676c1.46,-0.566 2.85,-1.278 4.45,-0.95c0.35,0.072 2.23,0.674 1.59,0.985c-0.19,0.087 -0.96,0.217 -1.72,0.288c-1.56,0.145 -3.28,0.124 -4.68,0.76c-0.09,2.777 -0.21,7.732 -0.93,8.788c-5.25,6.408 -6.28,16.499 -12.81,22.803c0.25,1.894 0.44,5.626 0.44,8.629c0,5.415 -1.46,5.951 -2.51,6.081c-1.06,0.134 0.6,-3.756 0.6,-8.325c0,-2.697 -1.19,-7.017 -0.52,-9.272c3.43,-11.444 5.58,-14.425 5.67,-13.261c0.1,1.252 -1.05,2.389 -1.42,3.781c-0.68,2.525 -0.84,5.215 -0.63,6.139c0.23,-0.388 3.22,-3.968 3.47,-4.31l6,-13.21c0.19,-0.371 1.18,-4.431 1.95,-7.452c-0.04,0.021 -0.07,0.045 -0.1,0.069c-0.15,0.111 -0.47,0.453 -0.84,0.863c0.27,0.573 0.02,0.637 -0.38,0.42c-0.78,0.865 -1.61,1.785 -1.55,1.494c0.12,-0.542 0.5,-1.22 0.99,-1.877c-0.41,-0.352 -0.84,-0.847 -1.03,-1.323c-1.71,-4.264 -2.69,-8.25 -2.42,-12.876c0.1,-1.82 1.17,-7.213 0.57,-2.59c-0.65,4.92 0.48,11.924 3.37,16.03c0.02,0.03 0.05,0.06 0.07,0.09c0.52,-0.586 1.1,-1.103 1.6,-1.418c0.1,-0.389 0.19,-0.744 0.27,-1.046Zm109.93,-6.36c1.17,2.052 1.18,2.217 0.23,4.136c-0.99,2 -0.99,2 -0.62,-0.21c0.3,-1.738 0.11,-2.565 -0.87,-3.873c-2.29,-3.032 -0.05,-2.355 1.26,-0.053Zm-89.85,-11.823c-2.15,0.819 -5.01,2.115 -6.48,2.935c-1.56,0.87 -2.65,1.466 -4.39,1.466c4.43,-3.146 9.16,-5.868 14.73,-5.868l-3.86,1.467Zm35.26,-1.815l1.86,2.594c0,0 1.72,5.618 1.44,6.052c-0.29,0.433 2.66,1.564 1.86,2.017c-2.37,1.341 -4.68,2.779 -3.16,13.689c0.12,0.858 -1.91,0.552 -1.95,0.72c-0.03,0.17 0,-11.526 0.09,-12.968c0.08,-1.44 -1.58,-2.45 -1.58,-2.45c0,0 1.42,0.134 1.49,-2.739c0.09,-3.313 -0.05,-6.915 -0.05,-6.915Zm40.68,0.686c1.95,1.108 8.34,8.857 3.56,4.064c-1.48,-1.484 -3.7,-3.203 -4.94,-3.818c-4.33,-2.156 -0.8,-1.484 1.38,-0.246Zm-27.16,-6.507c-1.32,2.337 -5.76,2.647 -8.21,2.647c2.36,-0.576 7.44,-1.123 8.03,-4.163c0.38,-1.987 0.7,0.595 0.18,1.516Zm-24.19,0.073c0.47,0.843 1.47,1.682 2.21,1.866c1.9,0.47 1.93,1.662 -0.35,0.832c-1.12,-0.408 -2.2,-1.275 -2.4,-1.928c-0.21,-0.652 -1.25,-1.636 -2.33,-2.184c-4.8,-2.452 1.5,-1.01 2.87,1.414Zm-22.11,-5.682c0.04,0.124 0.08,0.274 0.12,0.437c1.9,-0.843 4.34,-1.499 5.47,-1.661c1.07,-0.152 3.46,-0.388 6.15,0c0.11,0.393 -2.76,0.89 -5.2,1.124c-2.15,0.206 -7.48,3.509 -8.33,3.598c-0.59,0.063 -0.73,-0.078 -0.63,-0.689c-0.11,-0.271 0.36,-2.961 -0.03,-3.373c-0.63,-0.664 -1.81,-1.712 0.36,-1.446c1.35,0.166 1.61,0.411 2.09,2.01Zm65.66,0c-0.04,0.124 -0.07,0.274 -0.11,0.437c-1.9,-0.843 -4.34,-1.499 -5.47,-1.661c-1.08,-0.152 -3.46,-0.388 -6.15,0c-0.11,0.393 2.76,0.89 5.2,1.124c2.15,0.206 7.47,3.509 8.33,3.598c0.59,0.063 0.72,-0.078 0.63,-0.689c0.1,-0.271 -0.37,-2.961 0.02,-3.373c0.64,-0.664 1.81,-1.712 -0.35,-1.446c-1.35,0.166 -1.61,0.411 -2.1,2.01Zm-53.07,-6.43c-1.85,3.404 -1.32,1.004 -0.2,-1.258c0.86,-1.716 1.51,-2.504 2.85,-3.854l1.47,-1.476c-1.44,2.156 -2.89,4.307 -4.12,6.588Zm18.32,-12.293c0.74,0.724 1.39,1.532 2.5,1.155c0.81,-0.274 1.53,-0.8 2.4,-0.596c1.52,0.352 0.22,1.006 -0.6,1.348c-2.43,1.017 -4.63,0.8 -5.36,-2.068c-0.27,-1.067 0.81,-0.08 1.06,0.161Zm7.34,-0.415c0,1.038 -0.24,2.304 -0.68,3.568c-0.54,1.56 -0.8,1.976 -1.27,2.034c-0.43,0.054 -1.07,-0.56 -0.45,-0.73c0.17,-0.048 0.55,-0.629 0.84,-1.288c0.29,-0.66 0.7,-2.098 0.91,-3.196c0.34,-1.757 0.65,-2.872 0.65,-0.388Zm-10.04,-0.924c0.44,0.682 0.44,0.682 1.1,2.691c0.62,1.847 1.58,6.148 3.58,6.875c1.54,0.562 -0.83,1.904 -1.9,1.297c-0.27,-0.156 -0.91,-1.196 -1.42,-2.312c-1.13,-2.473 -2.09,-5.324 -2.39,-8.043c-0.12,-1.11 0.32,-1.601 1.03,-0.508Zm5.78,-16.572c-0.45,-0.049 -0.84,-0.102 -1.16,-0.16c-0.48,0.087 -1.11,0.164 -1.9,0.232c-1.61,0.138 -3.2,0.27 -4.81,0.27c1.21,-0.446 2.9,-0.719 3.8,-1.67c0.34,-0.362 1.83,-0.369 2.91,-0.097c1.08,-0.272 2.57,-0.265 2.92,0.097c0.9,0.951 2.59,1.224 3.8,1.67c-1.62,0 -3.21,-0.132 -4.81,-0.27c-0.27,-0.022 -0.52,-0.046 -0.75,-0.072Zm-9.28,-1.836c-0.36,1.588 -0.95,3.706 0.06,5.194c0.43,0.634 0.43,0.634 0.81,1.317c0.84,1.508 -1.86,-0.369 -2.23,-0.936c-1.19,-1.856 -0.05,-6.055 0.98,-7.804c1.07,-1.821 0.45,1.932 0.38,2.229Zm16.5,-2.078c0.95,2.585 1.19,6.108 -0.18,8.609c-0.28,0.513 -2.56,2.595 -1.61,1.116c1.45,-2.247 1.95,-5.613 1.1,-8.167c-0.31,-0.95 -0.07,-3.61 0.69,-1.558Zm-10.11,-3.996c0.07,0.28 0.85,0.589 1.72,0.692c0.01,0 0.01,0 0.01,0.001l0.01,-0.001c0.88,-0.103 1.66,-0.412 1.73,-0.692c0.39,-1.43 3.19,0.085 2.8,1.513c-0.25,0.931 -2.76,0.9 -4.54,0.551c-1.77,0.349 -4.28,0.38 -4.53,-0.551c-0.39,-1.428 2.41,-2.943 2.8,-1.513Zm15.66,-2.224c-0.67,1.461 -2.82,3.4 -4.59,3.285c0.19,0.361 0.36,1.053 0.38,1.977c0.07,2.999 -0.82,2.32 -0.99,-0.234c-0.08,-1.066 0.01,-1.674 0.16,-1.908l0,-0.003c-0.58,-1.017 6.57,-6.456 5.04,-3.117Zm-25.76,1.429c0.46,0.419 0.9,1.028 1.14,1.555c0.33,0.374 0.72,1.202 0.78,1.909c0.13,1.704 -1.38,3.579 -1.08,1.385c0.17,-1.204 0.18,-1.3 -0.01,-2.234c-0.25,-0.036 -0.62,-0.182 -1.12,-0.479c-1.19,-0.703 -3.81,-2.815 -3.28,-4.536c0.25,-0.793 0.25,-0.793 1.24,0.199c0.99,0.993 0.99,0.993 2.33,2.201Zm31.67,-8.193c-0.06,2.601 -0.49,5.178 -1.05,7.746c-0.02,0.772 -0.1,1.428 -0.22,2.082c2.36,-1.85 4.13,-7.836 1.27,-9.828Zm-38.4,9.828c-2.37,-1.85 -4.14,-7.836 -1.27,-9.828c0.05,2.601 0.48,5.178 1.05,7.746c0.02,0.772 0.09,1.428 0.22,2.082Zm20.41,-8.304c-0.13,1.674 0.11,2.936 0.77,4.146c0.94,1.74 0.94,1.74 -0.45,1.41c-1.36,-0.322 -1.4,-0.428 -1.4,-4.147c0,-2.808 1.38,-5.501 1.08,-1.409Zm-3.63,0c0.13,1.674 -0.1,2.936 -0.76,4.146c-0.95,1.74 -0.95,1.74 0.45,1.41c1.36,-0.322 1.39,-0.428 1.39,-4.147c0,-2.808 -1.38,-5.501 -1.08,-1.409Zm10.12,-6.619c-0.79,0.188 -0.79,0.188 -4.35,1.375c-1.39,0.464 -6.12,2.053 -2.41,2.814c1.16,0.236 1.82,0.236 3.03,-0.173c-0.19,0.145 -0.32,0.352 -0.37,0.633c-0.07,0.371 1.13,0.696 3.96,1.075c3.59,0.483 4.07,0.472 4.22,-0.095c0.14,-0.502 -0.59,-0.792 -3.41,-1.35c-0.68,-0.138 -2.45,-0.707 -3.63,-0.547c0.22,-0.088 0.46,-0.184 0.72,-0.293c2.49,-1.039 4.02,-2.058 5.85,0.333c1.71,2.232 3.44,2.212 1.83,-0.736c-1.19,-2.18 -2.93,-3.633 -5.44,-3.036Zm-16.67,0c0.79,0.188 0.79,0.188 4.35,1.375c1.38,0.464 6.12,2.053 2.4,2.814c-1.15,0.236 -1.81,0.236 -3.02,-0.173c0.19,0.145 0.32,0.352 0.37,0.633c0.06,0.371 -1.13,0.696 -3.96,1.075c-3.59,0.483 -4.07,0.472 -4.22,-0.095c-0.14,-0.502 0.59,-0.792 3.4,-1.35c0.69,-0.138 2.45,-0.707 3.64,-0.547c-0.22,-0.088 -0.46,-0.184 -0.72,-0.293c-2.49,-1.039 -4.02,-2.058 -5.85,0.333c-1.71,2.232 -3.45,2.212 -1.83,-0.736c1.19,-2.18 2.92,-3.633 5.44,-3.036Zm-3.52,-5.4c-0.16,2.201 -0.56,3.385 -1.78,5.199l-1.57,2.348c1.16,-2.739 2.46,-5.446 2.46,-8.494c0,-4.24 1.06,-1.493 0.89,0.947Zm23.29,-1.681c0.32,1.32 1.33,7.754 -0.3,5.169c-1.22,-1.931 -0.91,-10.199 0.3,-5.169Zm-20.26,37.489c-3.38,-3.261 -5.45,-8.529 -6.85,-13.433c-0.26,-1.338 -0.56,-2.738 -0.88,-4.016c-0.59,-2.442 -0.92,-4.787 -1.03,-7.094c0.15,-4.82 1.47,-10.021 2.2,-14.288c0.89,-5.126 2.16,-6.489 7.08,-8.281c3.47,-1.267 4.43,-1.619 5.35,-2.028c0.18,-0.021 0.36,-0.044 0.54,-0.065c1.68,-0.196 3.39,-0.232 4.99,-0.108c1.08,0.504 1.78,0.761 5.73,2.201c4.92,1.792 6.18,3.155 7.07,8.281c0.74,4.267 2.06,9.468 2.21,14.288c-0.11,2.307 -0.44,4.652 -1.04,7.094c-0.31,1.278 -0.61,2.678 -0.87,4.016c-2.21,7.692 -6.03,14 -14.01,14.345c-0.47,-0.075 -2.86,-0.075 -3.33,0c-2.9,-0.125 -5.24,0.944 -7.16,-0.912Z"/><path d="M319.241,195.976c-15.134,0 -52.181,-0.107 -70.259,-0.107" style="fill:none;stroke:#000;stroke-width:1px;"/><path d="M364.315,270.391c77.028,-65.243 74.283,-62.267 78.094,-65.486" style="fill:none;stroke:#000;stroke-width:1px;"/><path d="M349.24,345.354c45.164,0 90.295,-0.885 135.443,-0.885" style="fill:none;stroke:#000;stroke-width:1px;"/><g transform="matrix(1,0,0,1,-96.0835,40.1388)"><text x="123.252px" y="160.514px" style="font-family:'Arial-BoldMT', 'Arial', sans-serif;font-weight:700;font-size:18.067px;">Input</text><text x="167.395px" y="160.514px" style="font-family:'ArialMT', 'Arial', sans-serif;font-size:18.067px;">: 1500 kCal from food</text><rect x="123.252" y="162.428" width="44.143" height="1.897"/></g><g transform="matrix(1,0,0,1,334.983,42.0237)"><text x="123.252px" y="160.514px" style="font-family:'Arial-BoldMT', 'Arial', sans-serif;font-weight:700;font-size:18.067px;">Output</text><text x="182.445px" y="160.514px" style="font-family:'ArialMT', 'Arial', sans-serif;font-size:18.067px;">: 2000 kCal from</text><rect x="123.252" y="162.428" width="59.193" height="1.897"/><text x="123.252px" y="179.172px" style="font-family:'ArialMT', 'Arial', sans-serif;font-size:18.067px;">BMR and exercise</text></g><g transform="matrix(1,0,0,1,375.332,179.671)"><text x="123.252px" y="160.514px" style="font-family:'Arial-BoldMT', 'Arial', sans-serif;font-weight:700;font-size:18.067px;">Result</text><text x="178.466px" y="160.514px" style="font-family:'ArialMT', 'Arial', sans-serif;font-size:18.067px;">: 1500 minus 2000</text><rect x="123.252" y="162.428" width="55.214" height="1.897"/><text x="123.252px" y="179.172px" style="font-family:'ArialMT', 'Arial', sans-serif;font-size:18.067px;">equals 500 kCal of</text><text x="123.252px" y="197.83px" style="font-family:'Arial-BoldItalicMT', 'Arial', sans-serif;font-weight:700;font-style:italic;font-size:18.067px;">weight</text><text x="185.479px" y="197.83px" style="font-family:'Arial-BoldItalicMT', 'Arial', sans-serif;font-weight:700;font-style:italic;font-size:18.067px;">loss</text></g></svg>