<?xml version="1.0" encoding="UTF-8" standalone="no"?><!DOCTYPE svg PUBLIC "-//W3C//DTD SVG 1.1//EN" "http://www.w3.org/Graphics/SVG/1.1/DTD/svg11.dtd"><svg width="100%" height="100%" viewBox="0 0 277 198" version="1.1" xmlns="http://www.w3.org/2000/svg" xmlns:xlink="http://www.w3.org/1999/xlink" xml:space="preserve" xmlns:serif="http://www.serif.com/" style="fill-rule:evenodd;clip-rule:evenodd;stroke-linejoin:round;stroke-miterlimit:1.41421;"><path d="M28.704,119.013c-4.707,-0.356 -11.14,0.781 -13.652,4.687c-0.098,0.156 -0.164,0.309 -0.203,0.453c0.324,0.383 0.656,0.848 0.914,1.266c1.328,2.172 2.832,4.187 3.672,6.594c0.925,2.636 1.191,5.632 3.535,7.461c2.519,1.961 0.176,1.89 -1.336,0.726c-0.738,-0.57 -1.281,-1.156 -1.696,-1.789c-0.531,1.465 -1.492,3.703 -2.085,4.68c-2.543,4.168 -4.415,10.636 -1.684,15.113c0.57,0.938 1.16,2.566 1.312,3.621c0.145,0.988 0.54,7.035 0.797,10.5c0.278,3.707 0.508,4.578 -0.183,6.938c-0.004,0.015 -0.008,0.027 -0.012,0.039c-0.168,0.652 -0.641,1.925 -1,3.09c-1.437,4.625 -2.926,6.785 2.758,7.402c1.933,0.211 4.109,0.863 6.363,1.504c0.578,0.355 1.313,0.586 1.805,0.922c0.426,0.293 1.094,0.453 1.765,0.441c0.637,1.254 2.29,1.32 3.504,0.727c1.336,0.355 3.192,0.14 4.387,-0.457c0.125,-0.063 0.246,-0.149 0.356,-0.254c0.398,-0.063 0.753,-0.25 0.906,-0.672c0.144,-0.395 0.824,-0.402 1.164,-0.551c0.597,-0.254 0.98,-1.019 0.625,-1.625c-0.293,-0.5 -0.926,-0.832 -1.406,-1.125c-0.442,-0.262 -0.829,-0.504 -1.204,-0.863c-0.414,-0.395 -0.722,-0.621 -1.277,-0.754c-0.375,-0.09 -0.867,-0.117 -1.363,-0.067c-0.426,-0.738 -1.043,-1.531 -1.735,-1.906c-0.136,-0.074 -0.289,-0.133 -0.449,-0.172c-0.269,-0.328 -5.051,-4.222 -5.187,-4.23c-0.274,-0.317 -3.145,-4.32 -3.496,-4.723c-0.262,-0.297 -0.379,-0.914 -0.387,-1.57c-0.066,-0.293 -0.121,-0.672 -0.172,-1.156c-0.367,-3.313 -0.973,-7.664 0.625,-10.723c0.469,-0.902 1.035,-2.844 1.254,-4.313c0.219,-1.468 0.395,-5.16 0.395,-8.199c0,-0.215 0.097,-2.289 0.32,-4.168c-0.809,0.239 -1.453,-0.015 -0.649,-1.156c1.032,-1.469 2.012,-2.586 2.461,-4.351c0.512,-2.008 0.61,-3.774 1.532,-5.711c1.14,-2.383 1.168,-2.594 0.628,-4.356c-0.312,-1.016 -0.656,-3.379 -0.765,-5.246c-0.11,-1.871 -0.379,-3.719 -0.606,-4.109c-0.316,-0.543 -0.504,-1.301 -0.531,-1.918Zm-12.312,-37.707c-0.789,0.898 -2.071,1.242 -3.25,1.16c-4.188,-0.285 -8.93,5.422 -10.739,8.519c-1.785,3.055 -1.441,10.121 1.118,12.633c0.355,0.352 2.605,2.078 1.531,2.539c0.16,0.36 0.289,0.77 0.347,1.16c0.434,2.711 1.086,4.614 2.684,6.891c0.875,1.25 2.016,3.637 2.539,5.305c0.414,1.34 0.649,2.086 0.695,2.511c0.332,-1.297 0.805,-2.558 1.575,-3.527c0.648,-0.816 3.757,-1.48 2.613,-0.598c-1.688,1.301 -2.52,3.871 -3.016,5.868c0.02,-0.02 0.035,-0.036 0.047,-0.051c4.238,-4.778 7.945,-6.387 14.504,-6.258c3.387,0.066 3.664,0.137 3.813,0.961c0.121,0.664 0,0.836 -0.602,0.769c0.262,0.149 0.559,0.512 0.809,0.891c1.578,2.395 4.226,4.328 6.671,5.809c1.36,0.82 2.09,1.332 2.571,2.797c0.582,1.777 1.566,3.398 2.719,4.871c0.636,0.808 1.156,1.851 1.156,2.312c0,1.109 -1.149,0.164 -2.086,-0.84c-0.188,0.703 -0.793,2.024 -1.535,3.305c-2.614,4.508 -3.934,7.535 -2.114,12.539c0.567,1.559 0.77,2.895 0.629,4.148c-0.211,1.848 -0.324,1.852 -0.109,8.54c0.234,7.324 -1.133,10.183 -2.024,11.179c-0.363,0.828 -0.554,1.735 -0.726,2.59c-0.086,0.418 -0.172,0.898 -0.199,1.375c-0.082,0.18 -0.137,0.352 -0.168,0.465c-0.367,1.285 -0.266,2.32 0.933,3.156c1.125,0.778 2.602,0.582 3.903,0.582c0.754,0 1.433,-0.18 2.097,-0.406c0.711,0.102 2.746,0.074 5.953,1.324c0.352,0.742 1.211,1.387 2.055,1.539c0.883,0.16 2.176,0.285 3.102,-0.058c0.086,0.043 0.172,0.086 0.261,0.121c1.321,0.492 3.442,0.867 4.364,-0.324c0.047,-0.063 0.656,-0.536 0.695,-0.598c0.41,-0.356 0.648,-0.906 0.695,-1.317c0.047,-0.386 -0.656,-0.898 -0.914,-1.273c-0.73,-1.086 -2.242,-0.824 -2.488,-0.727c-0.223,-0.238 -0.449,-0.453 -0.641,-0.628c-0.269,-0.247 -0.554,-0.485 -0.855,-0.704c-0.953,-0.851 -4.254,-3.578 -5.231,-3.902c-0.558,-0.187 -1.511,-1.121 -1.976,-1.453c-0.121,-0.086 -1.965,-1.844 -2.285,-2.426c-0.028,-0.047 -0.141,-0.305 -0.258,-0.59c-0.555,-0.773 -0.949,-1.929 -0.797,-3.343c0.074,-1.332 0.234,-2.665 0.457,-3.985c0.203,-3.078 0.723,-6.18 1.809,-8.808c0.121,-0.286 0.234,-0.539 0.351,-0.758c0.399,-2.637 0.637,-5.289 0.637,-8.016c0,-1.75 0.019,-2.926 0.078,-3.703c-1.234,0.129 -0.281,-0.875 0.324,-1.609c0.09,-0.118 0.18,-0.231 0.27,-0.344c0.019,-0.039 0.043,-0.07 0.07,-0.094c0.637,-0.855 1.082,-1.742 1.137,-2.703c0.035,-0.621 -0.207,-2.168 -0.024,-2.57c0.09,-0.274 0.27,-0.606 0.567,-0.996c2.121,-2.817 1.496,-7.614 -0.438,-10.332c-0.441,-0.618 -0.988,-1.864 -1.218,-2.766c-0.418,-1.645 -0.418,-1.645 -1.274,-3.289c-0.043,-0.078 -0.082,-0.156 -0.125,-0.238c-0.531,-0.801 -1.109,-1.559 -1.734,-2.254c-0.227,-0.25 -1.489,-1.547 -2.012,-2.547c-0.289,0.164 -0.582,0.34 -0.879,0.519c-1.492,0.907 -3.941,2.293 -5.433,3.082c-0.875,0.461 -5.7,3.848 -5.883,2.539c-0.082,-0.593 0.55,-1.234 2.363,-2.394c1.359,-0.871 3.039,-1.859 3.727,-2.199c1.82,-0.895 3.168,-1.2 4.933,-2.453c0.235,-0.168 1.328,-0.965 2.395,-1.465c-0.055,-0.032 -0.11,-0.071 -0.164,-0.106c-1.075,-0.726 -2.454,-0.859 -2.539,-2.367c-0.036,-0.664 -0.348,-2.125 -0.692,-3.242c-0.082,-0.262 -0.117,-0.559 -0.117,-0.844c-0.871,0.684 -1.715,1.442 -2.656,2.504c-0.067,0.266 -0.465,0.809 -1.321,1.977c-1.691,2.304 -1.824,4.343 -4.519,5.668c-0.582,0.281 -1.16,0.441 -1.652,0.496l0.003,0.004c0.172,0.632 0.016,0.722 -0.554,0.824c-1.598,0.277 -3.235,-3.25 -3.403,-4.446c-0.093,-0.656 -0.742,-2.32 -1.441,-3.699c-1.254,-2.465 -1.277,-2.504 -1.477,-3.461c-0.636,-0.203 -0.691,-0.511 -0.543,-1.789c0.008,-0.082 0.016,-0.164 0.028,-0.238c-0.043,0.012 -0.082,0.016 -0.121,0.016l0,0.171c-0.043,-0.062 -0.086,-0.128 -0.133,-0.187c-0.176,-0.055 -0.328,-0.234 -0.438,-0.574c-0.316,-0.379 -0.656,-0.731 -1.019,-1.051c-0.078,-0.047 -0.133,-0.098 -0.172,-0.152c-2.16,-1.836 -5.074,-2.719 -8.07,-2.524c-0.567,0.039 -3.336,0.035 -1.918,-0.976c1.652,-1.18 6.832,0.523 8.48,1.097c0.137,0.047 0.274,0.098 0.41,0.149c-0.132,-0.145 -0.265,-0.246 -0.39,-0.285c-0.055,-0.016 -0.055,-0.016 -2.332,-1.516c-2.282,-1.496 -2.282,-1.496 -5.039,-2.688l-2.758,-1.195c1.41,0 2.469,0.285 3.816,0.793c2.871,1.078 5.985,2.492 7.438,5.195c0.343,0.161 0.664,0.344 0.949,0.555c0.019,-0.141 0.051,-0.297 0.086,-0.476c0.234,-1.168 0.125,-1.493 -0.645,-1.954c-0.339,-0.203 -1.824,-2.468 -0.769,-2.468c0.426,0 0.426,0 1.926,1.09c0.273,0.199 0.554,0.546 0.789,0.968c0.039,-0.082 0.078,-0.156 0.117,-0.234c0.101,-0.199 0.203,-0.422 0.301,-0.664c-0.047,-0.008 -0.094,-0.02 -0.145,-0.031c-4.902,-1.188 -7.605,-9.071 -7.48,-13.793Zm23.355,-23.563c-1.367,0.047 -3.105,0.86 -3.953,1.418c-3.086,2.02 -4.492,4.383 -4.297,7.113c-1.273,0.727 -2.32,2.293 -2.574,2.614c-1.555,1.949 -2.84,3.589 -4.121,5.718c-0.313,0.52 -0.59,1.012 -0.805,1.5c-0.34,-0.003 -0.758,0.11 -1.195,0.282c-1.895,0.125 -3.668,1.285 -5.215,2.285c-0.266,-0.313 -0.637,0.019 -0.887,0.695c-0.203,0.199 -0.39,0.41 -0.558,0.625c-0.032,0.02 -0.063,0.035 -0.094,0.055c-1.375,-0.008 -4.121,0.933 -4.809,1.258c-0.929,0.433 -2.16,0.914 -2.73,1.062c-2.434,0.633 -4.547,3.985 -6.238,5.645c-1.504,1.476 -2.004,3.582 -2.129,5.59c-0.18,2.949 -0.418,7.554 0.906,10.269c0.367,0.746 1.492,1.754 2.558,2.18c-0.031,0.125 -0.058,0.269 -0.082,0.429c-0.316,2.141 0.586,4.434 1.668,6.418c-0.332,0.188 -0.695,0.438 -1.074,0.739c-3.269,2.586 -3.695,10.535 -1.726,13.808c2.812,4.672 9.367,6.453 14.578,3.645c0.164,-0.09 0.316,-0.199 0.445,-0.321c0.109,0.149 0.219,0.297 0.328,0.45c0.168,0.23 0.168,0.23 0.797,3.246c0.055,0.273 0.113,0.539 0.176,0.797l0,0.004c-0.348,0.89 -2.074,6.281 -2.766,7.546c-2.203,4.04 -4.636,12.965 -1.074,16.895c0.219,0.242 0.34,2.039 0.887,5.516c0.355,2.273 0.73,6.054 0.836,8.402c0.035,0.871 0.089,1.738 0.156,2.508c-0.274,1.051 -0.695,2.609 -0.707,2.867c-0.02,0.379 -2.352,7.832 -1.824,9.766c0.652,2.378 4.156,2.769 6.14,3.015c3.145,0.395 3.145,0.395 4.324,1.18c1.168,0.781 1.739,0.906 4.196,1.16c0.18,0.145 1.332,0.879 2.215,0.914c0.39,0.016 1.386,0.121 2.289,-0.226c0.465,0.003 0.867,-0.114 1.32,-0.133c2.902,-0.004 5.918,-0.555 7.547,-2.633c1.48,-1.891 0.449,-3.352 -1.582,-4.258c-0.793,-1.012 -2.625,-2.617 -4.043,-2.133c-1.371,-0.883 -2.707,-2.539 -4.961,-4.351c-3,-2.391 -5.543,-4.977 -6.086,-7.516c0.031,-0.797 0.008,-2.023 -0.043,-3.91c-0.137,-4.84 -0.059,-5.531 0.859,-7.836c0.825,-2.059 1.082,-3.719 1.387,-8.953c0.164,-2.77 0.348,-6.387 0.34,-8.277c1.125,-1.602 2.02,-3.665 1.953,-5.649c-0.023,-0.652 0.531,-2.219 1.235,-3.476c2.457,-4.407 0.175,-8.149 -0.188,-12.676c1.328,1.418 3.199,2.691 4.238,3.406c3.016,2.074 3.836,4.086 5.559,7.168c0.047,0.09 0.16,0.246 0.308,0.441c-0.457,0.289 -0.945,0.926 -1.136,1.254c-0.86,1.461 -0.86,1.461 -2.301,4.129c-2.016,3.735 -2.77,7.641 -1.445,11.668c0.855,2.602 0.773,5.258 0.629,7.973c-0.122,2.277 0.023,5.465 0.351,7.656c0.176,1.164 -0.055,2.856 -0.348,4.426c-0.472,0.84 -0.91,1.586 -1.078,1.93c-0.543,1.117 -1.027,5.378 -1.386,6.3c-0.481,1.235 -0.555,2.535 -0.047,3.735c0.574,1.175 5.273,1.758 6.941,1.332c1.231,-0.321 5.129,0.097 6.266,0.593c0.508,0.219 0.551,0.825 1.125,1.008c1.57,1.094 2.238,1.254 4.312,1.055c0.422,-0.043 1.512,0.051 1.95,0.207c0.925,0.34 2.933,0.879 4.046,-0.746c0.028,-0.039 0.094,-0.027 0.141,-0.047c1.883,-1.281 2.008,-2.012 2.172,-3.27c-0.086,-0.109 -0.094,-0.566 -0.125,-0.75c-0.207,-1.218 -1.063,-1.39 -2.067,-2.003c-0.703,-0.43 -1.46,-0.618 -2.285,-0.715c-0.382,-0.352 -0.769,-0.692 -1.164,-1.028c-0.605,-0.511 -2.629,-2.48 -3.375,-2.804c-0.574,-0.246 -2.547,-1.969 -3.73,-2.696c-0.59,-0.363 -1.379,-1.757 -1.922,-3.027c-0.172,-1.297 -0.313,-3.113 -0.098,-5.398c0.266,-2.899 0.668,-5.989 0.996,-7.84c0.145,-0.442 0.297,-0.871 0.461,-1.293c0.692,-1.836 0.879,-3.438 0.985,-8.52c0.043,-2.218 0.05,-3.715 0.004,-4.703c1.644,-1.035 2.332,-3.941 2.406,-5.515c0.019,-0.469 0,-0.864 -0.055,-1.184c0.258,-0.281 0.488,-0.641 0.645,-1.078c1.597,-4.442 0.547,-7.539 -0.942,-10.891c-0.062,-0.711 -0.234,-1.578 -0.445,-2.207c-0.875,-2.574 -2.086,-5.019 -3.648,-7.238c-0.086,-0.172 -0.168,-0.332 -0.247,-0.481c-0.308,-0.578 -0.863,-1.207 -1.406,-1.691c-0.043,-0.043 -0.086,-0.078 -0.129,-0.117c0.332,-0.172 0.594,-0.293 0.75,-0.352c0.469,-0.168 0.797,-0.527 0.719,-0.801c-0.086,-0.304 -0.277,-0.468 -0.539,-0.523c-0.121,-0.867 -0.941,-2.137 -1.988,-2.414c-0.286,-0.078 -0.766,-0.938 -1.063,-1.906c-0.539,-1.77 -0.539,-1.77 -0.851,-2.407c-0.055,-0.109 -0.106,-0.199 -0.153,-0.281c0.766,-0.558 1.586,-1.137 2.528,-1.863c3.148,-2.43 6.238,-6.688 7.214,-10.754c1.211,-0.984 2.036,-2.215 1.766,-3.734c-0.023,-0.125 1.586,-2.024 1.559,-2.121c0.91,-0.012 0.851,0.16 1.765,0.066c4.719,-0.488 7.055,-6.676 7.465,-10.547c0.016,-0.164 0.031,-0.324 0.043,-0.48c0.715,-0.629 2.242,-2.637 2.652,-3.75c1.075,-2.895 0.137,-5.774 -1.023,-7.536c-0.129,-0.195 -0.242,-0.351 -0.344,-0.472l0,-0.004c0.543,-0.926 1.067,-1.824 1.43,-2.192c0.926,-0.933 1.684,-1.894 2.016,-2.523c1.855,0.867 5.668,-0.141 6.843,-1.207c0.848,-0.777 1.203,-2.508 1.641,-8.059c0.355,-4.503 0.656,-9.074 -1.438,-13.218c-0.371,-0.739 -1.433,-1.758 -2.359,-2.266c-2.742,-1.504 -10.711,-2.555 -13.5,-0.906c-2.508,1.484 -3.781,5.82 -5.133,8.25c-1.222,2.191 -0.562,4.933 0.59,7.418c-0.863,1.398 -1.906,3.609 -2.687,4.89c-0.719,0.196 -1.571,0.563 -2.211,0.973c-3.262,-0.75 -7.047,1.629 -9.387,3.438c-1.063,0.824 -1.902,0.761 -1.84,0.976Zm-33.621,56.746c-0.242,0.328 -0.543,0.699 -0.91,1.11c-6.031,6.777 -0.621,19.254 11.172,13.765c-0.797,-1.117 -1.551,-2.269 -2.09,-3.508c-0.094,0.012 -0.207,0.02 -0.34,0.02c-0.863,0 -3.633,0.918 -3.129,0.074c-0.152,-0.008 -0.223,-0.211 -0.137,-0.726c0.082,-0.485 0.164,-0.993 0.262,-1.512c0.039,-0.164 0.07,-0.356 0.102,-0.539c0.047,-0.223 0.093,-0.446 0.144,-0.672c-0.051,0.043 -0.09,0.344 -0.144,0.672c-0.035,0.18 -0.071,0.359 -0.102,0.539c-0.055,0.219 -0.125,0.383 -0.215,0.394c-0.84,0.102 -1.195,-1.66 -1.957,-4.046c-0.476,-1.493 -1.617,-3.915 -2.539,-5.383c-0.039,-0.063 -0.078,-0.125 -0.117,-0.188Zm43.57,-22.355c-0.953,0.48 -1.906,0.863 -2.652,1.152c-1.676,0.656 -7.16,2.371 -8.992,0.559c-0.36,2.488 -1,3.265 -2.34,6.554c-2.125,5.227 -3.941,9.375 -6.258,10.805c0.344,0.738 0.668,1.484 0.957,2.242c0.215,-0.148 0.485,-0.308 0.801,-0.476c1.449,-0.762 1.285,-0.84 2.289,-2.075c0.801,-0.488 1.73,-2.171 2.121,-2.937c-0.086,-0.703 0.793,-1.793 1.852,-2.285c0.539,-0.246 0.968,-0.57 3.078,-2.871c3.656,-3.981 7.332,-5.77 9.144,-10.668Zm-3.086,-11.211c-1.605,3.523 -3.761,7.156 -6.773,9.351c-0.395,0.289 -1.563,1.383 -1.594,1.789c0.141,0.059 0.305,0.125 0.488,0.207c4.52,1.938 12.969,-1.882 13.168,-5.218c0.016,-0.262 1.118,-1.817 1.926,-2.774c-0.312,0.063 -0.711,0.11 -1.238,0.157c-2.219,0.207 -5.277,-0.594 -5.867,-3.043c-0.039,-0.172 -0.078,-0.329 -0.11,-0.469Zm-5.004,-19.43c-0.492,0.133 -1.5,1.477 -2.23,2.981c-0.73,1.503 -1.723,2.988 -2.199,3.289c-0.871,0.554 -0.871,0.554 -4.367,6.058c-3.274,5.156 -3.477,5.668 -3.157,7.992c0.035,0.247 0.039,0.512 0.024,0.782c1.179,-1.41 2.191,-2.368 1.789,-0.86c-0.293,1.09 -0.293,1.09 -2.336,3.934c-2.957,4.117 -3.219,8.301 -3.863,13.262c-0.098,0.761 -0.461,1.66 -0.887,2.296c0.141,0.676 0.129,1.571 0.887,2.422c0.05,0.063 0.097,0.129 0.136,0.204c1.192,2.035 2.43,4.097 3.504,6.23c2,-2.785 4.207,-6.57 5.59,-11.152c2.227,-3.102 2.762,-12.145 2.91,-12.145c0.27,0 0.383,0.738 0.348,2.367c3.391,-3.492 6.512,-7.855 8.418,-12.164c0.137,-0.312 0.277,-0.582 0.418,-0.812c-0.129,0 -0.258,0.004 -0.387,0.004c0.152,-0.039 0.305,-0.078 0.461,-0.121c0.004,-0.012 0.012,-0.024 0.02,-0.036c-1.387,0.25 -4.645,0.801 -4.809,-0.871c-0.07,-0.718 0.078,-0.851 0.715,-0.664c0.441,0.137 2.086,0.172 3.652,0.086c1.735,-0.098 2.867,0.34 2.438,0.797c4.047,-1.672 7.039,-4.848 6.375,-9.684c-0.961,-6.964 2.402,-1.171 1.961,1.864c-0.743,5.09 -4.133,7.875 -8.75,8.496c0.007,0.508 -0.133,1.215 -0.477,2.086c-0.277,0.695 -0.57,1.414 -0.891,2.14c0.317,0.2 1.032,0.715 1.715,1.246c1.528,1.18 3.141,1.833 5.051,1.172c1.383,-0.476 1.418,-0.465 1.258,0.524c-0.02,0.117 -0.043,0.219 -0.07,0.312c6.601,-0.23 6.835,-5.175 6.992,-5.441c0.039,-0.227 1.109,-4.406 1.14,-4.641l0.516,-3.965c0.434,0.664 0.711,1.313 0.863,1.985c0.864,-1.746 2.192,-3.703 1.504,-5.746c-0.281,-0.84 -0.539,-1.809 -0.668,-2.575c-0.988,1.614 -1.863,2.68 -1.719,-0.023c0.086,-1.656 0.653,-2.703 2.446,-4.512c0.387,-0.39 1.394,-1.765 2.269,-2.222c-0.215,-0.442 0.047,-0.5 0.989,-0.45c5.246,0.278 6.031,-1.582 6.664,-6.546c0.972,-7.629 1.019,-15.497 -8.254,-16.375c-4.992,-0.477 -6.891,0.55 -9.133,5.027c-1.586,3.172 -3.391,4.086 -1.082,7.254c0.492,0.676 1.254,3.867 1.324,5.465c0,0.004 0,0.007 0.004,0.015c0.262,3.539 -2.289,10.032 -2.215,9.594c-0.699,-1.707 -1.394,-3.418 -2.121,-5.113c-0.957,-2.239 1.137,-1.395 1.723,0.027c0.328,0.797 0.597,2.375 0.597,3.516l0,0.406c0.426,-2.469 0.836,-4.945 0.836,-7.441c0,-0.317 0.075,-0.68 0.184,-1.008c-0.207,-0.324 -0.414,-0.66 -0.621,-1.008c-1.063,1.898 -3.301,4.891 -3.942,4.805c0.204,0.171 -2.496,0.613 -2.894,0.347c-2.418,0.403 -4.809,0.938 -6.856,2.364c-0.656,0.453 -1.523,0.847 -2.187,1.035c0.262,0.047 0.187,0.148 -0.438,0.297c-2.582,0.601 -4.429,1.734 -5.687,3.269c-1.098,1.344 -1.75,2.996 -2.055,4.871c0.008,0.082 0.004,0.16 -0.039,0.262l0,0.004c-0.117,0.805 -0.363,1.226 -0.441,0.609c-0.469,0.543 -1.364,1.469 -3.031,3.196c-0.239,0.246 -0.469,0.492 -0.692,0.734c-1.277,1.512 -1.617,2.094 -3.137,4.691l-0.285,0.489l0.086,0.015l-0.129,0.055l-0.883,1.508c-0.265,0.586 -0.488,0.949 -0.652,1.117l-0.098,0.164c-0.007,-0.023 -0.015,-0.051 -0.023,-0.07c-0.203,0.097 -0.273,-0.223 -0.176,-0.856c-0.039,-0.371 -0.031,-0.726 0.02,-1.074l-0.617,0.27c-0.672,0.378 -1.489,0.812 -2.371,1.246c-0.883,0.433 -1.762,0.875 -2.661,1.242c0.184,3.484 1.336,9.492 4.254,11.691c0.317,0.238 1.602,1.426 2.172,2.27c0.418,-1.207 0.754,-2.617 0.852,-3.664c0.175,-1.922 0.703,-3.313 1.703,-4.465c0.183,-0.215 0.84,-1.106 1.601,-2.09c-0.117,-0.195 -0.238,-0.484 -0.351,-0.887c-0.688,-2.402 0.074,-4.722 1.277,-6.793c2.098,-3.601 4.438,-7.121 6.957,-10.449c0.817,-1.082 3.742,-6.441 5.274,-5.332c0.777,0.563 0.773,0.656 -0.036,0.871Zm-5.585,12.012c-0.36,-3.512 -2.833,4.41 -0.278,4.933c-1.555,1.754 -4.484,8.25 -3.441,8.25c2.39,0 4.082,-5.507 4.289,-7.273c0.058,-0.508 0.058,-0.867 0.012,-1.094l0.003,0c0.875,-0.679 -0.488,-3.859 -0.585,-4.816Zm10.339,-14.309c-0.816,-4.047 -3.332,3.11 0.039,2.836c1.391,-0.117 2.715,-0.129 4.098,0.063c1.965,0.269 0.359,-1.473 -0.617,-1.645c-0.945,-0.168 -0.945,-0.168 -2.094,-0.023c-1.012,0.129 -1.18,-0.016 -1.426,-1.231Zm18.266,-10.281c-0.23,-2.395 -1.016,-0.945 -0.797,0.742c0.25,1.953 0.949,4.36 3.172,4.899c2.488,0.601 -0.078,-1.672 -0.832,-2.543c-0.773,-0.903 -1.469,-2.293 -1.543,-3.098Z"/><path d="M179.776,190.013c-0.18,-0.102 -0.375,-0.18 -0.617,-0.238c-0.375,-0.09 -0.867,-0.118 -1.363,-0.067c-0.426,-0.734 -1.043,-1.527 -1.735,-1.906c-0.136,-0.074 -0.289,-0.133 -0.449,-0.172c-0.269,-0.324 -1.465,-0.973 -1.687,-1.273c-0.922,-1.243 -3.36,-2.95 -3.497,-2.957c-0.277,-0.317 -1.605,-1.985 -1.957,-2.383c-0.39,-0.445 -0.796,-1.492 -1.058,-2.442c-0.309,-0.718 -0.559,-1.656 -0.652,-2.882c-0.266,-3.325 -0.973,-7.668 0.621,-10.727c0.472,-0.902 1.039,-2.844 1.254,-4.312c0.218,-1.469 1.218,-9.012 1.218,-12.051c0,-0.242 0.25,-2.071 0.66,-3.403c-0.007,-0.101 -0.011,-0.214 -0.007,-0.332c0.004,-0.093 0.089,-0.203 0.25,-0.339c0.246,-0.575 0.531,-0.895 0.836,-0.653c0.707,-0.539 1.687,-1.332 2.722,-2.558c3.332,-3.954 2.481,-4.485 2.914,-7.286c0.461,-2.992 3.075,-0.859 3.766,-11.75c-0.219,-0.027 -0.434,-0.062 -0.633,-0.105c-0.922,0.238 -2.215,0.488 -3.953,0.769c-2.66,0.43 -7.07,-0.195 -10.426,-1.464c0.086,0.375 0.133,0.8 0.129,1.269c-0.058,5.168 0.859,10.262 -3.453,18.02c-0.043,0.074 -0.164,0.297 -0.328,0.547c-0.008,0.086 -0.02,0.175 -0.035,0.273c-0.133,0.82 -0.907,2.59 -1.723,3.93c-2.539,4.164 -4.41,10.633 -1.684,15.113c0.571,0.934 1.313,5.254 1.055,5.457c0.289,1.57 0.734,5.203 1.055,8.66c0.531,5.68 0.004,7.071 -1.117,8.723c-0.121,0.449 -0.278,0.984 -0.469,1.605c-1.438,4.625 -2.926,6.785 2.758,7.407c1.933,0.21 4.109,0.859 6.363,1.503c0.578,0.352 1.316,0.583 1.805,0.922c0.425,0.289 1.097,0.45 1.765,0.438c0.637,1.254 2.289,1.32 3.508,0.726c1.336,0.356 3.188,0.141 4.383,-0.457c0.125,-0.062 0.246,-0.148 0.359,-0.25c0.395,-0.066 0.75,-0.254 0.907,-0.675c0.14,-0.395 0.82,-0.403 1.16,-0.547c0.601,-0.258 0.98,-1.024 0.625,-1.629c-0.293,-0.496 -0.926,-0.832 -1.407,-1.121c-0.441,-0.266 -0.828,-0.508 -1.203,-0.864c-0.23,-0.222 -0.433,-0.39 -0.66,-0.519Zm8.067,-15.246c-0.063,-0.117 -0.571,-1.34 -0.579,-1.469c-0.011,-0.184 -0.015,-0.352 -0.007,-0.5c-0.329,-0.387 -0.633,-0.906 -0.731,-1.516c-0.074,-0.261 -0.133,-0.546 -0.172,-0.851c-0.05,-0.391 -0.086,-0.891 -0.101,-1.465c-0.098,-1.328 -0.11,-2.668 -0.063,-4.008c-0.191,-3.078 -0.074,-6.222 0.664,-8.969c0.078,-0.296 0.164,-0.562 0.246,-0.796c0.059,-2.664 -0.043,-5.329 -0.394,-8.032c-0.293,-2.261 0.066,-3.41 0.523,-2.996c0.086,-0.234 0.176,-0.472 0.27,-0.695c0.496,-1.184 0.519,-1.469 0.258,-2.898c-0.016,-0.094 -0.051,-0.25 -0.086,-0.446c0.031,-0.387 0.031,-0.746 0.019,-0.976c-0.023,-0.45 0.172,-0.903 0.442,-1.336c0.019,-0.004 0.039,-0.004 0.062,-0.004c0.008,0 0.012,0 0.02,0c0.101,-0.172 0.203,-0.34 0.3,-0.508c0.012,-0.027 0.02,-0.055 0.032,-0.082c0.226,-0.309 0.465,-0.602 0.644,-0.867c0.356,-0.516 0.512,-1.157 0.551,-1.797c0.184,-0.711 0.262,-1.457 0.187,-2.281c-0.144,-1.504 -0.218,-3.008 -0.25,-4.516c0.368,-1.395 0.61,-2.809 0.61,-4.301c0,-0.836 -0.055,-2.488 -0.41,-3.933l-0.004,0c-1.961,-0.121 -4.145,-0.504 -5.067,-0.688c-0.222,2.074 -0.496,3.012 -1.144,2.848l-0.004,0.004c-0.012,0.05 -0.039,0.101 -0.082,0.16l0,0.004c-0.352,2.246 -1.906,8.496 -2.699,9.961c-0.496,0.914 -1.664,2.062 -2.094,3.648c0.34,-0.223 0.672,-0.168 0.863,0.559c0.11,0.425 -0.386,2.175 -1.101,3.89c-2.012,4.805 -3.555,12.512 -1.11,17.239c0.766,1.472 1.41,1.328 1.715,2.554c0.52,2.075 0.317,0.891 1.063,5.43c0.605,3.688 0.539,5.527 0.16,8.07c-0.035,1.094 -0.18,2.594 -0.336,2.875c-0.047,0.086 -0.098,0.172 -0.141,0.262c-0.808,1.066 -1.101,2.426 -1.355,3.68c-0.082,0.414 -0.168,0.894 -0.199,1.371c-0.079,0.18 -0.137,0.351 -0.168,0.465c-0.368,1.289 -0.266,2.32 0.933,3.156c1.125,0.777 2.602,0.586 3.903,0.586c0.757,0 1.433,-0.184 2.097,-0.41c0.711,0.101 2.746,0.078 5.953,1.328c0.356,0.738 1.211,1.383 2.055,1.535c0.887,0.16 2.176,0.285 3.105,-0.063c0.083,0.047 0.168,0.09 0.258,0.125c1.321,0.493 3.442,0.872 4.364,-0.324c0.046,-0.062 0.66,-0.535 0.695,-0.597c0.41,-0.356 0.648,-0.907 0.695,-1.317c0.047,-0.387 -0.656,-0.894 -0.91,-1.273c-0.734,-1.086 -2.246,-0.824 -2.492,-0.727c-0.223,-0.238 -0.445,-0.453 -0.641,-0.629c-0.269,-0.246 -0.554,-0.48 -0.855,-0.703c-0.953,-0.851 -4.254,-3.578 -5.231,-3.902c-0.558,-0.188 -1.508,-1.121 -1.976,-1.453c-0.121,-0.086 -1.961,-1.844 -2.285,-2.422Zm-23.086,-86.637c-0.598,1.789 -1.196,3.777 -1.504,5.793c-0.094,1.523 0.039,3.109 0.359,4.926c0.219,1.226 0.383,2.152 0.504,2.887c0.504,1.293 0.656,2.429 0.523,4.824c0.149,0.289 0.157,0.836 0.067,1.742c-0.211,2.008 -0.211,2.008 -0.211,6.402c0,1.621 -0.043,2.735 -0.152,3.457c-0.004,0 -0.004,0.004 -0.004,0.008c-0.004,0.078 -0.012,0.156 -0.02,0.231c0.07,0.101 0.152,0.203 0.242,0.296c0.621,0.165 1.207,0.465 1.567,0.829c0.34,0.078 0.73,0.125 1.168,0.14c3,0.086 1.289,2.313 8.031,1.414c3.855,-0.511 5.582,-0.683 6.344,-0.507c0.136,-0.09 0.293,-0.168 0.453,-0.231l0,-0.004c-0.035,-1.664 2.469,-4.922 1.992,-11.832c-0.211,-3.059 -0.449,-4.086 0.645,-7.074c0.914,-2.488 3.386,-5.274 1.671,-0.906c-0.765,1.953 -0.242,3.742 -0.609,7.047c-0.418,3.753 -0.633,6.75 -0.812,8.996c0.902,-0.098 3.765,0.148 5.808,0.14l0.34,-0.117c0.008,0.039 0.012,0.074 0.019,0.113c0.399,-0.008 0.75,-0.031 1.043,-0.066c-0.57,-1.059 -0.296,-3.688 -0.25,-4.102c0.161,-1.379 0.207,-4.511 0.106,-6.968c-0.086,-2.114 -0.434,-4.844 -0.738,-7.372c-0.075,-0.199 -0.153,-0.425 -0.235,-0.675c-0.191,-0.575 -0.441,-1.883 -0.234,-4.617c0.051,-0.743 -0.547,-8.301 0.062,-9.426c-0.082,-0.836 0.016,-1.985 0.207,-2.481c-0.273,0.239 -0.875,0.555 -1.914,0.973c-2.168,0.875 -3.203,0.828 -11.304,-0.481c-3.789,-0.613 -6.133,-1.062 -7.485,-1.472c0.164,0.832 -0.082,1.535 -0.898,2.594c0.137,0.058 0.301,0.128 0.484,0.222c0.848,0.414 4.942,1.207 9.098,1.762c1.394,0.187 9.301,0.434 6.281,1.43c-3.75,1.242 -10.594,0.035 -14.23,-1.215c-0.325,-0.11 -0.7,-0.332 -1.051,-0.598c-0.063,0.027 -0.149,0.031 -0.266,0.004c-2.66,-0.621 -3.527,2.109 -4.558,2.348c-0.102,0.379 -0.25,0.8 -0.422,1.211c-0.035,0.113 -0.078,0.234 -0.117,0.355Zm24.754,85.676c-0.083,-0.16 -0.161,-0.324 -0.235,-0.484c-1.305,-3.266 -1.441,-4.141 -1.273,-7.946c0.125,-2.902 0.207,-4.797 0.293,-6.676c0.09,-0.453 0.183,-0.902 0.289,-1.343c0.453,-1.911 0.117,-4.746 -0.434,-9.801c-0.082,-0.734 -0.18,-1.344 -0.293,-1.84c0.235,-0.223 0.446,-0.648 0.766,-1.473c0.586,-1.484 0.777,-3.066 0.504,-4.621l0,-0.004c0.168,-0.289 0.359,-0.832 0.679,-1.789c0.016,-0.05 0.032,-0.097 0.047,-0.14c2.606,-2.692 1.973,-7.082 1.524,-11.11c0.011,-0.039 0.019,-0.078 0.031,-0.117c0.344,-1.367 0.566,-2.715 0.562,-4.047c-0.003,-0.883 -0.097,-1.812 -0.269,-2.879c1.172,-0.078 1.973,-0.367 1.863,-1.043c-0.094,-0.589 0.457,-1.843 -0.23,-1.902c0.254,-0.863 0.379,-3.012 0.437,-7.078c0.098,-6.274 -0.035,-7.766 -0.879,-9.949c-0.105,-0.746 -0.195,-1.403 -0.265,-1.977c0.168,-2.566 0.05,-7.019 0.359,-9.457c0.379,-3.023 -0.742,-2.527 -1.078,-3.434c-0.066,-0.175 -0.129,-0.335 -0.188,-0.476c0.258,-0.344 0.297,-1.059 0.11,-2.117c-0.184,-1.028 -0.363,-1.387 -0.516,-1.344l0,-0.004c0.028,-0.133 -0.105,-0.23 -0.355,-0.293c0.058,-0.031 0.113,-0.062 0.168,-0.098c0.109,-0.183 0.23,-0.394 0.367,-0.628c0.059,-0.098 0.152,-0.286 0.281,-0.532c0.024,-0.156 0.043,-0.328 0.07,-0.554c0.211,-1.891 0.02,-4.063 0.688,-5.84c0.195,-0.524 0.426,-2.336 0.527,-4.137c0.016,-0.293 0.035,-0.57 0.055,-0.828c-0.055,-0.449 -0.133,-0.832 -0.223,-1.106c0.453,-0.421 0.782,-1.121 1.012,-1.804c0.531,-1.071 1.023,-2.465 1.07,-3.613c0.098,-0.219 0.192,-0.422 0.289,-0.594c0.293,-0.543 0.547,-1.063 0.739,-1.594c1.09,-1.602 1.308,-4.93 0.422,-6.699c-0.465,-0.926 -0.465,-0.926 -0.672,-0.989c-0.024,-0.007 -0.051,-0.035 -0.082,-0.085c-0.063,-1.637 -0.254,-3.297 -0.532,-4.926c0.485,-0.172 0.954,-0.367 1.407,-0.578c1.14,-0.547 2.16,-0.598 3.168,-0.727c0.703,-0.09 4.586,-0.203 5.242,-0.531c2.281,1.484 5.465,0.176 7.25,-0.055c3.551,-0.461 6.472,-0.601 9.66,-2.328c2.312,-1.254 10.637,-2.848 14.617,-3.328c1.203,0.832 2.895,0.969 4.309,0.773c0.179,0.114 0.379,0.254 0.582,0.414c0.094,0.059 0.238,0.172 0.504,0.375c0.426,0.325 0.84,0.664 1.269,0.985c0.922,0.226 1.949,0.23 2.926,0.027c0.043,-0.031 0.086,-0.055 0.129,-0.074c0.496,-0.246 0.988,-0.524 1.461,-0.824c0.144,-0.164 0.312,-0.332 0.5,-0.496c0.555,-0.493 1.055,-1.012 1.558,-1.551c0.09,-0.094 0.188,-0.199 0.293,-0.313c0.004,-0.004 0.004,-0.008 0.008,-0.008c0.008,0 0.012,0 0.016,0c3.461,0.993 3.461,0.993 4.031,1.215c0.313,0.125 0.84,0.442 1.168,0.711c0.137,0.114 0.301,0.219 0.473,0.301c-0.199,1.356 0.461,3.121 0.914,4.199c0.664,1.578 1.586,3.305 3.183,4.067c3.082,1.468 6.5,1.804 9.747,1.015c3.128,-0.758 5.605,-4.027 6.507,-7.468c1.086,-4.133 -0.98,-10.286 -5.093,-12.543c-3.348,-1.84 -6.45,-2.297 -10.129,-0.332c-0.801,0.425 -1.703,1.109 -2.512,1.933c-0.125,-0.051 -0.266,-0.105 -0.422,-0.164c-0.625,-0.234 -2.078,-0.66 -3.172,-0.594c0.082,-0.562 0.153,-1.125 0.203,-1.695c0.137,-1.566 -1.687,-2.449 -3.398,-2.645c-0.395,-0.109 -1.16,-0.136 -2.84,-0.156c-2.578,-0.035 -3.379,0.043 -5.277,0.539c-0.895,0.231 -1.438,0.379 -1.774,0.52c-1.562,-0.156 -3.105,-0.223 -4.695,-0.133c-1.574,0.086 -4.441,-0.25 -6.371,-0.746c-3.672,-0.949 -11.024,-1.02 -14.496,1.184c-0.934,0.593 -1.602,1.117 -3.442,1.144c-0.648,0.008 -1.117,0.059 -1.433,0.137c-1.18,-0.199 -1.867,-0.235 -3.336,-0.328c-2.047,-0.129 -3.211,-1 -6.473,-0.575c-0.465,0.059 -2.41,0.485 -2.777,0.575l-4.528,-2.305c-0.312,-0.094 -0.628,-0.176 -0.949,-0.238c0.621,-0.246 1.141,-0.532 1.461,-0.825c0.852,-0.777 1.203,-2.507 1.641,-8.058c0.355,-4.504 0.66,-9.074 -1.434,-13.219c-0.371,-0.738 -1.437,-1.758 -2.363,-2.266c-2.559,-1.55 -6.469,-1.832 -13.02,-0.953c-2.878,0.387 -5.359,3.457 -6.242,7.746c-0.629,3.051 0.617,6.77 2.16,9.688c-0.437,0.918 -0.804,1.664 -1.285,2.852c-1.035,2.554 -5.824,5.675 -7.617,8.386c-0.301,0.449 -1.281,1.617 -1.832,2.801c-1.16,1.039 -1.363,3.52 -1.52,4.809c-0.121,0.98 -0.867,3.293 -1.195,5.64c-0.719,5.145 -0.207,10.867 1.766,15.653c2.195,5.339 4.011,11.218 4.617,17.007c0.098,0.957 0.406,2.25 0.977,3.301c-0.391,0.055 -0.446,0.258 -0.403,0.621c-0.5,0.825 -0.769,1.942 -0.988,2.977c-0.844,-0.09 -1.356,0.656 -2.481,1.785c-0.527,0.82 -2.343,3.805 -2.449,4.012c-2.656,5.187 -2.094,9.543 -0.961,15.265c0.18,0.91 0.899,3.223 1.524,4.328c-0.133,1.157 -0.258,2.735 -0.344,4.559c-0.082,1.715 -0.141,2.988 -0.184,3.941c-0.011,0.04 -0.027,0.079 -0.039,0.118c-0.382,1.105 -0.453,2.007 -0.277,2.746c-0.242,0.117 -0.418,0.304 -0.5,0.566c-0.238,0.766 0.738,1.274 1.816,1.465c-0.168,1.828 0.332,5.426 0.243,7.457c-0.172,4.051 -0.375,4.945 -1.891,8.367c-0.773,1.742 -1.399,3.477 -1.563,4.281l-0.003,0c-0.075,0.137 -0.145,0.29 -0.207,0.454c-0.348,0.894 -1.192,2.66 -1.883,3.921c-2.207,4.043 -4.637,12.965 -1.075,16.895c0.219,0.246 0.34,2.039 0.887,5.52c0.356,2.269 0.731,6.05 0.832,8.402c0.074,1.625 0.231,2.625 0.242,3.43c-0.082,0.23 -0.093,0.523 -0.078,0.804c-0.004,0.055 -0.011,0.114 -0.015,0.176c0,0 0,0.004 0,0.008c-0.039,0.164 -0.106,0.609 -0.172,1.148c-0.614,1.707 -3.203,8.117 -2.735,9.832c0.649,2.379 4.157,2.77 6.141,3.016c3.141,0.394 3.141,0.394 4.32,1.18c1.172,0.781 1.739,0.906 4.196,1.16c0.179,0.144 1.332,0.883 2.214,0.914c0.395,0.015 1.387,0.121 2.29,-0.227c0.464,0.004 0.867,-0.113 1.32,-0.133c2.902,-0.003 5.918,-0.554 7.551,-2.632c1.476,-1.891 0.449,-3.352 -1.586,-4.254c-0.789,-1.016 -2.625,-2.621 -4.043,-2.137c-1.371,-0.883 -2.707,-2.535 -4.961,-4.352c-1.715,-1.367 -3.309,-2.96 -4.481,-4.293c-0.433,-1.39 -1.117,-3.82 -1.257,-7.39c-0.192,-4.84 -0.059,-5.535 0.859,-7.84c0.824,-2.059 2.16,-7.082 2.465,-12.312c0.144,-2.516 0.445,-4.704 0.551,-6.036c1.316,-0.89 2.355,-1.808 3.175,-2.73c-1.086,4.348 -1.476,10.98 0.078,14.234c1.184,2.469 2,3.637 2.207,6.344c0.172,2.25 1.731,6.18 1.02,11.078c-0.172,0.301 -0.305,0.543 -0.383,0.703c-0.543,1.117 -1.027,5.379 -1.387,6.301c-0.48,1.234 -0.554,2.535 -0.046,3.734c0.574,1.176 5.277,1.758 6.941,1.332c1.23,-0.32 5.129,0.098 6.27,0.594c0.503,0.219 0.546,0.824 1.121,1.008c1.574,1.094 2.238,1.254 4.316,1.055c0.418,-0.043 1.512,0.051 1.945,0.211c0.926,0.34 2.938,0.875 4.047,-0.746c0.028,-0.043 0.094,-0.032 0.141,-0.047c1.883,-1.285 2.008,-2.016 2.172,-3.274c-0.086,-0.109 -0.094,-0.566 -0.125,-0.75c-0.207,-1.219 -1.063,-1.39 -2.067,-2.004c-0.703,-0.429 -1.461,-0.617 -2.281,-0.715c-0.387,-0.347 -0.773,-0.691 -1.168,-1.027c-0.605,-0.512 -2.629,-2.476 -3.375,-2.805c-0.57,-0.246 -2.547,-1.968 -3.73,-2.695c-0.45,-0.277 -1.012,-1.152 -1.496,-2.113Zm-12.614,-110.797c-0.394,-0.586 -1.191,-0.883 -1.383,0.012c-0.226,1.078 1.016,2.492 1.875,2.976c2.907,1.641 -0.003,-2.261 -0.492,-2.988Zm7.43,17.625c0.277,-0.016 0.668,-0.043 1.125,-0.074c-0.172,-0.586 -0.262,-1.699 -0.258,-3.262c0.004,-2.32 -0.14,-5.648 -1.586,-7.625c-0.375,-0.512 -1.047,-1.434 -1.465,-2.168c-0.457,0.047 -0.875,0.008 -1.148,-0.148c-1.145,-0.649 0.258,-1.36 0.91,-1.496c0.055,-0.012 0.106,-0.024 0.156,-0.036c0.172,-0.019 0.352,-0.05 0.535,-0.089c0.235,-0.196 0.477,-0.352 0.606,-0.422c1.117,-0.61 2.5,-0.789 3.137,-1.989c0.125,-0.23 0.308,-0.464 0.504,-0.632l0.003,-0.004c0.008,-0.028 0.02,-0.051 0.028,-0.078c0.582,-0.473 1,-1.11 1.058,-1.922c0.047,-0.7 1.957,-3.789 2.68,-2.344c0.121,0.238 -0.086,0.644 -0.644,1.258c-0.711,0.785 -0.801,1.015 -0.684,1.73c0.156,0.938 -0.688,1.781 -1.613,2.387c-0.36,1.285 -2.11,2.578 -3.637,3.074c-0.215,0.16 -0.473,0.305 -0.75,0.418c0.586,0.598 1.238,1.598 1.613,2.524c0.524,1.293 0.981,4.015 1.141,6.789c0.121,2.093 0.191,3.347 0.109,3.98c0.981,-0.07 2.117,-0.148 3.074,-0.156c0.868,-1.813 0.985,-4.176 0.477,-6.102c0.449,-0.504 0.773,-1.172 0.961,-1.824c0.422,-1.508 0.602,-4.437 0.117,-6.43c0.152,-0.148 0.301,-0.312 0.445,-0.48c0.918,-0.527 1.758,-1.391 2.137,-2.258c0.379,-0.859 0.77,-2.433 0.699,-3.699c0.055,-0.031 0.11,-0.047 0.168,-0.043c0.215,-0.567 0.528,-1.477 0.852,-2.266c0.125,-1.433 -0.063,-2.828 -0.586,-3.672c0.035,-0.742 -0.012,-1.515 0,-2.074c0.027,-1.48 0.004,-2.734 -0.332,-3.98c0.16,-0.274 0.297,-0.575 0.414,-0.891c-4.223,1.336 -9.395,1.168 -13.355,-0.281c-0.04,-0.016 -0.176,-0.086 -0.372,-0.192c0.934,0.965 1.735,1.711 2.567,2.223c1.965,1.211 1.223,1.559 4.269,1.164c1.282,-0.168 5.422,0.426 2.258,1.598c-3.633,1.34 -6.289,1.164 -10.441,-3.649c0.344,3.614 -1.426,8.02 -3.66,10.7c0.632,0.3 3.273,1.238 3.425,0.304c0.047,-0.293 0.254,-0.73 0.5,-1.039c-0.253,-0.191 -0.152,-0.484 0.649,-0.812c0.668,-0.274 2.355,-2.27 2.512,-0.606c0.078,0.856 -0.536,1.324 -1.258,1.528c0.043,0.07 0.082,0.14 0.113,0.199c0.34,0.648 1.039,1.597 1.551,2.109c0.48,0.481 1.738,1.242 0.586,1.348c-1.078,0.101 -2.555,-1.262 -3.203,-2.57c-0.313,0.734 -1.246,1.152 -2.215,1.261c0.262,0.242 0.597,0.614 0.914,1.028c0.801,1.046 1.754,1.781 2.855,2.461c-1.336,1.046 -2.765,-0.493 -3.535,-1.555c-0.105,-0.145 -1.031,-1.344 -1.023,-1.922c-0.914,-0.063 -1.715,-0.426 -1.875,-1.082c-0.055,-0.207 -0.098,-0.399 -0.11,-0.52c-0.238,0.278 -0.484,0.539 -0.73,0.774c-0.305,0.289 -0.563,0.535 -0.785,0.742c0.129,0.731 0.242,1.91 0.41,3.777c0.09,1.043 1.195,5.969 -0.145,4.301c-0.32,-0.406 -0.851,-2.597 -1.179,-4.875c-0.141,-1.008 -0.242,-1.785 -0.293,-2.383c-0.145,-0.066 -0.199,-0.332 -0.293,-0.765c-0.172,-0.793 0.105,-1.41 0.91,-2.02c2.012,-1.527 3.668,-5.879 3.902,-8.324c0.028,-0.305 0.106,-2.48 0.379,-3.84c-0.351,0.086 -0.758,0.18 -1.223,0.281c-1.886,0.407 -3.75,0.766 -5.66,1.016c1.832,-1.371 3.481,-2.371 5.828,-2.672c0.391,-0.051 2.465,-0.305 3.786,0.227c5.222,2.097 10.339,1.23 15.386,-0.559c0.286,-0.101 0.543,-0.191 0.778,-0.262c-0.114,-0.019 -0.231,-0.039 -0.344,-0.062c-1.137,-0.211 -2.426,-0.266 -2.863,-0.121c-1.243,0.41 -0.973,-0.637 0.285,-0.801c0.726,-0.094 2.316,0.039 3.535,0.297l1.387,0.297c0.3,0.035 0.429,0.144 0.847,0.09c0.239,-0.032 6.075,-0.961 5.703,-0.371c4.77,0.585 9.54,0.187 13.356,-2.176c2.687,-1.664 5.133,-2.59 9.141,-2.809c1.683,-0.09 3.523,-0.324 4.902,-0.461l0.004,0c0.465,-0.703 2.488,-1.418 3.465,-1.082c0.523,0.762 1.23,1.356 2.09,1.649c0.312,0.078 0.546,0.132 0.746,0.171c0.004,0 0.011,0 0.015,0c0.031,0.004 0.059,0.008 0.09,0.012c0.766,0.07 1.879,-0.074 2.727,-0.527c0.007,0.008 0.011,0.015 0.019,0.023c0.094,0.137 0.199,0.262 0.32,0.379c0.04,0 0.083,0.004 0.125,0.012c0.25,0.031 0.836,0.266 1.297,0.519c0.243,0.133 0.5,0.286 0.762,0.407c0.027,0.004 0.059,0.007 0.09,0.011c0.019,0.02 0.035,0.039 0.055,0.055c0.414,0.172 0.839,0.238 1.273,0.004c0.246,-0.137 0.621,-0.371 0.832,-0.52c0.488,-0.355 0.984,-0.722 1.492,-1.058c-1.14,-0.297 -1.961,-0.477 -2.219,-0.481c-1.398,-0.019 -1.937,-1.437 -1.582,-2.675c0.622,-2.161 1.997,-2.536 4.032,-2.012c0.433,0.113 0.758,0.195 1.058,0.277c-0.015,-0.058 -0.027,-0.117 -0.039,-0.179c-0.336,-1.829 -0.336,-1.829 -0.433,-1.805c-0.055,0.012 -0.11,0.023 -0.168,0.039c-0.18,-0.129 -0.395,-0.18 -0.598,-0.164c-0.094,-0.055 -0.191,-0.098 -0.281,-0.129c-0.731,-0.25 -1.567,-0.363 -2.41,-0.348c-0.59,0.063 -1.176,0.16 -1.77,0.285c-0.453,0.094 -0.781,0.165 -1.043,0.219c-0.031,0.012 -0.066,0.024 -0.094,0.035c-0.277,0.11 -0.582,0.207 -0.675,0.219c-0.09,0.008 -0.25,0.051 -0.348,0.094c-0.18,0.078 -0.18,0.078 -0.848,0.285c-0.668,0.207 -0.668,0.207 -1.039,0.328c-0.008,0.004 -0.019,0.008 -0.031,0.012c-0.27,0.078 -0.551,0.183 -0.82,0.312c-0.516,-0.089 -1,-0.226 -1.43,-0.418c-0.727,-0.324 -1.801,-0.195 -2.469,-0.199c-0.203,-0.004 -0.394,-0.008 -0.566,-0.015c-2.227,0.539 -6.067,-0.653 -13.395,0.261c-4.097,0.512 -9.465,-1.562 -14.797,0.465c-0.89,0.336 -2.957,1.168 -4.343,1.344c1.164,0.683 1.703,1.215 -0.008,0.711c-3.512,-1.043 -9.527,-1.449 -13.188,-0.973l-3.867,1.469c-0.738,-0.582 -3.437,-2.43 -4.402,-2.856c-2.207,-0.964 -12.317,-2.886 -13.137,5.59c-0.168,1.707 -1.062,0.879 -1.258,-0.484c-0.301,-2.07 2.977,-7.274 7.586,-7.586c0.293,-0.059 4.633,-0.41 6.324,0.109c1.129,0.344 1.489,0.453 2.391,0.996c0.289,-0.867 0.852,-1.668 1.863,-2.722c0.047,-0.059 0.106,-0.121 0.18,-0.188c0.047,-0.047 0.094,-0.097 0.145,-0.144c0.382,-0.391 1.394,-1.77 2.265,-2.227c-0.004,-0.004 -0.004,-0.008 -0.008,-0.012c-0.39,-0.25 -0.918,-0.601 -1.632,-1.085c-2.36,-1.586 -3.825,-2.833 -2.637,-6.434l0.75,-2.266c-0.188,1.723 -0.945,4.493 0.211,5.664c0.738,0.754 0.738,0.754 1.34,1.094c0.75,0.422 2.789,1.375 3.089,2.598c5.133,0.246 5.915,-1.625 6.543,-6.551c0.973,-7.629 1.02,-15.496 -8.253,-16.375c-4.993,-0.477 -9.536,0.734 -10.965,5.211c-1.082,3.375 -1.559,3.902 0.75,7.07c0.773,1.067 2.215,8.356 0.586,5.856c-0.004,0 -0.004,-0.004 -0.004,-0.008c-0.02,0.035 -0.039,0.07 -0.055,0.105c-0.328,0.606 -0.945,2.77 -2.051,3.86c-1.855,1.832 -2.742,1.742 -4.672,3.953c-1.566,1.801 -2.472,3.055 -3.558,5.211c-0.09,0.179 -0.239,0.347 -0.379,0.488c-0.078,0.152 -0.168,0.313 -0.266,0.477c-0.648,1.09 -0.648,1.09 -1.133,3.722c-0.113,0.606 -0.226,1.895 -0.457,2.606c-1.351,4.101 -0.972,10.597 0.657,14.519c2.242,5.379 3.699,11.328 4.507,17.117c0.418,2.997 0.958,5.309 3.508,6.911c0.657,0.132 1.426,0.297 2.324,0.484c3.411,0.715 7.516,1.301 9.122,1.301c0.074,0 0.168,-0.004 0.277,-0.008Zm9.023,-27.762c-0.156,-1.277 -1.847,0.59 -2.222,1.129c-0.907,1.309 -0.907,1.309 -1.45,1.824c-0.855,0.805 0.254,0.93 1.098,0.469c1.203,-0.66 2.684,-2.535 2.574,-3.422Zm59.903,-17.226c-1.102,-0.309 -2.617,-0.692 -3.844,-0.969c-2.973,-0.676 -2.973,-0.676 -3.254,0.047c-0.184,0.48 -0.223,0.734 -0.109,0.75c2.472,0.375 5.035,0.937 7.406,1.73c0.769,0.254 2.73,0.883 3.344,1.856c0.457,-0.043 0.937,0.222 1.109,0.75c0.621,1.91 -0.699,7.379 7.606,8.078c2.105,0.176 2.96,0.527 5.257,-0.809c2.739,-1.597 3.883,-6.648 3.637,-9.097c-0.289,-2.903 -2.523,-5.211 -5.055,-6.672c-3.218,-1.86 -7.336,-1.106 -10.058,1.445c-0.063,0.172 -0.184,0.277 -0.348,0.34c-0.64,0.664 -1.191,1.441 -1.617,2.312c-0.059,0.114 -0.141,0.235 -0.238,0.34c0,0.008 0,0.012 0,0.02c-0.059,0.496 -0.118,0.558 -0.578,0.64c-0.395,0.067 -0.938,-0.046 -2.325,-0.484c-0.246,-0.078 -0.566,-0.172 -0.933,-0.277Zm-83.461,3.015c-2.59,-0.554 -3.387,1.028 -4.903,3.004c-0.398,0.524 -1.5,2.715 -0.488,2.965c0.41,0.098 0.633,-0.066 1.113,-0.84c0.934,-1.5 2.454,-3.406 4.207,-3.867c1.254,-0.324 1.45,-0.969 0.071,-1.262Zm14.019,0.114c1.004,-0.793 0.321,-0.508 -0.64,-0.387c-3.168,0.414 -5.895,2.086 -8.477,3.828c1.184,0.027 2.172,-0.379 3.223,-0.941c1.004,-0.536 2.582,-1.188 3.504,-1.453c0.922,-0.266 1.996,-0.739 2.39,-1.047Zm12.641,-1.332c-1.477,-0.348 -3.039,-0.395 -4.41,0.296c-0.731,0.372 -0.653,0.622 -0.266,0.79c-0.031,0.175 -0.043,0.382 -0.027,0.613c0.117,1.574 -0.891,2.371 -2.383,2.656c-1.656,0.316 -0.07,1.301 1.035,0.961c1.699,-0.527 2.992,-2.109 2.539,-3.984c0.418,0.047 0.805,0.058 0.965,0.054c1.805,-0.058 3.828,0.168 5.285,1.317c0.403,0.32 3.156,1.062 2.715,0.386c-1,-1.539 -3.723,-2.687 -5.453,-3.089Zm24.644,-3.118l1.122,-0.902c-2.364,0.305 -4.473,1.371 -6.465,2.637c-2.035,1.301 -4.414,1.91 -6.825,1.941c-1.273,0.016 -1.464,0.086 -1.406,0.543c0.059,0.449 0.496,0.508 3.016,0.406c3.879,-0.16 7.555,-2.211 10.558,-4.625Zm-8.304,-1.027l1.461,-0.66l-1.969,0.105c-2.637,0.137 -5.266,0.961 -6.606,3.301c-0.531,0.934 -0.894,1.227 -1.617,1.32c-1.257,0.165 -1.047,1.43 0.34,0.997c1.254,-0.395 2.012,-0.86 2.527,-2.075c0.977,-2.304 3.793,-2.054 5.864,-2.988Zm2.601,-3.691c0.875,0.156 1.688,0.324 2.387,0.476c1.148,0.278 4.898,-0.652 8.469,-0.359c1.433,0.117 5.359,0.09 7.629,0.359c1.019,-0.293 2.496,-0.414 3.687,-0.023c0.41,0.133 1.008,0.219 1.656,0.25c0.45,-0.219 1.04,-0.328 1.313,-0.367c2.195,-0.325 4.461,-1.157 6.727,-1.016c1.785,-0.133 3.191,0.445 3.652,2.961c0.098,0.531 0.109,0.988 0.062,1.355c0.598,0.184 1.403,0.442 2.653,0.844c1.14,0.363 1.914,0.609 2.433,0.797c0.18,-0.684 0.528,-1.375 0.977,-2.035c-0.574,-0.156 -1.762,-0.223 -2.625,-0.473c-0.004,0.035 -0.012,0.07 -0.02,0.11c-0.011,-0.043 -0.023,-0.086 -0.031,-0.125c-0.293,-0.09 -0.547,-0.2 -0.719,-0.348c-0.097,-0.024 -0.152,-0.094 -0.187,-0.223c-0.063,-0.113 -0.082,-0.246 -0.059,-0.394c-0.004,-0.039 -0.008,-0.086 -0.011,-0.129c-0.024,-0.309 -0.141,-1.41 -0.133,-2.266c-0.367,-0.613 -0.875,-1.109 -1.653,-1.422c-0.382,0.067 -1.101,0.047 -2.523,-0.035c-2.301,-0.129 -3.18,-0.07 -5.438,0.352c-0.41,0.078 -0.761,0.144 -1.054,0.199c-3.149,1.586 -7.66,0.937 -10.848,-0.027c-4.07,-1.235 -11.965,-0.758 -15.719,1.312c-0.222,0.121 -0.425,0.192 -0.625,0.227Zm-9.394,0.23c-1.949,-0.191 -3.899,-0.269 -5.735,-0.031c-1.843,0.238 -2.382,0.055 -2.086,-0.231l0.004,-0.003c-0.988,-0.243 -1.945,-0.657 -2.914,-1.083c-2.707,-1.183 -6.031,-1.316 -8.953,-0.363c-0.148,0.164 -0.304,0.328 -0.465,0.492c0.758,-0.058 1.786,0.317 2.211,0.528c0.934,0.457 2.192,1.39 3.153,2.422c2.023,0.097 4.605,-0.254 7,0.238c0.172,0.035 0.382,0.101 0.621,0.183c1.984,-0.136 5.07,-0.671 5.761,-1.277c0.407,-0.359 0.879,-0.648 1.403,-0.875Zm-20.91,-0.207c-0.34,0.543 -0.727,1.219 -1.102,1.852c0.012,0.007 0.027,0.019 0.043,0.027l1.332,0.855c0.367,-0.089 1.348,-0.691 1.813,-0.75c0.726,-0.093 1.218,-0.156 1.57,-0.191c-0.395,-0.316 -0.813,-0.586 -1.27,-0.777c-0.476,-0.203 -1.964,-0.469 -2.386,-1.016Zm-5.891,-8.492c-0.094,-0.223 -1.223,-2.164 -1.223,-0.93c0,0.238 0.411,1.664 0.914,3.168c0.915,2.731 0.915,2.731 1.2,3.781c0.648,2.379 0.453,-1.585 0.289,-2.25c-0.602,-2.402 -0.602,-2.402 -1.18,-3.769Z"/></svg>