<?xml version="1.0" encoding="UTF-8" standalone="no"?><!DOCTYPE svg PUBLIC "-//W3C//DTD SVG 1.1//EN" "http://www.w3.org/Graphics/SVG/1.1/DTD/svg11.dtd"><svg width="100%" height="100%" viewBox="0 0 413 74" version="1.1" xmlns="http://www.w3.org/2000/svg" xmlns:xlink="http://www.w3.org/1999/xlink" xml:space="preserve" xmlns:serif="http://www.serif.com/" style="fill-rule:evenodd;clip-rule:evenodd;stroke-linejoin:round;stroke-miterlimit:1.41421;"><path d="M299.713,18.379c-0.129,0.242 -0.285,0.527 -0.531,0.981c-1.5,2.726 -2.141,5.847 -2.453,8.918c-0.715,7.023 -1.317,9.25 -1.129,17.8c0.031,1.375 1.742,7.2 2.214,6.797c0.356,0.598 0.758,1.172 1.176,1.742c-1.343,0.262 -3.336,0.09 -5.691,1.2c-0.539,0.254 -2.875,-0.231 -3.266,-0.403c-2.043,-0.91 -5.254,-1.679 -7.289,-1.5c-0.933,0.082 -5.242,0.957 -6.746,1.031c-2.051,0.102 -12.84,3.071 -16.777,4.196c-0.117,-0.227 -0.242,-0.442 -0.328,-0.61c-0.246,-0.472 -0.485,-1.226 -0.536,-1.668c-0.085,-0.75 -0.175,-0.828 -1.308,-1.144c-0.942,-0.262 -1.152,-0.32 -1.359,-0.328c-0.016,-0.012 -0.032,-0.024 -0.047,-0.031c-0.758,-0.411 -2.016,0.125 -2.715,0.855c-0.309,-0.473 -0.766,-0.742 -1.27,-1.148c-1.211,-0.985 -2.168,-0.782 -2.648,0.562c-0.254,0.719 -0.313,0.875 -0.524,1.156c-0.484,-0.121 -1.41,-0.214 -2.136,-0.214c-1.602,0 -2.727,2.605 -1.754,3.636c-0.18,0.203 -0.34,0.414 -0.461,0.59c-0.442,0.637 -0.195,2.008 0.387,2.941c-1.321,1.813 0.582,2.954 1.617,4.29c0.617,0.796 0.867,0.957 1.437,0.902c0.024,-0.004 0.047,-0.008 0.071,-0.012c0.164,0.352 0.636,0.387 2.589,0.535c1.418,0.11 3.274,0.118 4.121,0.024c0.165,0.09 0.52,0.101 1.215,0.125c0.782,0.027 3.09,-0.11 5.133,-0.301c1.391,-0.133 2.703,-0.297 3.485,-0.426c2.308,0.196 4.281,0.52 4.824,0.731c0.539,0.207 4.375,0.398 5.656,0.523c1.281,0.129 2.867,0.434 3.531,0.676c2.801,1.031 6.485,0.555 9.363,0.183c2.965,-0.378 2.965,-0.378 3.676,-0.367c0.723,0.012 1.367,-0.218 1.938,-0.586c2.347,0.477 5.941,0.95 6.929,0.953c1.254,0.012 2.629,1 4.508,1.059c3.231,0.106 6.637,-0.699 9.832,-0.625c3.055,0.074 6.262,0.098 7.164,-0.055c2.637,-0.437 7.563,-2.656 7.621,-5.918c0.184,-0.082 0.364,-0.183 0.528,-0.296c0.023,0.07 0.051,0.14 0.074,0.21c0.004,0.012 0.008,0.028 0.016,0.043c1.187,1.758 2.047,3.188 4.777,3.938c0.594,0.16 1.227,0.351 1.754,0.523c0.855,0.036 1.719,-0.011 2.543,-0.129c1.504,0.258 3.266,0.223 4.398,0.047c0.282,-0.043 0.887,-0.172 1.543,-0.371c5.59,1.274 11.77,1.211 17.461,1.199c2.242,-0.003 4.524,-0.132 6.765,-0.476c2.047,-0.106 4.449,-0.266 5.833,-0.453c1.308,-0.18 5.246,-0.406 6.496,-0.344c0.605,0.027 1.215,0.047 1.719,0.047c2,0.203 4.531,0.773 5.847,0.93c2.731,0.324 6.524,0.347 9.098,0.718c0.871,0.129 2.129,0.301 2.617,0.328c1.563,0.817 3.961,0.661 5.863,0.602c0.239,0.102 0.5,0.199 0.774,0.293c1.332,0.449 3.93,1.125 4.348,-0.215c1.316,-1.84 -1.723,-4.492 -2.5,-4.887c-0.493,-0.25 -0.75,-0.093 -0.961,-0.234c-0.391,-0.101 -0.493,-0.281 -0.661,-0.691c-0.113,-0.278 -1.203,-1.278 -1.941,-1.758c-1.359,-0.879 -5.879,-1.508 -6.223,-1.543c-1.234,-0.117 -2.304,-0.848 -2.714,-1.926c-0.196,-0.113 -2.442,-4.324 -2.614,-4.422c-3.187,-2.676 -5.41,-2.965 -6.871,-2.523c-0.015,0.023 -0.086,0.074 -0.179,0.14c-0.454,-1.152 -1.45,-1.996 -2.52,-2.738c-2.863,-1.98 -4.887,-0.117 -6.957,2.492c-0.539,0.68 -1.211,1.325 -1.492,1.426c-0.164,0.063 -0.297,0.133 -0.403,0.207c-0.386,-0.144 -1.066,-0.301 -2.253,-0.558c-2.762,-0.598 -12.891,-2.735 -13.375,-2.672c-0.848,-1.496 -4.201,-2.207 -5.454,-2.34c-1.508,-0.156 -3.403,-0.637 -4.187,-0.75c-0.617,-1.078 -1.699,-2.028 -2.699,-2.547c-0.801,-0.414 -1.637,-0.551 -4.211,-0.68c-1.426,-0.074 -2.219,-0.109 -2.676,-0.078c-0.191,-0.121 -0.5,-0.137 -0.801,-0.066c0.031,-0.668 0.024,-1.27 0.024,-1.625c0,-4.825 -0.332,-10.075 -2.77,-14.352c-0.156,-0.273 -0.297,-0.48 -0.418,-0.633c0.629,-0.304 1.211,-0.8 1.504,-1.386c0.031,-0.004 0.063,-0.008 0.094,-0.016c1.668,-0.305 -0.285,-3.117 -0.817,-3.73c-0.937,-1.079 -1.25,-1.665 -1.496,-2.829c-0.144,-0.671 -0.425,-1.382 -0.754,-1.363c0.032,-0.117 0.059,-0.254 0.082,-0.406c0.286,-2.078 0.364,-4.07 0.164,-6.172c-0.718,-7.527 -7.988,-9.617 -13.796,-12.59c-0.274,-0.23 -0.586,-0.387 -0.926,-0.484c-0.586,-0.309 -0.641,-0.309 -1.016,-0.309c-0.246,0 -0.351,0.071 -0.371,0.188c-1.488,0.097 -3.141,0.757 -4.211,1.148c-2.125,0.77 -4.859,2.867 -5.715,4.992c-0.011,0.032 -0.023,0.059 -0.031,0.09c-0.434,0.059 -0.887,0.418 -1.316,0.695c-0.633,0.411 -1.758,0.899 -2.496,1.09c-1.782,0.465 -1.235,1.524 -1.688,3.012c-0.117,0.387 -0.453,0.801 -0.746,0.922c-0.266,0.113 -0.629,0.5 -0.969,0.984c-0.418,-0.031 -0.695,0.477 -0.656,1.129c-0.25,0.52 -0.398,1.012 -0.348,1.301c0.012,0.062 0.024,0.113 0.043,0.16c-0.41,0.402 -0.761,0.836 -0.914,1.164c-0.383,0.797 -0.523,1.098 -0.738,1.504Zm31.297,15.27c-0.055,0.093 -0.113,0.191 -0.172,0.289c-2.094,3.535 -6.527,6.367 -10.219,7.925c-0.164,0.071 -0.336,0.122 -0.496,0.141c-0.059,0.027 -0.129,0.051 -0.203,0.07c0.133,0.438 0.246,0.914 0.297,1.204c0.566,3.031 1.879,7.027 3.93,10.085c0.769,1.262 1.734,2.465 2.257,3.532c0.086,0.176 0.344,0.605 0.653,1.097c1.468,1.282 3.191,2.571 3.808,4.438c0.032,0.094 0.063,0.183 0.094,0.273c0.25,0.528 0.473,1.102 0.652,1.684c0.602,1.312 1.371,2.348 2.645,3.148c0.988,0.274 2.121,0.352 3.492,0.289c2.906,-0.132 2.906,-0.132 3.535,-0.011c0.137,0.023 0.25,0.058 0.34,0.093c1.246,-0.211 2.488,-0.359 3.731,-0.371c0.023,-0.015 0.054,-0.031 0.086,-0.047c0.046,0.016 0.093,0.032 0.14,0.047c1.133,0 2.27,0.121 3.41,0.414c1.078,0.278 2.668,0.547 3.532,0.598c0.203,0.016 0.437,0.035 0.691,0.063c4.738,0.351 9.503,0.453 14.113,-0.344c0.477,-0.082 0.948,-0.168 1.417,-0.25c0.767,-0.004 1.54,-0.078 1.833,-0.078c1.672,0 2.484,0 3.27,-0.028c1.558,-0.218 3.492,-0.359 5.129,-0.492c5.465,-0.18 9.39,0.879 9.582,0.992c2.164,1.262 9.691,0.661 12.152,1.575c0.148,0.054 0.453,0.183 0.731,0.343c0.828,0.086 1.632,-0.078 2.46,-0.289c0.969,-0.246 1.301,-0.289 1.832,-0.125c0.028,0.02 0.059,0.035 0.09,0.055c1.016,0.555 2.879,1.234 4.043,1.019c0.016,-0.003 0.032,-0.007 0.047,-0.007c0.152,-0.106 0.281,-0.246 0.375,-0.434c0.027,-0.055 0.055,-0.105 0.086,-0.148c-0.039,-0.676 -0.984,-1.739 -2.348,-2.25c-0.332,-0.075 -0.25,0.461 -0.757,0.425c-0.161,-0.054 -0.332,-0.043 -0.606,-0.183c-0.004,-0.059 -0.008,-0.117 -0.019,-0.18c-0.176,-1.14 -0.528,-1.738 -1.567,-2.301c-0.754,-0.41 -1.566,-0.718 -2.39,-0.855c-1.27,-0.453 -2.633,-0.695 -3.481,-0.789c-1.867,-0.211 -4.332,-2.137 -5.027,-3.856c-0.555,-1.367 -1.348,-2.164 -2.406,-3.129c-2.321,-2.027 -4.153,-1.437 -5.684,0.711c-1.402,1.621 -2.977,2.59 -4.895,2.868c-1.05,0.347 -2.097,0.668 -3.222,0.668c-0.684,0 -2.883,-0.215 -4.88,-0.481c-3.632,-0.476 -3.632,-0.476 -7.335,-1.234c-2.035,-0.418 -6.482,-0.86 -6.555,-1.188c-0.261,-0.117 -0.492,-0.265 -0.601,-0.418c-1.451,-1.953 -4.387,-2.32 -6.594,-2.32c-3.535,0 -7.231,0.355 -10.676,1.152c-0.207,0.047 -0.89,0.121 -1.418,0.098c0.125,0.277 0.27,0.578 0.418,0.875c0.824,1.656 0.824,1.656 0.238,1.656c-0.32,0 -0.8,-0.25 -1.07,-0.555c-1.562,-1.785 -3.18,-4.804 -3.558,-7.175c-0.129,-0.821 0.468,-2.703 1.226,-1.27c0.18,0.344 0.18,0.344 0.453,1.531c0.153,0.657 0.594,1.649 0.985,2.207c0.703,1.016 0.703,1.016 0.8,1.481c0.024,0.105 0.11,0.332 0.231,0.625c0.039,-0.024 0.078,-0.047 0.121,-0.07c0.476,-0.278 0.984,-0.52 1.519,-0.735c-1.253,-0.886 -2.226,-3.121 -2.527,-3.945c-0.359,-0.984 -0.574,-1.848 -0.594,-2.336c-0.132,-0.172 -0.05,-0.695 0.16,-2.07c0.29,-1.868 0.297,-2.942 0.043,-6.543c-0.218,-3.157 -0.3,-7.016 -1.757,-9.926c-0.243,-0.481 -0.375,-0.988 -0.395,-1.363c-0.215,0.054 -0.426,0.086 -0.621,0.086c-0.129,0 -0.238,-0.004 -0.332,-0.024c-0.547,0.762 -1.23,1.442 -1.855,1.992c-0.633,0.559 -1.618,1.41 -2.387,2.071Zm-11.012,15.05c-0.047,0.211 -0.105,0.426 -0.176,0.633c-0.882,0.946 -1.246,3.395 0,5.637c0.254,0.016 0.453,0.059 0.618,0.125c0.507,0.031 1.023,0.105 1.554,0.238c1.352,0.328 2.828,2.184 0.559,1.84c-2.668,-0.402 -4.848,-0.141 -6.918,0.527c-0.735,0.239 -4.102,3.149 -3.973,2.618c0.141,-0.598 0.328,-1.188 0.57,-1.645c-0.058,0.016 -0.125,0.02 -0.203,0.016c-2.968,-0.102 -5.55,-0.364 -7.187,-0.364c-1.512,0 -4.977,-0.289 -6.063,0.305c-1.773,0.086 -4.851,3.977 -5.582,3.809c-0.582,-0.137 -0.582,-0.137 -1.496,-0.543c-0.5,-0.227 -6.89,-2.078 -11.023,-1.95c-5.16,0.161 -6.992,0.247 -9.364,1.192c-1.894,0.754 -4.093,1.203 -6.242,1.363c-0.004,0 -0.008,0 -0.011,0c-0.071,0.012 -0.153,0.016 -0.247,0.016c-0.785,0.051 -1.566,0.058 -2.316,0.031c-0.219,-0.012 -0.422,-0.019 -0.605,-0.027c-0.012,-0.004 -0.016,-0.004 -0.024,0c-0.254,-0.004 -0.504,-0.02 -0.75,-0.055c-0.808,-0.07 -1.148,-0.172 -1.172,-0.328c0,-0.004 0,-0.008 0,-0.008c-0.289,-0.141 -0.574,-0.324 -0.859,-0.574c-0.102,-0.09 -0.398,-0.582 -0.59,-1.074c-0.808,-0.239 -1.098,-1.344 -1.191,-2.141c-0.129,-1.105 -0.141,-1.121 -1.278,-1.457c-0.386,-0.113 -0.644,-0.195 -0.808,-0.281c-0.485,0.539 -1.141,1.066 -1.407,1.164c-0.382,0.137 -0.972,0.121 -1.242,-0.164c-0.613,0.043 -1.453,-0.281 -1.66,-0.699c-0.238,-0.477 -0.238,-0.477 -0.746,0.343c-0.281,0.449 -0.703,0.867 -0.934,0.922c-0.23,0.059 -0.464,0.035 -0.66,-0.039c-0.207,-0.035 -0.484,-0.098 -0.859,-0.18c-1.441,-0.316 -1.465,-0.312 -1.793,0.219c-0.434,0.715 -0.125,1.184 0.598,1.473c0.422,0.168 1.203,0.957 0.332,1.113c-0.094,0.016 -0.246,0.016 -0.434,0.004c-0.047,0.035 -0.102,0.07 -0.16,0.113c-0.352,0.25 -0.633,0.586 -0.629,0.75c0.008,0.141 0.195,0.696 0.434,1.305c0.218,0.023 0.398,0.156 0.476,0.449c0.027,0.106 -0.012,0.289 -0.097,0.488c0.261,0.696 0.152,0.715 -0.426,0.821c-0.008,0.004 -0.012,0.004 -0.02,0.004c-0.054,0.14 -0.07,0.257 -0.035,0.312c0.215,0.324 1.254,1.473 1.813,2.445c0.101,-0.085 0.242,-0.105 0.433,-0.011c0.246,0.113 0.246,0.113 3.149,0.347c2.589,0.211 2.867,0.231 3.429,0.387c0.375,-0.121 1.074,-0.191 2.43,-0.332c0.949,-0.098 1.969,-0.164 2.75,-0.18c0.105,-0.121 0.504,-0.187 1.125,-0.113c0.445,0.055 1.133,0.078 1.801,0.07c0.093,-0.015 0.183,-0.035 0.265,-0.05c0.578,-0.137 1.899,-0.246 2.934,-0.246c0.926,0 1.394,0.004 1.617,0.078c3.039,-0.055 6.406,0.09 8.848,0.644c3.027,0.692 3.773,1.403 6.867,1.246c3.328,-0.168 6.812,0.414 9.781,-1.359c0.707,-0.426 1.489,-1.035 2.356,-0.914c0.394,0.055 0.394,0.055 -0.75,1.48c-0.137,0.168 -0.278,0.336 -0.426,0.496c0.281,0.047 0.59,0.106 0.926,0.172c2.402,-0.058 6.441,0.246 10.332,1.461c3.933,0.207 8.289,-1.426 11.062,-1.402c1.446,0.012 3.606,0.949 3.996,0.91c3.516,-0.348 6.196,-0.891 6.867,-5.312c0.11,-0.723 0.747,-1.778 1.247,-1.051c0.097,-0.051 0.191,-0.094 0.289,-0.129c-0.325,-0.633 -0.692,-1.192 -1.102,-1.695c-0.16,-0.196 -0.367,-0.446 -0.598,-0.68c-1.351,-1.945 -3.14,-4.016 -4.132,-6.223c-1.313,-1.91 -2.485,-4.097 -3.27,-6.34Zm-16.184,17.086c-0.035,0.004 -0.066,0.016 -0.097,0.032c-1.492,-0.754 -4.785,-0.481 -6.164,0.418c-0.918,0.589 -0.363,1.101 0.476,1.101c1.035,0 1.035,0 2.981,-0.203c0.855,-0.09 1.804,-0.145 2.367,-0.141c0.02,0.262 0.078,0.536 0.176,0.782c0.75,1.937 2.383,3.086 4.441,2.636c1.539,-0.336 -0.34,-0.933 -1.023,-1.332c-0.973,-0.566 -1.602,-1.765 -2.266,-2.652c-0.375,-0.504 -0.676,-0.676 -0.891,-0.641Zm41.036,-3.984c-0.817,0.031 -0.817,0.031 -1.852,-0.246c-1.355,-0.36 -0.922,0.527 -0.078,0.949c0.27,0.137 2.816,0.578 5.664,0.984c5.172,0.735 5.172,0.735 6.862,0.856c2.672,0.195 5.212,-0.238 7.375,-1.84c-4.797,0.434 -9.565,0.617 -14.339,-0.23c-2.816,-0.5 -2.816,-0.5 -3.632,-0.473Zm-31.149,-35.898c-0.011,-0.004 -0.023,-0.004 -0.039,-0.008c-1.84,-0.348 -3.695,-1.246 -5.019,-2.571c-1.977,-1.976 -4.407,-4.16 -5.93,-6.629c-0.773,1.782 -2.082,4.583 -2.512,5.426c-2.304,4.543 -2.195,8.672 -2.062,13.641c0.066,2.562 -0.391,4.594 -0.528,5.601c-0.504,3.79 1.625,9.407 2.641,12.961c0.066,0.09 0.133,0.176 0.199,0.266c0.156,0.102 0.293,0.262 0.399,0.504c0.492,0.598 1.011,1.117 1.554,1.437c0.051,0.028 0.098,0.055 0.141,0.086c3.426,-0.132 6.836,0.25 10.285,1.332c1.5,-1.171 1.149,-1.914 2.906,-2.363c0.235,-0.062 0.637,-0.133 1.118,-0.199c0.25,-0.453 0.757,-0.949 0.98,-0.969c-0.012,-0.582 -0.98,-2.719 0.621,-6.754c0.313,-0.785 0.586,-1.301 0.82,-1.597c-0.261,-1.332 -0.355,-2.649 -0.23,-3.907c-1.422,0.004 -2.922,0.121 -2.668,-1.601c0.012,-0.071 0.02,-0.141 0.027,-0.207c-1,0.668 -1.945,1.261 -2.804,2.183c-0.184,0.2 -0.996,1.243 -1.524,1.301c-0.262,0.246 -0.812,0.176 -1.004,-0.207c-0.539,-1.086 -2.09,0.715 -2.218,1.305c-0.024,0.101 -0.047,0.195 -0.071,0.281c1.082,0.68 2.117,1.512 2.969,2.461c0.105,-0.715 0.383,-1.41 0.812,-1.934c0.407,-0.5 1.614,-0.695 1.59,-0.039c0.778,0.082 0.879,-0.004 1.336,-0.859c0.137,-0.258 1.864,-2.57 2.176,-1.426c0.035,0.137 -0.285,0.688 -0.719,1.227c-0.429,0.539 -0.914,1.406 -1.07,1.926c-0.066,0.218 -0.824,1.644 -1.063,0.769c-0.136,-0.492 -0.621,-0.508 -1.074,-0.371c-0.125,0.394 -0.254,0.852 -0.367,1.285c-0.062,0.25 -0.187,0.602 -0.348,0.918c1.188,1.387 2.571,3.121 2.426,4.688c-0.156,1.64 -1.133,0.914 -1.652,-0.125c-1.754,-3.504 -3.504,-6.055 -7.168,-7.579c-0.172,-0.07 -2.691,-0.582 -2.856,-0.55c-0.285,0.047 -1.812,-6.258 -1.589,-9.051c0.105,-1.32 1.472,-3.809 1.203,-1.27c-0.305,2.875 0.523,5.969 1.386,8.676c0.004,0.024 0.012,0.039 0.016,0.059c0.816,-0.117 2.129,0.277 2.93,0.617c-0.012,-0.41 0.062,-0.836 0.269,-1.133c0.742,-1.062 2.77,-1.855 3.778,-0.894c0.41,-0.961 1.675,-1.938 2.293,-2.395c0.253,-0.191 1.39,-1.383 2.187,-1.75c-0.027,-0.105 -0.043,-0.23 -0.055,-0.359c-0.316,-0.516 -0.566,-1.071 -0.605,-1.18c-0.731,-1.93 -1.801,-3.902 -2.215,-5.934c-0.012,-0.054 -0.023,-0.109 -0.031,-0.168c-1.203,1.329 -3.082,2.356 -4.301,2.715c-0.824,0.242 -0.375,-0.543 0.055,-0.758c1.609,-0.808 3.453,-2.359 4.176,-4.109c0.066,-0.91 0.226,-1.863 0.429,-2.769Zm-13.472,30.41c-0.606,0.039 -2.45,0.047 -3.52,0.363c-1.156,0.344 -1.773,0.965 -2.32,0.965c-0.235,0 -4.242,-0.574 -4.551,-0.738c-1.379,-0.735 -5.391,-1.25 -6.938,-0.934c-1.582,0.324 -3.89,0.941 -5.535,0.812c-2.211,-0.168 -12.836,3.407 -16.972,3.774c0.39,0.191 0.824,0.277 1.519,0.336c0.766,0.066 1.735,0.219 2.152,0.336c0.145,0.043 0.309,0.113 0.465,0.199c1.723,-0.219 2.422,-0.52 4.067,-1.063c1.574,-0.523 6.484,-2.222 9.254,-2.48c2.265,-0.211 5.347,-0.473 7.59,0.078c0.957,0.234 5.687,0.902 6.781,1.797c0.074,-0.184 1.09,-0.063 1.535,-0.613c0.992,-1.223 2.695,-1.895 5.535,-2.254c0.41,-0.055 0.824,-0.102 1.234,-0.141c-0.097,-0.144 -0.195,-0.293 -0.296,-0.437Zm35.437,-0.535c-0.391,-0.809 -0.734,-0.172 -0.551,0.464c0.473,1.633 1.91,3.606 3.203,4.684c1.211,1.012 0.024,-1.184 -0.265,-1.563c-0.863,-1.113 -1.77,-2.312 -2.387,-3.585Zm18.481,-4.18c-0.326,-0.098 -0.668,-0.164 -1.04,-0.207c-0.605,-0.067 -1.433,-0.235 -1.835,-0.367c-0.123,-0.039 -0.235,-0.09 -0.34,-0.149c0.175,0.93 0.375,2.442 0.183,3.457c1.409,0.047 2.753,0.172 3.942,0.356c1.402,0.211 6.406,3.226 8.983,3.515c3.165,0.36 3.165,0.36 7.598,1.106c2.11,0.355 4.52,0.648 5.876,0.726c0.254,-0.121 0.441,-0.132 2.09,-0.238c1.621,-0.102 2.14,-0.129 3.429,-1.226c0.102,-0.086 0.192,-0.168 0.274,-0.239c0.468,-0.851 1.507,-2.527 2.461,-3.203c-0.602,-1.246 -2.661,-2.805 -3.793,-2.461c-1.434,0.434 -2.578,2.445 -3.496,3.59c-0.942,1.176 -2.668,1.73 -3.939,1.441c-3.719,-0.851 -9.226,-2.367 -13.038,-2.625c-0.141,-0.011 -2.496,-0.464 -2.859,-0.699c-1.633,-1.058 -2.758,-2.265 -4.496,-2.777Zm-7.196,-3.551c-0.734,-0.406 -1.64,-0.687 -2.746,-0.852c-0.383,-0.058 -2.531,-0.109 -3.551,-0.406c-0.218,0.188 -0.507,0.348 -0.781,0.41c-0.105,0.739 -0.285,1.426 -0.601,1.848c0.019,0.035 0.035,0.07 0.05,0.113c0.231,0.625 0.231,0.625 0.707,2.215c0.481,1.598 0.481,1.598 0.711,1.817c0.196,0.179 0.645,0.586 1.082,1.039c0.43,0.203 0.918,0.5 1.285,0.879c2.047,-0.543 4.329,-0.774 6.528,-0.793c-0.016,-0.278 -0.031,-0.618 -0.055,-1.036c-0.125,-2.582 -0.89,-4.265 -2.629,-5.234Zm-38.094,-7.641c-0.171,-0.988 -1.683,-0.468 -2.152,-0.109c-0.863,0.668 -1.906,1.945 -1.527,3.148c0.312,0.993 0.957,-0.468 1.23,-0.878c0.735,-1.11 0.735,-1.11 1.106,-1.352c0.203,-0.133 0.609,-0.266 0.898,-0.297c0.367,-0.039 0.504,-0.195 0.445,-0.512Zm24.161,-2.527c-0.434,-1.535 -1.219,-2.723 -1.235,-0.379c-0.008,1.035 0.254,2.578 0.758,4.449c0.934,3.481 1.273,7.094 1.703,10.664l0.246,-1.96c0.535,-4.266 -0.312,-8.657 -1.472,-12.774Zm-18.274,-1.984c-0.262,-0.961 -3.066,1.492 -3.43,1.793c-0.402,0.34 -0.8,0.644 -0.882,0.679c-0.149,0.071 -0.149,0.071 -0.262,0.868c-0.277,1.937 2.355,-1.004 2.762,-1.325c1.129,-0.882 1.129,-0.882 1.511,-1.293c0.215,-0.222 0.348,-0.55 0.301,-0.722Zm-1.933,-1.282c1.386,-0.918 -0.422,-0.609 -1.094,-0.378c-1.09,0.367 -1.09,0.367 -2.438,0.843c-0.437,0.157 -3.39,1.383 -1.906,1.575c1.66,0.214 4.094,-1.153 5.438,-2.04Zm2.789,-11.73c-0.032,0.035 -0.059,0.07 -0.09,0.105c-0.477,3.387 -0.934,6.704 0.5,9.883c0.617,1.371 2.015,3.969 1.586,5.578c-0.039,0.153 -0.086,0.274 -0.137,0.364c0.004,0.125 0.008,0.25 0.008,0.375c0,1.433 0,1.433 1.5,1.636c0.336,0.043 0.625,0.125 0.855,0.231c0.946,-0.992 2.141,-1.93 3.407,-2.445c1.972,-0.817 3.691,-2.235 5.117,-3.872c0.011,-0.023 0.027,-0.05 0.043,-0.078c0.328,-0.562 0.328,-0.562 1.312,-1.668l1.871,-2.488c0.18,-0.176 0.774,-0.562 1.239,-0.613c0.57,-0.578 4.222,-2.613 4.453,-2.926c0.043,-0.059 0.09,-0.117 0.14,-0.18c-0.234,-0.433 -0.625,-0.992 -1.047,-1.461c-1.043,-1.187 -2.199,-2.933 -2.902,-4.406c-0.004,-0.008 0.008,-0.019 0.016,-0.031c-0.461,0.098 0.375,-0.816 0.402,-1.762c0.106,-3.93 0.414,-8.652 -3.293,-11.035c-0.187,-0.121 -1.348,-1 -2.574,-1.949c-1.223,-0.949 -3.141,-2.18 -4.258,-2.731c-1.766,-0.875 -1.992,-0.988 -2.719,-1.492c-3.675,0.488 -7.5,1.305 -9.972,4.418c-0.16,0.203 -0.391,0.414 -0.629,0.586c0.57,1.039 -3.028,2.231 -3.774,2.356c-0.964,0.167 -1.261,0.328 -1.363,0.738c-0.195,0.789 -0.074,1.535 -0.324,2.164c0.066,-0.063 0.176,-0.082 0.336,-0.031c0.183,0.05 0.679,0.761 1.101,1.582c0.567,1.093 1.125,2.031 2.129,3.59c1.364,2.109 2.766,4.183 4.106,6.304c0.308,0.164 0.894,0.57 1.386,1c0.079,-0.281 0.161,-0.551 0.243,-0.804c-0.047,-0.176 -0.094,-0.379 -0.141,-0.61c-0.59,-2.851 -0.527,-5.769 1.133,-8.223c-0.176,2.129 -0.215,4.207 -0.164,6.344c0.011,0.442 0.019,0.824 0.023,1.16c0.321,-1.531 1.125,-3.148 2.063,-4.367c0.218,-0.277 0.691,-1.176 1.144,-1.176c0.121,0 -0.215,0.723 -0.625,1.606c-0.746,1.605 -0.746,1.605 -1.332,3.117c-0.082,0.207 -0.445,0.813 -0.769,1.211Zm-12.348,-8.941c0.512,0.828 0.527,0.843 1.469,1.906c1.843,2.082 3.523,4.48 5.679,6.273c-0.296,-0.39 -0.632,-0.843 -1.402,-1.886c-0.828,-1.122 -2.383,-2.602 -2.684,-4.02c-0.054,-0.258 -0.433,-1.133 -0.839,-1.953c-0.067,-0.129 -0.68,-1.387 -0.586,-1.91c-0.133,0.246 -0.34,0.472 -0.66,0.672c-0.305,0.183 -0.665,0.527 -0.977,0.918Z"/><path d="M95.088,64.953c-1.652,0.739 -3.219,1.457 -5.125,1.793c-0.754,0.133 -8.652,2.168 -6.734,3.387c0.296,0.188 2.921,-0.105 3.027,0.41c1.32,-0.211 5.035,-1.519 5.039,0.278c0,0.019 0,0.042 -0.004,0.066l0,0.004c0.016,-0.004 0.031,-0.004 0.051,-0.008c0.789,-0.062 1.652,-0.566 2.625,-1.535c0.797,-0.793 1.765,-1.465 2.148,-1.496c1.731,-0.133 5.653,-0.442 6.883,-1.797c0.445,-0.492 1.719,-1.766 1.793,-0.371c0.031,0.601 -0.215,1.164 -0.598,1.652c0.368,-0.004 0.731,-0.019 1.039,-0.043c3.661,-0.281 7.094,0.055 10.676,0.871c3.078,0.703 5.969,1.028 9.11,0.871c3.379,-0.168 6.914,0.422 9.925,-1.379c0.723,-0.429 1.516,-1.05 2.395,-0.929c0.402,0.058 0.402,0.058 -0.762,1.504c-0.066,0.086 -0.136,0.172 -0.211,0.254c0.071,0.011 0.141,0.027 0.211,0.043c2.438,-0.063 7.047,0.632 10.996,1.867c3.992,0.207 8.41,-1.45 11.231,-1.426c1.465,0.008 3.902,0.703 4.301,0.664c3.57,-0.359 6.043,-0.645 6.726,-5.133c0.102,-0.668 0.645,-1.609 1.121,-1.226c2.137,-0.18 5.348,-2.422 5.762,-2.418c2.527,0.086 4.215,1.136 5.969,3.242c0.441,0.531 0.672,1.328 1.336,1.973c0.636,0.617 2.582,1.121 3.347,1.441c1.485,0.617 3.414,1.277 5.082,1.113c4.145,-0.414 6.176,-5.172 6.793,-8.926c0.364,-2.191 0.153,-4.472 -0.043,-5.492c-0.957,-4.922 -7.164,-6.836 -9.832,-7.488c-0.125,-0.031 -1.777,-1.555 -4.035,-1.863c-3.383,-0.457 -2.582,3.961 -4.016,4.074c-2.234,0.176 -4.355,0.609 -5.722,2.008c-1.113,1.136 -2.563,0.879 -3.598,0.183c-0.664,0.028 -1.68,-1.113 -1.695,-1.961c-0.074,-4.332 -5.625,-4.8 -8.945,-7.488c-2.063,-1.668 -5.051,-1.961 -7.047,0.184c-1.094,0.007 -2.325,0.234 -3.192,0.738c-0.648,-0.152 -1.281,-0.391 -1.793,-0.629c-0.902,-0.418 -2.242,-0.574 -3.289,-0.316c-0.812,0.086 -1.593,0.351 -2.277,0.859c-0.211,0.156 -0.414,0.305 -0.566,0.414c-0.02,0.066 -6.649,1.063 -11.126,1.191c-1.722,0.09 -3.917,0.801 -5.101,1.247c0.59,1.628 0.965,3.449 1.117,5.257c0.293,0.004 0.727,0.028 1.379,0.071c1.055,0.062 3.02,0.117 4.359,0.117c0.84,0 1.883,-0.133 2.743,0.14c1.828,0.145 2.82,0.446 3.992,1.157c1.594,0.972 2.82,2.367 3.008,4.062c0.703,-0.074 1.421,-0.14 2.152,-0.191c-0.649,-0.586 -1.211,-1.25 -1.59,-2.063c-0.426,-0.906 -0.504,-1.324 -0.379,-1.433c0.332,0.117 0.684,0.203 0.938,0.324c0.293,0.273 0.734,0.68 1.398,1.297c0.145,0.133 0.281,0.265 0.41,0.398c0.086,0.477 0.211,0.946 0.367,1.41c1.25,-0.058 2.489,-0.054 3.629,0.051c-0.023,-0.086 -0.043,-0.172 -0.062,-0.254c-0.067,-0.277 -0.117,-0.543 -0.145,-0.797c-0.601,0.332 -1.129,0.352 -1.582,0.165c-0.324,-0.352 -0.621,-0.731 -0.886,-1.126c-0.102,-0.308 -0.25,-0.578 -0.457,-0.734c-0.192,-0.34 -0.364,-0.687 -0.52,-1.043c-0.051,-0.234 -0.09,-0.465 -0.109,-0.676c-0.035,-0.336 0.007,-3.316 0.695,-1.89c0.617,1.285 0.668,3.609 2.477,3.621c0.179,0 0.339,0.012 0.484,0.031c0.246,-0.652 0.785,-0.441 1.238,1.449c0.133,0.551 0.301,1.047 0.512,1.496c0.973,0.207 1.82,0.524 2.469,0.993c0.031,-0.036 0.058,-0.071 0.086,-0.106c0.109,-0.133 0.207,-0.262 0.296,-0.383c-0.109,-0.043 -0.23,-0.101 -0.371,-0.183c-1.949,-1.106 -0.207,-6.742 0.508,-2.473c0.082,0.504 0.328,1.211 0.445,1.777c0.465,-0.707 0.876,-1.222 2.071,-1.527c0.437,-0.113 1.742,-0.355 3.015,-0.551c-0.546,-0.504 -1.054,-1.367 -1.648,-2.679c0.023,-0.602 -1.723,-3.004 -1.688,-3.524c-0.601,-1.609 -0.175,-2.898 0.368,-1.601l2.789,3.007c3,3.231 3.863,4.161 3.754,4.579c0.277,0.039 0.554,0.093 0.836,0.16c1.371,0.336 2.871,2.222 0.57,1.871c-2.711,-0.41 -6.074,-0.754 -8.332,0.754c-0.492,0.328 -1.297,1.871 -2.031,2.371c-0.246,0.164 -0.481,0.215 -0.696,0.066c-0.203,-0.14 -0.324,-0.281 -0.382,-0.418c-2.891,-1.09 -5.876,-0.422 -7.426,-0.422c-1.535,0 -5.055,-0.293 -6.157,0.313c-1.8,0.082 -3.117,0.972 -4.039,1.453c-0.539,0.277 0.336,2.883 -0.527,2.359c-3.699,-2.234 -6.312,-3.359 -10.184,-2.257c-0.796,0.23 -2.019,-0.309 -6.214,-0.18c-5.235,0.164 -4.661,0.742 -7.684,1.453c-2.836,0.668 -5.816,1.508 -8.73,1.394c-0.7,-0.027 -1.598,-0.085 -2.45,-0.16c-1.449,0.313 -2.129,1.184 -3.996,1.942c-0.586,0.234 -1.144,0.484 -1.695,0.726Zm52.652,0.059c-0.035,0.004 -0.066,0.016 -0.097,0.031c-1.516,-0.765 -7.723,0.809 -9.125,1.715c-0.93,0.602 2.496,-0.172 3.351,-0.172c1.051,0 1.051,0 3.024,-0.207c0.867,-0.094 1.832,-0.148 2.402,-0.144c0.023,0.269 0.082,0.543 0.18,0.793c0.757,1.968 2.422,3.132 4.511,2.679c1.559,-0.34 -0.347,-0.949 -1.043,-1.355c-0.988,-0.574 -1.621,-1.789 -2.296,-2.692c-0.383,-0.511 -0.688,-0.683 -0.907,-0.648Zm-19.609,-13.629l0,0.004c0.035,0.695 0.035,1.383 0,2.055c0.004,0.015 0.008,0.031 0.008,0.046c0.265,1.442 0.289,2.95 0.269,4.422c1.403,-0.152 3.285,-0.168 5.156,1.106c0.075,-0.184 1.708,-0.504 2.309,-0.91c1.434,-0.973 2.371,-1.285 5.254,-1.653c0.449,-0.058 0.918,-0.117 1.398,-0.172c-1.644,-2.296 -3.324,-3.437 -6.55,-4.226c-0.418,-0.102 -0.793,-0.203 -1.118,-0.293c-0.558,-0.039 -1.191,-0.07 -1.757,-0.086c-1.973,-0.059 -1.973,-0.059 -3.137,-0.176c-1.16,-0.117 -1.16,-0.117 -1.824,-0.117c0,0 -0.004,0 -0.008,0Zm41.789,-0.023c-0.68,-0.911 -0.992,0.988 -1.027,1.328c-0.125,1.207 0.597,2.816 1.265,3.843c0.012,0.02 0.028,0.036 0.039,0.055c-0.105,0.477 -0.039,1.172 -0.066,1.469c-0.035,0.375 -0.078,1.133 0.504,1.027c0.742,-0.137 0.683,-1.859 0.551,-2.359c-0.036,-0.129 -0.063,-0.235 -0.09,-0.313l0.004,-0.004c0,-0.015 0.004,-0.031 0.004,-0.046c0.07,-0.848 -0.157,-1.852 -0.54,-2.602c-0.164,-0.324 -0.304,-0.84 -0.367,-1.344c-0.054,-0.465 -0.175,-0.914 -0.277,-1.054Zm-84.035,-0.364c-1.985,0.047 -3.66,0.25 -6,0.528c-1.727,0.203 -3.664,0.91 -4.942,1.113c-1.73,0.273 -3.98,0.766 -5.429,1.808c-1.489,1.071 -4.34,-0.648 -6.172,0.278c-1.621,0.816 -1.953,1.16 -3.707,0.765c-1.496,-0.335 -3.348,-0.332 -3.899,0c-0.687,0.418 -3.113,1.301 -4.101,0.747c-0.063,0.039 -0.121,0.078 -0.18,0.117c-2.992,-0.012 -5.949,0.316 -9.375,0.699c-3.488,0.391 -4.211,1.152 -7.984,2.207c-1.973,0.551 -5.473,1.727 -9.395,1.801c-0.008,-0.004 -0.015,-0.008 -0.023,-0.012c-1.723,0.242 -3.891,-0.41 -5.262,-0.836c-2.742,-0.851 -6.254,-2.476 -7.594,-5.223c-0.175,-0.363 -0.726,-1.007 -1.351,-1.609c-0.211,-0.203 -0.43,-0.398 -0.645,-0.578c-0.113,-0.094 -0.226,-0.195 -0.34,-0.297c-0.816,-0.316 -0.964,-0.422 -1.64,-0.906c-0.301,-0.219 -1.055,-0.391 -0.906,-1.746c-0.153,-0.461 -0.586,-2.035 -0.731,-2.184c-0.269,-0.285 -0.969,-1.14 -1.266,-1.863c-0.058,0.035 -0.129,0.066 -0.203,0.101c-0.933,0.418 -1.054,0.622 -1.039,1.797c0.004,0.207 -0.011,0.391 -0.039,0.559c0.195,0.207 -1.246,0.859 -1.406,1.297c-0.426,1.152 -1.238,2.109 -0.606,3.027c0.414,0.602 0.207,1.625 0.11,1.902c0.308,0.481 0.43,1.09 0.601,1.754c0.211,0.801 0.95,1.266 1.164,1.864c0.739,0.972 4.457,2.328 4.348,2.73c1.531,2.117 3.106,5.863 3.141,8.5c0.027,0.067 0.566,1.469 0.679,1.617c0.329,0.492 2.082,0.254 2.121,0.242c1.825,-0.542 4.637,-1.289 5.774,-2.921c0.594,-0.86 1.703,-0.481 2.73,-0.614c0.844,-0.195 1.59,-0.304 1.911,-0.339c2.64,-0.297 13.664,-1.165 16.265,-0.489c7.598,1.973 10.399,0.817 16.133,-1.695l0.004,0c0.125,-0.199 0.527,-0.395 1.336,-0.582c0.812,-0.192 2.969,0.836 4.265,0.828c2.356,-0.02 3.247,-0.516 5.684,-0.828c3.289,0.297 5.156,0.957 5.984,1.617c1.356,0.227 3.676,0.445 4.641,0.863c0,0 2.176,-0.175 5.418,0.18c0.418,-0.371 1.145,-0.754 2.094,-1.121c-0.274,-1.254 -0.461,-2.461 -0.504,-2.731c-0.152,-0.933 0.629,-8.007 0.484,-8.945c-0.101,-0.66 -0.25,-2.086 -0.148,-3.422Zm1.797,-4.769c-0.012,0.027 -0.028,0.054 -0.039,0.086c-0.098,0.226 -0.149,0.922 -0.141,1.773c0.031,-0.008 0.066,-0.008 0.102,-0.008c0.429,-0.004 0.429,-0.004 1.453,0.141c0.597,0.082 2.234,0.203 2.984,0.812c0.438,-0.207 1.149,-0.41 2.305,-0.695c3.375,-0.844 6.476,-0.691 9.883,-0.445c0.843,-0.305 1.988,-0.453 2.679,-0.387c0.035,0.004 0.067,0.004 0.098,0.012c0.629,-0.246 1.266,-0.473 1.91,-0.61c0.332,-0.175 0.887,-0.496 1.262,-0.73c0.234,-0.145 0.844,-0.496 1.242,-0.398c0.582,-0.204 1.555,-0.016 1.934,0.066c1.078,0.238 0.074,0.758 -0.497,0.758c-0.285,0 -0.886,0.097 -1.339,0.082c-0.161,0.152 -0.368,0.265 -0.508,0.34c-0.582,0.304 -0.582,0.304 -1.348,0.746c-0.148,0.086 -0.406,0.273 -0.676,0.406c-0.011,0.008 -0.019,0.019 -0.031,0.031c-0.004,0.004 -0.008,0.008 -0.012,0.012c-0.023,0 -0.046,0.004 -0.07,0.008c-0.172,0.074 -0.34,0.117 -0.484,0.086c-0.133,0.027 -0.282,0.054 -0.43,0.082c-0.316,0.066 -0.656,0.136 -0.988,0.207c-0.176,0.113 -0.391,0.203 -0.617,0.277c-0.118,0.082 -0.227,0.172 -0.325,0.266c-0.504,0.031 -1.203,0.179 -1.906,0.433c-2.734,-0.226 -5.547,0.059 -8.144,0.461c-0.387,0.059 -2.645,0.582 -3.856,0.406c-0.848,0.68 -3.152,0.321 -3.656,-0.007c-0.445,-0.289 -0.61,-0.235 -0.824,0.254c-0.149,0.339 -0.184,1.722 -0.082,3.078c0.046,0.652 0.593,7.289 0.527,11.664c0.016,-0.008 0.031,-0.012 0.051,-0.016c2.742,-0.75 5.476,-1.527 8.047,-2.758c0.742,-0.359 1.472,-0.75 2.195,-1.058c0.644,-0.332 2.226,-0.84 4,-0.985c2.887,-0.23 5.523,0.016 7.59,-0.64c4.914,-1.555 7.203,-1.625 9.531,-1.742c1.629,-0.079 3.289,-0.411 4.926,-0.399l-0.235,-6.543c-0.57,-3.805 -0.886,-5.547 -0.304,-5.441c0.207,0.176 1.922,9.754 1.625,11.945c-0.028,0.043 -0.063,0.07 -0.106,0.09c0.348,0.035 0.696,0.094 1.043,0.176c0.199,0.05 0.492,0.031 0.856,-0.012c-0.008,-0.059 -0.012,-0.117 -0.02,-0.184c-0.066,-0.738 -0.09,-1.472 -0.07,-2.199c-0.098,-0.363 -0.18,-0.941 -0.235,-1.762c-0.054,-0.925 -0.23,-2.234 -0.453,-3.464l0,-0.004c-0.004,0.25 -0.191,-3.297 -1.05,-6.168c-0.981,0.715 -2,0.613 -3.016,-0.235c-0.367,-0.308 -1.34,0.727 -1.43,0.453c-0.004,0 -3.172,-0.316 -3.172,-0.316c-1.316,-0.184 -9.265,-0.351 -14.386,-0.195c-0.192,0.078 -0.414,0.117 -0.606,0.14c-1.152,0.157 -2.359,0.184 -3.543,0.309c-0.07,0.039 -0.148,0.078 -0.222,0.125c-0.641,0.359 -1.231,0.602 -1.911,0.738c-0.039,0.063 -0.078,0.129 -0.113,0.192c-0.371,0.05 -0.738,0.105 -1.101,0.164c-0.387,0.058 -2.645,0.597 -3.856,0.414c-0.848,0.699 -3.152,0.332 -3.656,-0.004c-0.418,-0.277 -0.59,-0.25 -0.785,0.172Zm-1.832,1.289c-2.176,0.023 -3.926,0.238 -6.438,0.535c-1.726,0.207 -3.66,0.914 -4.941,1.113c-1.731,0.274 -3.981,0.77 -5.426,1.809c-1.488,1.074 -4.344,-0.649 -6.172,0.277c-1.621,0.817 -1.957,1.16 -3.711,0.766c-1.492,-0.332 -3.344,-0.332 -3.894,0c-0.688,0.418 -3.114,1.301 -4.102,0.75l-0.004,0c-0.058,0.039 -0.117,0.074 -0.18,0.113c-2.988,-0.012 -5.949,0.316 -9.375,0.699c-3.488,0.391 -4.21,1.153 -7.98,2.207c-0.937,0.266 -2.211,0.664 -3.715,1.024c-0.14,-0.082 -0.281,-0.133 -0.418,-0.153c-0.508,-0.058 -1.012,-0.16 -1.508,-0.289c-1.218,-0.203 -2.449,-0.648 -3.375,-0.957c-2.484,-0.824 -5.664,-2.367 -6.836,-4.91c-0.156,-0.336 -0.648,-0.937 -1.211,-1.5c-0.187,-0.187 -0.382,-0.371 -0.574,-0.539c-0.101,-0.086 -0.207,-0.18 -0.304,-0.277c-0.743,-0.305 -0.875,-0.403 -1.481,-0.856c-0.273,-0.207 -0.988,-2.523 -0.914,-2.855c-0.199,-0.348 -0.391,-0.633 -0.516,-0.774c-0.242,-0.269 -0.863,-1.062 -1.125,-1.73c-0.054,0.031 -0.793,0.316 -0.851,0.355c-1.406,0.973 -0.164,2.442 -0.317,2.836c-0.406,1.055 0.231,2.168 0.79,3.02c0.367,0.558 0.457,0.965 0.363,1.219c0.176,0.289 1.019,2.648 1.629,4.425c2.812,2.461 6.515,4.739 10.226,4.981c3.379,-0.285 6.867,-0.149 8.637,-0.672c10.516,-3.121 11.77,-4.086 20.477,-3.488c1.531,-0.543 3.925,-0.934 4.953,-1.008c1.855,-0.133 1.281,0.453 2.933,-0.442c0.973,-0.523 3.641,-1.156 4.668,-1.082c1.469,0.102 2.399,0.305 2.895,0.524c4.304,-2.762 12.566,-3.434 18.195,-3.449c0.027,-0.071 0.059,-0.141 0.094,-0.207c-0.141,-0.02 -0.289,0.015 -0.426,0.105c-0.039,-0.469 -0.066,-1.012 -0.066,-1.57Zm97.468,2.355c-0.027,-0.406 -0.312,-1.449 -0.964,-0.953c-0.43,0.328 -0.344,1.426 -0.344,1.899c0,1.355 0.023,2.742 0.254,4.074c0.25,1.48 1.093,2.324 1.773,3.594c0.344,0.644 0.879,0.964 1.598,1c0.555,0.027 0.883,-0.047 0.699,-0.661c-0.301,-0.988 -1.109,-1.976 -1.699,-2.812c-0.653,-0.922 -0.66,-2.531 -0.887,-3.598c-0.207,-0.953 -0.398,-2.097 -0.43,-2.543Zm-30.23,3.18c0.57,-0.152 0.57,-0.152 -1.387,-3.055l-1.293,-1.922c-0.015,0 -0.035,0 -0.051,0.004c-0.054,0.293 -0.097,0.633 -0.156,0.973c0.559,1.93 1.571,4.359 2.887,4Zm-1.832,-8.402c-0.199,-0.805 -1.609,0.922 -3.719,1.125c-2.703,0.261 -4.726,2.058 -5.754,4.57c-0.461,1.133 -0.406,0.977 -0.043,1.191c0.43,0.258 1.875,2.7 2.082,-1.203c0.137,-2.554 1.434,-3.426 3.883,-3.621c3.621,-0.289 3.68,-1.535 3.551,-2.062Zm-65.246,0.964c-0.004,0.036 -0.012,0.071 -0.016,0.106c-5.629,-0.004 -14.051,0.648 -18.41,3.445c-0.496,-0.219 -1.43,-0.422 -2.894,-0.523c-1.028,-0.074 -3.7,0.558 -4.672,1.082c-1.653,0.894 -1.078,0.308 -2.934,0.441c-1.027,0.074 -3.418,0.469 -4.949,1.008c-8.707,-0.598 -9.961,0.371 -20.481,3.488c-0.375,0.114 -0.828,0.192 -1.34,0.254c-0.378,-0.035 -0.734,-0.047 -0.957,-0.054c-3.789,-0.082 -5.828,-1.563 -8.531,-4.153c-0.906,-0.867 -2.59,-2.582 -3.398,-3.066c-0.035,-0.02 -1.555,-0.914 -1.586,-0.934c-0.231,-0.394 -0.555,-1.414 -0.77,-1.754c-0.156,-0.797 -1.215,-1.996 -1.738,-2.472c-0.441,-0.399 -0.324,-0.723 -0.562,-1.36c-0.133,-0.363 -0.321,-0.523 -0.594,-0.5c-0.188,-0.14 -0.531,-0.191 -0.996,-0.066c-1.567,0.418 -2.582,0.828 -2.629,4.07c-0.004,0.293 0.644,1.238 0.715,1.426c-0.184,1.676 0.515,2.477 1.093,3.398c-0.004,0.024 0.043,1.157 0.075,1.989c-1.032,-0.821 -2,-1.555 -2.106,-1.578c-0.019,-0.45 -0.121,-2.262 -0.98,-3.207c-0.493,-0.426 -1.262,-1.719 -1.536,-2.411c-0.156,-0.39 -1.132,-0.254 -1.644,-0.109c-1.711,0.488 -2.426,1.445 -2.027,3.289c0.054,0.246 -0.61,0.16 -0.985,0.82c-1.265,1.27 -1.215,3.793 -1.109,5.329c0.035,0.5 0.301,1.624 0.672,1.683l0.219,1.371c-0.051,0.863 0.734,2.367 1.691,3.289c-0.063,0.153 0.07,0.43 0.516,0.875c1.89,1.895 5.148,3.301 5.57,5.86c0.101,0.605 0.617,3.312 0.687,3.64c0.02,0.129 0.047,0.27 0.078,0.414c0.469,1.981 2.375,3.688 4.696,2.352c0.215,-0.125 3.031,-0.734 3.195,-0.871c2.953,-0.641 3.805,-1.5 5.75,-3.106c4.594,-0.836 14.59,-1.461 17.215,-0.465c4.16,1.575 3.344,1.301 7.746,1.211c4.676,-0.097 6.106,-1.097 10.523,-2.242c0.661,-0.176 1.321,-0.433 2.016,-0.801c1.387,0.321 6.137,0.047 8.57,0.54c1.86,0.371 3.032,0.566 3.782,0.621c0.882,0.289 4.648,0.882 7.539,1.293c-1.805,0.769 -2.063,1.011 -1.973,1.773c0.215,1.793 7.527,2.531 9.199,1.473c0.203,0.183 1.344,0.179 2.141,0.179l0.367,0c0.106,0 0.199,0 0.274,0.004c1.46,0.067 3.816,-0.324 5.066,-1.726c1.23,-1.383 3.625,-1.539 5.621,-1.793c0.32,-0.043 0.731,-0.176 1.156,-0.383c1.426,0.066 3.571,0.125 5.145,0.258c2.344,0.203 4.715,0.039 5.265,0.254c0.547,0.211 4.567,1.3 5.239,1.547c2.843,1.046 8.289,0.32 11.207,-0.055c3.011,-0.383 3.011,-0.383 3.734,-0.371c0.578,0.008 1.109,-0.137 1.59,-0.379c2.598,0.387 6.422,0.742 7.414,0.75c1.273,0.008 2.668,1.015 4.574,1.078c3.281,0.105 6.735,-0.715 9.985,-0.637c3.097,0.074 6.355,0.098 7.269,-0.058c2.567,-0.426 6.746,-2.133 7.137,-5.192c0.93,-0.488 2.355,-1.367 3.898,-2.492c1.567,-1.141 2.848,0.227 4.938,0.438c1.23,0.125 2.656,2.636 3.832,3.429c2.754,1.86 5.312,2.754 7.859,2.969c7.012,0.586 10.567,-8.699 10.422,-13.441c-0.059,-1.856 -0.574,-4.215 -0.609,-4.293c-0.426,-0.981 -1.489,-1.946 -2.258,-2.637c-1.059,-0.953 -12.586,-8.938 -16.688,-6.195c-1.089,0.73 -1.718,2.23 -2.476,3.921c-0.172,0.387 -1.742,-0.218 -2.305,0.094c-0.691,0.387 -1.953,1.399 -2.707,1.574c0,0 -1.379,-0.23 -2.289,-0.382c-0.129,-2.692 -1.098,-2.036 -5.496,-5.61c-1.707,-1.387 -3.855,-2.265 -6.129,-3.765c-1.285,-0.325 -2.531,-0.911 -3.23,-0.911c-1.547,0 -3.153,-0.328 -3.985,1.329c-0.812,0.359 -1.777,0.554 -2.797,0.64c-1.203,0.106 -1.254,-0.523 -2.812,-0.691c-3.008,-0.281 -4.789,1.097 -5.278,1.586c-0.035,0.035 -0.464,-0.625 -5.496,0.769c-1.254,0.215 -8.285,-0.746 -11.019,1.051c-0.168,-0.527 -0.453,-0.914 -0.973,-0.273c-0.75,-0.063 -1.578,0.5 -1.847,0.332c-0.512,-0.317 -0.547,-0.899 -0.864,-0.766c-0.136,-0.117 -1.511,0.598 -1.691,0.535c-0.531,-0.187 -1.211,-0.301 -1.934,-0.281c-1.312,0.043 -2.629,-0.539 -3.816,-0.703c-0.809,-0.113 -4.801,-0.028 -8.887,0.254c-0.34,-0.36 -1.308,-0.207 -1.726,-0.211c-1.684,-0.016 -1.684,-0.016 -2.735,-0.016c-1.484,0 -2.75,0.274 -4.129,0.883c-0.636,0.281 -0.804,0.351 -1.152,0.449c-0.012,-0.023 -0.02,-0.047 -0.023,-0.07c-0.719,0.098 -1.442,0.238 -2.176,0.426c-1.156,0.293 -1.867,0.504 -2.305,0.714c-0.75,-0.625 -2.387,-0.75 -2.984,-0.835c-1.024,-0.145 -1.024,-0.145 -1.453,-0.141c-0.914,0.008 -1.379,0.871 -1.594,1.976Zm56.699,-2.222c-1.289,-0.192 -2.766,-0.067 -3.867,0.586c-0.563,0.332 -4.699,0.57 -4.633,0.832c0.141,0.547 2.613,0.058 3.004,0.051c1.465,-0.016 4.023,-1.094 5.84,-0.032c0.176,0.102 0.375,0.133 0.551,0.098c0.086,0.059 0.207,0.094 0.371,0.082c0.898,-0.066 1.851,-0.91 2.574,-1.344c0.781,-0.469 1.773,-0.281 2.508,0.102c0.367,0.195 1.215,0.457 1.398,-0.067c0.18,-0.5 -0.336,-0.644 -0.773,-0.832c-0.715,-0.304 -1.336,-0.468 -2.145,-0.429c-0.273,0.011 -0.547,0.027 -0.816,0.039c-0.844,0.039 -2.231,0.742 -2.899,1.429c-0.265,-0.289 -0.711,-0.457 -1.113,-0.515Z"/></svg>