<?xml version="1.0" encoding="UTF-8" standalone="no"?><!DOCTYPE svg PUBLIC "-//W3C//DTD SVG 1.1//EN" "http://www.w3.org/Graphics/SVG/1.1/DTD/svg11.dtd"><svg width="100%" height="100%" viewBox="0 0 218 98" version="1.1" xmlns="http://www.w3.org/2000/svg" xmlns:xlink="http://www.w3.org/1999/xlink" xml:space="preserve" xmlns:serif="http://www.serif.com/" style="fill-rule:evenodd;clip-rule:evenodd;stroke-linejoin:round;stroke-miterlimit:1.41421;"><path d="M26.611,15.825c-0.183,0.028 -0.367,0.082 -0.5,0.16c-0.156,-0.101 -0.332,-0.207 -0.527,-0.312c-3.324,-1.875 -9.82,1.531 -11.188,5.281c-6.976,1.137 -9.454,10.899 -8.004,19.469c-0.312,0.43 -0.628,0.93 -0.906,1.418c-2.484,4.444 1.465,9.305 1.121,12.332c-0.054,0.487 -1.708,5.078 -1.894,5.531c-0.203,1.57 -0.238,3.176 -0.235,4.731c0,1.293 -0.043,7.367 -0.113,7.929c0.652,3.867 1.969,7.68 3.211,10.641c0.106,0.254 0.203,0.476 0.293,0.676c-0.809,2.195 -1.016,6.343 0.832,7.382c0.117,0.067 0.231,0.118 0.336,0.157c-0.012,0.242 -0.07,0.414 -0.285,0.414c-0.531,0 -1.559,0.276 -2.285,0.612c-1.602,0.739 -3.301,1.321 -5.063,1.461c-0.844,0.071 -1.07,0.146 -1.035,0.528l-0.094,0c-0.578,0 -0.082,1.621 0.02,1.836c0.457,0.934 2.324,0.883 3.457,0.543c0.043,0.098 0.097,0.196 0.16,0.289c1.035,1.481 3.418,0.774 4.871,-0.347c0.008,0.065 0.02,0.129 0.031,0.187c0.477,1.91 3.559,0.203 4.946,-0.911c0.332,0.067 0.715,0.039 1.031,-0.081c0.519,0.574 1.254,1.148 1.336,1.219c1.066,0.89 3.996,0.804 3.867,-0.903c0,-0.035 -0.004,-0.071 -0.008,-0.101c0.02,-0.035 0.035,-0.07 0.047,-0.11c0.649,0.168 1.723,-0.058 2.508,-0.382c0.191,0.175 0.418,0.343 0.668,0.48c0.094,0.067 0.172,0.125 0.23,0.156c0.524,0.293 1.508,0.332 2.375,0.114c0.676,-0.11 1.328,-0.344 1.692,-0.767c0.39,0.013 0.699,-0.144 0.808,-0.586c0.285,-1.164 -1.933,-2.268 -2.726,-2.808c-0.235,-0.164 -0.422,-0.231 -0.559,-0.222c-0.062,-0.039 -0.121,-0.07 -0.18,-0.098c-0.07,-0.031 -0.128,-0.043 -0.179,-0.031c-0.571,-0.38 -1.656,-0.645 -2.688,-0.699c0.047,-0.103 0.086,-0.223 0.125,-0.36c0.325,-1.273 -0.207,-3.004 -1.285,-3.757c-1.707,-1.196 -0.32,-3.391 -0.324,-5.192c0,-0.641 0.437,-2.691 0.394,-3.129c1.575,-0.368 2.278,-0.984 2.766,-1.829c0.031,0 0.063,0.005 0.094,0.005c1.437,-0.005 3.062,0.206 2.746,-0.13c3.934,-0.366 6.137,-3.725 7.039,-7.565c0.398,0.082 1.258,-0.614 1.789,-0.668c1.589,-0.176 3.227,0.375 3.297,0.41c2.746,1.273 4.082,2.527 5.652,5.015c0.524,0.833 1.043,0.614 1.117,-0.035c0.098,0.067 0.207,0.141 0.325,0.223c1.289,0.891 2.816,1.078 4.351,0.828c1.321,1.039 2.629,1.878 4.465,1.981c0.906,0.05 2.371,0.32 3.52,0c0.566,0.621 2.98,1.097 3.3,1.375c1.348,1.168 3.731,2.238 5.434,2.086c2.77,-0.247 4.656,0.777 6.059,2.406c-0.051,0.379 -0.094,0.733 -0.063,0.996c0.168,1.289 0.168,1.289 0.195,3.098c0.004,0.207 0.008,0.389 0.016,0.55c-1.117,-0.082 -2.031,0.5 -2.277,1.625c-0.125,0.582 -0.512,1.211 -0.856,1.395c-1.531,0.828 1.957,3.035 3.043,2.991c0.492,0.146 1.071,0.196 1.496,0.064c0.75,0.718 3.075,0.484 3.754,0.332c0.817,-0.18 4.664,-1.563 4.445,-2.778c-0.015,-0.09 -0.039,-0.165 -0.074,-0.23c0.586,-0.59 0.52,-1.844 0.207,-2.719c-0.078,-1.102 -0.203,-1.699 -1.277,-6.859c-1.059,-5.09 -1.336,-5.977 -2.176,-6.95c-0.75,-0.875 -2.359,-1.675 -3.484,-0.855c-0.11,0.082 -0.192,0.159 -0.242,0.23c-0.532,-1 -1.95,-4.636 -2.114,-5.032c-0.832,-1.987 -2.672,-3.054 -4.824,-3.518c-2.039,-0.442 -6.394,0.293 -6.437,0.308c-0.7,-0.844 -2.407,-1.829 -2.758,-2.07c-0.11,-0.074 -0.195,-0.117 -0.27,-0.129c-0.011,-0.051 -0.023,-0.098 -0.039,-0.145c0.102,0.028 0.203,0.043 0.305,0.059c0.457,0.051 0.812,0.004 1.066,-0.101c1.293,0.753 0.766,-1.434 0.547,-2.188c-0.242,-0.824 -0.515,-2.367 -0.656,-3.652c0.012,-0.02 0.019,-0.043 0.027,-0.059c0.492,-1.066 0.434,-1.871 -0.082,-2.762c-0.07,-0.812 -0.82,-1.988 -1.199,-2.589c0.051,-0.059 0.102,-0.126 0.148,-0.193c1.2,-1.761 0.5,-4.233 -0.289,-6.37c-0.003,-1.391 -0.007,-1.441 -0.246,-3.664c-0.031,-0.289 -0.078,-0.559 -0.133,-0.797c0.012,-0.047 0.024,-0.083 0.032,-0.105c0.957,-3.028 0.383,-5.895 -0.891,-8.762c0.082,-0.391 0.176,-0.875 0.281,-1.485c0.551,-1.054 0.887,-2.16 1.149,-3.3c-0.071,-0.657 -0.211,-2.336 0.004,-3.606c-0.848,-3.551 -4.762,-6.629 -8.168,-7.859c-1.426,-0.516 -1.426,-0.516 -2.09,-0.516c-0.035,0 -0.07,0 -0.106,0.003c-0.136,-0.065 -0.281,-0.125 -0.437,-0.182c-0.945,-0.34 -1.242,-0.45 -1.445,-0.482c0.75,-5.164 0.277,-11.671 -4.723,-13.534c-0.313,-0.117 -0.625,-0.633 -2.063,-0.633c-0.011,-0.004 -0.023,-0.008 -0.031,-0.008c-0.293,-0.07 -2.543,-0.097 -3.013,-0.148c-2.35,-0.254 -6.526,0.487 -7.803,2.758c-1.621,2.886 -3.004,6.94 -2.996,10.273c0.004,1.003 0.121,1.899 0.312,2.746Zm0.414,1.516c-0.347,0.226 -1.304,0.176 -2.601,-0.238c-3.098,-0.993 -3.098,-0.993 -6.692,2.488c-3.59,3.476 -3.59,3.476 -3.593,2.746c0,-0.117 0.007,-0.231 0.015,-0.348l-1.875,1.66c-4.242,3.75 -4.883,6.118 -4.734,11.586c0.058,2.011 1.465,5.675 0.437,6.832c-0.57,1.718 -1.472,1.243 -1.566,3.52c0,0.039 0.644,2.57 0.652,2.609c0.414,1.957 1.324,5.078 1.211,6.719c0.297,0.359 -0.832,1.789 -1.484,3.383c-1.223,3.008 -0.66,3.293 -0.379,6.457c-1.086,2.758 -0.727,8.613 0.172,10.996c0.261,0.691 0.742,1.816 1.367,2.84c0.113,0.991 0.394,2.569 0.59,3.905c0.367,-0.343 0.754,1.72 0.668,2.267c-0.207,1.285 -0.348,3.433 0.402,4.8c1.434,-0.91 3.527,-1.32 4.887,-0.554l-3.262,1.823c-0.531,0.357 -0.867,1.837 -1.578,1.931c-1.293,0.164 -1.293,0.164 -1.773,0.488c-1.004,0.668 -2,1.312 -3.227,1.473c-0.309,0.043 -0.785,0.16 -1.309,0.272c0.379,0.083 0.739,0.181 1.016,0.298c0.156,0.008 0.336,0.062 0.53,0.176c0.74,0.414 0.954,0.39 2.165,-0.235c0.137,-0.07 0.45,-0.191 0.821,-0.3c0.836,-0.571 2.593,-1.348 3.097,-1.275c0.641,0.091 0.641,0.091 -0.336,0.806c-0.246,0.18 -0.488,0.34 -0.73,0.473c0.008,0.023 0.016,0.046 0.016,0.07c0.097,0.078 0.199,0.195 0.3,0.359c0.528,0.86 0.528,0.86 1.774,0.012c0.113,-0.082 0.523,-0.242 0.976,-0.375c0.008,-0.125 0.043,-0.266 0.114,-0.418c0.539,-1.168 2.023,-1.27 2.312,0.059c0.16,0.109 0.391,0.311 0.824,0.699c0.535,0.472 1.309,1.426 2.075,0.808c0.16,-0.129 0.32,-0.273 0.48,-0.407c0.012,-0.19 0.039,-0.429 0.078,-0.722c0.199,-1.531 0.715,-1.687 2.055,-1.117c0.121,0.05 0.238,0.11 0.344,0.172c0.796,-0.019 1.656,0.172 2.105,0.426c0.117,0.066 0.164,0.144 0.156,0.234c0.145,0.063 0.305,0.121 0.465,0.171c0.672,0.095 1.41,0.13 1.867,-0.112c-0.258,-0.172 -0.476,-0.356 -0.613,-0.5c-0.34,-0.129 -0.637,-0.371 -0.773,-0.746c-0.028,-0.074 -0.067,-0.348 -0.082,-0.664c-0.043,0.011 -0.082,0.031 -0.129,0.047c-0.524,0.191 -1.813,0.316 -2.926,0.186c-0.973,0.318 -2.93,-0.233 -3.27,-0.905c-0.07,-0.141 -0.105,-0.266 -0.105,-0.375c-0.684,-0.348 -1.36,-0.845 -1.727,-1.348c-0.238,-0.238 -0.511,-0.887 -0.808,-2.113c-1.035,-4.254 -0.903,-8.723 0.039,-12.957c0.301,-1.341 0.722,-2.18 1.117,-2.552c0.012,-0.233 0.012,-0.495 0,-0.784l-0.758,-4.5c-0.051,-0.305 -0.094,-0.617 -0.137,-0.93c-0.086,-0.344 -0.183,-0.679 -0.281,-1.008c-0.144,-0.476 -0.5,-2.144 -0.652,-3.386l-0.07,0.093c-0.457,-1.253 -0.575,-2.235 0.41,-3.351c0.871,-0.988 1.336,-1.692 1.871,-2.824c0.453,-0.957 0.433,-4.239 -0.055,-9c-0.496,-4.821 -0.769,-7.489 -0.047,-7.492c0.399,0 1.082,2.557 1.52,5.682c0.242,1.735 0.511,3.5 0.613,5.239c0.008,0 0.02,0 0.027,0c0.215,0 0.95,0.95 1.637,2.11c1.258,2.129 2.074,4.289 4.484,5.156c0.711,0.258 2.254,0.559 3.43,0.668c0.578,0.055 1.106,0.191 1.461,0.344c4.797,-2.086 9.645,-1.188 11.758,-6.965c0.207,-0.567 0.672,-2.277 1.262,-1.879c0.175,-0.242 0.461,-0.594 0.949,-1.195c0.648,-0.797 1.164,-1.676 1.519,-2.614c-0.004,-0.075 0.012,-0.156 0.039,-0.25c0.039,-0.125 0.086,-0.226 0.145,-0.304c0.234,-0.774 0.359,-1.582 0.355,-2.41c0,-0.211 0.02,-0.442 0.051,-0.672c-0.179,0.136 -0.406,0.304 -0.695,0.527c-1.32,1.004 -1.32,1.004 -1.969,1.148c-1.043,0.243 -5.012,0.067 -5.605,-1.035c-0.012,-0.015 -0.016,-0.032 -0.024,-0.047c-0.168,0.114 -0.426,0.153 -0.824,0.211c-0.352,0.051 -0.594,0.082 -0.742,0.078c0.008,0.258 -0.16,0.633 -0.578,1.137c-3.274,3.922 -12.242,3.988 -14.664,-0.824c-0.266,-0.531 -0.989,-1.762 -1.602,-2.738c-0.617,-0.977 -1.191,-1.985 -1.281,-2.243c-0.012,-0.023 -0.016,-0.05 -0.02,-0.074c-2.57,2.121 -2.91,0.246 -0.656,-1.035c1.383,-0.785 1.922,-1.992 2.473,-5.539c0.742,-4.773 2.113,-5.527 1.414,-0.169c-0.449,3.431 -0.981,4.693 -2.727,6.302c0.238,-0.027 0.477,0.039 0.547,0.191c1.215,2.703 3.645,6.528 6.637,7.132c2.984,0.603 6.176,0.192 8.488,-1.85c0.715,-0.633 1.516,-0.832 1.832,-0.59c0.043,-0.099 0.113,-0.227 0.207,-0.391c1.121,-1.992 0.125,-6.219 -0.613,-8.211c-0.391,-1.062 -0.36,-2.758 0.902,-1.262c1.614,1.914 1.723,5.786 1.594,8.114c-0.043,0.707 -0.067,1.136 -0.152,1.41c0.867,-0.27 3.668,0.269 4.164,0.277c3.136,0.042 4.515,-3.161 6.054,-5.484c1.18,-1.778 3.84,-3.207 3.25,-5.528c-0.332,-1.324 0.157,-3.421 0.918,-1.085c0.551,1.679 0.395,3.808 -0.718,5.218c-0.477,0.602 -1.227,1.606 -1.668,2.227c0.156,0.469 0.918,4.769 1.617,5.597c0.871,1.024 2.015,2.2 1.637,3.68c-0.063,0.253 -0.184,0.453 -0.321,0.586l-0.004,0c0.098,0.133 0.067,0.32 -0.152,0.567c-0.234,0.269 -0.93,0.816 -1.574,1.105c0.41,0.18 0.785,0.398 1.066,0.625c0.32,-0.005 0.727,0.086 1.16,0.301c1.348,0.668 2.34,2.621 2.977,3.949c0.195,0.297 0.367,0.706 0.473,1.008c0.312,0.073 0.593,0.355 0.679,0.785c0.332,1.644 -0.136,4.172 1.672,4.676c-0.598,-1.625 -0.535,-3.935 -0.441,-5.192c0.007,-0.129 0.019,-0.254 0.035,-0.368c-0.028,-0.237 -0.055,-0.483 -0.074,-0.725c-0.176,-0.064 -0.336,-0.15 -0.485,-0.258c0.18,-0.317 0.133,-0.953 -0.324,-1.996c-0.172,-0.391 -0.387,-0.75 -0.617,-1.06c0.14,-0.515 0.18,-1.19 0.164,-1.854c0.016,-0.004 0.027,-0.004 0.043,-0.008c0.047,-0.289 0.066,-0.578 0.058,-0.863c0.122,-0.27 0.204,-0.598 0.243,-0.989c0.054,-0.609 0.086,-1.379 0.074,-2.219c-0.11,-0.265 -0.207,-0.589 -0.27,-0.937c-0.332,-1.844 -0.332,-1.844 -0.336,-3.766c0,-0.097 0.004,-0.191 0.004,-0.278c-0.066,-0.245 -0.14,-0.476 -0.222,-0.694c0.433,-1.821 0.757,-4.449 -0.543,-6.043c-0.278,-0.34 -0.895,-1.535 -1.16,-2.617c0.304,-0.293 0.605,-0.707 0.816,-1.193c0.586,-1.331 1.168,-2.968 0.926,-4.436c0.437,-2.071 0.211,-4.036 -1.957,-5.782c-1.637,-1.316 -3.348,-2.097 -5.266,-2.925c-0.23,-0.098 -0.941,-0.594 -1.394,-1.079c-0.684,-0.214 -1.372,-0.484 -1.762,-0.856c-0.199,1.138 -0.453,2.189 -0.723,3.083c-0.129,0.434 -0.34,0.762 -0.617,0.969c0.285,0.323 0.262,0.894 0.094,2.867c-0.219,2.602 -0.297,2.809 -1.508,4.141c-0.703,0.768 -1.527,2.125 -1.836,3.007c-0.098,0.282 -0.195,0.511 -0.289,0.7c-0.004,0.199 -0.067,0.429 -0.203,0.679c-0.985,1.809 -3.375,1.821 -5.172,1.743c-0.942,-0.04 -1.496,-0.071 -1.828,-0.161c0.125,0.067 0.254,0.141 0.379,0.227c-3.219,0.745 -6.032,0.034 -8.75,-2.012c-0.516,-0.387 -1.676,-0.812 -2.582,-0.945c-3.383,-0.496 0.527,-1.048 1.929,-0.59c0.516,0.167 1.754,0.754 2.746,1.301c1.473,0.808 2.582,1.265 4.235,1.444c0.617,0.068 1.176,0.185 1.707,0.411c-0.067,-0.054 -0.11,-0.121 -0.145,-0.203c-0.254,-0.156 -0.507,-0.379 -0.715,-0.652c-0.769,-1.016 -0.769,-1.016 -2.851,-2.629c-2.285,-1.77 -2.984,-4.332 -2.57,-7.227c0.031,-0.246 0.07,-0.441 0.113,-0.589c-0.399,-1.227 -0.832,-2.321 -1.184,-3.43Zm32.305,47.765c-0.094,2.14 -0.992,4.457 -2.191,5.778c-1.129,1.242 -2.997,2.597 -5.036,3.383c0.059,0.035 0.118,0.07 0.172,0.109c2.367,1.648 6.785,1.895 8.09,-1.141c0.461,-1.066 1.742,0.886 2.512,1.039c0.226,1.567 -1.965,1.055 -3.18,1.622c0.524,0.191 1.246,0.609 1.805,1.061c1.328,1.078 2.726,1.603 5.285,1.356c3.438,-0.328 6.93,1.165 7.449,4.583c0.418,0.8 0.746,1.535 0.766,1.843c0.223,3.535 0.613,3.254 0.433,3.125l-0.003,-0.004c-0.036,-0.023 -0.09,-0.043 -0.168,-0.028c-0.192,0.032 -2.02,0.653 -2.106,0.513l-0.004,-0.004c-0.746,0.949 -2.019,2.476 -1.258,3.094c0.153,0.125 0.43,0.343 0.696,0.589c0.73,-0.242 2.027,-0.519 2.351,0.18c0.297,0.003 0.707,0.042 1.282,0.102c1.82,0.183 2.148,0.121 3.425,-0.672c0.164,-0.106 0.848,-0.625 1.52,-0.942c-0.414,-0.554 -0.512,-1.675 -0.367,-2.574c-1.004,-3.051 -1.407,-6.937 -1.411,-10.043c-0.003,-1.523 -0.675,-4.293 -2.687,-3.898c-0.234,0.047 -0.609,0.019 -0.887,-0.082c0.078,0.164 0.153,0.328 0.219,0.496c0.297,0.738 -1.23,0.332 -1.391,-0.024c-0.074,-0.164 -0.074,-0.164 -0.886,-1.613c-0.809,-1.449 -1.703,-3.23 -1.766,-3.398c-0.203,-0.211 -0.395,-0.446 -0.535,-0.66c-1.567,-2.383 -3.824,-2.508 -6.496,-2.446c-0.235,0.004 -2.961,0.567 -3.129,0.653c-0.867,0.432 -1.926,-0.875 -2.504,-1.997Zm-40.309,13.976c-0.668,0.099 -1.312,0.091 -1.863,-0.061c-0.074,1.777 0,3.835 0.219,5.761c0.109,0.977 0.027,2.856 -0.219,4.214c0.914,0.255 2.008,1.4 2.402,1.958c0.036,0.051 0.071,0.098 0.102,0.149c0.187,0.011 0.379,0.039 0.57,0.078c0.153,-0.055 0.328,-0.094 0.516,-0.121c-0.117,-0.247 -0.18,-0.575 -0.149,-0.961c0.118,-1.439 0.047,-1.642 -0.765,-2.2c-0.516,-0.355 -1.012,-1.082 -1.168,-1.714c-0.152,-0.618 -0.137,-2.645 0.043,-4.633c0.082,-0.957 0.199,-1.832 0.312,-2.47Zm2.922,-2.757c-1.5,-0.66 -2.992,-2.008 -3.844,-3.5c-0.105,0.324 -0.242,0.637 -0.414,0.93c0.051,0.543 0.004,1.28 -0.195,2.202c-0.086,0.399 -0.156,0.856 -0.211,1.36c1.485,0.539 3.543,0.098 4.664,-0.992Zm1.528,-15.41c-0.532,-0.363 -1.036,-0.652 -1.114,-0.644c-0.847,0.093 1.188,1.742 1.43,1.824c2.574,0.883 5.773,0.437 8.469,0.429l-3.41,-1.421c-2.817,-0.344 -4.676,0.289 -5.375,-0.188Zm3.625,4.348c-0.5,-0.246 -0.993,-0.496 -1.485,-0.754c1.84,0.445 3.52,1.504 5.336,0.776c1.574,-0.632 4.832,-0.698 5.719,-0.792c3.914,-0.398 4.789,-3.801 7.328,-6.351c0.93,-0.93 2.203,-2.446 2.199,-3.825c-0.004,-1.539 -1.394,1.5 -1.703,1.856c-2.617,3.016 -5.531,6.148 -9.523,7c-1.668,0.355 -3.692,0.992 -4.496,1.414c-1.532,0.805 -3.504,-0.356 -5.231,-0.274c-0.906,-0.481 -1.805,-0.976 -2.703,-1.476c0.297,1.519 2.078,2.172 3.336,2.848c2.664,1.421 4.758,1.652 7.684,1.644c-0.934,-0.617 -1.778,-0.777 -2.907,-0.961c-1.066,-0.176 -2.664,-0.672 -3.554,-1.105Zm-15.688,-9.989c-0.496,-0.703 -0.992,-1.211 -1.801,-1.449l1.149,2.274c0.769,1.515 1.429,2.972 2.023,4.558c0.457,1.211 1.836,2.664 1.137,0.391c-0.613,-2.013 -1.289,-4.047 -2.508,-5.774Zm10.543,-3.074c-0.476,-1.29 -0.59,-0.265 -0.297,0.571c0.238,0.675 0.965,1.699 1.621,2.273c1.883,1.648 0.992,0.176 0.051,-0.895c-1.133,-1.289 -1.133,-1.289 -1.375,-1.949Zm15.344,-0.383c0.168,-1.196 -0.867,-1.571 -1.028,-0.214c-0.437,3.643 -4.074,3.418 -6.679,2.738c-0.52,-0.137 1.273,1.805 2.07,1.914c1.57,0.223 3.191,-0.574 4.297,-1.777c0.219,0.307 1.003,0.585 1.773,0.479c1.172,-0.159 3.68,-1.167 3.481,-2.729c-0.121,-0.95 -0.578,-0.818 -0.922,-0.086c-0.57,1.203 -2.102,1.632 -3.309,1.726c-0.242,0.02 -0.441,0.051 -0.593,0.089c0.475,-0.655 0.804,-1.397 0.91,-2.14Zm-14.61,-1.39c-0.437,-0.817 -0.808,-0.431 -0.644,0.371c0.445,2.191 5.066,3.414 6.953,2.734c1.66,-0.597 -0.801,-1.082 -1.355,-1.144c-1.321,-0.153 -4.215,-0.594 -4.954,-1.961Zm20.766,-2.727c-0.273,-0.996 -1.652,0.059 -2.023,0.301c-1.02,0.656 -1.192,0.676 -2.473,0.266c-2.082,-0.668 -1.149,1.023 0.082,1.393c0.883,0.263 4.867,-0.323 4.414,-1.96Zm-24.418,3.754c0.074,2.878 -0.394,5.676 -2.285,8.176l-0.813,1.473c0.059,0.104 0.739,3.104 0.95,3.625c0.777,1.898 1.461,4.054 1.492,5.992c0.015,0.031 0.031,0.058 0.047,0.086c1.129,2.211 1.203,3.375 3.769,3.729c0.36,0.047 3.848,0.486 4.117,0.435c1.122,-0.231 2.844,-0.981 3.352,-2.094c0.25,-0.539 0.457,-0.841 1.449,-2.117c0.125,-0.16 1.27,-1.809 2.078,-2.684c-0.355,-0.246 -0.101,-0.554 1.289,-0.629c1.274,-0.066 1.844,-0.273 2.45,-0.894c0.707,-0.723 1.785,-0.75 1.668,-0.004c0.73,0.316 1.894,1.078 2.785,1.832c1.476,1.246 3.57,2.816 3.98,4.855c0.231,0.011 0.535,0.039 0.93,0.075c4.316,0.375 8.894,-1.625 10.641,-5.844c0.218,-0.527 0.859,-3.781 1.468,-4.781c-1.758,-1.02 -3.156,-3.934 -2.586,-5.821c-0.207,-0.422 -0.324,-0.972 -0.218,-1.59c-0.332,-0.289 -0.649,-0.625 -0.793,-0.867c-0.575,-0.988 -1.442,-1.922 -2.153,-2.328c-0.554,-0.316 -0.847,-0.609 -0.949,-0.848c-1.484,-0.179 -3.965,-0.871 -3.644,-1.446c-0.086,-0.225 -0.172,-0.554 -0.286,-1.014c-0.285,-1.161 -0.461,-1.543 -0.984,-1.775c-0.305,0.989 -0.727,1.821 -1.227,2.461c-0.078,0.103 -1.48,0.614 -2.16,1.071c0.575,1.403 -1.394,4.007 -2.136,4.914c-2.25,2.731 -6.157,4.282 -9.637,4.723c-0.371,0.047 -1.5,-0.208 -1.922,-0.562c-0.18,0.015 -0.387,0.023 -0.633,0.023c-4.582,0.012 -7.441,-2.38 -9.246,-6.38c-0.375,-0.836 -0.633,-1.405 -0.793,-1.792Zm15.402,-1.898c-0.343,0.242 -0.757,0.414 -1.21,0.543c-0.321,0.039 -0.708,0.066 -1.184,0.086c-0.734,0.035 -1.234,0.147 -1.512,0.285c-0.34,0.026 -0.66,0.051 -0.949,0.082l0.73,0.086c-0.183,0.269 0.356,0.558 1.61,0.554c1.449,-0.003 2.781,-0.441 3.906,-1.324l0.004,0c0.297,-0.083 0.645,-0.234 0.941,-0.406c0.562,-0.328 0.762,-0.781 0.852,-1.945c0.094,-1.235 -0.813,-2.56 -1.078,-0.711c-0.082,0.586 -0.485,1.468 -0.914,2.023c-0.11,0.051 -0.219,0.117 -0.336,0.211c0.148,-0.25 -0.055,-0.269 -0.504,0.206c-0.106,0.114 -0.227,0.216 -0.356,0.31Zm14.868,-9.896c-0.586,0.943 -1.313,2.032 -2.008,2.306c0.086,1.351 0.015,2.59 -0.184,3.683c0.262,0.125 0.504,0.282 0.68,0.407c0.695,0.488 1.754,2.328 1.473,3.401c0.222,0.021 0.464,0.06 0.714,0.114c-0.039,-0.933 1.2,-1.437 2.114,-1.476c-0.032,-0.086 -0.059,-0.185 -0.078,-0.293c-0.075,-0.465 -0.579,-1.426 -1.122,-2.137c-0.843,-1.102 -2,-2.512 -1.957,-3.992c0.016,-0.492 0.172,-1.309 0.368,-2.013Zm-27.762,-13.37c-0.301,-0.453 -1.344,-0.898 -1.574,-0.898c-0.61,0.004 1.191,2.164 1.523,2.613c0,-0.746 0.485,-1.07 0.051,-1.715Zm-3.246,-1.005c1.148,-0.386 -1.039,-0.507 -1.477,-0.159c-1.09,0.863 -1.929,3.859 -1.652,5.18c0.269,1.273 0.277,0.629 0.519,-0.352c0.325,-1.312 1.102,-4.156 2.61,-4.669Zm31.25,-0.12c-0.242,-0.169 -0.512,-0.294 -0.789,-0.383c0.226,-0.484 0.41,-1.019 0.504,-1.23c0.406,-0.918 0.726,-1.821 1.054,-2.762c0.059,-0.169 -0.16,-0.309 -0.484,-0.309c-0.992,0.004 -2.176,2.684 -2.277,4.145c-0.907,0.023 -1.821,0.348 -2.5,0.855c-1.422,1.054 2.007,0.235 2.422,0.157c0.105,-0.02 0.214,-0.039 0.32,-0.059c0.176,0.176 0.355,0.11 0.527,-0.083c0.653,-0.081 1.289,-0.081 1.926,0.15l-0.703,-0.481Zm-8.215,-22.801c-0.652,-0.383 -1.383,-0.695 -2.18,-0.925c-0.383,-0.11 -0.675,-0.25 -0.879,-0.395c-0.101,0.012 -0.195,0.019 -0.273,0.027c-2.121,0.188 -5.887,0.203 -7.352,2.18c-2.601,3.495 -4.156,10.258 -2.105,14.324c0.711,1.406 0.711,1.406 0.949,2.585c0.129,0.618 -0.078,1.232 -0.371,1.45c0.172,0.606 0.301,1.261 0.336,1.55c0.359,2.922 0.359,2.922 2.187,4.532c1.829,1.61 1.829,1.61 3.059,2.973c0.008,0.008 0.016,0.016 0.024,0.027c0.421,-0.054 1.097,-0.078 2.171,-0.11c2.676,-0.081 2.957,-0.151 3.438,-0.87c0.152,-0.223 0.32,-0.371 0.488,-0.461c0.035,-0.508 0.172,-1.078 0.445,-1.582c1.172,-2.152 2.243,-3.449 2.645,-6.023c0.23,-1.477 0.352,-2.239 0.496,-2.586c-0.297,-1.114 0.574,-4.032 0.762,-4.664c1.441,-4.775 0.156,-9.696 -3.84,-12.032Z"/><path d="M148.473,91.113c-0.406,0.27 -0.855,0.422 -1.285,0.422c-0.531,0 -1.562,0.278 -2.289,0.61c-1.601,0.742 -4.308,1.941 -6.07,2.082c-0.844,0.07 -0.203,1.531 -0.098,1.746c0.457,0.933 2.324,0.883 3.457,0.543c0.043,0.097 0.094,0.195 0.16,0.289c1.036,1.484 3.414,0.773 4.868,-0.344c0.007,0.063 0.019,0.125 0.035,0.184c0.476,1.91 3.554,0.203 4.945,-0.91c0.332,0.066 0.715,0.039 1.027,-0.083c0.52,0.575 1.258,1.149 1.336,1.219c1.067,0.891 4,0.805 3.871,-0.902c-0.003,-0.035 -0.007,-0.07 -0.011,-0.102c0.023,-0.035 0.039,-0.07 0.05,-0.109c0.645,0.168 1.719,-0.059 2.504,-0.383c0.196,0.176 0.422,0.344 0.672,0.477c0.09,0.074 0.172,0.125 0.227,0.16c0.527,0.293 1.508,0.332 2.375,0.113c0.676,-0.109 1.332,-0.34 1.691,-0.765l0.004,0c0.387,0.011 0.699,-0.145 0.805,-0.59c0.285,-1.16 -1.934,-2.262 -2.723,-2.805c-0.238,-0.164 -0.422,-0.23 -0.562,-0.223c-0.059,-0.039 -0.117,-0.07 -0.18,-0.097c-0.066,-0.032 -0.125,-0.043 -0.176,-0.032c-0.769,-0.507 -2.457,-0.808 -3.703,-0.679c-0.035,-0.145 -0.094,-0.293 -0.176,-0.442c-0.363,-0.629 -0.636,-1.922 -0.254,-2.601c0.348,-0.621 0.387,-1.375 0.368,-2.063c-0.016,-0.41 -0.235,-0.793 -0.465,-0.84c-0.231,-0.23 -0.582,-0.453 -0.883,-0.558c-0.09,-0.078 -0.203,-0.164 -0.332,-0.25c-1.457,-1.004 -2.387,-2.477 -2.742,-4.184c-0.078,-0.379 -0.168,-0.73 -0.25,-1.004c0.082,0.047 0.172,0.094 0.261,0.141c0.004,0 0,0 0.004,0.004c0,1.105 1.371,2.586 1.953,3.422c0.829,1.195 0.829,1.195 0.813,1.176c-0.02,-0.016 -0.02,-0.016 0.281,0.3c0.301,0.317 0.301,0.317 0.738,0.641c0.434,0.324 5.641,3.273 8.071,3.266c1.465,0 2.578,-0.282 3.949,-0.555c-0.57,0.363 -1.109,0.781 -1.496,1.015c-0.625,0.383 -1.102,0.504 -2.203,0.567c-1.742,0.098 -4.172,-0.137 -5.61,-1.375c-0.265,-0.227 -0.972,-1.027 -1.093,-1.383c-0.715,-2.105 -1.082,0.242 -0.688,1.441c0.617,1.868 5.246,3.274 6.778,3.376c2.757,0.191 3.148,-0.989 5.428,-2.559c1.466,-0.441 2.138,0.418 2.81,0.48c0.687,0.063 2.664,0.09 3.39,0c1.231,-0.148 1.739,-1.117 1.821,-1.574c0.004,-0.012 0.73,0.16 0.73,0.145c0.86,0.601 0.61,0.734 1.227,1.484c0.293,0.356 0.804,2.199 1.105,2.309c1.68,0.625 4.981,0.777 6.707,0.363c0.403,-0.098 3.594,-2.141 4.121,-2.703c0.196,0.008 0.446,0.012 0.774,0.012c1.34,-0.004 2.832,-0.918 2.918,-1.02c0.031,-0.035 0.054,-0.066 0.078,-0.094c0.523,0.129 1.164,0.149 1.309,0.157c2.882,0.128 6.261,-3.446 6.769,-3.786c0.461,-0.238 1.117,-0.164 1.664,-0.043c0.082,0.633 0.16,1.254 0.223,1.762c0.164,1.289 0.164,1.289 0.195,3.094c0.004,0.207 0.008,0.39 0.012,0.555c-1.113,-0.086 -2.028,0.5 -2.274,1.625c-0.125,0.582 -0.511,1.207 -0.855,1.394c-1.535,0.828 1.957,3.031 3.043,2.988c0.492,0.145 1.07,0.196 1.496,0.063c0.75,0.719 3.074,0.484 3.754,0.332c0.816,-0.176 4.664,-1.563 4.445,-2.777c-0.015,-0.09 -0.039,-0.165 -0.07,-0.227c0.742,-0.75 0.433,-2.57 -0.098,-3.324c-0.039,-0.051 -0.074,-0.102 -0.109,-0.149c-0.035,-1.172 -0.18,-2.355 -0.235,-2.605c-0.152,-0.711 -0.515,-1.735 -0.8,-2.278c-0.989,-1.871 -0.356,-3.941 -0.528,-6.019c-0.09,-1.031 -0.746,-2.793 -1.695,-3.313c-2.063,-1.792 -4.582,0.29 -4.781,0.247c-0.5,-0.11 -0.699,-0.153 -0.84,-0.172c-1.02,-1.129 -2.801,-2.078 -4.16,-2.547c-1.719,-0.586 -3.606,-0.215 -5.149,0.625c-0.316,0.176 -1.328,0.742 -1.691,1.262c-0.758,-0.196 -1.914,-0.157 -2.539,0.183c-0.246,-0.281 -0.496,-0.539 -0.656,-0.723c2.226,-0.281 5.097,-1.988 5.984,-3.769c1.473,-2.969 1.676,-8.906 -1.188,-11.016c-0.382,-0.281 -0.804,-0.543 -1.121,-0.703c-0.058,-0.258 -0.148,-0.582 -0.281,-0.961c-0.492,-1.457 -0.473,-2.078 -1.808,-2.742c-0.329,-0.164 -1.266,-0.621 -1.532,-0.73c-0.172,-0.289 -0.515,-1.118 -0.949,-1.75c-1.371,-1.996 -5.445,-0.985 -7.23,0.648c-0.25,-0.059 -0.559,-0.098 -0.954,-0.098c-0.007,-0.004 -0.019,-0.004 -0.027,-0.007c-0.293,-0.071 -0.555,-0.125 -0.75,-0.153c-0.562,-0.078 -0.973,-0.019 -1.211,0.114c-0.265,-0.024 -0.586,-0.059 -1.051,-0.106c-2.351,-0.254 -6.527,0.488 -7.804,2.754c-0.715,1.269 -1.383,2.766 -1.903,4.328c-1.011,-0.269 -4.664,-0.461 -5.472,-0.82c-2.27,-1 -3.489,-0.258 -5.657,0.582c-0.175,0.066 -0.972,0.48 -1.429,0.914c-0.192,-0.121 -0.426,-0.235 -0.723,-0.348c-2.324,-0.898 -3.66,-0.789 -5.422,0.266c-0.336,-0.32 -1.984,-0.856 -2.133,-0.926c-1.261,-0.609 -2.117,-0.598 -2.855,-0.738c-1.59,-0.516 -3.488,0.238 -4.527,1.355c-0.696,0.75 -0.45,0.989 -1.036,1.098c-1.234,0.226 -2.847,1.683 -3,3.012c-0.105,0.918 0.043,1.605 -0.242,1.734c-1.176,0.516 -1.465,2.125 -1.461,3.457c0,0.621 0.243,1.188 0.633,1.688c-0.445,1.48 0.965,6.437 1.875,7.46c2.008,2.243 1.653,1.668 2.875,4.336c0.852,1.856 1.82,4.153 1.895,4.594c0.234,1.371 1.883,2.567 3.011,3.445Zm60.422,-6.218c0.266,4.222 -0.109,5.777 -0.617,5.867c-0.191,0.035 -0.32,0.008 -0.406,-0.129l0,-0.008c-0.75,0.953 -2.02,2.477 -1.258,3.098c0.148,0.121 0.426,0.34 0.695,0.59c0.727,-0.243 2.024,-0.524 2.352,0.175c0.293,0.008 0.707,0.047 1.281,0.102c1.817,0.188 2.145,0.121 3.426,-0.672c0.168,-0.101 0.848,-0.621 1.519,-0.941c0.25,-1.16 0.137,-2.739 0.262,-3.516c-0.043,-0.461 -0.101,-0.93 -0.183,-1.34c-0.356,-1.777 -0.989,-1.379 -1.168,-1.91c-0.555,-1.683 -0.793,-3.152 -1.02,-4.961c-0.172,-1.375 0.055,-5.656 -2.328,-5.027c-0.203,0.051 -0.797,0.367 -1.281,0.472c0.066,0.122 0.07,0.262 -0.012,0.415c-0.223,0.418 -1.578,0.136 -2.438,-0.293c-0.113,-0.028 -0.226,-0.079 -0.32,-0.157c-1.207,-0.992 -2.273,-1.414 -3.683,-2.117c-1.586,-0.785 -2.586,-0.789 -4.008,0.074c-0.098,0.059 -1.379,1.133 -1.895,1.387c0.098,0.219 0.004,0.258 -0.48,0.289c-0.375,0.024 -1.223,-0.508 -2,-0.43c0.008,0.012 0.015,0.024 0.023,0.036l0,0.003c0.074,0.008 0.168,0.043 0.278,0.11c0.316,0.187 0.566,0.629 0.828,1.48c0.726,2.317 0.062,5.11 -0.59,7.383c-0.25,0.875 -0.719,2.133 -1.406,3.195c0.359,-0.05 1.668,-1.429 2.281,-1.652c0.199,-0.144 0.832,-0.199 2.199,-0.203c1.766,-0.004 4.609,-2.387 4.766,-2.508c0.519,-0.398 1.09,-0.676 1.679,-0.824c1.106,-0.285 2.278,-0.117 3.293,0.551c0.266,0.492 0.258,0.504 -0.121,0.445c0.004,0.047 0.008,0.094 0.008,0.141l0,0.004c0.176,0.296 0.305,0.609 0.324,0.871Zm-55.789,4.851l0.86,0.481c-1.258,0.465 -2.493,0.871 -3.61,1.621c-0.535,0.359 -1.551,0.722 -2.261,0.816c-1.29,0.164 -1.29,0.164 -1.774,0.488c-1,0.668 -2,1.313 -3.223,1.477c-0.312,0.039 -0.785,0.156 -1.308,0.266c0.375,0.086 0.738,0.183 1.012,0.3c0.156,0.008 0.335,0.063 0.535,0.176c0.738,0.414 0.953,0.391 2.16,-0.234c0.137,-0.07 0.449,-0.192 0.82,-0.301c0.836,-0.57 2.594,-1.348 3.102,-1.277c0.64,0.093 0.64,0.093 -0.34,0.812c-0.246,0.18 -0.484,0.336 -0.727,0.469c0.008,0.023 0.012,0.047 0.012,0.074c0.102,0.074 0.199,0.192 0.301,0.356c0.531,0.859 0.531,0.859 1.773,0.011c0.114,-0.078 0.524,-0.242 0.981,-0.375c0.004,-0.125 0.043,-0.265 0.113,-0.418c0.535,-1.168 2.023,-1.269 2.309,0.059l0,0.004c0.164,0.105 0.394,0.309 0.828,0.695c0.531,0.473 1.308,1.426 2.07,0.809c0.16,-0.129 0.324,-0.274 0.48,-0.41c0.016,-0.188 0.043,-0.426 0.079,-0.719c0.199,-1.531 0.718,-1.688 2.058,-1.117c0.121,0.051 0.235,0.109 0.344,0.172c0.797,-0.02 1.656,0.171 2.102,0.425c0.117,0.067 0.164,0.145 0.156,0.235c0.148,0.062 0.304,0.121 0.465,0.172c0.672,0.093 1.41,0.129 1.871,-0.11c-0.258,-0.175 -0.477,-0.359 -0.617,-0.504c-0.336,-0.129 -1.649,-1.812 -2.758,-1.937c-0.977,0.316 -3.086,0.527 -3.426,-0.145c-0.07,-0.14 -1.457,-1.203 -1.457,-1.316c-1.172,-0.594 -1.984,-0.711 -1.559,-1.465l-0.004,-0.008c-0.015,-0.066 -0.019,-0.148 0.016,-0.019c0.02,-0.035 0.043,-0.071 0.07,-0.102c0.004,-0.047 0.008,-0.109 0.012,-0.183c0.059,-1.024 -1.09,-2.114 -1.598,-2.961c-1.273,-2.121 -1.75,-4.371 -2.043,-6.778c-0.05,-0.425 -0.054,-1.328 -0.07,-1.605c-0.824,-0.418 -1.508,-1.012 -2.051,-1.711c-1.632,0.781 -4.351,-1.016 -5.211,-1.871c-0.281,-0.278 -0.535,-0.59 -0.761,-0.934c-0.137,0.121 -0.321,0.125 -0.688,0.059c-0.445,-0.078 -0.926,-0.235 -1.394,-0.461c0.207,0.637 0.269,2.906 0.699,3.457c0.801,1.027 1.547,2.453 2.305,3.547c0.769,1.121 -0.176,-0.633 0.933,2.488c0.86,2.41 2.836,5.867 4.547,7.875c0.063,0.074 0.109,0.141 0.145,0.215c1.031,-0.734 2.109,-0.426 3.722,-0.598Zm19.336,-3.039c0.074,0 0.141,0.008 0.207,0.02c0.153,0.031 0.278,0.105 0.336,0.187c0.328,-0.109 0.602,-0.187 0.703,-0.215c0.125,-0.031 1.442,0.317 3.051,0.313c0.281,0 1.309,-0.313 1.898,-0.367c0.497,-0.149 1.278,-1.586 1.989,-0.684c0.863,1.086 1.742,2.238 2.937,2.984c0.254,0.161 1.344,0.731 1.285,1.075c0.266,0.125 0.532,0.261 0.707,0.382c0.2,-0.007 0.414,-0.015 0.653,-0.019c2.551,-0.094 5.84,-0.699 7.324,-3.059c1.59,-2.523 2.371,-6.875 1.746,-9.757c-0.047,-0.211 -0.172,-0.665 -0.211,-1.043c-0.972,0.078 -2.051,-1.395 -2.035,-2.301c-0.215,-0.016 -0.371,-0.055 -0.477,-0.106c-0.054,0.067 -0.113,0.145 -0.183,0.227c-0.504,0.629 -1.297,2.652 -2.309,2.656c-0.179,0.883 -0.488,1.27 -1.273,2.137c-0.703,0.773 -1.531,2.125 -1.84,3.012c-0.094,0.277 -0.191,0.507 -0.285,0.695c-0.004,0.203 -0.067,0.434 -0.203,0.68c-0.985,1.808 -3.375,1.82 -5.176,1.746c-1.699,-0.071 -2.129,-0.118 -2.305,-0.528c-0.07,-0.047 -0.14,-0.093 -0.207,-0.148c-0.289,0.016 -0.695,0.012 -1.285,0c-0.332,-0.008 -1.035,0.047 -1.492,-0.086c-0.266,0.457 -0.586,0.848 -0.918,0.937c-0.145,0.04 -0.602,0.282 -1.016,0.543c-0.75,0.469 -0.75,0.469 -1.394,0.653c-0.086,0.027 -0.16,0.047 -0.227,0.066Zm-14.035,-1.082c-0.246,-0.058 -0.496,-0.187 -0.688,-0.347c-0.281,-0.055 -0.621,-0.188 -0.945,-0.415c-0.91,-0.644 -1.472,-0.988 -1.98,-2.082c-0.141,0.731 -0.617,1.403 -0.946,2.043c0.247,0.911 0.543,1.278 1.11,1.969c0.508,0.617 0.707,1.348 0.711,2.133l0.004,0c0.664,0.215 1.41,0.875 1.906,1.422c-0.313,-0.93 -0.152,-2.078 0.187,-2.946c0.465,-1.183 0.504,-1.285 0.641,-1.777Zm-5.898,-7.168c0.222,1.363 0.527,2.738 0.882,4.078c0.262,-0.465 0.262,-0.476 0.442,-1.371c0.054,-0.269 0.09,-0.562 0.199,-0.73c-0.082,-0.52 -0.191,-1.492 0.074,-1.867c-0.137,0.019 -0.308,0.031 -0.511,0.031c-0.368,0 -0.731,-0.047 -1.086,-0.141Zm7.738,5.028c0.887,0.976 1.937,1.789 3.515,2.285c3.661,1.156 9.051,0.875 11.45,-2.399c0.34,-0.461 1.636,-1.789 1.379,-0.371c-0.016,0.09 -0.043,0.195 -0.079,0.313c0.329,-0.043 0.719,-0.047 1.114,-0.02c-0.379,-0.414 -0.848,-0.781 -2.215,-1.836c-2.285,-1.769 -2.981,-4.332 -2.57,-7.226c0.035,-0.246 0.074,-0.438 0.117,-0.59c-0.543,-1.672 -1.153,-3.094 -1.532,-4.656c-0.242,0.242 -0.821,0.511 -1.433,0.71c-0.004,0 -0.012,0.004 -0.016,0.008c-0.242,1.141 -0.933,2.907 -1.875,3.614c-1.039,0.777 -3.976,0.257 -1.32,-0.301c0.949,-0.199 0.992,-0.254 1.766,-2.117c0.062,-0.141 0.308,-0.567 0.582,-0.973c-1.035,0.207 -1.715,0.062 -0.274,-0.965c0.879,-0.625 1.387,-0.777 2.387,-0.449c0.03,0.008 0.055,0.023 0.082,0.031c-0.172,-0.801 -0.277,-1.652 -0.277,-2.59c-0.004,-1.32 0.21,-2.754 0.573,-4.183c-0.776,0.172 -1.937,-0.086 -2.577,-0.293c-0.532,-0.172 -0.532,-0.172 -2.473,-0.946c-1.937,-0.773 -1.937,-0.773 -4.047,0.016c-0.355,0.133 -1.414,0.762 -2.234,0.977c0.305,0.828 -0.672,0.941 -1.36,0.566c-3.914,-2.156 -8.632,1.242 -10.015,5.004c-0.227,0.621 -0.988,1.332 -1.145,0.277c-0.218,-1.5 0.973,-2.843 1.903,-3.847c0.707,-0.758 1.453,-1.469 2.246,-2.055c-0.645,0.027 -1.379,-0.16 -1.867,-0.43c-0.93,-0.511 -2.344,-1.304 -3.368,-0.828c-0.25,0.113 -1.265,0.328 -1.664,0.84c-0.601,0.773 -0.547,1.176 -1.527,1.262c-1.348,0.121 -2.285,1.289 -2.074,2.683c0.097,0.641 -0.055,0.715 -0.653,1.313c-1.074,1.082 -2.035,2.843 -0.468,4.176c0.328,0.281 1.074,0.539 1.714,0.867c-0.273,-1 -0.296,-2.063 0.028,-3.032c0.453,-1.347 0.777,0.508 0.851,1c0.231,1.602 0.661,3.5 2.211,4.348c0.352,0.195 1.27,0.602 2.039,0.906c0.118,0.047 0.496,0.102 0.911,0.188c-0.571,-1.137 -0.856,-2.41 -0.86,-3.602c0,-1.367 0.817,0.067 1.008,0.567c0.809,2.078 1.934,3.715 4.016,4.703c0.351,0.168 1.222,0.625 1.82,1.078c0.203,-0.066 0.508,-0.016 0.848,0.18c1.757,1.011 4.472,0.793 5.894,-0.711c0.352,-0.367 1.305,-2.492 1.781,-1.602c0.457,0.84 -1.254,2.801 -1.996,2.985c-0.39,0.097 -0.39,0.097 -0.984,0.578c-0.731,0.593 -1.445,0.535 -2.668,0.347c1.34,1.434 2.199,2.95 3.336,4.2Zm4.117,-9.528c-1.012,-0.496 -1.012,-0.496 -1.414,-0.496c-1.074,0.004 0.711,1.418 0.879,1.52c0.617,0.375 1.82,1.464 2.668,2.425c1.664,1.879 3.676,2.434 6.187,2.336c1.746,-0.07 0.453,-1.105 -0.574,-1.222c-2.723,-0.309 -3.996,-1.422 -5.926,-3.289c-0.445,-0.43 -1.265,-1.004 -1.82,-1.274Zm-6.602,-3.351c-0.261,-1.055 -0.824,0.062 -0.781,0.644c0.125,1.801 1.352,3.164 3.074,3.481c1.407,0.261 1.477,0.254 1.477,-0.184c-0.004,-0.672 -1.172,-0.832 -1.637,-1.031c-1.164,-0.496 -1.832,-1.711 -2.133,-2.91Zm39.442,0.918c0.91,-0.68 1.601,-1.598 1.926,-2.887c0.527,-2.082 1.074,-6.391 -1.012,-7.926c-0.078,-0.027 -0.156,-0.059 -0.215,-0.094c-0.152,-0.093 -0.531,-0.343 -0.836,-0.558c-0.336,-0.235 -2.191,-0.938 -2.574,-1.043c-0.809,-0.227 -2.41,-0.324 -2.391,-0.512c0.02,-0.172 1.321,-0.785 1.594,-0.789c0.195,0 0.66,0.098 1.035,0.211c0.539,0.168 1.121,0.352 1.668,0.594c-0.039,-0.106 -0.07,-0.2 -0.082,-0.254c-0.18,-0.77 -0.402,-1.25 -0.644,-1.403c-0.614,-0.386 -1.219,-0.73 -1.797,-1.179c-0.051,-0.039 -0.184,-0.172 -0.324,-0.336c-0.172,0.035 -0.333,0.023 -0.372,-0.059c-0.964,-2.086 -2.918,-3.687 -4.949,-1.957c-0.262,0.223 -0.597,0.395 -0.941,0.512c5.566,2.406 5.133,10.891 3.867,16.078c0.117,-0.039 0.246,-0.055 0.383,-0.043c0.207,0.012 1.289,-0.019 1.387,0l0.886,-0.305c0.196,-0.441 0.731,-0.66 0.68,0.004c-0.027,0.426 -0.414,1.024 -0.863,1.188c-0.063,0.023 -0.125,0.039 -0.188,0.043c-0.051,0.043 -0.121,0.074 -0.211,0.086c-1.269,0.195 -2.195,1.054 -2.656,2.211c-0.035,0.089 -0.09,0.152 -0.16,0.195c-0.012,0.406 -0.055,0.949 -0.117,1.695c-0.024,0.25 -0.043,0.473 -0.063,0.68c0.016,-0.024 0.031,-0.047 0.047,-0.074c0.441,-0.711 1.457,-2.844 2.52,-2.278c0.015,0.012 0.031,0.016 0.046,0.024c0.192,-0.113 0.422,-0.211 0.641,-0.262c1.371,-0.332 2.68,-0.793 3.715,-1.562Zm-4.387,-8.629c-0.211,-0.778 -1.019,-0.153 -0.746,0.511c0.375,0.922 1.191,1.965 2.262,1.965c0.832,-0.004 0.582,-0.687 -0.047,-0.863c-0.582,-0.16 -1.313,-1.043 -1.469,-1.613Zm-33.965,4.281l1.106,-1.145c-0.086,0.153 -0.121,0.274 -0.11,0.364c0.102,0.75 2.344,-1.375 2.774,-1.711c1.187,-0.926 4.449,-1.141 5.953,-1.442c1.195,-0.238 -0.867,-0.824 -1.379,-1.175c-0.793,-0.547 -1.367,-0.25 -2.223,0.136c-1.406,0.637 -2.359,1.071 -3.535,2.18c-0.672,0.633 -1.129,1.125 -1.375,1.48c-0.476,-0.101 -1.484,-0.421 -1.914,-0.14c-0.32,0.207 -1.859,2.758 -0.984,2.754c0.238,0 0.996,-0.586 1.687,-1.301Zm27.227,-11.941c-0.656,-0.379 -1.383,-0.692 -2.184,-0.926c-0.383,-0.11 -0.672,-0.246 -0.875,-0.391c-0.105,0.012 -0.195,0.02 -0.273,0.027c-2.121,0.184 -5.887,0.204 -7.356,2.176c-2.597,3.496 -4.152,10.262 -2.101,14.328c0.707,1.403 0.707,1.403 0.949,2.582c0.125,0.618 -0.078,1.231 -0.375,1.454c0.176,0.601 0.305,1.257 0.34,1.55c0.359,2.918 0.359,2.918 2.187,4.528c1.828,1.613 1.828,1.613 3.055,2.972c0.012,0.008 0.02,0.016 0.027,0.028c0.422,-0.055 1.098,-0.075 2.168,-0.106c2.676,-0.082 2.961,-0.156 3.442,-0.871c0.152,-0.223 0.32,-0.375 0.488,-0.465c0.035,-0.504 0.172,-1.078 0.445,-1.582c1.172,-2.152 2.243,-3.449 2.645,-6.023c0.23,-1.477 0.351,-2.238 0.496,-2.586c-0.297,-1.11 0.574,-4.028 0.762,-4.664c1.441,-4.77 0.156,-9.696 -3.84,-12.031Z"/></svg>