<?xml version="1.0" encoding="UTF-8" standalone="no"?><!DOCTYPE svg PUBLIC "-//W3C//DTD SVG 1.1//EN" "http://www.w3.org/Graphics/SVG/1.1/DTD/svg11.dtd"><svg width="100%" height="100%" viewBox="0 0 376 94" version="1.1" xmlns="http://www.w3.org/2000/svg" xmlns:xlink="http://www.w3.org/1999/xlink" xml:space="preserve" xmlns:serif="http://www.serif.com/" style="fill-rule:evenodd;clip-rule:evenodd;stroke-linejoin:round;stroke-miterlimit:1.41421;"><path d="M97.132,51.957c-0.066,0.176 -0.129,0.355 -0.179,0.531c0.175,0.129 0.402,0.297 0.703,0.524c0.566,0.171 1.328,0.429 2.097,0.718c1.379,0.516 3.336,1.075 4.352,1.239c3.191,0.511 6.961,2.195 10.113,1.418c0.028,-0.008 0.067,-0.016 0.117,-0.024c-0.117,-0.207 -0.136,-0.371 -0.093,-0.515c0.222,-0.743 0.222,-0.743 1.898,0.367c0.024,0.015 0.051,0.035 0.078,0.054c0.61,0.02 1.02,0.129 0.621,0.422c1.043,0.715 2.582,1.809 3.832,2.719c4.078,2.981 6.379,5.285 11.43,5.848c6.121,0.679 15.027,3.383 16.625,10.32c0.586,-1.559 1.652,-2.445 1.32,0.227c-0.129,1.046 -0.148,3.32 -0.047,5.058c0.188,3.16 0.188,3.16 0.442,5.543c0.234,2.25 -0.574,2.875 -1.289,1.867c-0.41,0.356 -1.074,0.602 -2.114,0.805c-1.976,0.387 -2.859,1.379 -0.468,2.059c2.511,0.714 5.883,0.875 7.902,-0.961c0.149,-0.133 0.32,-0.262 0.512,-0.379c0.469,-0.934 1.137,-1.864 1.637,-2.192c0.199,-2.687 1.746,-5.558 3.304,-7.578c0.875,-1.129 1.961,-2.254 2.828,-3.488l-0.004,0c-0.039,-0.121 -0.035,-0.289 0.028,-0.52c0.281,-1.058 1.144,-2.086 0.847,-3.207c-0.062,-0.031 -0.121,-0.062 -0.183,-0.097c-1.133,-0.625 -3.231,-1.375 -4.664,-1.664c-3.75,-0.758 -6.293,-2.141 -9.313,-4.59c-3.75,-3.047 -3.75,-3.047 -5.91,-5.028c-0.547,-0.503 -1.058,-1.042 -1.457,-1.527c-0.062,0.02 -0.129,0.035 -0.203,0.043c-0.852,0.106 -0.977,-0.023 -1.039,-1.062c-0.098,-1.723 -0.879,-2.493 -2.332,-3.379c-2.266,-1.383 -4.481,-2.012 -7.145,-2.493c-2.273,-0.414 -6.328,-1.472 -8.972,-1.691c-3.856,-0.32 -4.805,-0.398 -4.68,-0.941c0.082,-0.368 0.66,-0.45 3.824,-0.235c-2.879,-0.679 -5.547,-1.004 -8.062,-2.957c-1.157,-0.898 -5.86,-3.996 -8.039,-5.234c-0.262,-0.004 -0.59,-0.082 -0.981,-0.254c-0.414,0.543 -1.137,1.387 -2.273,2.621c-1.645,1.848 -4.047,4.879 -5.063,7.633Zm-64.566,-14.621c0.043,0.234 0.094,0.523 0.16,0.894c0.152,0.891 1.047,3.035 1.109,4.434l0.004,0.008c0.067,0.074 0.063,0.199 -0.015,0.422c-0.036,0.3 -0.133,0.547 -0.317,0.703c-0.152,0.301 -0.351,0.683 -0.609,1.172c-1.402,2.672 -2.309,4.664 -1.18,7.605c0.031,0.09 0.063,0.172 0.094,0.254c0.105,0.141 0.219,0.313 0.34,0.523c0.14,0.086 0.289,0.391 0.449,1.008c0.047,0.196 0.086,0.446 0.113,0.719c0.18,0.988 0.328,2.457 0.512,4.852c0.133,1.707 0.223,2.875 0.285,3.761c0.016,0.059 0.031,0.117 0.051,0.172c0.074,0.25 0.117,0.641 0.113,1.024c0.363,0.281 0.375,0.902 0.172,3.148c-0.086,0.973 -0.152,1.629 -0.238,2.082c0.703,0.539 1.555,1.449 0.906,1.281c-0.328,-0.086 -0.434,-0.113 -1.523,-0.297c-0.118,0.04 -0.254,0.071 -0.418,0.102c-0.52,0.094 -0.77,0.141 -0.801,-0.312c-0.32,-0.055 -0.68,-0.118 -1.09,-0.184c-0.914,-0.156 -1.664,-0.316 -2.238,-0.477c-0.309,0.028 -0.633,0.024 -0.942,-0.007c-0.097,0.324 -0.492,0.55 -1.386,0.882c-0.856,0.321 -2.961,0.739 -4.672,0.926c-2.762,0.309 -3.153,0.422 -4.09,1.488c0.496,0.012 1.293,0.012 2.641,0.012c0.433,0 1.453,0.059 2.238,0.192c0.797,-0.418 2.48,-0.524 1.789,0.773c-0.172,0.32 -0.192,0.629 -0.149,0.906c0.262,-0.105 0.618,-0.187 1.067,-0.219c0.695,-0.054 3.785,-1.136 5.07,-0.804c0.195,-0.114 0.68,-0.071 1.699,0.051c1.895,0.222 4.801,0.488 5.157,-1.723c-0.168,-0.399 -0.239,-0.926 -0.235,-1.465c-0.031,-0.41 0.074,-1.211 0.278,-2.734c0.238,-1.766 1.05,-4.934 1.816,-7.039c0.172,-0.481 0.324,-0.903 0.457,-1.282c-0.027,-1.211 0.43,-3.089 0.555,-3.461c0.113,-0.335 0.195,-0.621 0.25,-0.91l0,-0.004c-0.012,-0.687 -0.055,-1.523 -0.114,-2.636c-0.019,-0.344 -0.035,-0.661 -0.05,-0.953c-0.02,-0.172 -0.047,-0.352 -0.071,-0.543c-0.332,-2.528 -0.429,-3.274 -0.222,-3.493c-0.047,-0.968 -0.004,-2.136 0.121,-3.086c-0.942,-1.117 -0.106,-4.109 0.293,-5.328c-0.446,0.012 -1.024,0 -1.785,-0.019c-2.086,-0.059 -3.981,-0.981 -5.594,-2.418Zm107.598,26.679c0.425,0.184 1.679,0.793 1.187,0.305c-0.09,-0.094 -0.574,-0.211 -1.187,-0.305Zm-113.7,-36.269c0.41,0.723 0.938,1.437 1.555,2.016c0.086,0.562 0.203,1.078 0.309,1.336c0.644,1.57 1.492,3.074 2.503,4.371c-0.082,0.281 -0.136,0.589 -0.16,0.867c-0.168,2.187 0.039,4.617 0.989,6.629c0.023,0.043 0.043,0.09 0.066,0.133c0.082,0.367 0.168,0.664 0.254,0.898c-0.188,0.309 -0.391,0.668 -0.617,1.086c-1.449,2.66 -2.098,5.672 -0.852,8.582c0.192,0.441 0.36,0.766 0.527,0.992c0.098,0.336 0.176,0.754 0.239,1.25c-0.082,0.594 -0.133,1.109 -0.145,1.301c-0.113,1.969 -0.066,3.758 0.403,5.5c0.089,1.594 0.234,3.269 0.398,4.492c0.063,0.5 0.125,0.934 0.18,1.309c-0.075,0.386 -0.137,0.722 -0.188,1.011c-0.719,-0.117 -1.617,-0.23 -2.426,-0.296c-0.597,-0.344 -1.918,-0.391 -2.703,-0.168c-0.836,-0.18 -2.152,0.535 -2.785,0.734c-1.355,0.426 -3.734,0.996 -5.285,1.269c-1.621,0.29 -2.312,0.411 -2.59,0.79c-0.055,0.015 -0.105,0.031 -0.148,0.05c-0.567,-0.277 -1.153,-0.043 -1.055,1.11c0.051,0.59 0.379,1.09 0.758,1.363c0.336,0.992 3.836,0.766 5.621,0.5c-0.008,0.207 0.07,0.406 0.211,0.59c-0.02,1.148 1.82,1.476 2.75,1.41c0.051,-0.004 0.098,-0.008 0.144,-0.016c0.204,0.039 0.43,0.059 0.684,0.059c0.715,0 4.27,-0.43 5.23,-1.418c1.297,0.906 5.403,0.328 6.473,-0.066c1.09,-0.403 1.633,-1.305 1.664,-2.368c0.352,-0.625 0.028,-1.937 -0.043,-2.562c-0.023,-0.207 -0.074,-0.59 -0.164,-0.969c0.055,-0.32 0.11,-0.691 0.172,-1.121c0.25,-1.711 0.957,-4.469 1.578,-6.125c0.242,-0.644 0.445,-1.277 0.617,-1.898c0.618,-1.145 1.02,-3.118 1.231,-3.817c0.652,-2.16 -0.082,-5.027 -0.781,-7.125c0.457,-1.07 0.339,-3.109 0.16,-4.156c0.32,-0.41 0.152,-1.254 0.074,-1.867c-0.113,-0.836 0.078,-2.055 0.566,-3.645c0.075,-0.242 0.141,-0.461 0.2,-0.656c1.043,1.422 2.742,2.629 3.906,3.187c3.183,1.516 6.941,1.29 10.058,-0.242c0.512,0.086 1.282,0.141 2.438,0.196c2.992,0.14 5.297,-0.86 8.16,-1.594c0.387,-0.098 0.715,-0.192 0.992,-0.281c0.52,0.347 1.442,0.504 2.246,0.425c0.512,0.684 1.614,0.657 2.996,0.34c-0.046,0.84 0.176,1.094 0.461,0.926c0.496,0.906 2.317,1.016 3.645,0.863c0.543,1.879 2.597,2.453 4.519,2.754c1.067,0.164 1.789,0.278 2.286,0.324c2.546,1.188 5.39,3.977 7.043,6.098c0.218,0.281 1.593,1.195 2.378,1.359c0.68,0.668 1.524,1.254 2.184,1.375l0.004,0c0.238,0.684 0.934,-0.043 1.184,-0.578c0.324,0.305 0.75,0.629 1.293,0.985c2.523,1.648 5.558,2.105 8.511,2.105c0.364,0 0.664,-0.012 0.906,-0.031c0.188,0.422 0.883,0.918 2.055,1.281c1.098,0.336 5.535,0.926 6.695,-0.558l0.004,0.003c0.817,0.676 1.961,1.567 3.536,2.766c4.414,3.363 6.953,5.125 12.339,6.16c2.582,0.5 5.629,1.242 6.766,1.66c3.684,1.336 7.981,4.289 8.781,8.368c0.172,0.879 0.418,1.281 0.66,1.351c-0.382,2.762 -0.281,5.688 0.379,8.332c0.008,0.035 0.016,0.067 0.024,0.102c-0.949,0.004 -2.211,0.304 -2.61,0.386c-1.976,0.407 -2.398,0.891 -3.293,2.469c-1.445,2.551 2.219,2.903 3.786,3.434c3.425,1.16 6.351,0.808 8.961,-0.973c0.199,-0.078 0.39,-0.222 0.57,-0.414c0.433,-0.34 0.859,-0.719 1.273,-1.137c0.914,-0.914 1.02,-1.39 0.711,-1.566c0.235,-0.438 0.442,-0.957 0.574,-1.395c0.918,-3.054 2.125,-6.035 4.286,-8.429c1.73,-1.918 1.73,-1.918 2.339,-3.164c0.071,-0.149 0.122,-0.332 0.153,-0.535c0.32,-0.7 0.379,-1.59 0.297,-2.254c0.043,-0.868 -0.149,-1.688 -0.754,-2.114c-0.137,-0.097 -0.266,-0.172 -0.383,-0.222c-1.781,-1.492 -5.32,-2.039 -6.863,-2.344c-4.368,-0.863 -7.18,-4.258 -10.735,-6.629c-2.254,-1.504 -2.254,-1.504 -3.586,-2.836c-0.242,-0.242 -0.437,-0.441 -0.601,-0.601c-0.149,-1.235 -0.672,-2.379 -1.098,-2.965c-1.437,-1.993 -6.433,-3.325 -8.762,-3.844c-1.605,-0.356 -3.839,-0.949 -7.781,-1.258c-0.062,-0.008 -0.129,-0.012 -0.191,-0.015c-1.008,-1.168 -6.633,-2.821 -7.496,-2.997c-0.52,-0.101 -1.637,-0.664 -2.481,-1.246c-0.605,-0.418 -1.875,-1.402 -3.043,-2.207c0.797,0.059 1.719,0.11 2.742,0.16c1.723,0.086 6.786,0.215 8.168,-1.867c0.149,-0.008 0.309,-0.023 0.485,-0.047c1.226,-0.168 2.41,-0.422 3.074,-1.257c0.578,0.046 1.43,0.082 2.684,0.128c1.093,0.04 2.3,0.083 3.523,0.043c0.371,0.067 0.875,0.09 1.578,0.09c0.918,0 1.789,-0.074 2.633,-0.207c0.195,-0.011 0.394,-0.027 0.594,-0.047c0.031,-0.023 0.066,-0.05 0.101,-0.078c1.914,-0.383 3.715,-1.074 5.625,-1.926c0.489,-0.214 0.938,-0.406 1.36,-0.574c0.925,-0.222 2.047,-0.426 3.359,-0.605c0.918,-0.129 1.77,-0.274 2.461,-0.414c0.488,0.285 1.094,0.535 1.68,0.754c1.554,3.199 6.921,5.531 9.496,7.047c2.754,1.624 3.515,3.023 2.886,6.179c-0.457,2.289 2.637,2.477 4,1.445c1.43,-1.082 2.422,-3.234 2.098,-5.023c-0.129,-0.687 -0.043,-1.582 0.191,-1.988c1.141,-2.016 -1.234,-6.27 -3.515,-6.582c-1.914,-1.504 -2.793,-4.922 -3.938,-6.985c-0.011,-0.023 -0.027,-0.046 -0.039,-0.074l-0.019,-0.062c-0.805,-2.856 -0.805,-2.856 -1.531,-4.18c-0.399,-0.727 -1.122,-1.598 -1.606,-1.938c-1.234,-0.859 -2.691,-1.027 -4.086,-0.363c-0.262,0.121 -0.48,0.301 -0.648,0.504c-0.121,0.063 -0.239,0.129 -0.356,0.203c-0.89,0.262 -1.769,0.688 -2,0.832c-1.254,0.789 -2.543,1.512 -3.84,2.219c-2.738,0.461 -5.91,-0.379 -8.359,-0.922c-5.113,-1.125 -5.113,-1.125 -7.164,-1.312c-2.883,-0.266 -4.629,1.039 -6.621,2.269c-0.121,-0.035 -0.246,-0.058 -0.363,-0.058c-2.45,0 -5.719,0.632 -7.95,1.683c-0.336,0.156 -0.578,0.32 -0.718,0.496c-0.129,0.074 -0.297,0.18 -0.461,0.278c-0.891,-0.348 -1.91,-0.778 -2.852,-1.204c-3.191,-1.453 -3.711,-1.589 -7.062,-1.878c-1.188,-0.106 -1.985,-0.172 -2.516,-0.196c-0.023,-0.047 -0.047,-0.09 -0.07,-0.133c-0.078,-0.136 -0.157,-0.257 -0.227,-0.367c0.332,-0.465 -0.863,-1.183 -1.637,-1.183c-0.648,0 -1.296,-0.032 -1.945,-0.086c-0.547,-0.125 -1.215,-0.262 -2.027,-0.426c-1.145,-0.231 -2.008,-0.395 -2.657,-0.5c-0.156,-0.051 -0.316,-0.102 -0.472,-0.152c-0.934,-0.313 -1.821,-0.813 -1.969,-1.114c-0.152,-0.297 -0.316,-0.449 -0.465,-0.488c-0.465,-0.648 -0.89,-1.273 -1.246,-1.809c-1.238,-1.839 -3.867,-3.699 -6.07,-4.105c-3.2,-0.59 -7.715,-0.75 -10.348,1.508c-0.137,0.117 -0.262,0.234 -0.371,0.351c-0.449,-0.23 -1.141,-0.015 -1.824,0.223c-1.32,-0.242 -3.192,0.07 -3.844,0.547c-0.297,0.047 -0.582,0.129 -0.824,0.242c-0.633,-0.617 -1.477,-1.242 -1.754,-1.398c-1.25,-0.719 -2.617,-1.563 -3.031,-1.887c-1.11,-0.859 -2.575,-1.391 -3.985,-1.332c-0.496,0.019 -1.925,-0.313 -3.175,-0.734c-0.469,-0.161 -0.84,-0.286 -1.133,-0.376c-0.028,-0.042 -0.051,-0.085 -0.078,-0.128c-1.446,-2.258 -5.516,-4.157 -8.071,-4.504c-1.98,-0.278 -1.98,-0.278 -3.316,-0.278c-0.305,0 -0.551,0.016 -0.742,0.047c-0.028,0.004 -0.055,0.008 -0.082,0.012c-0.684,-1.41 -2.719,-1.899 -4.102,-1.75c-2.887,0.316 -5.715,0.793 -8.414,1.883l-0.008,0c-1.312,0.105 -3.715,0.484 -4.832,1.301c-0.113,0.003 -0.23,0.003 -0.347,0.007c-0.34,-0.492 -0.782,-0.961 -1.032,-1.125c-0.847,-0.566 -1.511,-0.965 -2.05,-1.242c-0.141,-0.441 -0.461,-0.926 -0.993,-1.297c-0.101,-0.07 -0.203,-0.136 -0.3,-0.195c0.175,-2.125 -1.543,-4.59 -2.868,-5.992c-3.527,-3.727 -10.16,-1.629 -13.605,1.226c-1.516,1.258 -2.469,2.016 -3.063,2.43c-4.316,3.023 -0.218,10.777 1.356,14.227c1.348,2.957 4.91,8.984 8.93,8.367c2.097,-0.321 4.687,-2.242 6.156,-4.567c2.179,1.02 4.398,1.43 6.867,1.118c0.105,-0.016 0.207,-0.028 0.305,-0.043c-0.004,0.472 0.054,0.945 0.191,1.351c0.168,0.504 0.418,1.07 0.742,1.633Zm101.348,30.352c-1.734,-1.153 -3.59,-2.071 -5.449,-2.993c0.554,1.164 1.363,1.95 2.441,2.696c3.981,2.734 9.871,5.644 14.629,6.125c0.254,0.023 0.5,0.054 0.731,0.089c-0.04,-0.015 -0.071,-0.027 -0.09,-0.039c-4.18,-1.562 -8.536,-3.414 -12.262,-5.878Zm-1.352,-3.387c-1.879,-0.735 -1.879,-0.735 -2.425,-0.922c-0.313,-0.106 -0.516,0.027 -0.477,0.316c0.035,0.278 1.801,1.469 3.922,2.645c3.156,1.758 6.332,2.875 9.828,3.687c0.781,0.18 4.086,0.586 2.211,-0.711c-0.512,-0.351 -2.125,-0.918 -3.59,-1.253c-1.465,-0.34 -3.769,-1.161 -5.125,-1.825c-1.355,-0.66 -3.308,-1.535 -4.344,-1.937Zm-90.672,-9.418c-0.464,-0.762 -1.937,-1.844 -1.687,-0.188c0.129,0.825 1.031,3.067 2.098,3.391c-0.481,1.484 -0.7,3.059 -0.641,3.812c0.223,3.04 2.469,-2.8 2.602,-3.179c1.421,-4.008 1.421,-4.008 0.804,-4.008c-0.906,0 -1.636,0.82 -2.187,1.926l0,-0.004c-0.309,-0.711 -0.817,-1.465 -0.989,-1.75Zm34.997,-7.969c0.015,0.121 0.027,0.262 0.035,0.418c0.035,0.578 0.078,0.93 0.203,1.149c0.074,0.066 0.137,0.132 0.191,0.207c0.168,0.109 0.41,0.156 0.774,0.191c0.226,0.023 0.691,0.23 1.097,0.5c0.516,-2.098 1.629,-2.645 1.192,0.187c-0.031,0.207 -0.074,0.403 -0.121,0.586c0.031,0.02 0.058,0.043 0.093,0.067c0.422,0.308 1.024,0.648 1.332,0.754c0.313,0.101 0.934,-0.024 1.379,-0.278c0.738,-0.422 1.692,0.25 1.731,0.883c1.074,1.867 1.187,2.153 3.715,2.277c0.417,0.02 0.777,0.04 1.078,0.059c0.285,-0.113 0.648,-0.117 1.07,0.067c0.074,0.031 0.145,0.062 0.215,0.089c0.074,0.028 0.137,0.051 0.184,0.082c0.925,0.411 1.136,0.563 3.003,1.914c1.692,1.223 3.821,3.055 5.047,5.02c0.192,0.145 0.457,0.355 0.868,0.684c0.136,0.113 0.441,0.332 0.785,0.605c0.414,-0.152 0.816,-0.445 0.996,-0.75c1.519,-2.598 2.922,-6.48 5.277,-8.418c0.504,-0.414 1.586,-1.289 2.5,-1.941c-1.734,-0.012 -3.519,-0.285 -5.133,-0.637c-0.074,-0.02 -0.351,-0.121 -0.656,-0.262c-0.285,0.039 -0.562,0.09 -0.836,0.149c-0.219,0.047 -0.406,0.078 -0.574,0.097c-0.086,0.067 -0.188,0.141 -0.293,0.227c-0.391,0.301 -0.754,0.492 -1.07,0.594c0.199,0.379 0.421,0.894 0.648,1.515c0.52,1.422 1.227,3.449 0.023,4.711c0.036,0.27 -0.187,0.485 -0.859,0.582c-0.211,0.11 -0.418,0.18 -0.613,0.215c-0.078,0.379 -0.363,0.363 -0.68,-0.039c-0.078,-0.012 -0.105,-0.043 -0.074,-0.098c-0.039,-0.054 -0.082,-0.121 -0.121,-0.191c-0.211,-0.168 -0.36,-0.484 -0.594,-1.063c-0.519,-1.281 -0.519,-1.281 -1.238,-2.226c-0.574,-0.758 -1.528,-1.891 -1.863,-2.965c-1.235,-0.883 -2.176,-3.102 -2.473,-4.09c-0.004,-0.004 -0.004,-0.008 -0.004,-0.012c-0.273,-0.066 -0.559,-0.156 -0.836,-0.265c-2.805,-1.137 -5.199,-1.617 -8.231,-1.238c-2.089,0.261 -4.664,0.644 -7.167,0.644Zm-40.606,-6.387c1.516,3.012 3.281,6.125 6.301,7.036c1.242,0.375 3.957,0.753 4.496,-0.985c0.25,-0.808 0.477,-1 1.004,-0.847c0.465,0.136 0.594,0.503 0.551,0.949c0.371,0.308 0.718,0.652 0.883,0.832c2.667,2.816 7.371,4.855 10.933,3.195c0.789,-0.367 4.09,-3.492 4.465,-1.707c0.109,0.531 0.008,0.836 -0.625,1.332c0.125,-0.012 0.258,-0.016 0.391,-0.023c2.527,-0.129 4.011,-0.403 5.125,-0.938c0.335,-0.16 2.523,-1.148 4.003,-1.328c0.516,-0.324 1.321,-0.359 2.051,-0.184c0.074,-0.32 0.168,-0.664 0.27,-0.957c-2.082,-0.066 -4.071,-0.437 -5.633,-1.402c-1.859,-1.145 -1.859,-1.145 -2.57,-1.484c-0.719,-0.34 -0.719,-0.34 -4.25,-2.246c-1.032,-0.559 -1.805,-1.008 -2.375,-1.391c-0.301,0.852 -1.586,2.144 -2.739,2.41c-3.23,0.75 -8.332,-0.273 -11.418,-1.305c-0.179,-0.058 -0.765,-0.414 -1.238,-0.812c-2.965,1.18 -6.433,1.25 -8.969,-0.102c-0.222,0.012 -0.441,-0.004 -0.656,-0.043Zm75.098,-1.136c0.062,0.511 0.039,1.023 -0.047,1.476c0.277,0.942 -0.391,3.305 -1.274,4.594c0.508,0.488 0.954,1.027 1.297,1.617l0.004,0c0.207,0.172 0.461,0.418 0.758,0.75c0.18,0.203 1.703,1.813 1.477,2.305c0.3,0.109 0.402,0.269 0.433,0.512c0.043,0.328 0.043,0.503 -0.379,0.574c0.504,0.199 1.086,0.472 1.938,0.929c0.715,-0.105 1.687,-0.082 2.406,-0.007c2.594,0.254 5.863,0.218 8.234,-0.981c0.43,-0.219 2.336,-1.113 2.809,-0.586c0.008,-0.004 0.02,-0.004 0.027,-0.008c1.43,-0.355 2.137,-0.906 2.598,-2.246c0.43,-1.254 1.195,-0.265 1.242,0.61c0.133,-0.004 0.281,-0.008 0.442,-0.008c0.363,-0.02 0.894,-0.02 1.66,-0.02c0.457,0 0.832,0 1.148,-0.004c0.594,-0.011 1.215,-0.039 1.813,-0.066c0.238,-0.027 0.5,-0.066 0.859,-0.117c0.942,-0.137 1.199,-0.176 2.399,-0.188c0.96,-0.164 1.839,-0.382 2.695,0.004c0.027,0 0.058,0 0.086,0.004c0.531,-0.137 1.402,-0.375 3.156,-0.855c0.102,-0.032 0.203,-0.059 0.305,-0.086c0.418,-0.199 0.843,-0.379 1.285,-0.535c1.16,-0.551 2.328,-0.934 3.535,-1.184c0.004,-0.004 0.012,-0.008 0.02,-0.008l0,-0.004c0.027,-0.004 0.05,-0.004 0.078,-0.008c0.722,-0.144 1.457,-0.238 2.211,-0.289c0.683,-0.113 1.406,-0.242 2.082,-0.378c0.371,-0.079 0.703,-0.149 1,-0.211c0.078,0.086 0.164,0.175 0.25,0.269c-0.039,0.008 -0.082,0.024 -0.125,0.035c0.023,0.008 0.043,0.02 0.066,0.032c0.043,0.007 0.086,0.019 0.133,0.031c0.008,0 0.012,0.004 0.019,0.004c0.84,0.883 1.911,1.898 3.004,2.613c0.243,0.371 0.535,0.734 0.86,1.086c0.906,0.621 1.871,1.176 2.832,1.699c3.375,1.84 7.742,3.301 7.742,7.676c0,3.578 1.613,1.191 1.855,-0.871c0.328,-2.801 2.016,-4.574 -0.859,-6.539c-0.18,-0.125 -0.477,-0.395 -0.746,-0.707c-0.106,-0.059 -0.219,-0.137 -0.336,-0.231c-1.875,-1.504 -3.316,-4.105 -4.09,-6.621c-0.273,-0.394 -0.461,-0.894 -0.652,-1.508c-0.242,-0.429 -0.446,-0.804 -0.606,-1.07c-1.05,-1.758 -1.429,-2.383 -1.691,-2.676c-0.199,-0.476 -0.516,-0.914 -0.969,-1.16c-2.66,-1.457 -5.125,1.395 -7.277,2.816c-0.149,0.098 -0.274,0.184 -0.383,0.258c-0.012,0.004 -0.027,0.012 -0.043,0.016c-2.488,0.812 -5.391,0.57 -7.891,-0.047c-5.316,-1.305 -10.453,-2.629 -15.632,0.231c-0.461,0.25 -1.2,0.589 -1.856,0.859c0.004,0.355 -1.246,0.285 -3.305,0.605c-0.414,0.063 -1.503,0.149 -2.57,0.266c0.035,0.012 0.07,0.02 0.106,0.027c1.812,0.434 1.882,1.18 0,1.207c-0.028,0.075 -0.09,0.141 -0.2,0.2c-0.078,0.039 -0.172,0.078 -0.293,0.109c-0.285,0.078 -2.847,-0.734 -5.699,-1.801c-2.847,-1.07 -6.082,-2.086 -7.18,-2.258c-0.292,-0.046 -0.542,-0.089 -0.761,-0.136Zm-77.074,-2.969c0.55,0.805 1.293,1.469 2.218,2.141c0.348,0.246 1.075,0.699 1.395,1.117c2.078,1.062 4.812,1.043 7.547,-0.457c0.816,-0.45 1.648,-0.075 1.754,0.398c0.605,0.11 1.57,0.293 3.218,0.613c3.196,0.618 6.079,0.871 9.149,-0.324c0.308,-0.121 0.574,-0.203 0.793,-0.25c-0.27,-0.262 -0.418,-0.5 -0.481,-0.73c-0.246,-0.934 -0.246,-0.934 -0.078,-0.949c0.094,-0.012 1.457,0.671 3.028,1.519c3.359,1.813 7.281,4.645 11.101,5.309c1.149,0.203 3.777,0.183 6.609,-0.043c4.242,-0.34 9.356,-1.024 13.079,1.773c0.781,0.586 0.984,0.961 0.851,1.156c0.231,0.286 0.516,0.645 0.875,1.094c0.012,0.016 0.02,0.027 0.031,0.039c0.418,0.434 1.028,1.039 1.477,1.617c0.883,0.832 0.996,1.403 0.723,1.614c0.168,0.586 0.461,1.144 0.711,1.336c0.339,0.253 0.464,0.347 0.566,0.531c0.711,0.301 1.074,1.082 1.215,1.949c0.144,0.152 0.324,0.32 0.512,0.492c0.332,-0.426 0.21,-0.777 -0.29,-2.031c-0.32,-0.809 -0.808,-3.727 -0.199,-3.574c0.082,-0.133 0.207,-0.278 0.379,-0.426c-0.48,-0.137 -0.722,-0.441 0.008,-0.914c0.695,-0.453 1.582,-0.609 2.469,-0.586c0.246,-0.051 0.484,-0.047 0.699,0.055c0.379,0.047 0.75,0.125 1.098,0.226c0.699,0.031 1.82,0.008 2.828,-0.066c2.246,-0.172 2.426,-0.137 3.664,0.734c0.054,0.039 0.109,0.082 0.164,0.125c0.168,0.004 0.328,0.008 0.476,0.016c-0.093,-0.172 -0.187,-0.36 -0.273,-0.559c-0.34,-0.371 -0.621,-0.812 -0.813,-1.222c-1.542,-1.153 -3.101,-2.27 -4.753,-3.278c-0.235,-0.144 -0.469,-0.312 -0.688,-0.492c-0.316,-0.129 -0.609,-0.184 -1.195,-0.289c-1.164,-0.211 -1.164,-0.211 -4.485,-0.313c-2.496,-0.074 -3.363,-0.246 -3.484,-0.687c-0.051,-0.188 -0.047,-0.316 0.09,-0.41l0.004,0c-0.559,-0.262 -1.106,-0.535 -1.524,-0.766c-4.605,-2.558 -9.801,-6.515 -15.004,-7.109c-0.718,-0.082 -3.203,0.047 -4.761,-0.18c-0.075,0.434 -0.715,0.434 -2.157,-0.562c-1.312,-0.911 -2.582,-1.723 -4.214,-1.911c-1.504,-0.167 -1.504,-0.167 -3.09,-0.167c-0.649,0 -2.082,-0.434 -1.617,-0.915c-0.36,-0.164 -0.868,-0.433 -1.606,-0.832c-1.281,-0.695 -3.078,-1.421 -3.988,-1.621c-0.91,-0.195 -2.508,-0.711 -3.551,-1.14c-1.367,-0.563 -2.371,-0.727 -3.574,-0.582c-1.676,0.203 -1.676,0.203 -4.942,0.629c-0.043,0.003 -0.082,0.007 -0.125,0.015c0.145,0.649 0.047,1.184 -0.625,1.27c-1.453,0.179 -4.941,-6.836 -1.988,-5.426c0.438,0.211 1.141,1.012 1.563,1.777c0.086,0.16 0.234,0.418 0.39,0.723c0.02,0.031 0.035,0.066 0.055,0.105c0.367,-0.07 0.793,-0.14 1.289,-0.218c2.324,-0.375 7.609,-1.184 9.664,0.539c0.27,0.226 1.563,0.625 2.875,0.886c1.09,0.215 6.414,1.672 5.77,3.399l0,0.004c2.043,-0.363 5.156,0.398 6.886,0.972c0.989,0.332 1.828,1.02 2.367,1.684c0.45,-0.094 1.227,-0.098 2.629,-0.066c-0.015,-0.075 -0.035,-0.149 -0.05,-0.227c-0.086,-0.422 -0.114,-0.809 -0.09,-1.148c-0.879,0.308 -2.063,0.437 -2.457,0.019c-0.746,-0.226 -2.016,-0.824 -3.09,-1.469c-2.719,-1.628 -5.785,-3.378 -8.945,-3.906c-0.575,-0.098 -0.934,-0.215 -1.161,-0.406c-0.464,-0.082 -1.011,-0.313 -1.398,-0.609c-2.508,-1.895 -5.176,-3.629 -8.359,-3.965c-0.278,-0.032 -0.575,-0.098 -0.856,-0.18c-1.051,0.273 -2.512,0.562 -2.344,-0.152c-0.367,-0.18 -0.699,-0.422 -0.863,-0.657c-1.285,-1.832 -5.582,-0.515 -7.301,0.387c-0.773,0.406 -1.617,0.727 -2.5,0.969c-0.109,0.047 -0.222,0.098 -0.347,0.144c-1.043,0.426 -4.657,2.063 -5.434,0.918c-0.121,-0.004 -0.262,-0.027 -0.422,-0.066c-0.293,-0.07 -0.781,-0.281 -1.324,-0.574c-0.664,-0.141 -0.961,-0.328 -0.824,-0.489c-0.926,-0.593 -1.828,-1.347 -2.102,-2.023c-0.652,-0.066 -0.867,-0.609 -0.859,-1.211l-0.004,-0.004c-0.012,-0.074 -0.023,-0.16 -0.027,-0.25c-0.231,-3.039 -2.954,-6.988 -6.176,-6.988c-3.199,0 -6.192,1.574 -8.512,3.59c-1.547,1.344 -4.027,2.82 -3.656,5.14c0.836,5.266 4.43,12.743 9.242,15.496c2.441,1.399 5.527,-3.414 6.191,-5.394c0.243,-0.731 1.317,-3.906 2.047,-1.793c0.317,0.914 0.289,1.898 0.016,2.871c0.281,0.133 0.648,0.316 1.144,0.566c1.872,0.934 2.778,0.961 4.817,0.961c0.168,0 0.328,0 0.48,0.008c0.028,-0.097 0.063,-0.191 0.094,-0.277c-0.379,-0.438 -0.734,-0.942 -1.031,-1.442c-1.195,-0.96 -1.832,-2.414 -2.047,-4.332c-0.043,-0.406 -0.039,-0.738 0.004,-0.984c-0.109,-0.074 -0.219,-0.16 -0.328,-0.262c-0.727,-0.672 -0.727,-0.672 -1.844,-1.3c-0.219,-0.122 -2.066,-1.848 -0.922,-1.848c0.43,0 0.43,0 1.578,0.629c0.555,0.301 3.633,2.609 2.473,3.008c-0.016,0.004 -0.031,0.007 -0.047,0.011c0.039,0.157 0.07,0.332 0.098,0.536c0.066,0.503 0.203,1.023 0.402,1.523c0.09,0.039 0.199,0.113 0.328,0.23c0.695,0.614 3.117,2.172 4.117,3.45c0.383,-0.551 0.832,-1.168 1.262,-1.672c-0.004,-0.133 0,-0.27 0.012,-0.41c0.441,-0.477 0.828,-1.149 0.98,-1.411c0.137,-0.234 0.254,-0.441 0.356,-0.617c1.183,-0.804 2.832,-1.25 3.011,0.164c0.082,0.653 -0.152,0.879 -1.097,1.051c-0.727,0.137 -1.328,0.547 -1.688,1.16c-0.226,1.004 -1.328,2.078 -2.398,2.656c0.008,0.141 -0.024,0.27 -0.106,0.387c-0.535,0.77 -1.175,0.848 -1.816,0.543c0.008,0.051 0.016,0.106 0.023,0.164c0.172,1.102 0.52,1.973 1.036,2.723Zm111.753,6.351c-0.289,-1.578 -1.488,-0.886 -1.988,0.165c-1.129,2.375 -4.906,2.582 -7.144,2.582c-1.723,0 -2.856,0 -2.754,0.375c0.062,0.218 1.703,0.375 3.949,0.375c1.621,0 8.523,-0.305 7.937,-3.497Zm-76.308,-7.656c-2.598,-2.031 -1.902,0.117 -0.559,1.735c0.699,0.836 1.325,1.964 1.395,2.503c0.078,0.649 0.347,0.895 0.633,0.86c0.238,0.344 0.769,0.812 1.261,1.098c1.692,0.976 3.66,1.328 5.539,1.753c-0.718,-1.039 -1.476,-1.703 -2.769,-2.027c-0.906,-0.223 -2.25,-0.664 -2.984,-0.973c-0.211,-0.089 -0.391,-0.156 -0.54,-0.203c0.223,-0.316 0.364,-0.812 0.266,-1.379c-0.285,-1.668 -0.961,-2.359 -2.242,-3.367Zm12.84,4.383c1.785,-0.852 -2.774,-0.965 -3.742,-1.125c-2.524,-0.422 -4.883,-0.629 -5.329,-0.473c-1.664,0.59 0.235,1.079 1.043,1c0.879,-0.086 2.868,0.102 4.418,0.411c1.977,0.394 3.055,0.453 3.61,0.187Zm19.191,-3.023c0.535,0.597 1.078,1.128 1.598,1.527c2.211,1.691 1.168,4.375 4.176,5.055c0.656,0.144 1.168,0.527 1.539,1.027c0.175,-0.621 0.422,-1.523 0.707,-2.293c-0.149,-0.262 -0.289,-0.633 -0.418,-1.125c-0.145,-0.559 -0.2,-1.727 -0.075,-2.613c-0.136,0.031 -0.355,0.015 -0.707,-0.051c-2.23,0 -4.757,-0.773 -6.82,-1.527Zm-48.527,-6.079c-1.211,-1.488 -4.313,-1.113 -2.184,-0.339c1.153,0.418 1.813,1.257 1.594,2.461c-0.953,0.148 0.203,1.191 1.285,1.437c1.094,0.25 2.836,0.25 5.223,-0.004c2.765,-0.297 3.597,-0.515 3.66,-0.969c0.078,-0.586 -0.457,-0.566 -3.977,-0.418c-4.015,0.165 -4.054,0.168 -5.351,-0.015c0.304,-0.52 0.422,-1.32 -0.25,-2.153Zm25.176,2.829c2.246,0.097 3.433,0.378 5.855,1.281c1.82,0.676 3.969,1.738 4.773,2.359c1.465,1.129 1.465,1.129 3.157,1.883c1.691,0.75 1.691,0.75 3.008,1.711c0.722,0.523 2.167,1.219 3.207,1.535c0.336,0.106 0.617,0.235 0.851,0.375l0.004,0c0.293,0.024 0.859,-0.004 2.43,-0.074c0.039,-0.004 0.304,0.016 0.664,0.058c0.613,-0.011 0.949,-0.003 1.269,0.016c-0.527,-0.359 0.239,-0.305 -0.945,-1.875c-0.648,-0.863 -1.418,-1.598 -1.75,-1.953c-1.508,-1.617 -2.191,-3.367 -3.305,-4.719c-3.625,-4.394 -10.652,-6.445 -15.148,-3.34c-0.207,0.145 -0.399,0.262 -0.563,0.348c-0.129,0.184 -0.5,0.277 -1.429,0.375c-0.504,0.203 -1.297,0.375 -2.118,0.477c0.032,0.16 0.059,0.339 0.083,0.535c0.043,0.375 0.023,0.715 -0.043,1.008Z"/><path d="M239.049,57.096c0.16,0.742 0.355,1.464 0.566,2.16c0.078,0.25 0.117,0.64 0.113,1.023c0.368,0.281 0.375,0.903 0.172,3.149c-0.086,0.972 -0.152,1.628 -0.238,2.078c0.703,0.543 1.559,1.453 0.91,1.285c-0.332,-0.086 -0.437,-0.113 -1.527,-0.297c-0.117,0.039 -0.254,0.066 -0.418,0.098c-0.52,0.097 -0.77,0.144 -0.801,-0.309c-0.32,-0.055 -0.68,-0.117 -1.09,-0.184c-0.914,-0.156 -1.664,-0.316 -2.238,-0.476c-0.309,0.023 -0.633,0.023 -0.941,-0.008c-0.098,0.32 -0.493,0.551 -1.387,0.883c-0.856,0.32 -2.961,0.738 -4.672,0.926c-2.762,0.308 -3.152,0.418 -4.09,1.484c0.496,0.016 1.293,0.016 2.641,0.016c0.437,0 1.453,0.058 2.238,0.191c0.797,-0.418 2.484,-0.523 1.789,0.774c-0.172,0.316 -0.191,0.628 -0.148,0.906c0.261,-0.11 0.617,-0.188 1.066,-0.223c0.695,-0.051 3.785,-1.137 5.07,-0.805c0.2,-0.109 0.68,-0.066 1.7,0.055c1.754,0.207 4.367,0.449 5.035,-1.266c-0.336,-0.785 -0.297,-2.093 -0.047,-2.996c0.047,-0.425 0.121,-0.968 0.211,-1.66c0.16,-1.191 0.582,-3.019 1.078,-4.73c-1.777,-0.153 -3.469,-0.914 -4.992,-2.074Zm67.816,-0.098c-0.105,0.867 -0.137,1.707 -0.062,2.473c0.215,0.113 0.48,0.257 0.816,0.441c1.043,0.566 2.008,0.965 2.988,1.23c0.121,-0.019 0.25,-0.027 0.391,-0.027l0.941,0c2.618,0 5.52,-0.328 8.055,0.426c1.492,-0.008 2.672,-0.219 4.055,-0.731c0.125,-0.046 0.242,-0.089 0.355,-0.128c-0.211,-0.231 -0.273,-0.415 -0.246,-0.586c0.11,-0.77 0.11,-0.77 1.93,0.082c1,0.464 3.23,1.586 4.953,2.484c4.477,2.34 7.098,4.281 12.176,4.082c5.324,-0.203 12.933,0.781 16.578,5.332c-0.07,0.172 -0.129,0.356 -0.172,0.543c0.004,0.008 0.012,0.016 0.023,0.023c0.047,0.051 0.098,0.102 0.149,0.149c-0.106,0.414 -0.219,0.957 -0.324,1.562c0.004,0.114 0.007,0.227 0.015,0.344c-0.019,-0.035 -0.039,-0.066 -0.058,-0.094c-0.164,0.942 -0.309,2 -0.399,2.914c-0.308,3.149 -0.308,3.149 -0.433,5.543c-0.114,2.262 -1.012,2.75 -1.563,1.645c-0.461,0.285 -1.156,0.426 -2.211,0.465c-2.015,0.074 -3.039,0.918 -0.785,1.961c2.371,1.097 5.676,1.781 7.957,0.285c0.461,-0.305 1.137,-0.547 1.785,-0.68c0.164,-0.531 0.43,-1.101 0.742,-1.539c0.618,-2.621 2.59,-5.207 4.442,-6.953c1.406,-1.328 3.195,-2.578 4.348,-4.207c-0.165,-0.801 -0.2,-1.879 -0.047,-2.699c-1.071,-0.762 -2.793,-1.68 -4.036,-2.141c-1.144,-0.43 -2.16,-0.898 -3.093,-1.437c-0.024,0.019 -0.047,0.043 -0.067,0.062c-0.347,-0.098 -0.691,-0.207 -1.027,-0.324c-1.473,-0.512 -2.906,-1.219 -4.473,-2.145c-4.164,-2.453 -4.164,-2.453 -6.593,-4.093c-0.618,-0.414 -1.204,-0.875 -1.672,-1.293c-0.059,0.027 -0.121,0.054 -0.192,0.074c-0.828,0.23 -0.972,0.121 -1.187,-0.899c-0.352,-1.691 -1.239,-2.336 -2.809,-2.992c-2.445,-1.031 -4.73,-1.324 -7.433,-1.406c-2.313,-0.07 -6.477,-0.516 -9.125,-0.336c-3.86,0.254 -4.813,0.316 -4.77,-0.234c0.031,-0.375 0.59,-0.543 3.75,-0.805c-2.949,-0.242 -5.633,-0.164 -8.414,-1.723c-1.102,-0.617 -5.07,-2.468 -7.637,-3.539c-0.429,0.149 -1.097,0.332 -2.113,0.594c-1.105,0.461 -2.312,0.785 -3.531,1.012c-0.735,1.898 -1.676,4.715 -1.977,7.285Zm44.141,7.32c-0.043,-0.012 -0.074,-0.019 -0.098,-0.023c-4.363,-0.926 -8.945,-2.11 -12.996,-3.996c-1.887,-0.879 -3.859,-1.512 -5.836,-2.145c0.723,1.07 1.637,1.727 2.817,2.301c4.339,2.113 10.601,4.117 15.378,3.883c0.25,-0.016 0.5,-0.02 0.735,-0.02c0.449,0.121 1.773,0.535 1.219,0.125c-0.106,-0.078 -0.598,-0.125 -1.219,-0.125Zm-118.711,-15.594c0.5,0.668 1.117,1.313 1.805,1.809c0.156,0.547 0.335,1.043 0.472,1.285c0.735,1.285 1.61,2.5 2.594,3.559c0.109,1.894 0.531,3.664 1.566,5.461c0.012,0.023 0.028,0.047 0.039,0.066c-0.136,0.504 -0.281,1.281 -0.5,2.434c-0.121,0.636 -0.218,1.156 -0.293,1.574c-0.718,-0.121 -1.617,-0.23 -2.425,-0.297c-0.598,-0.344 -1.914,-0.391 -2.7,-0.172c-0.839,-0.176 -2.156,0.539 -2.789,0.739c-1.351,0.421 -3.734,0.996 -5.285,1.269c-1.621,0.289 -2.312,0.41 -2.59,0.789c-0.054,0.016 -0.105,0.031 -0.148,0.051c-0.566,-0.277 -1.152,-0.043 -1.055,1.109c0.051,0.59 0.379,1.09 0.758,1.364c0.336,0.988 3.836,0.765 5.621,0.5c-0.015,0.628 0.719,1.175 1.625,1.449c0.227,0.066 0.414,0.117 0.567,0.156c0.289,0.25 0.836,0.437 1.597,0.437c0.715,0 4.27,-0.433 5.231,-1.417c1.297,0.902 5.402,0.328 6.472,-0.067c1.164,-0.43 1.704,-1.426 1.664,-2.582c0.129,-0.902 -0.16,-2.168 -0.289,-2.726c-0.004,-0.02 -0.007,-0.04 -0.011,-0.055c0.082,-0.426 0.168,-0.969 0.265,-1.656c0.184,-1.27 0.621,-3.118 1.09,-4.661c2.602,-0.261 2.902,-0.375 3.293,-1.148c0.035,-0.07 0.07,-0.152 0.109,-0.238c1.2,1.414 3.219,2.511 4.532,2.945c3.351,1.102 7.047,0.402 9.949,-1.516c0.516,0.02 1.285,-0.023 2.437,-0.113c2.989,-0.242 5.145,-1.523 7.895,-2.613c0.484,-0.192 0.871,-0.36 1.18,-0.516c0.461,0.094 1.015,0.086 1.464,-0.035c0.5,2.539 1.965,2.234 3.829,1.012c0.246,0.801 0.543,0.961 0.754,0.707c0.777,0.676 2.523,0.144 3.714,-0.461c1.164,1.574 3.293,1.398 5.199,1.012c1.055,-0.215 1.77,-0.364 2.254,-0.493c2.801,0.227 6.434,1.852 8.723,3.266c0.356,0.223 2.485,0.703 3.024,0.344c0.168,0.179 0.539,0.281 0.984,0.23c0.473,-0.054 1.004,0.102 1.18,0.344c0.359,0.504 0.687,0.094 0.851,-0.398c0.27,0.152 0.582,0.312 0.934,0.472c2.738,1.258 5.808,1.258 8.73,0.817c0.004,0 0.008,0 0.016,-0.004c0.195,0.008 0.57,0.019 1.027,0.023c0.344,0.32 1.043,0.621 2.067,0.777c1.14,0.172 5.617,0.098 6.539,-1.546l0.004,0.004c0.91,0.546 2.171,1.257 3.906,2.207c4.871,2.671 7.641,4.035 13.121,4.261c2.629,0.11 5.75,0.391 6.937,0.633c2.704,0.547 5.833,1.836 7.93,3.922c-1.215,3.102 -1.805,6.695 -1.519,10.008c0.004,0.035 0.007,0.07 0.011,0.101c-0.941,-0.144 -2.234,-0.043 -2.64,-0.023c-2.016,0.094 -2.508,0.504 -3.641,1.926c-1.824,2.293 1.742,3.211 3.207,3.98c3.981,2.09 7.567,1.754 11.067,-0.801c0.078,-0.058 0.148,-0.113 0.218,-0.168c1.051,-0.238 1.117,-0.425 1.43,-1.683c0.117,-0.477 0.168,-0.821 0.168,-1.055c1.363,-2.808 3.004,-5.492 5.461,-7.48c1.594,-1.289 1.922,-1.555 2.391,-2.176c1.242,-0.539 1.394,-2.414 1.289,-3.543c-0.004,-0.035 -0.008,-0.074 -0.012,-0.109c0.383,-3.008 -5.156,-4.754 -7.153,-5.489c-0.226,-0.082 -0.445,-0.172 -0.656,-0.265c0.055,-0.047 0.11,-0.098 0.164,-0.145c-3.976,-0.539 -7.062,-3.187 -10.648,-4.871c-2.457,-1.152 -2.457,-1.152 -3.969,-2.273c-0.277,-0.204 -0.5,-0.372 -0.687,-0.504c-0.328,-1.2 -1.016,-2.25 -1.524,-2.77c-1.719,-1.758 -6.859,-2.328 -9.234,-2.496c-1.641,-0.113 -3.942,-0.367 -7.883,-0.09c-0.066,0.004 -0.129,0.008 -0.191,0.016c-1.168,-1.008 -6.977,-1.805 -7.86,-1.848c-0.527,-0.023 -1.715,-0.414 -2.64,-0.867c-0.817,-0.398 -2.766,-1.504 -4.219,-2.137c0.203,-0.019 0.406,-0.039 0.617,-0.058c1.715,-0.164 6.742,-0.778 7.809,-3.039c0.144,-0.028 0.304,-0.067 0.472,-0.118c1.258,-0.367 2.449,-0.82 2.942,-1.855c0.238,-0.008 0.566,-0.047 1,-0.113c1.519,-0.223 1.675,-0.246 4.57,-0.532c0.402,0.118 1.02,0.086 2.086,-0.07c0.906,-0.137 1.754,-0.336 2.57,-0.59c0.196,-0.043 0.387,-0.086 0.582,-0.133c0.028,-0.031 0.059,-0.062 0.09,-0.093c1.84,-0.66 3.52,-1.606 5.285,-2.723c0.453,-0.289 0.867,-0.543 1.258,-0.773c0.887,-0.356 1.965,-0.719 3.238,-1.09c0.887,-0.258 1.707,-0.528 2.371,-0.766c0.524,0.211 1.161,0.371 1.77,0.5c2.008,2.938 7.656,4.461 10.426,5.586c2.961,1.203 3.918,2.477 3.761,5.691c-0.117,2.333 2.969,2.063 4.168,0.84c1.254,-1.277 1.922,-3.55 1.336,-5.273c-0.222,-0.66 -0.269,-1.559 -0.101,-1.992c0.836,-2.16 -2.133,-6.02 -4.434,-6c-2.113,-1.207 -3.484,-4.461 -4.918,-6.336c-0.015,-0.02 -0.031,-0.043 -0.051,-0.063l-0.027,-0.066c-1.215,-2.703 -1.215,-2.703 -2.125,-3.906c-0.5,-0.661 -1.344,-1.418 -1.871,-1.68c-1.348,-0.676 -2.812,-0.625 -4.098,0.234c-0.238,0.16 -0.429,0.371 -0.566,0.594c-0.109,0.078 -0.219,0.164 -0.324,0.25c-0.84,0.391 -1.649,0.941 -1.852,1.117c-1.125,0.965 -2.297,1.867 -3.476,2.758c-2.645,0.852 -5.903,0.484 -8.407,0.309c-5.222,-0.368 -5.222,-0.368 -7.277,-0.254c-4.016,0.218 -5.418,3.125 -8.531,4.883c-2.164,0.324 -4.477,0.363 -6.149,1.617c-0.004,0 -0.992,0.82 -0.996,0.82c-0.769,-0.078 -1.293,-0.129 -1.722,-0.187c-0.536,-0.227 -1.036,-0.454 -1.379,-0.625c-1.485,-0.762 -3.629,-0.918 -5.614,-0.774c-0.418,-0.039 -0.824,-0.066 -1.191,-0.078c-1.203,-0.039 -1.934,-0.055 -2.379,-0.008c-0.051,-0.078 -0.105,-0.152 -0.16,-0.223c-0.301,-0.378 -0.547,-0.621 -0.75,-0.753c0.012,-0.055 0.016,-0.11 0.008,-0.164c-0.137,-0.758 -2.684,-0.833 -3.442,-0.161c-0.496,-0.031 -1.082,-0.066 -1.773,-0.101c-0.539,-0.074 -1.301,-0.141 -2.387,-0.242c-2.769,-0.254 -3.933,-0.25 -4.871,0.023c-0.203,0.059 -0.375,0.113 -0.519,0.168c-1.243,-0.672 -2.614,-1.137 -3.813,-1.203c-3.238,-0.176 -7.726,0.234 -10.055,2.789c-0.808,-0.016 -1.945,0.551 -2.402,0.777c-0.062,0.028 -0.117,0.055 -0.164,0.086c-1.305,0.051 -2.859,0.567 -3.344,1.078c-0.078,0.082 -0.148,0.164 -0.203,0.239c-0.125,0.07 -0.238,0.144 -0.34,0.218c-0.715,-0.586 -1.793,-1.191 -2.113,-1.32c-1.336,-0.555 -2.797,-1.223 -3.246,-1.488c-0.734,-0.43 -1.582,-0.727 -2.442,-0.84c-0.128,-0.09 -0.242,-0.172 -0.328,-0.23c-0.781,-0.54 -3.386,-1.391 -4.672,-1.047c-1.562,-2.039 -3.226,-3.563 -5.312,-4.829c-0.188,-0.113 -0.402,-0.234 -0.633,-0.355c-0.719,-1.355 -2.722,-2.129 -3.949,-2.609c-0.375,-0.149 -0.641,-0.254 -0.832,-0.325c-1.418,-0.984 -3.527,-0.238 -5.035,0.582c-0.024,-0.019 -0.047,-0.035 -0.063,-0.05c-3.226,-2.215 -6.433,-0.903 -8.746,1.961c-1.941,1.468 -1.945,1.48 -2.277,2.066c-0.043,0.074 -0.078,0.148 -0.11,0.227c-1.726,0.191 -3.492,1.035 -4.878,1.882c-0.254,0.157 -0.461,0.289 -0.622,0.414c-0.703,-0.796 -1.242,-1.339 -1.695,-1.699c0.297,-2.109 -1.262,-4.664 -2.496,-6.144c-3.289,-3.934 -10.043,-2.25 -13.656,0.39c-1.59,1.16 -2.586,1.86 -3.203,2.235c-4.496,2.75 -0.887,10.742 0.472,14.281c1.168,3.039 4.352,9.27 8.403,8.902c2.113,-0.191 4.812,-1.949 6.422,-4.179c2.113,1.152 4.304,1.699 6.785,1.539c0.613,-0.043 1.113,-0.121 1.496,-0.219c0.062,0.445 0.176,0.883 0.351,1.25c0.231,0.477 0.551,1.004 0.938,1.519Zm103.777,8.43c-1.969,-0.445 -1.969,-0.445 -2.539,-0.551c-0.324,-0.062 -0.504,0.102 -0.426,0.383c0.078,0.27 2,1.184 4.274,2.035c3.383,1.266 6.691,1.899 10.265,2.184c0.801,0.062 4.129,-0.027 2.082,-1.031c-0.558,-0.274 -2.238,-0.594 -3.734,-0.707c-1.5,-0.121 -3.902,-0.586 -5.34,-1.039c-1.437,-0.457 -3.5,-1.028 -4.582,-1.274Zm-99.683,-5.726c1.886,2.796 4.031,5.66 7.144,6.175c1.281,0.215 4.02,0.25 4.332,-1.547c0.012,-0.054 0.02,-0.109 0.031,-0.16c-0.332,-0.691 -0.562,-1.492 -0.652,-2c-0.223,-1.218 0.828,-1.152 1.317,-0.257c0.199,0.367 0.343,0.699 0.335,0.773c-0.007,0.07 0.118,0.391 0.278,0.707c0.101,0.207 0.277,0.57 0.398,0.941l0.004,0c0.348,0.235 0.664,0.477 0.828,0.614c3.004,2.461 7.926,3.882 11.25,1.785c0.735,-0.465 3.614,-3.981 4.211,-2.258c0.176,0.516 0.117,0.828 -0.449,1.398c0.121,-0.023 0.25,-0.046 0.387,-0.07c2.484,-0.449 3.925,-0.91 4.961,-1.578c0.41,-0.266 3.793,-2.344 4.906,-1.848c0.199,-0.004 0.398,0.012 0.582,0.051c0,-0.859 0.207,-1.285 0.898,0.281c0.516,1.18 0.692,1.289 1.629,1.047c0.223,-0.058 0.735,-0.027 1.207,0.086c-0.25,-2.144 0.61,-3.047 1.18,-0.238c0.043,0.203 0.074,0.402 0.094,0.586c0.035,0.012 0.07,0.023 0.109,0.035c0.504,0.141 1.184,0.25 1.512,0.238c0.328,-0.011 0.867,-0.343 1.195,-0.738c0.547,-0.648 1.672,-0.352 1.93,0.227c1.656,1.378 1.863,1.605 4.277,0.843c0.398,-0.125 0.738,-0.234 1.031,-0.32c0.223,-0.203 0.567,-0.336 1.024,-0.312c0.082,0.003 0.16,0.011 0.234,0.015c0.078,-0.004 0.145,0 0.199,0.008c1.012,0.062 1.266,0.133 3.481,0.75c2.449,0.68 5.82,1.977 7.547,3.934c0.066,0.074 0.117,0.144 0.156,0.207c0.09,-0.11 0.234,-0.223 0.445,-0.332c0.469,-0.243 0.922,-0.817 1,-1.274c0.493,-2.781 0.489,-6.586 1.754,-9.223c-0.136,0.016 -0.273,0.032 -0.41,0.051c-0.176,0.153 -0.441,0.305 -0.832,0.489c-0.273,0.128 -1.566,1.425 -2.539,1.976c0.164,0.195 0.344,0.418 0.527,0.66c0.973,1.278 2.344,3.145 1.25,4.774c-0.054,0.078 -0.148,0.168 -0.261,0.269c-0.227,0.293 -0.493,0.512 -0.746,0.645c0.035,0.386 -0.243,0.457 -0.665,0.164c-0.074,0.012 -0.113,-0.008 -0.097,-0.07c-0.266,-0.208 -0.582,-0.547 -0.906,-1.024c-0.352,-0.516 -0.653,-0.902 -0.93,-1.195c-0.09,-0.086 -0.172,-0.168 -0.254,-0.25c-0.309,-0.274 -0.602,-0.43 -0.926,-0.516c-0.609,-0.16 -1.051,-0.762 -1.324,-1.422c-0.148,-0.144 -0.305,-0.32 -0.461,-0.519c-1.328,0.074 -2.934,-1.516 -3.84,-2.645c-0.418,0.125 -1.183,0.086 -1.914,-0.109c-2.922,-0.774 -5.359,-0.946 -8.316,-0.184c-3.957,1.016 -9.676,2.715 -13.551,0.953c-1.984,-0.902 -1.984,-0.902 -2.738,-1.148c-0.754,-0.246 -0.754,-0.246 -4.496,-1.688c-1.094,-0.421 -1.922,-0.773 -2.536,-1.078c-0.191,0.883 -1.3,2.328 -2.41,2.739c-3.109,1.152 -8.301,0.785 -11.492,0.152c-0.129,-0.024 -0.484,-0.172 -0.863,-0.375c-1.313,0.641 -2.672,1.137 -4.153,1.312c-1.367,0.157 -3.894,0.192 -5.593,-0.511c-0.098,0.008 -0.192,0.008 -0.289,0.004Zm-2.477,-3.825c0.645,0.727 1.465,1.297 2.473,1.84c0.332,0.18 0.984,0.485 1.39,0.813c1.774,0.285 3.692,0.406 5.328,-0.055c0.75,-0.293 1.497,-0.703 2.231,-1.234c0.164,-0.118 0.332,-0.2 0.496,-0.246c1.551,-1.02 4.082,-2.442 4.773,-1.153c0.243,0.446 0.024,0.699 -1.222,1.422c-0.149,0.086 -0.293,0.172 -0.442,0.258c0.414,0.027 0.899,0.058 1.457,0.094c3.25,0.207 6.141,0.09 9.032,-1.481c0.293,-0.16 0.543,-0.273 0.757,-0.347c-0.07,-0.055 -0.136,-0.106 -0.191,-0.161c-0.48,0.008 -1.203,-0.027 -2.281,-0.078c-1.551,-0.074 -3.149,-0.101 -4.52,-0.879c1.41,-0.308 2.817,-0.629 4.274,-0.468c0.394,0.043 0.683,0.074 0.91,0.093c0.019,-0.015 0.035,-0.027 0.058,-0.043c0.016,0.004 0.036,0.008 0.055,0.008c0.559,0.051 2.211,-0.242 2.445,-1.015c0.008,0 0.012,-0.004 0.02,-0.004c0.23,-0.957 0.609,-0.817 1.199,0.23c0.305,0.543 0.985,1.223 1.508,1.508c0.473,0.262 1.027,0.781 1.066,1.207c3.059,1.309 6.438,2.844 9.567,2.988c1.168,0.051 3.773,-0.297 6.555,-0.883c3.878,-0.816 8.468,-2.023 12.351,-0.32l0.004,-0.004c0.281,-0.23 0.73,-0.359 0.969,-0.168l0.004,0c0.191,-0.09 0.191,-0.09 2.519,1.492c0.012,0.012 0.028,0.02 0.043,0.028c0.528,0.293 1.285,0.691 1.887,1.109c1.086,0.535 1.363,1.047 1.164,1.332c0.332,0.508 0.781,0.957 1.078,1.063c0.399,0.14 0.547,0.195 0.699,0.343c1.039,0.102 1.727,1.243 2.082,2.368c0.551,-0.938 0.516,-1.032 -0.589,-2.403c-0.547,-0.675 -1.876,-3.32 -1.25,-3.359c0.046,-0.149 0.121,-0.32 0.238,-0.516c-0.5,0.012 -0.817,-0.207 -0.262,-0.875c0.531,-0.636 1.332,-1.051 2.188,-1.289c0.218,-0.121 0.449,-0.183 0.683,-0.152c0.403,-0.07 0.809,-0.106 1.192,-0.113c0.3,-0.164 0.711,-0.344 1.226,-0.532c0.633,-0.23 3.84,-1.246 4.758,-0.519c0.371,-0.11 0.703,-0.199 0.996,-0.278c-0.145,-0.132 -0.289,-0.289 -0.426,-0.449c-0.437,-0.258 -0.836,-0.593 -1.14,-0.933c-1.817,-0.645 -3.633,-1.25 -5.508,-1.727c-0.266,-0.066 -0.539,-0.16 -0.801,-0.266c-0.344,-0.031 -0.637,0.004 -1.227,0.075c-1.175,0.144 -1.175,0.144 -4.378,1.027c-0.227,0.063 -0.438,0.121 -0.637,0.172c1.75,0.523 1.816,1.945 -0.528,1.398c-0.988,-0.23 -2.609,-0.742 -3.601,-1.136c-4.887,-1.957 -10.543,-5.223 -15.781,-5.149c-0.727,0.008 -3.172,0.449 -4.746,0.422c-0.02,0.438 -0.653,0.52 -2.207,-0.285c-1.418,-0.734 -2.786,-1.379 -4.426,-1.356c-1.512,0.02 -1.512,0.02 -3.086,0.223c-0.145,0.016 -0.332,0.02 -0.527,0.004l-0.004,0c-0.063,0.035 -0.149,0.059 -0.25,0.074c-0.481,0.071 -1.481,-0.512 -1.973,-1.148c-0.199,-0.078 -0.418,-0.16 -0.664,-0.254c-1.359,-0.527 -3.235,-1.024 -4.164,-1.102c-0.926,-0.078 -2.578,-0.386 -3.668,-0.683c-1.422,-0.383 -2.442,-0.418 -3.617,-0.121c-1.637,0.41 -1.637,0.41 -4.821,1.246c-0.039,0.011 -0.082,0.019 -0.121,0.031c0.223,0.625 0.196,1.168 -0.461,1.336c-1.398,0.359 -5.636,-5.957 -2.793,-5.168c0.176,-0.086 0.41,-0.191 0.719,-0.324c0.688,-0.293 1.531,-0.774 1.875,-1.063c0.371,-0.312 1.16,-0.789 1.305,0.008c0.039,0.199 0,0.406 -0.086,0.609c1.504,-0.148 3.496,-0.164 3.703,0.594c0.094,0.34 -0.32,0.508 -1.652,0.68c-0.977,0.121 -2.411,0.512 -3.184,0.867c-0.184,0.082 -0.43,0.207 -0.703,0.332c0.109,0.145 0.254,0.34 0.414,0.57c0.019,0.032 0.043,0.063 0.066,0.098c0.356,-0.113 0.77,-0.238 1.25,-0.379c2.258,-0.668 7.399,-2.137 9.653,-0.691c0.297,0.191 1.633,0.422 2.968,0.515c0.981,0.067 5.403,0.68 6.086,2.078c0.223,0.149 0.395,0.301 0.512,0.446c1.988,-0.449 4.848,-0.113 6.508,0.215c1.023,0.199 1.945,0.777 2.562,1.371c0.477,-0.168 1.36,-0.278 3.036,-0.449c2.902,-0.301 4.086,-0.227 6.937,0.437c1.894,0.441 4.156,1.223 5.035,1.738c1.594,0.934 1.594,0.934 3.367,1.469c1.774,0.527 1.774,0.527 3.204,1.313c0.386,0.214 0.957,0.445 1.566,0.648c0.105,-0.043 0.227,-0.09 0.359,-0.141c0.387,-0.324 1.028,-0.636 1.399,-0.632c0.359,0.007 0.359,0.007 2.676,-0.825c0.039,-0.015 0.296,-0.074 0.652,-0.14c0.168,-0.055 0.312,-0.102 0.445,-0.141c-0.664,-0.629 -1.34,-1.129 -1.66,-1.398c-1.699,-1.414 -2.598,-3.059 -3.871,-4.262c-4.129,-3.875 -11.297,-5.027 -15.375,-1.457c-0.16,0.687 -1.027,0.976 -1.91,1.008c-0.66,0.379 -1.957,0.789 -3.102,0.98c-0.781,0.539 -2.035,0.891 -2.449,0.473l-0.09,0c-0.629,-0.008 -2.258,-0.504 -3.617,-1.102c-2.906,-1.273 -6.168,-2.621 -9.371,-2.746c-0.582,-0.023 -0.953,-0.09 -1.199,-0.254c-0.477,-0.019 -1.047,-0.183 -1.469,-0.426c-2.137,-1.226 -4.363,-2.339 -6.766,-2.73c-0.207,0.035 -0.433,0.039 -0.636,0.023c-0.903,-0.07 -1.997,-0.234 -2.883,0.075c-0.59,-0.356 -1.375,-0.567 -1.891,-0.719c-0.336,-0.094 -0.68,-0.172 -1.039,-0.227c-1.293,-0.941 -3.82,-0.136 -5.598,0.766c-0.515,0.238 -1,0.523 -1.437,0.855c-0.02,0.016 -0.039,0.028 -0.059,0.043c-0.007,0.008 -0.015,0.012 -0.023,0.02c-1.004,0.789 -1.75,1.844 -2.035,3.164c-0.028,0.125 -0.059,0.254 -0.09,0.383c-0.254,0.801 -1.137,0.707 -1.223,-0.199c-0.058,-0.61 0.074,-1.258 0.332,-1.879c-1.359,0.476 -2.797,0.785 -4.172,0.945c-0.14,0.305 -0.55,0.477 -1.039,0.211c-0.078,-0.047 -0.164,-0.129 -0.242,-0.238c-0.125,-0.039 -0.269,-0.102 -0.433,-0.196c-0.665,-0.371 -2.289,-1.933 -2.965,-3.25c-0.063,-0.066 -0.114,-0.164 -0.145,-0.312c-0.168,-0.41 -0.219,-0.781 -0.086,-1.063c-0.343,-2.953 -2.695,-6.531 -5.691,-6.718c-3.192,-0.196 -6.274,1.191 -8.715,3.058c-1.629,1.246 -4.195,2.567 -3.969,4.906c0.512,5.309 3.637,12.989 8.274,16.036c2.351,1.546 5.726,-3.067 6.508,-5.004c0.289,-0.715 1.554,-3.817 2.156,-1.664c0.261,0.937 0.172,1.914 -0.164,2.867c0.273,0.152 0.629,0.359 1.109,0.637c1.809,1.05 2.715,1.128 4.746,1.253c0.074,0.004 0.149,0.012 0.219,0.016c0.305,-0.203 0.734,-0.309 1.144,-0.301c0.016,-0.093 0.036,-0.183 0.055,-0.265c-0.879,-0.489 -1.691,-1.285 -2.269,-2.172c-0.707,-0.793 -1.2,-1.848 -1.52,-3.156c-0.07,-0.293 -0.109,-0.551 -0.121,-0.766c-0.09,-0.031 -0.195,-0.074 -0.316,-0.129c-1.137,-0.543 -3.5,-2.715 -3.418,-4.121c0.043,-0.691 0.418,-0.848 0.925,-0.395c0.332,0.293 0.364,0.325 1.868,2.141c0.195,0.234 0.832,1.035 1.199,1.684c0.238,-0.079 0.597,0.312 0.844,1.25c0.015,0.066 0.035,0.136 0.054,0.203l0.008,0.004c0.035,0.015 0.078,0.031 0.121,0.058l0.973,1.11c0.82,0.941 1.66,1.964 2.765,2.558c0.567,0.082 1.2,0.379 1.512,0.672c0.317,-0.609 0.695,-1.305 1.067,-1.879c-0.028,-0.183 -0.04,-0.375 -0.036,-0.582c0.754,-0.644 1.59,-1.746 1.977,-2.652c0.898,-0.5 1.836,-0.594 2.098,0.426c0.164,0.64 -0.039,0.894 -0.954,1.187c-0.703,0.223 -1.246,0.711 -1.527,1.363c-0.113,1.219 -1.449,2.692 -2.601,3.278l-0.004,0.004c-0.172,0.285 -0.571,0.472 -1.227,0.398c-0.047,-0.008 -0.098,-0.016 -0.148,-0.023c0.062,0.179 0.129,0.378 0.195,0.605c0.309,1.07 0.762,1.891 1.371,2.57Zm34.992,-5.785c-2.832,-1.687 -1.875,0.36 -0.332,1.789c0.797,0.742 1.563,1.782 1.696,2.309c0.164,0.633 0.46,0.844 0.738,0.773c0.281,0.309 0.867,0.707 1.394,0.93c1.797,0.75 3.797,0.852 5.715,1.035c-0.844,-0.937 -1.683,-1.5 -3.004,-1.656c-0.929,-0.109 -2.316,-0.375 -3.082,-0.59c-0.222,-0.062 -0.41,-0.105 -0.566,-0.133c0.187,-0.34 0.262,-0.851 0.094,-1.402c-0.496,-1.617 -1.254,-2.219 -2.653,-3.055Zm14.883,2.387c-3.156,-0.902 -7.102,-0.848 -10.262,0.047c-1.144,0.324 -1.695,1.773 -0.172,1.414c2.063,-0.488 4.141,-0.473 6.25,-0.344c2.254,0.133 3.192,0.063 4.102,-0.316c1.176,-0.489 1.176,-0.489 0.082,-0.801Zm12.008,-10.219c0.371,0.301 0.707,0.617 0.992,0.942c1.481,1.695 3.902,4.367 5.84,5.492c0.824,0.476 1.285,1.117 1.656,1.769c0.43,-0.011 0.875,0.024 1.313,0.098c0.23,0.012 0.425,0.043 0.609,0.102c0.012,0.003 0.023,0.003 0.035,0.007c0.578,0.055 1.059,0.145 1.262,0.25c0.027,0.016 0.055,0.032 0.082,0.043c0.184,0.051 0.367,0.102 0.551,0.16c-0.235,-0.835 -0.512,-2.488 -0.653,-3.949c-0.015,-0.117 -0.023,-0.347 -0.027,-0.625c-0.242,-0.222 -0.512,-0.636 -0.793,-1.297c-0.227,-0.531 -0.453,-1.679 -0.453,-2.574c-0.305,0.117 -1.078,0.059 -2.934,-0.144c-0.035,0.25 -0.195,0.351 -0.543,0.414c-0.359,0.062 -1.464,-0.11 -2.457,-0.383c-1.324,-0.363 -2.461,-0.445 -4.269,-0.32c-0.071,0.003 -0.145,0.007 -0.211,0.015Zm-43.856,5.242c-1.382,-1.32 -4.414,-0.562 -2.203,-0.062c1.196,0.269 1.957,1.016 1.891,2.242c-0.926,0.266 0.351,1.152 1.453,1.262c1.121,0.109 2.848,-0.114 5.184,-0.668c2.707,-0.641 3.504,-0.965 3.507,-1.426c0.004,-0.59 -0.523,-0.5 -3.996,0.09c-3.964,0.676 -4.004,0.68 -5.312,0.664c0.238,-0.555 0.254,-1.363 -0.524,-2.102Zm91.313,-5.527c-0.52,-1.516 -1.602,-0.656 -1.941,0.457c-0.774,2.516 -4.481,3.27 -6.692,3.594c-1.703,0.254 -2.828,0.418 -2.672,0.777c0.094,0.207 1.742,0.121 3.961,-0.207c1.606,-0.238 8.391,-1.543 7.344,-4.621Zm-95.945,-5.594c0.976,-0.629 2.332,-0.609 3.539,-0.406c0.601,0.305 1.086,0.434 1.441,0.449c-0.527,-0.515 -1.062,-0.984 -1.898,-1.367c-0.637,-0.293 -0.891,-0.41 -1.149,-0.516c-1.023,-0.066 -2.019,0.469 -2.984,1.082c-0.086,0.055 -0.301,0.219 -0.531,0.348c0.019,0.004 0.039,0.004 0.058,0.008c0.367,0.055 1.035,0.148 1.524,0.402Zm61.316,8.535c0.199,0.43 0.508,2.196 0.691,3.961c0.153,1.481 0.227,2.301 0.204,2.782c0.722,0.336 1.39,0.757 1.957,1.277l0.003,0c0.25,0.102 0.559,0.266 0.942,0.496c0.223,0.133 2.012,1.141 2.09,1.699c0.445,0.071 0.859,0.149 1.39,0.297c0.336,-0.043 0.664,-0.07 0.957,-0.082c2.602,-0.129 5.828,-0.64 8,-2.176c0.395,-0.277 2.145,-1.441 2.692,-0.988c0.012,-0.004 0.019,-0.008 0.027,-0.012c1.363,-0.562 1.981,-1.211 2.242,-2.601c0.246,-1.324 1.172,-0.41 1.325,0.461c0.285,-0.11 0.906,-0.203 2.066,-0.375c2.496,-0.367 2.496,-0.367 3.754,-0.742c1.254,-0.375 1.254,-0.375 4.152,-0.805c0.988,-0.145 1.66,-0.227 2.121,-0.238c0.422,-0.223 0.84,-0.457 1.242,-0.7c0.083,-0.058 0.157,-0.113 0.231,-0.172c0.57,-0.437 1.184,-0.828 1.832,-1.175c1.066,-0.711 2.168,-1.266 3.324,-1.684c0.004,-0.004 0.008,-0.012 0.016,-0.016l0,-0.003c0.027,-0.004 0.051,-0.008 0.078,-0.016c0.691,-0.25 1.406,-0.449 2.144,-0.609c0.661,-0.211 1.356,-0.446 2.004,-0.684c0.356,-0.129 0.672,-0.246 0.957,-0.352c0.094,0.075 0.188,0.153 0.289,0.231c-0.039,0.016 -0.078,0.035 -0.117,0.055c0.02,0.003 0.043,0.011 0.067,0.019c0.047,0.004 0.09,0.008 0.136,0.012c0.008,0 0.016,0 0.024,0c0.957,0.754 2.164,1.601 3.351,2.148c0.293,0.332 0.637,0.649 1.008,0.946c0.989,0.484 2.02,0.89 3.047,1.269c3.609,1.328 8.145,2.133 8.785,6.461c0.524,3.543 1.77,0.945 1.707,-1.129c-0.086,-2.82 1.328,-4.824 -1.804,-6.344c-0.196,-0.097 -0.532,-0.32 -0.844,-0.589c-0.113,-0.047 -0.235,-0.106 -0.367,-0.18c-2.075,-1.215 -3.879,-3.578 -5.012,-5.953c-0.328,-0.352 -0.586,-0.821 -0.863,-1.399c-0.305,-0.386 -0.559,-0.734 -0.758,-0.972c-1.297,-1.582 -1.758,-2.145 -2.063,-2.395c-0.265,-0.445 -0.644,-0.832 -1.125,-1.008c-2.847,-1.054 -4.871,2.125 -6.793,3.848c-0.129,0.121 -0.242,0.223 -0.336,0.312c-0.015,0.008 -0.031,0.016 -0.043,0.02c-2.347,1.168 -5.25,1.352 -7.812,1.109c-5.449,-0.515 -10.723,-1.074 -15.434,2.508c-0.418,0.317 -1.097,0.762 -1.711,1.125c0.059,0.348 -1.187,0.465 -3.179,1.082c-0.543,0.168 -2.328,0.555 -3.602,0.945c0.887,0.286 1.77,0.711 1.215,1.122c-0.07,0.05 -0.16,0.105 -0.273,0.152c-0.129,0.055 -0.778,-0.008 -1.743,-0.16c-0.289,0.027 -0.668,-0.035 -1.242,-0.211c-0.875,-0.156 -1.875,-0.356 -2.914,-0.578c-2.094,-0.453 -4.367,-0.848 -5.918,-1.047c-0.73,0.098 -1.449,0.269 -2.156,0.523c0.023,0.18 0.035,0.36 0.039,0.535Zm-61.641,-7.496c0.934,-0.343 1.907,-0.312 2.891,-0.09c0.324,0 0.73,0.004 1.297,0.012c0.719,0.004 1.566,0.114 2.457,0.317c0.004,0 0.004,0 0.008,0.004c0.062,0.027 0.121,0.039 0.176,0.039c0.535,0.125 1.082,0.285 1.621,0.476c0.195,0.09 0.312,0.129 0.476,0.172c0.203,0.078 0.406,0.16 0.606,0.25c0.406,0.313 0.789,0.664 1.152,1.008c0.289,0.269 1.363,0.836 0.906,0.008c-0.414,-0.758 -1.097,-1.321 -1.801,-1.805c-0.183,-0.129 -0.418,-0.254 -0.652,-0.359c-0.16,-0.106 -0.328,-0.207 -0.5,-0.305c-0.594,-0.324 -1.348,-0.641 -1.777,-0.738c-0.239,-0.184 -0.442,-0.391 -0.547,-0.539c-0.66,-0.93 -1.399,-1.508 -2.41,-2.016c-0.231,-0.113 -0.621,-0.246 -0.992,-0.41c-0.235,-0.031 -0.407,-0.051 -0.848,-0.094c-0.305,-0.027 -0.914,0.02 -1.422,0.199c-0.203,0.031 -0.418,0.078 -0.645,0.137c-0.117,0.031 -0.5,0.074 -0.949,0.098c0.117,0.222 0.199,0.441 0.215,0.609c-0.176,0.09 -0.344,0.191 -0.508,0.305c-0.008,0 -0.011,0 -0.015,-0.004c-2.528,-0.551 -4.602,-2.051 -6.653,-0.949c-0.023,0.027 -0.047,0.058 -0.07,0.085c-0.676,0.805 -1.617,2.219 -2.66,3.145c0.133,0.059 0.066,0.129 -0.156,0.27c-0.196,0.074 -0.457,0.168 -0.852,0.304c-1.191,0.422 -1.191,0.422 -1.758,0.766c-0.14,0.086 -0.41,0.262 -0.621,0.476c-0.883,0.461 -2.465,1.356 -3.613,1.68c0.101,0.246 0.195,0.508 0.254,0.754c0.058,0.023 0.117,0.051 0.176,0.082c0.035,-0.008 0.07,-0.012 0.109,-0.019c1.617,-0.266 2.629,-0.672 4.375,-1.704c0.633,-0.371 1.277,-0.703 1.933,-1.004c0.934,-0.941 2.098,-1.648 3.122,-1.89c0.523,-0.125 1.972,-0.563 2.867,-0.367c0.344,-0.028 0.703,-0.024 1.047,0.023c0.234,-0.031 0.484,-0.047 0.738,-0.043l0.004,0.004c0.117,0.051 0.277,0.109 0.484,0.191c0.883,0.332 0.883,0.332 1.68,0.625c0.359,0.133 0.558,0.204 0.695,0.25c0.024,0.028 0.047,0.055 0.071,0.083c0.027,-0.016 0.058,-0.024 0.089,-0.036Z"/></svg>