<?xml version="1.0" encoding="UTF-8" standalone="no"?><!DOCTYPE svg PUBLIC "-//W3C//DTD SVG 1.1//EN" "http://www.w3.org/Graphics/SVG/1.1/DTD/svg11.dtd"><svg width="100%" height="100%" viewBox="0 0 483 111" version="1.1" xmlns="http://www.w3.org/2000/svg" xmlns:xlink="http://www.w3.org/1999/xlink" xml:space="preserve" xmlns:serif="http://www.serif.com/" style="fill-rule:evenodd;clip-rule:evenodd;stroke-linejoin:round;stroke-miterlimit:1.41421;"><path d="M162.355,84.664c0.325,0.024 0.594,0.032 0.743,0.032c0.84,0 1.996,0.089 3.222,0.308c0.801,0.305 1.559,0.688 3.203,1.52c1.989,1.004 2.684,1.359 3.118,1.554c0.031,0.051 0.062,0.106 0.089,0.157c0.145,0.269 0.301,0.453 0.454,0.57c-0.231,0.516 -0.465,1.078 -0.512,1.594c-0.02,0.226 -0.031,0.414 -0.031,0.574c-1.813,-0.406 -4.082,-0.594 -4.465,-0.293c-0.344,0.27 -0.477,0.48 -0.602,0.938c-0.16,0.589 -0.16,0.589 -1.363,1.179c-2.059,1.008 1.434,1.028 2.16,-0.09c0.621,-0.965 0.848,-0.996 2.981,-0.425c0.781,0.21 1.472,0.324 2.039,0.339c1.066,0.809 3.152,1.204 6.078,-1.406c1.297,-1.16 0.203,-1.355 2.043,-0.922c8.734,2.059 11.808,2.102 14.621,0.551c0.121,-0.07 0.219,-0.141 0.297,-0.215c0.933,0.367 1.98,0.711 2.675,0.934c1.125,0.433 2.235,0.894 2.895,1.332c2.633,1.758 4.227,2.515 4.883,2.316c0.441,-0.136 0.644,-0.258 0.679,-0.367c0.45,0.102 0.793,0.074 1.036,-0.039c1.234,0.145 2.461,0.277 3.027,0.363c1.723,0.25 1.727,0.254 3.242,1.098c-1.347,0.199 -2.293,0.398 -2.168,0.734c0.086,0.235 2.184,0.297 4.668,0.141l0.598,-0.039c2.723,0.656 6.383,-0.195 8.961,-0.852c3.422,-0.879 8.402,5.883 8.945,8.696c-0.742,0.058 -1.656,0.246 -2.355,0.101c-1.235,-0.254 -3.278,-0.347 -4.539,-0.211c-1.747,0.196 -2.653,0.012 -3.817,-0.761c-1.183,-0.79 -2.672,-1.079 -6.617,-1.274c-2.797,-0.141 -7.387,-0.711 -10.203,-1.273c-0.906,-0.18 -1.699,-0.336 -2.375,-0.461c0.121,-0.016 0.242,-0.032 0.367,-0.047c-3.027,-0.863 -6.027,-0.899 -9.176,-0.75c-3.086,0.148 -6.863,0.035 -8.398,-0.254c-2.785,-0.524 -2.785,-0.524 -6.117,-1.793c-0.336,-0.129 -0.641,-0.242 -0.926,-0.344c0.066,-0.027 0.133,-0.058 0.199,-0.09c1.215,-0.55 2.289,-0.714 4.746,-0.714c0.945,0 1.625,0 2.098,-0.024c0.66,0.137 1.332,0.293 2.027,0.457c3.258,0.777 6.481,1.297 9.82,1.438l-1.324,-0.809c-0.734,-0.441 -4.691,-1.242 -8.801,-1.773c-0.378,-0.051 -0.742,-0.094 -1.097,-0.133c-0.379,-0.125 -1.117,-0.176 -2.496,-0.192c-0.532,-0.023 -1.043,-0.023 -1.539,-0.007c-2.637,0 -4.313,0.062 -6.711,1.027c-0.102,0.043 -0.407,0.18 -0.785,0.367c-0.032,0.012 -0.063,0.02 -0.098,0.031c-0.266,0.086 -0.43,0.184 -0.516,0.285c-0.347,0.184 -0.707,0.383 -1.008,0.579c-2.39,0.785 -2.804,0.777 -6.375,-0.039c-2.105,-0.481 -6.214,-0.977 -9.125,-1.102c-4.816,-0.211 -5.253,-0.23 -6.074,-0.422c0.43,-0.769 0.965,-1.816 1.664,-3.226c1.614,-3.266 3.719,-5.934 5.668,-8.895c0.129,0.012 0.25,0.02 0.367,0.027Zm-81.582,8.496c0.114,0.211 0.223,0.43 0.332,0.649c0.661,1.332 1.172,2.344 1.594,3.098c-1.265,0.003 -2.855,0.332 -3.41,0.332c-0.652,0 -3,0.269 -5.652,0.648c-2.129,0.211 -4.282,0.52 -5.649,0.828c-2.402,0.324 -2.817,0.262 -3.57,-0.019c-1.281,-0.489 -2.559,-0.653 -3.918,-0.731c-0.125,-0.012 -0.238,-0.008 -0.34,0c-0.051,-0.019 -0.101,-0.039 -0.16,-0.055c-0.027,-0.011 -0.059,-0.019 -0.09,-0.031c-0.383,-0.187 -0.687,-0.328 -0.789,-0.367c-2.402,-0.969 -4.074,-1.027 -6.711,-1.031c-0.5,-0.016 -1.012,-0.012 -1.543,0.008c-1.375,0.015 -2.113,0.07 -2.492,0.195c-0.355,0.035 -0.723,0.082 -1.102,0.129c-4.105,0.535 -8.066,1.332 -8.796,1.777l-1.325,0.805c3.34,-0.137 6.559,-0.656 9.821,-1.434c0.691,-0.168 1.363,-0.324 2.023,-0.461c0.477,0.028 1.152,0.028 2.102,0.028c2.457,0 3.527,0.16 4.742,0.714c0.07,0.028 0.137,0.059 0.203,0.086c-0.285,0.102 -0.59,0.215 -0.926,0.344c-3.332,1.274 -3.332,1.274 -6.121,1.797c-1.531,0.285 -5.308,0.402 -8.394,0.254c-3.149,-0.152 -6.153,-0.113 -9.176,0.75c0.121,0.012 0.242,0.027 0.363,0.043c-0.672,0.125 -1.469,0.285 -2.371,0.465c-2.816,0.558 -7.406,1.133 -10.207,1.269c-3.941,0.2 -5.434,0.485 -6.613,1.274c-1.164,0.777 -2.075,0.957 -3.817,0.765c-1.261,-0.14 -3.304,-0.047 -4.539,0.211c-0.703,0.145 -1.613,-0.043 -2.355,-0.105c0.543,-2.813 5.523,-9.57 8.945,-8.695c2.578,0.66 6.234,1.507 8.961,0.855l0.598,0.035c2.48,0.16 4.582,0.098 4.668,-0.137c0.121,-0.335 -0.825,-0.539 -2.168,-0.734c1.511,-0.848 1.519,-0.848 3.242,-1.101c0.734,-0.106 2.597,-0.301 4.129,-0.5c-0.18,0.164 -0.071,0.335 0.613,0.542c0.652,0.2 3.84,-0.933 6.477,-2.695c0.238,-0.16 0.55,-0.34 0.906,-0.531c1.242,-0.395 2.562,-0.758 3.672,-0.992c0.699,-0.145 1.285,-0.27 1.769,-0.379c2.582,0.902 5.906,0.605 13.278,-1.141c1.832,-0.433 0.738,-0.238 2.066,0.922c1.629,1.422 2.992,1.949 4.059,2.008c0.015,0.012 0.035,0.019 0.05,0.027c0.61,0.305 1.766,0.254 3.25,-0.144c2.137,-0.575 2.364,-0.539 2.985,0.422c0.722,1.121 4.218,1.097 2.16,0.089c-1.203,-0.589 -1.203,-0.589 -1.363,-1.175c-0.125,-0.461 -0.262,-0.668 -0.602,-0.938c-0.332,-0.262 -2.051,-0.156 -3.68,0.133c0.024,-0.078 0.036,-0.148 0.036,-0.207c0.007,-0.059 0.007,-0.117 0.011,-0.172c0.012,-0.164 -0.031,-0.289 -0.09,-0.41c-0.007,-0.129 -0.019,-0.277 -0.039,-0.445c-0.054,-0.454 -0.246,-0.934 -0.457,-1.391c0.153,-0.164 0.449,-0.406 1.184,-0.824l0.008,-0.004c0.14,-0.063 0.285,-0.133 0.425,-0.211c0.2,-0.113 0.399,-0.231 0.602,-0.34c0.066,-0.035 0.137,-0.07 0.207,-0.105c1.891,-0.957 2.668,-1.348 3.606,-1.692c0.011,-0.004 0.023,-0.008 0.039,-0.012c1.308,-0.445 2.664,-0.687 4.015,-0.519c1.817,2.754 3.762,5.254 5.324,8.226Zm69.415,-52.722c2.085,1.144 5.554,4.316 5.363,7.109c0.215,0.43 0.422,0.856 0.613,1.262c0.184,0.293 0.441,0.598 0.742,0.914c1.903,0.59 4.34,2.086 4.86,2.898c0.414,0.641 1.148,2.094 1.636,3.227c0.086,0.203 0.157,0.387 0.215,0.559c1.563,1.132 3.442,2.765 5.438,5.882c0.777,1.215 1.816,3.153 2.691,4.864c0.102,0.043 0.215,0.101 0.34,0.168c0.535,0.304 0.535,0.304 0.684,0.605c0.093,0.184 0.484,0.719 1.039,1.422c1.918,2.434 4.996,5.105 5.117,8.453c0,0.051 0.004,0.102 0.004,0.152c1.105,0.528 2.066,1.215 2.3,1.95c0.125,0.386 0.332,0.73 0.602,1.039c0.043,-0.012 0.082,-0.016 0.125,-0.016c0.414,0 0.414,0 2.152,0.801c1.739,0.801 1.739,0.801 3.618,1.308c0.14,0.036 0.386,0.125 0.66,0.25c0.14,-0.136 0.34,-0.222 0.613,-0.222c0.242,0 0.242,0 0.953,0.547c0.262,0.207 0.594,0.55 0.949,0.547c1.102,1.234 2.184,2.414 3.477,3.453c0.055,0.043 0.262,0.191 0.523,0.39c0.696,0.309 1.516,0.676 2.328,1.055c0.36,0.07 0.879,0.187 1.719,0.383c2.797,0.637 5.528,1.492 8.141,2.68c0.797,0.363 1.336,0.828 1.629,1.273c2.554,-0.258 5.281,0.137 7.289,1.379l1.601,0.992c3.715,-1.383 8.493,-1.91 12.219,-0.625c1.262,0.438 2.285,1.168 2.52,1.805c0.214,0.59 1.461,1.91 2.761,2.926c2.067,1.621 2.395,2.144 2.625,4.183c0.114,1.024 -0.211,1.926 -0.629,2.277c-0.203,1 -0.421,0.946 -2.55,0.395c-1.387,-0.359 -3.473,-0.477 -5.028,-0.285c-1.906,0.238 -3.273,0.094 -4.836,-0.508c-1.195,-0.461 -3.355,-0.824 -4.804,-0.805c-4.563,0.059 -11.387,-0.855 -15.379,-3.109c-0.602,-0.344 -0.875,-0.496 -1.008,-0.641c-6.574,0.817 -13.461,1.489 -19.695,-0.863c-0.672,-0.254 -3.453,-0.93 -5.192,-1.625c-0.425,0.086 -0.847,0.156 -1.273,0.203c-2.52,0.82 -5.082,1.168 -7.891,0.774c-0.648,0.019 -1.816,-0.059 -6.25,-0.352c-6.015,-0.402 -6.015,-0.402 -7.594,-0.656c-0.179,-0.031 -0.449,-0.063 -0.753,-0.106c0.171,0.676 -0.618,1.082 -2.106,0.528c-2.73,-1.012 -5.781,-1.254 -8.664,-1.371c-3.535,-0.149 -7.969,-0.231 -11.297,-1.594c-0.031,-0.012 -0.066,-0.031 -0.101,-0.055c-0.973,-0.156 -1.841,-0.32 -2.524,-0.469c-0.774,0.051 -1.75,0.102 -2.984,0.168c-2.59,0.141 -5.11,0.34 -7.645,0.25c-0.004,0.129 -0.109,0.153 -0.504,-0.019c-0.839,-0.043 -1.675,-0.121 -2.523,-0.242c-0.816,-0.121 -2.172,-0.118 -3.531,-0.012c-2.289,0.656 -4.282,1.402 -6.864,1.582c-3.55,0.25 -7.363,-0.047 -11.047,0.168c-0.75,0.07 -1.5,0.141 -2.253,0.207c-1.364,0.172 -2.7,0.453 -3.981,0.894c-0.836,0.286 -5.355,2.129 -5.101,0.364c0.023,-0.172 0.058,-0.321 0.117,-0.457c-0.473,0.312 -1.149,0.418 -2.645,0.418c-1.156,0 -3.844,0.304 -5.976,0.679c-3.446,0.606 -7.774,1.625 -11.305,0.555c-1.191,-0.152 -2.356,-0.43 -3.508,-0.805c-0.426,-0.047 -0.848,-0.117 -1.262,-0.203c-1.742,0.696 -4.523,1.371 -5.199,1.625c-6.23,2.356 -13.117,1.684 -19.691,0.864c-0.137,0.144 -0.406,0.296 -1.012,0.64c-3.988,2.258 -10.812,3.172 -15.379,3.11c-1.445,-0.016 -3.605,0.343 -4.805,0.808c-1.562,0.598 -2.925,0.742 -4.832,0.508c-1.558,-0.195 -3.64,-0.074 -5.031,0.281c-2.125,0.551 -2.344,0.606 -2.551,-0.39c-0.414,-0.356 -0.738,-1.254 -0.625,-2.282c0.227,-2.035 0.558,-2.562 2.625,-4.179c1.301,-1.02 2.543,-2.336 2.762,-2.926c0.235,-0.641 1.258,-1.371 2.52,-1.809c3.726,-1.285 8.504,-0.758 12.218,0.625l1.602,-0.992c2.352,-1.457 5.703,-1.75 8.602,-1.187c1.05,-0.461 2.066,-1 3.086,-1.551c1.605,-0.879 4.519,-2.024 6.468,-2.543c0.469,-0.129 1.227,-0.418 2.055,-0.653c0.012,-0.023 0.027,-0.05 0.043,-0.07c-0.141,-1.48 2.375,-2.828 3.457,-3.367c1.23,-0.617 2.434,-1.207 3.582,-1.969c0.676,-0.449 2.062,-1.094 3.078,-1.429c1.25,-0.418 2.371,-0.778 3.461,-1.512c0.227,-0.156 0.543,-0.297 0.844,-0.375c0.258,-0.305 0.453,-0.649 0.57,-1.031c0.254,-0.868 1.527,-1.672 2.856,-2.219c0.14,-1.403 1.648,-3.414 2.261,-4.121c0.422,-0.489 0.844,-0.965 1.262,-1.453c0.902,-1.414 1.75,-2.801 2.258,-3.864c0.359,-0.754 0.773,-1.605 1.199,-2.453c0.066,-0.211 0.129,-0.426 0.191,-0.637c0.649,-2.269 2.438,-5.191 4.364,-6.617c0.058,-0.047 0.117,-0.09 0.179,-0.133c0.614,-0.625 2.692,-2.667 4.161,-3.207c0.109,-0.078 0.214,-0.156 0.316,-0.23c0.422,-2.059 1.492,-4.07 3.129,-5.406c0.242,-0.196 1.215,-0.653 2.207,-0.926l0,-0.004c0.019,-0.039 0.039,-0.082 0.059,-0.121c0.117,-0.281 0.242,-0.551 0.378,-0.816c0.157,-0.649 0.407,-1.266 0.719,-1.852c0.469,-1.703 1.86,-3.305 3.274,-4.231c0.332,-0.218 1.168,-1.089 1.988,-1.73c0,-0.187 0.008,-0.375 0.023,-0.57c0.133,-2.141 1.992,-7.379 4.684,-8.227c0.488,-0.379 0.934,-0.695 1.141,-0.836c0.468,-0.472 0.98,-0.847 1.41,-1.011c0.023,-0.008 0.047,-0.016 0.074,-0.028c1.086,-0.758 2.148,-1.16 3.68,-1.398c1.105,-0.168 1.996,-0.528 2.882,-0.996c0.508,-0.418 0.965,-0.743 1.282,-0.875c0.304,-0.133 0.617,-0.282 0.937,-0.43c1.801,-1.129 4.57,-2.867 6.567,-2.547c0.191,-0.68 0.378,-1.398 0.543,-2.023c-0.082,-0.321 -0.153,-0.657 -0.219,-1.008c-1.024,-2.387 -1.918,-4.145 -1.918,-6.379c0,-3.984 0.199,-10.305 4.347,-12.012c3.161,-1.297 6.528,-1.734 9.825,-0.183c1.566,0.734 3.64,3.07 4.004,4.8c0.41,1.981 0.296,6.649 0.086,6.703c0.429,4.493 -1.602,6.305 -1.739,6.848c0,0.004 -0.004,0.012 -0.004,0.016c0.121,1.191 0.387,2.25 0.703,3.176c0.157,-0.055 0.329,-0.071 0.5,-0.036c0.684,0.133 0.684,0.133 2.152,0.668c2.845,1.036 6.493,2.239 8.259,4.895c0.004,0.008 0.015,0.019 0.019,0.031c0.836,0.067 1.844,0.391 2.633,0.684c0.887,0.066 1.844,0.316 2.227,0.465c0.367,0.14 0.796,0.425 1.21,0.8c1.165,0.129 2.696,1.149 3.227,1.594c0.445,0.371 0.84,0.789 1.188,1.235c1.292,1.652 1.937,3.746 2.097,5.851c0.067,0.285 0.129,0.594 0.192,0.934c0.039,0.222 0.07,0.433 0.093,0.629c0.082,0.043 0.176,0.097 0.286,0.156Zm-17.801,34.066c-0.657,1.11 -1.399,2.149 -2.242,3.063c-0.606,2.711 -2.083,4.886 -5.262,6.191c-4.469,1.824 -11.274,2.305 -15.547,0.027c-2.488,-1.328 -3.297,-0.906 -2.609,0.055c-0.774,-0.687 -1.59,-1.476 -2.262,-2.207c-2.477,-2.699 -2.477,-2.699 -3.36,-3.535c-0.882,-0.84 -0.882,-0.84 -1.039,-1.406c-0.32,-1.172 -0.816,-0.203 -0.652,0.597c0.598,2.934 4.84,7.664 7.43,9.008c1.461,0.758 4.777,1.024 2.242,-0.648c3.742,1.871 8.875,0.914 12.789,0.269c0.723,-0.117 1.527,-0.289 2.359,-0.523c-0.476,0.441 -0.64,0.613 -1.007,0.992c-1.668,1.723 -4.2,2.863 -6.477,3.551c2.988,0.363 4.137,-0.957 6.766,-2c1.554,-0.613 4.414,-2.836 5.574,-4.723c1.051,-0.746 1.914,-1.66 2.414,-2.769c0.547,-1.207 0.863,-3.598 0.883,-5.942Zm2.785,-10.539c0.113,-0.351 0.234,-0.699 0.359,-1.047c-0.058,0.016 -0.121,0.032 -0.183,0.047c1.66,-2.582 1.09,-6.555 1.242,-9.152c1.094,-1.274 2.301,-3.621 3.008,-5.445c1.039,1.96 2.699,3.558 4.316,5.152c0.18,0.351 0.297,0.582 0.406,0.789c0.227,0.226 0.473,0.492 0.739,0.801c0.945,1.086 2.078,2.023 3.211,2.652c0.96,0.531 1.855,1.203 1.988,1.492c0.176,0.387 0.383,0.696 0.801,1.215c0.023,0.027 0.046,0.055 0.07,0.09c0.254,0.883 0.66,1.75 0.988,2.422c0.758,1.558 2.168,3.16 3.598,4.531c0.347,0.527 0.719,1.047 1.109,1.551c1.145,1.488 3.106,2.008 4.926,2.582c1.043,0.664 2.09,1.226 3.074,1.668c0.27,0.129 0.551,0.254 0.832,0.371c0.61,0.789 1.297,1.535 1.477,1.726l2.742,2.903c0.246,0.203 0.496,0.406 0.75,0.601c0.129,0.164 0.289,0.344 0.473,0.536c-0.047,0.238 -0.078,0.546 -0.098,0.949c-0.051,1.199 0.188,3.191 0.895,4.719c-0.457,-0.219 -1.008,-0.458 -1.68,-0.727c-2.262,-0.918 -5.844,-2.106 -8.559,-1.5c-0.746,-2.316 -6.269,-2.906 -8.242,-3.152c-1.121,-0.141 -3.41,-0.711 -5.09,-1.27c-0.496,-0.168 -1.273,-0.336 -2.082,-0.457c-0.398,-0.035 -0.797,-0.144 -1.152,-0.344c-0.11,-0.062 -0.203,-0.133 -0.289,-0.218c-0.176,0.058 -0.352,0.117 -0.531,0.191c-0.348,-1.484 -1,-2.426 -2.633,-2.656c-1.168,-0.164 -1.434,-0.2 -1.75,-0.211c-0.078,-0.153 -0.149,-0.324 -0.219,-0.516c-0.32,-0.875 -1.297,-1.898 -2.356,-2.461c-0.652,-0.351 -1.527,-0.66 -2.281,-0.828c-0.015,-0.215 -0.039,-0.43 -0.062,-0.625c0.051,-0.644 0.101,-1.441 0.156,-2.445c0.109,-1.918 0.129,-3.172 0.047,-3.934Zm-4.954,-13.851c-0.28,0.105 -0.519,0.168 -0.683,0.183c-2.683,-0.043 -7.519,1.762 -9.867,-0.605c0.027,-0.297 0.004,-0.641 -0.07,-1.016c-0.418,-2.031 -0.418,-2.031 -0.485,-4.199c-0.097,-3.274 -1.363,-1.863 -1.363,0.668c0,1.558 0.195,3.504 0.438,4.32c0.023,0.09 0.05,0.176 0.082,0.258c-0.098,0.102 -0.215,0.238 -0.356,0.391c-2.269,2.492 -7.414,0.367 -10.211,0.281c-0.887,-0.098 -4.047,-1.914 -4.234,-2.137c-0.957,-1.172 -2.211,-3.39 -2.785,-4.933c-0.227,-0.602 -0.059,-1.895 0.238,-3.215c0.148,-0.278 0.305,-0.559 0.465,-0.797c1.101,-1.598 2.543,-2.84 4.215,-3.719c0.445,-0.43 0.894,-0.773 1.296,-0.992c0.266,-0.145 1.207,-0.699 2.114,-1.035c-0.574,-0.856 -3.239,-0.094 -3.86,0.148c-0.609,0.235 -1.566,0.805 -2.531,1.543c-0.055,0.031 -0.109,0.063 -0.164,0.098c0.172,-0.531 0.105,-0.77 -0.355,-0.84c-0.93,-0.148 -2.192,1.812 -2.973,3.598c1.726,2.504 -0.309,7.14 -2.219,8.863c-0.629,0.566 -1.293,1.293 -1.988,2.035c-1.996,2.844 -4.301,5.676 -7.789,6.129c-0.055,0.531 0.179,1.262 -0.379,2.367c-0.871,1.086 -1.586,2.231 -2.336,2.629c-0.242,0.129 -2.625,3.875 -2.898,4.691c-0.778,2.313 -4.688,4.04 -6.965,5.379c-0.133,0.055 -0.258,0.106 -0.379,0.157c-0.555,0.23 -1.055,0.617 -1.524,1.07c-0.054,0.035 -0.105,0.07 -0.152,0.098c-0.082,-0.043 -0.172,-0.067 -0.266,-0.079c-0.472,0.567 -0.98,1.239 -1.386,1.856c-0.743,1.113 -2.422,3.07 -3.731,4.344c-0.074,0.066 -0.179,0.175 -0.312,0.312c-0.469,0.809 -0.914,1.629 -1.325,2.453c0.055,-0.027 0.118,-0.062 0.18,-0.097c-0.113,0.339 -0.207,0.675 -0.273,0.976c-0.387,1.692 -1.326,3.86 -2.082,4.817c-0.821,1.043 -0.403,1.828 0.246,2.636c0.574,0.637 1.163,1.524 1.609,2.035c0,0.024 0,0.051 0.004,0.075c0.004,0.039 0.004,0.074 0.004,0.105c-2.586,0.656 -4.754,0.121 -5.125,-2.832c-0.367,-2.953 -3.664,-1.289 -5.676,-0.168c-1.406,0.781 -3.836,1.524 -5.398,1.645c-1.442,0.113 -2.621,0.132 -3.434,-0.008c-0.273,-0.375 -0.683,-0.563 -1.168,-0.625c-0.015,-0.027 -0.027,-0.051 -0.035,-0.082c0.063,-0.055 0.117,-0.11 0.164,-0.156c0.664,-0.637 1.703,-1.297 2.383,-1.516c0.66,-0.215 1.695,-0.762 2.301,-1.215c0.597,-0.457 1.218,-0.797 1.863,-1.09c1.543,-0.375 2.785,-0.933 3.887,-1.605c0.484,-0.223 0.925,-0.442 1.218,-0.598c0.672,-0.375 1.04,-0.726 1.188,-1.148c1.105,-0.903 2.207,-1.879 3.535,-2.84c0.16,0.027 0.313,0.008 0.457,-0.039c0.004,-0.024 0.004,-0.043 0.008,-0.067c0.609,-3.742 3.975,-7.793 7.008,-10.734c0.242,-0.574 0.449,-1.145 0.617,-1.707c0.379,-1.273 0.883,-2.422 1.504,-3.465c1.238,-2.601 3.805,-4.902 6.258,-6.394c0.062,-0.039 0.132,-0.082 0.211,-0.129c0.605,-1.867 2.019,-3.645 3.449,-4.657c0.949,-0.667 2.047,-1.71 3.305,-1.48c0.328,0.055 0.523,0.09 0.73,0.109c0.434,-0.234 0.77,-0.406 0.949,-0.472l1.949,-0.715c-0.613,-0.121 -1.175,-0.164 -1.699,-0.149c-0.105,0.024 -0.207,0.032 -0.305,0.02c-0.624,0.051 -1.203,0.199 -1.753,0.422c0.136,-0.172 0.218,-0.328 0.218,-0.445c0,-0.016 0,-0.036 -0.004,-0.051c0.122,-0.172 0.235,-0.364 0.34,-0.571c0.078,-0.156 0.16,-0.316 0.246,-0.472c-0.05,-0.25 -0.043,-0.539 0.016,-0.836c-0.238,-1.277 0.535,-3.09 1.426,-3.758c0.328,-0.246 1.355,-1 2.375,-1.519c0.062,-0.051 0.125,-0.102 0.187,-0.153c0.246,-0.207 0.453,-0.383 0.629,-0.535c0.27,-0.16 0.551,-0.301 0.84,-0.406c0.051,-0.211 0.102,-0.438 0.148,-0.684c0.391,-2.008 0.75,-3.707 1.653,-5.265c1.094,-2.426 4.562,-5.375 7.262,-4.368c0.097,0.008 0.191,0.02 0.285,0.035c0.55,-0.179 1.082,-0.386 1.57,-0.66c0.504,-0.281 0.824,-0.82 0.703,-1.199c0,-0.008 -0.004,-0.015 -0.004,-0.019c1.578,-0.575 3.031,-1.45 4.516,-2.289c0.187,-0.079 0.379,-0.161 0.582,-0.243l2.715,-1.132c0.136,-0.036 0.281,-0.075 0.441,-0.114c0.031,-0.011 0.078,-0.023 0.133,-0.039c-0.094,0.215 -0.18,0.379 -0.254,0.473c-0.535,0.625 -1.047,1.254 -1.48,1.953c1.898,-0.57 3.375,-1.66 4.128,-3.387c1.192,1.895 2.926,2.688 5.102,2.84c3.715,0.254 5.566,-0.914 6.742,-3.18c0.192,0.989 0.442,1.86 0.614,2.168c0.5,0.911 1.953,1.454 2.703,1.559c0.945,0.137 0.445,-0.598 -0.297,-2.105l3.23,1.335c1.735,0.711 2.789,1.149 3.571,1.512c0.453,0.395 0.878,0.836 1.265,1.332c1.18,1.52 1.387,1.676 2.086,1.547c0.102,-0.019 0.192,-0.047 0.266,-0.078c0.097,0.031 0.195,0.062 0.293,0.094c1.406,-0.203 2.769,0.097 4.004,0.746c0.031,0.066 0.078,0.129 0.132,0.191c1.032,0.164 2.036,0.965 2.719,1.692c1.945,2.078 3.625,5.867 3.379,8.847c0.063,0.043 0.133,0.09 0.203,0.141c0.008,0.004 0.012,0.012 0.02,0.015c0.031,0.043 0.066,0.083 0.097,0.114c0.262,0.117 0.582,0.273 0.911,0.449c1.507,0.805 3.156,1.488 3.941,3.102c0.207,0.421 0.363,1.07 0.398,1.726c0.43,0.399 0.801,0.879 0.95,1.09c0.566,0.777 1.402,1.875 2.136,3.039c0.383,0.121 0.75,0.285 1.063,0.465c1.969,1.133 3.539,2.719 4.344,4.867c0.054,0.148 0.121,0.313 0.195,0.484c0.039,0.024 0.082,0.043 0.121,0.067c0.414,0.461 0.828,1.055 1.437,1.988c0.172,0.133 0.34,0.266 0.497,0.399c0.55,0.46 1.105,1.003 1.625,1.609c0.39,0.254 0.734,0.469 0.941,0.668c2,1.902 2.676,4.547 3.012,5.328c0.105,0.238 0.222,0.477 0.351,0.715c0.344,0.203 0.774,0.512 1.188,0.851c0.777,0.649 1.883,1.993 2.621,3.196c1.617,2.633 3.398,4.793 4.422,7.578c2.91,2.269 4.949,4.465 9.113,5.383c0.133,0.027 0.617,0.269 1.27,0.613c1.105,1.465 3.039,3.121 4.96,3.66c-0.628,0.477 -2.191,0.516 -4.347,0.348c-1.563,-0.125 -4.008,-0.863 -5.434,-1.649c-2.039,-1.117 -5.383,-2.785 -5.676,0.172c-0.253,2.516 -1.855,3.278 -3.937,3.035c-0.285,-0.14 -0.668,-0.273 -1.106,-0.394c0.43,-0.512 0.997,-1.391 1.555,-2.024c0.629,-0.808 1.024,-1.597 0.176,-2.636c-0.781,-0.957 -1.774,-3.125 -2.199,-4.817c-0.078,-0.3 -0.18,-0.64 -0.301,-0.976c0.609,0.347 0.98,0.281 0.805,-0.414c0.019,-0.008 0.035,-0.016 0.054,-0.028c-0.156,-0.191 -0.32,-0.41 -0.578,-0.769c-0.988,-1.36 -2.375,-3.067 -3.195,-4.758c-0.254,-0.25 -0.512,-0.496 -0.77,-0.742c-1.207,-1.164 -2.402,-2.043 -3.09,-2.289c-0.199,-0.071 -0.371,-0.117 -0.515,-0.145c-0.488,-0.293 -1.067,-0.539 -1.465,-0.734c-0.203,-0.125 -0.426,-0.258 -0.664,-0.387c-0.883,-0.562 -1.531,-0.91 -2.266,-1.242c-0.769,-0.43 -1.55,-0.895 -2.246,-1.391c-0.129,-0.105 -0.258,-0.218 -0.383,-0.328c-0.488,-1.16 -1.16,-2.293 -1.921,-3.242c0.011,-0.004 0.015,-0.012 0.023,-0.016c-0.023,-0.011 -0.043,-0.023 -0.063,-0.039c-0.062,-0.074 -0.124,-0.148 -0.187,-0.222c-0.773,-0.918 -1.461,-1.786 -2.234,-2.746c-0.637,-0.793 -1.129,-1.54 -1.426,-2.161c-0.153,-0.523 -0.176,-1.129 -0.074,-1.55c-0.207,-0.086 -0.426,-0.161 -0.641,-0.223c-0.02,-0.09 -0.035,-0.18 -0.051,-0.274c-2.371,-0.425 -4.722,-1.882 -5.808,-3.863c-2.024,-3.695 -6.434,-5.949 -6.871,-10.011c-0.149,-0.391 -0.305,-0.821 -0.465,-1.313c-0.055,-0.172 -0.153,-0.395 -0.274,-0.613c0.539,-0.625 -2.144,-6.668 -3.695,-6.496c-0.688,0.074 -0.461,0.586 0.137,1.937c0.023,0.051 0.047,0.113 0.074,0.184c-0.238,-0.196 -0.434,-0.332 -0.543,-0.391c-1.832,-0.949 -1.832,-0.949 -3.692,-1.344c-2.555,-0.539 -1.726,0.735 0.094,1.34c1.762,0.586 3.875,1.563 5.032,3.129c0.433,1.578 0.773,3.301 0.527,4.012c-0.52,1.512 -1.688,3.668 -2.59,4.793c-0.145,0.176 -2.184,1.308 -3.407,1.758Zm4.489,22.589c0.043,-0.039 0.086,-0.089 0.121,-0.14c1.668,0.375 3.078,1.547 3.672,3.203c-0.008,0.09 -0.004,0.18 0.02,0.269c0.125,0.461 0.621,0.692 1.144,0.813c0.211,0.07 0.441,0.125 0.676,0.16c0.621,0.086 1.234,0.371 1.68,0.758c0.031,0.09 0.066,0.199 0.101,0.312c0.055,0.188 0.145,0.348 0.258,0.485c-2.707,1.547 -5.504,3.976 -7.082,4.996c-0.711,0.457 -0.711,0.457 -2.289,2.035c-1.578,1.574 -1.578,1.574 -1.77,1.656c-0.981,0.43 -1.8,2.996 -2.352,3.989l2.087,-1.832c4.05,-3.555 8.336,-7.024 12.914,-10.043l0.613,-0.403c0.18,0.071 0.375,0.149 0.59,0.235c3.972,1.519 8.222,2.363 12.344,3.367c0.863,0.211 1.949,0.586 2.711,0.926c-0.551,0.355 -0.422,0.609 0,0.789c-0.442,0.191 -0.805,0.379 -0.915,0.484c-2.882,2.758 -4.308,7.512 -6.199,11.012c-0.246,0.457 -0.453,0.832 -0.613,1.144c-2.992,-1.179 -6.75,-1.144 -9.781,-1.3c-0.699,-0.036 -1.301,-0.067 -1.817,-0.094c-1.281,-0.11 -2.605,-0.203 -3.886,-0.278c-0.282,-0.039 -0.579,-0.082 -0.957,-0.136c-0.957,-0.137 -2.172,-0.504 -2.7,-0.817c-0.965,-0.558 -0.965,-0.558 -1.351,-0.547c-0.242,0.008 -0.406,0.067 -0.508,0.161c-2.34,-0.762 -6.898,0.261 -8.313,0.593c-2.277,0.528 -3.55,0.606 -4.171,0.25c-0.336,-0.187 -0.727,-0.336 -1.157,-0.449c-1.965,-1.301 -4.992,-2.562 -5.839,-3.062c-4.329,-2.543 -4.329,-2.543 -5.543,-3.633c-1.219,-1.086 -1.219,-1.086 -1.415,-1.805c-0.363,-1.344 -0.937,-0.41 -0.8,0.559c0.461,3.269 7.828,5.98 10.152,7.277c0.129,0.074 0.258,0.145 0.383,0.215c-0.324,0 -0.723,0.082 -1.11,0.195c-1.632,0.106 -3.23,0.387 -4.324,0.653c-1.082,0.261 -1.601,0.542 -1.726,0.796c-1.145,0.071 -2.305,0.028 -3.348,-0.183c-1.023,0.051 -2.203,0.117 -3.535,0.195c-0.043,-0.004 -0.086,-0.008 -0.125,-0.012c-3.996,-0.332 -8.688,0.246 -12.57,1.192c-0.969,0.238 -2.102,0.605 -2.774,0.898c-0.18,-0.375 -0.449,-0.871 -0.808,-1.535c-1.891,-3.504 -3.321,-8.254 -6.204,-11.016c-0.086,-0.085 -0.343,-0.226 -0.675,-0.378c0.148,-0.239 0.031,-0.559 -0.328,-0.852c0.761,-0.352 1.902,-0.75 2.8,-0.965c4.121,-1.008 8.375,-1.851 12.344,-3.371c0.215,-0.082 0.414,-0.16 0.59,-0.234l0.617,0.406c2.191,1.445 4.324,3 6.391,4.617c-0.035,-0.094 -0.071,-0.18 -0.106,-0.266c-0.308,-0.738 -0.488,-1.507 -0.551,-2.261c-1.32,-0.996 -2.816,-2.094 -4.289,-2.93c0.2,-0.598 0.719,-1.019 1.317,-1.305c0.25,-0.105 0.511,-0.179 0.781,-0.214c0.254,-0.04 0.504,-0.098 0.73,-0.176c0.262,0.082 0.567,0.023 0.821,-0.238c0.582,-0.133 0.594,-0.286 0.496,-0.825c0,-0.004 -0.004,-0.008 -0.004,-0.011c0.891,-1.567 2.34,-2.649 4.047,-3.219c0.281,-0.094 0.523,-0.176 0.73,-0.25c0.004,0.004 0.008,0.004 0.016,0.008c0.086,0.156 0.199,0.269 0.344,0.375c0.367,1.125 2.742,1.937 3.574,2.507c2.141,1.473 4.48,2.122 6.934,2.407c0.003,0 0.007,0 0.011,0.004c0.449,0.113 0.957,0.144 1.465,0.128c0.801,0.051 1.609,0.075 2.426,0.086c4.211,0.059 6.781,-0.375 10.066,-2.925c0.715,-0.551 1.219,-1.098 1.495,-1.535c0.724,0.109 2.076,-0.012 2.997,-0.301c0.454,-0.145 0.778,-0.258 1.02,-0.461c0.191,0.004 0.34,-0.051 0.457,-0.153Zm-0.988,10.786c0.613,-0.793 3.816,-7.106 2.09,-4.286c-2.946,4.813 -6.817,8.825 -10.997,12.543c3.292,-2.449 6.376,-4.972 8.907,-8.257Zm-0.414,-18.719c-0.258,2.004 -0.442,3.988 -0.192,6.012c0.012,0.109 0.024,0.207 0.035,0.304c-0.304,0.727 -0.855,0.942 -2.015,1.391c-0.285,0.113 -0.525,0.215 -0.715,0.308c-0.211,-0.261 -1,-0.085 -2.453,0.879c-0.61,0.407 -1.231,0.774 -1.863,1.106c1.23,-2.008 0.136,-5.488 -0.684,-6.082c1.023,-0.238 2.398,-1.102 2.684,-2.34c0.289,-1.281 0.46,-2.023 -0.11,-1.734c-0.316,0.156 -1.34,0.953 -2.277,1.769c-1.945,1.692 -1.672,2.387 -0.77,2.363c-0.125,0.184 -0.211,0.539 -0.23,1.11c1.543,1.715 -0.43,5.804 -2.133,6.551c-0.641,0.281 -1.289,0.328 -1.746,0.203c-0.516,0.093 -1.039,0.164 -1.559,0.207c-0.089,-0.114 -0.226,-0.223 -0.398,-0.328c-0.149,0.035 -0.309,0.066 -0.481,0.086c-4.226,0.574 -7.402,-5.688 -5.527,-9.247c-0.238,-0.269 -0.559,-0.582 -0.973,-0.933c-0.964,-0.817 -2.015,-1.613 -2.332,-1.77c-0.582,-0.285 -0.386,0.453 -0.054,1.735c0.218,0.851 0.953,1.527 1.726,1.945c-0.023,0.082 -0.047,0.168 -0.062,0.258c-0.238,1.152 -0.215,2.242 -0.004,3.285c-0.094,1.387 0.207,2.883 1.34,3.715c0.07,0.055 0.14,0.105 0.211,0.156c0.082,0.141 0.164,0.285 0.254,0.426c-0.989,-0.301 -1.969,-0.699 -2.934,-1.199c-0.629,-0.325 -1.227,-0.61 -1.703,-0.825c-0.36,-0.089 -0.723,-0.214 -1.063,-0.379l-0.047,0c-0.191,-0.015 -0.628,-0.191 -1.148,-0.464c0,-0.02 0,-0.043 0,-0.067c0.129,0.016 0.262,0.031 0.391,0.043c-0.551,-0.422 -0.973,-0.976 -1.137,-1.664c-0.043,-0.18 -0.078,-0.363 -0.098,-0.551c-0.468,-1.656 -0.406,-3.73 -0.574,-5.222c-0.047,-0.434 -0.102,-0.856 -0.16,-1.258c0.008,-0.035 0.016,-0.07 0.019,-0.106c0.407,0.227 0.872,0.372 1.399,0.426c4.566,0.43 4.418,-5.043 10.16,-6.097c1.211,-0.219 2.098,-1.403 2.516,-2.43c0.281,0.832 0.91,1.828 1.843,2.43c1.852,1.199 4.414,2.101 6.383,3.566c1.808,1.348 0.75,3.969 5.145,2.898c0.496,-0.121 0.941,-0.281 1.336,-0.476Zm-25.633,11.348c-1.184,-0.95 -4.86,-3.879 -2.36,-0.969c3.813,4.441 8.321,5.457 14.106,5.957c2.25,0.195 2.828,0.109 3.699,-0.543c1.031,-0.77 1.031,-0.77 -0.449,-0.824c-1.484,-0.051 -1.484,-0.051 -6.043,-0.399c-3.75,-0.285 -6.078,-0.906 -8.953,-3.222Zm11.633,-12.473c-0.18,-2.863 -0.922,-6.07 -1.317,-1.356c-0.023,0.243 -0.121,2.008 0.012,3.512c-0.793,0.258 -1.797,0.863 -2.188,0.906c-2.082,0.219 1.149,2.18 2.622,0.969c0.148,0.254 0.343,0.375 0.589,0.309c0.379,-0.106 0.465,-1.414 0.282,-4.34Zm13.972,-1.551c-1.183,1.137 -3.082,1.109 -5.703,-1.242c-2.601,-2.34 -2.5,-1.117 -4.722,-2.668c-2.207,-1.543 -2.223,-1.555 -2.664,-2.109c-0.618,-0.778 -1.067,-1.114 -1.356,-1.153c-0.125,-0.355 -0.559,-0.258 -1.359,0.781c-0.426,0.555 -2.598,0.938 -4.766,2.481c-2.184,1.551 -0.832,0.328 -3.375,2.668c-0.609,0.555 -1.164,0.996 -1.676,1.324c-0.035,0.348 -0.289,0.555 -0.914,0.508c-0.058,0.027 -0.117,0.051 -0.176,0.074c-0.019,-0.035 -0.035,-0.07 -0.05,-0.101c-0.008,-0.004 -0.016,-0.004 -0.02,-0.004c-1.711,-0.274 -2.672,-2.426 -2.414,-4.086c-0.098,-0.172 -0.164,-0.321 -0.191,-0.422c-0.149,-0.516 -0.286,-0.961 -0.438,-1.367c0.34,-0.032 0.402,-0.325 -0.023,-0.957c0.445,-1.602 -1.434,-3.969 -1.547,-1.731c-2.321,-2.25 -1.656,-2.75 -3.426,-5.18c-0.113,-0.156 -0.227,-0.304 -0.328,-0.441c0.691,-0.898 1.34,-1.812 1.891,-2.809c0.828,1.192 2.082,2.774 3.937,5.461c0.625,0.598 0.367,1.063 2.262,1.442c3.511,0.699 7.285,0.363 10.074,-0.133c2.086,-0.371 2.519,-0.961 2.559,-1.609c0.293,0.414 0.945,0.793 2.328,1.109c2.746,0.621 6.449,1.133 9.87,0.598c1.848,-0.289 1.583,-0.762 2.177,-1.332c2.359,-3.52 3.695,-5.067 4.386,-6.379c0.102,0.304 0.262,0.644 0.481,0.98c0.238,0.363 0.492,0.77 0.718,1.145c-0.214,0.269 -0.449,0.59 -0.714,0.968c-1.707,2.434 -1.352,2.649 -3.297,5.18c-0.77,1 -0.918,2.039 -0.289,2.082c0.554,2.664 0.148,5.59 -1.235,6.922Zm-7.093,-7.703c-1.559,-1.941 -5.848,-0.328 -2.883,0.398c1.492,0.371 2.054,1.664 2.277,3.067c0.336,2.078 1.969,0.359 1.617,-1.137c-0.351,-1.504 -0.351,-1.504 -1.011,-2.328Zm-12.614,0.512c1.844,-1.164 1.844,-1.164 0.633,-1.399c-2.133,-0.418 -4.226,1.649 -4.793,3.516c-1.301,4.301 3.211,-1.516 4.16,-2.117Zm-10.617,8.652c0.043,0.266 0.09,0.641 0.137,1.086c-0.199,0.863 -0.375,1.891 -0.293,2.887c0.121,1.453 0.207,2.476 0.32,3.211c-0.312,0.082 -0.609,0.195 -0.847,0.281c-0.493,0.172 -0.954,0.41 -1.387,0.695c-0.278,0.11 -0.539,0.231 -0.774,0.356c-1.054,0.562 -2.031,1.586 -2.351,2.461c-0.11,0.293 -0.223,0.539 -0.352,0.746c-0.648,0.078 -1.32,0.293 -1.703,0.441c-1.137,0.43 -1.879,1.223 -2.324,2.285c-0.254,-0.109 -0.508,-0.203 -0.754,-0.277c-0.086,0.082 -0.184,0.156 -0.293,0.215c-0.352,0.203 -0.75,0.308 -1.148,0.34c-0.809,0.125 -1.586,0.293 -2.086,0.457c-1.68,0.562 -3.969,1.132 -5.09,1.277c-1.973,0.246 -7.5,0.836 -8.242,3.152c-3.266,-0.824 -6.621,0.516 -9.575,2.125c0.789,-1.386 1.075,-3.394 1.063,-4.769c0.008,-0.008 0.016,-0.016 0.023,-0.028c1.809,-2.691 3.93,-4.906 6.075,-7.312c0.187,-0.211 0.394,-0.406 0.617,-0.59c0.883,-0.445 1.797,-0.976 2.703,-1.586c1.109,-0.512 2.262,-0.949 3.226,-1.433c2.176,-1.083 4.192,-4.52 4.801,-7.04c0.172,-0.027 0.36,-0.093 0.563,-0.21c2.578,-1.473 4.113,-4.192 5.75,-6.579c0.078,-0.117 0.144,-0.222 0.187,-0.316c0.399,-0.215 0.785,-0.438 1.156,-0.621c2.286,-1.137 3.262,-3.129 4.77,-5.07c0.145,0.336 0.309,0.691 0.48,1.043c0.415,1.226 0.891,2.445 1.11,2.832c0.492,0.867 0.496,0.871 1.805,1.613c0.039,0.039 0.078,0.07 0.117,0.105c0.242,0.2 0.492,0.391 0.738,0.555l0,0.004c0.18,0.199 0.328,0.43 0.449,0.699c0.012,1.996 0.219,4.278 1.02,5.945c0.015,0.348 0.047,0.657 0.082,0.848c0.008,0.051 0.019,0.106 0.027,0.172Zm41.379,-18.125c-0.613,-0.797 -3.598,-4.328 -2.078,-1.238c0.637,1.3 1.426,2.41 2.316,3.394c0.821,0.723 1.621,1.473 2.399,2.242c1.789,1.457 3.761,2.731 5.672,4.219c-0.243,-0.898 -0.586,-1.238 -1.364,-1.82c-2.64,-1.981 -4.933,-4.192 -6.945,-6.797Zm-55.453,3.25c0.539,-0.027 1.336,-0.23 2.027,-0.496c2.332,-0.899 5.926,-4.219 6.91,-6.832c0,-0.047 0,-0.098 -0.004,-0.145c-0.007,-0.238 -0.16,-0.734 -0.332,-1.308c-0.433,0.414 -0.98,1.156 -1.332,1.609c-1.878,2.414 -4.257,4.024 -6.734,5.777c-1.535,1.086 -1.316,1.43 -0.535,1.395Zm23.336,-17.547c-1.707,-0.09 -3.774,-0.387 -4.59,-0.656c-2.004,-0.66 -4.09,-0.238 -6.098,0.164c1.774,0.176 3.489,0.398 5.133,1.16c2.094,0.973 4.367,1.481 6.68,1.391c1.156,-0.047 1.937,0.109 2.492,0.5c0.336,0.234 0.695,0.406 0.965,0.41c0.297,0.281 0.609,0.449 0.871,0.496c-0.699,1.324 1.879,1.289 2.457,0.402c0.148,-0.23 0.309,-0.496 0.473,-0.785c1.476,-0.883 2.293,-1.18 4.531,-1.18c1.969,0 4.354,-0.226 5.725,-0.539c1.298,-0.296 2.591,-0.726 2.876,-0.953c0.477,-0.371 0.465,-0.441 -0.105,-0.765c-1.336,-0.758 -2.887,-0.028 -4.254,0.297c-1.519,0.359 -4.144,0.687 -5.832,0.726c-0.824,0.02 -1.43,0.039 -1.887,0.078c0.301,-0.898 0.469,-1.793 0.344,-2.504c-0.406,-2.297 -2.058,0.821 -2.316,1.481c-0.809,2.047 -0.914,2.316 -1.477,3.023c-0.078,-0.304 -0.265,-0.707 -0.617,-1.211c-1.242,-1.8 -1.242,-1.8 -1.606,-3.222c-0.507,-1.969 -1.597,-1.547 -1.089,0.457c0.191,0.75 0.304,1.199 0.425,1.566c-1.046,-0.297 -2.289,-0.293 -3.101,-0.336Zm9.965,-28.613c-1.2,-0.563 -3.625,-1.152 -5.36,-0.574c-0.422,0.14 -1.758,0.394 -2.429,0.718c-3.653,1.77 -3.188,4.93 -3.969,8.668c-0.942,4.504 2.379,7.254 2.289,7.567c0.23,3.754 2.187,6.062 5.16,5.742c3.262,-0.356 5.988,-2.344 5.906,-5.633c2.301,-3.277 1.661,-6.469 1.629,-8.055c-0.054,-2.957 -0.051,-6.945 -3.226,-8.433Z"/><path d="M334.38,102.402c0.184,-0.035 0.367,-0.07 0.547,-0.109c0.981,0.051 2.559,-0.285 3.949,-0.731c0.625,-0.062 1.36,-0.195 1.965,-0.359c1.274,-0.348 1.633,-0.445 2.153,-0.531c0.707,-0.012 1.66,0.039 2.371,0.129c1.39,0.171 2.312,0.125 5.715,-0.301c1.562,-0.196 2.539,-0.328 3.164,-0.446c0.476,0.028 1.007,0.004 1.539,-0.089c1.875,-0.325 4.445,-0.438 5.711,-0.25c0.843,0.125 1.687,0.199 2.523,0.242c0.395,0.172 0.5,0.148 0.504,0.019c2.535,0.09 5.055,-0.109 7.641,-0.25c1.238,-0.066 2.214,-0.117 2.984,-0.168c1.129,0.25 2.742,0.528 4.516,0.758c3.113,0.414 6.23,0.738 9.351,1.016c0.598,0.219 1.524,0.445 2.828,0.703c3.348,0.652 3.348,0.652 4.981,0.851c1.265,0.157 1.55,0.184 1.699,-0.265c0.75,0.195 2.375,0.273 6.059,0.449c4.843,0.234 6.242,0.266 7.015,0.008c0.399,0.066 0.723,0.129 0.945,0.184c1.309,0.328 2.559,0.496 3.77,0.527c2.766,0.344 5.738,0.387 8.215,-0.793c1.672,0.566 3.707,1.07 4.273,1.285c6.227,2.355 13.114,1.684 19.692,0.863c0.132,0.145 0.402,0.297 1.007,0.641c3.989,2.258 10.813,3.172 15.379,3.109c1.446,-0.015 3.61,0.344 4.805,0.805c1.563,0.602 2.93,0.746 4.836,0.512c1.555,-0.196 3.641,-0.078 5.027,0.281c2.129,0.551 2.348,0.605 2.555,-0.395c0.414,-0.351 0.738,-1.25 0.625,-2.277c-0.23,-2.039 -0.559,-2.562 -2.625,-4.184c-1.301,-1.015 -2.543,-2.332 -2.762,-2.921c-0.238,-0.641 -1.257,-1.371 -2.519,-1.809c-3.727,-1.285 -8.504,-0.758 -12.219,0.625l-1.605,-0.988c-2.332,-1.449 -5.641,-1.75 -8.52,-1.207c-1.16,-0.633 -2.816,-0.985 -3.644,-1.27c-1.45,-0.5 -1.45,-0.5 -3.415,-1.64c-0.078,-0.047 -0.156,-0.094 -0.238,-0.137c-2.562,-1.668 -5.113,-2.867 -8.023,-3.527c-1.313,-0.418 -2.985,-0.793 -4.071,-0.571c-0.804,-0.055 -1.589,-0.066 -2.363,-0.047c-2.215,-0.011 -4.336,0.184 -6.566,0.75c-1.762,0.45 -1.891,0.481 -3.09,0.555c-0.567,-0.203 -1.129,-0.41 -1.692,-0.625c-1.98,-1.461 -4.632,-2.508 -6.847,-2.98c-0.832,-0.176 -1.215,-0.258 -1.719,-0.325c-0.156,-0.039 -0.305,-0.074 -0.445,-0.105c-2.735,-0.613 -3.047,-0.684 -3.699,-0.692c-0.668,-2.363 -6.27,-2.964 -8.258,-3.214c-1.121,-0.137 -3.41,-0.711 -5.09,-1.27c-0.496,-0.168 -1.277,-0.336 -2.086,-0.457c-0.398,-0.035 -0.793,-0.141 -1.148,-0.34c-0.11,-0.062 -0.208,-0.137 -0.293,-0.219c-0.297,0.094 -0.602,0.207 -0.915,0.344c-0.109,0 -0.21,0.004 -0.304,0.012c-0.02,-0.797 -0.512,-1.785 -1.926,-1.918c-1.074,-0.102 -1.582,-0.52 -1.988,-1.633c-0.317,-0.875 -1.293,-1.894 -2.352,-2.461c-0.992,-0.527 -2.484,-0.965 -3.308,-0.965c-0.618,0 -1.02,0.09 -1.247,0.231c-0.074,-0.188 -0.171,-0.403 -0.304,-0.645c-0.184,-0.336 -0.41,-0.636 -0.645,-0.879l0,-0.004c-0.062,-0.175 -0.129,-0.339 -0.203,-0.484c-0.441,-0.883 -0.711,-0.758 -0.875,-0.172c-0.019,0 -0.031,0 -0.047,0.004c-0.25,-0.488 -0.801,-1.156 -1.769,-2.211c-1.285,-1.398 -2.582,-2.765 -3.95,-4.09c-1.707,-1.652 -1.707,-1.652 -2.792,-2.144c-0.18,-0.082 -0.34,-0.145 -0.489,-0.188c-2.433,-6.754 -11.093,-7.84 -17.051,-8.343c-7.339,-0.625 -7.339,-0.625 -10.175,-0.625c-1.082,0 -4.141,0.031 -5.258,1.214c-0.231,-0.148 -0.524,-0.281 -0.809,-0.359c-2.812,-0.801 -8.777,-0.703 -11.117,1.25c-1.035,0.863 -3.293,3.461 -3.137,4.902c0.02,0.204 0.028,0.266 -0.136,0.52c-0.512,-0.274 -0.985,-0.473 -1.121,-0.52c-3.832,-1.273 -7.813,-0.394 -11.434,1.118c-0.145,0.058 -0.355,0.191 -0.602,0.375c-4.152,1.82 -4.238,6.886 -4.593,11.261c-0.102,1.278 -0.176,2.481 -0.121,3.59c-1.875,-0.363 -5.251,0.137 -6.09,0.481c-2.43,0.992 -5.344,2.773 -6.934,4.89c-0.871,1.16 -1.82,1.703 -4.547,2.602c-1.898,0.621 -3.98,1.527 -4.629,2.015c-1.523,1.145 -3.312,0.891 -5.105,0.891c-4.313,0 -5.61,1.438 -8.242,4.641c-0.278,0.336 -0.321,0.593 -0.223,0.785c-2.337,-0.383 -4.734,-0.371 -6.84,0.219c-1.285,0.355 -2.351,1.027 -2.621,1.648c-0.254,0.574 -1.574,1.816 -2.934,2.754c-2.164,1.492 -2.523,1.996 -2.874,4.016c-0.172,1.019 0.097,1.937 0.488,2.312c0.148,1.012 0.367,0.969 2.523,0.547c1.406,-0.274 3.496,-0.266 5.039,0.019c1.887,0.352 3.262,0.29 4.856,-0.214c0.625,-0.2 1.5,-0.36 2.398,-0.45c0.137,0.028 0.309,0.004 0.512,-0.046c0.34,-0.028 0.684,-0.043 1.008,-0.043c0.148,-0.079 0.308,-0.141 0.492,-0.2c0.125,0.145 0.355,0.188 1.254,0.11c0.324,0.136 0.918,0.207 2.023,0.297c1.481,0.125 3.203,0.039 4.66,-0.243c0.329,-0.062 0.61,-0.117 0.852,-0.168c0.613,0.168 1.687,-0.179 2.5,-0.714c1.34,0.691 4.117,0.546 5.004,0.003c0.058,-0.039 0.113,-0.074 0.16,-0.109c0.949,-0.281 2.086,-0.965 2.414,-1.16c0.098,-0.063 0.188,-0.113 0.277,-0.168c5.86,1.027 11.911,1.699 17.582,-0.059c0.75,-0.234 4.024,-0.812 5.735,-1.468c3.351,1.504 6.769,2.207 10.836,1.449c0.91,-0.172 3.426,-0.36 6.09,-0.469c0.086,0.008 0.14,0.016 0.156,0.016c3.41,0.328 4.531,0.312 6.867,-0.078c0.191,-0.036 0.383,-0.071 0.574,-0.106Zm65.262,-1.875c0.203,0.047 0.383,0.082 0.605,0.117c0.196,0.016 0.395,0.035 0.602,0.063c0.773,0.062 2.098,0.121 4.871,0.242c0.496,0.02 1.024,0.055 1.57,0.094c0.012,0 0.02,0.004 0.028,0c2.855,0 3.691,0.07 4.394,0.469c0.145,0.019 0.285,0.042 0.43,0.062c0.379,-0.102 1.188,-0.023 2.969,0.137c1.922,0.175 4.273,0.422 6.422,0.183c0.222,-0.132 0.461,-0.261 0.695,-0.386c0.086,-0.098 0.25,-0.196 0.516,-0.282c0.031,-0.007 0.058,-0.015 0.089,-0.027c0.383,-0.187 0.688,-0.328 0.793,-0.371c2.399,-0.965 4.075,-1.027 6.711,-1.027c0.496,-0.016 1.008,-0.012 1.539,0.007c1.375,0.016 2.114,0.071 2.493,0.196c0.359,0.035 0.722,0.082 1.101,0.129c4.11,0.535 8.067,1.332 8.797,1.773l1.328,0.809c-3.34,-0.137 -6.562,-0.657 -9.82,-1.438c-0.695,-0.164 -1.367,-0.32 -2.028,-0.457c-0.472,0.024 -1.148,0.027 -2.101,0.027c-2.457,0 -3.527,0.161 -4.742,0.711c-0.067,0.032 -0.133,0.063 -0.203,0.09c0.285,0.102 0.593,0.215 0.925,0.344c3.336,1.27 3.336,1.27 6.121,1.793c1.532,0.289 5.313,0.402 8.399,0.258c3.148,-0.153 6.152,-0.117 9.172,0.75c-0.121,0.011 -0.242,0.027 -0.364,0.043c0.676,0.125 1.473,0.285 2.376,0.465c2.812,0.558 7.406,1.128 10.203,1.269c3.945,0.199 5.433,0.484 6.617,1.274c1.164,0.777 2.07,0.957 3.816,0.761c1.258,-0.136 3.301,-0.043 4.539,0.211c0.699,0.149 1.61,-0.043 2.356,-0.101c-0.547,-2.813 -5.524,-9.575 -8.949,-8.696c-2.575,0.657 -6.231,1.508 -8.961,0.856l-0.598,0.035c-2.481,0.156 -4.578,0.098 -4.664,-0.137c-0.113,-0.297 0.609,-0.488 1.703,-0.664c-0.184,-0.062 -0.375,-0.14 -0.578,-0.226c-1.715,-0.77 -1.918,-0.789 -3.914,-0.414c-1.348,0.25 -3.707,0.375 -4.735,-0.915c-0.308,-0.148 -0.656,-0.332 -1.039,-0.546c-0.007,-0.004 -0.015,-0.004 -0.023,-0.004c-0.613,-0.063 -2.859,-1.004 -4.992,-2.094c-3.196,-1.637 -6.25,-3.051 -9.746,-3.848c-1.243,-0.281 -1.899,-0.429 -2.203,-0.59c-0.75,0.133 -1.696,0.286 -2.86,0.454c-1.75,0.25 -3.699,0.472 -5.238,0.605c-0.141,0.047 -0.285,0.102 -0.426,0.152c-0.812,0.301 -1.887,0.442 -2.59,0.407c-0.715,0.207 -2.812,-0.457 -3.234,-0.704c-3.027,-1.753 -5.66,-3.171 -9.211,-3.527c-0.121,-0.012 -0.969,-0.129 -1.703,-0.332c-1.93,2.91 -4,5.551 -5.59,8.774c-0.699,1.414 -1.238,2.461 -1.668,3.226Zm-130.25,0.899c-0.852,0.457 -2.008,1.132 -2.906,1.859c-1.957,0.078 -2.977,0.324 -3.856,0.84c-1.207,0.703 -2.125,0.832 -3.855,0.531c-1.25,-0.215 -3.293,-0.242 -4.543,-0.062c-0.711,0.101 -1.61,-0.141 -2.344,-0.243c0.711,-2.773 6.086,-9.222 9.453,-8.14c1.989,0.636 4.641,1.433 7.028,1.504c0.027,-0.094 0.093,-0.2 0.207,-0.309c0.05,0.004 0.101,0.012 0.16,0.016c1.496,0.121 3.058,-0.344 4.48,-0.758c1.274,-0.375 3.266,-0.805 4.52,-0.098c0.426,0.238 0.812,0.32 1.117,0.289l-0.004,0.008c-0.203,0.547 -0.863,1.149 -1.625,1.672c-0.84,0.328 -1.668,0.762 -2.672,1.062c-0.484,0.141 -0.844,0.348 -1.074,0.563c-1.043,-0.148 -2.738,0.578 -3.195,0.805c-0.207,0.101 -0.52,0.257 -0.891,0.461Zm44.684,-5.864c-2.075,-1.203 5.816,-1.988 6.523,-1.359c0.324,0.293 0.445,0.508 0.543,0.973c0.125,0.597 0.125,0.597 1.293,1.257c1.992,1.129 -1.496,0.942 -2.152,-0.218c-0.563,-1 -0.789,-1.043 -2.953,-0.606c-1.504,0.309 -2.665,0.293 -3.254,-0.047Zm105.515,0.637c2.145,-1.07 -5.683,-2.332 -6.426,-1.746c-0.343,0.269 -0.476,0.476 -0.601,0.933c-0.164,0.59 -0.164,0.59 -1.367,1.18c-2.055,1.008 1.437,1.028 2.164,-0.09c0.621,-0.964 0.847,-0.996 2.98,-0.422c1.485,0.395 2.645,0.45 3.25,0.145Zm17.477,-1.078c-3.922,-0.981 -8.238,-0.817 -12.262,-1.02l5.063,0.766c0.824,0.121 11.347,1.289 7.199,0.254Zm-142.86,-4.004c-0.234,0.035 -0.492,0.062 -0.855,0.102c-0.695,0.07 -2.652,0.722 -4.352,1.449c-1.019,0.433 -2.148,0.859 -3.047,1.156l0.004,0.004c0.461,0.156 0.872,0.164 1.383,0.074c2.414,-0.437 4.719,-1.512 6.867,-2.785Zm14.563,-2.586c-0.258,-0.949 -0.875,0.047 -0.813,0.629c0.047,0.453 0.301,0.805 0.688,1.07c-0.207,0.106 -0.359,0.196 -0.426,0.242c-1.203,0.79 -2.305,1.157 -4.816,1.594c-3.254,0.57 -3.254,0.57 -3.953,0.82c-1.317,0.469 0.007,1.067 0.711,1.188c2.789,0.473 6.464,-0.809 8.851,-2.145c0.652,-0.363 1.223,-0.746 1.629,-1.082l0.008,0.004c1.808,0.203 4.008,-0.136 4.844,-0.554c1.918,-0.961 -0.543,-1.379 -1.52,-1.157c-0.816,0.188 -4.852,0.68 -5.203,-0.609Zm79.121,0.883c0.988,-0.735 -0.945,-0.266 -1.254,-0.129c-0.695,0.301 -2.828,1.484 -5.672,3.152c-3.183,1.86 -4.523,2.817 -4.429,3.153c0.101,0.375 0.394,0.429 1.308,0.246c3.762,-0.762 7.07,-4.211 10.047,-6.422Zm-47.531,-3.356c-0.801,-0.394 -0.801,-0.394 -1.102,-0.5c-0.582,-0.199 -0.16,0.797 -0.019,0.957c0.433,0.504 0.91,0.961 1.375,1.43c0.547,0.547 1.082,1.086 1.578,1.68c0.406,0.488 0.574,0.722 0.797,1.109c1.246,2.184 4.707,3.641 6.996,4.09c0.992,0.195 2.426,0.605 3.187,0.906c0.832,0.332 1.531,0.516 2.391,0.301l-1.242,-0.727c-0.684,-0.398 -1.664,-0.816 -2.18,-0.921c-4.094,-0.868 -7.152,-3.489 -9.793,-6.551c-0.652,-0.762 -1.547,-1.559 -1.988,-1.774Zm18.585,-2.25c-0.62,-0.265 -2.804,-0.703 -4.851,-0.968c-3.183,-0.414 -3.734,-0.418 -3.824,-0.039c-0.067,0.289 0.664,0.742 2.086,1.289c1.617,0.625 3.746,1.109 5.609,0.843c0.34,1.09 2.034,2.243 2.778,2.758c2.128,1.488 0.582,-1.711 -0.028,-2.433c-0.152,-0.188 -0.515,-0.567 -0.927,-0.899c0.15,-0.129 -0.104,-0.234 -0.843,-0.551Zm-23.492,11.657c0.52,2.179 0.696,3.437 0.571,4.382c1.207,-0.484 2.719,-0.785 3.902,-0.691c2.153,-0.668 5.18,-1.418 6.227,-0.148c0.777,0.062 1.582,0.007 2.871,-0.176c1.191,-0.172 3.086,-0.313 4.207,-0.313c0.312,0 0.582,0 0.812,0.008c0.075,-0.019 0.149,-0.039 0.227,-0.058c1.402,-0.336 3.621,-0.704 5.695,-0.704c-0.207,-0.113 -0.423,-0.23 -0.645,-0.355c-2.324,-1.301 -9.691,-4.012 -10.152,-7.277c-0.14,-0.973 0.434,-1.907 0.801,-0.563c0.195,0.719 0.195,0.719 1.414,1.809c1.215,1.086 1.215,1.086 5.543,3.633c0.848,0.496 3.871,1.757 5.84,3.058c0.43,0.113 0.82,0.262 1.156,0.453c0.617,0.356 1.895,0.278 4.176,-0.254c1.754,-0.41 8.359,-1.89 9.543,0.309c0.039,0.074 0.078,0.144 0.105,0.207c1.133,0.055 2.485,0.133 4.04,0.223c4.605,0.265 9.761,0.8 11.457,1.195c0.457,0.101 0.898,0.215 1.324,0.332c1.211,0.191 2.074,0.332 2.683,0.457c0.18,-0.363 0.434,-0.832 0.77,-1.445c1.887,-3.504 3.316,-8.254 6.199,-11.016c0.16,-0.152 0.863,-0.484 1.578,-0.738c0.02,-0.047 0.051,-0.098 0.102,-0.145c-0.074,-0.039 -0.153,-0.082 -0.238,-0.129c-0.688,-0.386 -2.145,-0.918 -3.235,-1.183c-4.125,-1.008 -8.375,-1.852 -12.347,-3.371c-0.215,-0.082 -0.415,-0.161 -0.59,-0.235l-0.618,0.406c-4.574,3.016 -8.859,6.489 -12.91,10.043l-2.086,1.833c0.297,-0.543 0.676,-1.547 1.121,-2.422c-1.91,1.949 -4.007,3.511 -6.988,4.66c-2.504,0.965 0.707,-2.063 1.309,-2.438c1.804,-1.121 3.512,-2.324 5.097,-3.711c0.332,-0.957 0.832,-1.718 1.575,-2.461c1.156,-1.16 1.156,-1.16 2.125,-2.449c0.363,-0.48 1.652,-1.558 1.578,-2.222c-0.121,-1.11 3.398,-6.086 2.367,-2.657c-0.793,2.641 -2.297,4.996 -4.188,6.981c-0.023,0.027 -0.05,0.058 -0.074,0.09c0.821,-0.516 1.395,-0.727 0.59,0.273c-0.473,0.586 -0.934,1.152 -1.387,1.699c0.231,-0.23 0.551,-0.551 0.996,-0.992c1.575,-1.578 1.575,-1.578 2.29,-2.035c1.617,-1.043 4.515,-3.566 7.281,-5.109c-0.016,-0.024 -0.031,-0.043 -0.043,-0.067c-0.387,-0.687 -1.278,-1.242 -2.195,-1.375c-0.852,-0.121 -1.626,-0.512 -1.723,-0.867c-0.547,-2.016 -2.27,-3.402 -4.277,-3.664c-0.645,-0.086 -1.168,-0.305 -1.485,-0.551c-0.086,0.191 -0.301,0.227 -0.566,0.129c0.277,2.93 -0.043,6.75 -0.785,8.391c-1.516,3.371 -6.395,4.941 -9.633,5.476c-4.125,0.68 -9.598,1.699 -13.379,-0.601c-0.578,-0.352 -1.035,-0.704 -1.367,-1.024c-0.739,-0.308 -1.512,-0.816 -1.758,-1.031c-1.254,-1.102 -3.606,-3.254 -5.235,-2.824c-1.574,0.414 -3.558,0.394 -5.472,0.015l-0.004,0c0.047,0.09 0.07,0.215 0.094,0.395c0.09,0.613 0.09,0.613 -2.223,0.723c-1.387,0.07 -2.914,-0.055 -4.281,0.214c-0.36,0.075 -1.496,0.157 -1.801,-0.054c-1.277,1.086 -2.734,1.996 -3.969,2.738c-1.418,0.848 -2.914,1.578 -4.449,2.227c-0.012,0 -0.02,0.003 -0.027,0.011c-0.293,0.141 -0.59,0.282 -0.887,0.418c-0.844,0.383 -1.457,0.664 -1.906,0.856c-0.993,1.179 -3.141,2.562 -4.102,2.09c-1.121,0.371 -2.883,0.39 -3.945,0.113c-1.125,0.976 -2.613,1.672 -4,2.179c-0.774,0.282 -2.078,0.833 -3.192,0.938c-0.254,0.148 -0.613,0.309 -0.957,0.418c-2.336,0.754 -4.742,1.293 -7.171,1.621c-0.418,0.059 -0.993,0.074 -1.465,0.027c-0.254,0.039 -0.504,0.075 -0.746,0.09c-0.266,0.203 -0.758,0.446 -1.61,0.817c-0.637,0.429 -1.965,1.078 -3.039,1.48c-0.105,0.039 -0.207,0.074 -0.301,0.109c-0.164,0.079 -0.328,0.149 -0.496,0.219c0.543,0.043 1.09,0.098 1.641,0.16c3.07,0.332 6.848,0.446 8.394,0.25c2.813,-0.355 2.813,-0.355 6.219,-1.425c0.641,-0.2 1.184,-0.36 1.656,-0.481c-1.546,-0.734 -3.546,-1.887 -2.558,-2.566c0.285,-0.199 1.484,0.179 3.66,1.156c1.867,0.836 3.91,1.512 4.816,1.598c1.582,0.14 1.582,0.14 4.735,0.757c0.269,0.055 0.769,0.161 1.293,0.301c1.019,-0.14 2.34,-0.261 3.73,-0.343c0.071,-0.102 0.215,-0.211 0.445,-0.325c0.34,-0.172 2.051,-0.211 3.915,-0.097c2.332,0.144 4.121,0.058 6.035,-0.282c0.258,-0.046 0.718,-0.172 1.25,-0.293c0.633,-2.855 -0.828,-7.125 -2.149,-9.515c-0.207,-0.367 -0.379,-0.699 -0.519,-1.02c-0.676,-0.726 -1.321,-1.488 -1.672,-2.394c-0.641,-1.649 1.348,-0.125 1.762,0.211c0.418,0.339 1.3,1.945 1.484,2.82c0.949,1.543 1.687,3.164 2.144,5.098Zm3.25,-11.457c-1.562,-0.414 -3.015,-1.071 -4.082,-1.918c-0.015,-0.012 -0.031,-0.028 -0.05,-0.039c-0.2,0.148 -0.391,0.281 -0.575,0.382c-0.417,0.836 -1.023,1.602 -1.73,2.305c0.422,-0.133 0.996,-0.234 1.789,-0.312c1.508,-0.157 3.008,-0.418 4.524,-0.418l0.124,0Zm-11.242,-1.743c-0.008,-0.035 -0.015,-0.07 -0.023,-0.105c-0.625,-2.535 -5.094,0.547 -6.027,1.309c-0.821,0.671 -4.442,3.804 -3.172,4.488c1.09,0.586 2.324,-1.465 2.882,-2.344c0.086,-0.137 0.188,-0.269 0.309,-0.394c1.324,-0.965 2.941,-1.622 4.414,-2.063c0.043,-0.012 0.086,-0.023 0.125,-0.035c0.078,0.094 0.184,0.183 0.301,0.258c-0.055,0.09 -0.094,0.191 -0.117,0.308c-0.184,1 1.511,0.66 2.09,0.543c1.25,-0.261 3.062,-1.515 2.789,-3.004c-0.266,-1.449 -1.762,0.629 -2.094,1.047c-0.137,0.176 -0.547,0.356 -0.91,0.395c-0.149,0.015 -0.313,0.035 -0.481,0.062c-0.031,-0.035 -0.062,-0.066 -0.097,-0.097c0.043,-0.094 0.039,-0.211 0.011,-0.368Zm-26.179,-2.39c-4.586,-0.563 -9.11,1.84 -12.059,5.187c-1.27,1.438 -2.25,2.032 -4.637,2.809c-3.769,1.223 -5.769,3.144 -9.906,3.144c-4.066,0 -4.066,0 -5.215,1.539c-1.152,1.536 -1.152,1.536 -2.047,2.208c-0.148,0.113 -0.343,0.195 -0.554,0.246c1.011,0.242 1.996,0.546 2.922,0.91c0.007,-0.004 0.011,-0.004 0.015,-0.008c1.778,-0.586 3.922,-1.266 5.969,-1.297c-0.5,-1.148 2.297,-3.019 3.812,-3.223c2.286,-0.308 2.473,-0.257 4.403,1.215c0.039,0.035 0.082,0.067 0.125,0.098c0.687,-0.274 1.695,-0.711 2.636,-1.149c2.938,-1.371 6.805,-2.753 10.102,-2.753c0.305,0 0.574,0.027 0.801,0.082c2.808,-1.899 5.476,-3.305 8.344,-3.938c-0.161,-0.051 -0.313,-0.105 -0.461,-0.164c-2.723,-1.129 -3.852,-2.809 -4.25,-4.906Zm58.234,-2.172c-0.668,-0.551 -1.191,-1.211 -1.281,-2.117c-0.039,-0.383 -0.035,-0.649 0,-0.821c-0.942,0.719 -1.86,1.368 -2.778,1.942c0.075,0.074 0.145,0.152 0.215,0.23c0.227,0.266 0.461,0.715 0.621,1.215c0.102,0.035 0.235,0.078 0.426,0.141c1.219,0.386 2.383,0.383 3.66,0.308c0.116,-0.007 0.245,-0.019 0.379,-0.031c-0.427,-0.269 -0.86,-0.551 -1.242,-0.867Zm4.543,-2.223c-0.633,-1.328 -1.895,-3.761 -1.602,-0.871c0.086,0.875 0.375,1.887 0.645,2.238c0.48,0.645 0.48,0.645 0.977,1.989c0.429,1.148 2.195,2.582 1.519,0.367c-0.223,-0.727 -0.914,-2.402 -1.539,-3.723Zm-25.445,-2.672c-1.348,-0.765 -3.719,0.536 -4.942,0.946c-2.199,0.734 -2.199,0.734 -3.242,1.015c-0.891,0.239 -1.031,0.348 -0.984,0.746c0.058,0.461 0.066,0.461 1.976,0.239c1.973,-0.235 3.793,-0.914 5.649,-1.586c0.336,-0.121 2.3,-0.926 1.543,-1.36Zm14.371,-4.933c-1.289,-0.66 -1.289,-0.66 -2.274,-0.821c-1.871,-0.304 -0.129,1.133 0.719,1.368c0.82,0.222 1.859,0.703 2.313,1.062c0.82,0.66 0.82,0.66 0.832,-0.14c0.019,-1.09 -0.594,-0.958 -1.59,-1.469Zm-7.293,-2.024c-0.473,-0.879 -0.926,0.457 -1.024,0.832c-0.492,1.844 -1.754,3.414 -2.91,4.883c-0.637,0.813 -1.129,1.574 -1.094,1.703c0.196,0.719 1.786,-0.941 1.891,-1.05c1.148,-1.176 1.953,-2.485 2.742,-3.918c0.383,-0.704 0.809,-1.676 0.395,-2.45Zm-17.336,19.922c1.808,-1.308 3.402,-2.91 4.656,-4.937c0.098,-0.227 0.199,-0.41 0.274,-0.508c0.066,-0.086 0.125,-0.164 0.183,-0.238c0.875,-1.375 1.852,-2.45 2.512,-2.758c0.035,-0.02 0.074,-0.035 0.109,-0.055c0.274,-0.269 0.602,-0.562 0.922,-0.785c0.742,-0.773 2.43,-1.684 3.723,-2.168c1.863,-1.254 3.855,-2.375 6.183,-2.375c0.914,0 1.469,0.227 1.539,0.637c0.079,0.449 -0.746,0.84 -2.945,1.386c-0.242,0.145 -0.531,0.278 -1.105,0.54c-0.641,0.292 -1.582,0.792 -2.094,1.113c-0.793,0.496 -1.598,1.047 -2.422,1.551c0.637,0.082 1.441,0.152 2.27,0.187c1.898,0.082 3.765,0.324 5.625,0.637c3.417,-0.719 6.671,-2.067 9.066,-3.996c2.461,-1.985 3.477,-2.957 6.711,-2.594c1.93,0.215 2.961,0.531 3.074,0.941c0.168,0.614 -0.195,0.535 -2.348,0.059c-1.789,-0.398 -2.671,-0.426 -3.055,-0.098c-0.929,0.797 -1.817,1.532 -2.679,2.207l0.004,0c0.504,0.207 1.402,1.715 1.723,2.266l1.019,1.73c0.981,-0.093 2.11,-0.125 2.68,0.668c0.644,0.903 1.504,1.911 2.418,2.536c0.144,0.093 0.144,0.093 2.18,1.648c0.503,0.383 2.82,1.68 1.39,1.445c-1.941,-0.312 -3.992,-1.386 -5.18,-2.992c-0.839,-1.129 -1.449,-2.641 -3.019,-2.266c-1.575,0.372 -3.774,0.243 -5.281,-0.476c0.07,0.805 -0.16,1.527 -1.008,1.637c-0.75,0.089 -0.824,-0.012 -0.895,-1.203c-0.05,-0.868 -0.289,-1.446 -0.711,-1.739c-0.043,-0.027 -0.078,-0.058 -0.113,-0.094c-0.543,0.282 -1.09,0.54 -1.644,0.774c0.578,0.867 1.113,2 0.546,3.008c-0.691,1.218 -3.406,1.144 -2.211,-0.571c0.606,-0.855 0.61,-0.964 0.122,-1.671c-0.039,-0.055 -0.075,-0.11 -0.106,-0.165c-2.562,0.821 -5.414,1.168 -8.988,1.063c-2.805,-0.086 -4.082,-0.129 -4.672,-0.32c-0.313,0.375 -0.66,0.765 -1.016,1.136c0.11,0.051 0.231,0.11 0.364,0.168c2.3,1.082 4.574,1.321 7.113,1.489c2.871,0.191 3.793,0.328 4.226,0.613c1.079,0.707 2.165,1.418 3.184,2.207c0.555,0.434 0.762,0.566 0.914,0.602c0.645,0.152 1.524,0.515 1.887,1.132c0.258,0.114 0.539,0.246 0.844,0.41c4.273,2.278 11.074,1.797 15.543,-0.027c4.644,-1.894 5.652,-5.656 5.621,-10.223c-0.004,-0.277 -0.059,-1.964 0.039,-3.324c-0.242,0.324 -0.446,0.27 -0.914,-0.117l-0.7,-0.57c-2.058,-2.219 -4.261,-5.449 -7.015,-6.781c-0.762,-0.372 -1.274,-1.032 -1.422,-1.594c-0.359,-0.328 -0.711,-0.731 -0.957,-1.094c-2.629,-3.859 -6.203,-5.613 -10.797,-5.938c-6.137,-0.433 -12.02,-2.296 -18.164,-0.582c-0.324,0.086 -0.594,0.165 -0.813,0.219c-0.035,0.071 -0.082,0.129 -0.136,0.184l0.035,0.066c-0.031,-0.008 -0.066,-0.015 -0.098,-0.019c-0.476,0.336 -1.5,0.23 -2.008,0.125c-3.769,-0.801 -8.152,-0.918 -10.324,2.699c-0.234,0.394 -0.562,1.062 -0.949,1.742c0.129,-0.047 0.266,-0.094 0.41,-0.144c0.172,-0.059 4.742,-2.047 4.524,-0.434c-0.047,0.348 -0.688,0.824 -1.426,1.062c-1.961,0.633 -4.617,2.418 -6.711,2.04c-0.117,-0.024 -0.231,-0.059 -0.34,-0.102c-0.445,-0.012 -1.125,-0.148 -2.262,-0.406c-1.152,-0.262 -2.687,-0.438 -4.265,-0.399c-1.86,0.383 -3.891,0.797 -5.364,1.864c-0.519,0.375 -0.988,1.25 -1.597,1.332c-0.504,1.211 -0.926,3.777 -1.18,7.23c-0.141,1.899 -0.297,3.481 -0.019,4.816c0.316,1.516 1.191,2.715 3.285,3.715c0.707,0.34 4.07,1.16 4.621,1.77l0.004,0.004c0.207,0.015 0.418,0.043 0.633,0.07c0.675,-2.445 2.429,-4.336 4.402,-5.812c1.555,-1.168 4.348,-3.352 6.746,-4.325c0.535,-0.554 1.574,-0.949 2.426,-0.914c0.125,-1.941 1.093,-3.765 2.426,-5.293c-0.325,-0.09 -0.836,-0.398 -1.59,-1.015c-1.114,-0.914 -1.711,-1.586 -3.141,-1.243c-0.707,0.172 -1.031,0.043 -1.098,-0.437c-0.004,-0.031 -0.007,-0.066 -0.007,-0.098c-0.024,0 -0.047,0.004 -0.075,0.004c0.028,-0.019 0.051,-0.039 0.078,-0.054c0.028,-0.344 0.368,-0.508 0.825,-0.571c0.867,-0.59 1.75,-1.156 2.691,-1.633c0.234,-0.117 0.774,-0.32 1.363,-0.449c0.243,-0.094 0.489,-0.172 0.719,-0.215c0.442,-1.211 1.922,-2.589 2.66,-3.113c0.828,-0.59 3.645,-2.351 4.453,-0.84c0.239,0.442 -0.043,0.676 -1.601,1.34c-1.313,0.563 -2.258,1.258 -3.082,2.266c-0.102,0.125 -0.528,0.605 -1,1.023c-0.008,0.024 -0.016,0.051 -0.024,0.074c0.036,0.172 -0.004,0.332 -0.101,0.414l0,0.004c-0.133,0.723 -0.875,1.157 -0.938,0.282c-0.168,0.058 -0.386,0.132 -0.664,0.238c-0.672,0.348 -1.441,0.656 -1.945,0.848c0.031,0.003 0.062,0.011 0.09,0.019c1.332,0.336 2.582,1.902 2.793,2.707c0.328,-0.34 0.668,-0.664 1.023,-0.969c1.539,-2.082 4.309,-3.382 7.028,-3.636c0.289,-0.368 0.679,-0.715 1.14,-1.036c0.469,-0.425 1.051,-0.71 1.668,-0.914c2.238,-0.964 5.031,-1.296 6.5,-0.351c0.481,0.308 0.688,1.629 -0.16,1.461c-2.477,-0.496 -4.629,-0.438 -6.855,0.883c0.367,0.05 0.73,0.129 1.082,0.226c0.925,0.262 0.925,0.262 1.933,0.969c1.746,1.223 -0.586,1.41 -1.644,1.094c-0.227,-0.071 -0.454,-0.129 -0.68,-0.18c-0.074,-0.016 -0.149,-0.027 -0.215,-0.043c-1.68,-0.32 -3.398,-0.148 -4.98,0.426c-0.395,0.297 -0.856,0.605 -1.336,0.894c-2.528,1.512 -4.5,3.895 -5.348,6.735c-0.109,0.359 -0.359,0.941 -0.645,1.425c-0.078,0.786 -1.277,1.27 -2.363,1.329c-0.164,0.105 -0.336,0.214 -0.512,0.324c-4.347,2.629 -8.007,3.402 -10.136,8.515c0.297,0.071 0.594,0.149 0.898,0.235c0.778,0.222 1.352,0.672 1.352,1.066c0,0.153 -0.032,0.27 -0.141,0.352c-0.16,-0.028 -0.332,-0.051 -0.527,-0.078c-0.711,-0.102 -1.496,-0.196 -2.317,-0.25c0.004,0 0.004,0 0,0c-0.168,-0.012 -0.339,-0.024 -0.515,-0.032c-0.008,0 -0.016,0 -0.028,0c-0.05,-0.004 -0.105,-0.004 -0.156,-0.007c-0.055,0 -0.109,-0.004 -0.16,-0.004c-0.008,0 -0.02,0 -0.027,0c-0.172,-0.008 -0.348,-0.012 -0.524,-0.012l0,-0.004c-0.972,-0.008 -1.953,0.059 -2.887,0.234c-3.164,0.192 -5.437,1.375 -8.464,3.551c-3.766,2.703 -12.391,7.555 -16.871,4.203c-1.094,-0.816 -6.61,-2.058 -3.875,-0.242c3.324,2.211 0.972,4.613 -1.84,6.25c-1.004,0.328 -1.992,0.695 -2.961,1.125c-0.016,0.125 -0.063,0.235 -0.133,0.285c-0.227,0.168 -0.227,0.168 -1.988,0.571c-0.231,0.05 -0.434,0.097 -0.614,0.144c-0.558,0.395 -1.125,0.817 -1.711,1.199c0.223,-0.039 0.469,-0.078 0.731,-0.113c1.305,-0.191 2.762,-0.566 4.141,-0.531c0.554,-0.063 1.101,-0.074 1.554,0.043c0.715,-0.301 1.43,-0.61 2.145,-0.891c0.336,0.051 0.785,0.09 1.398,0.121c0.629,-0.008 0.922,-0.004 1.297,0.055c0.215,0.008 0.414,0.016 0.594,0.019c0.844,-0.164 1.555,-0.382 1.957,-0.613c0.465,-0.261 1.777,-0.758 2.918,-1.097c2.047,-0.614 2.074,-0.622 4.558,-1.508c0.176,-0.114 0.348,-0.227 0.516,-0.34c0.191,-0.129 0.481,-0.32 0.742,-0.551c0.266,0.047 0.543,0.067 0.778,0.043c0.718,-0.062 1.441,-0.141 2.167,-0.234c0.645,-0.278 1.762,-0.59 2.497,-0.7c1.347,-0.195 1.347,-0.195 2.711,-0.613c1.496,-0.461 2.867,-1.058 4.441,-1.226c0.035,-0.004 0.07,-0.008 0.102,-0.016c0.086,-0.019 0.156,-0.031 0.207,-0.039c1.199,-0.191 1.847,-0.531 2.925,-1.117c0.993,-0.543 1.266,-0.692 1.411,-0.727c0.25,-0.164 0.503,-0.336 0.757,-0.508c0.395,-0.277 1.625,-1.367 2.188,-1.05c0.976,-0.262 2.246,-0.293 3.168,-0.094c0.133,-0.047 0.269,-0.094 0.406,-0.149c0.941,-1.082 2.703,-2.085 3.691,-1.914c2.981,-1.097 5.872,-2.355 8.36,-4.16Zm22.344,-24.824c-0.68,-3.102 -1.61,-0.168 -1.442,1.414c0.129,1.227 -0.027,2.223 -0.644,4.059c-0.45,1.34 -0.817,2.652 -0.817,2.918c0,1.019 1.864,-1.938 2.016,-2.215c0.976,-1.832 1.332,-4.145 0.887,-6.176Z"/></svg>