<?xml version="1.0" encoding="UTF-8" standalone="no"?><!DOCTYPE svg PUBLIC "-//W3C//DTD SVG 1.1//EN" "http://www.w3.org/Graphics/SVG/1.1/DTD/svg11.dtd"><svg width="100%" height="100%" viewBox="0 0 494 156" version="1.1" xmlns="http://www.w3.org/2000/svg" xmlns:xlink="http://www.w3.org/1999/xlink" xml:space="preserve" xmlns:serif="http://www.serif.com/" style="fill-rule:evenodd;clip-rule:evenodd;stroke-linejoin:round;stroke-miterlimit:1.41421;"><path d="M162.355,84.664c0.325,0.024 0.594,0.032 0.743,0.032c0.84,0 1.996,0.089 3.222,0.308c0.801,0.305 1.559,0.688 3.203,1.52c1.989,1.004 2.684,1.359 3.118,1.554c0.031,0.051 0.062,0.106 0.089,0.157c0.145,0.269 0.301,0.453 0.454,0.57c-0.231,0.516 -0.465,1.078 -0.512,1.594c-0.02,0.226 -0.031,0.414 -0.031,0.574c-1.813,-0.406 -4.082,-0.594 -4.465,-0.293c-0.344,0.27 -0.477,0.48 -0.602,0.938c-0.16,0.589 -0.16,0.589 -1.363,1.179c-2.059,1.008 1.434,1.028 2.16,-0.09c0.621,-0.965 0.848,-0.996 2.981,-0.425c0.781,0.21 1.472,0.324 2.039,0.339c1.066,0.809 3.152,1.204 6.078,-1.406c1.297,-1.16 0.203,-1.355 2.043,-0.922c8.734,2.059 11.808,2.102 14.621,0.551c0.121,-0.07 0.219,-0.141 0.297,-0.215c0.933,0.367 1.98,0.711 2.675,0.934c1.125,0.433 2.235,0.894 2.895,1.332c2.633,1.758 4.227,2.515 4.883,2.316c0.441,-0.136 0.644,-0.258 0.679,-0.367c0.45,0.102 0.793,0.074 1.036,-0.039c1.234,0.145 2.461,0.277 3.027,0.363c1.723,0.25 1.727,0.254 3.242,1.098c-1.347,0.199 -2.293,0.398 -2.168,0.734c0.086,0.235 2.184,0.297 4.668,0.141l0.598,-0.039c2.723,0.656 6.383,-0.195 8.961,-0.852c3.422,-0.879 8.402,5.883 8.945,8.696c-0.742,0.058 -1.656,0.246 -2.355,0.101c-1.235,-0.254 -3.278,-0.347 -4.539,-0.211c-1.747,0.196 -2.653,0.012 -3.817,-0.761c-1.183,-0.79 -2.672,-1.079 -6.617,-1.274c-2.797,-0.141 -7.387,-0.711 -10.203,-1.273c-0.906,-0.18 -1.699,-0.336 -2.375,-0.461c0.121,-0.016 0.242,-0.032 0.367,-0.047c-3.027,-0.863 -6.027,-0.899 -9.176,-0.75c-3.086,0.148 -6.863,0.035 -8.398,-0.254c-2.785,-0.524 -2.785,-0.524 -6.117,-1.793c-0.336,-0.129 -0.641,-0.242 -0.926,-0.344c0.066,-0.027 0.133,-0.058 0.199,-0.09c1.215,-0.55 2.289,-0.714 4.746,-0.714c0.945,0 1.625,0 2.098,-0.024c0.66,0.137 1.332,0.293 2.027,0.457c3.258,0.777 6.481,1.297 9.82,1.438l-1.324,-0.809c-0.734,-0.441 -4.691,-1.242 -8.801,-1.773c-0.378,-0.051 -0.742,-0.094 -1.097,-0.133c-0.379,-0.125 -1.117,-0.176 -2.496,-0.192c-0.532,-0.023 -1.043,-0.023 -1.539,-0.007c-2.637,0 -4.313,0.062 -6.711,1.027c-0.102,0.043 -0.407,0.18 -0.785,0.367c-0.032,0.012 -0.063,0.02 -0.098,0.031c-0.266,0.086 -0.43,0.184 -0.516,0.285c-0.347,0.184 -0.707,0.383 -1.008,0.579c-2.39,0.785 -2.804,0.777 -6.375,-0.039c-2.105,-0.481 -6.214,-0.977 -9.125,-1.102c-4.816,-0.211 -5.253,-0.23 -6.074,-0.422c0.43,-0.769 0.965,-1.816 1.664,-3.226c1.614,-3.266 3.719,-5.934 5.668,-8.895c0.129,0.012 0.25,0.02 0.367,0.027Zm-81.582,8.496c0.114,0.211 0.223,0.43 0.332,0.649c0.661,1.332 1.172,2.344 1.594,3.098c-1.265,0.003 -2.855,0.332 -3.41,0.332c-0.652,0 -3,0.269 -5.652,0.648c-2.129,0.211 -4.282,0.52 -5.649,0.828c-2.402,0.324 -2.817,0.262 -3.57,-0.019c-1.281,-0.489 -2.559,-0.653 -3.918,-0.731c-0.125,-0.012 -0.238,-0.008 -0.34,0c-0.051,-0.019 -0.101,-0.039 -0.16,-0.055c-0.027,-0.011 -0.059,-0.019 -0.09,-0.031c-0.383,-0.187 -0.687,-0.328 -0.789,-0.367c-2.402,-0.969 -4.074,-1.027 -6.711,-1.031c-0.5,-0.016 -1.012,-0.012 -1.543,0.008c-1.375,0.015 -2.113,0.07 -2.492,0.195c-0.355,0.035 -0.723,0.082 -1.102,0.129c-4.105,0.535 -8.066,1.332 -8.796,1.777l-1.325,0.805c3.34,-0.137 6.559,-0.656 9.821,-1.434c0.691,-0.168 1.363,-0.324 2.023,-0.461c0.477,0.028 1.152,0.028 2.102,0.028c2.457,0 3.527,0.16 4.742,0.714c0.07,0.028 0.137,0.059 0.203,0.086c-0.285,0.102 -0.59,0.215 -0.926,0.344c-3.332,1.274 -3.332,1.274 -6.121,1.797c-1.531,0.285 -5.308,0.402 -8.394,0.254c-3.149,-0.152 -6.153,-0.113 -9.176,0.75c0.121,0.012 0.242,0.027 0.363,0.043c-0.672,0.125 -1.469,0.285 -2.371,0.465c-2.816,0.558 -7.406,1.133 -10.207,1.269c-3.941,0.2 -5.434,0.485 -6.613,1.274c-1.164,0.777 -2.075,0.957 -3.817,0.765c-1.261,-0.14 -3.304,-0.047 -4.539,0.211c-0.703,0.145 -1.613,-0.043 -2.355,-0.105c0.543,-2.813 5.523,-9.57 8.945,-8.695c2.578,0.66 6.234,1.507 8.961,0.855l0.598,0.035c2.48,0.16 4.582,0.098 4.668,-0.137c0.121,-0.335 -0.825,-0.539 -2.168,-0.734c1.511,-0.848 1.519,-0.848 3.242,-1.101c0.734,-0.106 2.597,-0.301 4.129,-0.5c-0.18,0.164 -0.071,0.335 0.613,0.542c0.652,0.2 3.84,-0.933 6.477,-2.695c0.238,-0.16 0.55,-0.34 0.906,-0.531c1.242,-0.395 2.562,-0.758 3.672,-0.992c0.699,-0.145 1.285,-0.27 1.769,-0.379c2.582,0.902 5.906,0.605 13.278,-1.141c1.832,-0.433 0.738,-0.238 2.066,0.922c1.629,1.422 2.992,1.949 4.059,2.008c0.015,0.012 0.035,0.019 0.05,0.027c0.61,0.305 1.766,0.254 3.25,-0.144c2.137,-0.575 2.364,-0.539 2.985,0.422c0.722,1.121 4.218,1.097 2.16,0.089c-1.203,-0.589 -1.203,-0.589 -1.363,-1.175c-0.125,-0.461 -0.262,-0.668 -0.602,-0.938c-0.332,-0.262 -2.051,-0.156 -3.68,0.133c0.024,-0.078 0.036,-0.148 0.036,-0.207c0.007,-0.059 0.007,-0.117 0.011,-0.172c0.012,-0.164 -0.031,-0.289 -0.09,-0.41c-0.007,-0.129 -0.019,-0.277 -0.039,-0.445c-0.054,-0.454 -0.246,-0.934 -0.457,-1.391c0.153,-0.164 0.449,-0.406 1.184,-0.824l0.008,-0.004c0.14,-0.063 0.285,-0.133 0.425,-0.211c0.2,-0.113 0.399,-0.231 0.602,-0.34c0.066,-0.035 0.137,-0.07 0.207,-0.105c1.891,-0.957 2.668,-1.348 3.606,-1.692c0.011,-0.004 0.023,-0.008 0.039,-0.012c1.308,-0.445 2.664,-0.687 4.015,-0.519c1.817,2.754 3.762,5.254 5.324,8.226Zm69.415,-52.722c2.085,1.144 5.554,4.316 5.363,7.109c0.215,0.43 0.422,0.856 0.613,1.262c0.184,0.293 0.441,0.598 0.742,0.914c1.903,0.59 4.34,2.086 4.86,2.898c0.414,0.641 1.148,2.094 1.636,3.227c0.086,0.203 0.157,0.387 0.215,0.559c1.563,1.132 3.442,2.765 5.438,5.882c0.777,1.215 1.816,3.153 2.691,4.864c0.102,0.043 0.215,0.101 0.34,0.168c0.535,0.304 0.535,0.304 0.684,0.605c0.093,0.184 0.484,0.719 1.039,1.422c1.918,2.434 4.996,5.105 5.117,8.453c0,0.051 0.004,0.102 0.004,0.152c1.105,0.528 2.066,1.215 2.3,1.95c0.125,0.386 0.332,0.73 0.602,1.039c0.043,-0.012 0.082,-0.016 0.125,-0.016c0.414,0 0.414,0 2.152,0.801c1.739,0.801 1.739,0.801 3.618,1.308c0.14,0.036 0.386,0.125 0.66,0.25c0.14,-0.136 0.34,-0.222 0.613,-0.222c0.242,0 0.242,0 0.953,0.547c0.262,0.207 0.594,0.55 0.949,0.547c1.102,1.234 2.184,2.414 3.477,3.453c0.055,0.043 0.262,0.191 0.523,0.39c0.696,0.309 1.516,0.676 2.328,1.055c0.36,0.07 0.879,0.187 1.719,0.383c2.797,0.637 5.528,1.492 8.141,2.68c0.797,0.363 1.336,0.828 1.629,1.273c2.554,-0.258 5.281,0.137 7.289,1.379l1.601,0.992c3.715,-1.383 8.493,-1.91 12.219,-0.625c1.262,0.438 2.285,1.168 2.52,1.805c0.214,0.59 1.461,1.91 2.761,2.926c2.067,1.621 2.395,2.144 2.625,4.183c0.114,1.024 -0.211,1.926 -0.629,2.277c-0.203,1 -0.421,0.946 -2.55,0.395c-1.387,-0.359 -3.473,-0.477 -5.028,-0.285c-1.906,0.238 -3.273,0.094 -4.836,-0.508c-1.195,-0.461 -3.355,-0.824 -4.804,-0.805c-4.563,0.059 -11.387,-0.855 -15.379,-3.109c-0.602,-0.344 -0.875,-0.496 -1.008,-0.641c-6.574,0.817 -13.461,1.489 -19.695,-0.863c-0.672,-0.254 -3.453,-0.93 -5.192,-1.625c-0.425,0.086 -0.847,0.156 -1.273,0.203c-2.52,0.82 -5.082,1.168 -7.891,0.774c-0.648,0.019 -1.816,-0.059 -6.25,-0.352c-6.015,-0.402 -6.015,-0.402 -7.594,-0.656c-0.179,-0.031 -0.449,-0.063 -0.753,-0.106c0.171,0.676 -0.618,1.082 -2.106,0.528c-2.73,-1.012 -5.781,-1.254 -8.664,-1.371c-3.535,-0.149 -7.969,-0.231 -11.297,-1.594c-0.031,-0.012 -0.066,-0.031 -0.101,-0.055c-0.973,-0.156 -1.841,-0.32 -2.524,-0.469c-0.774,0.051 -1.75,0.102 -2.984,0.168c-2.59,0.141 -5.11,0.34 -7.645,0.25c-0.004,0.129 -0.109,0.153 -0.504,-0.019c-0.839,-0.043 -1.675,-0.121 -2.523,-0.242c-0.816,-0.121 -2.172,-0.118 -3.531,-0.012c-2.289,0.656 -4.282,1.402 -6.864,1.582c-3.55,0.25 -7.363,-0.047 -11.047,0.168c-0.75,0.07 -1.5,0.141 -2.253,0.207c-1.364,0.172 -2.7,0.453 -3.981,0.894c-0.836,0.286 -5.355,2.129 -5.101,0.364c0.023,-0.172 0.058,-0.321 0.117,-0.457c-0.473,0.312 -1.149,0.418 -2.645,0.418c-1.156,0 -3.844,0.304 -5.976,0.679c-3.446,0.606 -7.774,1.625 -11.305,0.555c-1.191,-0.152 -2.356,-0.43 -3.508,-0.805c-0.426,-0.047 -0.848,-0.117 -1.262,-0.203c-1.742,0.696 -4.523,1.371 -5.199,1.625c-6.23,2.356 -13.117,1.684 -19.691,0.864c-0.137,0.144 -0.406,0.296 -1.012,0.64c-3.988,2.258 -10.812,3.172 -15.379,3.11c-1.445,-0.016 -3.605,0.343 -4.805,0.808c-1.562,0.598 -2.925,0.742 -4.832,0.508c-1.558,-0.195 -3.64,-0.074 -5.031,0.281c-2.125,0.551 -2.344,0.606 -2.551,-0.39c-0.414,-0.356 -0.738,-1.254 -0.625,-2.282c0.227,-2.035 0.558,-2.562 2.625,-4.179c1.301,-1.02 2.543,-2.336 2.762,-2.926c0.235,-0.641 1.258,-1.371 2.52,-1.809c3.726,-1.285 8.504,-0.758 12.218,0.625l1.602,-0.992c2.352,-1.457 5.703,-1.75 8.602,-1.187c1.05,-0.461 2.066,-1 3.086,-1.551c1.605,-0.879 4.519,-2.024 6.468,-2.543c0.469,-0.129 1.227,-0.418 2.055,-0.653c0.012,-0.023 0.027,-0.05 0.043,-0.07c-0.141,-1.48 2.375,-2.828 3.457,-3.367c1.23,-0.617 2.434,-1.207 3.582,-1.969c0.676,-0.449 2.062,-1.094 3.078,-1.429c1.25,-0.418 2.371,-0.778 3.461,-1.512c0.227,-0.156 0.543,-0.297 0.844,-0.375c0.258,-0.305 0.453,-0.649 0.57,-1.031c0.254,-0.868 1.527,-1.672 2.856,-2.219c0.14,-1.403 1.648,-3.414 2.261,-4.121c0.422,-0.489 0.844,-0.965 1.262,-1.453c0.902,-1.414 1.75,-2.801 2.258,-3.864c0.359,-0.754 0.773,-1.605 1.199,-2.453c0.066,-0.211 0.129,-0.426 0.191,-0.637c0.649,-2.269 2.438,-5.191 4.364,-6.617c0.058,-0.047 0.117,-0.09 0.179,-0.133c0.614,-0.625 2.692,-2.667 4.161,-3.207c0.109,-0.078 0.214,-0.156 0.316,-0.23c0.422,-2.059 1.492,-4.07 3.129,-5.406c0.242,-0.196 1.215,-0.653 2.207,-0.926l0,-0.004c0.019,-0.039 0.039,-0.082 0.059,-0.121c0.117,-0.281 0.242,-0.551 0.378,-0.816c0.157,-0.649 0.407,-1.266 0.719,-1.852c0.469,-1.703 1.86,-3.305 3.274,-4.231c0.332,-0.218 1.168,-1.089 1.988,-1.73c0,-0.187 0.008,-0.375 0.023,-0.57c0.133,-2.141 1.992,-7.379 4.684,-8.227c0.488,-0.379 0.934,-0.695 1.141,-0.836c0.468,-0.472 0.98,-0.847 1.41,-1.011c0.023,-0.008 0.047,-0.016 0.074,-0.028c1.086,-0.758 2.148,-1.16 3.68,-1.398c1.105,-0.168 1.996,-0.528 2.882,-0.996c0.508,-0.418 0.965,-0.743 1.282,-0.875c0.304,-0.133 0.617,-0.282 0.937,-0.43c1.801,-1.129 4.57,-2.867 6.567,-2.547c0.191,-0.68 0.378,-1.398 0.543,-2.023c-0.082,-0.321 -0.153,-0.657 -0.219,-1.008c-1.024,-2.387 -1.918,-4.145 -1.918,-6.379c0,-3.984 0.199,-10.305 4.347,-12.012c3.161,-1.297 6.528,-1.734 9.825,-0.183c1.566,0.734 3.64,3.07 4.004,4.8c0.41,1.981 0.296,6.649 0.086,6.703c0.429,4.493 -1.602,6.305 -1.739,6.848c0,0.004 -0.004,0.012 -0.004,0.016c0.121,1.191 0.387,2.25 0.703,3.176c0.157,-0.055 0.329,-0.071 0.5,-0.036c0.684,0.133 0.684,0.133 2.152,0.668c2.845,1.036 6.493,2.239 8.259,4.895c0.004,0.008 0.015,0.019 0.019,0.031c0.836,0.067 1.844,0.391 2.633,0.684c0.887,0.066 1.844,0.316 2.227,0.465c0.367,0.14 0.796,0.425 1.21,0.8c1.165,0.129 2.696,1.149 3.227,1.594c0.445,0.371 0.84,0.789 1.188,1.235c1.292,1.652 1.937,3.746 2.097,5.851c0.067,0.285 0.129,0.594 0.192,0.934c0.039,0.222 0.07,0.433 0.093,0.629c0.082,0.043 0.176,0.097 0.286,0.156Zm-17.801,34.066c-0.657,1.11 -1.399,2.149 -2.242,3.063c-0.606,2.711 -2.083,4.886 -5.262,6.191c-4.469,1.824 -11.274,2.305 -15.547,0.027c-2.488,-1.328 -3.297,-0.906 -2.609,0.055c-0.774,-0.687 -1.59,-1.476 -2.262,-2.207c-2.477,-2.699 -2.477,-2.699 -3.36,-3.535c-0.882,-0.84 -0.882,-0.84 -1.039,-1.406c-0.32,-1.172 -0.816,-0.203 -0.652,0.597c0.598,2.934 4.84,7.664 7.43,9.008c1.461,0.758 4.777,1.024 2.242,-0.648c3.742,1.871 8.875,0.914 12.789,0.269c0.723,-0.117 1.527,-0.289 2.359,-0.523c-0.476,0.441 -0.64,0.613 -1.007,0.992c-1.668,1.723 -4.2,2.863 -6.477,3.551c2.988,0.363 4.137,-0.957 6.766,-2c1.554,-0.613 4.414,-2.836 5.574,-4.723c1.051,-0.746 1.914,-1.66 2.414,-2.769c0.547,-1.207 0.863,-3.598 0.883,-5.942Zm2.785,-10.539c0.113,-0.351 0.234,-0.699 0.359,-1.047c-0.058,0.016 -0.121,0.032 -0.183,0.047c1.66,-2.582 1.09,-6.555 1.242,-9.152c1.094,-1.274 2.301,-3.621 3.008,-5.445c1.039,1.96 2.699,3.558 4.316,5.152c0.18,0.351 0.297,0.582 0.406,0.789c0.227,0.226 0.473,0.492 0.739,0.801c0.945,1.086 2.078,2.023 3.211,2.652c0.96,0.531 1.855,1.203 1.988,1.492c0.176,0.387 0.383,0.696 0.801,1.215c0.023,0.027 0.046,0.055 0.07,0.09c0.254,0.883 0.66,1.75 0.988,2.422c0.758,1.558 2.168,3.16 3.598,4.531c0.347,0.527 0.719,1.047 1.109,1.551c1.145,1.488 3.106,2.008 4.926,2.582c1.043,0.664 2.09,1.226 3.074,1.668c0.27,0.129 0.551,0.254 0.832,0.371c0.61,0.789 1.297,1.535 1.477,1.726l2.742,2.903c0.246,0.203 0.496,0.406 0.75,0.601c0.129,0.164 0.289,0.344 0.473,0.536c-0.047,0.238 -0.078,0.546 -0.098,0.949c-0.051,1.199 0.188,3.191 0.895,4.719c-0.457,-0.219 -1.008,-0.458 -1.68,-0.727c-2.262,-0.918 -5.844,-2.106 -8.559,-1.5c-0.746,-2.316 -6.269,-2.906 -8.242,-3.152c-1.121,-0.141 -3.41,-0.711 -5.09,-1.27c-0.496,-0.168 -1.273,-0.336 -2.082,-0.457c-0.398,-0.035 -0.797,-0.144 -1.152,-0.344c-0.11,-0.062 -0.203,-0.133 -0.289,-0.218c-0.176,0.058 -0.352,0.117 -0.531,0.191c-0.348,-1.484 -1,-2.426 -2.633,-2.656c-1.168,-0.164 -1.434,-0.2 -1.75,-0.211c-0.078,-0.153 -0.149,-0.324 -0.219,-0.516c-0.32,-0.875 -1.297,-1.898 -2.356,-2.461c-0.652,-0.351 -1.527,-0.66 -2.281,-0.828c-0.015,-0.215 -0.039,-0.43 -0.062,-0.625c0.051,-0.644 0.101,-1.441 0.156,-2.445c0.109,-1.918 0.129,-3.172 0.047,-3.934Zm-4.954,-13.851c-0.28,0.105 -0.519,0.168 -0.683,0.183c-2.683,-0.043 -7.519,1.762 -9.867,-0.605c0.027,-0.297 0.004,-0.641 -0.07,-1.016c-0.418,-2.031 -0.418,-2.031 -0.485,-4.199c-0.097,-3.274 -1.363,-1.863 -1.363,0.668c0,1.558 0.195,3.504 0.438,4.32c0.023,0.09 0.05,0.176 0.082,0.258c-0.098,0.102 -0.215,0.238 -0.356,0.391c-2.269,2.492 -7.414,0.367 -10.211,0.281c-0.887,-0.098 -4.047,-1.914 -4.234,-2.137c-0.957,-1.172 -2.211,-3.39 -2.785,-4.933c-0.227,-0.602 -0.059,-1.895 0.238,-3.215c0.148,-0.278 0.305,-0.559 0.465,-0.797c1.101,-1.598 2.543,-2.84 4.215,-3.719c0.445,-0.43 0.894,-0.773 1.296,-0.992c0.266,-0.145 1.207,-0.699 2.114,-1.035c-0.574,-0.856 -3.239,-0.094 -3.86,0.148c-0.609,0.235 -1.566,0.805 -2.531,1.543c-0.055,0.031 -0.109,0.063 -0.164,0.098c0.172,-0.531 0.105,-0.77 -0.355,-0.84c-0.93,-0.148 -2.192,1.812 -2.973,3.598c1.726,2.504 -0.309,7.14 -2.219,8.863c-0.629,0.566 -1.293,1.293 -1.988,2.035c-1.996,2.844 -4.301,5.676 -7.789,6.129c-0.055,0.531 0.179,1.262 -0.379,2.367c-0.871,1.086 -1.586,2.231 -2.336,2.629c-0.242,0.129 -2.625,3.875 -2.898,4.691c-0.778,2.313 -4.688,4.04 -6.965,5.379c-0.133,0.055 -0.258,0.106 -0.379,0.157c-0.555,0.23 -1.055,0.617 -1.524,1.07c-0.054,0.035 -0.105,0.07 -0.152,0.098c-0.082,-0.043 -0.172,-0.067 -0.266,-0.079c-0.472,0.567 -0.98,1.239 -1.386,1.856c-0.743,1.113 -2.422,3.07 -3.731,4.344c-0.074,0.066 -0.179,0.175 -0.312,0.312c-0.469,0.809 -0.914,1.629 -1.325,2.453c0.055,-0.027 0.118,-0.062 0.18,-0.097c-0.113,0.339 -0.207,0.675 -0.273,0.976c-0.387,1.692 -1.326,3.86 -2.082,4.817c-0.821,1.043 -0.403,1.828 0.246,2.636c0.574,0.637 1.163,1.524 1.609,2.035c0,0.024 0,0.051 0.004,0.075c0.004,0.039 0.004,0.074 0.004,0.105c-2.586,0.656 -4.754,0.121 -5.125,-2.832c-0.367,-2.953 -3.664,-1.289 -5.676,-0.168c-1.406,0.781 -3.836,1.524 -5.398,1.645c-1.442,0.113 -2.621,0.132 -3.434,-0.008c-0.273,-0.375 -0.683,-0.563 -1.168,-0.625c-0.015,-0.027 -0.027,-0.051 -0.035,-0.082c0.063,-0.055 0.117,-0.11 0.164,-0.156c0.664,-0.637 1.703,-1.297 2.383,-1.516c0.66,-0.215 1.695,-0.762 2.301,-1.215c0.597,-0.457 1.218,-0.797 1.863,-1.09c1.543,-0.375 2.785,-0.933 3.887,-1.605c0.484,-0.223 0.925,-0.442 1.218,-0.598c0.672,-0.375 1.04,-0.726 1.188,-1.148c1.105,-0.903 2.207,-1.879 3.535,-2.84c0.16,0.027 0.313,0.008 0.457,-0.039c0.004,-0.024 0.004,-0.043 0.008,-0.067c0.609,-3.742 3.975,-7.793 7.008,-10.734c0.242,-0.574 0.449,-1.145 0.617,-1.707c0.379,-1.273 0.883,-2.422 1.504,-3.465c1.238,-2.601 3.805,-4.902 6.258,-6.394c0.062,-0.039 0.132,-0.082 0.211,-0.129c0.605,-1.867 2.019,-3.645 3.449,-4.657c0.949,-0.667 2.047,-1.71 3.305,-1.48c0.328,0.055 0.523,0.09 0.73,0.109c0.434,-0.234 0.77,-0.406 0.949,-0.472l1.949,-0.715c-0.613,-0.121 -1.175,-0.164 -1.699,-0.149c-0.105,0.024 -0.207,0.032 -0.305,0.02c-0.624,0.051 -1.203,0.199 -1.753,0.422c0.136,-0.172 0.218,-0.328 0.218,-0.445c0,-0.016 0,-0.036 -0.004,-0.051c0.122,-0.172 0.235,-0.364 0.34,-0.571c0.078,-0.156 0.16,-0.316 0.246,-0.472c-0.05,-0.25 -0.043,-0.539 0.016,-0.836c-0.238,-1.277 0.535,-3.09 1.426,-3.758c0.328,-0.246 1.355,-1 2.375,-1.519c0.062,-0.051 0.125,-0.102 0.187,-0.153c0.246,-0.207 0.453,-0.383 0.629,-0.535c0.27,-0.16 0.551,-0.301 0.84,-0.406c0.051,-0.211 0.102,-0.438 0.148,-0.684c0.391,-2.008 0.75,-3.707 1.653,-5.265c1.094,-2.426 4.562,-5.375 7.262,-4.368c0.097,0.008 0.191,0.02 0.285,0.035c0.55,-0.179 1.082,-0.386 1.57,-0.66c0.504,-0.281 0.824,-0.82 0.703,-1.199c0,-0.008 -0.004,-0.015 -0.004,-0.019c1.578,-0.575 3.031,-1.45 4.516,-2.289c0.187,-0.079 0.379,-0.161 0.582,-0.243l2.715,-1.132c0.136,-0.036 0.281,-0.075 0.441,-0.114c0.031,-0.011 0.078,-0.023 0.133,-0.039c-0.094,0.215 -0.18,0.379 -0.254,0.473c-0.535,0.625 -1.047,1.254 -1.48,1.953c1.898,-0.57 3.375,-1.66 4.128,-3.387c1.192,1.895 2.926,2.688 5.102,2.84c3.715,0.254 5.566,-0.914 6.742,-3.18c0.192,0.989 0.442,1.86 0.614,2.168c0.5,0.911 1.953,1.454 2.703,1.559c0.945,0.137 0.445,-0.598 -0.297,-2.105l3.23,1.335c1.735,0.711 2.789,1.149 3.571,1.512c0.453,0.395 0.878,0.836 1.265,1.332c1.18,1.52 1.387,1.676 2.086,1.547c0.102,-0.019 0.192,-0.047 0.266,-0.078c0.097,0.031 0.195,0.062 0.293,0.094c1.406,-0.203 2.769,0.097 4.004,0.746c0.031,0.066 0.078,0.129 0.132,0.191c1.032,0.164 2.036,0.965 2.719,1.692c1.945,2.078 3.625,5.867 3.379,8.847c0.063,0.043 0.133,0.09 0.203,0.141c0.008,0.004 0.012,0.012 0.02,0.015c0.031,0.043 0.066,0.083 0.097,0.114c0.262,0.117 0.582,0.273 0.911,0.449c1.507,0.805 3.156,1.488 3.941,3.102c0.207,0.421 0.363,1.07 0.398,1.726c0.43,0.399 0.801,0.879 0.95,1.09c0.566,0.777 1.402,1.875 2.136,3.039c0.383,0.121 0.75,0.285 1.063,0.465c1.969,1.133 3.539,2.719 4.344,4.867c0.054,0.148 0.121,0.313 0.195,0.484c0.039,0.024 0.082,0.043 0.121,0.067c0.414,0.461 0.828,1.055 1.437,1.988c0.172,0.133 0.34,0.266 0.497,0.399c0.55,0.46 1.105,1.003 1.625,1.609c0.39,0.254 0.734,0.469 0.941,0.668c2,1.902 2.676,4.547 3.012,5.328c0.105,0.238 0.222,0.477 0.351,0.715c0.344,0.203 0.774,0.512 1.188,0.851c0.777,0.649 1.883,1.993 2.621,3.196c1.617,2.633 3.398,4.793 4.422,7.578c2.91,2.269 4.949,4.465 9.113,5.383c0.133,0.027 0.617,0.269 1.27,0.613c1.105,1.465 3.039,3.121 4.96,3.66c-0.628,0.477 -2.191,0.516 -4.347,0.348c-1.563,-0.125 -4.008,-0.863 -5.434,-1.649c-2.039,-1.117 -5.383,-2.785 -5.676,0.172c-0.253,2.516 -1.855,3.278 -3.937,3.035c-0.285,-0.14 -0.668,-0.273 -1.106,-0.394c0.43,-0.512 0.997,-1.391 1.555,-2.024c0.629,-0.808 1.024,-1.597 0.176,-2.636c-0.781,-0.957 -1.774,-3.125 -2.199,-4.817c-0.078,-0.3 -0.18,-0.64 -0.301,-0.976c0.609,0.347 0.98,0.281 0.805,-0.414c0.019,-0.008 0.035,-0.016 0.054,-0.028c-0.156,-0.191 -0.32,-0.41 -0.578,-0.769c-0.988,-1.36 -2.375,-3.067 -3.195,-4.758c-0.254,-0.25 -0.512,-0.496 -0.77,-0.742c-1.207,-1.164 -2.402,-2.043 -3.09,-2.289c-0.199,-0.071 -0.371,-0.117 -0.515,-0.145c-0.488,-0.293 -1.067,-0.539 -1.465,-0.734c-0.203,-0.125 -0.426,-0.258 -0.664,-0.387c-0.883,-0.562 -1.531,-0.91 -2.266,-1.242c-0.769,-0.43 -1.55,-0.895 -2.246,-1.391c-0.129,-0.105 -0.258,-0.218 -0.383,-0.328c-0.488,-1.16 -1.16,-2.293 -1.921,-3.242c0.011,-0.004 0.015,-0.012 0.023,-0.016c-0.023,-0.011 -0.043,-0.023 -0.063,-0.039c-0.062,-0.074 -0.124,-0.148 -0.187,-0.222c-0.773,-0.918 -1.461,-1.786 -2.234,-2.746c-0.637,-0.793 -1.129,-1.54 -1.426,-2.161c-0.153,-0.523 -0.176,-1.129 -0.074,-1.55c-0.207,-0.086 -0.426,-0.161 -0.641,-0.223c-0.02,-0.09 -0.035,-0.18 -0.051,-0.274c-2.371,-0.425 -4.722,-1.882 -5.808,-3.863c-2.024,-3.695 -6.434,-5.949 -6.871,-10.011c-0.149,-0.391 -0.305,-0.821 -0.465,-1.313c-0.055,-0.172 -0.153,-0.395 -0.274,-0.613c0.539,-0.625 -2.144,-6.668 -3.695,-6.496c-0.688,0.074 -0.461,0.586 0.137,1.937c0.023,0.051 0.047,0.113 0.074,0.184c-0.238,-0.196 -0.434,-0.332 -0.543,-0.391c-1.832,-0.949 -1.832,-0.949 -3.692,-1.344c-2.555,-0.539 -1.726,0.735 0.094,1.34c1.762,0.586 3.875,1.563 5.032,3.129c0.433,1.578 0.773,3.301 0.527,4.012c-0.52,1.512 -1.688,3.668 -2.59,4.793c-0.145,0.176 -2.184,1.308 -3.407,1.758Zm4.489,22.589c0.043,-0.039 0.086,-0.089 0.121,-0.14c1.668,0.375 3.078,1.547 3.672,3.203c-0.008,0.09 -0.004,0.18 0.02,0.269c0.125,0.461 0.621,0.692 1.144,0.813c0.211,0.07 0.441,0.125 0.676,0.16c0.621,0.086 1.234,0.371 1.68,0.758c0.031,0.09 0.066,0.199 0.101,0.312c0.055,0.188 0.145,0.348 0.258,0.485c-2.707,1.547 -5.504,3.976 -7.082,4.996c-0.711,0.457 -0.711,0.457 -2.289,2.035c-1.578,1.574 -1.578,1.574 -1.77,1.656c-0.981,0.43 -1.8,2.996 -2.352,3.989l2.087,-1.832c4.05,-3.555 8.336,-7.024 12.914,-10.043l0.613,-0.403c0.18,0.071 0.375,0.149 0.59,0.235c3.972,1.519 8.222,2.363 12.344,3.367c0.863,0.211 1.949,0.586 2.711,0.926c-0.551,0.355 -0.422,0.609 0,0.789c-0.442,0.191 -0.805,0.379 -0.915,0.484c-2.882,2.758 -4.308,7.512 -6.199,11.012c-0.246,0.457 -0.453,0.832 -0.613,1.144c-2.992,-1.179 -6.75,-1.144 -9.781,-1.3c-0.699,-0.036 -1.301,-0.067 -1.817,-0.094c-1.281,-0.11 -2.605,-0.203 -3.886,-0.278c-0.282,-0.039 -0.579,-0.082 -0.957,-0.136c-0.957,-0.137 -2.172,-0.504 -2.7,-0.817c-0.965,-0.558 -0.965,-0.558 -1.351,-0.547c-0.242,0.008 -0.406,0.067 -0.508,0.161c-2.34,-0.762 -6.898,0.261 -8.313,0.593c-2.277,0.528 -3.55,0.606 -4.171,0.25c-0.336,-0.187 -0.727,-0.336 -1.157,-0.449c-1.965,-1.301 -4.992,-2.562 -5.839,-3.062c-4.329,-2.543 -4.329,-2.543 -5.543,-3.633c-1.219,-1.086 -1.219,-1.086 -1.415,-1.805c-0.363,-1.344 -0.937,-0.41 -0.8,0.559c0.461,3.269 7.828,5.98 10.152,7.277c0.129,0.074 0.258,0.145 0.383,0.215c-0.324,0 -0.723,0.082 -1.11,0.195c-1.632,0.106 -3.23,0.387 -4.324,0.653c-1.082,0.261 -1.601,0.542 -1.726,0.796c-1.145,0.071 -2.305,0.028 -3.348,-0.183c-1.023,0.051 -2.203,0.117 -3.535,0.195c-0.043,-0.004 -0.086,-0.008 -0.125,-0.012c-3.996,-0.332 -8.688,0.246 -12.57,1.192c-0.969,0.238 -2.102,0.605 -2.774,0.898c-0.18,-0.375 -0.449,-0.871 -0.808,-1.535c-1.891,-3.504 -3.321,-8.254 -6.204,-11.016c-0.086,-0.085 -0.343,-0.226 -0.675,-0.378c0.148,-0.239 0.031,-0.559 -0.328,-0.852c0.761,-0.352 1.902,-0.75 2.8,-0.965c4.121,-1.008 8.375,-1.851 12.344,-3.371c0.215,-0.082 0.414,-0.16 0.59,-0.234l0.617,0.406c2.191,1.445 4.324,3 6.391,4.617c-0.035,-0.094 -0.071,-0.18 -0.106,-0.266c-0.308,-0.738 -0.488,-1.507 -0.551,-2.261c-1.32,-0.996 -2.816,-2.094 -4.289,-2.93c0.2,-0.598 0.719,-1.019 1.317,-1.305c0.25,-0.105 0.511,-0.179 0.781,-0.214c0.254,-0.04 0.504,-0.098 0.73,-0.176c0.262,0.082 0.567,0.023 0.821,-0.238c0.582,-0.133 0.594,-0.286 0.496,-0.825c0,-0.004 -0.004,-0.008 -0.004,-0.011c0.891,-1.567 2.34,-2.649 4.047,-3.219c0.281,-0.094 0.523,-0.176 0.73,-0.25c0.004,0.004 0.008,0.004 0.016,0.008c0.086,0.156 0.199,0.269 0.344,0.375c0.367,1.125 2.742,1.937 3.574,2.507c2.141,1.473 4.48,2.122 6.934,2.407c0.003,0 0.007,0 0.011,0.004c0.449,0.113 0.957,0.144 1.465,0.128c0.801,0.051 1.609,0.075 2.426,0.086c4.211,0.059 6.781,-0.375 10.066,-2.925c0.715,-0.551 1.219,-1.098 1.495,-1.535c0.724,0.109 2.076,-0.012 2.997,-0.301c0.454,-0.145 0.778,-0.258 1.02,-0.461c0.191,0.004 0.34,-0.051 0.457,-0.153Zm-0.988,10.786c0.613,-0.793 3.816,-7.106 2.09,-4.286c-2.946,4.813 -6.817,8.825 -10.997,12.543c3.292,-2.449 6.376,-4.972 8.907,-8.257Zm-0.414,-18.719c-0.258,2.004 -0.442,3.988 -0.192,6.012c0.012,0.109 0.024,0.207 0.035,0.304c-0.304,0.727 -0.855,0.942 -2.015,1.391c-0.285,0.113 -0.525,0.215 -0.715,0.308c-0.211,-0.261 -1,-0.085 -2.453,0.879c-0.61,0.407 -1.231,0.774 -1.863,1.106c1.23,-2.008 0.136,-5.488 -0.684,-6.082c1.023,-0.238 2.398,-1.102 2.684,-2.34c0.289,-1.281 0.46,-2.023 -0.11,-1.734c-0.316,0.156 -1.34,0.953 -2.277,1.769c-1.945,1.692 -1.672,2.387 -0.77,2.363c-0.125,0.184 -0.211,0.539 -0.23,1.11c1.543,1.715 -0.43,5.804 -2.133,6.551c-0.641,0.281 -1.289,0.328 -1.746,0.203c-0.516,0.093 -1.039,0.164 -1.559,0.207c-0.089,-0.114 -0.226,-0.223 -0.398,-0.328c-0.149,0.035 -0.309,0.066 -0.481,0.086c-4.226,0.574 -7.402,-5.688 -5.527,-9.247c-0.238,-0.269 -0.559,-0.582 -0.973,-0.933c-0.964,-0.817 -2.015,-1.613 -2.332,-1.77c-0.582,-0.285 -0.386,0.453 -0.054,1.735c0.218,0.851 0.953,1.527 1.726,1.945c-0.023,0.082 -0.047,0.168 -0.062,0.258c-0.238,1.152 -0.215,2.242 -0.004,3.285c-0.094,1.387 0.207,2.883 1.34,3.715c0.07,0.055 0.14,0.105 0.211,0.156c0.082,0.141 0.164,0.285 0.254,0.426c-0.989,-0.301 -1.969,-0.699 -2.934,-1.199c-0.629,-0.325 -1.227,-0.61 -1.703,-0.825c-0.36,-0.089 -0.723,-0.214 -1.063,-0.379l-0.047,0c-0.191,-0.015 -0.628,-0.191 -1.148,-0.464c0,-0.02 0,-0.043 0,-0.067c0.129,0.016 0.262,0.031 0.391,0.043c-0.551,-0.422 -0.973,-0.976 -1.137,-1.664c-0.043,-0.18 -0.078,-0.363 -0.098,-0.551c-0.468,-1.656 -0.406,-3.73 -0.574,-5.222c-0.047,-0.434 -0.102,-0.856 -0.16,-1.258c0.008,-0.035 0.016,-0.07 0.019,-0.106c0.407,0.227 0.872,0.372 1.399,0.426c4.566,0.43 4.418,-5.043 10.16,-6.097c1.211,-0.219 2.098,-1.403 2.516,-2.43c0.281,0.832 0.91,1.828 1.843,2.43c1.852,1.199 4.414,2.101 6.383,3.566c1.808,1.348 0.75,3.969 5.145,2.898c0.496,-0.121 0.941,-0.281 1.336,-0.476Zm-25.633,11.348c-1.184,-0.95 -4.86,-3.879 -2.36,-0.969c3.813,4.441 8.321,5.457 14.106,5.957c2.25,0.195 2.828,0.109 3.699,-0.543c1.031,-0.77 1.031,-0.77 -0.449,-0.824c-1.484,-0.051 -1.484,-0.051 -6.043,-0.399c-3.75,-0.285 -6.078,-0.906 -8.953,-3.222Zm11.633,-12.473c-0.18,-2.863 -0.922,-6.07 -1.317,-1.356c-0.023,0.243 -0.121,2.008 0.012,3.512c-0.793,0.258 -1.797,0.863 -2.188,0.906c-2.082,0.219 1.149,2.18 2.622,0.969c0.148,0.254 0.343,0.375 0.589,0.309c0.379,-0.106 0.465,-1.414 0.282,-4.34Zm13.972,-1.551c-1.183,1.137 -3.082,1.109 -5.703,-1.242c-2.601,-2.34 -2.5,-1.117 -4.722,-2.668c-2.207,-1.543 -2.223,-1.555 -2.664,-2.109c-0.618,-0.778 -1.067,-1.114 -1.356,-1.153c-0.125,-0.355 -0.559,-0.258 -1.359,0.781c-0.426,0.555 -2.598,0.938 -4.766,2.481c-2.184,1.551 -0.832,0.328 -3.375,2.668c-0.609,0.555 -1.164,0.996 -1.676,1.324c-0.035,0.348 -0.289,0.555 -0.914,0.508c-0.058,0.027 -0.117,0.051 -0.176,0.074c-0.019,-0.035 -0.035,-0.07 -0.05,-0.101c-0.008,-0.004 -0.016,-0.004 -0.02,-0.004c-1.711,-0.274 -2.672,-2.426 -2.414,-4.086c-0.098,-0.172 -0.164,-0.321 -0.191,-0.422c-0.149,-0.516 -0.286,-0.961 -0.438,-1.367c0.34,-0.032 0.402,-0.325 -0.023,-0.957c0.445,-1.602 -1.434,-3.969 -1.547,-1.731c-2.321,-2.25 -1.656,-2.75 -3.426,-5.18c-0.113,-0.156 -0.227,-0.304 -0.328,-0.441c0.691,-0.898 1.34,-1.812 1.891,-2.809c0.828,1.192 2.082,2.774 3.937,5.461c0.625,0.598 0.367,1.063 2.262,1.442c3.511,0.699 7.285,0.363 10.074,-0.133c2.086,-0.371 2.519,-0.961 2.559,-1.609c0.293,0.414 0.945,0.793 2.328,1.109c2.746,0.621 6.449,1.133 9.87,0.598c1.848,-0.289 1.583,-0.762 2.177,-1.332c2.359,-3.52 3.695,-5.067 4.386,-6.379c0.102,0.304 0.262,0.644 0.481,0.98c0.238,0.363 0.492,0.77 0.718,1.145c-0.214,0.269 -0.449,0.59 -0.714,0.968c-1.707,2.434 -1.352,2.649 -3.297,5.18c-0.77,1 -0.918,2.039 -0.289,2.082c0.554,2.664 0.148,5.59 -1.235,6.922Zm-7.093,-7.703c-1.559,-1.941 -5.848,-0.328 -2.883,0.398c1.492,0.371 2.054,1.664 2.277,3.067c0.336,2.078 1.969,0.359 1.617,-1.137c-0.351,-1.504 -0.351,-1.504 -1.011,-2.328Zm-12.614,0.512c1.844,-1.164 1.844,-1.164 0.633,-1.399c-2.133,-0.418 -4.226,1.649 -4.793,3.516c-1.301,4.301 3.211,-1.516 4.16,-2.117Zm-10.617,8.652c0.043,0.266 0.09,0.641 0.137,1.086c-0.199,0.863 -0.375,1.891 -0.293,2.887c0.121,1.453 0.207,2.476 0.32,3.211c-0.312,0.082 -0.609,0.195 -0.847,0.281c-0.493,0.172 -0.954,0.41 -1.387,0.695c-0.278,0.11 -0.539,0.231 -0.774,0.356c-1.054,0.562 -2.031,1.586 -2.351,2.461c-0.11,0.293 -0.223,0.539 -0.352,0.746c-0.648,0.078 -1.32,0.293 -1.703,0.441c-1.137,0.43 -1.879,1.223 -2.324,2.285c-0.254,-0.109 -0.508,-0.203 -0.754,-0.277c-0.086,0.082 -0.184,0.156 -0.293,0.215c-0.352,0.203 -0.75,0.308 -1.148,0.34c-0.809,0.125 -1.586,0.293 -2.086,0.457c-1.68,0.562 -3.969,1.132 -5.09,1.277c-1.973,0.246 -7.5,0.836 -8.242,3.152c-3.266,-0.824 -6.621,0.516 -9.575,2.125c0.789,-1.386 1.075,-3.394 1.063,-4.769c0.008,-0.008 0.016,-0.016 0.023,-0.028c1.809,-2.691 3.93,-4.906 6.075,-7.312c0.187,-0.211 0.394,-0.406 0.617,-0.59c0.883,-0.445 1.797,-0.976 2.703,-1.586c1.109,-0.512 2.262,-0.949 3.226,-1.433c2.176,-1.083 4.192,-4.52 4.801,-7.04c0.172,-0.027 0.36,-0.093 0.563,-0.21c2.578,-1.473 4.113,-4.192 5.75,-6.579c0.078,-0.117 0.144,-0.222 0.187,-0.316c0.399,-0.215 0.785,-0.438 1.156,-0.621c2.286,-1.137 3.262,-3.129 4.77,-5.07c0.145,0.336 0.309,0.691 0.48,1.043c0.415,1.226 0.891,2.445 1.11,2.832c0.492,0.867 0.496,0.871 1.805,1.613c0.039,0.039 0.078,0.07 0.117,0.105c0.242,0.2 0.492,0.391 0.738,0.555l0,0.004c0.18,0.199 0.328,0.43 0.449,0.699c0.012,1.996 0.219,4.278 1.02,5.945c0.015,0.348 0.047,0.657 0.082,0.848c0.008,0.051 0.019,0.106 0.027,0.172Zm41.379,-18.125c-0.613,-0.797 -3.598,-4.328 -2.078,-1.238c0.637,1.3 1.426,2.41 2.316,3.394c0.821,0.723 1.621,1.473 2.399,2.242c1.789,1.457 3.761,2.731 5.672,4.219c-0.243,-0.898 -0.586,-1.238 -1.364,-1.82c-2.64,-1.981 -4.933,-4.192 -6.945,-6.797Zm-55.453,3.25c0.539,-0.027 1.336,-0.23 2.027,-0.496c2.332,-0.899 5.926,-4.219 6.91,-6.832c0,-0.047 0,-0.098 -0.004,-0.145c-0.007,-0.238 -0.16,-0.734 -0.332,-1.308c-0.433,0.414 -0.98,1.156 -1.332,1.609c-1.878,2.414 -4.257,4.024 -6.734,5.777c-1.535,1.086 -1.316,1.43 -0.535,1.395Zm23.336,-17.547c-1.707,-0.09 -3.774,-0.387 -4.59,-0.656c-2.004,-0.66 -4.09,-0.238 -6.098,0.164c1.774,0.176 3.489,0.398 5.133,1.16c2.094,0.973 4.367,1.481 6.68,1.391c1.156,-0.047 1.937,0.109 2.492,0.5c0.336,0.234 0.695,0.406 0.965,0.41c0.297,0.281 0.609,0.449 0.871,0.496c-0.699,1.324 1.879,1.289 2.457,0.402c0.148,-0.23 0.309,-0.496 0.473,-0.785c1.476,-0.883 2.293,-1.18 4.531,-1.18c1.969,0 4.354,-0.226 5.725,-0.539c1.298,-0.296 2.591,-0.726 2.876,-0.953c0.477,-0.371 0.465,-0.441 -0.105,-0.765c-1.336,-0.758 -2.887,-0.028 -4.254,0.297c-1.519,0.359 -4.144,0.687 -5.832,0.726c-0.824,0.02 -1.43,0.039 -1.887,0.078c0.301,-0.898 0.469,-1.793 0.344,-2.504c-0.406,-2.297 -2.058,0.821 -2.316,1.481c-0.809,2.047 -0.914,2.316 -1.477,3.023c-0.078,-0.304 -0.265,-0.707 -0.617,-1.211c-1.242,-1.8 -1.242,-1.8 -1.606,-3.222c-0.507,-1.969 -1.597,-1.547 -1.089,0.457c0.191,0.75 0.304,1.199 0.425,1.566c-1.046,-0.297 -2.289,-0.293 -3.101,-0.336Zm9.965,-28.613c-1.2,-0.563 -3.625,-1.152 -5.36,-0.574c-0.422,0.14 -1.758,0.394 -2.429,0.718c-3.653,1.77 -3.188,4.93 -3.969,8.668c-0.942,4.504 2.379,7.254 2.289,7.567c0.23,3.754 2.187,6.062 5.16,5.742c3.262,-0.356 5.988,-2.344 5.906,-5.633c2.301,-3.277 1.661,-6.469 1.629,-8.055c-0.054,-2.957 -0.051,-6.945 -3.226,-8.433Z"/><path d="M339.62,98.294c-0.378,0.039 -2.082,0.723 -2.691,0.723c-1.152,0 -3.687,-0.114 -5.82,0.261c-3.446,0.606 -3.598,1.332 -7.129,0.258c-1.445,0.293 -2.895,0.406 -4.344,0c-1.191,-0.148 -1.105,-0.379 -2.262,-0.754c-0.421,-0.047 -0.843,-0.117 -1.261,-0.203c-1.743,0.696 -4.524,1.371 -5.2,1.625c-6.23,2.356 -13.117,1.684 -19.691,0.864c-0.137,0.144 -0.402,0.296 -1.012,0.64c-3.984,2.258 -10.812,3.172 -15.379,3.11c-1.445,-0.016 -3.605,0.343 -4.8,0.804c-1.563,0.602 -2.93,0.746 -4.836,0.512c-1.559,-0.195 -3.641,-0.074 -5.032,0.281c-2.125,0.551 -2.343,0.606 -2.55,-0.39c-0.414,-0.356 -0.739,-1.254 -0.625,-2.282c0.226,-2.039 0.558,-2.562 2.625,-4.179c1.3,-1.02 2.543,-2.336 2.761,-2.926c0.235,-0.641 1.258,-1.371 2.52,-1.809c3.726,-1.285 8.504,-0.758 12.219,0.625l2.371,-1.652c2.355,-1.457 3.543,-0.309 7.832,-0.527c1.051,-0.461 2.887,-0.571 3.902,-1.125l7.559,-2.868c4.554,-2.41 6.058,-2.172 13.316,-1c0.231,-0.168 0.531,-0.343 0.91,-0.531c1.676,-0.82 4.813,-1.18 9.621,-2.086c0.825,-0.617 2.2,-1.34 4.047,-2.121c0.879,-0.375 6.77,-2.957 8.778,-1.926c0.91,-2.343 1.8,-2.504 7.296,-2.324c4.321,-3 10.915,-7.879 15.723,-5.137l0.121,0.071c2.563,-3.09 5.067,-5.125 9.973,-4.797c1.699,0.109 2.824,0.183 3.59,0.234c1.011,-0.234 2.207,-0.18 3.32,-0.109c1.117,-0.071 2.313,-0.125 3.32,0.109c0.77,-0.051 1.895,-0.125 3.594,-0.234c4.906,-0.328 7.41,1.707 9.973,4.797l0.121,-0.071c4.808,-2.742 11.398,2.137 15.723,5.137c5.492,-0.18 6.386,-0.019 7.296,2.324c2.008,-1.031 7.895,1.551 8.774,1.926c1.851,0.781 3.226,1.504 4.047,2.121c4.812,0.906 7.945,1.266 9.625,2.086c0.379,0.188 0.679,0.363 0.906,0.531c7.262,-1.172 8.766,-1.41 13.316,1l7.563,2.868c1.015,0.554 2.851,0.664 3.902,1.125c4.289,0.218 5.477,-0.93 7.828,0.527l2.375,1.652c3.711,-1.383 8.492,-1.91 12.219,-0.625c1.262,0.438 2.281,1.168 2.52,1.809c0.214,0.59 1.461,1.906 2.761,2.926c2.067,1.617 2.395,2.14 2.625,4.179c0.114,1.028 -0.211,1.926 -0.625,2.282c-0.207,0.996 -0.425,0.941 -2.554,0.39c-1.387,-0.355 -3.473,-0.476 -5.028,-0.281c-1.906,0.234 -3.273,0.09 -4.836,-0.512c-1.195,-0.461 -3.359,-0.82 -4.804,-0.804c-4.567,0.062 -11.387,-0.852 -15.379,-3.11c-0.606,-0.344 -0.875,-0.496 -1.008,-0.64c-6.574,0.82 -13.465,1.492 -19.695,-0.864c-0.672,-0.254 -3.454,-0.929 -5.196,-1.625c-0.418,0.086 -0.84,0.156 -1.261,0.203c-1.157,0.375 -1.071,0.606 -2.262,0.754c-1.449,0.406 -2.899,0.293 -4.348,0c-3.527,1.074 -3.679,0.348 -7.125,-0.258c-2.133,-0.375 -4.668,-0.261 -5.824,-0.261c-0.605,0 -2.309,-0.684 -2.688,-0.723c-0.007,0.262 -0.039,0.52 -0.089,0.77c0.511,0.093 1.015,0.261 1.511,0.492c0.559,0.422 0.746,0.582 1.02,0.855c0.484,0.485 1.18,1.336 1.937,2.028c0.407,0.707 0.668,1.632 1.079,3.574c-0.071,0.769 0.351,3.719 0.671,4.082c0.368,0.414 0.762,0.816 1.161,1.223c0.183,0.374 0.394,0.734 0.597,1.062c0.055,0.215 0.192,0.695 0.379,1.211c0.61,0.18 1.231,0.551 1.531,0.773c0.996,0.735 1.653,1.836 1.829,3.047c0.73,0.742 1.355,1.578 1.835,2.547c0.235,0.375 0.438,0.793 0.614,1.231c0.078,0.129 0.156,0.269 0.226,0.421c1.032,2.028 1.032,2.028 1.297,3.954c0.133,0.929 0.379,1.937 0.754,2.906c0.106,0.137 0.227,0.293 0.371,0.488c0.074,0.043 0.141,0.082 0.199,0.121c1.422,0.887 2.481,1.75 2.985,3.422c0.035,0.113 0.062,0.219 0.086,0.317c0.265,0.242 0.414,0.539 0.437,0.874c0.41,0.27 0.746,0.559 0.887,0.79c0.004,0.003 0.008,0.007 0.008,0.015l0.004,0.004c0.703,1.47 2.754,3.07 3.699,3.781c0.172,0.129 0.297,0.223 0.39,0.293c0.325,0.707 0.801,1.367 1.305,1.946c0.219,0.25 0.438,0.505 0.653,0.765c0.609,0.961 1.273,1.906 2.128,2.547c1.332,1.521 2.786,2.896 4.594,3.625c-0.137,0.36 -0.289,0.742 -0.398,1.106c-0.051,0.019 -0.094,0.043 -0.149,0.062c-0.343,0.496 -0.918,0.969 -1.527,1.109c-0.617,0.137 -1.168,0.153 -1.676,0.086c0.328,0.223 0.637,0.45 0.887,0.661c0.723,-0.086 1.207,0.164 1.035,1.027c-0.32,1.633 -4.566,2.547 -4.871,1.551c-0.746,0.277 -2.352,0.035 -3.258,-0.606c0.106,0.324 0.184,0.641 0.227,0.949c0.015,0.129 0.031,0.243 0.035,0.348c0.039,0.125 0.051,0.27 0.035,0.43c-0.18,1.902 -3.629,1.433 -4.785,0.758c-0.988,-0.118 -2.758,-2.149 -3.922,-3.743c0.086,0.555 0.176,1.114 0.266,1.668l-0.141,-0.437c0.187,0.891 -0.023,1.418 -0.359,1.547c-0.153,0.367 -0.391,0.683 -0.719,0.871c-2.063,1.168 -4.297,0.652 -4.649,-1.817c-0.023,-0.156 -0.031,-0.328 -0.023,-0.511c-0.008,-0.098 -0.016,-0.196 -0.02,-0.293c-0.554,0.258 -0.91,-0.485 -0.57,-2.957c0.434,-3.149 0.438,-3.176 0.395,-4.438c-0.926,0.453 -2.137,0.77 -2.758,0.637l0.004,0.005c0.019,0.089 0.027,0.19 0.008,0.311c-0.082,0.629 -1.422,1.453 -2.782,1.973c-1.058,1.621 -5.828,-0.348 -6.55,-1.62c-0.977,-1.732 0.078,-2.028 1.621,-1.689c0.004,-0.031 0.011,-0.066 0.019,-0.097c0.223,-0.909 1.09,-1.637 2.32,-1.946c1.426,-0.359 2.055,-0.979 2.29,-2.26c0.183,-0.986 0.824,-1.669 1.617,-2.111c0.332,-0.011 0.574,-0.131 0.746,-0.332c0.203,-0.07 0.41,-0.129 0.617,-0.172c0.113,-0.257 0.234,-0.51 0.363,-0.76c-0.297,-0.357 -0.558,-0.814 -0.754,-1.302c-0.074,-0.356 -0.179,-0.711 -0.3,-1.043c-0.012,-0.047 -0.016,-0.098 -0.028,-0.145c-0.011,-0.003 -0.023,-0.007 -0.035,-0.015c-0.254,-0.641 -0.57,-1.184 -0.855,-1.426c-0.137,-0.121 -0.325,-0.215 -0.536,-0.285c-0.003,-0.004 -0.007,-0.008 -0.011,-0.012c-0.207,-0.246 -0.614,-0.609 -1.102,-0.933c-0.336,-0.344 -0.691,-0.629 -1.051,-0.836c-0.55,-0.325 -1.738,-0.813 -2.964,-1.098c-0.059,-0.07 -0.118,-0.133 -0.184,-0.191c-0.52,-0.454 -0.898,-0.719 -2.113,-1.489c-1.235,-1.578 -1.867,-3.429 -2.028,-5.527c-0.144,-0.129 -0.257,-0.242 -0.312,-0.32c-0.277,-0.395 -0.52,-0.801 -0.719,-1.227c-0.285,-0.363 -0.5,-0.781 -0.59,-1.195c-0.144,-0.34 -0.234,-0.805 -0.304,-1.465c-0.079,-0.258 -0.137,-0.488 -0.18,-0.691c-0.043,-0.227 -0.059,-0.43 -0.047,-0.61c-1.109,-0.867 -2.828,-2.812 -3.363,-3.703c-0.828,-1.379 -1.762,-2.309 -3,-3.824c-0.641,-0.781 -0.352,-1.446 -0.938,-2.219c-0.062,-0.086 -0.125,-0.168 -0.176,-0.238c-3.164,2.179 -7.828,4.07 -10.539,4.402c-0.523,0.063 -0.988,0.078 -1.386,0.059c-0.368,1.8 -0.801,3.609 -1.262,5.371c-2.243,8.59 -14.336,9.25 -16.273,0.054c-0.352,-1.679 -1.723,-3.66 -2.168,-5.418c-0.36,0.008 -0.762,-0.011 -1.211,-0.066c-2.711,-0.332 -8.571,-2 -10.383,-5.32c-0.051,0.07 -0.149,1.937 -0.215,2.023c-0.586,0.774 -1.133,1.449 -1.77,2.235c-1.242,1.515 -1.304,1.261 -2.132,2.64c-0.536,0.891 -2.411,3.137 -3.52,4.004c0.012,0.18 0,0.383 -0.047,0.61c-0.039,0.203 -0.101,0.433 -0.176,0.691c-0.074,0.66 -0.16,1.125 -0.304,1.465c-0.09,0.414 -0.309,0.832 -0.59,1.195c-0.199,0.426 -0.442,0.832 -0.719,1.227c-0.055,0.078 -0.168,0.191 -0.316,0.32c-0.157,2.098 -0.789,3.949 -2.024,5.527c-1.215,0.77 -1.593,1.035 -2.113,1.489c-0.066,0.058 -0.129,0.121 -0.184,0.191c-1.226,0.285 -2.414,0.773 -2.968,1.098c-0.356,0.207 -0.711,0.492 -1.051,0.836c-0.485,0.324 -0.895,0.687 -1.098,0.933c-0.004,0.004 -0.008,0.008 -0.011,0.012c-0.215,0.07 -0.399,0.164 -0.536,0.285c-0.289,0.242 -0.605,0.785 -0.855,1.426c-0.016,0.008 -0.027,0.012 -0.039,0.015c-0.008,0.047 -0.016,0.098 -0.024,0.145c-0.125,0.332 -0.226,0.687 -0.3,1.043c-0.196,0.488 -0.457,0.945 -0.754,1.302c0.129,0.25 0.25,0.503 0.363,0.76c0.203,0.043 0.41,0.102 0.613,0.172c0.172,0.201 0.418,0.321 0.75,0.332c0.793,0.442 1.434,1.125 1.614,2.111c0.238,1.281 0.867,1.901 2.292,2.26c1.231,0.309 2.098,1.037 2.321,1.946c0.008,0.031 0.015,0.066 0.019,0.097c1.543,-0.339 2.598,-0.043 1.621,1.689c-0.722,1.272 -5.492,3.241 -6.554,1.62c-1.356,-0.52 -2.696,-1.344 -2.781,-1.973c-0.016,-0.121 -0.012,-0.222 0.011,-0.311l0,-0.005c-0.621,0.133 -1.828,-0.184 -2.758,-0.637c-0.039,1.262 -0.035,1.289 0.399,4.438c0.34,2.472 -0.016,3.215 -0.57,2.957c-0.008,0.097 -0.012,0.195 -0.024,0.293c0.008,0.183 0,0.355 -0.019,0.511c-0.352,2.469 -2.586,2.985 -4.653,1.817c-0.32,-0.188 -0.562,-0.504 -0.719,-0.871c-0.332,-0.129 -0.543,-0.656 -0.359,-1.547l-0.137,0.437c0.086,-0.554 0.176,-1.113 0.266,-1.668c-1.164,1.594 -2.937,3.625 -3.922,3.743c-1.16,0.675 -4.605,1.144 -4.785,-0.758c-0.016,-0.16 -0.004,-0.305 0.031,-0.43c0.008,-0.105 0.024,-0.219 0.039,-0.348c0.043,-0.308 0.121,-0.625 0.227,-0.949c-0.906,0.641 -2.512,0.883 -3.254,0.606c-0.309,0.996 -4.555,0.082 -4.875,-1.551c-0.172,-0.863 0.312,-1.113 1.035,-1.027c0.246,-0.211 0.559,-0.438 0.887,-0.661c-0.512,0.067 -1.059,0.051 -1.672,-0.086c-0.613,-0.14 -1.188,-0.613 -1.535,-1.109c-0.047,-0.019 -0.098,-0.043 -0.145,-0.062c-0.109,-0.364 -0.265,-0.746 -0.398,-1.106c1.808,-0.729 3.262,-2.104 4.594,-3.625c0.855,-0.641 1.515,-1.586 2.128,-2.547c0.215,-0.26 0.434,-0.515 0.653,-0.765c0.504,-0.579 0.98,-1.239 1.305,-1.946c0.089,-0.07 0.218,-0.164 0.39,-0.293c0.945,-0.711 2.995,-2.311 3.699,-3.781l0,-0.004c0.004,-0.008 0.008,-0.012 0.012,-0.015c0.141,-0.231 0.477,-0.52 0.887,-0.79c0.023,-0.335 0.172,-0.632 0.437,-0.874c0.024,-0.098 0.051,-0.204 0.086,-0.317c0.504,-1.672 1.559,-2.535 2.985,-3.422c0.058,-0.039 0.125,-0.078 0.199,-0.121c0.144,-0.195 0.265,-0.351 0.371,-0.488c0.375,-0.969 0.621,-1.977 0.754,-2.906c0.265,-1.926 0.265,-1.926 1.293,-3.954c0.078,-0.152 0.152,-0.292 0.226,-0.421c0.176,-0.438 0.383,-0.856 0.618,-1.231c0.48,-0.969 1.105,-1.805 1.835,-2.547c0.176,-1.211 0.832,-2.312 1.829,-3.047c0.3,-0.222 0.921,-0.593 1.527,-0.773c0.191,-0.516 0.324,-0.996 0.379,-1.211c0.207,-0.328 0.418,-0.688 0.601,-1.062c0.399,-0.407 0.793,-0.809 1.157,-1.223c0.324,-0.363 0.742,-3.313 0.675,-4.082c0.407,-1.942 0.672,-2.867 1.079,-3.574c0.757,-0.692 1.453,-1.543 1.933,-2.028c0.278,-0.273 0.461,-0.433 1.024,-0.855c0.496,-0.231 1,-0.399 1.511,-0.492c-0.05,-0.25 -0.082,-0.508 -0.09,-0.77Zm-0.117,-6.902c-0.863,-1.91 -1.773,-3.856 -2.937,-5.469c0.039,-0.309 0.062,-0.652 0.062,-1.035c0,-0.289 -0.008,-0.559 -0.023,-0.805c1.219,-0.641 0.383,-2.883 1.89,-2.883c2.864,0 3.145,0.871 2.868,-0.261c-0.043,-0.172 2.531,-0.364 2.461,-0.516c1.203,-0.316 2.402,-0.656 3.582,-1.043c-0.02,-0.113 -0.043,-0.23 -0.059,-0.344c0.59,-0.246 4.711,-3.07 5.313,-3.398c2.757,-1.504 2.136,0.211 5.14,-0.434c-0.723,0.914 -1.469,1.899 -2.289,2.926c-0.754,0.941 0.25,2.316 0.348,2.359c0.156,0.067 -0.012,-1.793 1.105,-2.527c1.531,-1.004 3.672,-2.961 4.762,-4.348c1.25,-1.601 2.992,-2.437 4.851,-2.578c0.247,-0.152 0.629,-0.226 1.153,-0.226c1.64,0 10.469,-0.039 10.836,-0.032c3.011,0.032 3.011,0.032 4.652,0.032c0.524,0 0.905,0.074 1.152,0.226c1.86,0.141 3.598,0.977 4.852,2.578c1.086,1.387 3.231,3.344 4.762,4.348c1.117,0.734 2.472,2.836 2.629,2.77c0.093,-0.043 -0.426,-1.661 -1.176,-2.602c-0.82,-1.027 -1.567,-2.012 -2.289,-2.926c3.004,0.645 2.383,-1.07 5.14,0.434c0.602,0.328 4.719,3.152 5.313,3.398c-0.02,0.114 -0.039,0.231 -0.063,0.344c1.184,0.387 2.379,0.727 3.586,1.043c-0.07,0.152 2.504,0.344 2.461,0.516c-0.277,1.132 0.004,0.261 2.868,0.261c1.507,0 0.671,2.242 1.886,2.883c-0.012,0.246 -0.019,0.516 -0.019,0.805c0,0.383 0.023,0.726 0.062,1.035c-1.168,1.613 -2.074,3.559 -2.937,5.469c-0.383,0.84 -0.754,1.676 -1.137,2.472c-0.445,-1.066 -2.266,-1.543 -2.699,-2.3c-1.211,-2.106 -2.16,-4.348 -4.59,-5.231c-0.039,-0.148 -0.082,-0.305 -0.133,-0.469c-0.793,-2.601 -3.605,-4.898 -6.598,-4.898c-0.535,0 -0.945,-1.242 -3.937,-0.969c-0.004,-0.008 -0.012,-0.019 -0.016,-0.031c-0.722,-1.277 -2.05,-2.559 -3.644,-3.652c-0.668,-0.192 -1.719,-0.746 -2.633,-1.051c-0.551,-0.188 -3.305,-0.403 -4.086,-0.34c-0.344,0.027 -0.664,0.062 -0.965,0.113c0.098,0.153 0.25,0.336 0.469,0.555c0.238,0.062 0.464,0.133 0.671,0.211c1.394,0.504 4.712,1.051 7.274,2.637c0.356,0.218 1.035,0.586 1.903,1.64c-0.375,0.035 -2.102,0.207 -2.532,0.246c-0.238,0.02 -0.465,0.043 -0.687,0.063c0.488,0.246 1.922,0.582 2.418,1.015c1.191,0.047 1.574,0.364 2.676,0.7c2.574,0.07 4.839,0.992 6.734,3.605c-0.094,-0.004 -0.184,-0.004 -0.277,-0.004c-1.692,0 -1.692,0 -4.348,0.332c-2.133,0.266 -3.285,0.235 -0.602,0.664c2.211,0.36 4.629,0.598 6.719,1.438c2.285,0.793 4.488,3.054 5.141,4.871c0.054,0.156 0.105,0.293 0.148,0.414c0.203,0.359 0.395,0.73 0.559,1.102c0.054,0.07 0.121,0.148 0.195,0.242c1.34,1.621 1.84,4.082 1.695,6.347c0.676,-0.261 1.95,0.145 2.493,0.5c0.609,0.399 1.457,1.039 1.894,1.782l0.004,0.004c0.707,0.632 1.273,1.386 1.477,2.355c0.011,0.059 0.226,2.641 0.32,3.262c-0.301,-0.266 -0.602,-0.516 -0.906,-0.758c-0.075,-0.063 -0.289,-0.219 -0.571,-0.395c-0.082,-0.027 -0.168,-0.054 -0.25,-0.086c-0.273,-0.015 -0.539,-0.121 -0.746,-0.324c-0.203,-0.101 -0.402,-0.211 -0.601,-0.328c-0.395,-0.074 -0.715,0 -0.817,0.371c-0.047,0.184 0.614,0.871 1.469,1.531c1.27,0.977 2.527,2.184 3.539,3.524c0.067,0.211 0.125,0.426 0.168,0.633c0.024,0.023 0.043,0.047 0.063,0.07c-0.387,-0.004 -0.7,0.16 -0.793,0.68c-0.121,0.648 -0.016,0.726 1.488,1.117c1.816,0.469 3.07,1.211 3.812,2.988c0.063,0.152 0.145,0.309 0.235,0.461c-0.082,0.18 0.14,0.563 0.66,1.465c0.207,0.355 0.402,0.707 0.594,1.062c1.195,1.54 1.945,3.414 2.601,5.387c0.235,0.699 0.762,2.289 0.774,3.586c0.023,0.012 0.047,0.024 0.07,0.039c0.059,0.031 0.117,0.067 0.176,0.098c0.519,0.609 1.086,1.156 1.586,1.531c0.285,0.399 0.621,0.813 1.015,1.27c0.289,0.324 0.539,0.609 0.758,0.859c1.152,2.078 2.793,4.181 4.75,5.785c0.094,0.508 0.27,1.031 0.52,1.531c1.05,0.719 1.965,1.943 2.726,2.637c1.262,1.16 2.578,2.231 3.93,3.281c0.312,0.145 0.644,0.289 0.976,0.43c-0.171,0.039 -0.339,0.086 -0.503,0.137c-0.797,-0.047 -1.579,-0.27 -2.243,-0.719c-0.043,-0.026 -0.086,-0.055 -0.132,-0.081c-0.496,-0.173 -0.989,-0.384 -1.473,-0.607c-0.027,-0.007 -0.051,-0.01 -0.078,-0.015c-0.453,-0.07 -1.379,-0.495 -2.055,-0.953c-0.223,-0.149 -0.586,-0.36 -0.965,-0.5c-0.715,-1.028 -1.804,-1.573 -2.433,-1.425c0.191,0.19 0.324,0.347 0.363,0.397c0.051,0.055 0.098,0.114 0.141,0.168c0.609,0.586 1.164,1.232 1.695,1.891c0.355,0.341 0.812,0.766 1.488,1.398c1.742,1.629 2.035,1.903 2.27,2.27c0.39,0.242 0.781,0.434 1.16,0.535c0.41,0.113 0.594,0.61 0.5,1.008c0.152,0.047 0.305,0.09 0.449,0.129c-0.703,0.359 -1.367,0.812 -1.726,1.203c-0.122,-0.23 -0.372,-0.504 -0.782,-0.824c-0.117,-0.094 -0.265,-0.192 -0.441,-0.289c-0.176,-0.008 -0.469,-0.137 -0.902,-0.438c-0.954,-0.379 -2.012,-0.574 -2.239,-0.039l0,0.004c-1.293,-2.277 -3.488,-4.613 -4.965,-6.094c0.907,1.681 0.918,1.736 1.086,2.367c0.102,0.383 0.469,1.192 0.813,1.797c0.476,0.84 0.914,2.149 0.707,2.778c0.156,0.148 0.308,0.293 0.457,0.433c0.277,0.254 0.605,0.614 0.937,0.989c-0.707,0.062 -1.472,0.281 -2.07,0.574c-0.141,-0.707 -0.594,-1.516 -1.191,-2.293c-0.266,-0.235 -0.512,-0.531 -0.735,-0.871c-0.91,-0.989 -1.968,-1.844 -2.777,-2.266c0.105,-0.969 0.137,-2.23 0.074,-3.051c-0.18,-2.336 -1.523,-2.19 -1.824,0.029c-0.316,2.342 -0.066,4.721 0.277,7.053c-0.804,0.543 -1.304,0.746 -1.711,0.422l-0.004,-0.004c-0.031,-0.343 -0.085,-0.793 -0.164,-1.398c-0.144,-1.18 -0.218,-1.777 -0.293,-2.211c0.305,-1.039 0.461,-2.176 0.317,-3.172c-0.102,-0.698 -0.625,-1.5 -1.156,-1.918c0.019,-0.047 0.035,-0.094 0.039,-0.137c0.211,-1.574 -3.828,0.055 -4.285,0.907c-0.094,0.172 -0.133,0.316 -0.129,0.429c-0.762,-0.234 -2.387,0.313 -3.571,0.914c-0.445,-0.273 -0.961,-0.543 -1.504,-0.785c2.032,-0.441 4.735,-1.889 4.895,-3.203c0.105,-0.832 1.066,-2.019 2.152,-2.655c0.969,-0.575 1.239,-1.047 1.082,-1.384l0,-0.004c0.551,-0.93 0.543,-2.711 0.121,-3.883c-0.004,-0.148 -0.019,-0.297 -0.039,-0.429c-0.394,-2.563 -1.34,-4.852 -3.441,-6.344c0.023,0.121 0.043,0.246 0.066,0.367c-0.168,-0.047 -0.25,0.102 -0.175,0.582c0.089,0.555 0.105,0.652 0.566,1.527c0.137,0.707 0.289,1.411 0.461,2.114c-0.551,-0.739 -1.227,-1.371 -1.988,-1.817c-1.305,-0.769 -2.528,-1.941 -3.934,-2.285c-0.215,-0.262 -0.488,-0.496 -0.773,-0.637c-0.36,-0.179 -1.075,-0.718 -1.766,-1.164c-0.191,-0.238 -0.375,-0.48 -0.547,-0.722c-0.004,-0.055 -0.008,-0.11 -0.012,-0.164c-0.039,-0.504 -0.058,-1.34 -0.246,-2.004c0.141,-0.508 -0.433,-1.446 -0.746,-1.781c-0.527,-0.579 -1.051,-1.196 -1.492,-1.86c-0.141,-0.305 -0.273,-0.605 -0.387,-0.883c0,-0.011 0.004,-0.023 0.008,-0.039c0.207,-0.851 1.129,-0.761 1.75,-0.347c0.356,0.07 0.691,0.101 0.981,0.086c-0.016,-0.032 -0.032,-0.059 -0.047,-0.086c-0.485,-0.977 -0.871,-1.336 -1.809,-1.704c-0.48,-0.191 -1.211,-0.589 -1.699,-1.066c-0.61,-0.336 -1.117,-0.816 -1.332,-1.418c-1.442,-1.168 -3.317,-3.215 -3.973,-4.496c-0.031,-0.035 -1.242,-1.469 -1.273,-1.5c-0.84,-0.898 -0.657,-1.512 -0.407,-3.191c-0.722,-0.477 -1.773,-0.055 -2.996,-0.711c-1.609,-0.918 -2.414,-1.969 -3.07,-3.411c-0.848,-0.515 -0.914,-2.953 0.574,-4.32c0.324,-0.387 0.703,-0.656 1.133,-0.73c3.082,-0.543 -1.715,-2.774 -3.098,-0.426c0.196,1.078 -4.046,5.309 -4.722,5.434c-0.41,0.761 1.664,0.554 3.605,0.058c0.028,1.281 0.406,1.274 1.406,2.25c0.938,1.356 2.149,2.11 2.622,3.024c-2.914,1.882 -5.122,2.308 -8.219,2.75c-0.18,0.023 -0.352,0.054 -0.512,0.086c1.25,-7.684 1.481,-13.387 -3.832,-16.04c-4.117,-2.058 -9.844,-2.062 -13.461,-0.121c-3.222,1.727 -3.242,5.371 -3.918,8.035c-0.941,-0.765 -2.965,-2.667 -4.531,-4.066c-0.047,-0.066 -0.094,-0.133 -0.141,-0.195c-0.109,-0.149 -0.215,-0.281 -0.316,-0.399c-0.024,-0.242 -0.059,-0.476 -0.113,-0.816c-1.383,-2.348 -6.176,-0.117 -3.094,0.426c0.43,0.074 0.805,0.343 1.133,0.73c1.488,1.367 1.851,2.863 1.004,3.383c-0.993,1.023 -1.789,2.457 -3.149,3c-1.305,0.199 -2.426,0.273 -3.148,0.75c0,0.02 -0.231,1.105 -0.227,1.125c0.223,1.676 0.453,2.711 -0.375,3.602c-0.031,0.031 -0.062,0.066 -0.094,0.097c-0.656,1.281 -3.718,4.504 -5.156,5.672c-0.215,0.602 -0.723,1.082 -1.332,1.418c-0.492,0.477 -1.219,0.875 -1.699,1.066c-0.942,0.368 -1.324,0.727 -1.809,1.704c-0.015,0.027 -0.031,0.054 -0.05,0.086c0.293,0.015 0.628,-0.016 0.984,-0.086c0.621,-0.414 1.539,-0.504 1.75,0.347c0.004,0.016 0.008,0.028 0.008,0.039c-0.114,0.278 -0.246,0.578 -0.391,0.883c-0.437,0.664 -0.961,1.281 -1.492,1.86c-0.309,0.335 -0.883,1.273 -0.746,1.781c-0.184,0.664 -0.203,1.5 -0.242,2.004c-0.004,0.054 -0.008,0.109 -0.012,0.164c-0.172,0.242 -0.356,0.484 -0.547,0.722c-0.695,0.446 -1.406,0.985 -1.766,1.164c-0.285,0.141 -0.558,0.375 -0.773,0.637c-1.406,0.344 -2.633,1.516 -3.934,2.285c-0.761,0.446 -1.437,1.078 -1.988,1.817c0.172,-0.703 0.32,-1.407 0.461,-2.114c0.461,-0.875 0.477,-0.972 0.563,-1.527c0.078,-0.48 -0.004,-0.629 -0.172,-0.582c0.019,-0.121 0.043,-0.246 0.066,-0.367c-2.105,1.492 -3.047,3.781 -3.441,6.344c-0.02,0.132 -0.035,0.281 -0.039,0.429c-0.422,1.172 -0.43,2.953 0.121,3.883l-0.004,0.004c-0.156,0.337 0.117,0.809 1.086,1.384c1.086,0.636 2.047,1.823 2.148,2.655c0.164,1.314 2.867,2.762 4.895,3.203c-0.539,0.242 -1.059,0.512 -1.5,0.785c-1.188,-0.601 -2.809,-1.148 -3.571,-0.914c0.004,-0.113 -0.035,-0.257 -0.129,-0.429c-0.457,-0.852 -4.496,-2.481 -4.285,-0.907c0.004,0.043 0.02,0.09 0.039,0.137c-0.531,0.418 -1.054,1.22 -1.156,1.918c-0.148,0.996 0.012,2.133 0.313,3.172c-0.071,0.434 -0.145,1.031 -0.293,2.211c-0.075,0.605 -0.129,1.055 -0.16,1.398l-0.004,0.004c-0.407,0.324 -0.907,0.121 -1.711,-0.422c0.343,-2.332 0.593,-4.711 0.277,-7.053c-0.301,-2.219 -1.645,-2.365 -1.824,-0.029c-0.063,0.821 -0.031,2.082 0.07,3.051c-0.808,0.422 -1.863,1.277 -2.773,2.266c-0.227,0.34 -0.469,0.636 -0.735,0.871c-0.597,0.777 -1.05,1.586 -1.195,2.293c-0.595,-0.293 -1.359,-0.512 -2.066,-0.574c0.332,-0.375 0.656,-0.735 0.937,-0.989c0.147,-0.14 0.3,-0.285 0.452,-0.433c-0.202,-0.629 0.236,-1.938 0.712,-2.778c0.344,-0.605 0.707,-1.414 0.809,-1.797c0.168,-0.631 0.183,-0.686 1.09,-2.367c-1.473,1.481 -3.672,3.817 -4.965,6.094l0,-0.004c-0.227,-0.535 -1.289,-0.34 -2.239,0.039c-0.433,0.301 -0.726,0.43 -0.906,0.438c-0.172,0.097 -0.32,0.195 -0.437,0.289c-0.414,0.32 -0.66,0.594 -0.782,0.824c-0.363,-0.391 -1.019,-0.844 -1.73,-1.203c0.148,-0.039 0.301,-0.082 0.453,-0.129c-0.094,-0.398 0.09,-0.895 0.5,-1.008c0.375,-0.101 0.766,-0.293 1.16,-0.535c0.231,-0.367 0.524,-0.641 2.27,-2.27c0.676,-0.632 1.133,-1.057 1.484,-1.398c0.535,-0.659 1.086,-1.305 1.699,-1.891c0.043,-0.054 0.089,-0.113 0.137,-0.168c0.039,-0.05 0.175,-0.207 0.367,-0.397c-0.633,-0.148 -1.722,0.397 -2.433,1.425c-0.379,0.14 -0.743,0.351 -0.965,0.5c-0.676,0.458 -1.602,0.883 -2.055,0.953c-0.027,0.005 -0.055,0.008 -0.082,0.015c-0.48,0.223 -0.973,0.434 -1.473,0.607c-0.042,0.026 -0.085,0.055 -0.128,0.081c-0.664,0.449 -1.446,0.672 -2.243,0.719c-0.164,-0.051 -0.332,-0.098 -0.504,-0.137c0.333,-0.141 0.661,-0.285 0.981,-0.43c1.348,-1.05 2.66,-2.121 3.926,-3.281c0.761,-0.694 1.676,-1.918 2.726,-2.637c0.25,-0.5 0.426,-1.023 0.52,-1.531c1.956,-1.604 3.597,-3.707 4.75,-5.785c0.219,-0.25 0.469,-0.535 0.754,-0.859c0.394,-0.457 0.734,-0.871 1.019,-1.27c0.5,-0.375 1.067,-0.922 1.586,-1.531c0.059,-0.031 0.117,-0.067 0.176,-0.098c0.023,-0.015 0.047,-0.027 0.066,-0.039c3.567,-9.328 3.766,-9.68 3.969,-10.035c0.524,-0.902 0.742,-1.285 0.664,-1.465c0.09,-0.152 0.172,-0.309 0.235,-0.461c0.742,-1.777 1.996,-2.519 3.808,-2.988c1.508,-0.391 1.613,-0.469 1.492,-1.117c-0.093,-0.52 -0.41,-0.684 -0.793,-0.68c0.02,-0.023 0.039,-0.047 0.059,-0.07c0.047,-0.207 0.105,-0.422 0.172,-0.633c1.012,-1.34 2.269,-2.547 3.539,-3.524c0.855,-0.66 1.516,-1.347 1.469,-1.531c-0.106,-0.371 -0.422,-0.445 -0.817,-0.371c-0.199,0.117 -0.402,0.227 -0.601,0.328c-0.207,0.203 -0.477,0.309 -0.746,0.324c-0.086,0.032 -0.168,0.059 -0.254,0.086c-0.278,0.176 -0.493,0.332 -0.571,0.395c-0.3,0.242 -0.605,0.492 -0.898,0.758c0.09,-0.621 0.305,-3.203 0.316,-3.262c0.203,-0.969 0.766,-1.723 1.477,-2.355l0,-0.004c0.441,-0.743 1.285,-1.383 1.894,-1.782c0.547,-0.355 1.817,-0.761 2.497,-0.5c-0.145,-2.265 0.355,-4.726 1.695,-6.347c0.074,-0.094 0.137,-0.172 0.191,-0.242c0.168,-0.372 0.356,-0.743 0.563,-1.102c0.043,-0.121 0.09,-0.258 0.148,-0.414c0.649,-1.817 2.856,-4.078 5.141,-4.871c2.086,-0.84 4.504,-1.078 6.719,-1.438c2.679,-0.429 1.531,-0.398 -0.602,-0.664c-2.656,-0.332 -2.656,-0.332 -4.352,-0.332c-0.089,0 -0.179,0 -0.273,0.004c1.891,-2.613 4.16,-3.535 6.734,-3.605c1.102,-0.336 2.391,-0.629 3.582,-0.672c0.496,-0.438 1.02,-0.797 1.512,-1.043c-0.223,-0.02 -0.449,-0.043 -0.687,-0.063c-0.43,-0.039 -1.262,-0.89 -1.637,-0.925c0.504,-0.973 1.863,-1.668 2.219,-1.883c2.558,-1.59 3.175,-1.059 4.57,-1.567c0.207,-0.074 1.926,-0.297 2.164,-0.359c0.219,-0.219 0.371,-0.402 0.469,-0.555c-0.301,-0.051 -0.625,-0.086 -0.965,-0.113c-0.785,-0.063 -4.766,0.234 -6.719,1.391c-1.594,1.093 -2.926,2.375 -3.644,3.652c-0.008,0.012 -0.012,0.023 -0.02,0.031c-0.824,0.367 -1.875,0.731 -2.41,0.731c-2.996,0 -7.328,2.535 -8.121,5.136c-0.051,0.164 -0.098,0.321 -0.137,0.469c-2.426,0.883 -3.18,3.004 -4.387,5.109c-0.437,0.758 -2.453,1.356 -2.902,2.422c-0.379,-0.796 -0.754,-1.632 -1.133,-2.472Zm71.489,26.586c0.05,-0.125 0.082,-0.309 0.097,-0.559c0.063,-0.848 0.063,-0.848 -0.351,-3.617c-0.368,-2.449 -0.481,-2.774 -0.969,-2.774c-0.488,0 -0.551,0.184 -0.551,1.668l0,0.004c-0.961,-1.179 -1.879,-2.39 -2.625,-3.711c-1.285,-0.797 -2.246,-2.734 -2.629,-4.238c-0.074,0.219 -0.113,0.578 -0.121,1.117c0.156,0.403 0.289,0.778 0.414,1.028c1.129,2.23 1.129,2.23 1.391,2.894c0.019,0.043 0.035,0.082 0.051,0.121c0.023,0.039 0.046,0.082 0.074,0.125c0.074,0.121 0.203,0.36 0.351,0.664c0.133,0.18 0.321,0.414 0.61,0.782c0.265,0.328 0.449,0.55 0.578,0.734c0.601,0.473 1.246,0.894 1.894,1.266c-0.003,0.207 -0.007,0.429 -0.007,0.664c0.164,0.312 0.234,0.582 0.238,0.812c0.695,0.922 1.281,1.895 1.555,3.02Zm-71.036,0c-0.05,-0.125 -0.082,-0.309 -0.101,-0.559c-0.059,-0.848 -0.059,-0.848 0.355,-3.617c0.367,-2.449 0.481,-2.774 0.965,-2.774c0.492,0 0.555,0.184 0.555,1.668l0,0.004c0.957,-1.179 1.879,-2.39 2.621,-3.711c1.289,-0.797 2.25,-2.734 2.633,-4.238c0.07,0.219 0.113,0.578 0.121,1.117c-0.156,0.403 -0.289,0.778 -0.414,1.028c-1.129,2.23 -1.129,2.23 -1.391,2.894c-0.019,0.043 -0.035,0.082 -0.051,0.121c-0.023,0.039 -0.046,0.082 -0.074,0.125c-0.074,0.121 -0.203,0.36 -0.351,0.664c-0.133,0.18 -0.321,0.414 -0.614,0.782c-0.265,0.328 -0.445,0.55 -0.578,0.734c-0.597,0.473 -1.238,0.894 -1.89,1.266c0.003,0.207 0.007,0.429 0.007,0.664c-0.164,0.312 -0.238,0.582 -0.242,0.812c-0.691,0.922 -1.277,1.895 -1.551,3.02Zm73.25,-25.575c1.153,-2.191 2.731,-7.328 2.688,-7.64c-0.024,-0.207 -0.055,-0.403 -0.086,-0.582c0.078,-0.18 0.105,-0.449 0.066,-0.844c0.34,0.141 0.758,0.262 1.235,0.359c1.347,0.282 4.66,1.34 7.359,2.356c1.035,0.39 2.719,1.805 5.195,1.933c1.739,0.094 4.59,0.711 6.34,1.372c0.285,0.109 0.574,0.191 0.856,0.25c-1.082,0.8 -1.969,1.531 -1.906,1.871c0.164,0.886 5.425,-0.852 5.855,-1.075c1.461,-0.757 5.727,-0.832 6.668,-0.683c1.562,0.242 14.977,5.387 15.633,5.183c0.679,-0.207 1.754,0.02 1.574,-0.144c1.531,0.195 2.43,-0.008 3.168,0.101c1.723,0.254 1.73,0.254 3.238,1.102c-1.34,0.195 -2.289,0.398 -2.164,0.734c0.086,0.235 2.184,0.297 4.664,0.137l0.598,-0.039c2.73,0.656 6.387,-0.191 8.965,-0.852c3.422,-0.874 8.398,5.883 8.945,8.696c-0.742,0.062 -1.656,0.25 -2.355,0.105c-1.239,-0.258 -3.282,-0.351 -4.539,-0.211c-1.747,0.192 -2.653,0.012 -3.817,-0.765c-1.183,-0.785 -2.676,-1.075 -6.617,-1.274c-2.801,-0.136 -7.391,-0.711 -10.203,-1.269c-0.906,-0.18 -1.699,-0.34 -2.375,-0.465c0.121,-0.016 0.242,-0.027 0.367,-0.043c-3.027,-0.863 -6.027,-0.902 -9.176,-0.75c-3.086,0.148 -6.867,0.031 -8.398,-0.258c-2.785,-0.519 -2.785,-0.519 -6.117,-1.793c-0.336,-0.129 -0.641,-0.242 -0.93,-0.344c0.07,-0.027 0.137,-0.058 0.203,-0.086c1.215,-0.554 2.285,-0.714 4.742,-0.714c0.949,0 1.629,0 2.102,-0.028c0.66,0.137 1.332,0.293 2.027,0.461c3.258,0.778 6.481,1.297 9.82,1.434l-1.328,-0.809c-0.73,-0.441 -4.687,-1.238 -8.797,-1.773c-0.379,-0.047 -0.742,-0.094 -1.097,-0.129c-0.383,-0.125 -1.117,-0.18 -2.496,-0.195c-0.532,-0.02 -1.043,-0.024 -1.539,-0.008c-2.637,0.004 -4.313,0.062 -6.711,1.027c-0.106,0.043 -0.41,0.184 -0.793,0.371c-0.028,0.012 -0.059,0.02 -0.09,0.031c-0.055,0.016 -0.11,0.036 -0.156,0.055c-0.106,-0.008 -0.215,-0.012 -0.34,-0.004c-1.364,0.082 -2.551,0.824 -3.922,0.735c-2.231,-0.153 -3.754,0.011 -5.727,0.296c-1.367,-0.308 -2.566,-0.832 -4.691,-1.043c-2.652,-0.378 -4.391,-0.171 -5.039,-0.171c-0.559,0 -1.641,-0.348 -2.82,-0.871c0.418,-0.754 0.933,-1.766 1.593,-3.098c0.106,-0.219 0.215,-0.438 0.328,-0.649Zm-57.988,12.778c1.289,-0.664 2.902,-0.625 3.902,-2.223c0.997,-0.976 1.747,-2.305 1.774,-3.582c0.769,1.551 2.601,2.633 3.383,2.477c-0.426,2.839 -0.129,3.711 0.605,6.902c-0.055,-0.008 -0.109,-0.016 -0.164,-0.023c-3.098,-0.442 -3.098,-0.442 -7.812,-2.102c-0.676,-0.234 -2.157,-1.211 -1.688,-1.449Zm-17.476,-12.778c-1.157,-2.191 -2.731,-7.328 -2.692,-7.64c0.027,-0.207 0.055,-0.403 0.086,-0.582c-0.078,-0.18 -0.101,-0.449 -0.062,-0.844c-0.34,0.141 -0.758,0.262 -1.235,0.359c-1.347,0.282 -4.66,1.34 -7.359,2.356c-1.039,0.39 -2.723,1.805 -5.195,1.933c-1.739,0.094 -4.59,0.711 -6.344,1.372c-0.281,0.109 -0.571,0.191 -0.852,0.25c1.082,0.8 1.969,1.531 1.906,1.871c-0.164,0.886 -5.425,-0.852 -5.859,-1.075c-1.457,-0.757 -5.723,-0.832 -6.664,-0.683c-1.562,0.242 -14.977,5.387 -15.633,5.183c-0.683,-0.207 -1.754,0.02 -1.574,-0.144c-1.531,0.195 -2.434,-0.008 -3.164,0.101c-1.727,0.254 -1.734,0.254 -3.242,1.102c1.34,0.195 2.289,0.398 2.164,0.734c-0.086,0.235 -2.188,0.297 -4.664,0.137l-0.602,-0.039c-2.726,0.656 -6.383,-0.191 -8.961,-0.852c-3.422,-0.874 -8.402,5.883 -8.945,8.696c0.742,0.062 1.652,0.25 2.355,0.105c1.235,-0.258 3.278,-0.351 4.539,-0.211c1.743,0.192 2.653,0.012 3.817,-0.765c1.183,-0.785 2.672,-1.075 6.613,-1.274c2.801,-0.136 7.395,-0.711 10.207,-1.269c0.903,-0.18 1.699,-0.34 2.371,-0.465c-0.117,-0.016 -0.238,-0.027 -0.359,-0.043c3.019,-0.863 6.023,-0.902 9.172,-0.75c3.086,0.148 6.863,0.031 8.394,-0.258c2.789,-0.519 2.789,-0.519 6.121,-1.793c0.336,-0.129 0.641,-0.242 0.926,-0.344c-0.066,-0.027 -0.133,-0.058 -0.199,-0.086c-1.215,-0.554 -2.289,-0.714 -4.746,-0.714c-0.949,0 -1.625,0 -2.102,-0.028c-0.66,0.137 -1.332,0.293 -2.023,0.461c-3.262,0.778 -6.481,1.297 -9.82,1.434l1.328,-0.809c0.726,-0.441 4.687,-1.238 8.797,-1.773c0.375,-0.047 0.742,-0.094 1.097,-0.129c0.379,-0.125 1.117,-0.18 2.492,-0.195c0.536,-0.02 1.043,-0.024 1.543,-0.008c2.637,0.004 4.313,0.062 6.711,1.027c0.102,0.043 0.41,0.184 0.789,0.371c0.032,0.012 0.063,0.02 0.094,0.031c0.055,0.016 0.106,0.036 0.156,0.055c0.102,-0.008 0.214,-0.012 0.339,-0.004c1.361,0.082 2.552,0.824 3.923,0.735c2.231,-0.153 3.758,0.011 5.723,0.296c1.371,-0.308 2.566,-0.832 4.695,-1.043c2.652,-0.378 4.387,-0.171 5.039,-0.171c0.559,0 1.641,-0.348 2.82,-0.871c-0.418,-0.754 -0.933,-1.766 -1.593,-3.098c-0.11,-0.219 -0.219,-0.438 -0.328,-0.649Zm12.32,1.579c3.488,1.558 4.531,4.339 0.117,1.218c-0.449,-0.316 -3.852,-0.058 -2.418,-1.062c0.566,-0.399 0.805,-0.824 2.301,-0.156Zm32.484,2.593c1.659,3.465 1.965,6.516 1.61,10.743c-0.375,4.468 -1.259,11.433 -5.594,13.808c-3.074,1.684 -6.442,0.195 -8.067,-2.758c-3.312,-6.008 -6.839,-15.672 -2.617,-21.722c3.153,-4.516 11.883,-4.368 14.668,-0.071Zm17.172,-3.246c-3.484,1.563 -4.531,4.344 -0.117,1.223c0.449,-0.317 3.852,-0.063 2.418,-1.067c-0.563,-0.394 -0.805,-0.824 -2.301,-0.156Zm-70.566,-0.32c-0.004,-0.125 -0.192,-0.297 -0.641,-0.52c-1.203,-0.589 -1.203,-0.589 -1.363,-1.175c-0.125,-0.457 -0.258,-0.668 -0.602,-0.938c-0.101,-0.082 -0.328,-0.125 -0.644,-0.141c-1.946,0.766 -3.903,1.395 -5.844,1.86c0,0 0.004,0 0.008,0c0.015,0.012 0.035,0.019 0.051,0.027c0.609,0.305 1.765,0.25 3.253,-0.144c2.133,-0.575 2.36,-0.539 2.981,0.422c0.566,0.875 2.82,1.05 2.801,0.609Zm92.644,0c0.004,-0.125 0.192,-0.297 0.641,-0.52c1.203,-0.589 1.203,-0.589 1.363,-1.175c0.125,-0.457 0.258,-0.668 0.602,-0.938c0.101,-0.082 0.328,-0.125 0.64,-0.141c1.95,0.766 3.907,1.395 5.848,1.86c-0.004,0 -0.008,0 -0.012,0c-0.011,0.012 -0.031,0.019 -0.051,0.027c-0.605,0.305 -1.765,0.25 -3.25,-0.144c-2.132,-0.575 -2.359,-0.539 -2.984,0.422c-0.562,0.875 -2.816,1.05 -2.797,0.609Zm-38.109,-5.699c-0.613,0.347 -1.165,0.984 -1.281,1.496l-0.005,0.004c3.731,-0.207 9.469,0.043 11.712,3.215c0.152,0.218 0.289,0.433 0.402,0.644c0.027,-0.187 0.004,-0.445 -0.078,-0.781c-0.688,-2.797 -4.926,-5.082 -8.238,-5.125c-0.922,-1.328 -3.028,-6.383 -6.543,-7.164c-0.293,1.078 3.265,4.051 4.183,7.629c-0.052,0.023 -0.101,0.05 -0.152,0.082Zm-16.906,-0.032c0.617,0.348 1.168,0.985 1.285,1.497l0,0.003c-3.727,-0.207 -9.465,0.043 -11.707,3.215c-0.156,0.219 -0.289,0.438 -0.406,0.649c-0.024,-0.192 0,-0.45 0.082,-0.785c0.687,-2.797 4.921,-5.082 8.238,-5.125c0.918,-1.329 1.648,-7.032 6.816,-7.067c0.293,1.078 -3.844,2.043 -4.945,7.231c0.051,0.027 0.586,0.351 0.637,0.382Z"/></svg>