<?xml version="1.0" encoding="UTF-8" standalone="no"?><!DOCTYPE svg PUBLIC "-//W3C//DTD SVG 1.1//EN" "http://www.w3.org/Graphics/SVG/1.1/DTD/svg11.dtd"><svg width="100%" height="100%" viewBox="0 0 273 191" version="1.1" xmlns="http://www.w3.org/2000/svg" xmlns:xlink="http://www.w3.org/1999/xlink" xml:space="preserve" xmlns:serif="http://www.serif.com/" style="fill-rule:evenodd;clip-rule:evenodd;stroke-linejoin:round;stroke-miterlimit:1.41421;"><path d="M33.265,121.972c-3.043,-0.078 -6.02,0.234 -8.867,1.242c-0.606,0.547 -2.2,0.738 -3.672,0.793c1.433,2.527 2.894,4.289 3.598,7.258c0.152,0.066 0.21,0.179 0.105,0.468c0.008,0.043 0.016,0.086 0.023,0.129c0.071,0.36 0.457,8.407 -1.203,6.297c-0.211,-0.265 -0.535,-1.512 -0.824,-3.078c-0.109,0.172 -0.227,0.352 -0.348,0.539c-2.363,3.695 -5.492,10.25 -4.461,14.879c0.29,1.309 0.907,4.695 0.922,8.32c0.012,4.493 0.008,4.696 -0.09,5.942c0.059,0.492 0.106,0.941 0.126,1.316c0.023,0.324 -0.223,3.371 -0.391,4.512c-0.031,0.211 -0.387,2.144 -0.57,2.738c-0.02,0.063 -0.77,2.102 -1.137,3.516c-1.274,4.93 -2.531,8.465 3.472,8.828c2.04,0.121 4.356,0.691 6.754,1.254c0.625,0.344 1.414,0.547 1.946,0.875c0.461,0.281 1.172,0.418 1.879,0.375c0.73,1.281 2.468,1.269 3.714,0.582c1.422,0.308 3.356,-0.016 4.583,-0.707c0.124,-0.07 0.25,-0.168 0.363,-0.277c0.414,-0.09 0.777,-0.305 0.918,-0.758c0.129,-0.418 0.84,-0.465 1.191,-0.633c0.617,-0.301 0.977,-1.125 0.574,-1.742c-0.332,-0.508 -1.015,-0.828 -1.535,-1.106c-0.476,-0.254 -0.894,-0.492 -1.308,-0.847c-0.453,-0.395 -0.789,-0.614 -1.379,-0.727c-0.399,-0.078 -0.914,-0.082 -1.434,0c-0.488,-0.754 -1.176,-1.555 -1.918,-1.914c-0.148,-0.074 -6,-4.336 -6.144,-4.34c-0.305,-0.316 -1.786,-1.996 -2.176,-2.398c-0.176,-0.184 -0.297,-0.496 -0.367,-0.875c-0.395,-0.735 -0.661,-1.707 -0.614,-2.942c0.168,-4.664 -0.031,-7.621 1.551,-12.097c2.129,-6.032 2.289,-9.485 2.524,-15.879c0.05,-1.438 0.523,-2.352 1.054,-2.918c0.399,-1.09 0.957,-2.45 1.586,-3.856c2.231,-4.953 2.403,-5.687 2.031,-8.648c-0.23,-1.824 -0.328,-2.621 -0.476,-4.121Zm3.359,-1.051c-0.031,-0.086 -0.058,-0.168 -0.086,-0.25c0.184,-0.231 0.176,-0.629 -0.195,-1.098c0.047,-0.324 -0.117,-0.812 -0.594,-1.496c-0.457,-0.66 -3.875,-7.492 -3.711,-8.324c-0.035,-0.137 -0.074,-0.277 -0.113,-0.422c-0.027,-0.398 -0.074,-0.808 -0.144,-1.223c0.316,0.301 0.644,0.606 0.996,0.93c1.402,1.297 1.683,1.563 1.984,1.863c0.297,0.297 0.531,0.5 1.645,1.414c0.714,0.586 1.39,1.325 1.503,1.637c0.231,0.653 0.86,0.93 1.176,0.703c0.094,0.535 0.254,1.051 0.504,1.547c0.231,-0.758 0.481,-1.5 0.746,-2.222c0.672,0.23 1.281,0.421 1.793,0.57c2.938,0.863 5.469,1.769 8.113,3.301c1.051,0.609 1.864,1.007 2.739,1.308c0.312,1.141 0.968,2.574 1.074,2.832c0.879,2.129 1.91,4.539 2.293,5.344c1.445,3.047 4.055,7.801 6.977,7.902c0.796,0.028 2.468,1.235 3.757,2.039c3.215,2.008 5.703,4.825 8.746,7.028c2.5,1.812 3.504,3.902 5.18,6.308c0.063,0.09 0.125,0.168 0.188,0.235c0.25,1.433 1.175,4.593 1.39,5.55c0.301,1.36 2.051,3.071 3.203,3.821c2.715,1.129 6.438,-2.582 6.86,-3.129c1.211,-1.566 3.777,-2.774 5.531,-3.457c0.859,-0.336 1.129,-0.453 1.305,-0.563c0.476,-0.296 1.047,-0.289 1.59,-0.316c1.976,-0.094 3.906,-1.246 5.082,-2.828c0.042,-0.063 0.085,-0.121 0.128,-0.172l0.004,0c0.11,0 1.977,-0.316 2.985,-1.106c2.765,-2.167 1.703,-5.093 1.496,-5.253c-0.555,-0.567 -2.098,-0.106 -3,0.179c-0.965,0.078 -2.094,0.094 -3.055,-0.14c-0.246,-0.129 -0.551,-0.2 -0.715,-0.196c-0.261,0 -0.941,0.223 -1.41,0.539c-0.238,-0.035 -0.48,-0.062 -0.719,-0.089c-0.828,-0.094 -2.511,-0.457 -3.359,-0.301c-0.641,0.117 -1.348,0.066 -1.984,0.054c-1.063,-0.023 -4.153,0.114 -5.551,-0.296c-0.34,-0.102 -1.387,-0.473 -2.387,-0.825c-3.758,-2.664 -6.543,-6.82 -8.117,-8.707c-3.215,-3.855 -3.586,-7.554 -9.305,-12.496c-6.051,-4.359 -4.008,-4.558 -7,-7.051c-1.535,-1.281 -1.82,-1.757 -2.301,-2.421c-0.894,-3.446 -3.089,-6.11 -6.054,-8.227c-2.172,-1.551 -2.981,-2.34 -3.953,-3.871c-0.321,-0.508 -0.586,-0.895 -0.891,-1.258c-0.031,-0.629 -2.875,-3.187 -3.945,-3.926c-0.184,-0.125 -0.348,-0.238 -0.496,-0.332c-0.008,-0.144 -0.079,-0.343 -0.219,-0.605c-0.277,-0.524 -2.238,-2.016 -4.352,-3.313c-2.117,-1.304 -4.617,-2.48 -5.554,-2.617c-0.668,-0.098 -1.082,-0.094 -1.289,-0.012c0.253,-0.515 0.242,-1.3 0.074,-2.804c-0.11,-0.989 -1.699,-4.762 -3.227,-4.649c0.184,-0.82 0.192,-1.672 -0.019,-2.699c-0.344,-1.676 -0.582,-2.215 -0.743,-2.069c-0.082,-1.732 -0.332,-3.497 -0.238,-4.638c0.242,-2.934 0.852,-5.487 2.082,-8.16c1.321,-2.875 1.399,-6.484 0.871,-10.016c1.383,-1.097 1.785,-3.929 0.172,-6.355c0.696,-0.082 1.34,-0.051 1.992,-0.051c0.696,0 4.497,0.383 5.176,0.145c2.039,1.734 5.313,0.863 7.082,0.863c3.524,0 6.754,-0.223 10.082,-1.504c2.313,-0.891 8.043,-1.332 11.969,-1.336c3.629,1.277 8.148,0.719 11.258,-1.746c0.554,-0.438 1.722,-0.656 3.519,-0.656c1.598,0 3.207,-0.266 3.969,-0.657c0.652,-0.336 1.512,-0.671 1.996,-0.785c1.578,0.172 3.508,0.024 4.27,-1.148c0.39,-0.606 1.394,-1.145 2.816,-1.512c1.793,-0.465 4.293,-1.183 4.129,-3.445c-0.102,-1.36 -0.102,-1.36 -4.566,-1.36c-2.453,0 -5.961,-0.187 -7.793,-0.414c-3.321,-0.414 -3.332,-0.414 -6.45,1.055c-0.527,0.246 -0.96,0.449 -1.332,0.621c-2.539,-0.258 -4.773,0.297 -6.976,1.149c-1.402,-0.192 -2.891,-0.704 -4.508,-1.282c-3.426,-1.222 -11.562,-2.808 -15.273,-1.468c-1,0.359 -1.817,1.23 -3.61,1.023c-0.261,-0.031 -0.492,-0.051 -0.695,-0.062c-0.098,-0.051 -0.203,-0.098 -0.32,-0.137c-2.344,-0.809 -2.348,-0.75 -4.329,-1.133c-1.98,-0.387 -2.843,-1.398 -6.082,-1.398c-0.457,0 -2.226,0.332 -2.597,0.375l-4.981,-3.11c-2.308,-1.043 -5.133,-1.172 -7.789,-0.562c-0.656,0.175 -1.129,0.336 -1.476,0.492c0.035,-0.082 0.07,-0.16 0.117,-0.235c0.078,-0.136 0.16,-0.257 0.25,-0.367c0.262,-0.316 0.715,-0.582 1.211,-1.207c0.019,-0.027 0.199,-0.34 0.23,-0.34c1.535,-0.07 3.051,1.082 5.051,-0.074c4.527,-2.617 4.231,-16.668 3.926,-18.062c-0.223,-1.012 -1.43,-2.442 -2.016,-3.289c-0.047,-0.067 -1.664,-1.645 -3.086,-2.575c-3.625,-2.371 -14.258,-3.593 -16.691,2.934c-0.887,2.371 -1.742,4.926 -1.434,8.262c0.133,1.422 1.996,4.035 1.582,5.191c-0.695,1.961 -1.07,2.785 -1.695,4.606c-0.355,1.039 -3.418,2.933 -4.98,5.726c-0.223,0.391 -1.364,2.098 -2.313,3.875c-1.207,0.945 -1.406,3.383 -1.566,4.637c-0.121,0.933 -1.723,5.726 -2.043,7.957c-0.707,4.894 2.191,9.437 3.554,14.195c0.5,1.758 1.93,7.699 3.59,14.27c0.289,1.156 0.742,2.902 1.641,3.961c-0.196,0.093 -0.219,0.273 -0.188,0.55c-0.66,1.09 -1.281,3.571 -1.754,5.293c-2.027,1.856 -2.437,4.891 -2.132,8.055c-1.082,2.758 -0.594,6.723 0.414,9.414c0.55,1.469 1.437,3.594 2.789,4.879c1.73,3.621 4.09,7.168 4.703,9.324c0.785,2.762 1.789,4.926 3.226,6.86c-0.254,-0.028 0.649,1.797 1.664,1.941c0.051,0.051 0.102,0.106 0.153,0.156c0.051,-0.004 0.472,0.016 1.082,0.028c0.105,0.195 0.211,0.386 0.316,0.574c2.031,3.621 2.383,4.574 2.899,8.226c-0.395,0.426 -0.809,0.922 -1.215,1.45c-3.574,4.621 -7.328,11.285 -5.379,17.316c0.336,1.043 1.191,6.098 1.613,10.293c-0.101,1.879 -0.234,3.992 -0.394,5.266c-0.321,2.246 0.015,3.746 -0.856,5.972c-0.234,0.606 -0.699,1.235 -1.172,3.235c-0.468,1.074 -1.32,6.523 -0.668,8.527c0.805,2.469 4.508,2.699 6.606,2.859c3.32,0.25 3.32,0.25 4.597,1.016c1.27,0.758 2.047,0.785 4.641,0.926c0.371,0.133 2.258,0.902 2.524,0.926c0.414,0.035 1.179,-0.305 1.996,-0.473c0.488,-0.02 0.972,-0.051 1.449,-0.094c3.047,-0.148 6.187,-0.883 7.793,-3.148c1.457,-2.059 0,-2.989 -1.418,-4.637c-0.883,-1.023 -3.434,-2.48 -5.129,-1.992c-1.484,-0.856 -3.492,-3.012 -5.438,-4.906c-1.902,-1.852 -3.777,-2.911 -4.71,-4.836c-0.18,-1.227 -0.231,-2.813 0.054,-4.828c0.887,-6.297 -0.097,-5.414 1.219,-8.422c2.703,-6.188 2.488,-6.563 2.734,-13.231c0.039,-1.125 0.371,-3.039 0.586,-4.457c1.192,-1.586 2.485,-3.789 2.66,-4.164c2.157,-4.683 1.543,-9.039 1.063,-13.723c0.016,-0.011 0.031,-0.023 0.047,-0.031c0.324,-0.179 0.824,-0.492 1.355,-0.738Zm21.297,-1.289c0.016,0.469 -0.523,0.488 -2.629,0.101c-0.109,-0.023 -0.211,-0.043 -0.316,-0.062c0.461,0.812 0.984,1.836 1.492,2.93c1.859,4.004 3.273,8.183 7.512,10.023c2.058,0.895 2.836,1.59 3.812,2.418c0.5,0.426 8.371,6.828 9.391,7.918c2.273,2.43 4.035,2.52 4.797,4.922c0.48,0.832 0.926,1.711 0.945,1.969c0.012,0.105 0.02,0.207 0.035,0.308c-0.086,1.406 0.457,2.766 0.973,4.004c0.168,0.414 0.375,0.883 0.629,1.32c0.035,0.204 0.086,0.387 0.125,0.504c0.433,1.336 1.125,2.18 2.664,2.207c0.492,0.008 0.957,-0.113 1.398,-0.297c0.481,-0.175 3.012,-2.144 3.703,-2.906c0.039,-0.047 0.942,-1.273 0.985,-1.344c0.457,-0.261 0.929,-0.472 1.344,-0.624c1.804,-0.672 3.781,-1.825 5.738,-1.856c1.84,-0.027 3.23,-1.187 4.324,-2.574c0.031,-0.047 0.066,-0.086 0.098,-0.125c0.054,0.015 0.117,0.031 0.179,0.043c1.762,0.347 4.356,-0.832 4.184,-2.969c-0.027,-0.316 -0.168,-0.531 -0.352,-0.645c-0.203,0.036 -0.421,0.079 -0.64,0.133c-1.047,0.246 -1.637,0.395 -2.676,0.094c-0.293,-0.086 -0.551,-0.152 -0.801,-0.191c-0.023,0.011 -0.047,0.019 -0.07,0.035c-0.074,0 -0.145,0 -0.203,0.004c-0.418,0.015 -0.988,0.211 -1.473,0.519c-0.039,-0.004 -0.078,-0.011 -0.113,-0.015c-0.379,-0.059 -0.766,-0.094 -1.16,-0.114c-1.332,-0.183 -3.039,-0.289 -4.422,-0.429c-1.035,-0.102 -4.063,0.566 -4.664,0.547l-1.285,-0.54c-0.032,-0.023 -0.059,-0.043 -0.086,-0.062c-0.399,0.012 -0.864,-0.031 -1.301,-0.148c-4.625,-1.231 -8.727,-5.348 -11.383,-9.493c-0.633,-0.992 -3.258,-5.582 -4.074,-7.214c-0.875,-1.747 -3.246,-4.274 -4.84,-5.407c-4.148,-2.941 -4.313,-5.406 -6.437,-6.812c-2.266,-1.492 -3.083,-3.141 -3.317,-4.43c-1.09,-2.848 -2.664,-4.695 -5.199,-6.504c-2.047,-1.461 -2.899,-2.269 -3.387,-3.223c-0.41,-0.8 -0.937,-1.535 -1.551,-2.214c-0.461,0.64 -1.175,1.492 -1.984,2.34c-3.207,3.351 -5.441,6.902 -7.086,10.992c0.199,0.054 0.402,0.101 0.606,0.144c0.785,0.168 3.668,1.321 6.41,2.559c2.746,1.238 6.015,2.488 7.265,2.777c0.946,0.219 2.793,0.145 2.84,1.387Zm-24.152,-30.442l0.894,-0.496c-0.992,0 -1.937,0.25 -2.89,0.508c-1.032,0.278 -3.164,0.645 -4.742,0.817c-1.868,0.199 -2.868,0.308 -2.79,0.586c0.04,0.152 0.829,0.343 1.75,0.421c2.778,0.243 5.383,-0.507 7.778,-1.836Zm0.406,30.391c-0.043,-0.023 -0.082,-0.047 -0.121,-0.07c-0.598,-0.36 -1.254,-2.02 -1.645,-3.735c-0.519,-0.14 -0.972,-1.257 -1.589,-3.816c-0.196,-0.805 -0.391,-1.656 -0.598,-2.52c-0.438,-0.835 -0.859,-1.664 -1.137,-2.621c-0.156,-0.539 -0.32,-1.035 -0.504,-1.5c0.004,-0.019 0.004,-0.035 0.008,-0.05c0.238,-2.996 -1.996,-5.907 -4.723,-6.899c-0.675,-0.25 -1.472,-0.453 -1.878,-0.492c-0.11,-0.035 -0.215,-0.074 -0.321,-0.109l-4.449,-1.5c3.758,0.523 7.523,0.902 10.863,2.839c1.028,-1.445 1.817,-3.371 2.348,-4.722c0.285,-0.719 1.019,-1.875 1.492,-0.594c0.578,1.566 -0.758,4.18 -1.683,5.383c-0.254,0.332 -0.446,0.66 -0.618,0.976c0.184,0.145 0.336,0.286 0.465,0.414c0.395,-0.05 0.949,-0.144 2.082,-0.335c1.903,-0.321 3.797,-0.372 5.719,-0.372l-1.141,0.497c-2.082,0.906 -4.234,1.488 -6.515,1.488c-0.438,0 -0.785,0 -1.067,-0.008c0.11,0.148 0.215,0.293 0.317,0.445c0.472,0.071 1.191,0.215 2.316,0.442c3.113,0.636 3.113,0.636 4.352,0.746c0.91,0.082 1.535,-0.028 0.472,0.484c-1.804,0.875 -4.468,0.25 -6.281,-0.211l-0.004,0c0.239,0.465 0.449,0.946 0.637,1.434c0.187,0.098 0.469,0.277 1.012,0.625c2.781,1.789 5.726,4.297 7.015,7.437c0.149,-3.781 3.086,-8.078 5.317,-10.586c0.203,-0.23 3.351,-4.046 5.05,-4.773c-0.16,-0.082 -0.339,-0.176 -0.531,-0.281c-1.015,-0.559 -2.742,-2.375 -3.367,-3.395c-1.215,-0.418 -3.078,-1.582 -3.289,-1.722c-0.578,-0.399 -7.012,-3.715 -7.223,-4.75c-0.16,0.199 -0.382,0.355 -0.675,0.511c-0.442,0.239 -0.719,0.36 -0.887,0.34c-0.043,0.031 -0.082,0.063 -0.121,0.09c0.14,-0.313 0.238,-0.684 0.304,-1.117c0.25,-1.692 0.446,-4.66 -0.98,-5.891c-0.332,-0.289 -0.746,-0.562 -1.203,-0.797c0.012,-0.715 -0.16,-1.449 -0.512,-2c0,-0.011 0,-0.023 0,-0.031c-0.086,0.254 -0.195,0.492 -0.324,0.703c0.164,0.059 0.254,0.137 0.246,0.238c-0.199,0.18 -0.398,0.364 -0.586,0.532c0,0.004 0,0.004 -0.004,0.007c-0.328,0.184 -0.808,0.411 -1.469,0.676c-2.132,0.856 -3.152,0.817 -11.121,-0.472c-3.73,-0.602 -6.035,-1.043 -7.363,-1.45c0.145,0.739 -0.039,1.375 -0.668,2.254c0.117,-0.101 0.488,-0.035 1.227,0.328c0.832,0.411 4.859,1.192 8.949,1.735c1.371,0.183 9.152,0.426 6.179,1.406c-3.687,1.219 -10.421,0.035 -14,-1.191c-1.031,-0.356 -2.546,-1.852 -2.386,-2.231c-0.172,0.238 -0.379,0.496 -0.621,0.781c-0.008,0.008 -0.016,0.016 -0.024,0.028c0.078,-0.024 0.157,-0.043 0.239,-0.059c-0.278,0.422 -0.528,0.84 -0.758,1.16c-0.379,0.52 -0.817,1.621 -0.91,2.617c-0.809,1.735 -1.063,4.063 -1.004,6.2l0,0.004c0.015,0.199 0.023,0.402 0.023,0.589c0,0.02 0.004,0.04 0.004,0.063c-0.004,0.004 -0.004,0.008 -0.004,0.016c-0.004,0.156 -0.016,0.3 -0.035,0.414c-0.551,3.312 0.332,7.234 2.402,9.906c0.074,0.098 0.211,0.308 0.371,0.582c0.211,0.219 0.43,0.426 0.657,0.629c0.98,0.863 1.511,2.437 0.984,2.683c0.133,0.176 0.27,0.352 0.414,0.532c1.348,1.668 2.469,3.859 3.453,6.761c0.801,2.36 1.977,5.176 2.606,6.254c0.297,0.504 0.554,1.016 0.777,1.535c0.672,0.008 1.344,-0.035 2.008,-0.125c0.32,-0.043 1.34,-0.21 2.109,-0.117c2.403,-0.312 4.832,-0.992 7.149,-1.484c1.636,-0.348 3.757,-0.684 4.714,-0.754c0.016,-0.004 0.04,-0.004 0.059,-0.004Zm-2.812,-33.41c1.656,-2.274 -2.336,0.066 -2.868,0.394c-1.644,1.008 -3.461,1.477 -6.199,1.598c-3.437,0.152 -4.926,1.301 -0.637,1.301c2.743,0 7.922,-0.84 9.704,-3.293Zm-12.899,-20.387c-0.504,-1.155 -1.461,-2.422 -2.129,-2.82c-2.367,-1.414 0.004,1.691 0.86,2.793c1.476,1.902 1.703,5.169 1.761,7.449c0.059,2.275 0.285,3.574 0.641,3.652c0.555,0.118 1.652,0.118 1.363,-3.304c-0.23,-2.727 -1.945,-6.516 -2.496,-7.77Zm-2.051,-7.402l-0.004,-0.008c0.977,0.004 2.231,-0.426 2.122,-1.617c-0.157,-1.637 -1.817,0.328 -2.473,0.598c-0.789,0.32 -0.887,0.605 -0.637,0.796c-0.246,0.305 -0.445,0.735 -0.492,1.02c-0.152,0.922 -2.758,-0.004 -3.371,-0.301c-0.188,-0.086 -0.106,0.242 -0.004,0.649c0.43,1.746 5.473,1.355 4.859,-1.137Zm14.141,-0.637c0.656,-2.222 -0.316,-2.598 -0.914,-0.433c-0.813,2.949 -4.547,6.589 -7.75,6.043c-2.301,-0.391 -1.617,1.218 0.09,1.468c4.066,0.603 7.539,-3.558 8.574,-7.078Zm-1.996,21.652c0.266,-0.542 0.344,-1.222 0.344,-2.191c0,-1.405 0.218,-4.051 0.488,-5.871c0.492,-3.309 0.492,-3.309 0.418,-4.477c-0.074,-1.164 -0.074,-1.164 0.094,-1.832c0.093,-0.367 0.757,-1.777 1.476,-3.136c1.192,-2.243 1.328,-5.852 0.887,-9.344c0.059,-0.059 0.113,-0.121 0.168,-0.18c0.101,-0.707 0.828,-1.976 1.195,-2.941c0.153,-0.399 -0.441,-1.957 -0.711,-3.082c-0.011,0 -0.019,0.004 -0.027,0.008c-3.801,1.238 -8.574,0.964 -12.531,-0.399c1.699,1.785 2.89,3.113 4.144,3.883c1.938,1.191 1.207,1.531 4.203,1.145c1.258,-0.165 5.332,0.421 2.219,1.57c-4.367,1.609 -7.297,0.996 -13.254,-7.461l0.199,-0.199c-0.117,-0.063 -0.949,-0.66 -1.726,-1.301c-0.488,0.156 -1.332,0.273 -2.656,0.383c-1.891,0.156 -3.754,0.273 -5.653,0.273c1.961,-1.105 3.699,-1.867 6.028,-1.867c0.386,0 2.441,0.016 3.668,0.699c4.824,2.707 9.929,2.508 15.078,1.403c3.273,-0.7 2.675,-0.09 3.609,-0.09c0.238,0 6.051,-0.172 5.613,0.359c4.578,1.176 9.285,1.387 13.301,-0.43c2.836,-1.285 5.34,-1.879 9.281,-1.582c1.254,0.09 2.61,0.118 3.789,0.141c-0.605,-0.918 0.672,-1.57 2.493,-0.731c2.875,1.321 6.105,1.032 8.781,-0.695c0.781,-0.504 2.055,-0.906 2.832,-0.894c2.414,0.035 7.715,0.109 9.14,-2.371c0.622,-1.079 0.622,-1.079 1.657,-1.907l1.031,-0.828c-2.703,0.422 -5.406,0.848 -8.148,0.848c-3.68,0 -5.934,-1.469 -9.516,0.023c-2.524,1.051 -5.672,2.657 -8.481,2.094c0.207,-0.074 0.411,-0.152 0.618,-0.234c-1.473,-0.121 -3.578,-0.887 -9.375,-0.914c-4.063,-0.02 -12.243,-2.938 -16.207,-1.739c-0.715,0.215 -1.922,0.352 -3.043,0.364c1.328,0.968 2.144,1.816 0.336,1.015c-3.297,-1.461 -8.739,-2.84 -12.372,-2.84l-3.91,0.95c-0.035,-0.016 -0.074,-0.032 -0.109,-0.051c-0.477,0.238 -1.5,0.531 -2.367,0.664c-0.934,0.144 -2.559,0.582 -3.61,0.976c-1.093,0.415 -2.109,0.684 -3.257,0.508c2.66,-1.332 5.445,-2.586 8.484,-2.656c-0.961,-0.758 -2.172,-2.012 -2.84,-2.41c-4.316,-2.598 -10.863,-2.344 -14.43,1.597c-0.503,0.555 -1.535,2.196 -2.246,3.118c-0.066,0.332 -0.144,0.738 -0.242,1.25c-0.109,0.574 -0.219,1.804 -0.449,2.476c-1.328,3.899 -0.957,10.078 0.648,13.809c2.204,5.113 3.637,10.769 4.434,16.277c0.414,2.867 0.945,5.074 3.492,6.598c0.727,0.437 1,0.601 0.84,0.754c0.648,0.133 1.406,0.289 2.293,0.476c3.355,0.703 7.395,1.278 8.977,1.278c0.675,0 3.066,-0.25 4.902,-0.286Zm-10.969,-33.574c-0.551,-3.105 -2.117,3.2 -2.281,3.715c-0.731,2.301 -3.227,6.141 -5.477,7.195c-0.898,0.422 -1.293,0.957 -1.293,1.754c0,0.434 0,0.703 0.125,0.797c-0.074,0.586 -0.14,1.356 -0.211,2.352c-0.156,2.254 -0.097,4.472 0.129,4.929c0.942,1.879 0.899,-3.082 1.024,-4.105c0.226,-1.828 0.359,-2.984 0.39,-3.715c0.254,-0.152 0.551,-0.336 0.907,-0.551c3.578,-2.187 7.468,-7.945 6.687,-12.371Zm-2.754,-0.539c-0.429,-1.574 -1.953,0.535 -2.23,1.031c-0.957,1.731 -1.598,1.731 -3.348,2.704c-2.832,1.574 -1.644,2.414 1.078,1.183c1.367,-0.617 5.074,-2.816 4.5,-4.918Zm18.485,-2.414c-1.153,-0.402 -2.688,-0.738 -3.411,-0.738c-1.25,0 -1.644,0.988 -0.378,0.746c0.445,-0.086 1.695,0.133 2.777,0.48c1.062,0.344 2.051,0.606 3.109,0.25l-2.097,-0.738Zm25.683,-2.953l1.211,-0.734c-2.344,0 -4.539,0.769 -6.64,1.757c-2.153,1.008 -4.551,1.301 -6.903,1.024c-1.246,-0.145 -1.441,-0.098 -1.441,0.355c0,0.446 0.418,0.555 2.89,0.774c3.801,0.336 7.649,-1.196 10.883,-3.176Zm-7.969,-2.051l1.504,-0.457l-1.933,-0.148c-2.586,-0.196 -5.254,0.273 -6.86,2.386c-0.636,0.84 -1.031,1.086 -1.742,1.086c-1.25,0 -1.207,1.258 0.203,1.008c1.274,-0.226 2.075,-0.582 2.727,-1.699c1.246,-2.125 3.961,-1.523 6.101,-2.176Zm-16.824,-0.207c-1.394,-0.523 -2.914,-0.765 -4.34,-0.265c-0.757,0.265 -0.714,0.519 -0.359,0.734c-0.055,0.168 -0.09,0.367 -0.102,0.594c-0.085,1.551 -1.168,2.199 -2.66,2.289c-1.66,0.101 -0.234,1.262 0.887,1.066c1.727,-0.297 3.188,-1.676 2.98,-3.562c0.403,0.097 0.778,0.16 0.938,0.175c1.766,0.172 3.711,0.645 4.984,1.954c0.356,0.363 2.95,1.433 2.606,0.718c-0.785,-1.625 -3.297,-3.089 -4.934,-3.703Zm59.93,-0.582c-0.043,-0.035 -0.09,-0.066 -0.129,-0.094c-0.055,0.051 -0.109,0.106 -0.168,0.164c-0.871,0.825 -0.93,0.883 -1.277,1.762c0.547,0.008 0.832,-0.191 1.371,-0.625c0.105,-0.086 0.234,-0.176 0.379,-0.265c0.25,-0.454 0.05,-0.75 -0.176,-0.942Zm-9.961,-2.578c2.172,0.414 3.465,0.418 6.324,0.078c1.41,-0.172 5.004,-0.168 4.129,1.586c0.414,0.34 0.988,0.84 1.027,1.152c0.266,-0.113 0.524,-0.207 0.758,-0.273c1.446,-0.414 1.446,-0.414 2.989,-1.043c0.242,-0.098 2.558,-1.305 1.585,-1.75c-0.234,-0.105 -0.234,-0.105 -6.476,-0.312c-3.008,-0.102 -7.301,-0.875 -10.336,0.562Zm-27.113,1.082c1.945,0.457 4.988,0.57 6.34,0.68c1.781,0.148 6.421,0.441 7.281,1.043c0.687,-0.309 1.363,-0.621 2.031,-0.922c-0.801,-0.242 -1.559,-0.512 -2.246,-0.785c-3.774,-1.504 -11.52,-2.114 -15.481,-0.914c-0.183,0.054 -0.355,0.082 -0.511,0.097c0.683,0.2 1.304,0.399 1.828,0.586c0.223,0.082 0.48,0.153 0.758,0.215Zm-17.368,-0.5c1.043,0.027 1.696,-0.152 2.336,-0.586c0.766,-0.515 1.774,-0.812 2.911,-0.941c-2.196,-0.547 -4.434,-0.992 -6.575,-0.992c-1.828,0 -2.328,-0.25 -2.004,-0.489l0.004,-0.004c-0.933,-0.363 -1.816,-0.886 -2.707,-1.422c-2.589,-1.558 -5.98,-2.089 -9.047,-1.417c0.008,-0.032 -0.628,0.058 -1.171,0.128c0.117,1.063 0.617,2.18 0.855,2.665c0.109,0.222 0.492,0.503 0.711,1.027c0.223,-0.016 0.465,-0.02 0.715,-0.02c3.234,0 2.851,-0.531 4.832,-0.144c1.98,0.383 4.183,0.484 6.523,1.293c0.395,0.133 0.977,0.445 1.582,0.824c0.383,0.039 0.727,0.066 1.035,0.078Zm-17.07,-3.535c-0.367,-0.875 -0.625,-1.981 -0.75,-3.18c0,-0.011 -0.269,-0.738 -0.015,-0.972c0.968,-0.887 1.824,-1.711 2.523,-2.586c-0.227,-0.067 -0.473,-0.141 -0.738,-0.219c-3.301,-0.992 -5.43,-1.856 -5.008,-5.57l0.266,-2.336c0.261,1.687 0.132,4.511 1.855,5.375c1.109,0.554 1.109,0.554 1.934,0.746c1.003,0.23 3.66,0.676 4.429,1.73c1.504,0.328 3.02,0.617 3.7,-1.504c0.695,-2.156 1.124,-5.05 1.152,-5.179c0.59,-2.688 1.664,-9.125 -1.77,-12.309c-0.707,-0.656 -2.394,-1.922 -4.25,-2.637c-3.172,-1.222 -9.652,-1.664 -11.683,1.836c-0.817,1.406 -1.098,3.442 -1.231,5.055c-0.07,0.836 -0.48,2.812 -0.265,3.672c0.226,0.894 0.754,1.476 0.984,2.121c0.914,2.562 0.504,4.066 -0.469,6.363c-0.281,0.617 0.141,1.254 -0.863,2.403c-1.688,1.929 -2.297,1.363 -4.027,3.671c-1.121,1.497 -1.309,1.997 -1.793,3.247c3.543,-2.645 8.972,-3.528 12.898,-1.75c1.379,0.624 1.531,0.691 3.121,2.023Zm-4.637,-9.621c-0.093,-0.215 -1.203,-2.125 -1.203,-0.914c0,0.234 0.407,1.636 0.903,3.113c0.898,2.688 0.898,2.688 1.179,3.719c0.637,2.34 0.446,-1.555 0.282,-2.211c-0.59,-2.363 -0.59,-2.363 -1.161,-3.707Z"/><path d="M172.378,135.933l0.485,-2.024c1.078,-2.051 1.55,-4.922 1.543,-7.168c1.718,-1.953 4.343,-3.937 4.476,-6.976c2.559,-2.008 1.274,-5.02 1.211,-10.242c1.551,-0.739 2.547,-3.301 1.629,-5.946c0.648,-0.125 1.281,-0.281 1.891,-0.48c1.179,-0.387 2.183,-0.305 3.187,-0.305c0.695,0 4.496,0.379 5.176,0.141c2.039,1.738 5.312,0.867 7.086,0.867c3.519,0 6.937,-0.027 10.265,-1.313c2.262,-0.871 9.289,-1.761 13.411,-1.843c3.253,0.597 6.89,-0.125 9.519,-2.211c0.551,-0.438 1.719,-0.653 3.516,-0.653c1.601,0 3.207,-0.265 3.972,-0.656c0.653,-0.336 1.512,-0.672 1.996,-0.785c1.579,0.172 3.508,0.023 4.27,-1.149c0.391,-0.605 1.395,-1.144 2.813,-1.511c1.796,-0.465 4.296,-1.184 4.128,-3.446c-0.097,-1.363 -0.097,-1.363 -4.562,-1.363c-2.453,0 -5.961,-0.183 -7.793,-0.414c-3.324,-0.414 -3.336,-0.41 -6.449,1.059c-0.528,0.246 -0.965,0.449 -1.332,0.621c-2.543,-0.258 -4.778,0.297 -6.985,1.152c-1.429,-0.168 -3.043,-0.562 -4.656,-1.137c-3.43,-1.226 -11.387,-3.211 -15.094,-1.871c-1,0.36 -1.84,1.485 -3.633,1.278c-0.261,-0.032 -0.492,-0.055 -0.699,-0.067c-0.093,-0.047 -0.199,-0.094 -0.316,-0.133c-2.344,-0.808 -4.574,-0.992 -6.555,-1.375c-1.98,-0.386 -1.98,-0.386 -5.219,-0.386c-0.457,0 -0.882,0.027 -1.25,0.07l-1.195,-1.004c-2.223,-1.871 -2.223,-1.871 -3.773,-2.57c-2.305,-1.043 -5.129,-1.172 -7.785,-0.563c-0.09,0.024 -0.18,0.047 -0.262,0.075c0.265,-0.29 0.687,-0.559 1.144,-1.141c0.024,-0.024 0.2,-0.336 0.231,-0.34c1.535,-0.065 3.055,1.086 5.055,-0.07c4.527,-2.617 3.91,-17.012 3.609,-18.407c-0.223,-1.011 -1.113,-2.101 -1.699,-2.949c-0.047,-0.066 -1.664,-1.64 -3.086,-2.57c-3.625,-2.375 -14.258,-3.594 -16.692,2.93c-0.886,2.375 -1.855,5.007 -1.547,8.347c0.133,1.418 1.868,3.871 1.454,5.029c-0.696,1.961 -1.02,3.448 -2.122,5.026c-0.656,0.945 -4.031,1.687 -6.199,8.437l0,0.004c-1.261,0.719 -2.09,2.746 -2.578,3.809c-0.394,0.855 -1.492,2.723 -2.93,4.457c-2.054,2.48 -3.082,10.109 -2.593,15.031c0.543,5.492 0.574,11.36 -0.508,16.793c-0.254,1.274 -0.309,3.305 0.473,4.594c-0.493,1.098 -0.942,3.215 -1.329,5.059c-0.468,0.574 -0.796,1.175 -0.793,1.597c0.004,1.356 -0.308,3.789 -0.699,5.414c-1.16,4.809 1.012,11.164 4.203,14.875c1.711,1.989 1.551,2.27 1.926,2.633c9.102,8.656 15.07,1.129 20.074,0.922c2.996,-0.125 4.895,-0.297 6.868,-1.188c-2.028,2.301 -4.594,4.856 -6.422,6.368c-0.77,0.636 -1.45,1.269 -2.024,1.945c-0.019,-0.004 -0.027,0.004 -0.027,0.031c-0.004,0 -0.004,0.004 -0.004,0.004c-0.008,0.008 -0.012,0.016 -0.02,0.02c-0.312,0.336 -4.211,3.972 -4.207,4.015c-1.304,2.164 -3.515,7.649 -2.961,9.68c0.68,2.504 4.372,2.914 6.454,3.172c3.304,0.414 3.304,0.414 4.546,1.242c1.231,0.82 1.758,1.141 4.34,1.406c0.18,0.895 2.778,1.153 3.102,0.95c0.348,-0.223 1.156,0.214 1.98,0.085c0.489,0.004 1.59,-0.152 2.067,-0.175c3.054,0 5.265,-1.047 6.98,-3.235c1.559,-1.984 0.145,-2.988 -1.187,-4.699c-0.832,-1.066 -3.352,-3.433 -4.844,-2.484c-1.441,-0.93 -3.402,-2.664 -5.254,-4.653c-0.316,-0.336 -0.973,-0.605 -1.523,-0.902c0.941,-0.879 1.933,-1.668 2.996,-2.152c0.933,-0.43 0.933,-0.43 3.613,-2.407c1.477,-1.085 3.555,-2.363 4.621,-2.839c0.41,-0.184 0.828,-0.352 1.258,-0.52c2.519,-1.211 5.379,-4.215 7.316,-6.559c1.946,-0.285 4.219,-0.589 6.004,-0.464c1.231,0.082 2.465,-0.098 3.676,-0.371c1.215,0.425 3.324,0.808 3.547,0.964c1.887,1.328 4.047,2.801 4.805,3.278c2.855,1.793 8.652,3.758 11.484,2.328c0.711,-0.36 10.312,1.293 14.062,1.519c3.082,0.188 5.051,1.411 7.758,2.539c0.106,0.043 0.207,0.079 0.301,0.102c1.102,1.066 4.617,3.121 5.313,3.816c0.984,0.981 2.207,1.602 3.578,1.618c2.472,-0.637 4.293,-5.84 4.382,-7.012c0.157,-2.055 1.418,-3.684 2.532,-5.203c0.543,-0.742 0.707,-0.985 0.797,-1.176c0.242,-0.504 0.73,-0.805 1.171,-1.117c1.618,-1.141 2.625,-3.149 2.766,-5.114c0.004,-0.078 0.012,-0.152 0.02,-0.218l0.004,0c0.089,-0.059 0.179,-0.137 0.257,-0.239c0.145,-0.183 0.285,-0.398 0.422,-0.632c0.574,-0.465 0.953,-1.633 1.071,-2.161c0.261,-1.21 0.218,-2.542 -0.536,-3.511c-0.113,-0.043 -0.218,-0.098 -0.3,-0.168c-0.207,-0.176 -0.457,-0.285 -0.715,-0.309c-0.774,-0.179 -1.559,0.653 -2.168,1.379c-0.774,0.582 -2.231,0.754 -3.168,1.074c0.015,-0.023 -1.559,1.899 -3.188,2.239c-0.812,0.172 -5.601,3.129 -6.371,3.879c-0.508,0.492 -3.972,0.832 -6.136,1.062c-2.872,-0.344 -5.469,-0.992 -8.161,-1.84c-4.789,-1.512 -7.109,-2.523 -13.347,-5.426c-0.668,-0.449 -4.649,-2.136 -8.969,-2.589c-3.063,-0.325 -5.313,-0.465 -6.516,-0.407c-1.281,-1.449 -2.304,-2.211 -3.886,-2.82c0.371,-3.559 -0.606,-7.074 -3.379,-8.992c-4.907,-3.395 -11.426,-1.539 -16.789,-0.61c-1.383,0.235 -2.602,0.528 -3.407,0.801c-0.074,-0.054 -0.144,-0.105 -0.218,-0.156c-0.036,-0.688 -0.914,-0.645 -0.926,-0.637c-1.836,-0.508 -6.313,-0.031 -9.02,1.227c-0.613,0.281 -1.531,0.621 -2.574,0.988c-0.141,-0.941 -0.109,-1.934 -0.254,-1.898Zm11.156,3.554c-2.062,5.969 -2.605,8.743 -1.007,14.66c3.109,-3.8 9.629,-6.562 13.593,-6.562c0.411,0 1.43,0.812 1.364,1.117c-2.692,-0.441 -4.453,1.375 -7.864,2.703c-5.242,2.043 -6.726,5.157 -8.414,8.235c-0.285,0.523 0.328,1.183 -2.152,3.445c-3.977,3.625 -5.816,5.637 -8.785,8.266l-3.008,2.66c0.008,-0.031 0.016,-0.067 0.023,-0.098c-0.015,0.016 -0.023,0.024 -0.023,0.027c-0.109,0.618 -1.832,1.922 -2.266,3.317c-1.511,4.863 -3.078,7.137 2.899,7.785c2.031,0.223 4.32,0.906 6.687,1.582c0.61,0.371 1.383,0.617 1.903,0.969c0.445,0.304 1.148,0.476 1.855,0.465c0.668,1.316 2.406,1.386 3.684,0.761c1.402,0.375 3.351,0.149 4.609,-0.48c0.133,-0.066 0.258,-0.156 0.375,-0.266c0.418,-0.066 0.793,-0.265 0.953,-0.711c0.153,-0.41 0.864,-0.422 1.223,-0.574c0.633,-0.269 1.031,-1.074 0.66,-1.711c-0.309,-0.523 -0.973,-0.875 -1.48,-1.18c-0.465,-0.277 -0.872,-0.531 -1.266,-0.906c-0.434,-0.418 -0.758,-0.656 -1.34,-0.793c-0.398,-0.097 -0.914,-0.125 -1.433,-0.074c-0.454,-0.769 -1.098,-1.605 -1.825,-2.004c-0.144,-0.078 -0.304,-0.137 -0.472,-0.18c-0.286,-0.343 -0.559,-0.671 -0.793,-0.992c-0.696,-0.941 -2.731,-2.316 -3.871,-3.011c-0.688,0.703 -1.352,1.402 -2,2.011c0.179,-1.34 0.793,-2.718 1.578,-4.031c1.465,-1.555 7.195,-5.66 8.851,-6.633c0.918,-0.543 1.906,-1.121 2.914,-1.742c0.317,-0.121 0.629,-0.234 0.926,-0.324c0.254,-0.238 0.508,-0.488 0.762,-0.742c3.418,-2.227 6.875,-4.938 8.941,-8.258c-0.406,-0.309 0.617,-1.215 1.559,-1.656c7.316,-3.446 9.89,-18.004 -0.594,-18.504c-1.461,-0.067 -5.605,0.238 -9.211,0.683c-3.363,0.41 -5.379,0.555 -6.234,0.438c-0.414,0.722 -1.141,1.773 -1.321,2.308Zm17.895,16.543c-0.105,0.438 -0.336,0.934 -0.688,1.297c-0.429,0.438 -0.48,0.602 -0.675,0.871c0.703,-0.035 1.437,-0.07 2.168,-0.09c3.007,-0.101 6.492,-0.418 7.746,-0.707c0.941,-0.222 2.57,-1.101 3.156,-0.011c0.184,0.347 -0.117,0.582 -1.422,0.988c0.629,0.211 1.406,0.566 2.332,1.16c3.719,2.379 8.02,5 12.582,4.277c2.215,-0.351 2.754,-0.332 3.656,0.133c0.582,0.301 1.836,0.61 2.79,0.688c1.726,0.144 1.726,0.144 3.171,0.515c2.684,0.684 6.93,0.391 10.317,1.266c0.355,-0.047 1.609,0.238 2.426,0.656c0.902,0.465 1.847,1.016 2.015,1.235c0.063,0.086 0.125,0.164 0.192,0.246c0.683,1.23 1.871,2.086 2.972,2.855c0.364,0.258 0.789,0.543 1.239,0.774c0.136,0.152 0.277,0.281 0.375,0.359c1.085,0.891 2.125,1.234 3.433,0.43c0.418,-0.262 0.746,-0.61 1.02,-1.004c0.312,-0.406 0.566,-0.918 0.75,-1.332c0.105,-0.473 0.304,-1.02 0.527,-1.399c0.004,-0.007 0.008,-0.011 0.012,-0.019c-0.012,-0.016 -0.02,-0.031 -0.028,-0.047c0.223,-1.008 0.227,-2.074 0.399,-3.086c0.008,-0.062 0.012,-0.137 0.012,-0.219c0.246,-0.469 0.531,-0.898 0.8,-1.25c1.157,-1.535 2.203,-3.57 3.84,-4.644c1.539,-1.012 2.09,-2.742 2.266,-4.496c0.004,-0.055 0.008,-0.11 0.012,-0.157c0.058,-0.019 0.117,-0.039 0.179,-0.062c1.668,-0.652 3.227,-3.043 1.934,-4.75c-0.196,-0.254 -0.43,-0.36 -0.645,-0.356c-0.152,0.141 -0.312,0.293 -0.468,0.454c-0.75,0.773 -1.168,1.214 -2.208,1.519c-0.289,0.086 -0.546,0.168 -0.781,0.27c-0.011,0.019 -0.023,0.043 -0.035,0.066c-0.066,0.039 -0.125,0.078 -0.172,0.113c-0.344,0.239 -0.719,0.711 -0.961,1.231c-0.035,0.015 -0.074,0.031 -0.105,0.047c-0.352,0.152 -0.699,0.332 -1.039,0.527c-1.223,0.559 -2.719,1.387 -3.957,2.012c-0.934,0.472 -2.028,0.797 -2.75,1.597c-0.418,0.461 -0.973,0.762 -1.489,1.071c-0.273,0.164 -0.589,0.386 -0.753,0.535c-0.008,0 -0.02,0 -0.028,0c-0.152,-0.012 -0.305,-0.016 -0.453,-0.016c-4.691,0.918 -10.5,-0.008 -15.113,-1.722c-4.344,-1.618 -6.996,-2.704 -8.563,-3.641c-1.676,-1.004 -7.492,-3.231 -13.937,-3.965c-5.184,-0.594 -6.461,-0.844 -6.539,-1.289c-0.028,-0.145 0.011,-0.277 0.121,-0.391c-0.141,-0.089 -0.262,-0.172 -0.352,-0.242c-0.933,-0.722 -1.41,-1.07 -2.058,-1.355c-0.934,4.105 -3.582,7.933 -7.223,9.058Zm29.988,3.547c-3.82,-4.676 -9.578,-4.586 -15.179,-5.281l5.273,2.156c4.559,1.028 6.43,1.281 9.602,4.453c3.617,3.618 2.582,1.461 0.304,-1.328Zm-44.457,2.446c2.977,-2.493 5.27,-5.114 6.969,-8.555c-3.715,4.344 -7.609,8.437 -11.648,12.476l4.679,-3.921Zm14.219,-14.653c-0.422,-2.305 -3.684,-2.695 -2.231,-1.597c2.516,1.906 0.399,3.675 -1.796,5.296l2.207,-0.8c1.777,-0.649 2.132,-1.207 1.82,-2.899Zm-42.004,-7.383c0.899,0.118 4.551,0.262 6.125,0.625c0.981,-0.609 3.391,-1.429 5.676,-2.207c-0.074,-0.816 0.031,-1.89 0.222,-2.363c-0.289,0.231 -0.921,0.543 -2.015,0.953c-2.293,0.86 -3.383,0.817 -11.934,-0.469c-3.996,-0.605 -6.468,-1.046 -7.894,-1.449c0.093,0.457 0.058,0.871 -0.145,1.336c0.094,0.238 0.129,0.578 0.09,1.047c-0.012,0.16 -0.098,0.301 -0.226,0.426c0.171,-0.039 0.531,0.058 1.152,0.363c0.832,0.414 4.859,1.191 8.949,1.738Zm-0.375,1.778c-2.754,-0.274 -5.547,-0.914 -7.445,-1.567c-1.012,-0.347 -2.485,-1.789 -2.395,-2.207c-0.558,0.457 -1.574,0.774 -1.336,1.496c0.453,1.356 0.383,2.008 -0.316,2.91c-3.984,5.145 0.961,12.786 3.973,16.95c3.695,5.117 7.293,6.578 12.746,3.722c1.941,-1.015 4.336,-1.644 7.386,-1.945c2.485,-0.242 5.496,-0.766 6.696,-1.164c1.172,-0.387 1.828,-3.48 3.011,-3.566c-0.222,-0.219 0.028,-1.954 -0.172,-2.352c-2.902,-5.922 0.676,-14.332 1.485,-16.387c0.168,-0.429 0.461,-0.754 0.695,-1.047c-1.097,0.102 -2.176,0.325 -3.242,0.782c-4.277,1.832 -12.02,3.168 -14.266,5.281c-0.906,0.852 -3.359,3.715 -2.652,0.828c0.121,-0.492 0.559,-1.172 1.113,-1.797c-1.547,0.266 -3.406,0.25 -5.281,0.063Zm5.91,-6.102c1.547,0.035 3.254,-0.433 4.707,-0.933c0.196,-0.407 0.34,-0.907 0.481,-1.547c0.297,-1.379 1.531,-0.157 2.179,-1.879c1.184,-3.129 -0.187,-4.938 0.778,-5.598c1.808,-1.238 4.133,-3.875 4.133,-4.562c0.007,-2.922 1.039,-2.743 1.378,-3.618c0.918,-2.371 -0.253,-4.218 0.059,-7.726c0.094,-0.063 0.188,-0.129 0.277,-0.199c-0.421,-0.457 1.039,-1.969 1.778,-3.102c0.207,-0.312 0.035,-1.633 -0.024,-2.734c-4.015,0.457 -8.5,-0.379 -11.859,-2.125c-0.106,-0.055 -0.941,-0.657 -1.731,-1.305c-0.14,0.047 -0.316,0.09 -0.523,0.129c2.039,2.691 3.234,4.629 4.633,5.754c1.762,1.429 0.992,1.676 4.015,1.672c1.27,0 5.235,1.105 2,1.847c-4.535,1.032 -7.359,0.051 -12.164,-9.074c-0.195,0.02 -0.398,0.039 -0.617,0.055c-0.371,0.031 -0.742,0.062 -1.113,0.09c0.008,0.027 0.016,0.054 0.023,0.082c1.235,4.324 -2.039,10.449 -5.371,13c-0.332,0.25 -0.609,0.461 -0.847,0.64c0.046,0.727 0.035,1.891 0,3.735c-0.024,1.027 0.535,5.961 -0.598,4.187c-0.273,-0.429 -0.559,-2.629 -0.637,-4.89c-0.035,-0.997 -0.047,-1.77 -0.031,-2.36c-0.137,-0.078 -0.164,-0.347 -0.207,-0.777c-0.082,-0.797 0.254,-1.371 1.102,-1.879c2.089,-1.258 4.136,-5.203 4.675,-7.586c-1.199,0.77 -2.683,1.293 -3.453,1.496c-2.89,0.754 -3.918,-0.281 -0.863,-1.348c1.891,-0.664 2.523,-0.554 3.758,-2.101c0.164,-0.203 0.64,-0.692 1.125,-1.012c0.097,-0.41 0.203,-0.801 0.32,-1.121c-1.176,0.074 -2.348,0.121 -3.531,0.121c1.961,-1.109 3.695,-1.871 6.023,-1.871c0.387,0 2.446,0.016 3.668,0.699c4.684,2.625 9.625,2.516 14.621,1.5c-0.312,-0.074 -0.625,-0.172 -0.941,-0.273c-1.086,-0.348 -2.336,-0.563 -2.777,-0.481c-1.27,0.243 -0.875,-0.746 0.375,-0.746c0.722,0 2.257,0.336 3.41,0.742l1.351,0.473c2.199,-0.383 1.821,0.098 2.653,0.098c0.234,0 6.046,-0.168 5.605,0.359c4.582,1.176 9.289,1.387 13.309,-0.43c2.836,-1.285 5.336,-1.878 9.273,-1.582c1.414,0.102 2.988,0.028 4.297,-0.046c-1.719,-1.176 -0.313,-2.325 1.879,-1.317c2.871,1.32 6.105,1.031 8.781,-0.695c0.781,-0.504 2.055,-0.906 2.828,-0.895c2.418,0.035 7.715,0.11 9.145,-2.371c0.621,-1.082 0.621,-1.082 1.652,-1.906l1.035,-0.828c-2.703,0.422 -5.406,0.848 -8.148,0.848c-3.684,0 -5.934,-1.469 -9.516,0.019c-2.523,1.051 -5.672,2.66 -8.48,2.098c0.203,-0.075 0.406,-0.153 0.609,-0.235c-1.469,-0.121 -3.574,-0.886 -9.371,-0.914c-4.059,-0.019 -12.238,-2.937 -16.203,-1.738c-0.723,0.215 -1.945,0.352 -3.074,0.363c1.355,0.969 2.191,1.817 0.343,1.016c-3.257,-1.414 -12.3,-2.422 -16.207,-2.039c-0.019,0.015 -0.043,0.027 -0.07,0.043c-0.422,0.25 -1.527,0.574 -2.461,0.719c-0.93,0.14 -2.555,0.582 -3.605,0.976c-1.094,0.41 -2.11,0.684 -3.258,0.504c2.64,-1.32 5.41,-2.566 8.426,-2.652l-3.215,-2.41c-3.867,-2.282 -9.481,-2.364 -13.258,0.308c-0.012,0.039 -0.023,0.082 -0.039,0.121c-0.172,0.414 -0.574,0.641 -1.176,1.164c-0.918,0.801 -0.926,1.071 -2.133,3.317c-0.277,0.519 -1.996,3.605 -2.418,4.183c-2.433,3.324 -2.683,7.375 -2.265,11.414c0.57,5.539 0.25,11.367 -0.641,16.86c-0.461,2.859 -0.613,5.125 1.356,7.34c0.289,0.324 0.488,0.546 0.582,0.699c0.898,0.34 2.062,0.691 3.566,0.984c1.719,0.332 3.828,0.633 5.75,0.856c-0.016,-0.622 0.121,-1.657 0.41,-3.047c0.465,-2.235 0.988,-5.465 -0.012,-7.66c-0.582,-1.266 -2.183,-4.829 -0.199,-2.911c0.559,0.539 1.199,1.993 1.43,3.227c0.246,1.352 0.672,5.602 0.273,8.305c-0.164,1.101 -0.343,1.8 -0.535,2.234c1.528,0.156 2.813,0.246 3.5,0.246Zm9.11,-16.453c1.558,-1.719 0.847,-2.477 -0.633,-0.789c-2.016,2.297 -6.965,3.949 -9.61,2.062c-1.898,-1.359 -1.984,0.387 -0.558,1.36c3.398,2.312 8.34,0.082 10.801,-2.633Zm-9.403,-4.008l-0.004,-0.008c0.981,0.004 2.235,-0.425 2.121,-1.617c-0.152,-1.637 -1.816,0.328 -2.472,0.598c-0.785,0.32 -0.887,0.609 -0.637,0.797c-0.242,0.304 -0.441,0.734 -0.488,1.019c-0.153,0.922 -2.758,-0.004 -3.375,-0.297c-0.184,-0.089 -0.102,0.239 -0.004,0.645c0.43,1.746 5.473,1.359 4.859,-1.137Zm45.199,-19.312l1.211,-0.735c-2.343,0 -4.539,0.77 -6.64,1.754c-2.153,1.008 -4.555,1.301 -6.906,1.028c-1.243,-0.145 -1.442,-0.098 -1.442,0.351c0,0.449 0.422,0.559 2.895,0.777c3.8,0.336 7.648,-1.199 10.882,-3.175Zm-25.027,-1.188c-1.394,-0.523 -2.914,-0.765 -4.34,-0.265c-0.758,0.265 -0.715,0.523 -0.359,0.734c-0.055,0.168 -0.09,0.371 -0.102,0.594c-0.09,1.55 -1.168,2.203 -2.664,2.289c-1.656,0.101 -0.23,1.261 0.891,1.07c1.726,-0.297 3.187,-1.68 2.98,-3.566c0.403,0.097 0.778,0.16 0.938,0.175c1.765,0.172 3.711,0.645 4.984,1.954c0.356,0.363 2.949,1.437 2.606,0.722c-0.785,-1.629 -3.297,-3.094 -4.934,-3.707Zm60.309,-1.219c-0.11,-0.093 -0.313,-0.136 -0.657,-0.16c-0.667,0.637 -0.746,0.754 -1.066,1.555c0.551,0.008 0.832,-0.191 1.371,-0.621c0.11,-0.086 0.238,-0.176 0.379,-0.27c0.078,-0.25 0.086,-0.406 -0.027,-0.504Zm-43.25,0.356l1.504,-0.457l-1.934,-0.149c-2.586,-0.195 -5.258,0.274 -6.859,2.387c-0.641,0.84 -1.032,1.082 -1.746,1.082c-1.247,0 -1.204,1.262 0.207,1.012c1.269,-0.227 2.07,-0.582 2.726,-1.699c1.242,-2.125 3.961,-1.524 6.102,-2.176Zm47.093,-3.809c-0.882,-0.031 -2.054,-0.07 -3.613,-0.121c-1.535,-0.054 -3.398,-0.277 -5.262,-0.297c-0.253,-0.156 -0.542,-0.281 -0.859,-0.359c-1.262,-0.32 -2.555,0.047 -3.422,0.898c-0.273,0.094 -0.543,0.2 -0.797,0.321c2.172,0.414 3.465,0.418 6.325,0.074c1.421,-0.168 5.062,-0.164 4.113,1.629c0.851,-0.02 0.937,0.191 1.047,1.113c0.265,-0.113 0.523,-0.207 0.754,-0.273c1.449,-0.414 1.449,-0.414 2.992,-1.047c0.242,-0.098 2.558,-1.301 1.586,-1.746c-0.176,-0.082 -0.219,-0.102 -2.864,-0.192Zm-43.652,0.719c0.688,0.199 1.305,0.402 1.828,0.59c1.801,0.641 5.559,0.766 7.102,0.894c1.781,0.149 6.422,0.442 7.281,1.043c0.688,-0.308 1.363,-0.621 2.031,-0.921c-0.804,-0.239 -1.562,-0.512 -2.246,-0.786c-3.773,-1.507 -11.519,-2.117 -15.484,-0.918c-0.184,0.055 -0.352,0.086 -0.512,0.098Zm-28.824,-1.75c3.012,-0.019 2.254,-0.375 4.223,0c2.023,0.383 4.726,0.34 7.117,1.148c0.402,0.137 0.988,0.446 1.601,0.821c1.739,0.195 2.598,0.07 3.442,-0.5c0.676,-0.457 1.539,-0.738 2.515,-0.891c-1.683,-0.312 -3.382,-0.508 -5.25,-0.508c-1.828,0 -2.992,0.129 -2.664,-0.113l-2.972,-2.34c-2.59,-1.554 -5.981,-2.086 -9.051,-1.414c0.008,-0.019 -0.164,0 -0.406,0.031c0.023,1.153 0.613,2.477 0.878,3.016c0.086,0.176 0.352,0.398 0.567,0.75Zm-1.527,0.07c0.019,-0.004 0.043,-0.004 0.066,-0.007c-0.676,-0.743 -1.168,-2.086 -1.418,-3.653c-0.051,0.004 -0.078,0 -0.074,-0.008c0.047,-0.168 -0.028,-0.355 -0.008,-0.558c-0.012,-0.082 -0.02,-0.168 -0.027,-0.25c-0.004,-0.012 -0.27,-0.738 -0.016,-0.973c0.91,-0.832 1.719,-1.608 2.391,-2.422c-0.293,-0.09 -0.618,-0.186 -0.973,-0.293c-3.305,-0.992 -5.43,-1.854 -5.008,-5.57l0.262,-2.336c0.265,1.691 0.133,4.513 1.859,5.375c1.106,0.555 1.106,0.555 1.934,0.746c0.933,0.215 3.301,0.617 4.242,1.525c1.672,0.336 3.488,0.987 4.254,-1.391c0.691,-2.156 1.125,-5.052 1.152,-5.177c0.59,-2.687 1.664,-9.125 -1.769,-12.308c-0.707,-0.657 -2.395,-1.922 -4.25,-2.637c-3.172,-1.223 -9.657,-1.664 -11.688,1.836c-0.816,1.402 -1.093,3.437 -1.23,5.055c-0.067,0.832 -0.481,2.808 -0.262,3.667c0.227,0.9 0.754,1.477 0.984,2.125c0.915,2.564 1.348,2.25 0.375,4.547c-0.281,0.619 -0.546,2.293 -1.55,3.442c-1.637,1.875 -2.907,1.484 -5.11,6.074c3.399,-1.523 7.59,-1.805 10.793,-0.383c1.582,0.699 1.582,0.699 3.852,2.57l1.219,1.004Zm-4.864,-9.629c-0.093,-0.217 -1.203,-2.125 -1.203,-0.914c0,0.236 0.406,1.637 0.903,3.114c0.898,2.687 0.898,2.687 1.179,3.718c0.637,2.34 0.445,-1.558 0.281,-2.211c-0.589,-2.363 -0.589,-2.363 -1.16,-3.707Z"/></svg>