<?xml version="1.0" encoding="UTF-8" standalone="no"?><!DOCTYPE svg PUBLIC "-//W3C//DTD SVG 1.1//EN" "http://www.w3.org/Graphics/SVG/1.1/DTD/svg11.dtd"><svg width="100%" height="100%" viewBox="0 0 160 97" version="1.1" xmlns="http://www.w3.org/2000/svg" xmlns:xlink="http://www.w3.org/1999/xlink" xml:space="preserve" xmlns:serif="http://www.serif.com/" style="fill-rule:evenodd;clip-rule:evenodd;stroke-linejoin:round;stroke-miterlimit:1.41421;"><path id="dp_path004" d="M127.505,62.022c-0.436,-0.648 -1.198,-0.044 -1.731,0.672c0.017,-0.079 0.035,-0.158 0.052,-0.231c-0.001,-1.255 0.302,-2.391 1.206,-3.287c0.097,-0.098 0.183,-0.185 0.258,-0.266c0.048,-0.016 0.094,-0.069 0.134,-0.145c0.096,-0.108 0.167,-0.198 0.214,-0.272c-0.002,-0.002 -0.003,-0.005 -0.003,-0.008c0.06,-0.013 0.108,-0.058 0.131,-0.145c0.025,-0.094 -0.081,-0.608 -0.235,-1.141c-0.07,-0.237 -0.13,-0.482 -0.181,-0.73c-0.071,-1.015 -0.113,-1.671 -0.14,-2.098c0.016,-0.187 0.041,-0.371 0.076,-0.553c0.14,-0.728 -0.106,-0.741 -0.294,-0.317c-0.077,0.045 -0.152,0.166 -0.176,0.253c-0.02,0.069 -0.024,0.232 -0.017,0.456c-0.224,1.157 -0.196,2.465 0.148,3.595c-0.005,0.077 -0.006,0.156 -0.003,0.235c-0.092,0.24 -0.155,0.551 -0.158,0.733c-0.2,0.2 -0.367,0.395 -0.426,0.458c-0.155,0.174 -0.288,0.361 -0.4,0.564c-0.813,0.765 -0.858,2.238 -0.607,3.577c-0.103,0.205 -0.168,0.39 -0.178,0.519c-0.009,0.119 -0.013,0.224 -0.011,0.319c-0.108,0.316 -0.216,0.63 -0.228,0.635c-0.099,0.203 -0.196,0.385 -0.294,0.567c-0.027,-0.061 -0.053,-0.124 -0.081,-0.187c-0.031,-0.169 -0.059,-0.309 -0.069,-0.388c-0.059,-0.485 -0.111,-0.822 -0.161,-1.051c0.096,-0.061 0.542,0.508 0.258,-0.332c-0.032,-0.095 -0.065,-0.19 -0.097,-0.282c-0.035,-0.032 -0.069,-0.066 -0.101,-0.106c-0.046,-0.261 -0.166,-0.559 -0.218,-0.714c-0.105,-0.316 -0.221,-0.759 -0.301,-1.141c0.012,-0.024 0.026,-0.045 0.042,-0.064c0.002,-0.005 0.003,-0.01 0.005,-0.013c0.006,-0.021 0.012,-0.039 0.017,-0.055c-0.032,-0.069 -0.061,-0.145 -0.084,-0.224c-0.034,-0.095 -0.063,-0.195 -0.084,-0.295c-0.087,-1.002 0.23,-1.83 0.494,-2.763c0.039,-0.036 0.079,-0.071 0.121,-0.1c0.024,-0.039 0.042,-0.073 0.056,-0.102c0.147,-0.153 0.32,-0.261 0.519,-0.304l1.276,0.385c0.272,-0.319 -0.624,-0.767 -1.188,-0.801l-0.001,0c-0.05,0.026 -0.095,0.029 -0.133,0c-0.074,0.005 -0.137,0.021 -0.185,0.047c-0.015,0.008 -0.03,0.016 -0.043,0.024c0.044,-0.095 0.091,-0.192 0.137,-0.292c-0.111,-0.63 0.409,-1.265 0.943,-1.64c-0.19,-0.103 -0.373,-0.216 -0.548,-0.342c0.069,-0.169 0.123,-0.607 0.123,-1.352c0,-0.28 0,-0.509 0,-0.701c0.016,-0.069 0.032,-0.143 0.051,-0.222c0.037,-0.161 0.062,-0.298 0.077,-0.414c0.335,0.145 0.484,0.09 0.531,-0.066l0.002,0c0.348,0.019 0.879,0.019 1.676,0.019c1.308,0 2.556,-0.063 2.774,-0.142c0.187,-0.069 0.435,-0.285 0.594,-0.509l0.965,0.053c0.772,0.042 1.165,0.063 1.405,0.079c-0.031,0.276 -0.045,0.68 -0.045,1.23c0,0.957 0.066,2.077 0.146,2.491c0.087,0.446 0.222,0.691 0.431,0.775c0.005,0.076 0.017,0.156 0.041,0.235c0.345,1.191 1.147,2.203 1.749,3.281c0.152,0.271 0.437,0.63 0.647,0.759l0.001,0c0.044,0.293 0.616,0.791 0.794,0.994c0.459,0.524 0.735,1.062 0.759,1.478c0.017,0.298 0.073,0.454 0.143,0.509c0.025,0.514 0.149,1.207 0.293,1.592c0.109,0.287 0.304,0.656 0.489,0.912c0.013,0.374 -0.005,0.753 -0.071,1.112c-0.127,0.361 -0.215,0.648 -0.211,0.693c0.001,0.005 0,0.016 -0.002,0.029c-0.093,0.214 -0.212,0.417 -0.361,0.596c-0.279,0.337 -0.335,0.595 -0.226,0.616c0.023,0.077 0.066,0.177 0.117,0.309c0.004,0.018 0.01,0.034 0.018,0.047l0.001,0.003c0.136,0.35 0.32,0.896 0.38,1.703c0.016,0.271 0.043,0.542 0.057,0.674c0.002,0.029 0.005,0.058 0.008,0.087c-0.049,0.477 -0.057,0.978 -0.025,1.392c-0.475,-0.277 -0.434,0.427 0.123,1.136c0.881,1.125 0.995,1.31 0.624,2.688c-0.116,0.43 -0.018,0.604 0.135,0.596c0.051,0.192 0.127,0.385 0.154,0.453c0.001,0.003 0.002,0.005 0.003,0.008c0.092,1.002 -0.022,1.523 -0.022,2.528c0,1.043 -0.069,2.748 0.05,3.405c-0.021,0.002 -0.041,0.002 -0.061,0.005c-1.229,0.145 0.554,0.456 1.246,0.382l0.584,0.09c0.064,-0.003 0.137,-0.005 0.218,-0.008c0.423,-0.013 0.589,-0.008 0.67,0.066l0.001,0c0.102,0.008 0.192,0.018 0.268,0.029c0.235,0.24 0.737,0.39 1.074,0.49c0.031,0.013 0.063,0.026 0.095,0.04c0.067,0.023 0.126,0.042 0.188,0.058c0.02,0.015 0.041,0.031 0.063,0.05c0.474,0.203 0.719,0.318 0.836,0.416c0.046,0 0.091,0.005 0.132,0.016c0.045,0.026 0.083,0.053 0.111,0.076c0.006,0.003 0.012,0.008 0.019,0.013c-0.059,0.127 -0.103,0.261 -0.119,0.383c-0.199,0.108 -0.55,0.158 -0.88,0.139c-0.007,0.006 -0.014,0.013 -0.02,0.019c-0.498,-0.093 -0.576,-0.121 -1.284,-0.375c-0.116,-0.042 -0.214,-0.076 -0.299,-0.105c-0.094,-0.087 -0.252,-0.158 -0.48,-0.195c-0.641,-0.1 -0.641,-0.1 -0.805,-0.1c-0.164,0 -0.31,0.055 -0.413,0.169c-0.261,-0.285 -0.512,-0.506 -0.576,-0.506c-0.08,0 -0.108,0.137 -0.08,0.382c0.045,0.398 0.388,0.814 0.772,0.93l0.001,0c0.02,0.032 0.038,0.063 0.053,0.092c-0.015,0.035 -0.014,0.079 -0.004,0.132c-0.165,0.034 -0.305,0.071 -0.37,0.082c-0.394,0.074 -0.851,-0.33 -1.181,-0.53c-0.471,-0.606 -0.783,-0.15 -1.109,-0.828c-0.029,-0.06 -0.056,-0.113 -0.081,-0.158c-0.052,-0.321 -0.101,-0.78 -0.125,-1.236c-0.15,-1.091 -0.268,-2.158 -0.765,-3.497c-0.17,-0.417 -0.248,-1.964 -0.38,-2.235c-0.016,-0.129 -0.032,-0.227 -0.054,-0.28c-0.087,-0.208 -0.211,-1.175 -0.296,-1.781c0.624,-0.659 1.059,-1.431 1.119,-2.159c0.094,-1.144 -0.138,-3.418 -1.204,-4.159c-0.123,-0.084 -0.228,-0.147 -0.318,-0.192c-0.05,-0.783 -0.04,-0.846 0.091,-1.608c0.013,-0.074 0.022,-0.142 0.027,-0.206c0.596,0.035 0.616,-0.039 0.779,-0.645c0.172,-0.638 -0.132,-1.02 -0.472,-0.406c-0.061,0.306 -0.186,0.619 -0.293,0.701c-0.104,0.082 -0.104,0.082 -0.522,0.498c-0.075,0.074 -0.148,0.134 -0.217,0.179c-0.104,0.448 -0.154,1.141 -0.111,1.682c0.064,0.812 0.38,1.136 0.577,0.92c0.087,0.192 0.175,0.371 0.241,0.5c0.925,1.843 1.024,3.298 -0.651,4.668c-0.639,0.522 -2.504,1.689 -3.148,0.63c-0.146,-0.237 -0.573,-0.633 -0.926,-0.836c-0.573,-0.635 -1.191,-1.576 -1.517,-2.482c-0.356,-0.556 -0.628,-1.239 -0.321,-1.769c0.063,-0.11 0.206,-0.224 0.343,-0.277c0.068,-0.097 0.15,-0.184 0.249,-0.26c0.114,-0.09 0.207,-0.172 0.281,-0.248l0,0.002c0.18,0.733 0.696,0.111 0.606,-0.846c-0.021,-0.221 -0.052,-0.395 -0.09,-0.529c0.51,0.081 1.07,0.076 1.552,-0.024c0.229,0.988 1.786,2.314 1.231,0.783c-0.045,-0.124 -0.456,-0.617 -0.797,-0.91c0.053,-0.021 0.104,-0.042 0.152,-0.065c0.949,-0.464 -0.636,-0.488 -1.073,-0.388c-0.623,0.14 -0.847,0.116 -1.451,-0.158c-0.694,-0.316 -1.611,-0.208 -0.701,0.385c0.176,0.113 0.393,0.205 0.635,0.276c-0.074,0.188 -0.124,0.475 -0.124,0.833c0,0.019 0,0.035 0.001,0.05c-0.213,0.008 -0.509,0.111 -0.789,0.311c-0.708,0.506 -0.931,1.181 -0.866,1.909c0.019,0.031 0.037,0.068 0.056,0.102c0.35,0.672 0.639,1.408 0.844,2.167c0.375,0.59 0.811,1.128 1.19,1.544c0.056,0.061 0.122,0.122 0.195,0.18c0.832,2.069 2.974,1.736 4.584,0.577c0.036,0.54 0.181,0.917 0.353,1.209c0.107,0.459 0.031,0.738 0.279,2.13c0.02,0.145 0.562,1.049 0.872,2.066c0.444,1.458 0.241,1.708 0.382,2.639c0.117,0.764 0.136,0.98 0.487,1.244c0.159,0.118 0.262,0.163 0.324,0.163c0.114,0.113 0.247,0.2 0.396,0.285c0.197,0.269 0.635,0.471 0.846,0.622c0.577,0.411 1.534,0.371 2.007,-0.219c0.001,0.003 0.002,0.003 0.004,0.003c0.003,-0.016 0.006,-0.035 0.01,-0.05c0.055,-0.285 0.107,-0.319 0.463,-0.319c0.222,0 0.725,0.1 1.12,0.221c0.071,0.024 0.18,0.079 0.295,0.153c0.049,-0.005 0.095,-0.013 0.141,-0.021c0.027,0.016 0.066,0.026 0.11,0.029c0.221,0.06 0.387,0.029 0.468,-0.058c0.066,-0.019 0.112,-0.045 0.142,-0.082c0.064,-0.01 0.131,-0.026 0.2,-0.042c0.148,-0.008 0.237,-0.042 0.277,-0.095c0.239,-0.097 0.455,-0.24 0.557,-0.416c0.16,-0.106 0.244,-0.301 0.275,-0.509c0.1,-0.045 0.143,-0.161 0.068,-0.385c-0.267,-0.783 -1.741,-0.999 -2.418,-1.265c-0.591,-0.229 -0.591,-0.229 -0.744,-0.285c-0.015,-0.008 -0.029,-0.008 -0.043,-0.008c-0.381,-0.139 -0.661,-0.21 -0.743,-0.189c-0.008,-0.003 -0.017,-0.006 -0.026,-0.011c-0.492,-0.187 -0.492,-0.187 -1.131,-0.298c-0.104,-0.018 -0.191,-0.034 -0.265,-0.044c-0.009,-0.077 -0.02,-0.161 -0.031,-0.251c-0.131,-1.044 -0.131,-1.044 -0.222,-1.442c-0.012,-0.05 -0.023,-0.092 -0.035,-0.131c0.121,-0.301 0.124,-0.802 0.138,-0.973c0.093,-1.083 0.093,-1.083 0.093,-1.613c0,-0.321 -0.1,-0.764 -0.257,-1.131c-0.031,-0.071 -0.065,-0.142 -0.1,-0.208c-0.03,-0.266 -0.056,-0.466 -0.073,-0.551c-0.007,-0.036 -0.014,-0.073 -0.021,-0.105c0.37,-1.428 -0.174,-2.235 -0.65,-2.999c0.176,-0.472 -0.046,-1.579 -0.063,-1.8c-0.031,-0.385 -0.055,-0.665 -0.08,-0.868c0.049,-0.543 0.065,-1.154 -0.067,-1.671c-0.069,-0.268 -0.158,-0.508 -0.246,-0.709c0.262,-0.527 0.434,-1.402 0.562,-1.707c0.386,-0.928 0.447,-1.687 -0.093,-2.565c-0.008,-0.013 -0.017,-0.026 -0.025,-0.039c-0.014,-0.056 -0.029,-0.111 -0.044,-0.169l-0.002,0c-0.069,-0.05 -0.137,-0.111 -0.196,-0.179c-0.064,-0.172 -0.152,-0.377 -0.282,-0.686c-0.118,-0.276 -0.217,-0.477 -0.3,-0.611c0.042,-0.158 0.061,-0.345 0.04,-0.532c-0.067,-0.604 -0.3,-1.15 -0.678,-1.592c-0.348,-0.406 -0.769,-0.672 -1.062,-0.672c-0.034,0 -0.065,0 -0.094,0.005c-0.003,-0.087 -0.017,-0.2 -0.045,-0.337c-0.077,-0.372 -0.557,-1.326 -1.067,-2.12c-0.509,-0.793 -0.996,-1.584 -1.081,-1.76c-0.03,-0.061 -0.059,-0.113 -0.088,-0.156c0.006,-0.332 -0.064,-0.967 -0.195,-2.148c-0.102,-0.919 -0.197,-1.576 -0.289,-1.99c0.014,0 0.029,0.003 0.045,0.006c0.409,0.05 0.383,-0.427 0.348,-0.852c0.073,-0.131 0.12,-0.311 0.115,-0.529c0.321,0 0.897,-0.361 1.234,-0.912c1.05,-1.716 1.839,-4.441 0.734,-6.331c-0.103,-0.177 -0.207,-0.314 -0.307,-0.414c-0.004,-0.187 -0.03,-0.427 -0.084,-0.725c-0.018,-0.102 -0.041,-0.218 -0.067,-0.342c0.152,-0.148 0.26,-0.372 0.325,-0.672c0.102,-0.477 0.082,-0.693 -0.098,-0.799c0.011,-0.1 0.019,-0.19 0.024,-0.274c0.066,-0.061 0.124,-0.132 0.166,-0.206c0.096,-0.171 0.209,-0.556 0.298,-0.988c0.046,-0.01 0.091,-0.021 0.137,-0.029c0.016,-0.092 0.029,-0.184 0.041,-0.277c0.034,-0.266 0.03,-0.493 0.001,-0.672c0.027,-0.042 0.053,-0.087 0.078,-0.132c0.278,-0.511 -0.045,-0.975 -0.383,-0.996c0.034,-0.176 0.072,-0.377 0.114,-0.601c0.317,-1.713 0.323,-2.177 0.046,-3.56c-0.116,-0.58 -0.235,-1.01 -0.353,-1.273c0.008,-0.027 0.014,-0.053 0.017,-0.079c0.071,-0.646 0.071,-0.646 0.602,-1.859c0.02,-0.047 0.178,-0.569 0.223,-0.998c0.755,-0.322 1.029,-1.047 1.376,-1.803c0.715,-1.553 1.185,-3.416 0.712,-5.098c-0.131,-0.466 -0.253,-0.664 -0.36,-0.685c0.059,-0.427 0.075,-1.217 0.092,-2.664c0.023,-1.864 0.032,-2.636 0.023,-3.002c0.504,0.044 1.153,-0.04 1.615,-0.356c0.215,-0.148 0.363,-0.443 0.442,-0.793c-0.04,-0.451 -0.169,-0.897 -0.342,-1.331c-0.098,-0.248 -0.249,-0.612 -0.314,-0.965l-0.001,0l0,-0.003c-0.025,-0.06 -0.061,-0.129 -0.108,-0.205c-0.165,-0.264 -0.317,-0.686 -0.379,-1.026c0.091,-0.176 0.203,-0.453 0.3,-0.748c0.201,-0.614 0.334,-1.244 0.241,-1.871c0.01,-0.019 0.021,-0.037 0.033,-0.056c-0.001,-0.002 -0.003,-0.008 -0.004,-0.01c-0.033,-0.1 -0.066,-0.187 -0.099,-0.259c-0.012,-0.042 -0.026,-0.087 -0.041,-0.129c-0.004,-0.013 -0.008,-0.023 -0.012,-0.034c0.799,-0.762 -0.737,-2.588 -1.247,-3.316c-0.507,-0.722 -1.126,-1.109 -1.753,-0.495c-0.14,0.013 -0.282,0.061 -0.34,0.103c-0.176,0.132 -0.283,0.311 -0.354,0.506c-0.016,-0.063 -0.03,-0.127 -0.044,-0.193c-0.024,-0.11 -0.177,-0.203 -0.339,-0.203c-0.847,0 -2.005,2.562 -1.837,3.155c0.005,0.021 0.011,0.04 0.017,0.056c-0.01,0.021 -0.021,0.042 -0.031,0.063c-0.401,0.841 -0.401,0.841 -0.916,1.882c-0.233,0.469 -0.36,0.724 -0.465,0.906c-0.119,0.498 -0.126,0.514 -0.509,1.355c-0.007,0.013 -0.013,0.029 -0.02,0.042c-0.025,0.095 -0.053,0.195 -0.083,0.306c-0.27,0.983 -0.435,1.903 -0.549,3.052c0,0.005 -0.001,0.008 -0.001,0.013c-0.008,0.29 -0.007,0.514 0.005,0.685c-0.004,0.016 -0.007,0.032 -0.009,0.045c-0.093,0.551 -0.165,1.173 -0.159,1.381c0.001,0.058 0.011,0.108 0.029,0.156c-0.422,1.036 -0.422,1.038 -0.823,2.738c-0.123,0.517 -0.306,1.128 -0.494,1.669c-0.043,0.05 -0.093,0.116 -0.15,0.205c-0.043,0.066 -0.104,0.293 -0.175,0.635c-0.037,0.085 -0.073,0.164 -0.108,0.23c-0.513,1.017 -0.671,2.137 -0.674,3.26c-0.06,0.456 -0.109,0.92 -0.159,1.391c-0.172,0.182 -0.297,0.493 -0.386,0.807c-0.203,0.327 -0.398,0.733 -0.422,1.094c-0.001,0 -0.003,0.002 -0.004,0.005c-0.784,0.822 -1.013,1.761 -0.943,2.754c-0.126,0.219 -0.226,0.446 -0.296,0.564c-0.149,0.245 -0.348,0.633 -0.44,0.857c-0.087,0.211 -0.129,0.311 -0.151,0.377c-0.408,0.722 -0.697,1.484 -0.949,2.272c-0.039,0.118 -0.066,0.218 -0.084,0.305c-0.267,-0.092 -0.789,0.259 -0.553,0.475c-0.015,0.01 -0.028,0.026 -0.04,0.045c-0.056,-0.093 -0.112,-0.182 -0.168,-0.267c-0.052,0.332 -0.022,0.746 -0.022,0.844c0,0.242 0,0.485 0,0.727c-0.046,0.164 -0.085,0.309 -0.111,0.417c-0.375,1.544 -0.465,1.91 -0.314,1.997c-0.077,0.222 -0.135,0.622 -0.223,1.321c-0.168,1.336 -0.013,2.562 0.289,3.779c-0.096,0.19 -0.184,0.527 -0.238,1.028c-0.055,0.512 -0.02,0.949 0.057,1.231c-0.008,0.103 -0.014,0.211 -0.02,0.319c-0.108,1.829 -0.082,2.048 0.272,2.293c0.094,0.066 0.28,0.108 0.491,0.129c-0.08,0.435 -0.088,0.959 0.046,1.31c0.044,0.113 0.085,0.198 0.125,0.258c0.001,0.003 0.002,0.008 0.003,0.013c-0.03,0.103 -0.055,0.259 -0.072,0.462c-0.066,0.131 -0.131,0.287 -0.19,0.461c-0.202,0.59 -0.344,1.552 -0.316,2.132c0.017,0.356 0.076,0.596 0.153,0.73c-0.08,0.143 -0.153,0.295 -0.217,0.451c-0.075,0.087 -0.14,0.176 -0.189,0.24c-0.322,0.408 -0.481,0.914 -0.455,1.476c-0.054,0.068 -0.104,0.137 -0.147,0.192c-0.155,0.203 -0.274,0.438 -0.332,0.693c-0.619,1.205 -0.174,3.39 0.194,4.502c0.113,0.337 0.181,0.509 0.277,0.603c-0.021,0.043 -0.041,0.093 -0.061,0.153c-0.037,0.106 -0.052,0.277 -0.045,0.535c-0.001,0.006 -0.002,0.011 -0.002,0.014c-0.022,0.168 0.002,0.432 0.054,0.74c0.014,0.142 0.03,0.298 0.051,0.469c0.115,0.999 0.15,1.302 0.276,1.413c-0.485,1.181 -1.193,2.506 -1.818,3.624c0.004,0.013 -0.523,1.818 -0.518,1.829c-0.016,0.261 -0.025,0.527 -0.031,0.778c-0.221,0.856 -0.369,1.8 -0.238,2.638c0.018,0.508 0.134,1.014 0.356,1.473c0.061,0.44 0.096,0.78 0.03,0.899c-0.263,0.48 -0.322,0.756 -0.306,1.442c0.002,0.092 0.008,0.176 0.017,0.253c-0.085,0.606 -0.077,1.367 0.04,1.884c-0.032,0.195 -0.077,0.422 -0.141,0.691c-0.443,1.868 0.098,2.875 0.691,4.388c0.084,0.295 0.201,0.585 0.306,0.862c0.068,0.224 0.139,0.477 0.216,0.73c0.001,0.005 0.002,0.008 0.003,0.013c0.057,0.208 0.117,0.437 0.175,0.667c0.153,0.606 0.267,1.144 0.254,1.194c-0.06,0.232 0.057,0.522 0.241,0.714c0.014,0.018 0.03,0.034 0.048,0.05c0.007,0.005 0.014,0.011 0.023,0.016c0.015,0.013 0.031,0.026 0.047,0.037c0,0 0.001,0 0.001,0.002c0.731,0.546 1.696,0.804 2.591,0.559c0.26,0.074 0.696,0.266 0.74,0.306c0.176,0.166 0.354,0.306 0.539,0.422c0.068,0.073 0.167,0.15 0.297,0.218c0.419,0.216 1.53,0.596 2.088,0.295c0.62,0.156 1.39,0.058 1.541,-0.564c0.471,0.072 1.118,-0.16 1.11,-0.64c0.036,-0.063 0.029,-0.158 -0.05,-0.295c-0.258,-0.451 -0.819,-0.82 -1.256,-1.078c-0.03,-0.019 -0.062,-0.037 -0.096,-0.056c-0.171,-0.187 -0.591,-0.313 -0.961,-0.347c-0.038,-0.014 -0.076,-0.027 -0.114,-0.04c-0.091,-0.047 -0.207,-0.09 -0.331,-0.124l0.001,0c0.113,-0.171 0.191,-0.403 0.13,-0.588c-0.051,-0.155 -0.187,-0.245 -0.318,-0.263l-0.002,-0.003c-0.046,-0.06 -0.113,-0.089 -0.212,-0.103c-0.051,-0.007 -0.095,-0.005 -0.13,0.006c-0.194,-0.095 -0.508,-0.206 -0.902,-0.314c-0.768,-0.211 -1.056,-0.258 -1.29,-0.177c-0.365,-0.129 -0.825,-0.226 -1.117,-0.197c-0.034,-0.098 -0.067,-0.185 -0.083,-0.237c-0.017,-0.05 -0.034,-0.103 -0.051,-0.153c-0.025,-0.317 -0.102,-0.604 -0.221,-0.717c-0.004,-0.016 -0.008,-0.029 -0.011,-0.045c-0.013,-0.137 -0.022,-0.25 -0.029,-0.348c0.072,-0.408 0.198,-0.93 0.379,-1.644c0.174,-0.691 0.258,-1.305 0.285,-1.808c0.062,-0.601 0.046,-1.197 -0.087,-1.674c0.039,-0.132 0.073,-0.327 0.118,-0.619c-0.035,-0.607 -0.037,-1.215 -0.005,-1.809c-0.061,-0.234 -0.133,-0.521 -0.186,-0.993c0.008,-0.013 0.014,-0.026 0.022,-0.042c0.739,-1.36 0.888,-3.013 0.882,-3.432c0.134,-0.907 0.158,-1.378 0.114,-1.737c0.155,-0.081 0.307,-0.2 0.397,-0.303c0.093,-0.108 0.186,-0.216 0.278,-0.327c0.076,-0.2 0.97,-1.333 1.08,-1.531c0.534,-0.962 0.838,-1.621 0.572,-2.691c-0.001,-0.169 -0.013,-0.337 -0.038,-0.495c-0.126,-0.351 -0.349,-0.622 -0.693,-0.783c-0.005,-0.003 -0.009,-0.005 -0.012,-0.008c-0.005,0.103 0.004,0.221 0.025,0.337c0.227,1.257 0.233,2.915 -0.609,3.893c-0.253,0.293 -0.583,0.68 -0.629,0.785c-0.076,0.177 -0.728,0.633 -0.975,0.849c-0.079,-0.25 -0.511,-0.464 -0.535,-0.535c-0.026,-0.076 0.065,-0.619 0.026,-0.683c-0.043,-0.569 -0.505,-1.779 -0.781,-2.148c-1.004,-1.346 -0.013,0.918 0.189,1.606c0,0.002 0.157,1.286 0.157,1.288c-0.014,0.404 0.368,0.543 0.755,0.881c0.006,0.116 0.241,0.4 0.2,0.558c-0.16,0.607 -0.323,1.503 -0.39,2.13c-0.011,0.09 -0.019,0.174 -0.024,0.25c-0.005,0.069 -0.013,0.137 -0.024,0.209c-0.075,0.482 -0.275,0.954 -0.368,1.238c-0.363,-0.558 -0.626,-0.582 -0.529,0.095c0.024,0.172 0.929,2.18 0.442,3.427c-0.025,0.007 -0.048,0.021 -0.069,0.036c-0.057,-0.195 -0.126,-0.384 -0.178,-0.474c-0.245,-0.427 -0.403,-0.741 -0.427,-0.849c-0.013,-0.058 -0.064,-0.105 -0.128,-0.137c0.001,-0.1 -0.097,-0.208 -0.319,-0.366c-0.397,-0.285 -0.397,-0.285 -0.628,-0.535c-0.397,-0.432 -0.243,0.224 -0.116,0.445c0.083,0.145 0.443,0.506 0.727,0.609c0.179,0.58 0.538,1.16 0.867,1.666c0.03,0.042 0.056,0.082 0.081,0.116c0.007,0.031 0.017,0.063 0.03,0.097c0.018,0.045 0.034,0.093 0.049,0.14c-0.002,0.013 -0.004,0.024 -0.005,0.037c0.234,0.564 0.201,1.365 0.115,1.95c-0.07,0.472 -0.07,0.472 -0.348,1.882c-0.151,0.764 -0.233,1.131 -0.317,1.313c0.028,0.226 0.066,0.45 0.112,0.659c-0.004,0.065 -0.005,0.137 -0.003,0.208c0.188,0.395 0.539,1.149 0.069,1.125c-0.034,-0.002 -0.064,-0.005 -0.091,-0.008c-0.263,0.174 -0.629,0.556 -0.288,0.614c0.143,-0.1 0.331,-0.15 0.52,-0.179c0.052,-0.05 0.115,-0.092 0.191,-0.126c0.214,-0.095 0.507,-0.195 0.808,-0.243c0.116,0.029 0.217,0.048 0.274,0.056c0.052,0.007 0.39,0.039 0.697,0.028c0.239,0.048 0.549,0.143 0.859,0.203c0.378,0.072 0.774,0.111 1.002,0.106c-0.001,0.134 0.01,0.277 0.008,0.393c-0.159,0.01 -0.267,0.055 -0.268,0.147c-0.001,0.084 0.072,0.158 0.186,0.216c0.198,0.277 0.907,0.548 1.376,0.641c0.115,0.047 0.26,0.108 0.449,0.187c0.043,0.018 0.084,0.037 0.123,0.053c0.085,0.073 0.182,0.147 0.282,0.218c0.032,0.151 0.169,0.267 0.341,0.343c-0.007,0.029 -0.015,0.058 -0.024,0.092c-0.005,0.021 -0.011,0.04 -0.017,0.058l-0.001,0c-0.136,0.079 -0.255,0.172 -0.333,0.261c-0.069,0 -0.143,-0.013 -0.216,-0.039l-0.002,0c-0.152,0.358 -0.7,0.284 -1.042,0.176c-0.056,-0.018 -0.108,-0.034 -0.154,-0.05c-0.008,0.005 -0.015,0.011 -0.022,0.016c-0.035,-0.008 -0.069,-0.016 -0.101,-0.021c-0.134,0.306 -0.488,0.416 -0.776,0.3c-0.001,0.011 -0.003,0.021 -0.003,0.032c-0.108,-0.09 -0.228,-0.166 -0.325,-0.208c-0.351,-0.153 -0.841,-0.475 -1.089,-0.715c-0.091,-0.087 -0.196,-0.158 -0.309,-0.218c-0.128,0 -0.257,0 -0.381,0.002c-0.614,0.008 -1.592,0.042 -2.206,-0.287c-0.636,-0.132 -0.719,-0.92 -0.67,-1.513c-0.07,-0.179 -0.131,-0.324 -0.161,-0.403c-0.294,-0.772 -0.368,-0.965 -0.4,-1.054c-0.002,-0.006 -0.003,-0.008 -0.004,-0.011c-0.003,-0.013 -0.007,-0.026 -0.01,-0.037c-0.457,-1.489 -1.033,-2.543 -1.184,-3.75c0.035,-0.174 0.069,-0.446 0.122,-0.87c0.08,-0.651 0.211,-1.421 0.291,-1.71c0.074,-0.269 0.105,-0.406 0.082,-0.483c0.169,-0.335 -0.055,-1.191 -0.158,-1.439c-0.028,-0.068 -0.07,-0.147 -0.12,-0.213l-0.001,-0.003c-0.001,-0.108 -0.003,-0.203 -0.006,-0.282l0,-0.003c0.045,-0.253 0.113,-0.448 0.197,-0.556c0.094,-0.121 0.187,-0.361 0.269,-0.659c0.113,-0.052 0.121,-0.187 0.085,-0.34c0.202,-0.906 0.315,-2.113 0.186,-2.522c-0.22,-0.701 -0.329,1.339 -0.396,1.566c-0.011,0.034 -0.021,0.068 -0.031,0.102c-0.017,-0.042 -0.035,-0.084 -0.053,-0.126c-0.219,-0.509 -0.269,-0.97 -0.22,-2.019c0.005,-0.111 0.008,-0.219 0.01,-0.321c0.104,-0.57 0.246,-1.139 0.291,-1.693c0.064,-0.801 0.064,-0.801 0.045,-0.959c-0.003,-0.024 -0.006,-0.045 -0.011,-0.066c0.295,-1.03 0.809,-1.716 1.259,-2.506c0.02,-0.035 0.038,-0.069 0.056,-0.1c0.051,-0.035 0.108,-0.077 0.171,-0.135c0.197,-0.176 0.43,-0.369 0.664,-0.574c-0.005,-0.13 -0.006,-0.293 -0.006,-0.506c0,-0.984 0.251,-1.743 1.009,-2.293c-0.009,-0.185 -0.016,-0.377 -0.025,-0.562c0.028,-0.031 0.056,-0.068 0.083,-0.113c-0.054,-0.899 0.672,-1.845 1.4,-2.275c0.128,-0.076 0.282,-0.171 0.448,-0.261Zm-4.487,19.717c-0.055,-0.68 -0.197,-0.769 -0.362,-0.018c-0.248,1.131 0.006,2.159 0.243,3.189c0.053,0.229 0.166,1.339 0.253,1.326c0.157,-0.024 0.157,-0.954 0.01,-1.832c-0.081,-0.482 -0.27,-1.26 -0.255,-1.584c0.014,-0.324 0.138,-0.743 0.111,-1.081Zm0.793,-1.62c-0.177,-0.686 -0.385,-0.773 -0.496,-0.014c-0.169,1.147 0.331,2.18 0.809,3.216c0.063,0.139 0.205,0.601 0.334,0.943c0.041,-0.345 0.071,-0.69 0.091,-1.035c-0.043,-0.14 -0.091,-0.282 -0.143,-0.422c-0.183,-0.485 -0.556,-1.268 -0.585,-1.597c-0.029,-0.327 0.077,-0.751 -0.01,-1.091Zm15.39,-2.415c-0.037,-0.616 -0.175,-0.714 -0.357,-0.058c-0.274,0.991 -0.049,1.943 0.159,2.897c0.046,0.211 0.13,1.223 0.216,1.22c0.156,-0.003 0.179,-0.841 0.056,-1.647c-0.068,-0.44 -0.234,-1.165 -0.211,-1.452c0.022,-0.29 0.155,-0.654 0.137,-0.96Zm-15.573,-5.321c0.027,-0.73 -0.298,-0.92 -0.522,-0.142c-0.226,0.785 -0.007,1.354 0.794,1.592c0.118,0.034 0.219,0.05 0.305,0.055c-0.212,0.464 -0.418,1.334 -0.438,1.423c-0.409,1.782 -0.409,1.782 -0.418,1.837c-0.027,0.187 -0.046,0.546 0.227,0.538c0.533,-0.016 0.777,-2.032 0.859,-2.399c0.126,-0.558 0.199,-1.172 0.164,-1.36c-0.017,-0.089 -0.036,-0.158 -0.057,-0.21c0.011,-0.132 -0.14,-0.317 -0.455,-0.446c-0.453,-0.187 -0.483,-0.245 -0.459,-0.888Zm3.908,-5.988c-0.773,-1.597 -0.653,2.804 0.419,2.614c0.611,-0.108 -0.211,-2.185 -0.419,-2.614Zm6.565,-1.821c0.184,0.767 0.311,1.65 0.286,2.019c-0.012,0.184 0.015,0.329 0.064,0.434c-0.06,0.24 -0.143,0.388 -0.287,0.567c-0.163,0.203 -0.313,0.973 0.2,0.756c0.183,-0.079 0.327,-0.208 0.438,-0.371c0.031,-0.061 0.061,-0.108 0.079,-0.132c0.001,-0.003 0.002,-0.005 0.004,-0.005c0.331,-0.641 0.267,-1.645 0.108,-2.182c-0.014,-0.048 -0.028,-0.09 -0.041,-0.124c-0.031,-0.193 -0.068,-0.39 -0.108,-0.591c0.151,0.143 0.532,0.34 0.832,0.464c0.512,0.211 2.382,0.598 1.098,-0.095c-0.354,-0.19 -0.961,-0.403 -1.349,-0.474c-0.353,-0.066 -0.54,-0.071 -0.612,-0.04c-0.118,-0.543 -0.222,-0.988 -0.487,-1.336c-0.001,-0.029 -0.001,-0.058 -0.002,-0.087c-0.052,-0.068 -0.1,-0.126 -0.138,-0.179c-0.25,-0.335 -0.434,-0.564 -0.578,-0.714c0.075,-0.111 -0.111,-1.049 -0.29,-1.811c-0.154,-0.145 -0.322,-0.403 -0.463,-0.78c-0.013,-0.037 -0.123,-0.385 -0.197,-0.746c-0.037,-0.108 -0.077,-0.277 -0.118,-0.482c-0.193,-0.164 -0.353,-0.369 -0.432,-0.546c-0.613,-1.381 -0.735,-3.202 -0.634,-4.689c0.013,-0.184 0.016,-0.661 0.116,-1.051c-0.134,-0.636 -0.39,-0.475 -0.521,0.893c-0.027,0.285 -0.046,0.519 -0.053,0.714c-0.017,0.029 -0.033,0.061 -0.048,0.093c0.014,0.216 0.027,0.529 0.049,1.049c0.031,0.759 0.122,1.483 0.217,1.736c0.052,0.14 0.085,0.267 0.103,0.38c0.137,0.393 0.267,0.762 0.341,1.083c0.043,0.187 0.299,0.693 0.524,0.902c0.009,0.023 0.019,0.05 0.029,0.073c0.073,0.18 0.153,0.317 0.233,0.414c-0.022,0.008 -0.045,0.019 -0.067,0.027c0.191,0.45 0.35,0.964 0.402,1.325c0.018,0.132 0.025,0.256 0.022,0.369c0.081,0.298 0.147,0.601 0.215,0.907l-0.002,0c-0.105,0.129 0.035,0.385 0.537,1.054c0.142,0.19 0.257,0.343 0.351,0.469l0.141,0.554c0.013,0.05 0.026,0.1 0.038,0.153Zm-4.167,-2.235c-0.261,0.06 -0.722,0.176 -1.109,0.216c-0.14,0.116 -0.405,0.271 -0.644,0.374c-0.677,0.29 -1.111,0.627 -1.432,1.289c-0.009,0.055 -0.016,0.108 -0.02,0.163c0.191,-0.245 0.412,-0.458 0.638,-0.603c0.239,-0.156 0.667,-0.435 1.067,-0.533c0.364,-0.237 0.765,-0.416 1.145,-0.532c-0.099,0.132 -0.182,0.258 -0.216,0.327c-0.087,0.176 -0.109,0.358 -0.105,0.543c0.064,0.145 0.068,0.258 0.028,0.353c0.048,0.432 0.106,0.856 -0.309,1.207c-0.216,0.184 -0.668,0.738 -0.047,0.535c1.367,-0.445 0.72,-1.782 1.008,-2.691c0.073,0.187 0.236,0.406 0.492,0.604c0.187,0.142 1.487,0.545 1.648,0.767c0.002,0.021 0.004,0.042 0.006,0.06c0.275,0.335 0.03,0.96 -0.189,1.357c-0.764,0.491 -1.148,1.287 -0.88,2.03c0.268,0.743 0.26,0.414 0.47,-0.198c0.199,-0.58 0.479,-0.904 1.149,-1.333c0.487,-0.314 0.857,-0.651 0.822,-0.749c-0.096,-0.269 -0.543,-0.176 -0.831,-0.087c0.109,-0.126 0.224,-0.242 0.345,-0.348c0.012,-0.01 0.024,-0.021 0.037,-0.031c0.003,-0.008 0.004,-0.016 0.007,-0.027c0.359,-0.804 -1.233,-1.716 -2.052,-2.129c-0.016,-0.006 -0.032,-0.014 -0.047,-0.021c-0.332,-0.256 -0.586,-0.359 -0.756,-0.364c0.008,-0.021 -0.009,-0.048 -0.05,-0.079c0.016,-0.061 0.025,-0.106 0.028,-0.14c-0.011,0 -0.023,0.003 -0.034,0.003c-0.035,0.005 -0.093,0.018 -0.169,0.037Zm4.775,-2.412c-0.145,-0.121 -0.273,-0.221 -0.384,-0.303c0,-0.026 -0.003,-0.055 -0.007,-0.087c-0.017,-0.121 -0.097,-0.308 -0.196,-0.469c-0.249,-0.024 -0.523,-0.084 -0.748,-0.161c-0.046,0.016 -0.093,0.029 -0.141,0.032c0.051,0.045 0.117,0.089 0.201,0.134c0.13,0.074 0.271,0.214 0.364,0.353c-0.029,0.116 0.148,0.446 0.541,0.975c0.437,0.591 0.844,1.334 0.902,1.653c0.064,0.345 0.223,0.532 0.418,0.493c-0.51,1.083 -0.096,1.531 0.484,0.116c0.031,-0.079 0.059,-0.153 0.083,-0.224c0.668,0.411 0.99,1.196 1.06,1.974c0.112,1.236 0.715,0.516 0.476,-0.546c-0.223,-0.98 -0.411,-1.296 -1.094,-1.842c-0.718,-0.572 -0.812,-0.646 -0.981,-0.654c-0.303,-0.63 -0.804,-1.296 -0.978,-1.444Zm-10.189,1.16c-0.153,-0.14 -0.292,0 -0.241,0.232c0.058,0.258 0.565,0.967 0.777,0.735c0.215,-0.24 -0.37,-0.817 -0.536,-0.967Zm-0.109,-1.315c-0.334,-0.47 -0.254,0.068 -0.094,0.379c0.138,0.269 0.327,0.54 0.421,0.606c0.098,0.066 0.22,0.058 0.29,-0.018c0.205,-0.227 -0.47,-0.764 -0.617,-0.967Zm7.299,-0.035c0.031,-0.693 0.01,-0.79 -0.194,-0.906c-0.066,-0.037 -0.119,-0.04 -0.162,-0.016c-0.026,0.063 -0.061,0.121 -0.107,0.163c-0.098,0.311 -0.041,0.936 -0.022,1.112c0.002,0.024 0.005,0.045 0.009,0.069c-0.022,0.005 -0.043,0.013 -0.064,0.021c-0.161,0.424 -0.248,1.22 -0.293,1.373c-0.121,0.396 -0.024,0.461 0.137,0.369c0.206,-0.116 0.519,-0.485 0.611,-0.727c0.135,-0.356 0.142,-0.696 0.022,-0.967c-0.009,-0.022 -0.018,-0.04 -0.027,-0.058c0.049,-0.135 0.084,-0.296 0.09,-0.433Zm-5.12,-2.975c-0.218,-0.662 -0.218,-0.662 -0.247,-0.949c-0.028,-0.29 -0.028,-0.29 -0.1,0.003c-0.115,0.471 0.052,0.969 0.241,1.362c0.344,0.712 0.239,-0.016 0.106,-0.416Zm-1.037,-6.779c0.002,0.037 0.004,0.079 0.004,0.126c0.084,0.101 0.163,0.293 0.227,0.601c0.026,0.124 0.07,0.277 0.113,0.433c0.097,0.005 0.216,0.023 0.362,0.047c0.975,0.169 2.801,0.406 3.651,-0.216c0.252,-0.187 0.929,-0.395 1.193,-0.258c0.743,0.052 2.349,0.113 2.425,-0.222c0.016,-0.068 0.052,-0.116 0.1,-0.15c0.001,-0.074 0.008,-0.156 0.022,-0.245c0.002,-0.016 0.005,-0.029 0.008,-0.045c-0.179,0.005 -0.363,-0.008 -0.54,-0.039c-0.634,-0.116 -0.964,-0.193 -1.115,-0.296c-0.214,0.77 -2.125,0.978 -2.655,0.949c-0.624,-0.034 -2.563,-0.068 -3.31,-0.632c-0.132,0.015 -0.306,-0.003 -0.485,-0.053Zm-0.918,-2.807c0.023,0.559 -0.01,1.202 0.2,1.703l0.001,0c0.331,-0.087 0.899,0.268 1.118,0.424c0.107,0.074 0.25,0.179 0.334,0.292c0.074,0.043 0.139,0.077 0.191,0.095c0.75,0.282 1.67,0.343 2.57,0.243c0.509,0.076 0.805,-0.04 1.616,-0.359c0.995,-0.39 1.215,-0.477 1.297,-0.308c0.076,-0.158 0.199,-0.245 0.299,-0.198c0.215,0.103 0.215,0.103 1.543,0.227c0.208,0.018 0.38,0.042 0.52,0.071c0.051,-0.092 0.115,-0.195 0.193,-0.306c0.976,-1.41 2.046,-3.985 1.218,-5.729c-0.107,-0.332 -0.31,-0.636 -0.555,-0.891c-0.002,-0.006 -0.003,-0.008 -0.004,-0.013c-0.017,-0.058 -0.029,-0.116 -0.037,-0.174c-0.047,0.008 -0.097,0.01 -0.147,0.008c-0.027,-0.024 -0.054,-0.048 -0.081,-0.069c-0.162,-0.132 -0.376,-0.293 -0.574,-0.311c-0.028,-0.045 -0.048,-0.09 -0.057,-0.137c0.154,-0.021 0.306,-0.063 0.435,-0.127c0.093,0.016 0.192,0.014 0.276,-0.005c0.181,-0.045 0.294,-0.219 0.443,-0.677c0.149,-0.459 0.309,-1.157 0.179,-1.703c0.108,-0.248 0.219,-0.672 0.297,-1.12c-1.168,0.364 -2.851,-0.437 -3.876,-1.249c-0.015,0.303 -0.031,0.535 -0.053,0.711c0.213,-0.05 0.353,0.027 0.277,0.409c-0.031,0.153 -0.09,0.287 -0.173,0.403c0.052,0.266 0.098,0.678 0.125,1.155c-0.016,0.002 -0.032,0.005 -0.048,0.007c0.002,0.051 0.004,0.101 0.006,0.153c0.006,0.243 0.063,2.61 -0.425,1.985c-0.041,-0.053 -0.086,-0.127 -0.136,-0.227c-0.115,-0.229 -0.147,-1.186 -0.07,-2.121c0.015,-0.193 0.034,-0.375 0.057,-0.546c-0.785,0.398 -2.048,0.343 -2.745,0.277c-0.59,-0.056 -1.11,-0.137 -1.579,-0.298c-0.605,-0.203 -1.127,-0.532 -1.613,-1.094c-0.018,-0.021 -0.097,-0.142 -0.197,-0.316c-0.034,-0.003 -0.063,-0.013 -0.088,-0.032c0.022,0.248 0.039,0.446 0.049,0.614c-0.016,-0.026 -0.033,-0.052 -0.05,-0.079c-0.002,0.472 -0.089,0.788 -0.33,1.669c-0.162,0.593 -0.268,0.943 -0.358,1.149c-0.195,1.399 -0.122,3.049 0.196,4.32c0.084,0.337 0.071,0.521 -0.054,0.814c-0.154,0.358 -0.229,0.801 -0.196,1.231l-0.001,0c0,0.008 0.001,0.013 0.001,0.018c0.002,0.037 0.004,0.074 0.006,0.111Zm4.696,-2.741c-0.236,-0.377 -0.767,-0.909 -0.939,-0.944c0.011,-0.01 0.024,-0.021 0.036,-0.029c0.363,-0.29 1.155,-0.68 1.76,-0.867c0.62,-0.192 1.1,-0.485 1.1,-0.667c0,-0.237 -0.488,-0.366 -1.789,-0.474c-1.215,-0.103 -2.536,0.235 -0.662,0.593c0.996,0.19 0.996,0.19 0.026,0.612c-0.691,0.3 -1.545,1.647 -0.527,0.875c-0.003,0.073 0.071,0.247 0.263,0.561c0.592,0.97 1.353,2.778 1.058,4.082c0.092,-0.028 0.182,-0.06 0.27,-0.092c0.275,-1.128 0.006,-2.693 -0.596,-3.65Zm4.675,-1.595c-0.165,-0.3 -1.863,-1.858 -1.863,-1.486c0,1.025 2.807,3.21 1.863,1.486Zm-5.738,-5.561c0.088,0.016 0.173,0.027 0.254,0.034c0.003,0 0.006,0 0.009,0c0.148,-1.636 0.703,-3.104 1.017,-4.759c0.253,-1.337 -0.318,-0.367 -0.621,0.318c-0.675,1.527 -0.917,2.9 -0.659,4.407Zm3.779,-0.769c1.03,0.474 2.559,1.296 3.402,0.962c-0.019,-0.016 -0.034,-0.032 -0.046,-0.053c0.601,-0.134 0.565,-0.82 0.584,-1.31c0.045,-1.136 0.02,-2.409 -0.24,-3.54c-0.04,-0.316 -0.081,-0.717 -0.081,-1.078c-0.142,0.072 -0.275,0.108 -0.36,0.095c0.09,-0.993 0.43,-2.024 0.877,-2.936c0.332,-0.319 0.637,-0.862 0.837,-1.268c0.026,0.011 0.047,0.029 0.065,0.056l0.001,0.002c0.196,-0.4 0.409,-0.811 0.61,-1.228c0.011,-0.016 0.021,-0.031 0.033,-0.047c0.353,-0.49 0.626,-1.086 0.797,-1.692c0.56,-0.928 0.49,-2.18 -0.047,-3.118c0.002,-0.024 0.005,-0.048 0.008,-0.071c-0.124,-0.187 -0.229,-0.409 -0.278,-0.567c-0.145,-0.155 -0.173,-0.517 -0.173,-1.376c0,-1.431 0,-1.431 0.117,-3.35c0.002,-0.039 0.14,-0.84 0.315,-1.399c-0.4,-0.153 -0.419,-0.424 0.485,-0.646c-0.566,-0.285 -0.833,-1.051 -0.651,-1.629c0.211,-0.666 0.413,-0.05 0.488,0.317c0.106,0.524 0.27,0.819 0.818,1.006c0.093,0.032 0.163,0.069 0.21,0.108c0.019,-0.005 0.037,-0.013 0.054,-0.021c0.05,-0.015 0.093,-0.042 0.13,-0.076c0.039,-0.034 0.067,-0.074 0.086,-0.121c0.193,-0.388 0.046,-1.189 -0.072,-1.455c-0.029,-0.066 -0.075,-0.142 -0.13,-0.224c-0.126,-0.533 -0.318,-1.078 -0.531,-1.566c0.001,-0.016 0.003,-0.031 0.005,-0.047c-0.115,-0.027 -0.207,-0.092 -0.215,-0.206c-0.011,-0.147 -0.013,-0.168 0.21,-0.698c-0.045,-0.306 -0.021,-0.749 0.051,-1.181c0.025,-0.029 0.049,-0.061 0.071,-0.095c0.358,-0.582 0.429,-1.861 -0.194,-2.398c-0.324,-1.031 -0.991,-2.298 -1.923,-1.993c-0.049,0.016 -0.095,0.029 -0.136,0.045c-0.049,0.113 -0.082,0.272 -0.111,0.503c-0.026,0.203 -0.112,0.38 -0.214,0.499c0.33,1.038 0.681,1.947 0.612,3.257c-0.039,0.749 0.004,1.397 -0.296,1.908c0.089,0.209 0.156,0.451 0.188,0.57c0.039,0.147 0.26,0.788 0.16,1.112c0.061,0.134 0.13,0.287 0.209,0.461c0.265,0.585 0.495,2.085 0.056,2.902c-0.117,0.055 -0.239,0.161 -0.312,0.253c-0.087,0.113 -0.177,0.195 -0.282,0.253c-0.161,0.047 -0.349,0.055 -0.568,0.018c-0.198,-0.031 -0.338,-0.055 -0.427,-0.084c-0.203,0.055 -0.403,0.121 -0.598,0.203c0.027,0.424 -0.044,1.27 -0.207,2.96c-0.099,1.03 -0.173,1.745 -0.242,2.24c-0.001,0.142 -0.002,0.277 -0.002,0.403c0.143,-0.382 0.379,-0.603 0.747,-0.941c0.317,-0.292 0.655,-0.189 0.742,0.066c0.047,-0.081 0.199,0.058 0.508,0.585c0.294,0.504 0.814,1.194 0.544,1.795c-0.211,0.467 -0.929,-1.368 -1.051,-2.106c-0.021,0.074 -0.061,0.153 -0.121,0.235c-0.168,0.221 -0.683,1.028 -1.07,1.413c0.462,1.112 0.352,2.314 -0.15,3.397c-0.204,0.756 -0.571,1.481 -1.053,2.159c-0.175,0.424 -0.455,0.94 -0.799,1.033c-0.083,0.116 -0.165,0.24 -0.245,0.366c0.254,1.023 -0.317,3.028 -1.12,3.819c-0.005,0.44 -0.019,1.12 -0.041,2.19c-0.011,0.533 -0.022,0.97 -0.034,1.329Zm2.266,-6.365c0.042,-0.222 0.101,-0.43 0.186,-0.617c0.164,-0.923 0.171,-1.315 0.035,-1.336c-0.127,-0.021 -0.402,0.832 -0.612,1.897c-0.267,1.358 -0.314,1.948 -0.156,1.98c0.095,0.018 0.28,-0.483 0.457,-1.202c0.018,-0.243 0.044,-0.488 0.09,-0.722Zm-1.743,-7.657c0.634,-1.687 -0.347,-0.498 -0.739,0.374c-0.334,0.741 -0.806,2.423 -1.05,3.735c-0.251,1.355 -0.362,2.543 -0.256,2.744c0.346,0.653 0.274,-0.208 0.338,-0.62c0.326,-2.103 0.953,-4.227 1.707,-6.233Zm-4.613,15.645c0.853,0.316 1.836,0.427 2.728,0.24c0.794,-0.166 0.786,-0.643 0.742,-1.257c0.08,-0.68 0.117,-1.45 0.06,-2.19c0.001,-0.261 0.001,-0.567 0.001,-0.933c0,-0.245 0.001,-0.467 0.004,-0.665c-0.096,-0.002 -0.168,-0.044 -0.218,-0.11c0.281,-0.295 0.488,-0.743 0.637,-0.999c0.511,-0.886 0.721,-2.164 0.652,-3.231c0.195,-0.398 0.579,-0.986 0.882,-1.35c0.327,-0.39 0.616,-0.775 0.868,-1.181c0.312,-0.595 0.594,-1.204 0.73,-1.829c0.039,-0.179 0.057,-0.361 0.059,-0.545c-0.061,-0.638 -0.341,-1.26 -0.664,-1.861c0.002,-0.074 0.004,-0.145 0.007,-0.216c0.001,-0.016 0.001,-0.029 0.002,-0.045c0.018,-0.039 0.037,-0.076 0.058,-0.105l-0.002,0c-0.018,-0.006 -0.035,-0.011 -0.05,-0.019c0.047,-1.08 0.052,-1.117 0.155,-1.926c0.13,-1.01 0.222,-2.201 -0.014,-3.248c0.028,-0.35 0.07,-0.656 0.132,-0.827c-0.283,-0.108 0,-0.662 0.609,-0.878c0.435,-0.155 0.861,-0.287 1.285,-0.282c0.638,-0.688 0.987,-1.302 0.482,-2.203c-0.055,-0.098 -0.283,-0.754 -0.342,-1.26c-0.084,-0.232 -0.136,-0.506 -0.154,-0.756c-0.041,0.023 -0.083,0.044 -0.128,0.068c0.212,-1.589 0.582,-3.223 0.185,-4.807c-0.208,-0.83 -0.646,-1.698 -1.321,-0.612c-0.103,0.166 -0.254,0.622 -0.411,1.002c0.067,0.155 0.076,0.469 0.042,0.791c-0.166,0.139 -0.31,0.308 -0.365,0.384c-0.258,0.351 -0.476,0.796 -0.537,1.091c-0.086,0.414 -0.101,0.485 -0.293,0.957c-0.002,0.04 -0.006,0.082 -0.011,0.127c-0.03,0.287 -0.269,1.241 -0.53,2.121c-0.262,0.881 -0.524,1.982 -0.584,2.449c-0.043,0.332 -0.087,0.643 -0.165,0.943c0.034,0.153 0.068,0.354 0.073,0.554c0.061,0.016 0.055,0.274 -0.064,0.92c-0.095,0.508 -0.496,1.742 -0.919,2.838c-0.153,0.501 -0.317,0.941 -0.488,1.315c-0.03,0.066 -0.06,0.13 -0.088,0.198c-0.271,0.749 -0.508,1.492 -0.707,2.248c-0.204,1.036 -0.254,2.088 -0.226,3.25c0.002,0.134 0.005,0.264 0.007,0.385c-0.084,0.076 -0.194,0.219 -0.371,0.456c-0.372,0.498 -0.602,1.094 -0.637,1.7c-0.144,0.145 -0.269,0.305 -0.373,0.479c-0.204,0.246 -0.36,0.564 -0.456,0.767c-0.18,0.377 -0.414,1.02 -0.493,1.624c-0.393,0.408 -0.591,1.036 -0.746,1.565c-0.328,0.628 -0.673,1.374 -0.836,1.811c-0.006,0.016 -0.012,0.029 -0.018,0.045c-0.012,0.203 -0.042,0.445 -0.089,0.701c-0.048,0.256 -0.104,0.501 -0.162,0.714c0.038,0.042 0.077,0.085 0.119,0.132c0.056,0.061 0.114,0.119 0.175,0.179c0.195,0.425 0.943,0.896 1.201,1.028c0.18,0.095 0.37,0.179 0.567,0.253Zm11.047,-32.239c-0.502,-0.804 -0.511,0.203 -0.362,0.596c0.341,0.901 -0.023,1.365 -0.304,2.185c-0.173,0.503 0.422,0.198 0.578,-0.013c0.588,-0.799 0.615,-1.927 0.088,-2.768Z"/><path id="dp_path005" d="M29.736,79.315c-0.052,-0.166 -0.099,-0.335 -0.135,-0.506c-0.111,0.139 -0.37,0.063 -0.613,-0.079c0.003,0.052 0.004,0.113 0.004,0.179c-0.002,0.337 -0.22,0.764 -0.277,1.091c-0.058,0.327 0.109,2.164 0.164,2.651c0.015,0.14 0.026,0.282 0.031,0.419c-0.11,0.346 -0.231,0.691 -0.363,1.036c-0.039,-0.342 -0.06,-0.804 -0.086,-0.941c-0.204,-1.036 -0.431,-3.126 0.039,-4.272c0.069,-0.166 0.131,-0.293 0.187,-0.38c-0.045,-0.039 -0.084,-0.079 -0.117,-0.113c-0.152,-0.171 -0.441,-0.393 -0.766,-0.603c0.003,0.405 -0.095,0.838 -0.258,1.172c-0.061,0.29 -0.256,0.709 -0.455,0.968c0.002,0.079 -0.064,0.213 -0.21,0.485c-0.155,0.287 -0.241,1.842 -0.492,2.493c-0.164,0.424 -0.271,0.698 -0.352,0.872c-0.167,1.207 0.131,2.262 0.195,3.751c0,0.01 0.001,0.021 0.001,0.037c0,0.002 0,0.005 0.001,0.008c0.008,0.092 0.031,0.284 0.122,1.056c0.009,0.077 0.032,0.222 0.055,0.404c-0.206,0.59 -0.33,1.378 0.271,1.513c0.527,0.329 1.514,0.292 2.13,0.284c0.125,-0.002 0.253,-0.002 0.381,0c0.097,0.058 0.183,0.132 0.251,0.219c0.186,0.237 0.591,0.559 0.901,0.714c0.086,0.042 0.186,0.119 0.27,0.208c0.003,-0.013 0.008,-0.023 0.012,-0.034c0.257,0.119 0.64,0.005 0.855,-0.3c0.031,0.008 0.063,0.013 0.096,0.021c0.008,-0.006 0.017,-0.011 0.026,-0.013c0.042,0.013 0.089,0.031 0.14,0.05c0.313,0.108 0.843,0.179 1.089,-0.177l0.001,0c0.067,0.026 0.137,0.04 0.207,0.037c0.102,-0.09 0.244,-0.179 0.401,-0.258l0.001,-0.003c0.011,-0.018 0.022,-0.037 0.033,-0.055c0.017,-0.035 0.034,-0.066 0.048,-0.093c-0.151,-0.079 -0.258,-0.192 -0.251,-0.345c-0.081,-0.071 -0.158,-0.142 -0.225,-0.219c-0.034,-0.015 -0.07,-0.031 -0.108,-0.05c-0.169,-0.079 -0.298,-0.139 -0.4,-0.187c-0.445,-0.092 -1.082,-0.363 -1.207,-0.643c-0.098,-0.058 -0.152,-0.129 -0.129,-0.216c0.025,-0.09 0.145,-0.134 0.307,-0.145c0.032,-0.119 0.059,-0.261 0.096,-0.395c-0.231,0.008 -0.615,-0.032 -0.974,-0.106c-0.295,-0.06 -0.58,-0.153 -0.806,-0.203c-0.31,0.014 -0.64,-0.018 -0.69,-0.026c-0.054,-0.011 -0.15,-0.026 -0.259,-0.055c-0.313,0.047 -0.632,0.147 -0.872,0.242c-0.085,0.034 -0.16,0.077 -0.224,0.127c-0.197,0.029 -0.399,0.079 -0.568,0.176c-0.325,-0.058 0.141,-0.44 0.451,-0.611c0.026,0.002 0.055,0.005 0.088,0.005c0.465,0.026 0.312,-0.727 0.228,-1.125c0.017,-0.072 0.036,-0.14 0.058,-0.209c0.009,-0.205 0.029,-0.429 0.061,-0.656l0.001,-0.002c0.132,-0.182 0.31,-0.546 0.663,-1.31c0.65,-1.413 0.65,-1.413 0.844,-1.882c0.24,-0.588 0.486,-2.443 0.399,-3.007c0.005,-0.011 0.009,-0.024 0.015,-0.035c-0.002,-0.05 -0.006,-0.097 -0.011,-0.142c-0.005,-0.034 -0.006,-0.066 -0.005,-0.098c-0.015,-0.031 -0.032,-0.071 -0.05,-0.116c-0.076,-0.192 -0.153,-0.398 -0.22,-0.608Zm1.753,-0.583c0.817,-0.124 1.634,-0.345 1.862,-0.464c0.863,-0.453 1.661,-1.75 1.694,-2.851c0.346,0.121 1.006,0.274 1.768,0.4c1.441,0.237 3.202,0.443 4.587,-0.224c-0.024,-0.024 -0.047,-0.047 -0.069,-0.071c0.244,-0.069 0.533,-0.211 0.736,-0.414c-0.115,0.24 -0.201,0.448 -0.219,0.48c-0.018,0.034 -0.064,0.174 -0.106,0.35c-0.011,-0.01 -0.022,-0.023 -0.033,-0.034c-0.055,0.185 -0.115,0.417 -0.169,0.659c-0.055,0.24 -0.105,0.496 -0.141,0.727c-0.093,0.43 -0.151,0.876 -0.18,1.292c-0.031,0.445 -0.034,0.867 -0.017,1.265l0,0.003l-0.053,0.163c-0.071,0.224 -0.139,0.453 -0.186,0.677c-0.032,0.145 0.11,0.91 0.052,1.951c-0.084,1.489 -0.377,1.747 -0.573,2.696c-0.161,0.78 -0.22,1.004 0.036,1.27c0.117,0.122 0.202,0.172 0.265,0.169c0.073,0.116 0.173,0.206 0.293,0.29c0.098,0.277 0.464,0.485 0.62,0.638c0.428,0.422 1.399,0.379 2.086,-0.224c0.001,0 0.002,0.002 0.004,0.002c0.008,-0.015 0.018,-0.034 0.028,-0.052c0.157,-0.29 0.223,-0.327 0.579,-0.327c0.218,0 0.678,0.1 1.026,0.224c0.259,-0.011 0.692,0 1.066,0.032c0.027,0.002 0.053,0.005 0.078,0.007l0.001,0c0.006,-0.005 0.011,-0.01 0.017,-0.015c0.068,-0.011 0.14,-0.024 0.214,-0.043c0.151,-0.005 0.253,-0.042 0.312,-0.094c0.274,-0.101 0.543,-0.248 0.708,-0.427c0.198,-0.106 0.352,-0.306 0.458,-0.52c0.117,-0.044 0.203,-0.166 0.208,-0.392c0.017,-0.802 -1.379,-1.023 -1.96,-1.294c-0.508,-0.235 -0.508,-0.235 -0.64,-0.293c-0.013,-0.005 -0.026,-0.008 -0.04,-0.008c-0.331,-0.14 -0.585,-0.213 -0.675,-0.192c-0.007,-0.003 -0.014,-0.006 -0.022,-0.011c-0.425,-0.19 -0.425,-0.19 -1.022,-0.306c-0.098,-0.018 -0.18,-0.034 -0.25,-0.044c0.018,-0.079 0.038,-0.164 0.06,-0.256c0.247,-1.067 0.247,-1.067 0.3,-1.476c0.006,-0.05 0.01,-0.092 0.012,-0.132c0.231,-0.308 0.414,-0.822 0.491,-0.993c0.485,-1.11 0.485,-1.11 0.677,-1.65c0.051,-0.145 0.091,-0.311 0.118,-0.488c0.055,-0.089 0.108,-0.187 0.158,-0.282c0.155,-0.134 0.257,-0.316 0.328,-0.606c0.006,-0.011 0.013,-0.021 0.019,-0.029c0.249,-0.358 0.361,-1.202 0.345,-1.971c0.039,-0.182 0.061,-0.322 0.061,-0.354c0,-0.421 -0.035,-0.706 -0.092,-0.883c0.034,-0.044 0.068,-0.092 0.101,-0.139c0.258,0.124 0.608,0.229 0.951,0.253c0.742,0.047 1.283,-0.011 1.713,-0.195c0.055,-0.011 0.124,-0.037 0.21,-0.082c0.894,-0.48 1.617,-2.04 1.766,-3.023c0.07,0.208 0.089,0.134 0.197,-0.298c0.36,-1.442 -1.571,-3.927 -2.733,-4.483c-0.886,-0.422 -1.762,-0.862 -2.637,-1.305c0.019,0.014 0.038,0.029 0.056,0.045c-0.188,-0.089 -0.385,-0.176 -0.59,-0.258c-0.074,-0.232 -0.152,-0.464 -0.237,-0.696c-0.137,-0.369 -0.661,-0.962 -1.166,-1.32c-0.918,-0.654 -0.918,-0.654 -1.455,-0.783c-0.112,-0.029 -0.203,-0.045 -0.276,-0.05c-0.822,-0.981 -1.872,-1.674 -3.102,-2.515c-1.157,-0.79 -2.42,-1.568 -3.063,-1.889c0.007,0 0.014,0 0.021,0c-0.44,-0.151 -0.903,-0.414 -1.169,-0.72c-0.923,-0.195 -1.939,0.005 -2.654,0.604c-0.109,0.089 -0.202,0.168 -0.279,0.237c-1.623,-0.641 -3.759,-0.87 -4.695,0.883c-1.131,0.582 -2.019,1.586 -1.938,2.862c0.014,0.229 -0.307,0.762 -0.713,1.186c-1.331,1.389 -1.738,3.342 -1.731,5.198c0.004,1.104 0.339,1.821 0.618,1.789c0.032,0.119 0.068,0.235 0.108,0.345c-1.312,-0.163 -2.652,-0.118 -3.949,0.066c-0.111,0.013 -0.212,0.029 -0.304,0.045l0,-0.003c-0.072,-0.5 -1.302,-0.875 -1.69,-0.985c-0.488,-0.14 -0.488,-0.14 -0.866,-0.14c-0.265,0 -0.466,0.192 -0.474,0.356c-0.064,0.037 -0.119,0.087 -0.156,0.15c-0.355,0.596 -0.556,1.278 -0.766,1.945c-0.208,0.454 -0.393,0.904 -0.455,1.152c-0.375,1.457 -0.375,1.457 -0.841,2.298c-0.127,0.232 -0.22,0.398 -0.274,0.517c-0.264,0.174 -0.527,0.392 -0.678,0.582c-1.353,1.711 0.638,4.481 2.781,3.875c0.68,-0.193 0.897,-0.261 0.728,-0.327l0.012,-0.016c0.159,-0.211 0.39,-0.722 0.598,-1.426c0.148,-0.498 0.225,-0.856 0.251,-1.094l0.002,0c0.102,0.048 0.341,-0.058 0.719,-0.382c0.828,-0.711 1.807,-1.753 2.009,-2.854c0.016,-0.087 0.026,-0.161 0.032,-0.227c0.081,0.016 0.153,0.032 0.212,0.048c0.041,0.01 0.189,0.05 0.372,0.089c0.412,0.14 0.829,0.311 1.242,0.504c0.285,0.334 0.625,0.658 0.648,0.68c0.949,0.811 2.042,1.367 3.227,1.686c0.364,0.219 0.759,0.438 1.075,0.588c0.032,0.016 0.064,0.032 0.096,0.048c-0.028,0.121 -0.049,0.239 -0.063,0.326c-0.003,0.016 -0.006,0.043 -0.008,0.074c-0.011,0.077 -0.018,0.153 -0.024,0.229c-0.08,0.19 -0.144,0.406 -0.214,0.699c-0.023,0.092 -0.038,0.174 -0.049,0.25c-0.245,0.606 -0.438,1.368 -0.458,1.887c-0.083,0.193 -0.188,0.419 -0.322,0.688c-0.937,1.872 -0.661,3.405 -0.468,4.918c0.008,0.293 0.047,0.583 0.08,0.86c0.008,0.224 0.013,0.477 0.023,0.73c0,0.005 0,0.01 0,0.013c0.002,0.208 0.001,0.44 -0.001,0.667c-0.007,0.606 -0.035,1.146 -0.061,1.196c-0.121,0.232 -0.081,0.522 0.052,0.714c0.009,0.019 0.021,0.035 0.035,0.048c0.006,0.005 0.012,0.013 0.018,0.018c0.013,0.013 0.025,0.024 0.038,0.037l0.001,0c0.587,0.548 1.484,0.807 2.443,0.562c0.241,0.073 0.626,0.263 0.66,0.305c0.133,0.164 0.273,0.303 0.428,0.422c0.048,0.074 0.127,0.15 0.239,0.216c0.362,0.219 1.373,0.596 2.01,0.298c0.579,0.155 1.375,0.055 1.69,-0.567c0.452,0.071 1.161,-0.16 1.279,-0.638l0,-0.002c0.052,-0.061 0.07,-0.158 0.028,-0.295c-0.14,-0.448 -0.603,-0.82 -0.972,-1.078c-0.026,-0.016 -0.052,-0.037 -0.081,-0.053c-0.122,-0.187 -0.509,-0.314 -0.87,-0.348c-0.034,-0.013 -0.069,-0.026 -0.103,-0.039c-0.079,-0.048 -0.184,-0.09 -0.299,-0.124l0.001,-0.003c0.159,-0.169 0.298,-0.401 0.286,-0.588c-0.01,-0.155 -0.123,-0.242 -0.25,-0.261l-0.001,-0.002c-0.029,-0.061 -0.089,-0.09 -0.185,-0.106c-0.049,-0.008 -0.093,-0.005 -0.132,0.008c-0.168,-0.097 -0.453,-0.208 -0.818,-0.316c-0.713,-0.208 -0.988,-0.256 -1.243,-0.177c-0.331,-0.126 -0.765,-0.224 -1.065,-0.195c-0.009,-0.1 -0.018,-0.184 -0.021,-0.237c-0.004,-0.053 -0.007,-0.103 -0.011,-0.155c0.059,-0.314 0.057,-0.601 -0.031,-0.717c0,-0.013 0,-0.029 0,-0.042c0.024,-0.137 0.044,-0.251 0.064,-0.351c0.179,-0.408 0.443,-0.928 0.812,-1.642c0.356,-0.69 0.601,-1.305 0.762,-1.811c0.221,-0.601 0.361,-2.25 0.354,-2.727c0.074,-0.132 0.16,-0.327 0.282,-0.62c0.048,-0.237 0.246,-0.498 0.491,-0.767Zm-3.717,2.322c0.124,-0.677 0.006,-0.767 -0.356,-0.018c-0.547,1.13 -0.564,2.688 -0.599,3.716c-0.008,0.232 -0.186,1.339 -0.096,1.328c0.163,-0.023 0.408,-0.956 0.493,-1.831c0.046,-0.483 0.062,-1.263 0.163,-1.587c0.099,-0.324 0.334,-1.27 0.395,-1.608Zm3.059,-2.248c-0.268,0.016 -0.516,0.016 -0.72,-0.011c0.026,0.09 0.055,0.19 0.089,0.298c0.027,0.09 0.047,0.277 0.051,0.475c0.026,-0.016 0.053,-0.029 0.08,-0.04c0.17,-0.261 0.339,-0.503 0.5,-0.722Zm10.847,0.235c-0.015,0.376 0.013,0.743 0.117,1.033c-0.039,0.242 -0.06,0.477 -0.05,0.685c0.013,1.368 -0.257,2.462 -0.502,3.576c-0.14,0.467 -0.258,0.936 -0.322,1.263c0.009,0.047 0.016,0.103 0.024,0.163c0.08,0.691 0.557,0.227 0.808,0.846c0.258,0.203 0.569,0.617 0.99,0.541c0.069,-0.011 0.222,-0.048 0.4,-0.085c0.009,-0.052 0.024,-0.097 0.051,-0.134c-0.004,-0.029 -0.01,-0.061 -0.02,-0.095c-0.342,-0.119 -0.534,-0.543 -0.436,-0.949c0.061,-0.25 0.139,-0.39 0.219,-0.39c0.063,0 0.235,0.227 0.393,0.514c0.089,-0.071 0.188,-0.118 0.289,-0.145c0.34,0.132 0.728,0.195 0.944,0.222c0.155,0.015 0.329,0.047 0.498,0.087c0.054,0.021 0.114,0.047 0.182,0.076c0.616,0.258 0.684,0.287 1.148,0.382c0.008,-0.005 0.017,-0.013 0.027,-0.021c0.323,0.018 0.692,-0.029 0.93,-0.142c0.037,-0.077 0.086,-0.156 0.143,-0.238c0.018,-0.005 0.033,-0.01 0.045,-0.015c0.042,-0.024 0.072,-0.048 0.09,-0.074c0.261,0.042 0.513,0.01 0.451,-0.337c-0.015,-0.087 -0.345,-0.264 -0.903,-0.48c-0.879,-0.343 -0.879,-0.343 -1.265,-0.517c-0.376,-0.171 -0.386,-0.176 -0.548,-0.176c-0.196,-0.061 -0.567,-0.111 -1.335,-0.193c-0.664,-0.074 -1.022,-0.113 -1.238,-0.134c0.07,-0.382 0.317,-1.099 0.586,-1.842c0.044,-0.053 0.08,-0.108 0.104,-0.156c0.246,-0.501 0.259,-0.527 0.475,-1.426c0.005,-0.016 0.011,-0.029 0.016,-0.045c0.251,-0.709 0.473,-1.18 0.676,-1.744c0.124,-0.232 0.256,-0.464 0.391,-0.696c0.25,-0.332 0.448,-0.746 0.566,-1.149c0.01,-0.222 0.01,-0.588 0.01,-1.337c-0.033,-0.076 -0.068,-0.131 -0.105,-0.168c0.009,-0.148 0.03,-0.293 0.059,-0.43c-0.072,0.053 -0.148,0.103 -0.227,0.15c-0.602,0.372 -2.034,0.364 -2.461,-0.253c-0.049,-0.071 -0.088,-0.126 -0.118,-0.174l-0.02,-0.018c-0.092,0.44 -0.306,1.012 -0.535,1.389c0.011,0.01 0.022,0.021 0.034,0.032c-0.153,0.279 -0.253,0.629 -0.324,0.927c-0.094,0.388 -0.234,1.047 -0.257,1.677Zm-6.774,-4.42c0.099,-0.066 0.315,-0.093 0.683,-0.05c1.053,0.123 1.775,-0.322 2.373,-1.136c0.054,-0.077 0.154,-0.309 0.274,-0.586c0.248,-0.342 0.413,-0.73 0.441,-1.125c0.004,-0.005 0.008,-0.01 0.011,-0.016c-0.149,-0.002 -0.308,-0.018 -0.453,-0.052c-0.502,-0.114 -0.832,-0.401 -1.054,-0.781c0.012,-0.029 0.023,-0.058 0.033,-0.089c-0.007,-0.029 -0.012,-0.063 -0.016,-0.1c-0.088,-0.704 0.198,-1.661 0.652,-2.198c0.104,-0.122 0.187,-0.198 0.251,-0.235c0.02,-0.058 0.041,-0.116 0.065,-0.171c0.334,-0.09 0.69,-0.343 0.895,-0.604c0.303,-0.387 0.683,-0.627 1.099,-0.806c0.108,0.005 0.208,0.01 0.295,0.018c-0.005,0.011 -0.011,0.021 -0.016,0.032c-0.177,0.134 -0.362,0.332 -0.507,0.498c-0.422,0.303 -0.821,0.653 -1.09,1.08c-0.76,0.34 -1.336,1.134 -0.968,1.969c-0.063,0.14 -0.136,0.287 -0.211,0.414c0.33,0.219 0.678,0.409 1.062,0.524c0.457,0.138 0.618,0.254 0.602,0.34c0.568,-0.007 1.279,-0.168 1.453,-0.595c0.098,-0.243 0.269,-0.243 0.397,-0.132c0.012,-0.047 0.024,-0.092 0.037,-0.14c0.058,0.05 0.118,0.098 0.179,0.143c-0.045,0.558 -0.021,1.133 0.097,1.663c0.215,0.416 0.54,1.104 0.944,1.665c0.034,0.064 0.074,0.127 0.117,0.185c0.111,-0.092 0.204,-0.066 0.249,0.187c0.004,0.026 0.006,0.055 0.008,0.087c0.165,0.14 0.357,0.248 0.565,0.332c1.191,0.156 2.214,-0.016 2.813,-1.312c0.165,-0.356 0.467,-0.912 0.671,-1.234c0.338,-0.535 0.43,-0.498 0.414,-0.248c0.112,-0.445 0.207,-0.888 0.32,-1.288c0.02,-0.072 0.04,-0.148 0.057,-0.224c0.479,-1.018 0.619,-2.035 0.026,-2.886c-0.103,-0.269 -0.266,-0.509 -0.481,-0.738l0,-0.003c-0.258,-0.409 -0.607,-0.749 -1.062,-0.973c-0.182,-0.089 -0.371,-0.16 -0.563,-0.208c-0.006,-0.005 -0.011,-0.008 -0.017,-0.013c0,0.003 0.001,0.005 0.002,0.008c-0.054,-0.013 -0.109,-0.026 -0.163,-0.037c-0.024,-0.034 -0.049,-0.068 -0.073,-0.103c-0.684,-0.361 -1.373,-0.435 -1.944,0.148c-0.136,0.137 -0.27,0.245 -0.392,0.321l0,0.003c-0.456,0.804 -1.891,1.824 -1.084,2.97c0.003,0.003 0.005,0.008 0.008,0.011c-0.124,0.171 -0.213,0.393 -0.265,0.638c-0.067,-0.035 -0.124,-0.064 -0.173,-0.09c-0.494,-0.401 -0.266,-1.689 -0.151,-2.18c0.023,-0.102 0.063,-0.221 0.116,-0.35c0.247,-0.398 0.52,-0.78 0.788,-1.17c0.126,-0.108 0.261,-0.193 0.4,-0.237c0.027,-0.072 0.051,-0.143 0.074,-0.203c0.007,-0.011 0.015,-0.022 0.023,-0.029c0.029,-0.037 0.059,-0.072 0.089,-0.103l-0.001,0c-0.027,0.013 -0.055,0.026 -0.082,0.042c0.005,-0.016 0.01,-0.032 0.016,-0.047c0.26,-0.148 0.572,-0.243 0.816,-0.34c0.219,-0.087 0.361,-0.18 0.446,-0.275c0.222,-0.007 0.46,0.029 0.72,0.111c0.013,0.003 0.026,0.008 0.039,0.013l-0.001,-0.002c-0.281,-0.367 -0.575,-0.715 -0.909,-1.026c-0.106,-0.168 -0.272,-0.353 -0.501,-0.527c-0.343,-0.263 -1.223,-0.783 -1.779,-0.706c-1.337,-1.674 -3.333,-2.849 -5.15,-3.903c-0.369,-0.214 -1.032,-0.662 -1.332,-0.952c-0.833,-0.082 -1.622,-0.163 -2.509,0.179c-0.829,0.322 -1.167,0.501 -0.735,0.116l-0.973,0.079c-1.163,-0.313 -2.561,-0.023 -3.299,0.936c-0.086,0.111 -0.185,0.261 -0.279,0.432c0.043,0.071 0.057,0.282 0.011,0.675c-0.119,1.023 0.032,2.591 0.642,3.463c0.066,0.092 0.131,0.203 0.184,0.306c0.377,0.097 0.829,0.263 1.132,0.419c0.724,0.377 0.724,0.377 0.665,0.401c-0.03,0.01 0.035,0.366 0.149,0.817c0.021,0.015 0.042,0.037 0.063,0.055c0.141,0.087 0.273,0.195 0.379,0.319c0.004,-0.185 0.016,-0.356 0.033,-0.511c0.032,-0.293 0.119,-0.939 0.314,-1.505c-0.109,-0.119 -0.204,-0.248 -0.257,-0.354c-0.399,-0.798 -0.399,-0.798 -1.008,-1.57l-0.608,-0.773c0.4,0 0.705,0.103 1.031,0.359c0.477,0.374 0.951,0.967 1.241,1.576c0.115,-0.132 0.247,-0.224 0.4,-0.258c-0.077,0.479 -0.146,1.223 -0.058,1.905c-0.173,0.591 -0.277,1.197 -0.167,1.874c0.003,0.024 0.008,0.048 0.015,0.074c-0.014,0.05 -0.026,0.097 -0.036,0.145c-0.019,0.092 -0.034,0.19 -0.044,0.295c0.281,0.48 0.519,0.983 0.663,1.508c0.073,0.266 0.094,0.445 0.078,0.55c0.054,0.056 0.111,0.116 0.17,0.182c0.187,0.211 0.378,0.477 0.531,0.73c0.077,-0.06 0.154,-0.123 0.227,-0.189c0.012,-0.006 0.024,-0.011 0.037,-0.016l0.002,0c0.072,-0.013 0.141,-0.021 0.202,-0.019c0.216,0.014 0.387,-0.026 0.522,-0.105c0.014,0.005 0.028,0.013 0.043,0.018c0.008,-0.021 0.018,-0.044 0.029,-0.068c0.155,-0.121 0.253,-0.301 0.314,-0.514c0.058,-0.079 0.12,-0.158 0.186,-0.237c-0.05,-0.085 -0.086,-0.177 -0.103,-0.274c0.034,-0.483 -0.019,-1.012 -0.012,-1.395c0.007,0.008 0.013,0.021 0.017,0.035c0.028,-0.035 0.062,-0.066 0.101,-0.095c0.428,-0.309 0.593,0.248 0.593,0.617c-0.001,0.121 0.06,0.292 0.154,0.453c0.167,-0.077 0.318,-0.082 0.428,0.031c-0.148,0.127 -0.28,0.28 -0.386,0.443c-0.196,0.15 -0.335,0.353 -0.347,0.583c-0.022,-0.011 -0.043,-0.024 -0.064,-0.035c-0.142,0.188 -0.283,0.406 -0.405,0.636c-0.001,0 -0.002,0.002 -0.002,0.002c0.031,0.011 0.061,0.021 0.092,0.029c-0.064,0.143 -0.124,0.303 -0.173,0.472c-0.389,0.005 -0.865,0.063 -1.172,0.145c-0.008,0.003 -0.016,0.005 -0.024,0.005c0.004,0.013 0.008,0.027 0.012,0.037c0.011,0.034 0.02,0.069 0.028,0.103c0.577,0.78 0.979,1.737 1.114,2.63c0.01,0.064 0.018,0.151 0.022,0.253c0.278,0.219 0.499,0.48 0.655,0.852Zm3.808,-0.591c-0.032,-0.045 -0.062,-0.089 -0.09,-0.137c-0.217,0.562 -0.541,1.107 -0.992,1.447c1.722,0.171 2.008,0.14 2.791,-0.327c-0.669,-0.116 -1.318,-0.435 -1.709,-0.983Zm-7.708,-0.796c-0.41,-0.232 -0.851,-0.232 -0.423,0.259c0.436,0.5 0.35,1.267 0.11,1.829c-0.403,0.938 0.417,0.585 0.595,-0.006c0.143,-0.469 0.254,-1.779 -0.282,-2.082Zm-7.078,-0.432c-0.028,-0.024 -0.945,-0.788 -0.755,-0.237c0.207,0.601 0.612,0.838 1.129,1.22c1.393,1.028 2.916,1.426 4.594,1.692c-0.269,-0.564 -1.316,-0.635 -1.854,-0.814c-1.078,-0.359 -2.261,-1.12 -3.114,-1.861Zm14.97,0.648c0.113,0.069 0.227,0.151 0.313,0.222c0.54,0.432 1.033,0.669 1.723,0.78c0.13,0.021 0.265,0.061 0.385,0.111c0.22,-0.161 0.454,-0.285 0.641,-0.325l-0.381,-0.366c-0.167,-0.208 -0.298,-0.419 -0.403,-0.632c-0.087,-0.18 -0.156,-0.364 -0.211,-0.557c-0.01,-0.297 -0.002,-0.598 0.018,-0.882c-0.457,0.324 -1.243,0.432 -1.759,0.424c0.012,0.427 -0.111,0.843 -0.326,1.225Zm-7.623,4.552c0.416,-0.082 0.829,-0.216 1.209,-0.398c0.526,0.119 0.531,0.095 0.551,0.011c0.016,-0.077 0.212,-0.253 0.574,-0.525c0.289,-0.216 0.512,-0.601 0.641,-1.036c0.31,-0.297 0.295,-0.954 0.051,-1.404c-0.072,-0.277 -0.203,-0.517 -0.399,-0.686c-0.286,-0.93 -0.891,-1.818 -1.359,-2.598c-0.141,-0.235 -0.259,-0.435 -0.359,-0.601c0.067,-0.032 0.125,-0.077 0.168,-0.132c-0.001,0 -0.001,-0.003 -0.002,-0.003c-0.142,-0.184 -0.333,-0.416 -0.66,-0.806l-0.524,-0.633c-0.281,-0.158 -0.782,-0.348 -1.183,-0.445c-0.014,-0.003 -0.035,-0.008 -0.062,-0.016c0.019,0.026 0.038,0.053 0.057,0.079c-0.134,-0.029 -0.27,-0.05 -0.408,-0.063c-0.595,0.053 -1.225,0.134 -1.538,0.203c-0.389,0.084 -1.48,0.403 -1.646,0.835c-0.08,0.214 -0.491,0.628 -0.83,0.878c0.646,0.198 1.276,0.459 1.882,0.793c1.158,0.638 2.414,1.394 2.639,2.702c0.013,0.076 0.023,0.19 0.028,0.316c-0.181,-0.19 -0.351,-0.358 -0.472,-0.498c-0.613,-0.712 -1.086,-1.244 -1.825,-1.782c-0.621,-0.45 -1.278,-0.682 -2.026,-0.806c-0.149,-0.027 -0.443,-0.074 -0.77,-0.1c-1.506,-0.48 -3.159,-0.564 -4.807,-0.462c-0.289,0.019 -0.561,0.021 -0.795,0.008c-0.004,0.219 -0.104,0.272 -0.47,-0.031c-0.06,-0.053 -0.123,-0.103 -0.188,-0.151c-0.164,-0.055 -0.289,-0.097 -0.389,-0.131c-0.043,-0.069 -0.084,-0.14 -0.122,-0.209c-0.467,-0.271 -0.996,-0.471 -1.5,-0.479c-0.172,0.174 -0.366,0.551 -0.476,0.951c-0.093,0.332 -0.211,0.601 -0.386,0.822c-0.249,1.271 -0.232,3.527 -1.349,4.12c-0.054,0.084 -0.126,0.184 -0.218,0.3c-1.276,1.592 -0.8,3.171 1.516,3.593c0.284,0.05 0.505,0.087 0.656,0.118c-0.013,-0.2 0.054,-0.624 0.243,-1.323c0.302,-1.112 0.71,-1.737 0.797,-1.47c0.071,-0.172 0.22,-0.406 0.447,-0.67c0.197,-0.229 1.227,-1.895 1.849,-2.551c-0.234,-0.024 -0.482,-0.037 -0.698,-0.037c-0.183,0 -1.399,-0.15 -0.709,-0.48c0.538,-0.258 1.277,-0.116 1.84,-0.002c0.416,0.084 1.158,0.237 1.475,0.603c-0.008,-0.076 0.032,-0.121 0.14,-0.121c0.056,0 0.254,0.097 0.437,0.213c0.334,0.217 0.337,0.219 1.128,0.915c0.249,0.219 0.488,0.43 0.737,0.617c0.635,0.303 1.321,0.569 2.015,0.761c0.796,0.109 1.823,0.259 1.984,0.715c0.042,0.118 0.052,0.184 -0.045,0.205c0.002,0.003 0.004,0.003 0.006,0.006c0.02,0.01 0.04,0.023 0.06,0.036c0.173,0.106 0.329,0.206 0.468,0.301c0.542,0.303 1.069,0.414 1.751,0.474c0.265,0.021 0.482,0.064 0.639,0.114c0.075,-0.011 0.151,-0.024 0.227,-0.04Zm15.389,-3.961c0.066,0.008 0.137,0.018 0.215,0.031c0.728,0.116 1.209,0.048 1.593,-0.226c0.167,-0.119 0.401,-0.185 0.625,-0.203c0.095,-0.211 0.195,-0.393 0.238,-0.448c0.188,-0.256 1.069,-2.009 1.508,-2.404c-0.473,-1.257 -1.361,-2.625 -2.381,-3.387c-0.123,-0.092 -0.246,-0.184 -0.368,-0.276c1.073,1.541 0.893,3.558 -0.768,5.611c-0.112,0.139 -0.201,0.248 -0.27,0.335c-0.042,0.134 -0.081,0.25 -0.111,0.329c-0.086,0.227 -0.178,0.44 -0.281,0.638Zm-8.818,-7.111c-0.497,-0.706 -2.629,-0.762 -3.345,-0.319c-0.092,0.058 -0.159,0.111 -0.206,0.158c0.007,0.092 0.006,0.19 -0.003,0.287l0.002,0.003c0.145,0.076 0.438,0.079 0.69,-0.008c0.786,-0.279 1.737,-0.145 2.468,0.272c0.495,0.279 0.726,0.079 0.394,-0.393Zm-12.731,3.608c0.065,-0.097 0.142,-0.203 0.229,-0.314c0.157,-0.242 0.365,-0.485 0.608,-0.716c0.498,-0.564 1.211,-1.313 1.982,-1.242c0.376,-0.137 0.748,-0.216 1.088,-0.216c0.031,0 0.063,0 0.095,0c0.008,-0.005 0.017,-0.013 0.026,-0.018c0.307,-0.217 0.918,-0.143 1.464,0.021c0.211,0.008 0.346,0.026 0.436,0.066c-0.37,-0.781 -0.833,-1.458 -1.509,-2.011c-0.468,-0.383 -0.511,-0.596 -0.353,-0.667c-0.059,-0.121 -0.087,-0.216 -0.076,-0.274c-0.714,-0.093 -2.087,-0.551 -2.224,-0.599c-1.306,-0.463 -1.471,-0.471 -2.012,-0.095c-0.146,0.103 -0.266,0.159 -0.361,0.182c-0.239,0.546 -0.395,1.147 -0.492,1.753c0.456,-1.299 3.511,-2.343 4.327,-1.012c0.299,0.488 0.473,0.675 -0.074,0.245c-0.96,-0.754 -2.478,0.021 -3.215,0.693c-0.408,0.372 -1.023,1.052 -1.12,0.712c-0.048,0.487 -0.063,0.967 -0.058,1.407c0.002,0.116 0,0.224 -0.003,0.324c0.003,0.008 0.006,0.014 0.01,0.022c0.087,0.205 0.4,1.022 0.432,1.562c0.268,0.048 0.535,0.109 0.8,0.177Zm9.321,-5.946l0.729,-0.545c-0.352,0 -1.643,0.413 -1.512,0.896c0.054,0.195 0.054,0.195 0.783,-0.351Zm-7.955,-0.664c-0.167,-0.158 -0.304,-0.337 -0.377,-0.517c-0.097,-0.239 -0.174,-0.606 -0.229,-1.014c-0.19,0.45 -0.416,0.851 -0.628,1.086c-0.082,0.089 -0.159,0.184 -0.231,0.282c0.017,-0.003 0.035,-0.003 0.053,-0.003c0.406,0 0.406,0 1.166,0.118c0.054,0.008 0.139,0.024 0.246,0.048Zm7.96,-0.622c1.199,-0.332 -1.41,-0.351 -1.224,0.332c0.069,0.253 1.034,-0.279 1.224,-0.332Zm2.186,-0.303c0.106,-0.295 -0.234,0.292 -0.259,0.519c-0.099,0.88 0.177,1.906 0.758,2.583c0.816,0.951 0.787,0.079 0.322,-0.585c-0.349,-0.498 -1.037,-1.919 -0.821,-2.517Zm3.435,0.021c-0.727,-0.82 -1.562,-1.494 -2.428,-2.138c-0.017,-0.065 -0.032,-0.123 -0.036,-0.155c-0.088,-0.63 -1.649,-1.249 -2.161,-1.473c-0.349,-0.151 -0.999,-0.338 -1.445,-0.412c-1.187,-0.197 -0.644,0.145 0.171,0.43c1.237,0.432 2.27,1.26 3.374,1.937c0.06,0.037 0.097,0.04 0.118,0.019c0.733,0.698 0.895,0.856 1.605,1.555l-0.002,0c-0.011,-0.006 -0.021,-0.008 -0.031,-0.011c0.67,0.538 1.698,1.342 1.615,2.291c0.012,0.042 0.025,0.084 0.037,0.129c0.023,0.084 0.051,0.163 0.082,0.239c0.093,0.045 0.194,0.116 0.283,0.198c0.08,-0.076 0.164,-0.15 0.254,-0.219c-0.004,-0.018 -0.008,-0.036 -0.012,-0.055c-0.182,-0.843 -0.521,-1.539 -1.23,-2.05c-0.079,-0.132 -0.148,-0.232 -0.194,-0.285Zm-6.719,-2.38c-0.318,-0.243 -1.556,-1.041 -0.897,-0.221c0.571,0.709 1.488,1.338 2.396,1.504c0.82,0.151 0.073,-0.482 -0.275,-0.606c-0.347,-0.124 -0.898,-0.427 -1.224,-0.677Zm-6.309,2.169c-0.217,-0.814 -0.215,-1.75 -0.117,-2.425c0.013,-0.097 0.03,-0.187 0.049,-0.271c-0.049,-0.008 -0.078,-0.05 -0.085,-0.124c-0.221,0.245 -0.399,0.54 -0.534,0.915c0.033,0.113 0.066,0.239 0.102,0.379c0.118,0.469 0.339,1.033 0.585,1.526Z"/><path id="dp_path006" d="M85.43,66.079c-0.223,0.121 -0.77,0.329 -1.217,0.466c-0.665,0.2 -0.879,0.303 -1.173,0.572c-0.164,0.148 -0.929,0.759 -0.843,0.245c0.164,-0.988 1.536,-1.399 2.5,-1.5c-0.061,-0.042 -0.078,-0.181 -0.115,-0.498c-0.184,-1.581 -1.791,-2.301 -3.178,-2.646c-0.087,0.327 -0.173,0.788 -0.271,1.186c0.066,0.127 0.125,0.274 0.161,0.367c0.152,0.408 0.391,1.217 0.838,1.386c0.187,0.068 0.182,0.321 -0.064,0.292c-0.736,-0.089 -1.217,-0.875 -1.274,-1.62c-0.604,0.361 -0.995,0.909 -1.292,1.626c-0.082,0.197 -0.145,0.35 -0.19,0.471c-0.304,0.135 -0.601,0.256 -0.858,0.372c-0.084,0.037 -0.155,0.063 -0.216,0.082c-0.029,0.024 -0.06,0.05 -0.093,0.079c-0.737,0.625 -2.235,2.24 -2.608,2.97c-0.258,0.504 -0.614,1.002 -0.935,1.505c-0.042,0.095 -0.087,0.195 -0.135,0.298c-0.455,0.967 -0.514,0.88 -0.501,1.413c0,0.042 0.001,0.084 0.001,0.129c0.022,-0.029 0.046,-0.058 0.07,-0.09c0.152,-0.195 1.048,-2.066 0.986,-1.36c-0.001,0.008 -0.002,0.013 -0.003,0.021c-0.086,0.475 -1.745,3.039 -1.88,3.126c-0.064,0.042 -0.133,0.108 -0.203,0.193c-0.043,-0.043 -0.085,-0.082 -0.126,-0.122c-0.248,0.783 -0.509,1.511 -0.562,1.569c-0.099,0.108 -0.196,0.303 -0.277,0.556l0,0.002c-0.008,0.082 -0.02,0.177 -0.034,0.282l0.001,0.003c0.04,0.066 0.071,0.145 0.089,0.213c0.068,0.248 -0.11,0.846 -0.327,1.181c0.012,0.079 -0.038,0.214 -0.151,0.485c-0.121,0.287 -0.017,1.842 -0.19,2.493c-0.112,0.425 -0.186,0.696 -0.246,0.873c-0.021,1.204 0.406,2.261 0.65,3.748c0.002,0.013 0.004,0.023 0.006,0.037c0,0.002 0.001,0.007 0.002,0.01c0.019,0.09 0.065,0.285 0.25,1.054c0.018,0.079 0.059,0.224 0.104,0.404c-0.135,0.593 -0.163,1.381 0.454,1.515c0.567,0.329 1.55,0.293 2.165,0.285c0.124,-0.003 0.253,-0.003 0.381,0c0.104,0.058 0.199,0.131 0.278,0.218c0.214,0.238 0.658,0.559 0.987,0.712c0.091,0.042 0.201,0.121 0.295,0.211c0.003,-0.013 0.005,-0.024 0.008,-0.034c0.271,0.118 0.641,0.005 0.819,-0.301c0.031,0.005 0.064,0.013 0.098,0.021c0.008,-0.005 0.016,-0.01 0.024,-0.013c0.045,0.013 0.093,0.032 0.147,0.048c0.326,0.11 0.864,0.181 1.067,-0.174l0.002,0c0.07,0.026 0.142,0.039 0.211,0.036c0.091,-0.089 0.222,-0.179 0.37,-0.258l0,-0.002c0.01,-0.019 0.018,-0.037 0.026,-0.058c0.014,-0.032 0.026,-0.064 0.037,-0.093c-0.161,-0.076 -0.281,-0.192 -0.293,-0.342c-0.089,-0.071 -0.175,-0.145 -0.251,-0.219c-0.036,-0.016 -0.074,-0.034 -0.115,-0.05c-0.178,-0.079 -0.314,-0.14 -0.422,-0.187c-0.456,-0.095 -1.126,-0.367 -1.285,-0.643c-0.106,-0.058 -0.168,-0.132 -0.155,-0.216c0.014,-0.09 0.129,-0.135 0.289,-0.148c0.018,-0.116 0.028,-0.258 0.048,-0.393c-0.229,0.008 -0.619,-0.031 -0.987,-0.105c-0.302,-0.061 -0.598,-0.153 -0.83,-0.203c-0.309,0.01 -0.642,-0.021 -0.693,-0.029c-0.056,-0.008 -0.154,-0.027 -0.267,-0.053c-0.306,0.048 -0.614,0.145 -0.842,0.243c-0.08,0.031 -0.15,0.076 -0.209,0.123c-0.193,0.029 -0.388,0.082 -0.545,0.18c-0.333,-0.058 0.087,-0.44 0.375,-0.614c0.027,0.005 0.056,0.005 0.09,0.008c0.467,0.023 0.223,-0.731 0.091,-1.126c0.009,-0.071 0.019,-0.14 0.032,-0.208c-0.015,-0.208 -0.022,-0.43 -0.018,-0.656l0.001,-0.003c0.11,-0.182 0.244,-0.546 0.503,-1.31c0.48,-1.413 0.48,-1.413 0.616,-1.882c0.142,-0.493 0.179,-1.874 0.097,-2.641c-0.04,-0.105 -0.085,-0.203 -0.133,-0.287c0,-0.003 -0.001,-0.003 -0.001,-0.003c-0.001,-0.007 -0.001,-0.013 -0.001,-0.018c0.019,-0.079 0.038,-0.158 0.055,-0.235c-0.008,-0.034 -0.014,-0.065 -0.016,-0.097c-0.02,-0.034 -0.041,-0.071 -0.064,-0.116c-0.258,-0.503 -0.535,-1.083 -0.631,-1.663c-0.269,-0.106 -0.577,-0.464 -0.64,-0.612c-0.062,-0.142 -0.109,-0.463 -0.045,-0.561c0.215,0.332 0.494,0.551 0.802,0.672c0.18,0.148 0.255,0.251 0.241,0.345c0.06,0.032 0.104,0.079 0.108,0.137c0.009,0.111 0.122,0.425 0.307,0.852c0.024,0.055 0.051,0.155 0.075,0.269c0.005,-0.064 0.008,-0.122 0.008,-0.169c0.006,-0.011 0.012,-0.021 0.019,-0.032c0.005,-0.05 0.008,-0.097 0.008,-0.145c0.001,-0.034 0.004,-0.068 0.009,-0.1c-0.01,-0.037 -0.021,-0.079 -0.032,-0.126c-0.119,-0.554 -0.238,-1.184 -0.184,-1.769c-0.231,-0.166 -0.434,-0.593 -0.458,-0.748c-0.036,-0.238 0.072,-0.889 0.284,-0.388c0.123,0.293 0.123,0.293 0.393,0.656c0.151,0.203 0.202,0.33 0.163,0.422c0.049,0.045 0.079,0.103 0.069,0.158c-0.019,0.108 0.01,0.44 0.079,0.899c0.014,0.098 0.008,0.29 -0.015,0.488c0.027,-0.011 0.054,-0.016 0.081,-0.019c0.95,-1.041 1.8,-1.673 1.921,-1.781c0.836,-0.754 1.04,-1.324 1.3,-1.756c0.037,-0.06 0.072,-0.124 0.104,-0.187c0.034,-0.071 0.075,-0.148 0.119,-0.227c0.192,-0.355 0.433,-0.593 0.682,-0.851c0.149,-0.153 0.301,-0.314 0.447,-0.511c0.099,-0.135 -0.018,-0.398 0.021,-0.509c-0.24,-0.411 -0.755,-0.598 -0.586,-0.97c0.001,-0.002 0.24,-1.534 0.242,-1.536c0.073,-0.691 0.003,-2.823 0.441,-1.318c0.119,0.414 -0.044,1.818 -0.224,2.361c0.013,0.069 0.17,0.359 0.166,0.438c-0.003,0.071 0.326,0.377 0.304,0.63c0.321,-0.14 1.121,-0.403 1.262,-0.548c0.086,-0.087 0.552,-0.367 0.908,-0.578c0.423,-0.25 0.776,-0.608 1.068,-1.022c-0.413,-0.301 -0.415,-0.472 -0.231,-0.527c0.019,-0.008 0.041,-0.014 0.064,-0.016c0.334,0.15 0.72,0.25 1.128,0.313c0.432,0.198 0.672,0.209 1.213,0.111c0.441,-0.079 2.024,0.019 1.055,0.438c-0.05,0.021 -0.102,0.042 -0.155,0.06c0.326,0.306 0.715,0.817 0.754,0.941c0.485,1.555 -1.01,0.161 -1.194,-0.835c-0.485,0.079 -1.045,0.058 -1.551,-0.048c0.032,0.135 0.055,0.311 0.066,0.533c0.046,0.962 -0.497,1.557 -0.644,0.817l0,-0.003c-0.078,0.074 -0.174,0.153 -0.292,0.237c-0.102,0.071 -0.189,0.156 -0.261,0.248c-0.139,0.047 -0.288,0.153 -0.355,0.261c-0.331,0.517 -0.09,1.21 0.241,1.782c0.283,0.919 0.857,1.889 1.401,2.548c0.344,0.219 0.752,0.633 0.887,0.878c0.596,1.086 2.512,0.008 3.174,-0.485c1.736,-1.294 1.703,-2.752 0.862,-4.633c-0.059,-0.135 -0.139,-0.317 -0.217,-0.512c-0.208,0.206 -0.508,-0.132 -0.535,-0.946c-0.018,-0.54 0.063,-1.233 0.188,-1.674c0.071,-0.042 0.099,-0.145 0.177,-0.216c0.128,-0.116 0.266,-0.153 0.333,-0.211c0.481,0.048 1.536,-0.838 1.717,-1.32c-0.006,0.021 0.018,0.532 0.011,0.554c-0.172,0.508 -0.463,0.917 -0.924,1.083c-0.229,0.153 -0.504,0.313 -0.52,0.387c-0.288,0.2 -0.27,0.451 -0.255,1.234c0.087,0.05 0.189,0.118 0.308,0.208c0.092,0.071 0.178,0.155 0.256,0.248c0.025,-0.103 0.01,-0.414 0.035,-0.517c0.152,-0.108 0.982,-0.841 0.871,-0.73c-0.013,0.011 0.294,-0.227 0.583,-0.696c0.025,-0.039 0.084,-0.137 0.161,-0.25c-0.012,-0.013 -0.008,-0.042 0.014,-0.087c0.458,-0.97 0.825,-2.035 1.004,-3.079c-0.029,-0.176 -0.056,-0.319 -0.095,-0.508c-0.016,-0.077 -0.034,-0.161 -0.054,-0.259c-0.037,-0.05 -0.078,-0.094 -0.123,-0.129c0.006,-0.087 0.011,-0.174 0.014,-0.261c-0.046,0.072 -0.1,0.132 -0.16,0.185c-0.077,-0.026 -0.148,-0.048 -0.214,-0.066c-0.009,-0.034 -0.018,-0.069 -0.028,-0.103c0.124,-0.564 0.207,-1.152 0.219,-1.347c0.111,-1.818 0.062,-2.44 -0.245,-3.133c-0.142,-0.325 -0.348,-0.641 -0.533,-0.841c-0.147,-0.641 0.003,-1.41 -0.047,-1.977c-0.061,-0.69 -0.569,-1.634 -0.773,-2.008c-0.083,-0.15 -0.306,-1.007 -0.397,-1.671c-0.26,-0.037 0.285,-2.602 0.263,-2.725c-0.058,-0.332 -0.858,-0.169 -1.224,-0.056c-0.427,0.024 -0.866,0.14 -1.271,0.29c-0.287,0.027 -0.569,0.074 -0.675,0.106c-0.229,0.063 -1.916,0.189 -3.303,0.123c-0.032,0.032 -0.083,0.066 -0.153,0.101c-0.683,0.34 -2.111,-0.024 -2.792,-0.227c-0.225,-0.069 -0.408,-0.15 -0.523,-0.235c-0.011,0.14 -0.04,0.259 -0.098,0.327c0.041,0.533 -0.097,2.164 -0.164,3.134c-0.028,0.406 -0.052,0.73 -0.078,0.991c0.222,0.021 0.286,0.25 -0.045,0.78c-0.771,1.239 -1.566,2.127 -1.08,3.408c0.212,0.561 0.452,1.497 0.149,1.576c-0.052,0.148 -0.125,0.34 -0.218,0.583c-0.228,0.595 -0.432,1.423 -0.463,1.866c0.198,-0.259 0.452,-0.485 0.767,-0.654c0.185,-0.1 0.353,-0.214 0.464,-0.314c0.489,-0.435 0.004,0.24 -0.141,0.417c-0.59,0.727 -1.099,1.499 -1.217,2.414c-0.009,0.071 -0.043,0.198 -0.089,0.327c0.012,0.145 0.03,0.295 0.055,0.445c-0.074,0.087 -0.145,0.179 -0.214,0.272c-0.007,0.044 -0.014,0.092 -0.021,0.142c0.416,-0.395 0.813,-0.793 1.164,-1.176c0.563,-0.614 0.973,-0.922 1.456,-1.378c-0.016,-0.43 -0.002,-0.875 0.04,-1.326c0.061,0.085 0.13,0.164 0.207,0.238c0.055,-0.13 0.283,-0.259 0.485,-0.275c0.238,-0.018 0.679,0.016 0.98,0.077c1.012,0.2 1.918,0.891 2.478,1.713c0.268,0.393 0.561,1.602 -0.091,1.84c-0.031,0.01 -0.058,0.021 -0.083,0.031c0.131,-0.01 0.252,-0.013 0.358,-0.008l0.596,0.019l-0.403,0.219Zm-1.414,3.273c-0.082,0.185 -0.145,0.469 -0.161,0.828c-0.001,0.018 -0.001,0.034 -0.002,0.05c-0.212,-0.003 -0.513,0.087 -0.801,0.274c-0.731,0.474 -0.984,1.138 -0.953,1.866c0.017,0.034 0.035,0.068 0.051,0.105c0.319,0.688 0.575,1.437 0.745,2.204c0.348,0.606 0.759,1.162 1.118,1.597c0.053,0.063 0.117,0.126 0.187,0.187c0.336,0.962 0.968,1.436 1.714,1.563c-0.025,0.453 -0.202,1.025 -0.25,1.576c-0.014,0.145 0.221,0.909 0.289,1.95c0.097,1.489 -0.166,1.745 -0.246,2.697c-0.066,0.78 -0.098,1.004 0.19,1.27c0.132,0.121 0.223,0.169 0.285,0.166l0,0.003c0.088,0.113 0.199,0.205 0.329,0.289c0.132,0.277 0.522,0.483 0.697,0.638c0.48,0.419 1.446,0.38 2.059,-0.224c0.001,0 0.002,0 0.004,0.003c0.007,-0.019 0.014,-0.034 0.022,-0.053c0.122,-0.29 0.184,-0.327 0.54,-0.327c0.218,0 0.689,0.101 1.053,0.224c0.257,-0.013 0.692,0 1.07,0.032c0.027,0.003 0.053,0.005 0.079,0.008l0,-0.003c0.005,-0.002 0.011,-0.008 0.016,-0.013c0.066,-0.01 0.137,-0.024 0.209,-0.042c0.15,-0.008 0.248,-0.042 0.3,-0.095c0.262,-0.1 0.513,-0.248 0.656,-0.427c0.185,-0.108 0.315,-0.306 0.396,-0.519c0.111,-0.048 0.182,-0.166 0.159,-0.395c-0.08,-0.799 -1.502,-1.02 -2.117,-1.292c-0.536,-0.234 -0.536,-0.234 -0.676,-0.292c-0.013,-0.006 -0.026,-0.008 -0.04,-0.008c-0.349,-0.14 -0.611,-0.214 -0.698,-0.193c-0.008,-0.002 -0.016,-0.008 -0.024,-0.01c-0.447,-0.193 -0.447,-0.193 -1.059,-0.306c-0.1,-0.018 -0.184,-0.034 -0.255,-0.045c0.009,-0.079 0.018,-0.163 0.029,-0.258c0.117,-1.065 0.117,-1.065 0.121,-1.473c0,-0.051 -0.002,-0.093 -0.004,-0.132c0.193,-0.309 0.315,-0.823 0.37,-0.994c0.351,-1.109 0.351,-1.109 0.477,-1.65c0.077,-0.329 0.081,-0.783 0.011,-1.157c-0.013,-0.071 -0.03,-0.145 -0.05,-0.213c0.028,-0.222 0.047,-0.398 0.055,-0.501c0.501,-0.561 0.85,-1.197 0.929,-1.808c0.114,-0.888 0.06,-2.47 -0.456,-3.498c0.042,-0.276 0.072,-0.49 0.09,-0.653c0.003,-0.011 0.006,-0.019 0.009,-0.027l0.455,-0.374c0.696,-0.572 0.696,-0.572 1.141,-1.115c0.255,-0.313 0.429,-0.664 0.409,-0.825c-0.009,-0.071 -0.023,-0.126 -0.042,-0.166c0.568,-0.809 0.861,-2.364 0.912,-2.994c0.036,-0.437 -0.015,-0.764 -0.098,-0.922c-0.081,-0.348 -0.112,-0.461 -0.192,-0.672c0.364,-1.431 0.353,-2.834 -0.418,-4.059c-0.048,-0.077 -0.095,-0.145 -0.14,-0.208l0,-0.003c0.002,-0.058 -0.301,-0.677 -0.302,-0.741c-0.019,-1.428 -0.114,-2.485 -0.835,-3.676c-0.146,-0.243 -0.271,-1.018 -0.472,-1.603c0.091,-0.242 0.099,-0.73 0.092,-1.75c-0.005,-0.672 -0.009,-1.109 -0.008,-1.415c0.041,-0.032 0.076,-0.09 0.101,-0.174c0.019,-0.026 0.036,-0.05 0.05,-0.074c0.176,-0.313 0.209,-0.516 0.153,-0.638c0.022,-0.195 0.016,-0.453 -0.028,-0.774c-0.01,-0.08 -0.022,-0.153 -0.036,-0.222c-0.309,0.034 0.186,-0.066 0.259,-0.258c0.175,-0.467 0.051,-0.274 0.334,-0.891c0.067,-0.148 -0.011,-0.949 0.088,-1.054c0.065,-0.303 0.094,-0.625 0.078,-0.846c0.188,-0.867 0.12,-1.827 -0.149,-2.736c0.071,-0.229 0.119,-0.477 0.156,-0.72c0.02,-0.084 0.038,-0.213 0.054,-0.369c0.013,-0.1 0.027,-0.197 0.041,-0.289c0.042,-0.275 0.069,-0.504 0.083,-0.688c0.062,-0.496 0.052,-1.018 -0.043,-1.518c0.054,-0.087 0.107,-0.198 0.158,-0.319c0.045,-0.952 0.035,-2.396 0.315,-3.329c0.31,-1.041 0.472,-4.151 0.334,-5.35c-0.115,-0.997 -0.399,-4.94 -0.273,-5.303c0.051,-0.151 0.088,-0.256 0.113,-0.338c0.015,-0.121 0.029,-0.232 0.043,-0.332c0.002,-0.008 0.004,-0.016 0.006,-0.021c0,-0.008 0,-0.016 -0.001,-0.024c-0.005,-0.097 0.085,-0.384 0.21,-0.677c0.081,-0.298 0.598,-1.829 0.843,-2.665c0.136,-0.463 0.286,-1.099 0.402,-1.681c0.152,-0.111 0.175,-0.432 0.195,-1.339c0.027,-1.189 -0.047,-1.526 -0.503,-2.28c-0.353,-0.58 -0.607,-0.83 -0.911,-0.875l-0.001,-0.002c-0.052,-0.101 -0.134,-0.18 -0.231,-0.24c-0.042,-0.098 -0.111,-0.135 -0.31,-0.19c-0.817,-0.235 -1.84,0.422 -1.945,1.281c-0.025,0.021 -0.049,0.042 -0.072,0.066c-0.327,0.3 -0.498,0.769 -0.547,1.254c0.019,0.106 0.047,0.214 0.082,0.322c-0.057,0.385 -0.024,0.896 0.118,1.283c-0.03,0.246 0.014,0.557 0.011,0.691c-0.008,0.395 -0.007,0.77 0.001,0.959c-0.055,0.158 -0.139,0.301 -0.284,0.546c-0.056,0.092 -0.111,0.19 -0.165,0.292c-0.286,0.615 -0.42,1.192 -0.366,1.869c0.012,0.045 0.027,0.087 0.045,0.129c0.054,0.129 0.143,0.438 0.111,0.622c0.02,0.135 0.034,0.38 0.034,0.651c0,0.614 -0.061,1.268 -0.257,1.856c-0.01,0.052 -0.019,0.105 -0.03,0.158c-0.012,0.029 -0.025,0.06 -0.039,0.089c0,0.037 -0.001,0.074 -0.002,0.114c-0.063,0.29 -0.137,0.582 -0.224,0.877c-0.119,0.404 -0.211,0.839 -0.232,1.126c0,0.005 0,0.008 0,0.013c0,0.071 0,0.129 -0.001,0.179c0.003,0.024 0.006,0.045 0.011,0.064c-0.006,0.023 -0.011,0.047 -0.017,0.073c-0.004,0.035 -0.009,0.061 -0.018,0.079c-0.141,0.617 -0.281,1.2 -0.328,1.376c-0.091,0.33 -0.148,0.617 -0.177,0.859c-0.64,1.041 -0.422,2.378 -0.28,3.611c-0.108,0.849 -0.14,1.766 -0.068,2.153c-0.156,0.124 -0.306,0.261 -0.449,0.406c-0.73,0.029 -1.448,0.272 -1.815,0.92c-0.123,0.216 -0.193,0.496 -0.188,0.699l-0.001,0c-0.389,0.116 -0.719,0.308 -0.851,0.582c-0.35,-0.09 -0.729,-0.161 -1.118,-0.211c-0.439,0.103 -0.948,0.095 -1.242,0.058c-0.534,-0.068 -1.167,-0.023 -1.407,0.1c-0.27,0.137 -0.766,0.388 -1.251,0.533c-0.424,-0.216 -0.928,-0.327 -1.461,-0.364c-0.191,-0.042 -0.385,-0.079 -0.578,-0.111c-0.294,-0.066 -0.591,-0.118 -0.887,-0.153c-0.187,0.169 -0.449,0.338 -0.677,0.446c-0.077,0.187 -1.5,-0.087 -2.408,-0.113c-0.922,-0.027 -2.042,0.374 -2.583,0.456c-0.03,0.071 -0.059,0.116 -0.084,0.129c-0.112,0.058 -0.155,0.013 -0.155,-0.166c0,-0.232 0.703,-3.013 0.735,-3.15c0.007,-0.111 0.011,-0.203 0.011,-0.269c0,-0.387 -0.033,-0.767 -0.091,-1.141c0.002,-0.071 0.003,-0.148 0.004,-0.229c-0.368,-1.408 -0.732,-6.618 -0.622,-6.774c0.304,-0.669 0.884,-2.034 1.29,-2.649c0.358,-0.569 0.488,-1.022 0.457,-1.396c0.022,-0.04 0.043,-0.095 0.063,-0.159c0.242,-0.793 -0.977,-1.323 -1.508,-1.668c-0.126,-0.082 -0.445,-0.264 -0.609,-0.192c-0.001,-0.008 -0.001,-0.019 -0.002,-0.029c-0.009,-0.016 -0.017,-0.035 -0.025,-0.05c-0.226,-0.085 -0.249,-0.122 -0.449,-0.578c-0.167,-0.382 -0.365,-0.764 -0.492,-1.159c-0.003,-0.011 -0.005,-0.019 -0.008,-0.029c-0.195,-0.306 -0.373,-0.546 -0.536,-0.725c-0.017,-0.055 -0.043,-0.105 -0.076,-0.156c-0.022,-0.055 -0.059,-0.118 -0.114,-0.179c-0.053,-0.06 -0.108,-0.108 -0.167,-0.15c-0.081,-0.069 -0.173,-0.129 -0.267,-0.179c-0.124,-0.069 -0.354,-0.143 -0.577,-0.161c-0.063,-0.05 -0.128,-0.098 -0.194,-0.14c-0.096,-0.371 -0.471,-0.585 -0.85,-0.64c-0.341,-0.05 -0.341,-0.05 -0.567,-0.05c-0.373,0 -0.604,0.29 -0.646,0.627l-0.001,0c-0.167,-0.047 -0.435,0.177 -0.505,0.301c-0.068,0.123 -0.11,0.39 -0.085,0.627c-0.024,0.197 0,0.306 0.012,0.537c-0.072,0.456 0.039,1.113 0.331,1.442c0.088,0.316 0.307,0.672 0.609,0.751c0.151,0.39 0.213,0.817 0.347,1.368c0.169,0.374 0.373,0.883 0.491,1.234c0.019,0.058 0.479,0.975 0.512,1.23c0.328,0.762 0.204,2.976 -0.415,5.361c-0.14,0.538 -0.599,3.643 -0.745,4.404c-0.019,0.095 -0.036,0.185 -0.052,0.267c0.011,0.232 0.035,0.545 0.081,1.151c0.008,0.103 0.003,0.475 -0.022,0.786l0.001,0c0.083,0.469 0.123,1.051 0.094,1.412c-0.056,0.67 -0.056,0.67 -0.056,1.326c0,0.659 0,0.659 -0.112,1.228c-0.061,0.311 -0.095,1.007 -0.075,1.545c0,0.016 0,0.031 0.001,0.055c0.119,0.514 0.376,0.925 0.77,1.329c0.215,0.052 0.461,0.118 0.708,0.189c1.119,0.322 2.199,1.542 4.614,2.23c0.071,0.021 2.74,0.261 2.807,0.287c0.13,0.164 0.263,0.749 0.424,0.883c0.239,0.008 0.703,-0.023 1.003,0c0.824,0.061 1.595,-0.2 1.923,-0.105c0.073,0.021 0.138,0.039 0.197,0.06c0.38,0.022 0.76,0.019 1.138,-0.013c-0.028,0.114 -0.051,0.237 -0.067,0.364c0.045,0.053 0.099,0.119 0.164,0.195c0.374,0.448 0.374,0.448 0.41,0.593c0.023,0.095 0.047,0.237 0.064,0.406c-0.041,0.285 -0.024,0.646 0.057,0.901c-0.291,0.572 -0.326,2.715 -0.376,3.002c-0.06,0.346 -0.313,1.64 -0.34,1.845c-0.079,0.077 -0.044,0.685 -0.106,0.775c-0.7,1.015 -1.203,2.623 -0.718,3.798c-0.124,0.15 -0.37,1.373 -0.507,1.494c-0.531,1.563 -0.579,2.383 -0.348,3.978c-0.06,0.084 0.159,0.911 0.21,1.025c0.003,0.008 0.007,0.016 0.012,0.023c-0.608,0.567 -1.242,1.121 -1.824,1.624c0,0.011 -1.205,1.563 -1.204,1.573c-0.117,0.24 -0.23,0.488 -0.332,0.72c-0.545,0.741 -0.981,1.06 -1.18,1.871c-0.181,0.48 -0.266,0.981 -0.232,1.463c-0.112,0.427 -0.211,0.751 -0.321,0.846c-0.122,0.108 -0.223,0.203 -0.31,0.301c0.01,0.007 0.02,0.015 0.029,0.023c-0.173,0.314 -0.388,0.612 -0.634,0.875c-0.009,0.256 -0.034,0.448 -0.091,0.533c-0.331,0.477 -0.43,0.756 -0.512,1.441c-0.011,0.09 -0.016,0.174 -0.018,0.251c-0.171,0.606 -0.272,1.368 -0.229,1.887c-0.059,0.192 -0.137,0.419 -0.239,0.688c-0.71,1.868 -0.247,3.402 0.129,4.918c0.044,0.292 0.118,0.582 0.184,0.859c0.036,0.224 0.071,0.477 0.112,0.73c0.001,0.005 0.002,0.008 0.002,0.013c0.027,0.208 0.054,0.44 0.08,0.667c0.066,0.606 0.104,1.144 0.083,1.197c-0.093,0.229 -0.017,0.522 0.14,0.714c0.011,0.016 0.024,0.032 0.041,0.047c0.006,0.006 0.013,0.011 0.02,0.019c0.013,0.01 0.028,0.024 0.042,0.034c0,0 0.001,0.003 0.002,0.003c0.652,0.545 1.581,0.804 2.51,0.561c0.25,0.074 0.659,0.264 0.697,0.306c0.153,0.163 0.31,0.303 0.479,0.419c0.057,0.076 0.146,0.15 0.266,0.219c0.388,0.216 1.445,0.595 2.046,0.295c0.598,0.155 1.381,0.058 1.621,-0.564c0.46,0.071 1.141,-0.161 1.201,-0.638l0,-0.003c0.045,-0.06 0.051,-0.158 -0.008,-0.295c-0.194,-0.451 -0.702,-0.82 -1.103,-1.078c-0.027,-0.018 -0.056,-0.037 -0.087,-0.055c-0.145,-0.185 -0.547,-0.314 -0.912,-0.345c-0.036,-0.016 -0.072,-0.029 -0.108,-0.043c-0.085,-0.044 -0.194,-0.087 -0.314,-0.121l0.001,-0.002c0.138,-0.169 0.249,-0.404 0.214,-0.588c-0.028,-0.156 -0.152,-0.243 -0.281,-0.264l-0.001,0c-0.037,-0.063 -0.101,-0.089 -0.198,-0.105c-0.05,-0.008 -0.093,-0.005 -0.131,0.008c-0.18,-0.098 -0.478,-0.209 -0.857,-0.317c-0.738,-0.208 -1.019,-0.255 -1.264,-0.176c-0.347,-0.127 -0.793,-0.227 -1.089,-0.195c-0.02,-0.1 -0.04,-0.185 -0.05,-0.237c-0.009,-0.053 -0.019,-0.103 -0.029,-0.156c0.021,-0.314 -0.016,-0.601 -0.118,-0.717c-0.003,-0.013 -0.005,-0.029 -0.006,-0.042c0.008,-0.137 0.014,-0.253 0.022,-0.35c0.129,-0.409 0.33,-0.928 0.613,-1.645c0.272,-0.688 0.443,-1.302 0.542,-1.808c0.148,-0.601 0.088,-2.251 0.023,-2.728c0.058,-0.132 0.12,-0.327 0.207,-0.619c0.011,-0.132 0.068,-0.274 0.153,-0.419c-0.021,-0.04 -0.043,-0.08 -0.066,-0.119c0.059,-0.09 0.126,-0.203 0.207,-0.335c0.201,-0.574 1.368,-1.078 1.791,-1.613c1.208,-1.668 2.034,-2.353 2.192,-2.746c0.479,-0.809 0.397,-1.046 0.495,-1.394c0.179,-0.037 0.659,-0.306 0.785,-0.38c0.131,-0.076 0.262,-0.155 0.393,-0.234c0.15,-0.166 1.446,-1.002 1.628,-1.157c0.079,-0.069 0.156,-0.137 0.229,-0.203c0.098,-0.209 0.169,-0.427 0.204,-0.657l0.001,0c0.134,0.077 0.286,0.143 0.449,0.198Zm-11.498,10.614c0.042,-0.678 -0.087,-0.77 -0.359,-0.019c-0.409,1.131 -0.238,2.686 -0.148,3.716c0.021,0.23 -0.024,1.339 0.065,1.326c0.16,-0.021 0.293,-0.954 0.271,-1.829c-0.013,-0.482 -0.09,-1.262 -0.03,-1.587c0.061,-0.324 0.18,-1.27 0.201,-1.607Zm0.959,-2.148c-0.079,-0.683 -0.274,-0.773 -0.494,-0.014c-0.331,1.147 0.15,3.234 0.479,4.27c0.044,0.14 0.121,0.601 0.201,0.944c0.09,-0.346 0.169,-0.691 0.237,-1.036c-0.022,-0.14 -0.049,-0.282 -0.082,-0.422c-0.114,-0.485 -0.504,-2.322 -0.486,-2.649c0.018,-0.326 0.185,-0.753 0.145,-1.093Zm13.011,0.419c-0.06,0.474 -0.104,1.009 -0.033,1.433c0.179,1.368 0.042,2.462 -0.069,3.577c-0.083,0.466 -0.144,0.936 -0.167,1.262c0.013,0.048 0.028,0.101 0.042,0.164c0.165,0.69 0.585,0.224 0.912,0.843c0.282,0.206 0.643,0.62 1.055,0.543c0.067,-0.013 0.217,-0.05 0.39,-0.084c0.002,-0.056 0.011,-0.098 0.034,-0.135c-0.007,-0.031 -0.017,-0.063 -0.03,-0.094l-0.001,0c-0.357,-0.119 -0.6,-0.543 -0.551,-0.949c0.03,-0.251 0.091,-0.39 0.171,-0.39c0.064,0 0.263,0.224 0.456,0.514c0.08,-0.072 0.173,-0.119 0.272,-0.145c0.355,0.129 0.751,0.195 0.97,0.218c0.157,0.019 0.335,0.05 0.509,0.087c0.057,0.024 0.12,0.05 0.19,0.077c0.648,0.261 0.72,0.29 1.195,0.385c0.008,-0.008 0.016,-0.014 0.024,-0.021c0.326,0.018 0.689,-0.029 0.914,-0.143c0.028,-0.076 0.067,-0.158 0.114,-0.237c0.017,-0.005 0.032,-0.011 0.043,-0.016c0.039,-0.024 0.066,-0.047 0.081,-0.074c0.266,0.043 0.514,0.011 0.41,-0.337c-0.026,-0.09 -0.377,-0.264 -0.961,-0.48c-0.921,-0.342 -0.921,-0.342 -1.328,-0.516c-0.397,-0.174 -0.407,-0.177 -0.569,-0.177c-0.204,-0.06 -0.581,-0.111 -1.358,-0.195c-0.674,-0.071 -1.036,-0.111 -1.255,-0.132c0.042,-0.68 0.512,-2.409 0.76,-3.468c0.239,-1.028 0.478,-1.56 0.624,-2.583c-0.001,-0.003 -0.001,-0.005 -0.001,-0.008c-0.009,-0.058 -0.031,-0.206 -0.041,-0.366c-0.102,0.071 -0.206,0.147 -0.311,0.224c-0.002,0.01 -0.004,0.023 -0.006,0.034c-0.054,0.314 -0.274,0.685 -0.365,0.98c-0.092,0.298 -0.097,1.036 -0.135,1.487c-0.069,0.825 -0.291,1.681 -0.448,1.684c-0.086,0.003 0.07,-1.03 0.074,-1.249c0.017,-0.836 0.021,-1.674 0.345,-2.536c-0.031,0.027 -0.062,0.05 -0.092,0.074c-0.556,0.303 -1.146,0.506 -1.709,0.559c-0.028,0.076 -0.077,0.142 -0.155,0.19Zm-9.291,-7.844c0.31,-0.675 0.073,-0.93 -0.444,-0.263c-0.522,0.677 -0.532,1.262 0.142,1.681c0.099,0.063 0.189,0.103 0.27,0.129c-0.384,0.38 -1.067,0.891 -1.12,0.967c-1.083,1.561 -1.364,1.131 -1.394,1.184c-0.099,0.166 -0.256,0.495 0.008,0.556c0.517,0.119 1.814,-1.273 2.034,-1.592c0.338,-0.493 0.794,-0.796 0.833,-0.98c0.019,-0.09 0.027,-0.156 0.027,-0.209c0.062,-0.123 -0.011,-0.332 -0.262,-0.532c-0.36,-0.287 -0.366,-0.348 -0.094,-0.941Zm10.977,-1.834c-0.121,0.034 -0.243,0.063 -0.366,0.089c-0.111,0.027 -0.234,0.05 -0.366,0.071c0.031,0.127 0.127,0.198 0.332,0.124c0.159,-0.06 0.291,-0.158 0.4,-0.284Zm2.776,-3.801c-0.005,-0.097 -0.005,-0.205 0,-0.321c-0.308,-0.103 -0.684,-0.016 -0.972,0.21c-0.02,0.014 -0.037,0.027 -0.052,0.04c0.073,-0.079 0.152,-0.203 0.233,-0.38c0.294,-0.645 0.53,-1.684 0.343,-2.427c0.175,0.008 0.475,-0.119 0.833,-0.422c0.182,-0.155 0.312,-0.287 0.4,-0.395c0.094,0.817 0.484,2.172 0.466,0.851c-0.009,-0.703 -0.009,-0.703 -0.067,-1.059c-0.032,-0.195 -0.192,-0.34 -0.356,-0.319c-0.027,0.003 -0.045,0.037 -0.054,0.092c-0.227,-0.024 -0.651,0.14 -0.967,0.446c-0.196,0.184 -0.317,0.347 -0.377,0.477l-0.001,-0.003c-0.025,-0.05 -0.054,-0.098 -0.085,-0.14c-0.618,-0.862 -0.585,0.024 -0.426,0.657c0.214,0.856 0.19,1.151 -0.149,1.802c-0.301,0.58 -0.156,1.089 0.125,0.894c-0.166,0.168 0.186,0.042 0.469,0.002c0.287,-0.039 0.514,-0.013 0.642,0.072c-0.002,-0.024 -0.004,-0.05 -0.005,-0.077Zm-6.622,-4.075c-0.779,-0.158 -1.902,-0.063 -2.633,0.438c-0.513,0.348 -0.116,0.485 0.297,0.274c0.817,-0.419 1.806,-0.482 2.675,-0.643l-0.339,-0.069Zm4.259,5.425c-0.221,-1.816 0.084,-6.687 -0.18,-7.346c-0.147,-0.364 -0.343,-0.598 -0.503,-0.667c0.013,0.09 0.024,0.182 0.032,0.274c0.14,0.543 0.135,1.221 0.058,1.893c0.011,0.071 0.022,0.139 0.032,0.211c-0.042,0.145 -0.045,5.131 -0.052,5.189c0.025,1.228 -0.233,2.08 -0.654,2.712c0.068,-0.01 0.156,-0.021 0.274,-0.037c0.225,-0.097 1.085,-1.47 0.993,-2.229Zm-1.533,-8c0.281,-0.885 -0.661,-0.092 -0.858,0.185c-0.596,0.835 -0.95,1.858 -0.95,2.897c0,1.378 0.524,-0.346 0.832,-0.96c0.457,-0.914 0.897,-1.868 0.976,-2.122Zm-4.444,-0.492c-0.212,0.052 -0.464,0.063 -0.562,0.029c-0.156,-0.056 -0.172,-0.04 -0.143,0.147c0.069,0.44 1.353,0.016 1.665,-0.103c1.12,-0.429 -0.651,-0.145 -0.96,-0.073Zm6.883,0.661c-0.625,-1.138 -1.713,-1.323 -0.603,0.14c0.599,0.785 0.599,0.785 0.938,1.663c0.636,1.639 -0.078,-1.334 -0.335,-1.803Zm-5.402,-1.763c-0.098,-0.042 -0.582,-0.04 -1.076,0.008c-0.748,0.068 -0.903,0.105 -0.926,0.216c-0.028,0.134 0.083,0.113 0.724,-0.005c0.49,-0.09 0.969,-0.14 1.456,-0.14l-0.178,-0.079Zm2.223,-3.068c-0.583,-2.043 -0.481,-0.664 -0.204,0.551c0.238,1.049 0.57,1.937 1.268,2.741c-0.376,-1.094 -0.746,-2.182 -1.064,-3.292Zm3.526,-1.265c-0.276,-1.099 -0.387,0.39 -0.363,0.754c0.079,1.188 -0.078,2.153 -0.657,3.199c-0.459,0.828 -0.459,0.828 -0.17,0.828c0.223,0 0.398,-0.206 0.757,-0.888c0.576,-1.094 0.738,-2.681 0.433,-3.893Zm-1.648,1.977c0.024,0.005 0.037,-0.122 0.034,-0.44c-0.011,-0.759 -0.021,-1.516 -0.031,-2.275c-0.121,0.021 -0.242,0.042 -0.362,0.066c-0.005,0.514 0.262,2.628 0.359,2.649Zm-2.672,-3.645c0.385,0.005 0.681,-0.008 0.798,-0.05c0.749,-0.077 1.483,-0.243 2.176,-0.52c0.009,0.003 0.017,0.006 0.026,0.008c0.187,0.037 0.442,0.05 0.717,0.032c0.823,-0.058 1.634,-1.497 1.634,-1.537c-0.891,0.33 -2.071,0.314 -2.451,0.39c-0.05,0.008 0.112,-0.213 0.066,-0.2c-0.331,0.04 -1.389,0.406 -1.515,0.422c-0.216,-0.024 -2.026,0.35 -2.674,0.445c-0.556,0.085 -1.178,0.258 -2.118,0.169c-0.325,-0.032 -0.572,-0.053 -0.762,-0.063c-0.035,-0.032 -0.382,-0.037 -0.519,-0.106c-0.137,-0.066 -0.244,-0.066 -0.326,-0.026c0.018,0.132 0.053,0.366 0.066,0.601c0.143,-0.005 0.427,0.045 0.966,0.139c0.619,0.109 1.436,0.198 1.814,0.198c0.045,0 0.117,0.005 0.199,0.016c0.649,0.034 1.364,0.074 1.903,0.082Zm-3.359,-1.55c0.606,0.068 1.282,0.076 1.979,0.034c0.214,-0.047 0.441,-0.1 0.683,-0.153c0.597,-0.131 3.088,-0.632 3.161,-0.632c-0.106,0.045 -0.054,0.095 0.219,0.002c0.767,0.011 1.278,-0.058 1.665,-0.158c0.945,-0.245 1.292,-0.917 1.415,-1.824c0.085,-0.627 0.103,-0.846 0.029,-1.02c0.286,-0.669 0.282,-1.663 0.186,-2.124c-0.022,-0.103 -0.063,-0.208 -0.115,-0.311c0.032,-0.179 0.053,-0.366 0.064,-0.551c0.133,-0.356 0.219,-0.801 0.246,-1.246c-0.054,-0.035 -0.107,-0.106 -0.153,-0.222c0.065,-0.501 0.146,-1.333 0.064,-1.665c-0.151,-0.617 -1.002,-1.131 -1.526,-1.392c-0.32,-0.161 -0.982,-0.258 -1.486,-0.272c0.013,0 0.026,-0.002 0.039,-0.002c-0.02,-0.008 -0.04,-0.013 -0.059,-0.019c-0.336,-0.1 -0.676,-0.145 -1.005,-0.123c-0.01,0.01 -0.02,0.021 -0.03,0.031c-0.504,-0.005 -0.965,0.116 -1.234,0.475l-0.002,0c-0.081,0.068 -0.158,0.147 -0.232,0.231c0.035,-0.002 0.07,-0.005 0.105,-0.007c-0.023,0.052 -0.043,0.11 -0.06,0.171c0.279,-0.145 0.612,-0.237 0.936,-0.185c0.309,0.05 0.843,0.064 0.293,0.151c-0.177,0.029 -0.593,0.208 -0.926,0.403c-0.13,0.076 -0.245,0.137 -0.347,0.19c0.001,0.01 0.003,0.021 0.006,0.031c-0.001,0 -0.001,0.003 -0.001,0.003c-0.005,0.045 -0.009,0.084 -0.012,0.124l-0.002,0c-0.266,0.219 -0.563,0.524 -0.647,0.817c-0.18,-0.056 -0.452,-0.121 -0.762,-0.182l-0.001,0c-0.228,-0.069 -0.469,-0.111 -0.725,-0.145c-0.182,-0.021 -0.3,-0.037 -0.46,-0.042c-1.048,-0.116 -2.345,-0.116 -3.299,0.387c-0.65,0.011 -1.279,0.132 -1.701,0.375c-0.017,-0.016 -0.047,-0.035 -0.087,-0.058c-0.03,0.129 -0.084,0.305 -0.15,0.506c-0.449,1.357 -0.644,2.783 -0.783,4.201c-0.339,-1.389 -0.172,-3.213 0.579,-4.454c0.089,-0.148 0.161,-0.256 0.217,-0.333c-0.362,-0.2 -1.011,-0.516 -1.077,-0.556c-0.477,-0.29 -1.652,1.858 -1.785,2.652c-0.046,0.1 -0.093,0.187 -0.142,0.263c-0.008,0.198 -0.032,0.451 -0.069,0.775c-0.06,0.512 0.219,4.28 0.548,4.333c0.255,0.042 1.282,-0.574 1.459,-0.545c0.19,0.065 0.393,0.126 0.605,0.181c-0.006,0.008 -0.011,0.016 -0.016,0.024c0.046,0.003 0.092,0.005 0.138,0.008c0.453,0.116 0.941,0.208 1.428,0.264c0.547,0.058 1.093,0.068 1.585,0.008c0.271,0.023 0.52,0.042 0.723,0.052c-0.136,0.064 -0.29,0.127 -0.465,0.193c-0.152,0.055 -0.306,0.102 -0.46,0.147c0.183,0.098 0.495,0.208 0.764,0.269c0.361,0.079 0.683,0.192 0.988,0.395c-0.609,0.077 -1.26,0.277 -1.783,-0.134c-0.103,-0.079 -0.231,-0.282 -0.295,-0.448c-0.067,0.016 -0.134,0.029 -0.201,0.042c0.017,0.084 0.033,0.179 0.047,0.285c0.015,0.108 0.037,0.224 0.064,0.342c0.164,0.029 0.397,0.101 0.733,0.209c0.334,0.108 0.716,0.181 1.13,0.229Zm6.843,-1.547c0.051,-0.032 0.051,-0.032 -0.482,-0.098c-0.189,-0.023 -1.023,-0.103 -0.908,0.322c0.085,0.308 1.185,-0.092 1.39,-0.224Zm-0.056,-1.373c0.657,-0.933 -1.279,0.529 -1.553,0.682c-0.473,0.264 -0.872,0.564 -1.141,1.039c-0.411,0.727 1.217,-0.506 1.352,-0.601c0.594,-0.411 1.198,-0.915 1.342,-1.12Zm-16.192,-4.22c-1.026,-0.1 -1.026,-0.1 -1.519,-0.1c-1.123,0 1.522,0.443 1.994,0.332c0.915,-0.216 0.077,-0.177 -0.475,-0.232Zm9.657,-0.416c-1.205,-0.593 -1.002,0.008 -0.01,0.498c0.821,0.406 1.328,1.128 1.84,1.85l-0.603,-1.02c-0.347,-0.59 -0.867,-1.152 -1.227,-1.328Zm-12.219,0.015c0.853,-0.54 -0.613,-0.342 -0.871,-0.116c-0.117,0.101 -0.439,0.143 -0.714,0.09c-0.854,-0.161 0.271,0.556 0.686,0.443c0.233,-0.063 0.637,-0.251 0.899,-0.417Zm4.523,4.803c-0.007,-0.066 -0.049,-0.138 -0.123,-0.201c0.011,-0.103 -0.061,-2.021 -0.053,-2.108c0.117,-1.366 0.738,-3.334 0.76,-3.485c0.014,-0.1 0.006,-0.184 -0.019,-0.253c0.025,-0.15 0.011,-0.226 -0.076,-0.134c-0.165,-0.195 -0.498,-0.256 -0.77,-0.314c-1.001,-0.203 -2.887,-0.229 -3.797,0.538c-0.592,0 -1.184,0 -1.776,0c0.052,0.311 -0.44,0.308 -0.833,0.045c-0.106,-0.443 -0.125,-0.572 -0.21,-1.181c0.127,0.108 0.312,0.274 0.593,0.53c0.106,0.095 0.19,0.182 0.256,0.261l1.121,-0.401c0.243,-0.024 0.691,-2.398 0.8,-3.223c0.219,-0.77 0.462,-1.503 0.107,-2.283c-0.043,-0.095 -0.079,-0.174 -0.11,-0.242c-0.012,-0.158 -0.029,-0.343 -0.051,-0.562c-0.034,-0.334 -0.258,-3.444 -0.314,-4.788c0.024,-0.343 0.061,-0.731 0.1,-1.023c0.041,-0.303 0.068,-0.498 0.085,-0.625c0.155,-0.163 0.251,-0.429 0.369,-0.609c0.125,-0.187 0.316,-0.495 0.426,-0.685c0.069,-0.121 0.128,-0.253 0.16,-0.35c0.326,-0.251 0.596,-0.617 0.686,-0.96c0.181,-0.693 -0.439,-1.381 -1.022,-1.623c-0.091,-0.04 -0.259,-0.106 -0.438,-0.161c-0.214,-0.177 -0.501,-0.319 -0.722,-0.416c-0.135,-0.232 -0.289,-0.459 -0.45,-0.662c-0.076,-0.111 -0.156,-0.213 -0.233,-0.303c-0.025,-0.069 -0.054,-0.153 -0.09,-0.264c-0.061,-0.181 -0.236,-0.556 -0.302,-0.877c-0.036,-0.056 -0.07,-0.103 -0.12,-0.166c-0.104,-0.24 -0.197,-0.411 -0.443,-0.533c-0.196,-0.095 -0.479,-0.166 -0.69,-0.063c-0.019,-0.134 -0.057,-0.264 -0.095,-0.337c-0.044,-0.087 -0.176,-0.219 -0.292,-0.288c-0.067,-0.042 -0.143,-0.073 -0.227,-0.097c-0.018,-0.016 -0.038,-0.032 -0.06,-0.045c-0.195,-0.124 -0.496,-0.184 -0.692,-0.024c-0.087,0.072 -0.124,0.198 -0.103,0.298c-0.013,0.042 -0.017,0.087 -0.015,0.132c-0.146,-0.016 -0.305,0.008 -0.376,0.068c-0.342,0.293 -0.125,1.036 0.015,1.363c0.014,0.032 0.026,0.058 0.038,0.087c0.005,0.04 0.011,0.084 0.018,0.134c0.022,0.164 0.037,0.28 0.055,0.367c0.073,0.087 0.148,0.166 0.209,0.234c0.048,0.053 0.143,0.153 0.252,0.235l0.33,0.928c0.099,0.247 0.241,0.5 0.411,0.73c0.237,0.843 0.601,1.834 0.919,2.467c0.008,0.016 0.018,0.034 0.028,0.052c0.004,0.045 0.003,0.093 0.019,0.132c0.203,0.535 -0.062,3.972 -0.227,4.707c-0.113,0.506 -0.173,1.018 -0.265,1.519c-0.09,0.3 -0.149,0.616 -0.199,0.933c-0.143,0.469 -0.264,1.017 -0.257,1.497c-0.194,0.769 -0.236,2.862 -0.236,3.089c0,0.5 0,0.901 0,1.228c-0.038,0.068 -0.071,0.145 -0.098,0.232c-0.164,0.543 -0.237,1.154 -0.067,1.7c0.02,0.089 0.049,0.176 0.086,0.261c0.006,0.029 0.013,0.058 0.02,0.084c-0.011,0.171 -0.033,0.371 -0.067,0.603c-0.131,0.86 -0.187,1.229 -0.056,1.548c-0.021,0.226 0.015,0.455 0.092,0.579c0.168,0.272 0.576,0.585 0.98,0.691c0.043,0.045 0.084,0.087 0.124,0.129c0.135,0.018 0.348,0.071 0.655,0.161c0.206,0.06 2.249,1.065 2.713,1.32c0.397,0.219 1.271,0.509 2.042,0.541c0.149,0.147 1.661,0.005 1.505,-0.137Zm7.005,-6.25c0.279,-0.139 -1.145,0.459 -1.436,0.617c-1.294,0.696 -1.813,2.298 -2.279,3.593c0.655,-0.354 0.871,-1.105 1.211,-1.729c0.523,-0.96 1.534,-1.996 2.504,-2.481Zm5.762,0.422c-0.357,-0.371 -0.776,-0.701 -0.929,-0.733c-0.536,-0.105 0.064,0.449 0.234,0.533c0.483,0.232 0.91,0.561 1.344,0.875l-0.649,-0.675Zm3.382,-0.424c-0.263,-0.459 -0.684,-0.836 -1.118,-1.002c-1.22,-0.466 -0.402,0.243 0.133,0.802c0.795,0.827 0.992,1.694 1.183,2.775l0.112,-0.92c0.087,-0.709 0.016,-1.086 -0.31,-1.655Zm-23.292,-3.859c-0.058,-1.231 -0.184,-2.237 -0.279,-2.237c-0.095,0 -0.173,0.63 -0.173,1.399c0,1.397 0,1.397 0.168,2.211c0.42,2.033 0.313,-0.761 0.284,-1.373Zm23.288,-0.864c0,-0.714 -0.092,-1.342 -0.402,-1.977l0,1.618c0,1.35 0.402,2.13 0.402,0.359Zm-22.794,2.351l0.462,0.922l0.178,-1.781c-0.051,-0.557 -0.087,-1.102 -0.077,-1.266l0.004,-0.058c-0.009,-0.039 -0.018,-0.079 -0.029,-0.123c-0.031,-0.132 -0.062,-0.238 -0.093,-0.317c0.022,-0.195 0.035,-0.424 0.035,-0.693c0,-2.027 -0.231,-1.969 -0.439,0c-0.05,0.477 -0.051,0.833 -0.022,1.073c-0.027,0.142 -0.047,0.29 -0.06,0.422c-0.046,0.5 -0.026,1.251 0.041,1.821Zm24.018,-6.682c-0.165,-0.593 -0.261,-0.664 -0.905,-0.664c-0.631,0 -1.154,0.625 -0.287,0.464c0.449,-0.082 0.624,-0.002 0.84,0.38c0.377,0.667 0.543,0.506 0.352,-0.18Zm-1.998,-0.216c-0.036,-0.129 -0.195,-0.005 -0.242,0.056c-0.305,0.398 -0.436,1.051 -0.529,1.539c-0.033,0.169 -0.04,0.374 -0.017,0.456c0.108,0.385 0.235,-0.282 0.253,-0.374c0.05,-0.272 0.195,-0.746 0.321,-1.057c0.228,-0.567 0.228,-0.567 0.214,-0.62Zm0.983,7.193c-0.102,-0.229 -0.218,-0.453 -0.345,-0.675c0.085,-0.221 0.097,-0.606 0.034,-0.92c0.219,0.14 0.412,0.306 0.579,0.496l0.001,0c0.051,-0.156 0.108,-0.308 0.169,-0.443c0.071,-0.509 0.192,-1.054 0.367,-1.46c0.472,-2.306 0.454,-4.249 0.129,-5.577c-0.049,-0.198 -0.039,-2.393 0.012,-3.887c0.064,-0.28 0.068,-0.628 0.038,-0.839c0.012,-0.197 0.026,-0.35 0.041,-0.442c0.011,-0.074 0.022,-0.14 0.032,-0.206c0.016,-0.055 0.031,-0.1 0.043,-0.126c0.001,-0.003 0.002,-0.006 0.003,-0.006c0.002,-0.008 0.005,-0.013 0.008,-0.018c0.066,-0.14 0.138,-0.272 0.188,-0.369c0.28,-0.562 0.547,-1.286 0.448,-1.943c0.246,-0.503 0.442,-1.051 0.446,-1.536c0.012,-0.016 0.025,-0.032 0.037,-0.048c-0.013,0.008 -0.026,0.016 -0.039,0.024c0.053,-0.161 0.108,-0.321 0.168,-0.482c0.004,-0.021 0.009,-0.045 0.016,-0.071c0.038,-0.145 0.132,-0.414 0.21,-0.599c0.077,-0.184 0.152,-0.437 0.168,-0.561c0.014,-0.119 0.07,-0.285 0.136,-0.395c0.023,-0.214 0.025,-0.43 -0.028,-0.62c0.009,-0.092 0.007,-0.187 -0.002,-0.282c0.078,-0.24 0.1,-0.495 0.046,-0.74c-0.083,-0.364 -0.285,-1.047 -0.641,-1.25c-0.139,-0.079 -0.248,-0.079 -0.321,-0.031c-0.059,-0.021 -0.121,-0.032 -0.182,-0.029c-0.049,-0.248 -0.169,-0.491 -0.303,-0.567c-0.13,-0.074 -0.257,-0.063 -0.375,-0.008c-0.123,-0.003 -0.271,0.05 -0.37,0.113c-0.05,0.019 -0.096,0.04 -0.136,0.064c-0.185,0.113 -0.53,0.667 -0.445,0.972c-0.316,0.214 -0.544,0.881 -0.544,1.139c0,0.158 0.06,0.393 0.164,0.619c-0.078,0.185 -0.098,0.43 -0.091,0.68c0.001,0.003 0.001,0.008 0.002,0.013c0.018,0.116 0.05,0.277 0.026,0.393c0.012,0.119 0.027,0.229 0.039,0.322c0.025,0.205 -0.001,0.416 -0.05,0.624c-0.01,0.135 -0.037,0.259 -0.089,0.353c-0.016,0.201 -0.049,0.393 -0.113,0.567c-0.034,0.021 -0.064,0.063 -0.105,0.121c-0.243,0.34 -0.456,1.284 -0.301,1.698c0.038,0.102 0.11,0.184 0.193,0.242l0.001,0c0.169,0.195 0.531,0.266 0.779,0.266c0.108,0 0.214,-0.021 0.319,-0.058c0.25,-0.084 0.484,-0.263 0.67,-0.487c0.015,-0.032 0.027,-0.063 0.037,-0.098c0.038,-0.118 0.271,-0.635 0.354,-0.295c0.067,0.272 -0.182,0.764 -0.409,1.02c-0.001,0 -0.001,0 -0.001,0.003c-0.002,0.01 -0.004,0.021 -0.007,0.031c-0.118,0.127 -0.227,0.311 -0.298,0.448c-0.164,0.166 -0.395,0.282 -0.727,0.327c-0.141,0.016 -0.275,0.024 -0.401,0.019c0.082,0.187 0.138,0.382 0.139,0.55c0.068,0.23 0.089,0.47 0.08,0.709c-0.001,0.029 -0.003,0.056 -0.005,0.085c0.006,0.058 0.006,0.113 -0.004,0.163c-0.022,0.124 -0.068,0.135 -0.12,0.09c-0.025,0.005 -0.054,0.002 -0.088,-0.008c-0.003,-0.04 -0.006,-0.079 -0.011,-0.119c-0.079,-0.131 -0.15,-0.303 -0.156,-0.329c-0.015,-0.061 -0.034,-0.132 -0.055,-0.208c-0.014,-0.014 -0.027,-0.029 -0.039,-0.048c-0.084,-0.134 -0.24,-0.377 -0.327,-0.601l-0.001,0c-0.024,0 -0.018,0.037 -0.001,0.079c-0.002,0.027 0,0.064 0.006,0.111c-0.014,-0.024 -0.027,-0.047 -0.04,-0.068c-0.051,1.033 -0.056,2 -0.446,3.015c-0.139,0.977 -0.228,2.119 -0.26,2.482c-0.01,0.056 -0.02,0.114 -0.03,0.172c0.04,-0.027 0.073,-0.048 0.092,-0.053c0.01,-0.005 0.02,-0.011 0.032,-0.013c0.027,-0.087 0.101,-0.142 0.208,-0.142c0.022,0 0.071,0.013 0.132,0.031l0.001,-0.002c0.137,-0.024 0.265,-0.006 0.314,0.121c0.27,0.145 0.847,0.569 0.363,0.769c-0.149,0.061 -0.493,-0.102 -0.743,-0.303c-0.154,0.066 -0.327,0.111 -0.469,0.135c-0.137,0.171 -0.256,0.369 -0.282,0.411c-0.431,0.693 -0.528,1.597 -0.451,2.514c0.003,0.206 0.023,0.411 0.061,0.609c-0.034,0.651 0.037,1.273 0.219,1.895c-0.072,0.266 -0.105,0.59 -0.033,0.846c-0.015,0.019 -0.028,0.034 -0.04,0.053c-0.113,0.063 -0.233,0.147 -0.364,0.258c-0.004,0.003 -0.008,0.005 -0.011,0.011c0.169,0.026 0.331,0.065 0.48,0.108c0.831,0.24 1.649,0.622 2.259,1.186c0.003,0 0.007,0.002 0.01,0.005Zm-21.476,-11.257c-0.398,-1.552 -0.31,0.757 -0.259,1.213l0.201,1.821l0.107,-1.213c0.059,-0.666 0.037,-1.486 -0.049,-1.821Zm-1.127,-4.567c-0.066,-0.048 -0.546,-0.274 -0.514,-0.024c0.009,0.066 0.335,0.311 0.724,0.546c0.245,0.147 0.48,0.274 0.636,0.342c-0.197,0.085 0.083,0.601 0.128,0.675c0.259,0.424 1.157,1.081 1.736,0.88c0.102,-0.137 0.187,-0.287 0.229,-0.437c-0.026,0.002 -0.055,0.005 -0.088,0.008c-0.582,0.06 -1.142,-0.274 -1.496,-0.709c-0.168,-0.203 -0.256,-0.311 -0.311,-0.367c0.264,-0.1 -0.397,-0.558 -0.455,-0.587c-0.213,-0.103 -0.478,-0.251 -0.589,-0.327Zm23.417,1.692c-0.034,-0.266 -0.785,-0.079 -0.636,0.197c0.094,0.177 0.66,-0.005 0.636,-0.197Zm-25.216,-3.408c-0.033,-0.047 -0.063,-0.09 -0.089,-0.127c-0.011,0.019 -0.023,0.037 -0.037,0.051c0.072,0.384 0.241,0.737 0.472,1.067c0.078,0.082 0.119,0.105 0.201,0.153c0.09,0.05 0.262,0.068 0.382,0.039c0.217,-0.052 0.217,-0.052 -0.213,-0.413c-0.236,-0.198 -0.558,-0.543 -0.716,-0.77Zm25.069,-0.374c-0.053,-0.013 -0.114,-0.024 -0.175,-0.035c-0.18,-0.113 -0.428,-0.139 -0.625,-0.068c-0.181,0.066 -0.134,0.124 -0.03,0.147c-0.002,0.003 -0.003,0.008 -0.004,0.014c-0.063,0.258 0.48,0.205 0.645,0.261c0.176,0.06 0.38,0.1 0.452,0.092c0.329,-0.042 -0.075,-0.359 -0.201,-0.393c-0.02,-0.008 -0.04,-0.013 -0.062,-0.018Zm0.689,-2.441c-0.117,-0.429 -0.197,0.229 -0.144,0.393c0.106,0.327 0.177,-0.269 0.144,-0.393Zm0.133,-1.067c-0.022,-0.232 -0.165,-0.161 -0.19,0.029c-0.046,0.355 -0.279,0.695 -0.445,1.004c-0.134,0.25 -0.134,0.25 -0.004,0.229c0.336,-0.053 0.666,-0.967 0.639,-1.262Zm0.261,-1.205c-0.057,-0.211 -0.269,-0.055 -0.348,0.042c-0.27,0.327 -0.013,0.28 0.112,0.512c0.044,0.084 0.096,0.105 0.194,0.081c0.036,-0.01 0.06,-0.034 0.077,-0.068c0,0.008 0,0.016 0.002,0.026c0.023,0.179 0.281,0.541 0.469,0.577c0.215,0.043 -0.101,-0.44 -0.156,-0.519c-0.042,-0.058 -0.232,-0.211 -0.295,-0.153c0.026,-0.155 -0.027,-0.392 -0.055,-0.498Z"/></svg>