<?xml version="1.0" encoding="UTF-8" standalone="no"?><!DOCTYPE svg PUBLIC "-//W3C//DTD SVG 1.1//EN" "http://www.w3.org/Graphics/SVG/1.1/DTD/svg11.dtd"><svg width="100%" height="100%" viewBox="0 0 160 97" version="1.1" xmlns="http://www.w3.org/2000/svg" xmlns:xlink="http://www.w3.org/1999/xlink" xml:space="preserve" xmlns:serif="http://www.serif.com/" style="fill-rule:evenodd;clip-rule:evenodd;stroke-linejoin:round;stroke-miterlimit:1.41421;"><path id="dp_path007" d="M117.27,52.928c1.234,1.281 2.159,2.81 3.085,4.373c0.304,0.512 0.499,0.862 0.615,1.127c-0.38,0.111 -0.701,0.221 -0.86,0.253c-2.526,0.49 -2.526,0.49 -4.586,0.826c-0.741,0.12 -1.215,0.198 -1.531,0.246c0.484,-0.288 1.021,-0.591 1.515,-0.819c1.029,-0.474 1.621,-0.969 2.444,-1.72c1.737,-1.583 -1.625,0.83 -2.158,1.053c-0.762,0.32 -3.261,1.598 -3.389,1.708c-0.698,0.594 -0.781,0.659 -1.191,0.917c-0.243,0.152 -1.93,0.357 -2.06,0.357c-0.454,0 -0.929,0.688 -1.152,0.95c-1.032,1.214 -2.094,2.105 -3.553,2.78c-0.511,0.236 -0.818,0.379 -1.008,0.471c-0.265,-0.149 -0.747,-0.01 -0.989,0.026c-0.564,0.082 -0.36,-0.104 -1.995,0.06c-0.899,0.09 -2.137,0.455 -2.502,0.585c-0.253,0.089 -4.314,1.651 -5.572,2.51c-0.831,0.567 -1.658,1.71 -1.805,1.873c-1.181,1.31 -3.166,1.583 -3.559,-0.197c-0.101,-0.459 -1.644,-2.293 -2.174,-2.609c0,-0.006 0.001,-0.013 -0.003,-0.018c-0.804,-0.898 -2.522,-1.324 -2.96,-2.061c-0.217,-0.483 -0.275,-0.814 -0.342,-1.087c-0.085,-0.349 -0.464,-0.337 -0.622,-0.091c-0.066,-0.031 -0.141,-0.056 -0.225,-0.071c-0.448,-0.083 -0.455,-0.099 -0.229,-0.55c0.181,-0.364 0.198,-0.464 0.048,-0.56c0.083,-0.286 0.101,-0.647 0.124,-0.935c0.127,-0.23 0.266,-0.322 0.397,-0.341c-0.012,0.261 0.007,0.541 0.069,0.709c0.124,0.337 0.467,0.44 0.78,0.423c0.032,0.069 0.072,0.147 0.119,0.234c0.106,0.197 0.313,1.479 0.394,1.572c0.578,0.669 1.98,1.572 3,1.421c0.988,-0.145 -0.027,-0.728 -0.587,-0.671c-0.932,0.096 -0.932,0.096 -1.714,-0.664c-0.114,-0.111 -0.396,-1.04 -0.453,-1.155c-0.019,-0.107 -0.093,-0.284 -0.243,-0.542c-0.056,-0.096 -0.114,-0.185 -0.173,-0.263c0.323,-0.119 0.437,-0.358 -0.18,-0.471c-0.29,-0.054 -0.426,-0.139 -0.52,-0.382l0,-0.001c0,-0.001 0,-0.003 -0.002,-0.004l-0.001,-0.002c-0.041,-0.177 -0.083,-0.354 -0.125,-0.531c0.108,-0.102 0.029,-0.237 0.012,-0.485c-0.025,-0.373 0.238,-0.532 0.405,-0.574c0.353,0.046 0.466,0.365 0.489,0.397c0.253,0.361 0.738,1.119 1.281,1.112c0.627,0.137 0.749,0.826 1.082,1.016c1.475,0.165 1.901,0.777 3.312,1.325c1.468,0.571 2.51,0.875 2.584,0.895c0.826,0.216 2.811,-1.11 3.876,-1.509c0.89,-0.334 2.179,-1.09 2.775,-1.541c1.959,-1.485 4.421,-3.174 6.907,-3.525c1.003,-0.142 1.895,-0.526 2.133,-0.577c0.595,-1.062 1.272,-1.081 1.833,-1.599c1.15,-1.062 2.385,-1.825 3.581,-2.076l0.001,0c0.046,-0.002 0.088,-0.008 0.137,-0.027l0.001,0c0.227,-0.09 0.628,-0.482 2.364,-2.177c0.371,-0.363 0.748,-0.7 1.132,-1.014c0.104,0.076 0.224,0.16 0.361,0.255c0.595,0.411 1.125,0.875 1.607,1.375Zm-20.31,12.655c0.244,-0.116 -4.733,1.446 -5.405,1.871l-0.275,0.184c-0.501,0.317 -0.465,0.74 -0.592,1.006c-0.565,1.19 1.569,-0.801 1.783,-0.958c0.916,-0.67 4.403,-2.063 4.489,-2.103Zm25.851,-18.61c0.362,-0.172 0.696,-0.328 0.73,-0.351c0.169,-0.357 0.603,-0.889 0.864,-1.095c0.232,-0.184 0.864,-0.307 1.386,-0.251c0.683,-0.485 1.782,-0.855 2.433,-0.943c0.016,-0.151 0.082,-0.189 0.216,-0.144c0.246,0.081 0.246,0.081 0.514,0.177c0.038,0.014 0.179,0.018 0.355,0.027c0.225,-0.643 0.733,-0.981 1.345,-1.281c0.175,-0.086 1.446,-0.876 1.608,-0.28c0.03,0.109 -0.224,0.293 -0.563,0.408c-0.34,0.115 -0.977,0.471 -1.415,0.791c-0.016,0.012 -0.298,0.232 -0.56,0.395c0.239,0.029 0.453,0.082 0.505,0.189c0.121,0.018 0.324,0.059 0.761,0.147c2.229,0.446 5.082,2.011 6.612,3.658c0.863,0.93 1.365,2.045 1.451,3.243c0.011,-0.002 0.022,-0.003 0.033,-0.003c0.472,-0.035 0.472,-0.035 1.004,-0.286c0.534,-0.251 0.534,-0.251 1.767,-1.303c1.232,-1.052 2.597,-2.261 2.761,-2.351c0.319,-0.178 0.838,-0.694 1.153,-1.149c0.193,-0.279 0.076,-1.261 0.296,-1.307c0.02,0.036 0.745,0.478 0.733,0.57c1.56,-0.231 3.17,0.032 4.485,-0.801c0.054,-0.035 0.22,-0.165 0.422,-0.295c-0.01,-0.071 -0.691,-2.277 -0.595,-2.748c0.069,-0.34 0.127,-0.597 0.18,-0.79c-0.01,-0.016 -0.02,-0.033 -0.031,-0.05c-0.156,-0.272 -0.308,-0.591 -0.44,-0.93c-0.008,0.021 -0.019,0.042 -0.032,0.066c-0.169,0.298 -0.438,0.451 -0.971,0.552c-0.406,0.077 -1.209,0.107 -1.784,0.066c-1.047,-0.074 -0.366,0.271 -1.864,0.035c-1.321,-0.209 -2.281,-0.992 -3.208,-1.652c-0.699,-0.499 -1.291,-1.018 -1.316,-1.155c-0.044,-0.248 -0.01,-0.233 0.925,0.178c0.97,0.426 0.97,0.426 1.612,0.921c0.101,0.078 0.981,0.697 2.414,0.945c1.272,0.221 1.607,-0.044 2.434,-0.099c0.309,-0.021 1.323,-0.281 1.687,-0.14c-0.208,-0.604 -0.344,-1.249 -0.33,-1.797c0.004,-0.146 0.191,-0.936 0.295,-0.446c0.032,0.156 0.032,0.156 0.539,1.401c0.437,1.074 0.497,1.22 0.632,1.578c0.086,0.037 0.116,0.126 0.111,0.323c0.029,0.132 0.016,0.238 -0.023,0.315c-0.063,0.627 0.917,4.02 1.112,4.695c0.068,0.232 0.651,1.911 0.564,2.528c0.065,-0.014 0.128,-0.023 0.187,-0.025c0.529,-0.596 0.454,-1.239 1.129,-1.575c0.191,-0.096 1.082,-0.339 1.123,-0.037c0.013,0.093 -0.191,0.321 -0.455,0.505c-0.538,0.378 -0.905,0.982 -1.457,1.256c0.01,0.017 0.017,0.036 0.023,0.057c0.028,0.103 -1.625,1.058 -1.975,1.377c-0.102,0.094 -0.808,0.758 -1.325,1.108c0.106,0.038 0.182,0.094 0.199,0.156c0.031,0.115 -0.096,0.222 -0.282,0.238c-0.338,0.029 -0.338,0.029 -2.187,0.56c-1.85,0.53 -1.85,0.53 -1.901,0.242c-0.008,-0.047 -0.003,-0.089 0.021,-0.13c-0.611,-0.072 -1.836,-0.422 -2.075,-0.889c-0.234,0.101 -0.612,0.196 -1.053,0.259c-0.097,0.013 -0.213,0.014 -0.335,0.008c0.053,0.095 0.095,0.215 0.115,0.357c0.014,0.093 0.017,0.177 0.012,0.253c0.004,0.035 -0.003,0.079 -0.016,0.131c-0.001,0.002 -0.001,0.004 -0.002,0.006c-0.012,0.054 -0.029,0.102 -0.05,0.142c-0.066,0.163 -0.177,0.357 -0.309,0.53c-0.568,0.749 -0.619,1.342 -0.415,2.273c0.003,0.011 0.005,0.022 0.007,0.034c0.182,0.186 0.307,0.372 0.372,0.554c0.031,0.085 0.051,0.158 0.061,0.221c0.115,-0.035 0.25,-0.035 0.378,-0.003c0.185,0.045 0.892,0.037 1.572,-0.018c0.347,-0.029 0.711,-0.011 1.067,0.057c0.149,-0.635 1.934,-1.758 2.385,-1.758c0.109,0 0.216,0.041 0.282,0.103l0.002,0.002c0.124,-0.103 0.3,-0.201 0.474,-0.247c0.422,-0.111 1.391,-0.198 2.156,-0.193c1.537,0.009 3.277,-0.018 4.397,-1.187c0.002,-0.003 0.038,-0.042 0.095,-0.1c-0.009,-0.006 -0.018,-0.01 -0.028,-0.016c0.05,-0.035 0.103,-0.073 0.157,-0.115c0.214,-0.213 0.525,-0.497 0.671,-0.513c0.32,-0.233 0.66,-0.439 0.982,-0.499c-0.056,-1.031 -0.118,-2.085 0.202,-3.054c-0.054,-0.062 -0.05,-0.911 -0.288,-2.287c-0.13,-0.757 -0.853,-3.08 -1.033,-3.449c-0.044,-0.09 -0.151,-0.301 -0.25,-0.543c-0.154,0.185 -0.339,0.312 -0.562,0.353c-0.281,0.052 -0.442,0.081 -0.387,-0.101c0.43,-1.447 1.035,-2.383 1.035,-3.983c0,-1.629 -0.673,-2.091 -2.188,-2.92c-0.024,-0.014 -0.211,-0.159 -0.395,-0.331c-0.127,0.435 -0.012,0.5 -0.209,-0.382c-0.146,-0.652 -0.185,-0.966 -0.582,-1.451c-0.281,-0.345 -0.529,-0.605 -0.652,-0.949c-0.041,0.042 -0.085,0.063 -0.135,0.069c-0.283,0.036 0.028,-0.416 0.181,-1.404c0.168,-1.083 0.429,-1.302 0.679,-2.004c0.006,-0.034 0.012,-0.07 0.018,-0.107c0.007,-0.037 0.055,-0.169 0.125,-0.324c-0.264,-0.173 0.089,-0.666 0.507,-0.91c1.55,-0.908 1.555,-3.734 0.643,-5.067c-1.197,-1.752 -4.92,-1.466 -6.444,0.127c-0.081,0.085 -1.387,3.393 -1.542,4.479c-0.106,0.744 -0.017,2.849 -0.085,2.942c0.174,0.487 0.535,0.849 1.218,0.956c0.246,0.038 3.637,-0.605 4.28,-2.286c0.236,-0.616 0.874,-1.242 0.773,-0.16c-0.158,1.677 -1.879,2.406 -3.286,2.744c-0.368,0.088 -0.682,0.479 -1.841,0.298c-1.018,-0.161 -1.447,-0.127 -2.33,-0.378c-1.135,-0.324 -1.999,-1.317 -4.536,0.656c-0.078,0.061 -0.355,0.5 -0.482,0.781c0.093,-0.029 0.577,-0.151 0.657,-0.173c0.397,-0.11 1.773,-0.455 1.853,0.19c0.034,0.271 -2.324,-0.038 -4.088,1.417c-0.162,-0.117 -1.659,0.918 -1.428,2.604c0.49,-0.103 1.002,-0.109 1.103,0.264c0.035,0.128 -0.232,0.249 -0.726,0.331c-1.04,0.172 -2.291,0.696 -2.73,1.718c-0.167,0.387 -0.524,0.963 -0.794,1.278c-0.49,0.573 -0.49,0.573 -0.984,1.387c-0.621,1.023 -0.959,0.597 -0.364,-0.322c1.038,-1.602 1.786,-3.557 3.58,-4.364c0.056,-0.025 0.153,-0.065 0.274,-0.108c-0.01,-0.061 -0.018,-0.134 -0.023,-0.217c-0.034,-0.592 -0.821,-1.787 2.558,-3.565c-0.002,-0.976 1.657,-2.327 2.299,-2.633c0.778,-0.37 2.334,-0.999 3.582,-0.26c0.322,0.081 0.751,0.043 0.743,-0.186c-0.004,-0.239 0.004,-0.967 0.021,-1.234c0.133,-2.017 1.748,-6.969 2.224,-7.311c0.46,-0.332 3.059,-1.033 4.25,-0.748c1.91,0.458 3.407,1.233 3.765,3.17c0.256,1.382 -0.383,4.241 -2.035,4.604c-0.068,0.246 -0.293,0.656 -0.543,1.444c-0.238,0.749 -0.226,1.576 -0.391,1.857c0.013,0.018 0.026,0.038 0.039,0.058c0.704,1.089 1.162,1.124 1.347,2.581c0.009,0.07 0.015,0.137 0.018,0.2c0.2,0.084 0.6,0.424 0.903,0.587c0.893,0.438 1.827,1.719 1.827,3.486c0,0.501 -0.045,1.55 -0.301,2.398c0.141,0.146 0.297,0.377 0.479,0.705c0.659,1.184 1.436,3.966 1.436,5.316c0,0.177 -0.057,0.525 -0.147,0.801c0.054,0.268 0.043,0.779 0.006,1.025c-0.081,0.539 0.069,2.626 -0.471,2.918c-0.245,0.545 -0.901,0.798 -1.494,0.775c-0.148,0.322 -0.361,0.605 -0.681,0.81c-1.15,0.736 -2.602,0.832 -3.932,0.893c-0.95,0.042 -1.381,0.029 -2.32,0.209c-0.17,0.032 -0.826,0.303 -0.895,0.285c-0.128,0.129 -0.367,-0.024 -0.603,0.121c-0.215,0.131 -1.002,0.765 -1.531,1.025c0.622,0.21 1.174,0.594 1.495,1.181c0.063,-0.002 0.143,0.008 0.241,0.032c0.479,0.117 0.633,0.241 0.67,0.54c0.056,0.448 -0.088,0.567 -0.289,0.517c-0.014,0.028 -0.029,0.058 -0.046,0.09c-0.419,0.765 -1.201,0.824 -1.993,0.755c-0.036,-0.003 -0.245,-0.06 -0.464,-0.146c-0.063,0.045 -0.131,0.089 -0.2,0.133c-1.124,0.695 -2.607,0.917 -3.906,0.872c-0.243,-0.009 -0.456,-0.049 -0.622,-0.104c-0.049,0.039 -0.103,0.082 -0.164,0.129c-0.654,0.517 -0.654,0.517 -2.314,1.453c-0.255,0.144 -0.47,0.265 -0.654,0.368c-0.611,1.271 -1.849,2.527 -2.805,3.338c-1.28,1.083 -2.851,2.258 -4.528,2.637c-0.327,0.074 -0.327,0.074 -1.506,0.408c-0.301,0.085 -0.526,0.147 -0.696,0.188c-0.877,1.596 -3.798,1.937 -5.245,1.499c-0.173,-0.052 -0.331,-0.148 -0.451,-0.255c-0.591,0 -1.238,-0.043 -1.608,-0.124c-1.487,-0.327 -2.309,-1.685 -2.089,-3.154c0.063,-0.415 0.177,-0.721 0.285,-0.859c0.015,-0.046 0.031,-0.092 0.047,-0.139c0.004,-0.011 0.009,-0.022 0.013,-0.033c-0.47,-0.641 -0.396,-1.592 -0.184,-2.33c0.368,-1.272 1.029,-2.496 1.884,-3.517l0,0c-0.022,0.001 -0.041,0 -0.058,-0.004c-0.297,-0.074 -1.151,-0.024 -1.091,-0.332c-2.302,0.535 -4.022,0.866 -6.344,0.866c-0.28,0 -0.479,-0.012 -0.619,-0.04c-0.112,0.081 -0.279,0.191 -0.535,0.359c-0.953,0.626 -1.99,1.482 -3.179,1.482c-0.152,0 -0.906,0.55 -1.038,0.506c-1.421,1.656 -2.413,3.125 -4.658,3.552c-0.154,0.029 -0.849,0.089 -1.029,-0.074c-0.331,0.055 -1.023,0.239 -1.842,0.326c-1.24,0.132 -3.483,0.733 -3.96,0.894c-0.11,0.038 -2.763,1.012 -4.093,1.829c-0.162,0.099 -1.454,0.988 -1.492,1.133c-0.005,0.019 -0.006,0.04 -0.016,0.057c-1.893,3.494 -5.121,2.303 -5.77,-0.761c-0.091,-0.085 -0.616,-0.948 -1.041,-1.29c-0.212,-0.171 -0.379,-0.331 -0.496,-0.47c-0.044,-0.018 -0.09,-0.037 -0.139,-0.058c-0.518,-0.218 -2.284,-1.109 -2.291,-1.116c-0.429,-0.391 -0.735,-0.765 -0.855,-1.35c-0.024,0.009 -0.049,0.032 -0.078,0.025c-1.059,-0.253 -1.452,-1.484 -0.881,-2.033c-0.118,-0.501 -0.283,-1.269 -0.045,-1.453c0.075,-0.058 0.22,-0.117 0.368,-0.144c0.122,-0.281 0.449,-0.458 0.738,-0.414c-0.002,-0.024 -0.004,-0.047 -0.006,-0.071c-0.041,-0.699 0.402,-1.621 1.198,-1.166c0.002,0.001 0.218,0.282 0.568,0.624c0.793,0.412 0.568,0.456 0.788,0.77c0.204,-0.011 0.66,0.292 0.76,0.447c0.077,0.118 0.714,0.32 0.889,0.746c2.336,0.152 3.344,1.051 5.211,1.661l4.075,-1.455c0.295,-0.144 1.675,-0.762 2.17,-1.136c1.877,-1.417 4.193,-2.874 6.428,-3.632c0.343,-0.117 2.151,-0.472 2.369,-0.831c0.194,-0.32 0.88,-0.862 1.492,-0.996c0.63,-1.012 2.078,-1.904 2.865,-2.067c0.771,-0.16 1.633,-0.697 2.378,-0.685c0.237,-0.301 0.549,-0.688 0.952,-1.189c0.479,-0.596 1.005,-1.152 1.571,-1.661c-0.011,-0.071 0.025,-0.142 0.018,-0.23c-0.063,-0.828 -0.125,-0.487 1.943,-0.854c2.092,-1.503 3.203,-2.156 5.818,-2.407c0.116,-0.056 0.24,-0.115 0.36,-0.173Zm0.181,18.7c-0.389,-0.687 -0.294,-1.795 -0.356,-2.571l-0.198,0.974c-0.149,0.733 -0.152,1.102 -0.014,1.484c0.156,0.431 0.86,0.63 0.568,0.113Zm4.061,-2.497c0.71,-0.867 -0.446,0.11 -0.669,0.368c-0.644,0.745 -1.053,1.571 -0.938,2.575c0.087,0.766 0.479,0.584 0.396,-0.068c-0.117,-0.931 0.643,-2.183 1.211,-2.875Zm-23.842,-0.98l2.207,-1.223c-1.079,0 -2.192,0.629 -3.203,0.966c-0.97,0.325 -2.481,1.234 -2.992,2.139c-0.531,0.939 0.781,0.032 1.062,-0.163c0.521,-0.359 1.327,-0.833 2.926,-1.719Zm30.951,-0.204c0.287,-0.596 0.77,-2.092 0.009,-0.863c-1.262,2.037 -3.356,3.851 -5.649,4.593c-0.988,0.319 0.68,0.164 0.976,0.061c1.814,-0.634 3.81,-2.018 4.664,-3.791Zm-11.147,-14.537c0.165,-0.051 0.296,-0.096 0.396,-0.135c-0.256,0.233 -0.454,0.537 -0.396,0.752c0.143,0.512 0.388,1.239 0.545,1.615c0.686,1.641 0.615,-0.496 0.711,-0.979c0.109,-0.545 0.109,-1.069 0.001,-1.564c-0.054,-0.247 -0.328,-0.197 -0.607,-0.019c-0.025,-0.013 -0.068,-0.022 -0.126,-0.028c0.106,-0.045 0.208,-0.09 0.302,-0.132c0.345,-0.15 0.517,-0.272 0.573,-0.36l0.001,-0.001c0.45,-0.205 1.025,-0.375 1.405,-0.403c0.523,-0.04 0.809,-0.225 0.74,-0.479c-0.017,-0.06 -0.046,-0.115 -0.085,-0.162c0.744,-0.076 1.59,-0.256 2.01,-0.585l0.001,0.001c0.379,0.275 1.069,0.282 1.408,0.062c0.109,-0.071 0.188,-0.133 0.244,-0.188c0.388,0.256 1.133,0.62 1.191,0.644c1.468,0.594 2.799,1.257 4.134,2.117c1.273,0.821 2.075,1.781 2.794,3.094c0.469,0.856 0.283,1.725 0.156,2.623c-0.302,-0.004 -0.707,1.312 -0.774,1.511c-0.561,1.657 -1.25,2.349 -2.608,3.399c-1.182,0.914 -1.334,1.088 -1.186,1.363c0.012,0.022 0.024,0.042 0.038,0.061c-0.027,0.054 -0.047,0.105 -0.062,0.151c-0.184,-0.037 -0.435,-0.065 -0.763,-0.084c-0.582,-0.035 -1.08,0.076 -1.522,0.286l0,0c0.365,-1.868 -2.651,-2.727 -4.001,-2.846c-1.449,-0.126 -1.449,-0.126 -1.866,-0.126c-0.686,0 -2.187,0.32 -2.849,0.982c0.012,-0.031 0.024,-0.066 0.034,-0.104c0.318,-1.085 1.524,-2.1 2.551,-2.83c-0.092,0.128 -0.182,0.253 -0.266,0.375c0.847,-0.209 1.453,-0.901 1.555,-1.798c0.077,-0.669 -0.44,-0.692 -0.535,-0.072c-0.019,0.128 -0.053,0.254 -0.098,0.376c-0.139,-0.077 -0.338,-0.021 -0.474,0.116c-0.645,0.645 -1.356,1.251 -2.072,1.817c-0.587,0.464 -1.251,1.114 -1.192,1.926c0.01,0.132 0.036,0.238 0.073,0.316c-0.209,0.005 -0.439,0.039 -0.67,0.086c-0.071,-0.365 -0.163,-0.686 -0.213,-0.815c-0.861,-2.204 -2.882,-5.474 -5.163,-6.574c-0.109,-0.053 -0.202,-0.097 -0.282,-0.136c2.079,-1.511 4.364,-2.449 6.947,-3.253Zm14.419,10.145c0.147,-0.192 0.288,-0.4 0.418,-0.618c-0.03,0.285 -0.028,0.428 0.012,0.495c-0.073,0.026 -0.144,0.048 -0.211,0.065c-0.073,0.018 -0.146,0.038 -0.219,0.058Zm-12.92,0.375c0.502,-0.065 1.028,-0.047 1.394,-0.066c1.509,-0.074 3.125,0.066 4.325,1.125c0.394,0.348 0.681,0.894 0.429,1.411c-0.04,0.081 -0.051,0.145 -0.042,0.193c-0.595,0.527 -1.108,1.214 -1.657,1.878c-0.946,1.146 -1.864,2.359 -2.04,2.698c-0.648,1.251 0.558,0.09 0.873,-0.33c0.71,-0.947 0.71,-0.947 2.056,-2.464c0.741,-0.833 1.611,-1.657 1.934,-1.83c0.668,-0.356 1.359,-0.252 2.08,-0.3c0.279,-0.018 0.401,-0.107 0.359,-0.261c-0.002,-0.009 -0.005,-0.018 -0.01,-0.026c0.086,-0.045 0.185,-0.107 0.3,-0.189c0.452,-0.116 1.017,-0.508 1.458,-0.851c0.818,-0.346 1.684,-0.564 2.533,-0.896c0.349,-0.138 1.717,-0.915 1.186,-1.199c-0.428,-0.231 -0.595,-0.113 -0.984,0.183c-0.072,0.054 -0.164,0.112 -0.267,0.169c0.068,-0.192 0.123,-0.504 0.197,-1.016c0.094,-0.649 0.263,-1.391 0.389,-1.727c0.099,0.081 0.29,0.164 0.597,0.239c0.867,0.21 1.773,0.468 2.363,1.183c0.074,0.117 0.16,0.204 0.256,0.253c0.165,0.131 0.361,0.244 0.517,0.281c-0.007,0.048 -0.007,0.103 0.004,0.165c0.111,0.633 1.898,0.379 2.286,0.323c0.846,-0.122 0.85,-0.12 1.738,0.676c0.077,0.069 0.532,0.467 0.922,0.705c-0.425,0.168 -0.859,0.367 -1.041,0.369c-0.012,0 -0.024,0 -0.037,0c-0.209,-0.452 -1.193,0.183 -1.396,0.302c-1.03,0.604 -2.227,0.69 -3.39,0.69c-0.072,0 -0.139,0.002 -0.201,0.005c-0.016,-0.007 -0.033,-0.015 -0.05,-0.023c-0.545,-0.248 -1.362,0.508 -1.776,0.747c-0.514,0.296 -0.845,0.498 -1.202,0.742c0.035,-0.519 -0.481,-0.276 -0.768,0.158c-0.319,0.484 -0.319,0.484 -0.809,1.22c-1.78,2.675 -5.087,4.469 -8.068,5.583c0.001,-0.003 0.002,-0.007 0.002,-0.01c0.186,-1.01 -1.123,0.308 -1.262,0.412c-1.188,0.89 -2.357,1.35 -3.811,1.07l-0.002,0c-1.28,-0.32 -4.119,-1.66 -4,-3.018c0.001,-0.012 0.002,-0.023 0.002,-0.034c0.083,-0.099 0.177,-0.229 0.287,-0.394c0.01,-0.016 0.021,-0.032 0.031,-0.046c0.126,0.042 0.157,-0.053 0.136,-0.207c0.312,-0.468 0.37,-0.529 0.795,-0.982c0.843,-0.898 -0.348,-0.383 -1.043,0.249c-0.037,-0.084 -0.075,-0.157 -0.107,-0.213c-0.15,-0.266 -0.075,-0.582 0.408,-1.72c0.642,-1.509 1.559,-2.996 2.688,-4.189c0.361,-0.383 0.356,-0.516 0.186,-0.511c0.273,-0.325 0.741,-0.465 1.232,-0.527Zm-11.703,-2.914c0.776,-0.825 -0.045,-0.584 -0.533,-0.144c-0.632,0.57 -1.302,1.526 -1.236,2.423c0.061,0.834 0.589,0.435 0.694,-0.154c0.149,-0.842 0.492,-1.503 1.075,-2.125Zm26.255,-3.014c0.147,0.041 0.317,0.062 0.471,0.044c1.854,-0.218 1.947,-0.465 3.196,-1.695c0.161,-0.159 2.245,-1.863 2.277,-1.955c0.72,-0.25 0.699,-0.951 2.101,-1.47c1.645,0.209 2.907,-0.611 4.382,-1.398c0.116,-0.062 0.224,-0.122 0.324,-0.179c0.1,0.478 0.238,0.961 0.403,1.462c0.371,1.123 0.591,1.533 0.96,1.792c0.008,0.006 0.016,0.011 0.024,0.016c-0.255,0.101 -0.481,0.222 -0.558,0.265c-0.588,0.324 -2.145,1.4 -2.317,2.223c-0.29,0.014 -0.559,0.088 -1.954,0.476c-0.494,0.137 -0.852,0.243 -1.108,0.334c-0.234,-0.294 -1.094,-0.684 -1.251,-0.74c-1.16,-0.418 -1.16,-0.418 -1.234,-0.41c0,0 -0.001,0 -0.001,0c-0.564,-0.173 -1.54,-0.163 -1.7,0.107c-0.009,0.016 -0.019,0.032 -0.027,0.048c-0.098,0.081 -0.49,1.002 -0.454,1.208c0.003,0.01 0.004,0.02 0.006,0.03c-0.374,0.272 -0.757,0.702 -0.844,0.844c-0.167,0.273 -0.212,0.948 -0.138,1.603c-0.476,-0.26 -1.005,-0.441 -1.58,-0.539c-0.368,-0.063 -0.701,-0.036 -0.903,0.039c0.07,-0.352 -0.186,-0.383 -0.46,-0.158c-0.003,-0.036 -0.007,-0.073 -0.013,-0.109c0.154,-0.384 0.305,-0.849 0.323,-0.956c0.05,-0.297 0.075,-0.592 0.075,-0.882Zm-21.7,2.394c0.096,-0.668 -0.566,-0.638 -0.771,-0.108c-0.54,1.393 -2.46,2.983 -3.869,3.344c-0.276,0.071 -0.402,0.197 -0.358,0.36c0.147,0.539 2.039,-0.425 2.339,-0.666c0.643,-0.521 1.215,-1.126 1.817,-1.693c0.513,-0.485 0.794,-0.896 0.842,-1.237Zm12.5,-0.699c-0.731,-0.166 -1.626,-0.302 -1.99,-0.302c-0.26,0 -1.277,0.09 -1.139,0.596c0.035,0.127 0.416,0.16 1.191,0.105c1.073,-0.077 2.823,0.298 3.925,1.142c0.312,0.664 1.275,3.167 1.609,2.16c0.322,-0.97 -0.229,-1.821 -1.041,-2.468c-0.448,-0.908 -1.05,-2.093 -3.665,-2.213c-0.27,-0.012 0.024,0.317 0.696,0.396c0.72,0.084 1.299,0.499 1.754,1.067c-0.48,-0.231 -0.955,-0.396 -1.34,-0.483Zm-3.843,-2.811c-1.361,-0.662 -1.425,1.743 -1.425,2.593c0,1.191 0.49,1.605 0.49,0.218c0,-1.152 0.115,-2.308 1.325,-2.594l-0.154,-0.088l0,-0.001c0.108,-0.055 0.23,-0.223 0.335,-0.516c0.192,-0.537 0.192,-0.537 1.542,-0.376c1.52,0.183 2.642,0.692 3.864,1.607c0.641,0.482 1.29,0.844 1.469,0.822c0.669,-0.084 -0.086,-0.778 -0.29,-0.931c-0.288,-0.217 -0.718,-0.795 -0.955,-1.283c-0.458,-0.941 -0.969,-1.924 -1.979,-2.359c-0.399,-0.173 -1.024,-0.387 -1.388,-0.477c-0.831,-0.206 -1.052,0.435 -0.195,0.652c0.788,0.198 1.879,0.591 2.368,1.29c0.552,0.79 0.02,0.597 -0.675,0.361c-0.55,-0.186 -1.587,-0.403 -2.306,-0.483c-0.971,-0.107 -1.342,-0.216 -1.446,-0.425c-0.194,-0.389 -0.791,-0.284 -0.614,0.212c0.075,0.211 0.083,0.752 0.016,1.201c-0.038,0.259 -0.026,0.454 0.018,0.577Zm5.961,-4.443c-0.564,-0.319 -1.205,-0.58 -1.426,-0.58c-0.751,0 0.42,0.564 0.662,0.655c1.895,0.712 3.47,2.541 4.986,3.856c0.369,0.32 0.687,0.588 0.707,0.596c0.732,0.287 0.817,2.422 0.928,3.097c1.579,-2.768 -2.628,-5.023 -4.207,-6.469c-0.626,-0.574 -0.626,-0.574 -1.65,-1.155Zm6.756,-1.071l1.243,-0.328l-1.071,-0.081c-0.812,-0.063 -2.8,0.097 -2.994,1.156c-0.151,0.823 0.71,0.215 1.008,-0.003c0.315,-0.229 1.131,-0.564 1.814,-0.744Zm6.609,-1.986c-0.434,0.128 -0.802,0.134 -1.205,0.021c-0.665,-0.188 -0.685,0.19 -0.154,0.491c0.246,0.139 0.8,0.223 1.252,0.152c-0.1,1.374 2.701,0.902 1.049,0.162c-0.207,-0.092 -0.4,-0.298 -0.445,-0.467c0.036,-0.051 0.059,-0.109 0.07,-0.175c0.056,-0.354 0.033,-0.362 -0.567,-0.184Zm0.237,-1.18c-0.294,0.03 -0.796,-0.056 -1.115,-0.191c-0.524,-0.222 -0.58,-0.245 -0.544,0.013c0.076,0.554 1.366,0.581 1.734,0.529c0.121,-0.018 0.217,-0.043 0.286,-0.072c-0.083,0.291 0.024,0.911 0.355,1.099c0.343,0.194 1.993,0.18 0.941,-0.259c-0.323,-0.135 -0.686,-0.42 -0.806,-0.632c-0.141,-0.249 -0.254,-0.353 -0.339,-0.361c-0.014,-0.088 -0.198,-0.158 -0.512,-0.126Zm-4.339,-1.531c0.463,-1.276 0.463,-1.276 0.163,-1.319c-0.604,-0.087 -1.032,1.671 -1.147,2.081c-0.245,0.87 -0.565,2.036 0.084,2.781c0.477,0.547 0.979,1.072 1.478,1.599c-0.124,-0.6 -0.275,-1.159 -0.632,-1.674c-0.717,-1.036 -0.341,-2.379 0.054,-3.468Zm-1.844,-2.413c-0.308,-0.576 -1.073,-0.015 -1.396,0.226c-0.57,0.424 -1.525,1.536 -1.616,2.389c-0.715,-0.151 -1.718,1.389 -1.864,1.82c-0.002,0.007 -0.005,0.013 -0.006,0.02c-0.631,0.084 -1.191,0.826 -1.426,1.37c-0.528,1.219 1.415,-0.505 1.64,-0.672c0.519,-0.387 0.636,-0.474 0.432,-0.569c0.055,-0.071 0.104,-0.145 0.143,-0.219c0.314,-0.589 0.572,-0.988 1.263,-1.064c0.274,-0.03 0.339,-0.083 0.264,-0.255c0.126,-0.105 0.244,-0.26 0.297,-0.374c0.379,-0.802 0.989,-1.685 1.795,-2.099c0.47,-0.242 0.58,-0.375 0.474,-0.573Zm11.062,-4.038c-0.447,-0.157 -0.884,0 -2.026,-0.637c-0.792,-0.441 -1.092,-0.626 -1.537,-0.585c-0.031,0.003 -0.773,0.07 -0.74,0.108c-0.212,-0.002 -0.419,0.018 -0.569,0.075c0,-0.002 0,-0.004 -0.001,-0.005c-0.178,-0.588 -0.252,-0.645 -1.101,-0.851c-0.017,-0.004 -1.556,-0.367 -1.262,-0.057c0.155,0.163 0.155,0.163 1.002,0.405c0.746,0.212 0.859,0.302 0.949,0.755c0.108,0.548 0.279,0.842 0.33,0.5c0.579,-0.596 1.127,-0.597 1.403,-0.37c0.017,0.013 0.04,-0.009 0.059,-0.014c0.39,0.164 0.248,0.023 0.967,0.284c2.393,0.866 2.577,0.963 2.976,1.57c0.032,0.047 0.062,0.091 0.09,0.132c-0.437,0.173 -0.797,0.478 -0.894,0.868c-0.151,0.617 0.047,0.32 0.441,0.012c0.746,-0.587 1.55,-0.271 2.423,-0.225c0.103,0.006 0.035,-0.12 -0.047,-0.275c-0.257,-0.478 -0.885,-0.613 -1.486,-0.504c-0.145,-0.438 -0.496,-1.015 -0.977,-1.186Z"/><path id="dp_path109" d="M16.206,69.678c0.244,-0.116 -4.733,1.447 -5.405,1.871l-0.275,0.184c-0.501,0.317 -0.465,0.74 -0.592,1.006c-0.565,1.191 1.569,-0.8 1.783,-0.957c0.915,-0.671 4.403,-2.064 4.489,-2.104Zm7.366,-3.234c0.855,-0.407 1.556,-0.816 2.208,-1.223c-1.079,0 -2.192,0.629 -3.203,0.967c-0.971,0.323 -2.481,1.233 -2.993,2.138c-0.53,0.939 0.782,0.032 1.063,-0.163c0.52,-0.359 1.326,-0.832 2.925,-1.719Zm-0.728,-2.073c0.99,-0.603 0.99,-0.603 0.907,-0.679c-0.046,-0.041 -0.801,0.264 -1.677,0.679c-1.899,0.9 -3.54,1.996 -5.127,3.36c0.396,0 0.723,-0.074 1.067,-0.297c1.597,-1.039 3.201,-2.074 4.83,-3.063Zm14.473,-8.179c1.538,1.486 2.806,3.694 3.441,5.321c0.051,0.13 0.143,0.45 0.213,0.816c0.064,-0.014 0.127,-0.026 0.19,-0.036c-0.067,0.579 -0.332,1.111 -0.873,1.546c-0.363,-0.032 -0.828,-0.062 -0.783,-0.291c-2.303,0.534 -4.022,0.865 -6.345,0.865c-0.279,0 -0.478,-0.011 -0.618,-0.039c-0.112,0.08 -0.279,0.19 -0.536,0.358c-0.952,0.627 -1.989,1.483 -3.178,1.483c-0.152,0 -0.906,0.549 -1.039,0.505c-1.421,1.656 -2.412,3.125 -4.657,3.552c-0.155,0.03 -3.804,0.651 -3.984,0.487c-0.331,0.055 -5.61,1.671 -6.94,2.489c-0.163,0.098 -1.454,0.987 -1.492,1.132c-0.005,0.02 -0.007,0.04 -0.016,0.057c-1.699,3.136 -4.474,2.498 -5.494,0.12c0.041,-0.04 0.082,-0.08 0.121,-0.121c-0.079,-0.109 -0.154,-0.231 -0.222,-0.363c-0.407,-0.785 -0.936,-1.453 -1.666,-1.956c-0.198,-0.138 -0.344,-0.305 -0.43,-0.461c-1.329,-0.196 -1.663,-1.502 -1.53,-2.76c0.007,-0.067 0.029,-0.173 0.064,-0.29c-1.159,-1.059 -0.777,-4.254 1.054,-3.161c0.281,0.167 0.603,0.454 0.715,0.636c0.143,0.234 0.469,0.387 1.095,0.515c0.088,0.018 0.358,0.086 0.589,0.184c1.931,0.252 2.919,1.047 4.622,1.605l4.075,-1.456c0.295,-0.143 1.675,-0.762 2.17,-1.135c1.877,-1.418 4.193,-2.875 6.428,-3.633c0.291,-0.099 1.634,-0.369 2.169,-0.668c-0.108,0.012 -0.266,-0.047 -0.483,-0.205c-0.937,-0.685 -1.34,-1.464 -1.702,-2.592c-0.115,-0.361 -0.191,-0.708 -0.226,-0.986c-0.075,-0.185 -0.144,-0.431 -0.201,-0.743c-0.48,-2.643 3.268,-4.464 5.456,-5.166c0.183,-0.059 0.358,-0.108 0.518,-0.146c0.372,-0.378 1.343,-0.801 2.05,-0.844c0.273,-0.407 1.347,-0.484 1.912,-0.392c0.1,-0.085 0.281,-0.209 0.566,-0.379c1.326,-0.796 2.07,-0.895 3.659,-1.025c0.175,-0.015 0.347,-0.027 0.517,-0.035c0.048,-0.037 0.103,-0.072 0.163,-0.1c0.276,-0.136 0.861,-0.478 1.318,-0.507c0.097,-0.224 0.231,-0.467 0.4,-0.712c0.256,-0.371 1.267,-0.748 2.052,-0.953c-0.028,-0.177 -0.051,-0.32 -0.075,-0.438c0.136,-0.032 0.264,-0.056 0.379,-0.071c0.016,-0.151 0.082,-0.19 0.216,-0.145c0.245,0.082 0.245,0.082 0.513,0.178c0.011,0.004 0.031,0.007 0.059,0.01c0.143,-0.148 0.298,-0.264 0.448,-0.308c0.263,-0.441 0.694,-0.711 1.193,-0.956c0.087,-0.044 0.443,-0.259 0.8,-0.392c0.355,-0.26 0.797,-0.509 0.797,-0.153c0,0.058 0,0.097 -0.036,0.163c0.02,0.028 0.036,0.062 0.048,0.102c0.024,0.089 -0.141,0.228 -0.387,0.339c-0.124,0.146 -0.29,0.338 -0.51,0.593c-0.131,0.152 -0.697,0.623 -1.098,0.857c0.125,0.02 0.329,0.061 0.723,0.14c1.864,0.373 4.164,1.529 5.762,2.861c0.493,-0.073 1.453,0.753 1.639,0.953c0.611,0.662 1.22,1.311 1.578,2.125c0.051,0.076 0.084,0.136 0.094,0.176c0.01,0.042 0.017,0.08 0.02,0.113c0.033,0.096 0.064,0.195 0.09,0.298c0.003,0.014 0.007,0.028 0.01,0.043c0.445,-0.211 0.516,-0.273 1.673,-1.259c1.233,-1.052 2.597,-2.261 2.761,-2.352c0.32,-0.177 0.839,-0.693 1.153,-1.148c0.194,-0.279 0.076,-1.261 0.297,-1.307c0.02,0.035 0.745,0.478 0.732,0.57c1.56,-0.231 3.17,0.032 4.486,-0.802c0.053,-0.034 0.22,-0.164 0.421,-0.294c-0.009,-0.071 -0.69,-2.277 -0.595,-2.748c0.07,-0.34 0.127,-0.597 0.181,-0.79c-0.01,-0.016 -0.021,-0.033 -0.031,-0.05c-0.157,-0.272 -0.309,-0.591 -0.441,-0.93c-0.008,0.02 -0.019,0.042 -0.032,0.065c-0.168,0.299 -0.438,0.452 -0.971,0.553c-0.405,0.077 -1.208,0.107 -1.784,0.066c-1.046,-0.074 -0.366,0.271 -1.864,0.035c-1.32,-0.209 -2.281,-0.992 -3.207,-1.652c-0.7,-0.499 -1.291,-1.018 -1.316,-1.155c-0.045,-0.248 -0.01,-0.233 0.925,0.177c0.969,0.427 0.969,0.427 1.611,0.921c0.102,0.078 0.981,0.698 2.414,0.946c1.273,0.221 1.608,-0.044 2.434,-0.099c0.309,-0.021 1.324,-0.282 1.687,-0.14c-0.208,-0.605 -0.343,-1.249 -0.329,-1.797c0.004,-0.146 0.191,-0.936 0.294,-0.445c0.033,0.155 0.033,0.155 0.54,1.399c0.437,1.075 0.497,1.221 0.631,1.579c0.087,0.037 0.117,0.125 0.111,0.323c0.029,0.132 0.017,0.238 -0.022,0.315c-0.063,0.626 0.917,4.019 1.112,4.695c0.068,0.232 0.65,1.912 0.564,2.527c0.065,-0.013 0.128,-0.022 0.186,-0.024c0.529,-0.596 0.455,-1.239 1.13,-1.575c0.191,-0.096 1.082,-0.339 1.123,-0.038c0.012,0.094 -0.192,0.322 -0.455,0.505c-0.538,0.379 -0.905,0.983 -1.457,1.257c0.009,0.017 0.016,0.036 0.022,0.057c0.028,0.103 -1.625,1.058 -1.974,1.377c-0.103,0.094 -0.809,0.758 -1.326,1.108c0.107,0.037 0.183,0.093 0.2,0.156c0.031,0.115 -0.096,0.222 -0.283,0.238c-0.338,0.029 -0.338,0.029 -2.187,0.56c-1.849,0.531 -1.849,0.531 -1.9,0.242c-0.008,-0.047 -0.003,-0.089 0.021,-0.13c-0.611,-0.072 -1.836,-0.422 -2.075,-0.889c-0.235,0.101 -0.613,0.196 -1.054,0.258c-0.096,0.014 -0.213,0.015 -0.334,0.008c0.053,0.095 0.094,0.216 0.114,0.358c0.014,0.092 0.017,0.177 0.012,0.253c0.004,0.034 -0.002,0.079 -0.016,0.131c0,0.002 -0.001,0.004 -0.002,0.006c-0.011,0.055 -0.028,0.102 -0.049,0.142c-0.066,0.163 -0.177,0.356 -0.309,0.53c-0.357,0.469 -0.51,0.878 -0.524,1.347c0.056,0.116 0.111,0.267 0.175,0.466c0.212,0.654 0.379,0.867 0.999,1.273c0.156,0.101 0.469,0.33 0.658,0.559c0.017,-0.017 0.036,-0.035 0.055,-0.052c0.334,-0.307 0.909,-0.69 1.278,-0.849c0.369,-0.159 1.017,-0.499 1.44,-0.755c0.074,-0.045 0.202,-0.12 0.349,-0.191l0.002,-0.001c0.418,-0.257 0.814,-0.438 0.994,-0.438c0.11,0 0.217,0.042 0.283,0.104l0.002,0.002c0.123,-0.103 0.3,-0.201 0.474,-0.246c0.422,-0.112 1.391,-0.199 2.155,-0.195c1.538,0.009 3.278,-0.016 4.398,-1.186c0.002,-0.003 0.038,-0.042 0.095,-0.1c-0.01,-0.006 -0.019,-0.011 -0.028,-0.016c0.05,-0.035 0.102,-0.073 0.157,-0.115c0.213,-0.212 0.525,-0.497 0.671,-0.514c0.32,-0.232 0.66,-0.438 0.981,-0.498c-0.056,-1.031 -0.118,-2.085 0.203,-3.054c-0.055,-0.062 -0.051,-0.911 -0.288,-2.287c-0.131,-0.757 -0.854,-3.08 -1.034,-3.449c-0.044,-0.091 -0.151,-0.301 -0.25,-0.543c-0.154,0.185 -0.339,0.312 -0.562,0.353c-0.28,0.052 -0.441,0.081 -0.386,-0.101c0.429,-1.447 1.034,-2.383 1.034,-3.982c0,-1.63 -0.673,-2.092 -2.187,-2.922c-0.024,-0.013 -0.211,-0.159 -0.395,-0.33c-0.128,0.434 -0.013,0.5 -0.21,-0.382c-0.145,-0.652 -0.185,-0.966 -0.581,-1.451c-0.282,-0.345 -0.53,-0.605 -0.653,-0.949c-0.041,0.041 -0.085,0.063 -0.134,0.069c-0.284,0.036 0.027,-0.415 0.181,-1.404c0.168,-1.084 0.428,-1.302 0.678,-2.004c0.007,-0.034 0.012,-0.07 0.019,-0.107c0.007,-0.037 0.055,-0.169 0.124,-0.324c-0.263,-0.173 0.089,-0.666 0.507,-0.91c1.55,-0.908 1.555,-3.734 0.644,-5.068c-1.197,-1.751 -4.92,-1.465 -6.444,0.128c-0.081,0.084 -1.387,3.392 -1.543,4.479c-0.105,0.744 -0.017,2.848 -0.084,2.942c0.173,0.487 0.535,0.849 1.217,0.956c0.247,0.038 3.638,-0.605 4.281,-2.286c0.235,-0.616 0.874,-1.242 0.772,-0.161c-0.157,1.677 -1.879,2.406 -3.285,2.744c-0.369,0.089 -0.682,0.48 -1.841,0.298c-1.019,-0.16 -1.448,-0.126 -2.33,-0.377c-1.136,-0.324 -1.999,-1.317 -4.536,0.656c-0.078,0.061 -0.355,0.5 -0.482,0.781c0.093,-0.029 0.577,-0.152 0.656,-0.173c0.397,-0.11 1.773,-0.455 1.854,0.189c0.034,0.271 -2.325,-0.037 -4.089,1.417c-0.161,-0.116 -1.659,0.919 -1.427,2.605c0.49,-0.103 1.001,-0.109 1.102,0.263c0.035,0.128 -0.231,0.25 -0.725,0.331c-1.041,0.173 -2.291,0.696 -2.73,1.719c-0.167,0.387 -0.524,0.963 -0.794,1.278c-0.491,0.573 -0.491,0.573 -0.985,1.387c-0.329,0.543 -0.579,0.677 -0.652,0.547c-0.064,-0.116 0.01,-0.439 0.289,-0.869c1.038,-1.602 1.786,-3.557 3.579,-4.364c0.057,-0.026 0.153,-0.065 0.275,-0.109c-0.011,-0.06 -0.019,-0.133 -0.023,-0.216c-0.035,-0.592 -0.821,-1.787 2.558,-3.565c-0.002,-0.976 1.657,-2.327 2.299,-2.633c0.778,-0.37 2.334,-0.999 3.582,-0.261c0.322,0.083 0.751,0.044 0.742,-0.186c-0.003,-0.238 0.005,-0.966 0.022,-1.233c0.132,-2.018 1.748,-6.969 2.223,-7.311c0.461,-0.333 3.059,-1.034 4.25,-0.748c1.911,0.458 3.407,1.233 3.766,3.17c0.255,1.382 -0.384,4.241 -2.035,4.604c-0.068,0.246 -0.293,0.656 -0.543,1.444c-0.238,0.749 -0.226,1.576 -0.392,1.857c0.014,0.018 0.027,0.037 0.039,0.057c0.704,1.09 1.163,1.125 1.348,2.582c0.009,0.07 0.014,0.137 0.017,0.2c0.201,0.084 0.601,0.424 0.903,0.586c0.894,0.438 1.828,1.72 1.828,3.488c0,0.499 -0.045,1.549 -0.301,2.397c0.14,0.146 0.296,0.377 0.478,0.705c0.659,1.184 1.437,3.967 1.437,5.317c0,0.176 -0.058,0.523 -0.148,0.8c0.055,0.268 0.044,0.779 0.006,1.025c-0.08,0.538 0.07,2.626 -0.47,2.918c-0.246,0.545 -0.901,0.798 -1.494,0.775c-0.149,0.322 -0.362,0.604 -0.681,0.81c-1.15,0.737 -2.603,0.832 -3.932,0.893c-0.95,0.043 -1.381,0.028 -2.321,0.208c-0.17,0.032 -0.825,0.304 -0.895,0.286c-0.05,0.05 -0.117,0.057 -0.193,0.056c-0.243,0.307 -0.764,0.579 -1.002,0.656c-0.118,0.038 -0.495,0.247 -0.838,0.465c-0.319,0.202 -0.801,0.346 -1.177,0.394c-0.14,0.089 -0.278,0.186 -0.409,0.293c-0.4,0.32 -0.904,0.431 -1.037,0.282c-0.795,0.075 -1.547,-0.667 -1.669,-1.378c-0.07,-0.412 -0.231,-0.92 -0.357,-1.13c-0.046,-0.077 -0.113,-0.179 -0.172,-0.282c-0.077,-0.029 -0.146,-0.053 -0.211,-0.074c-0.045,-0.586 0.007,-1.152 0.156,-1.396c0.087,-0.142 0.471,-0.572 0.844,-0.845c-0.001,-0.009 -0.003,-0.019 -0.005,-0.029c-0.036,-0.206 0.355,-1.127 0.454,-1.208c0.008,-0.016 0.017,-0.032 0.027,-0.049c0.16,-0.269 1.136,-0.279 1.699,-0.106c0.001,0 0.001,0 0.001,0c0.074,-0.008 0.074,-0.008 1.235,0.409c0.156,0.056 1.017,0.447 1.251,0.74c0.255,-0.09 0.614,-0.196 1.108,-0.333c1.394,-0.388 1.664,-0.462 1.954,-0.476c0.171,-0.823 1.729,-1.899 2.316,-2.223c0.078,-0.043 0.303,-0.164 0.558,-0.265c-0.008,-0.005 -0.016,-0.01 -0.024,-0.016c-0.368,-0.26 -0.588,-0.67 -0.96,-1.792c-0.165,-0.502 -0.303,-0.984 -0.403,-1.462c-0.1,0.057 -0.207,0.117 -0.323,0.179c-1.476,0.787 -2.738,1.607 -4.383,1.398c-1.402,0.518 -1.38,1.22 -2.101,1.47c-0.031,0.092 -2.115,1.796 -2.277,1.955c-1.019,1.003 -1.269,1.352 -2.333,1.565c-0.167,0.334 -0.557,0.739 -0.982,1.022c0.028,0.168 0.037,0.383 0.017,0.642c-0.06,0.749 -0.202,1.56 -0.486,2.286c-0.095,0.722 -0.257,1.468 -0.658,1.542c-0.074,0.014 -0.135,0.011 -0.183,-0.007c-0.094,0.069 -0.206,0.138 -0.327,0.197c-0.118,0.057 -0.239,0.122 -0.365,0.193c-0.799,1.045 -2.143,1.618 -3.695,2.007c-1.184,0.295 -1.184,0.295 -2.663,1.021c-1.48,0.725 -1.48,0.725 -1.977,0.919c-0.581,0.228 -0.888,-0.588 -0.351,-0.735c0.243,-0.066 0.72,-0.348 1.378,-0.816c0.47,-0.333 1.249,-0.709 1.872,-0.916c0.569,0.211 1.139,0.158 1.701,-0.011c1.067,-0.621 2.185,-1.18 3.196,-1.891c0.08,-0.057 0.656,-0.412 1.066,-0.494c0.049,-0.427 0.27,-0.977 0.359,-1.163c0.367,-0.771 0.411,-1.551 0.411,-2.396c0,-0.209 0.048,-0.391 0.118,-0.519c-0.056,-0.045 -0.105,-0.113 -0.137,-0.206c-0.24,-0.692 -0.722,-1.245 -1.201,-1.782c-0.286,-0.322 -1.156,-1.034 -0.267,-0.937c0.332,0.037 0.582,0.189 0.762,0.465c0.409,0.627 0.886,1.18 1.19,1.874l0.002,-0.001c0.008,-0.003 0.017,-0.005 0.026,-0.007c0.88,-0.216 0.097,-1.407 -0.193,-1.742c-0.688,-0.794 -1.474,-1.566 -2.394,-2.091c-0.064,-0.036 -0.139,-0.072 -0.221,-0.105c-0.282,-0.246 -0.591,-0.478 -0.935,-0.699c-1.334,-0.86 -2.666,-1.523 -4.133,-2.118c-0.058,-0.023 -0.804,-0.387 -1.192,-0.644c-0.055,0.056 -0.134,0.118 -0.243,0.189c-0.15,0.097 -0.369,0.15 -0.598,0.155c0.218,0.07 0.374,0.17 0.412,0.307c0.047,0.174 -0.074,0.208 -0.573,0.159c-0.152,-0.015 -1.011,-0.05 -1.575,-0.143c-0.355,0.27 -0.694,0.606 -0.903,0.91c-0.149,0.215 -0.286,0.396 -0.41,0.546l0.001,0c0.399,0.014 0.813,0.118 0.854,0.345c0.058,0.331 -0.793,0.273 -1.285,0.096c-0.299,0.241 -0.477,0.215 -0.531,0.023c-0.185,0.046 -0.384,0.078 -0.575,0.096c-1.197,0.21 -2.387,0.436 -3.577,0.725c-0.427,0.104 -1.116,0.318 -1.559,0.414c0.064,0.069 -0.01,0.158 -0.301,0.255c-0.124,0.041 -0.554,0.345 -0.989,0.581c0.219,0.234 0.456,0.535 0.671,0.864c0.185,0.284 1.998,2.994 1.244,2.994c-0.741,0 -1.938,-2.406 -2.403,-3.635c-0.252,0.087 -0.461,0.094 -0.546,-0.062c-0.228,0.051 -1.14,0.461 -1.692,0.555c-0.406,0.267 -1.133,0.714 -2.425,1.507c-2.96,1.819 -2.96,1.819 -2.836,3.134c0.057,0.621 -0.029,1.079 -0.176,1.294l-0.001,0.002c0.008,0.02 0.016,0.041 0.024,0.062c0.26,0.693 0.889,1.611 1.43,2.085c0.082,0.072 0.156,0.155 0.221,0.244c0.451,-0.146 1.119,-0.15 1.527,0.008c0.097,-0.039 0.194,-0.07 0.29,-0.091c0.362,-0.582 0.996,-1.125 1.618,-1.512c-0.64,0.031 -1.285,-0.144 -1.916,-0.335c-0.253,-0.076 -0.555,-0.434 -0.676,-0.688c-0.88,-0.03 -0.899,-0.079 -1.059,-0.521c-0.181,-0.498 -0.181,-0.498 0.289,-0.128c0.735,0.579 1.826,0.436 2.586,-0.018c0.371,-0.222 2.166,-1.674 2.148,-1.048c-0.009,0.324 -0.215,0.513 -1.177,1.077c-1.094,0.641 -1.178,0.681 -2.243,0.654l0.001,0.001c0.272,0.17 0.387,0.204 1.007,0.39c0.601,0.18 0.955,0.196 1.679,0.074c0.179,-0.03 0.339,-0.051 0.47,-0.061c0,-0.002 0.001,-0.003 0.002,-0.004c0.786,-1.608 2.459,-2.517 4.151,-2.904c0.064,-0.015 0.213,-0.065 0.395,-0.115c0.159,-0.159 0.323,-0.314 0.49,-0.464c-0.011,-0.071 0.026,-0.142 0.019,-0.23c-0.044,-0.576 -0.088,-0.586 0.586,-0.663c0.087,0.099 0.179,0.195 0.276,0.291c0.074,-0.08 0.288,-0.224 0.69,-0.453c0.422,-0.241 1.104,-0.778 1.771,-1.1c-0.003,-0.01 -0.006,-0.019 -0.009,-0.029c-0.2,-0.724 0.711,-2.456 1.586,-2.33c0.537,0.077 0.537,0.077 -0.444,1.494c-0.119,0.171 -0.24,0.4 -0.358,0.614c0.151,-0.018 0.295,-0.009 0.427,0.034c0.459,0.148 0.459,0.148 -0.281,0.577c-0.549,0.319 -2.786,1.209 -3.304,1.268c0.178,0.172 0.37,0.34 0.569,0.504c-0.044,0.03 -0.088,0.062 -0.131,0.094c0.08,0.039 0.173,0.083 0.282,0.137c0.168,0.081 0.335,0.173 0.499,0.278c0.262,0.196 0.527,0.388 0.786,0.578c0.122,0.104 0.244,0.212 0.363,0.325c0.024,0.023 0.049,0.047 0.073,0.071Zm-0.801,0.832c0.328,0.341 0.636,0.7 0.926,1.073c-1.362,-0.387 -2.306,0.637 -3.083,1.698c-0.904,1.23 -0.904,1.23 -0.713,1.23c0.447,0 0.876,-0.657 1.131,-0.975c0.646,-0.808 1.69,-1.812 2.799,-1.78c0.656,0.863 1.232,1.796 1.8,2.748c-0.064,0.056 -0.124,0.119 -0.172,0.168c-1.146,1.145 -3.499,1.553 -5.037,1.973c1.717,0.191 3.579,-0.752 5.052,-1.57c0.135,-0.076 0.258,-0.158 0.356,-0.237c0.008,0.014 0.017,0.029 0.026,0.044c0.304,0.512 0.499,0.862 0.614,1.127c-0.379,0.112 -0.7,0.222 -0.859,0.253c-2.527,0.491 -2.527,0.491 -4.586,0.826c-0.741,0.121 -1.215,0.198 -1.531,0.246c0.036,-0.022 0.073,-0.044 0.111,-0.065c-0.572,0.14 -1.129,0.263 -1.706,0.292c-0.692,0.59 -0.775,0.655 -1.184,0.912c-0.243,0.152 -1.93,0.357 -2.06,0.357c-0.454,0 -0.93,0.688 -1.153,0.951c-1.032,1.214 -2.094,2.104 -3.553,2.78c-0.51,0.236 -3.772,0.939 -3.962,1.031c-0.265,-0.149 -0.747,-0.009 -0.989,0.026c-0.565,0.082 -5.856,1.735 -7.115,2.594c-0.83,0.567 -1.657,1.71 -1.804,1.873c-1.065,1.182 -2.785,1.52 -3.399,0.269c0.008,-0.066 0,-0.162 -0.031,-0.291c-0.261,-1.117 -1.067,-2.215 -1.945,-2.92c-0.354,-0.284 -0.52,-0.417 -0.649,-0.493c-0.047,-0.179 -0.212,-0.363 -0.493,-0.477c-0.827,-0.337 -0.52,-1.094 -0.816,-1.798c-0.003,-0.006 -0.005,-0.012 -0.007,-0.017c0.134,-0.255 -0.194,-0.948 -0.425,-1.281c-0.438,-0.634 -0.217,-1.611 0.479,-0.724c0.466,0.593 1.577,0.783 2.36,0.543c0.002,0.008 0.004,0.017 0.007,0.026c0.778,0.268 1.283,0.705 2.318,1.108c1.468,0.571 2.511,0.874 2.585,0.894c0.826,0.216 2.81,-1.11 3.876,-1.509c0.89,-0.333 2.179,-1.089 2.775,-1.541c1.958,-1.485 4.42,-3.173 6.907,-3.525c0.523,-0.074 1.016,-0.214 1.402,-0.338c0.361,0.044 0.817,0.055 0.927,0.044c0.865,-0.087 1.348,-0.136 1.302,-0.307c-0.028,-0.102 -0.427,-0.17 -1.002,-0.17c-0.148,0 -0.273,0 -0.379,0.001c0.565,-0.874 1.19,-0.921 1.716,-1.406c0.029,-0.027 0.058,-0.054 0.087,-0.08c0.227,-0.511 1.35,-1.675 1.964,-1.417c0.037,-0.021 0.076,-0.041 0.114,-0.061c-0.073,-0.409 0.102,-0.812 0.383,-1.14c-0.032,0.012 -0.064,0.024 -0.096,0.036c0.839,-0.969 2.189,-1.638 3.346,-1.965c0.563,-0.159 0.846,-0.262 0.95,-0.362c0.027,-0.009 0.053,-0.018 0.079,-0.026c0.255,-0.086 0.39,-0.161 0.439,-0.242c0.057,0.041 0.119,0.084 0.186,0.131c0.276,0.037 0.491,0.144 0.526,0.38c0.435,0.334 0.835,0.697 1.206,1.083Zm-5.363,2.864c0.166,-0.379 -0.127,-0.679 -0.499,-0.413c-0.294,0.21 -0.444,1.558 -0.191,1.966c-0.609,-0.056 -1.819,0.386 -2.005,0.538c-0.356,0.29 -0.75,1.428 0.083,0.775c0.572,-0.449 1.246,-0.564 1.909,-0.808c0.218,-0.081 0.377,-0.218 0.353,-0.305c-0.002,-0.009 -0.005,-0.016 -0.007,-0.024c0.273,0.015 0.28,-0.358 0.248,-0.691c-0.034,-0.356 0.015,-0.823 0.109,-1.038Zm11.697,-12.044c0.01,-0.043 0.082,-0.07 0.246,-0.07c0.221,0 0.863,0.261 1.426,0.58c1.024,0.581 1.024,0.581 1.65,1.155c0.234,0.214 0.526,0.446 0.848,0.694c-0.003,0.022 -0.004,0.043 -0.003,0.066c-0.155,-0.043 -0.289,-0.064 -0.399,-0.064c-0.048,0 -0.093,0.001 -0.135,0.004c-0.847,-0.743 -1.743,-1.412 -2.725,-1.78c-0.189,-0.072 -0.945,-0.432 -0.908,-0.585Zm-2.042,2.046c0.089,0.068 0.218,0.129 0.392,0.173c0.789,0.199 1.88,0.592 2.369,1.291c0.551,0.79 0.02,0.597 -0.676,0.361c-0.083,-0.029 -0.178,-0.058 -0.281,-0.087c0.124,0.227 0.232,0.495 0.328,0.811c0.027,0.09 0.056,0.178 0.088,0.263c0.51,0.246 1.001,0.557 1.51,0.938c0.642,0.482 1.29,0.844 1.47,0.822c0.668,-0.084 -0.087,-0.778 -0.291,-0.931c-0.288,-0.218 -0.717,-0.795 -0.955,-1.283c-0.458,-0.941 -0.968,-1.924 -1.979,-2.36c-0.399,-0.172 -1.023,-0.386 -1.387,-0.477c-0.663,-0.164 -0.938,0.21 -0.588,0.479Zm10.471,-2.607l1.242,-0.328l-1.07,-0.082c-0.812,-0.062 -2.801,0.098 -2.995,1.156c-0.151,0.824 0.71,0.216 1.008,-0.002c0.315,-0.229 1.132,-0.564 1.815,-0.744Zm6.608,-1.986c-0.433,0.128 -0.802,0.134 -1.204,0.021c-0.665,-0.188 -0.686,0.19 -0.154,0.491c0.245,0.139 0.799,0.223 1.251,0.152c-0.1,1.374 2.702,0.901 1.05,0.162c-0.207,-0.093 -0.401,-0.298 -0.445,-0.467c0.035,-0.051 0.059,-0.109 0.069,-0.175c0.057,-0.354 0.034,-0.362 -0.567,-0.184Zm0.237,-1.18c-0.293,0.03 -0.796,-0.056 -1.114,-0.191c-0.524,-0.222 -0.581,-0.246 -0.545,0.013c0.077,0.553 1.367,0.581 1.734,0.529c0.122,-0.018 0.217,-0.044 0.286,-0.072c-0.083,0.291 0.025,0.911 0.356,1.099c0.343,0.195 1.993,0.18 0.941,-0.259c-0.324,-0.135 -0.687,-0.42 -0.807,-0.632c-0.14,-0.249 -0.253,-0.353 -0.339,-0.361c-0.013,-0.088 -0.198,-0.158 -0.512,-0.126Zm-4.339,-1.532c0.463,-1.275 0.463,-1.275 0.164,-1.318c-0.604,-0.087 -1.032,1.671 -1.148,2.081c-0.245,0.869 -0.565,2.036 0.085,2.781c0.477,0.547 0.978,1.071 1.477,1.599c-0.123,-0.6 -0.275,-1.159 -0.631,-1.675c-0.718,-1.035 -0.342,-2.378 0.053,-3.468Zm-1.843,-2.413c-0.309,-0.575 -1.073,-0.014 -1.397,0.227c-0.57,0.424 -1.524,1.536 -1.615,2.389c-0.716,-0.151 -1.719,1.389 -1.865,1.82c-0.002,0.007 -0.004,0.013 -0.006,0.019c-0.63,0.084 -1.19,0.828 -1.426,1.371c-0.528,1.219 1.415,-0.505 1.641,-0.672c0.518,-0.387 0.636,-0.474 0.431,-0.569c0.055,-0.071 0.105,-0.145 0.144,-0.219c0.313,-0.589 0.572,-0.988 1.262,-1.064c0.274,-0.03 0.34,-0.083 0.264,-0.256c0.127,-0.104 0.244,-0.259 0.298,-0.373c0.378,-0.802 0.988,-1.686 1.794,-2.1c0.47,-0.241 0.581,-0.375 0.475,-0.573Zm11.061,-4.036c-0.446,-0.159 -0.884,-0.001 -2.025,-0.638c-0.792,-0.441 -1.092,-0.626 -1.538,-0.585c-0.03,0.003 -0.772,0.07 -0.74,0.108c-0.211,-0.002 -0.418,0.018 -0.568,0.075c0,-0.003 -0.001,-0.004 -0.002,-0.006c-0.177,-0.587 -0.251,-0.644 -1.101,-0.85c-0.017,-0.004 -1.555,-0.367 -1.261,-0.058c0.155,0.164 0.155,0.164 1.002,0.405c0.746,0.213 0.859,0.303 0.948,0.756c0.109,0.548 0.28,0.842 0.331,0.499c0.579,-0.595 1.127,-0.596 1.403,-0.37c0.016,0.014 0.04,-0.008 0.059,-0.013c0.389,0.164 0.247,0.023 0.966,0.284c2.393,0.866 2.577,0.963 2.976,1.569c0.032,0.048 0.062,0.092 0.091,0.133c-0.437,0.173 -0.798,0.479 -0.894,0.868c-0.151,0.617 0.047,0.32 0.44,0.012c0.747,-0.587 1.551,-0.272 2.424,-0.225c0.103,0.006 0.035,-0.12 -0.048,-0.275c-0.256,-0.478 -0.884,-0.613 -1.485,-0.504c-0.145,-0.439 -0.497,-1.015 -0.978,-1.185Z"/></svg>