<?xml version="1.0" encoding="UTF-8" standalone="no"?><!DOCTYPE svg PUBLIC "-//W3C//DTD SVG 1.1//EN" "http://www.w3.org/Graphics/SVG/1.1/DTD/svg11.dtd"><svg width="100%" height="100%" viewBox="0 0 968 593" version="1.1" xmlns="http://www.w3.org/2000/svg" xmlns:xlink="http://www.w3.org/1999/xlink" xml:space="preserve" xmlns:serif="http://www.serif.com/" style="fill-rule:evenodd;clip-rule:evenodd;stroke-linejoin:round;stroke-miterlimit:1.41421;"><path d="M26.469,358.795c1.905,14.849 1.581,30.091 -1.569,44.783c-0.158,0.717 -2.163,9.389 -4.057,12.069c-1.635,4.315 -3.686,9.12 -5.043,11.34c-7.697,12.641 -15.173,27.579 -6.891,41.16c1.724,2.837 3.968,15.937 3.193,16.553c0.875,4.763 2.232,15.779 3.205,26.268c1.526,16.461 1.827,20.34 0.763,21.427l-0.012,0c-0.066,0.19 -0.178,0.359 -0.313,0.517c-0.304,1.781 -2.567,6.609 -3.821,10.634c-4.36,14.029 -8.876,20.584 8.371,22.458c5.862,0.637 12.46,2.599 19.296,4.561c1.75,1.065 3.991,1.77 5.48,2.789c1.291,0.886 3.319,1.368 5.359,1.345c1.925,3.787 6.946,4.002 10.635,2.198c4.045,1.087 9.671,0.424 13.3,-1.391c0.37,-0.19 0.74,-0.448 1.087,-0.761c1.199,-0.192 2.275,-0.763 2.746,-2.051c0.427,-1.188 2.487,-1.211 3.52,-1.658c1.816,-0.775 2.969,-3.093 1.905,-4.932c-0.887,-1.512 -2.815,-2.533 -4.281,-3.408c-1.334,-0.806 -2.51,-1.535 -3.643,-2.622c-1.254,-1.188 -2.186,-1.882 -3.876,-2.284c-1.145,-0.281 -2.622,-0.358 -4.125,-0.203c-1.3,-2.23 -3.17,-4.639 -5.268,-5.781c-0.413,-0.227 -0.883,-0.405 -1.365,-0.528c-0.821,-0.987 -1.604,-1.939 -2.287,-2.857c-2.78,-3.767 -13.021,-9.941 -13.437,-9.975c-0.841,-0.953 -4.875,-6.005 -5.939,-7.216c-0.482,-0.562 -0.975,-1.411 -1.446,-2.432c-1.692,0.212 -4.627,-9.952 -5.178,-14.973c-1.119,-10.052 -2.946,-23.252 1.893,-32.533c1.423,-2.734 3.139,-8.627 3.802,-13.076c0.659,-4.461 1.199,-15.644 1.199,-24.856c0,-1.256 2.071,-18.57 5.052,-16.519c1.962,-3.004 5.043,-7.206 8.495,-11.498c9.805,-12.227 10.815,-14.152 11.914,-22.693c1.208,-9.324 1.208,-9.324 4.246,-27.647c0.292,-1.759 0.123,-6.914 1.165,-10.601c-2.577,0.672 -6.028,1.389 -10.512,2.175c-7.396,1.3 -22.951,4.358 -33.563,2.218Zm86.637,-8.314c-0.112,0.011 -0.224,0.023 -0.347,0.034c-7.138,0.76 -11.642,0.694 -15.185,-0.238c-2.912,-0.76 -8.325,-1.03 -12.887,-0.625c-1.48,0.123 -3.104,0 -4.461,-0.293c-0.301,0.763 -0.617,1.334 -0.964,1.739c0.304,0.123 0.582,0.258 0.809,0.39c-0.327,0.617 -0.617,1.537 -0.82,2.691c-0.571,0.281 -1.4,0.447 -2.376,0.505l0,0.011c-0.123,2.688 -0.594,6.432 -1.265,10.041l0.023,0c0.425,-0.034 1.165,1.208 2.387,4.504c3.047,8.314 4.246,16.944 4.246,25.774c0,0.975 -0.012,1.873 -0.035,2.668c0.494,-0.169 0.709,1.288 1.191,5.044c0.166,1.322 2.284,0.278 -0.551,5.155c-7.924,13.67 -11.923,22.859 -6.409,38.032c1.724,4.72 2.33,8.776 1.905,12.575c-0.628,5.614 -0.628,5.614 -0.324,25.908c0.212,14.032 1.388,21.081 -2.892,28.218c-0.181,1.75 -0.416,3.185 -0.663,3.632c-0.146,0.27 -0.29,0.528 -0.424,0.795c-2.456,3.227 -3.34,7.364 -4.103,11.163c-0.258,1.265 -0.525,2.711 -0.617,4.157c-0.235,0.551 -0.413,1.064 -0.502,1.411c-1.11,3.902 -0.809,7.04 2.835,9.571c3.405,2.366 7.889,1.781 11.834,1.781c2.298,0 4.346,-0.559 6.366,-1.242c2.151,0.301 8.325,0.224 18.054,4.022c1.064,2.252 3.675,4.203 6.228,4.662c2.691,0.482 6.601,0.864 9.415,-0.189c0.256,0.146 0.525,0.269 0.784,0.37c4.013,1.5 10.457,2.645 13.245,-0.976c0.135,-0.192 1.997,-1.626 2.109,-1.816c1.242,-1.075 1.959,-2.757 2.106,-3.99c0.146,-1.176 -1.994,-2.723 -2.769,-3.865c-2.218,-3.296 -6.802,-2.498 -7.554,-2.197c-0.671,-0.729 -1.354,-1.377 -1.936,-1.916c-0.821,-0.752 -1.693,-1.458 -2.602,-2.129c-2.88,-2.576 -6.814,-5.58 -9.895,-8.136c-2.329,-1.917 -9.312,-6.008 -13.099,-9.482l-8.328,-8.124c-0.502,-0.213 -0.907,-1.59 -1.007,-4.774c-0.124,-0.806 -0.193,-1.693 -0.193,-2.622c0,-1.188 0.104,-2.711 0.282,-4.438c0.212,-4.034 0.705,-8.068 1.379,-12.081c0.614,-9.333 2.195,-18.748 5.491,-26.715c0.359,-0.864 0.718,-1.627 1.053,-2.298c1.222,-7.99 1.948,-16.048 1.948,-24.317c0,-8.058 -0.783,-13.145 -0.883,-15.701c-2.086,1.357 -4.504,2.353 -7.319,2.904c5.738,-6.648 11.476,-11.869 12.517,-20.846c1.414,-12.281 4.114,-24.373 6.837,-36.42l2.599,-11.475c-1.635,-0.135 -3.147,-0.405 -4.057,-0.606l-1.176,-0.246Zm-20.464,-88.522c-8.818,-0.459 -16.874,-1.153 -17.896,-1.546c-3.204,-1.231 -5.166,0.763 0.405,1.873c8.506,1.69 17.83,2.522 26.726,2.935c5.615,0.258 -13.762,3.162 -15.968,3.339c-6.647,0.56 -13.145,1.469 -14.445,2.029c-5.525,2.398 8.372,0.135 11.014,-0.078c13.36,-1.11 13.36,-1.11 16.677,-1.793c2.051,-0.427 10.746,-2.321 9.952,-4.673c-0.316,-0.93 -4.484,-1.469 -16.465,-2.086Zm-7.261,-16.596c-14.232,-1.254 -28.241,-3.127 -31.141,-4.157c-9.717,-3.451 -1.122,3.775 3.976,5.02c12.474,3.059 35.895,5.861 48.67,2.545c10.3,-2.679 -16.742,-2.992 -21.505,-3.408Zm34.372,48.716c-2.533,-9.304 -6.108,-20.553 -3.968,-30.18c0.919,-4.112 0.617,-20.608 -5.009,-21.999c-2.275,-0.559 -3.026,-2.41 -2.937,-4.315c-1.042,0.451 -2.387,0.953 -4.057,1.515c-7.35,2.476 -10.847,2.353 -38.27,-1.357c-12.83,-1.738 -20.765,-3.015 -25.338,-4.18c0.562,2.376 -0.29,4.392 -3.116,7.431c1.033,0.031 1.828,0.616 2.186,2.016c0.089,0.336 0.069,0.895 -0.034,1.613c-1.759,0.674 -3.44,1.592 -4.235,2.131c-2.051,1.343 -3.675,3.113 -4.943,5.144c-1.793,2.823 -2.903,6.151 -3.574,9.479c-0.583,0.952 -1.03,2.117 -1.254,3.686c-0.258,4.754 -7.622,17.73 -6.702,23.39c0.626,3.821 1.088,6.713 1.446,8.988c1.435,4.034 1.871,7.574 1.501,15.027c0.404,0.895 0.447,2.6 0.18,5.434c-0.605,6.243 -0.605,6.243 -0.605,19.939c0,5.04 -0.123,8.514 -0.427,10.766c-0.012,0 -0.012,0.012 -0.012,0.023c-0.023,0.247 -0.043,0.482 -0.066,0.718c0.213,0.327 0.448,0.628 0.706,0.92c1.77,0.525 3.451,1.455 4.47,2.577c0.987,0.246 2.097,0.404 3.351,0.447c8.586,0.27 8.586,0.27 27.882,-2.521c7.846,-1.142 12.609,-1.736 15.5,-1.794c0.48,-1.075 1.076,-2.429 1.659,-4.076c2.734,-7.769 5.691,-21.181 4.458,-27.929c-1.658,-9.154 -1.366,-12.393 1.962,-21.459c2.769,-7.542 10.276,-15.993 5.075,-2.745c-1.13,2.889 -1.824,5.646 -2.129,8.885c0.629,-0.494 1.357,-1.042 2.198,-1.647c5.973,-4.326 5.973,-4.326 8.807,-7.732c0.953,-1.156 6.266,-5.838 7.296,-2.074c0.47,1.716 -1.165,5.772 -2.835,6.478c-0.358,0.158 -0.358,0.158 -9.335,6.544c-2.958,2.109 -4.943,3.509 -6.285,4.372c0.054,1.948 0.2,4.111 0.424,6.544c0.66,7.049 -4.091,17.437 -2.757,24.093c-0.011,0.011 0,4.619 0,7.14c1.983,-0.573 7.273,-0.774 11.757,-0.45c8.147,0.574 8.147,0.574 18.86,0.069c4.874,-0.236 7.53,-0.336 9.022,-0.124c0.502,-0.1 0.996,-0.192 1.478,-0.258c-1.782,-3.181 -1.065,-11.163 -0.941,-12.428c0.416,-4.18 0.416,-13.684 0,-21.135c-0.302,-5.356 -0.683,-10.692 -1.111,-16.025c-0.1,-0.304 -0.189,-0.617 -0.278,-0.941Zm-9.774,-113.065c0.327,-4.593 0.215,-5.21 -1.165,-6.128c-3.316,-2.197 -3.374,5.357 -3.62,7.597c-0.594,5.46 -1.836,8.899 -3.945,13.716c-0.482,1.088 -0.829,1.917 -1.076,2.657c0.069,-1.288 -2.017,-2.129 -6.073,-0.864c-6.151,1.908 -6.151,1.908 -7.35,2.04c-1.188,0.135 -1.188,0.135 -4.149,-3.058c-2.957,-3.182 -2.957,-3.182 -1.735,1.905c1.781,7.373 9.111,4.527 14.803,3.115c2.398,-0.605 3.821,-1.592 4.315,-2.499c-0.436,1.67 -0.301,3.139 0.158,6.645c0.995,7.688 -1.57,13.974 -3.084,21.238c-0.19,0.952 0.585,4.863 1.927,4.438c0.348,-0.115 1.246,-3.161 1.986,-6.77c1.334,-6.51 2.857,-15.028 1.681,-21.741c-0.258,-1.534 0.258,-3.026 1.893,-5.456c3.239,-4.797 5.009,-10.804 5.434,-16.835Zm-31.041,22.314c-2.017,-3.351 -5.95,-7.183 -8.753,-8.529c-9.961,-4.762 -0.201,4.651 3.319,7.99c6.085,5.784 6.656,14.849 6.622,21.146c-0.046,6.266 0.774,9.929 2.286,10.268c2.341,0.525 2.074,-2.614 1.277,-12.127c-0.649,-7.576 -2.554,-15.084 -4.751,-18.748Zm39.424,-38.336c-1.088,-0.763 -8.26,-3.262 -6.263,0.726c1.211,2.409 4.616,4.372 6.69,6.03c2.341,1.882 1.423,-5.457 -0.427,-6.756Zm-18.367,8.167c0.359,-1.041 0.548,-1.927 0.606,-2.633c3.394,-0.806 9.031,-3.417 8.055,-6.487c-0.571,-1.804 -3.259,-0.011 -3.787,0.772c-0.639,0.941 -2.194,1.816 -4.068,2.298c-1.511,0.381 -3.764,2.711 -2.845,3.451c-0.213,0.436 -0.405,0.941 -0.594,1.524c-2.353,7.284 -13.123,16.283 -22.369,14.926c-6.633,-0.964 -4.662,3.004 0.258,3.632c11.734,1.481 21.764,-8.787 24.744,-17.483Zm-57.288,56.336c3.004,0.459 7.106,1.176 12.675,2.152c11.544,2.028 25.438,3.686 30.874,3.686c2.565,0 12.339,-0.875 18.771,-0.84c2.275,-1.234 3.305,-2.298 3.474,-6.668c0.167,-4.36 1.994,-3.049 2.981,-8.663c1.805,-10.219 0.224,-18.143 0.146,-21.752c0.491,-1.759 3.059,-5.276 4.157,-7.103c1.446,-2.41 4.562,-11.453 4.516,-17.483c6.231,-7.273 0.425,-18.054 0.281,-18.054c-0.112,0 -0.45,-3.62 -0.685,-6.501c-2.588,0.293 -1.042,-3.058 0.573,-6.521c-4.002,-0.112 -9.539,-0.617 -10.916,-0.617c-2.891,0 -5.783,-0.235 -9.189,0.875c-8.764,2.858 -19.33,2.924 -29.047,0.83c1.581,1.276 3.07,2.329 4.605,3.15c5.571,2.957 3.474,3.809 12.115,2.834c3.632,-0.405 15.386,1.053 6.409,3.91c-11.43,3.632 -19.442,2.711 -33.64,-13.156c-0.798,-0.336 -1.57,-0.683 -2.321,-1.042c1.962,9.559 -2.264,21.798 -8.202,30.158c2.128,0.952 9.065,3.305 9.49,0.748c0.135,-0.829 0.706,-2.059 1.414,-2.946c-0.717,-0.539 -0.439,-1.368 1.836,-2.298c1.894,-0.76 6.69,-6.443 7.129,-1.713c0.325,3.429 -3.296,4.671 -6.107,4.662c0,0.009 0,0.009 0,0.02c1.77,7.196 -12.775,8.317 -14.021,3.274c-0.1,-0.393 -0.18,-0.752 -0.235,-1.065c-1.334,1.794 -2.745,3.397 -4.18,4.717c-0.875,0.809 -1.615,1.492 -2.252,2.074c0.324,2.074 0.606,5.437 0.996,10.724c0.215,2.972 3.138,16.978 -0.583,12.193c-0.895,-1.165 -2.306,-7.408 -3.138,-13.874c-0.367,-2.858 -0.614,-5.064 -0.737,-6.768c-0.405,-0.189 -0.551,-0.952 -0.798,-2.186c-0.459,-2.264 0.359,-3.999 2.657,-5.692c5.783,-4.246 10.669,-16.519 11.441,-23.433c0.091,-0.895 0.427,-7.33 1.291,-11.151c-0.752,-0.582 -1.604,-1.254 -2.433,-1.928c-1.412,0.451 -3.844,0.786 -7.666,1.099c-5.456,0.459 -10.836,0.797 -16.304,0.797c5.658,-3.184 10.667,-5.39 17.38,-5.39c1.11,0 7.049,0.043 10.58,2.017c13.929,7.809 28.655,7.226 43.515,4.045c9.436,-2.017 7.72,-0.258 10.408,-0.258c0.686,0 17.46,-0.494 16.184,1.03c13.214,3.396 26.795,4.013 38.394,-1.243c8.179,-3.698 14.41,-4.056 26.826,-4.65c3.733,-0.181 6.983,-0.717 9.539,-1.199c-6.701,-3.609 -2.521,-7.62 4.246,-4.507c8.283,3.812 17.618,2.983 25.327,-2.006c2.26,-1.445 5.929,-2.61 8.17,-2.587c6.971,0.112 22.257,0.324 26.379,-6.837c1.782,-3.115 1.782,-3.115 4.774,-5.491l2.981,-2.387c-3.07,0.471 -6.14,0.953 -9.204,1.357c0.465,0.112 0.936,0.236 1.406,0.347c-8.012,3.822 -19.224,2.164 -28.301,-0.674c-4.679,-0.671 -9.198,-0.895 -14.867,1.469c-7.284,3.038 -16.372,7.666 -24.465,6.051c1.827,-0.672 3.597,-1.4 5.336,-2.152c-4.226,-0.614 -10.658,-2.396 -25.653,-2.476c-11.723,-0.054 -35.322,-8.472 -46.754,-5.009c-1.813,0.551 -4.74,0.918 -7.62,1.021c2.387,1.805 3.015,2.889 -1.165,1.277c-1.48,-0.559 -3.193,-1.087 -5.066,-1.569c-1.199,-0.178 -2.218,-0.425 -3.012,-0.706c-10.234,-2.175 -23.76,-3.161 -31.816,-2.768c-5.267,0.269 -8.001,1.569 -7.106,0.829l-11.272,-6.949c-12.809,-6.856 -31.638,-5.187 -41.355,6.67c-0.972,1.188 -2.642,3.988 -4.211,6.498c0.135,0.325 0.189,0.775 0.112,1.323c-0.27,2.14 -0.27,2.14 -0.27,8.058c0,0.617 0,1.177 -0.011,1.67c0.929,-0.023 1.592,0.694 1.503,1.635c-0.092,0.887 -2.545,11.183 -0.898,16.026c1.581,4.639 1.759,8.707 1.759,13.515c0,6.254 1.569,12.371 3.72,18.289c0.023,0.034 0.046,0.066 0.069,0.112c2.43,3.764 5.187,9.235 6.128,12.158c1.716,5.325 1.716,5.325 4.427,10.546c2.522,4.843 2.78,6.266 3.609,19.712c0.034,0.539 0.069,1.064 0.1,1.569c0.686,7.485 1.311,10.265 2.68,11.981c0.571,0.705 1.569,1.971 2.117,3.204Zm59.91,-75.018c0.437,-0.614 -0.023,-3.686 -0.774,-1.993c-0.235,0.504 -1.199,1.11 -2.152,1.356c-2.398,0.606 -5.511,2.006 -6.845,4.215c-0.45,0.726 -0.686,1.847 -0.752,2.946c-1.009,0.281 -2.14,0.841 -3.046,1.581c-3.139,2.576 -3.431,11.507 1.196,12.652c4.418,1.075 1.268,-4.608 1.268,-7.15c0,-0.258 0.987,-1.905 2.206,-3.666c1.033,-1.5 1.245,-2.476 0.944,-3.012c0.683,-1.661 1.836,-2.815 4.123,-4.226c3.173,-1.974 3.462,-2.175 3.832,-2.703Zm7.913,-2.777c-4.539,-3.173 -3.173,0.626 -1.245,3.429c2.016,2.926 0.335,6.277 0.335,9.504c0,3.383 0.663,1.265 1.974,-0.832c2.094,-3.316 2.611,-9.524 -1.064,-12.101Zm-9.158,-22.426c-3.328,-1.176 -7.754,-2.128 -9.837,-2.128c-3.609,0 -4.742,2.846 -1.099,2.14c1.288,-0.235 4.897,0.381 8.013,1.391c3.058,0.984 5.916,1.747 8.977,0.729l-6.054,-2.132Zm74.109,-8.514l3.485,-2.132c-6.767,0 -13.099,2.221 -19.161,5.066c-6.199,2.915 -13.125,3.756 -19.915,2.958c-3.598,-0.413 -4.157,-0.278 -4.157,1.022c0,1.288 1.21,1.612 8.337,2.24c10.97,0.964 22.067,-3.463 31.411,-9.154Zm-22.994,-5.919l4.335,-1.322l-5.58,-0.425c-7.462,-0.571 -15.162,0.783 -19.79,6.88c-1.839,2.421 -2.969,3.127 -5.032,3.127c-3.597,0 -3.474,3.632 0.583,2.914c3.675,-0.651 5.984,-1.681 7.878,-4.908c3.586,-6.12 11.421,-4.395 17.606,-6.266Zm-48.547,-0.605c-4.022,-1.512 -8.406,-2.206 -12.517,-0.76c-2.186,0.76 -2.063,1.5 -1.033,2.117c-0.166,0.482 -0.269,1.064 -0.301,1.713c-0.258,4.461 -3.374,6.343 -7.677,6.601c-4.785,0.292 -0.671,3.632 2.556,3.081c4.986,-0.861 9.201,-4.851 8.607,-10.276c1.153,0.269 2.24,0.45 2.699,0.493c5.098,0.494 10.704,1.873 14.391,5.637c1.018,1.042 8.494,4.146 7.507,2.075c-2.263,-4.697 -9.504,-8.911 -14.232,-10.681Zm-29.394,-7.912c3.115,-1.859 1.087,-1.323 -1.659,-1.323c-9.065,0 -17.359,3.709 -25.26,7.666c3.317,0.516 6.254,-0.267 9.413,-1.458c3.027,-1.142 7.711,-2.407 10.399,-2.823c2.691,-0.404 5.885,-1.345 7.107,-2.062Zm236.253,-5.276c-2.542,-0.092 -5.927,-0.204 -10.42,-0.362c-9.504,-0.312 -23.455,-2.958 -32.22,2.992c-0.066,0.046 -0.135,0.081 -0.2,0.124c4.997,0.327 9.805,2.019 3.979,7.554c-2.691,2.567 -2.691,2.567 -3.925,5.683c-0.278,0.683 -0.706,1.354 -1.199,1.928c2.286,-0.046 4.561,-0.471 6.724,-1.369c7.061,-2.946 5.807,-6.096 14.445,-3.922c7.488,1.894 7.835,1.882 10.715,-0.436c0.313,-0.246 0.683,-0.516 1.096,-0.774c0.562,-1.793 -0.155,-1.882 -4.168,-2.029c-3.104,-0.111 -18.525,-0.011 -18.12,-4.102c0.112,-1.13 0.706,-2.083 1.334,-2.117c1.13,-0.058 1.13,-0.058 7.215,1.793c3.351,1.018 8.595,1.658 11.656,1.411c5.256,-0.424 5.557,-0.447 5.973,3.027c0.764,-0.324 1.512,-0.605 2.175,-0.795c4.18,-1.19 4.18,-1.19 8.63,-3.015c0.694,-0.281 7.384,-3.755 4.57,-5.043c-0.503,-0.236 -0.626,-0.293 -8.26,-0.548Zm-235.513,-2.074c1.064,-0.181 2.43,0.235 3.606,-0.382c2.479,-1.288 6.859,-1.457 12.62,-0.628c5.772,0.817 13.403,0.327 20.271,2.321c1.727,0.504 4.697,2.082 7.342,3.732c3.945,0.301 6.139,-0.158 8.291,-1.604c9.427,-6.366 31.279,-1.03 41.174,2.499c5.189,1.862 16.037,2.221 20.486,2.591c4.639,0.39 16.026,1.119 20.002,2.53c5.525,-2.522 10.827,-4.929 16.418,-6.297c-3.62,-0.93 -7.8,-1.647 -12.135,-2.106c-0.562,-0.304 -1.076,-0.582 -1.538,-0.82c-1.859,-1.007 -5.826,-2.318 -8.795,-2.912c-0.752,-0.158 -1.501,-0.293 -2.23,-0.393l-3.643,0c-1.4,0 -3.552,0.169 -5.896,0.539c-3.058,0.29 -5.915,0.996 -8.313,2.318c-0.023,0.012 -0.046,0.023 -0.058,0.034c-0.367,0.178 -0.717,0.359 -1.053,0.548c-0.525,0.236 -0.984,0.393 -1.523,0.451c-4.349,-1.661 -9.829,-2.264 -12.328,-2.298c-6.386,-0.101 -12.585,-1.11 -18.759,-2.657c-6.151,-1.535 -11.576,-1.388 -17.024,1.469c-0.132,-0.315 -0.166,-0.685 -0.1,-1.11c-0.267,-0.158 -0.448,-0.393 -0.525,-0.694c-0.112,-0.471 -0.158,-0.898 -0.135,-1.277c-2.264,-1.01 -4.438,-2.309 -6.636,-3.62c-7.473,-4.496 -17.256,-6.031 -26.109,-4.092c0.054,-0.157 -5.572,0.752 -5.526,0.583c0.213,-0.729 -0.381,-1.546 0.336,-2.499c-0.637,-0.324 -1.334,-0.683 -1.951,-1.087c0.215,3.227 1.896,6.77 2.68,8.259c0.034,0.078 0.089,0.147 0.146,0.235c-0.359,0.517 -0.674,1.099 -0.875,1.693c-0.224,0.64 -0.37,1.176 -0.459,1.635c-3.273,-1.781 -5.503,-7.484 -6.243,-14.109c0,-0.031 -0.817,-2.128 -0.043,-2.8c2.106,-1.827 4.045,-3.543 5.758,-5.301c-1.443,-0.413 -3.27,-0.964 -5.603,-1.659c-9.524,-2.857 -15.655,-5.344 -14.445,-16.059l0.764,-6.745c0.76,4.874 0.37,13.022 5.356,15.509c3.193,1.604 3.193,1.604 5.58,2.152c2.41,0.548 8.113,1.534 11.24,3.609c0.169,-0.17 0.37,-0.293 0.605,-0.336c5.873,-1.268 9.054,5.568 12.239,-3.767c2.117,-6.22 3.44,-14.568 3.528,-14.938c1.805,-7.743 5.09,-26.325 -5.422,-35.502c-2.174,-1.893 -7.341,-5.549 -13.021,-7.608c-9.717,-3.532 -23.614,-4.797 -29.834,5.298c-2.499,4.048 -3.362,9.918 -3.764,14.58c-0.215,2.41 -1.469,8.105 -0.809,10.592c0.697,2.576 2.31,4.257 3.015,6.119c2.792,7.385 1.547,11.731 -1.434,18.355c-0.863,1.782 -2.229,8.024 -5.299,11.341c-5.178,5.582 -9.639,3.374 -14.938,10.029c-1.122,1.403 -1.985,2.826 -2.714,4.28c7.677,-2.24 16.003,-2.317 22.908,0.405c4.57,1.793 4.57,1.793 11.24,6.871l3.575,2.723Zm49.743,193.748c0,-3.968 -1.041,-11.633 -2.307,-17.035c-1.514,-6.444 -2.108,-12.012 -1.738,-16.192c0.427,-4.651 1.403,-15.836 -4.292,-17.908c-2.129,-0.774 -3.07,-2.14 -3.552,-5.201c-0.324,-2.005 -0.863,-3.104 -1.48,-3.563c6.076,-7.341 5.726,-26.56 5.795,-33.844c0.035,-4.952 6.062,-8.977 7.677,-23.028c6.756,-9.459 0.964,-19.511 1.108,-19.658c0.112,-0.112 -0.841,-6.262 -1.647,-11.306c0.47,-0.751 0.852,-1.604 1.145,-2.533c5.892,3.767 14.421,1.581 19.195,1.581c10.164,0 18.929,-2.321 28.531,-6.019c6.4,-2.465 25.226,-2.252 36.67,-4.797c9.154,1.446 19.25,-0.694 26.603,-6.521c1.603,-1.265 4.963,-1.882 10.15,-1.882c4.607,0 9.237,-0.774 11.444,-1.896c7.476,2.41 16.777,-0.514 22.985,-4.582c0.729,-0.482 3.038,-0.427 5.121,0.147c4.504,1.21 13.549,1.993 16.484,-2.557c1.122,-1.747 4.025,-3.293 8.125,-4.36c5.178,-1.331 12.385,-3.417 11.914,-9.926c-0.292,-3.936 -0.292,-3.936 -13.168,-3.936c-7.083,0 -17.201,-0.537 -22.48,-1.2c-9.594,-1.187 -9.628,-1.187 -18.625,3.05c-7.823,3.686 -8.853,4.168 -11.733,4.931c-5.48,0.414 -8.954,0.078 -14.729,-1.121c-2.685,-0.56 -5.242,-0.806 -7.706,-0.783c-2.134,-0.563 -4.191,-1.188 -5.953,-1.805c-3.899,-1.403 -9.458,-2.679 -15.409,-3.486c-0.312,-0.235 -0.593,-0.427 -0.783,-0.559c-6.019,-4.025 -17.313,-3.609 -24.196,-2.826c-3.609,0.416 -6.532,1.165 -7.574,1.939c-1.626,1.2 -1.95,1.2 -6.936,0.046c-2.881,-0.674 -6.513,-1.064 -8.07,-0.875c-3.374,0.425 -6.41,-0.671 -9.313,-2.275c-2.197,-1.21 -2.197,-1.21 -4.986,-1.781c-4.685,-0.953 -9.582,-0.628 -14.29,0.158c-0.995,0.166 -2.094,0.401 -3.046,0.783l-0.675,-0.571c-6.42,-5.391 -6.42,-5.391 -10.893,-7.419c-6.644,-3.004 -14.791,-3.374 -22.457,-1.615c-0.829,0.224 -1.558,0.427 -2.195,0.64c-1.044,-1.2 -3.227,-2.734 -5.089,-3.182c0.146,-0.215 0.292,-0.404 0.45,-0.585c0.795,-0.907 2.184,-1.67 3.698,-3.472c0.066,-0.08 0.614,-0.986 0.717,-0.986c4.694,-0.193 3.383,3.127 9.514,-0.201c13.862,-7.554 10.21,-48.177 9.278,-52.202c-0.672,-2.912 -1.636,-6.96 -3.429,-9.401c-0.146,-0.192 -5.098,-4.742 -9.447,-7.419c-11.117,-6.848 -37.72,-10.365 -45.173,8.46c-2.711,6.837 -3.821,14.637 -2.869,24.274c0.405,4.091 4.585,11.194 3.328,14.525c-2.14,5.657 -3.394,8.012 -5.198,13.288c-2.545,7.442 -16.643,11.691 -21.439,19.735c-0.571,0.964 -2.175,3.801 -3.563,7.049c-6.567,3.778 -11.734,9.301 -13.662,16.002c-0.189,0.652 -0.347,1.234 -0.482,1.75c-1.612,2.993 -1.434,8.607 -0.729,12.001l-0.011,0.011c-0.459,0.482 -2.005,8.911 -1.701,11.745c-0.17,4.281 0.37,8.472 2.071,12.563c0.1,0.27 0.247,0.528 0.404,0.775c0.124,5.58 0.875,11.329 2.298,16.843c0.325,2.295 0.973,4.469 2.164,6.833c0.559,1.469 1.176,2.904 1.836,4.295c2.062,4.312 4.65,10.913 5.772,14.68c0.886,3.004 1.377,4.694 1.411,5.669c2.769,8.102 3.54,16.699 4.852,25.125c0.238,1.501 0.616,3.675 1.345,5.761c-0.336,0.964 -0.818,1.747 -1.512,2.298c0.393,1.087 0.806,2.183 1.176,3.293c-1.847,3.564 -3.563,9.212 -4.931,13.369c-2.106,1.928 -3.741,3.79 -3.956,4.238c-7.609,16.16 -14.287,33.597 -11.037,51.427c0.514,2.823 2.576,10.041 4.358,13.481c-0.39,3.609 -0.74,8.517 -0.984,14.198c-0.238,5.344 -0.405,9.3 -0.528,12.281c-0.034,0.112 -0.077,0.235 -0.112,0.359c-1.099,3.44 -1.299,6.265 -0.795,8.552c-0.685,0.37 -1.199,0.952 -1.425,1.77c-0.761,2.688 2.869,4.349 6.389,4.739c0.447,4.438 1.658,11.152 2.309,17.047c1.354,12.224 1.165,14.993 -1.782,25.963c-0.347,1.257 -0.662,2.511 -0.952,3.721c-0.775,0.64 -1.538,1.739 -2.12,3.274c-1.053,2.711 -6.062,15.431 -8.148,19.264c-6.69,12.247 -15.867,34.639 -5.063,46.562c0.671,0.74 1.03,6.188 2.688,16.731c1.076,6.882 2.22,18.358 2.533,25.484c0.304,6.925 0.976,13.762 1.503,15.497c-0.774,2.209 -2.343,6.177 -2.332,6.277c-3.764,6.243 -7.709,20.318 -6.108,26.179c1.962,7.218 12.609,8.406 18.625,9.154c9.539,1.188 9.539,1.188 13.113,3.575c3.552,2.367 10.354,4.025 17.807,4.785c1.053,0.439 2.017,0.752 2.778,0.864c1.179,0.157 3.238,-0.023 5.614,-0.391c1.414,0.009 2.814,0 4.191,-0.057c8.81,-0.011 17.954,-1.681 22.897,-7.99c4.492,-5.726 0.424,-8.618 -3.429,-13.561c-2.398,-3.069 -10.916,-8.629 -15.219,-5.892c-4.157,-2.68 -10.735,-8.418 -16.071,-14.155c-5.368,-5.761 -11.834,-12.732 -15.004,-16.955c-0.325,-4.516 -1.022,-11.083 -1.234,-18.705c-0.413,-14.68 -0.178,-16.786 2.611,-23.769c2.498,-6.242 3.273,-11.283 4.202,-27.153c0.571,-9.849 2.298,-18.691 2.264,-21.942c4.751,-3.127 12.25,-10.591 13.157,-11.71c12.373,-15.131 10.959,-32.12 15.262,-50.429c0.123,-0.528 0.247,-1.064 0.359,-1.615c0.022,1.905 0.37,4.708 0.774,6.937c1.793,9.883 1.793,9.883 2.421,20.274c0.247,4.168 0.505,6.779 0.864,8.314c-1.01,1.77 -2.04,3.686 -4.742,8.684c-6.12,11.32 -8.395,23.175 -4.381,35.39c2.599,7.89 2.341,15.948 1.905,24.173c-0.37,6.914 0.077,16.574 1.064,23.221c0.617,4.111 0.224,9.817 -0.246,14.479c-1.636,2.946 -3.262,5.669 -3.833,6.845c-1.636,3.385 -3.116,16.307 -4.203,19.109c-1.457,3.741 -1.681,7.675 -0.135,11.318c1.739,3.563 18.559,4.616 23.614,3.317c3.732,-0.964 12.998,1.032 16.45,2.521c1.535,0.672 3.204,1.311 4.954,1.859c4.909,3.285 9.143,4.966 14.858,2.634c1.179,-0.482 1.704,0.482 3.027,0.964c2.891,1.064 6.69,0.898 12.273,-0.964c5.703,-3.899 8.56,-5.861 6.587,-9.918c-0.267,-0.335 -1.096,-2.229 -1.188,-2.777c-0.626,-3.698 -2.419,-3.721 -5.468,-5.583c-2.129,-1.299 -4.438,-1.87 -6.926,-2.163c-1.164,-1.064 -2.329,-2.106 -3.54,-3.115c-1.827,-1.555 -4.607,-4.123 -6.882,-5.11c-1.724,-0.749 -3.328,-2.005 -4.84,-3.069c-2.51,-1.748 -7.118,-6.513 -9.482,-8.518c-2.286,-1.939 -5.502,-4.562 -7.789,-6.544c-0.593,-3.015 -1.477,-9.278 1.053,-21.046c1.862,-8.618 2.029,-18.154 3.027,-23.768c0.448,-1.334 0.907,-2.646 1.4,-3.934c2.109,-5.559 2.668,-10.411 2.981,-25.831c0.192,-9.459 0.393,-17.661 0.18,-22.457c9.235,-12.351 8.079,-35.425 11.387,-48.851c1.018,-4.157 2.912,-9.221 2.857,-12.213c1.243,-0.327 2.163,-0.952 2.33,-2.051c-0.324,-1.782 2.017,-4.496 -0.066,-4.639c0.717,-2.634 0.995,-9.146 0.995,-21.485c0,-15.185 -0.289,-21.135 -1.758,-26.256c0.212,-1.064 0.324,-2.398 0.324,-3.956Zm-48.702,-220.397c-0.324,-0.786 -4.002,-7.766 -3.698,-3.34c0.055,0.861 1.581,5.985 3.374,11.375c3.259,9.806 3.259,9.806 4.323,13.57c2.422,8.552 0.898,-5.68 0.27,-8.079c-2.298,-8.618 -2.298,-8.618 -4.269,-13.526Z"/><path d="M721.182,461.594c0.493,-0.594 0.941,-1.053 1.334,-1.311c0.258,-1.108 0.559,-2.049 0.706,-2.33c1.715,-3.262 1.715,-3.262 7.889,-9.154c7.6,-7.264 12.563,-26.113 -0.169,-30.832c-4.18,-1.546 -22.458,-6.174 -22.366,-7.855c-1.538,0.571 -3.216,1.604 -5.201,3.182c-8.707,6.928 -17.145,9.627 -23.511,19.78c-5.806,9.235 -8.853,19.118 -8.159,30.235c0.023,0.304 0.058,0.629 0.112,0.976c0.775,-0.089 1.636,-0.304 2.399,-0.594c5.491,-9.694 14.31,-18.625 20.822,-23.275c3.551,-2.545 8.19,-6.254 10.311,-8.228c4.2,-3.933 8.055,-2.16 4.415,3.049c-1.446,2.063 -5.907,5.862 -9.906,8.438c-6.972,4.507 -14.336,11.263 -19.176,19.129c0.27,0.327 0.459,0.775 0.559,1.369c0.193,1.121 -1.018,2.028 -2.756,2.633c-2.419,5.055 -3.698,10.455 -3.159,15.925c0.313,3.305 -0.224,8.527 -1.199,11.619c-0.918,2.881 -2.152,4.461 -3.127,4.674c-1.288,4.673 -4.863,15.185 -8.55,25.048c-6.334,16.955 -7.43,19.689 -9.045,19.689c-0.1,0.571 -0.235,1.121 -0.413,1.615c-0.069,0.189 -0.181,0.367 -0.316,0.513c-0.312,1.782 -1.03,4.573 -2.275,8.607c-4.369,14.02 -8.885,20.575 8.36,22.457c5.861,0.629 12.462,2.602 19.299,4.562c1.759,1.064 3.991,1.77 5.48,2.791c1.288,0.884 3.327,1.366 5.356,1.346c1.928,3.787 6.948,3.988 10.634,2.194c4.046,1.076 9.671,0.416 13.303,-1.4c0.371,-0.18 0.741,-0.436 1.076,-0.751c1.211,-0.201 2.287,-0.76 2.757,-2.051c0.425,-1.188 2.488,-1.22 3.518,-1.659c1.815,-0.783 2.972,-3.104 1.907,-4.928c-0.886,-1.515 -2.814,-2.534 -4.283,-3.42c-1.331,-0.795 -2.51,-1.523 -3.64,-2.611c-1.257,-1.199 -2.187,-1.882 -3.868,-2.286c-1.153,-0.281 -2.633,-0.359 -4.134,-0.201c-1.299,-2.241 -3.173,-4.639 -5.267,-5.784c-0.416,-0.235 -0.886,-0.401 -1.369,-0.525c-0.817,-0.998 -1.6,-1.939 -2.286,-2.86c-2.788,-3.764 -13.022,-9.949 -13.446,-9.972c-0.829,-0.964 -4.863,-6.007 -5.93,-7.218c-0.267,-0.313 -0.525,-0.694 -0.795,-1.153c-0.066,-0.012 -0.146,-0.035 -0.212,-0.058c-1.042,-0.358 -1.412,-1.064 -1.088,-2.788c-0.011,-0.035 -0.023,-0.058 -0.034,-0.081c0.327,-1.265 0.651,-2.622 0.952,-4.045c0.081,-0.347 0.147,-0.694 0.216,-1.018c0.1,0.135 0.201,0.27 0.312,0.402c3.317,-9.425 7.419,-21.594 15.578,-27.668c2.476,-1.839 6.587,-6.4 9.12,-10.118c2.534,-3.721 7.89,-13.561 11.903,-21.855c0.382,-0.806 4.516,-8.75 7.362,-12.204Zm51.034,10.399c0.247,-0.447 0.493,-0.895 0.752,-1.354c2.398,-4.415 4.091,-7.43 5.356,-9.424c-0.27,-0.08 -0.471,-0.204 -0.628,-0.359c0.628,-0.774 1.21,-1.827 1.615,-3.038c0.829,-2.433 2.206,-4.604 3.092,-4.84c1.547,-0.427 2.568,-2.444 3.193,-4.796c0.135,-0.192 0.27,-0.382 0.405,-0.574c-0.089,-0.055 -0.158,-0.112 -0.212,-0.178c0.312,-1.434 0.502,-2.926 0.593,-4.226l0,-0.011c0.964,-2.04 2.376,-4.057 2.746,-4.458c5.333,-5.784 7.866,-13.473 9.077,-21.104c2.318,-14.579 -19.781,-18.578 -30.258,-18.578c-0.427,0 -4.461,0 -7.878,-0.471c-0.528,0.224 -1.041,0.347 -1.503,0.324c-0.941,0.772 -2.04,1.592 -3.216,2.387c-4.817,3.228 -15.262,8.641 -18.914,14.838c10.488,7.832 8.268,21.663 1.566,33.023c1.391,-0.648 5.224,-2.352 7.689,-2.464c3.161,-3.575 6.948,-6.725 11.228,-9.513c7.712,-5.021 7.712,-5.021 12.115,-7.677c1.905,-1.133 8.36,-3.71 6.444,1.222c-0.482,1.242 -4.831,4.662 -9.648,7.585c-13.492,8.225 -21.393,14.379 -23.803,30.336c-0.752,4.988 -2.152,8.833 -4.338,11.968c-3.239,4.619 -3.239,4.619 -12.674,22.593c-7.709,14.714 -9.737,17.887 -11.14,17.405c-0.19,2.88 -0.537,5.904 -0.918,6.59c-0.146,0.255 -0.293,0.525 -0.425,0.794c-2.456,3.228 -3.342,7.362 -4.102,11.152c-0.258,1.265 -0.528,2.711 -0.617,4.157c-0.235,0.559 -0.416,1.075 -0.505,1.411c-1.107,3.91 -0.806,7.049 2.834,9.571c3.409,2.364 7.89,1.781 11.837,1.781c2.284,0 4.347,-0.559 6.364,-1.242c2.151,0.313 8.328,0.235 18.053,4.022c1.076,2.252 3.675,4.203 6.231,4.662c2.691,0.482 6.602,0.875 9.413,-0.181c0.258,0.135 0.516,0.27 0.786,0.37c4.011,1.492 10.443,2.634 13.234,-0.975c0.147,-0.201 2.006,-1.635 2.117,-1.813c1.246,-1.076 1.963,-2.757 2.109,-3.991c0.135,-1.187 -1.997,-2.734 -2.768,-3.878c-2.221,-3.282 -6.814,-2.488 -7.554,-2.195c-0.671,-0.729 -1.357,-1.369 -1.939,-1.916c-0.818,-0.741 -1.693,-1.446 -2.6,-2.118c-2.891,-2.59 -6.813,-5.594 -9.906,-8.136c-2.309,-1.916 -4.438,-4.426 -7.396,-5.413c-1.704,-0.571 -3.138,-1.693 -4.561,-2.7c-0.74,-0.528 -1.693,-1.099 -2.275,-1.368c-0.023,-0.023 -0.023,-0.058 -0.035,-0.066c-0.594,-1.65 -1.354,-3.173 -2.163,-4.685c-0.525,0.76 -1.03,1.466 -1.5,2.128c0.077,-0.639 0.169,-1.368 0.281,-2.209c0.066,-0.625 0.132,-1.23 0.178,-1.804c-0.147,-0.255 -0.29,-0.514 -0.425,-0.772c-0.192,-0.335 -0.393,-0.683 -0.582,-1.03c-0.227,-0.427 -0.505,-0.786 -0.841,-1.11c0.324,-0.806 1.065,-1.176 1.848,-0.806c-0.066,-0.864 -0.201,-1.627 -0.405,-2.31c0.775,-1.041 1.558,-2.085 2.367,-3.115c5.009,-7.889 10.893,-15.409 17.592,-20.834c0.729,-0.582 1.414,-1.087 2.028,-1.512c4.585,-6.041 8.822,-12.327 12.586,-19.075Zm3.598,2.198c4.28,-7.508 6.667,-11.946 7.731,-14.522c4.719,-3.116 8.618,-10.033 9.909,-14.514c0.436,-1.535 0.583,-2.745 0.514,-3.663c0.347,-0.216 0.694,-0.405 1.044,-0.563c9.436,-4.203 12.594,-26.436 7.878,-34.492c-3.721,-6.377 -11.252,-7.476 -17.282,-10.781c-3.675,-2.017 -13.693,-3.486 -21.235,-2.969c0.177,-3.899 -6.289,-0.953 -10.647,-1.759c-4.438,-0.829 -18.782,-0.293 -30.94,3.305c0.123,-0.517 0.301,-1.133 0.605,-1.939c9.355,-6.321 13.168,-13.897 13.458,-15.487c0.436,-2.478 3.563,-1.873 7.507,-8.293c3.308,-5.391 2.387,-8.048 3.443,-12.205c8.503,-3.216 4.582,-12.347 7.408,-13.762c1.176,-0.593 4.076,-2.295 6.05,-8.448c1.11,-3.956 0.404,-6.254 0.212,-9.224c3.216,0.181 6.412,0.281 7.385,-0.054c5.884,5.009 15.319,2.499 20.44,2.499c10.165,0 18.929,-2.333 28.534,-6.031c6.398,-2.453 25.226,-2.252 36.655,-4.796c9.166,1.445 19.265,-0.683 26.615,-6.521c1.592,-1.257 4.966,-1.882 10.144,-1.882c4.616,0 9.243,-0.775 11.453,-1.885c7.473,2.41 16.774,-0.514 22.973,-4.582c0.738,-0.493 3.047,-0.427 5.121,0.135c4.516,1.219 13.558,1.994 16.496,-2.545c1.119,-1.747 4.022,-3.305 8.125,-4.36c5.164,-1.334 12.382,-3.417 11.911,-9.941c-0.292,-3.933 -0.292,-3.933 -13.168,-3.933c-7.083,0 -17.201,-0.537 -22.492,-1.188c-9.579,-1.199 -9.613,-1.188 -18.613,3.038c-7.823,3.687 -8.853,4.169 -11.733,4.943c-5.48,0.413 -8.954,0.078 -14.726,-1.121c-2.688,-0.56 -5.245,-0.807 -7.709,-0.784c-2.128,-0.573 -4.191,-1.19 -5.95,-1.816c-3.901,-1.391 -9.458,-2.679 -15.408,-3.485c-0.316,-0.224 -0.606,-0.428 -0.787,-0.551c-6.018,-4.022 -17.313,-3.606 -24.193,-2.823c-3.62,0.416 -6.535,1.153 -7.576,1.939c-1.624,1.188 -1.951,1.2 -6.937,0.035c-2.881,-0.674 -6.512,-1.065 -8.079,-0.875c-3.362,0.424 -6.4,-0.672 -9.304,-2.275c-2.194,-1.199 -2.194,-1.199 -4.986,-1.77c-4.696,-0.964 -9.582,-0.64 -14.287,0.155c-0.998,0.169 -2.097,0.393 -3.049,0.786l-0.683,-0.571c-6.412,-5.391 -6.412,-5.391 -10.882,-7.419c-6.655,-3.015 -14.803,-3.374 -22.468,-1.615c-0.818,0.212 -1.547,0.427 -2.187,0.639c-1.041,-1.199 -3.227,-2.745 -5.097,-3.193c0.146,-0.203 0.301,-0.393 0.458,-0.573c0.795,-0.907 2.187,-1.67 3.698,-3.483c0.066,-0.08 0.617,-0.976 0.706,-0.976c4.708,-0.203 3.397,3.127 9.516,-0.215c13.871,-7.539 10.219,-48.165 9.29,-52.187c-0.683,-2.924 -1.639,-6.96 -3.432,-9.401c-0.143,-0.204 -5.109,-4.743 -9.455,-7.431c-11.109,-6.836 -37.712,-10.365 -45.165,8.461c-2.711,6.847 -3.821,14.648 -2.869,24.273c0.405,4.102 4.585,11.206 3.331,14.534c-2.143,5.66 -3.397,8.001 -5.201,13.291c-2.545,7.442 -16.643,11.679 -21.439,19.723c-0.571,0.964 -2.172,3.799 -3.563,7.049c-6.567,3.778 -11.734,9.313 -13.662,16.014c-4.045,14.086 4.26,-2.275 7.017,-5.637c9.717,-11.854 28.543,-13.524 41.352,-6.656c2.645,1.412 5.256,2.803 8.013,3.71l-0.012,0.011c-0.906,0.74 0.571,1.389 5.838,1.133c8.137,-0.404 24.61,1.366 36.097,3.945c0.829,0.301 1.95,0.594 3.304,0.795c1.917,0.504 3.621,1.03 5.021,1.569c4.191,1.612 3.554,0.513 1.179,-1.28c2.88,-0.112 5.792,-0.482 7.608,-1.03c11.441,-3.451 35.043,4.966 46.766,5.021c14.981,0.069 21.424,1.85 25.65,2.476c-1.736,0.74 -3.517,1.469 -5.345,2.151c8.102,1.616 17.191,-3.012 24.475,-6.05c5.671,-2.364 10.187,-2.152 14.872,-1.48c9.077,2.848 20.271,4.507 28.284,0.685c-0.471,-0.123 -0.93,-0.235 -1.4,-0.347c3.07,-0.404 6.139,-0.886 9.212,-1.357l-2.992,2.376c-2.981,2.387 -2.981,2.387 -4.774,5.502c-4.114,7.161 -19.399,6.937 -26.382,6.837c-2.229,-0.035 -5.904,1.13 -8.156,2.587c-7.712,4.978 -17.047,5.815 -25.338,1.994c-6.771,-3.104 -10.939,0.91 -4.237,4.519c-2.557,0.482 -5.816,1.007 -9.537,1.199c-12.416,0.594 -18.647,0.941 -26.829,4.65c-11.599,5.244 -25.18,4.639 -38.394,1.242c0.752,-0.906 -4.828,-1.096 -9.637,-1.107c-1.311,-4.036 -4.515,-5.359 -4.337,0.032c-1.231,0.011 -2.06,0.034 -2.206,0.034c-2.703,0 -0.976,-1.759 -10.412,0.258c-14.86,3.193 -29.586,3.764 -43.514,-4.033c-3.529,-1.986 -9.471,-2.029 -10.581,-2.029c-1.188,0 -2.318,0.066 -3.417,0.201c0.594,-1.277 0.784,-2.633 0.405,-4.056c-1.558,-5.684 -7.453,2.005 -9.37,3.832c-5.456,5.21 -10.927,7.104 -18.266,7.104c-6.544,0 8.337,3.115 11.24,2.78c2.611,-0.302 7.62,-2.075 11.453,-4.763c1.234,-0.077 2.476,-0.157 3.721,-0.246c-0.069,0.169 -0.124,0.335 -0.181,0.516c-3.239,10.064 -14.78,18.266 -24.552,21.37c-10.445,3.339 -13.48,20.329 -16.542,29.529c-3.261,9.76 7.419,-9.874 8.395,-12.597c3.216,-8.988 3.652,-9.436 11.969,-12.147c12.562,-4.091 22.738,-11.71 24.104,-25.203c0.069,-0.639 0.1,-1.21 0.123,-1.727c3.474,-0.301 5.784,-0.605 7.218,-1.007c0.729,2.542 3.116,7.609 5.85,13.435c6.79,14.445 7.083,14.804 11.745,14.468c10.13,-0.752 -4.191,-14.287 -6.782,-17.595c-2.071,-2.645 -3.71,-4.728 -4.998,-6.351c12.316,6.196 29.598,8.225 42.787,3.921c3.408,-1.11 6.297,-0.886 9.189,-0.886c0.47,0 1.445,0.069 2.69,0.146c-0.458,10.199 -4.785,15.116 -7.083,15.802c0.54,4.885 -1.893,10.319 -4.337,12.236c-1.489,1.176 -2.095,2.409 -2.419,4.954c-0.628,4.874 -2.814,12.898 -8.125,14.849c-0.022,0.012 -0.057,0.012 -0.08,0.02c-0.571,0.933 -3.62,7.253 -4.426,8.306c-2.465,3.193 -6.051,5.872 -10.096,6.32c-0.829,0.582 -1.727,5.144 -2.602,5.726c-0.089,1.334 -0.849,2.757 -1.793,4.091c-1.254,0.571 -5.962,3.956 -8.615,6.197c-2.591,-1.94 -7.901,0.258 -10.615,0.694c-4.986,0.809 -10.061,1.345 -15.151,1.492c0.428,-0.416 0.158,-0.864 -0.516,-1.288c-7.227,0.513 -15.34,-4.037 -20.707,-8.329c-0.339,-0.258 -0.852,-0.605 -1.435,-0.995c-1.514,-0.663 -3.732,-1.67 -7.295,-3.296c-5.19,-2.364 -11.656,-4.493 -14.356,-4.74c-12.373,-1.121 11.699,9.112 13.917,10.388c0.146,0.089 0.281,0.17 0.427,0.247c-5.155,0.247 -10.276,0.763 -15.443,1.736c-5.761,1.087 -10.311,2.579 -10.13,3.308c0.224,0.852 8.036,0.863 22.111,0.043c4.727,-0.279 9.289,-0.614 13.156,-0.964c0.694,0.427 1.389,0.875 2.083,1.322c0.987,0.64 2.175,1.234 3.474,1.75c-5.603,-0.817 -12.247,1.412 -18.355,5.11l-0.011,0c-6.097,-5.537 -19.377,3.921 -25.384,6.409c5.29,0.763 10.041,0.046 15.196,-1.636c2.577,-0.84 4.372,-1.388 5.638,-1.681c-5.437,4.114 -10.053,9.178 -12.506,13.863c-6.882,13.09 9.221,-6.992 11.789,-9.144c1.445,-1.222 2.969,-2.252 4.561,-3.138c1.142,0.536 2.869,0.27 2.699,-1.334c13.797,-6.007 31.515,-2.264 45.613,-3.609c0.424,-0.032 0.829,-0.078 1.219,-0.112l-0.012,0c-3.058,2.117 -5.692,4.326 -7.137,5.437c-7.284,5.545 -7.284,5.545 -7.15,5.422c0.124,-0.135 0.124,-0.135 -2.51,2.344c-8.113,7.619 -11.992,22.893 -13.145,33.674c-1.245,11.51 -1.245,11.51 -1.411,11.656c-6.714,5.646 -28.095,11.978 -36.085,9.201c-1.985,-0.686 -7.341,-1.885 -10.03,-0.405c0.067,-2.834 -2.263,-8.517 -5.066,-12.138c-4.954,-6.397 -8.876,-14.209 -9.39,-22.546c-0.662,-10.69 3.853,-31.546 13.693,-37.307c1.389,-0.817 2.565,-1.793 3.294,-2.668c1.322,-0.189 2.745,-1.512 3.385,-3.965c0.694,-2.645 2.657,-6.825 4.361,-9.301c2.094,-3.038 1.477,-4.943 -0.181,-5.313c1.647,-0.292 4.034,-1.747 5.884,-4.38c6.745,-9.628 14.927,-27.794 15.139,-40.468c0.169,-9.918 4.685,-22.053 9.548,-30.224c4.527,-7.608 4.527,-7.608 1.715,-8.102c-9.054,-1.592 -13.156,18.614 -14.097,24.922c-2.341,15.69 -7.643,29.495 -12.844,44.178c-1.154,3.282 -3.36,7.307 -4.886,8.942c-2.811,3.035 -2.834,4.728 -1.624,5.109c-0.998,0.135 -2.163,0.663 -3.305,1.627c-3.508,2.946 -5.235,7.72 -5.861,12.247c-0.057,0.436 -0.092,0.841 -0.08,1.211c-2.441,0.212 -5.391,1.489 -6.498,1.905c-7.623,2.857 -7.778,15.219 -9.929,22.368c-5.614,18.714 -4.091,37.339 9.748,51.528c2.803,2.88 4.628,4.056 5.715,4.111c0.416,1.099 4.014,2.12 8.294,3.331c12.058,3.405 23.992,2.14 35.244,-3.925c2.14,-1.142 5.58,-1.882 7.642,-1.612c0.012,0 0.023,0 0.035,0c-0.56,3.158 -0.505,6.242 0.336,9.123c0.292,0.952 0.37,2.811 0.246,4.84c-1.434,-0.414 -2.005,1.176 -5.098,11.398c-2.028,6.667 -5.996,17.48 -8.81,24.038c-1.77,4.111 -3.394,8.268 -4.392,11.171c-0.27,0.023 -0.517,0.158 -0.694,0.459c-0.448,0.752 -0.517,1.873 -0.459,2.938c-0.058,0.728 -0.124,1.658 -0.17,2.811c-0.066,1.145 -0.112,2.006 -0.123,2.668c-0.035,0.17 -0.043,0.313 -0.023,0.448c-3.764,6.243 -10.153,22.067 -8.549,27.928c1.971,7.215 12.606,8.392 18.624,9.143c9.537,1.199 9.537,1.199 13.111,3.586c3.555,2.364 10.357,4.023 17.807,4.786c1.056,0.436 2.02,0.751 2.78,0.852c1.176,0.166 3.239,-0.012 5.614,-0.382c1.412,0.012 2.815,-0.011 4.192,-0.066c8.807,0 17.953,-1.681 22.896,-7.981c4.493,-5.726 0.425,-8.618 -3.431,-13.558c-2.398,-3.081 -10.913,-8.641 -15.216,-5.896c-4.16,-2.676 -10.739,-8.426 -16.072,-14.152c-3.798,-4.079 -8.136,-8.753 -11.475,-12.643c1.133,-2.14 2.668,-5.479 4.954,-10.555c6.016,-13.391 7.138,-15.184 12.695,-20.262c4.955,-4.539 7.858,-8.73 15.601,-22.615c4.728,-8.495 8.538,-16.181 9.625,-19.354c0.135,-0.054 0.293,-0.146 0.459,-0.246c2.714,-1.748 5.448,-4.146 7.97,-6.949c0.863,-0.255 1.747,-0.66 2.464,-1.087c0.964,-0.571 3.787,-1.948 6.59,-3.193c-2.264,3.867 -3.888,8.159 -4.763,12.91c-1.491,8.17 -5.56,15.13 -9.883,22.144c-3.632,5.896 -7.858,14.591 -10.153,20.9c-0.987,2.68 -1.692,4.785 -2.163,6.421l0,-0.012c-0.069,-0.706 -0.192,-0.973 -0.393,-0.559c-2.074,4.269 -5.233,9.392 -6.085,11.128c-1.646,3.385 -3.115,16.318 -4.203,19.118c-1.457,3.732 -1.681,7.677 -0.135,11.318c1.739,3.566 18.559,4.607 23.614,3.319c3.73,-0.975 12.999,1.018 16.45,2.522c1.535,0.66 3.205,1.299 4.952,1.859c4.908,3.285 9.146,4.954 14.861,2.622c1.176,-0.482 1.704,0.493 3.026,0.975c2.892,1.053 6.69,0.895 12.27,-0.975c5.704,-3.888 8.564,-5.861 6.59,-9.918c-0.27,-0.335 -1.087,-2.217 -1.188,-2.78c-0.628,-3.698 -2.421,-3.721 -5.468,-5.58c-2.128,-1.299 -4.438,-1.87 -6.925,-2.151c-1.168,-1.065 -2.333,-2.106 -3.543,-3.127c-1.825,-1.547 -4.605,-4.111 -6.88,-5.11c-1.727,-0.751 -3.328,-2.005 -4.842,-3.061c-2.511,-1.747 -4.918,-3.394 -7.786,-4.547c-2.634,-1.076 -5.638,-2.972 -6.332,-5.729c-0.227,-0.918 -0.674,-1.917 -1.211,-2.858c0.918,-1.354 1.917,-2.822 2.981,-4.415c4.92,-7.315 10.466,-14.981 14.017,-19.431c1.033,-0.963 2.074,-1.893 3.104,-2.791c4.519,-3.876 7.33,-7.878 14.985,-21.258Zm-46.069,-61.557c2.172,-4.516 6.61,-8.395 10.667,-10.199c1.222,-0.548 1.222,-0.548 8.07,-4.673c0.964,-0.594 5.568,-3.351 9.143,-4.123c0.215,-1.85 -3.999,1.368 -6.443,0.683c-1.96,-0.548 -31.67,3.778 -43.28,9.717c-0.012,0 -0.012,0 0,0.011c2.826,-0.37 5.313,0.471 6.848,3.451c0.594,1.154 0.84,1.793 0.536,2.095c0.046,0 0.092,0.011 0.135,0.011c4.025,0.215 10.176,1.535 14.324,3.027Zm-51.92,-25.989c3.675,-16.496 -1.165,-20.777 -4.372,-1.323c-2.766,16.8 0.539,18.559 4.372,1.323Zm33.91,-23.095c0.046,-0.169 0.08,-0.315 0.1,-0.461c1.323,1.322 6.423,1.133 11.074,-1.197c2.711,-1.357 2.711,-1.357 5.422,-1.291c0.798,0.023 1.538,-0.066 2.221,-0.224c-0.91,1.524 -1.928,3.061 -3.016,4.215c-3.081,3.293 -11.028,4.716 -13.457,7.361c-1.716,1.874 -4.72,13.851 -6.883,20.341c-1.345,4.013 7.06,-11.264 8.294,-14.399c0.895,-2.287 2.241,-4.272 6.251,-5.942c4.048,-1.681 11.803,-8.537 12.945,-14.287c1.322,-1.658 2.128,-3.89 2.51,-6.196c1.144,-6.86 -2.958,-7.23 -4.562,-0.976c-1.612,6.297 -9.625,4.573 -14.981,7.038c-3.385,1.557 -5.178,2.88 -5.838,3.921c-0.944,-2.51 -7.241,1.974 -8.687,3.139c-6.397,5.198 -17.483,6.039 -24.305,0.987c-6.805,-5.055 -4.272,3.551 0.324,5.379c7.408,2.923 30.023,3.012 32.588,-7.408Zm33.99,-51.002c-3.328,-1.165 -7.755,-2.129 -9.829,-2.129c-3.62,0 -4.751,2.846 -1.099,2.152c1.289,-0.247 4.886,0.381 8.013,1.391c3.061,0.984 5.919,1.747 8.977,0.717l-6.062,-2.131Zm74.108,-8.515l3.486,-2.132c-6.759,0 -13.091,2.232 -19.153,5.078c-6.208,2.904 -13.133,3.753 -19.912,2.958c-3.598,-0.424 -4.172,-0.29 -4.172,1.021c0,1.277 1.223,1.601 8.352,2.241c10.97,0.952 22.064,-3.474 31.399,-9.166Zm-22.996,-5.918l4.349,-1.323l-5.58,-0.425c-7.465,-0.562 -15.176,0.784 -19.792,6.88c-1.848,2.421 -2.97,3.127 -5.033,3.127c-3.609,0 -3.474,3.641 0.583,2.923c3.678,-0.648 5.984,-1.689 7.869,-4.905c3.595,-6.131 11.43,-4.407 17.604,-6.277Zm-48.536,-0.606c-4.022,-1.5 -8.403,-2.206 -12.517,-0.76c-2.197,0.772 -2.074,1.5 -1.041,2.117c-0.158,0.494 -0.258,1.065 -0.293,1.713c-0.258,4.461 -3.373,6.354 -7.688,6.613c-4.774,0.281 -0.66,3.632 2.567,3.069c4.975,-0.849 9.201,-4.839 8.607,-10.276c1.153,0.281 2.229,0.462 2.691,0.505c5.098,0.493 10.712,1.862 14.399,5.637c1.018,1.042 8.495,4.134 7.508,2.074c-2.264,-4.696 -9.514,-8.922 -14.233,-10.692Zm-29.394,-7.912c3.115,-1.859 1.087,-1.323 -1.658,-1.323c-9.066,0 -17.36,3.721 -25.261,7.666c3.32,0.516 6.243,-0.27 9.405,-1.457c3.035,-1.131 7.72,-2.407 10.411,-2.812c2.688,-0.416 5.881,-1.345 7.103,-2.074Zm236.256,-5.279c-2.545,-0.089 -5.93,-0.201 -10.422,-0.347c-9.513,-0.313 -23.456,-2.958 -32.229,2.992c-0.058,0.035 -0.123,0.081 -0.192,0.124c4.997,0.327 9.805,2.017 3.979,7.553c-2.691,2.557 -2.691,2.557 -3.922,5.672c-0.281,0.694 -0.706,1.366 -1.199,1.937c2.286,-0.043 4.561,-0.48 6.713,-1.366c7.069,-2.958 5.815,-6.096 14.456,-3.922c7.485,1.894 7.832,1.871 10.712,-0.439c0.313,-0.255 0.683,-0.513 1.099,-0.783c0.548,-1.793 -0.169,-1.882 -4.168,-2.028c-3.116,-0.112 -18.524,0 -18.134,-4.103c0.112,-1.13 0.717,-2.071 1.345,-2.117c1.133,-0.046 1.133,-0.046 7.218,1.793c3.34,1.03 8.584,1.658 11.654,1.412c5.255,-0.413 5.548,-0.448 5.961,3.026c0.775,-0.324 1.515,-0.605 2.186,-0.786c4.18,-1.199 4.18,-1.199 8.63,-3.012c0.694,-0.281 7.373,-3.767 4.573,-5.055c-0.505,-0.224 -0.629,-0.281 -8.26,-0.551Zm-190.902,3.027c3.462,0.192 5.514,-0.301 7.519,-1.647c9.424,-6.366 31.276,-1.03 41.171,2.499c5.19,1.85 16.025,2.218 20.486,2.588c4.639,0.381 16.014,1.11 20.005,2.521c5.514,-2.521 10.824,-4.92 16.416,-6.285c-3.618,-0.93 -7.809,-1.647 -12.147,-2.118c-0.548,-0.304 -1.064,-0.573 -1.524,-0.82c-1.861,-1.007 -5.826,-2.307 -8.81,-2.912c-0.748,-0.158 -1.489,-0.281 -2.217,-0.381c-1.223,-0.012 -2.433,0 -3.644,0c-1.411,0 -3.551,0.157 -5.892,0.536c-3.062,0.293 -5.919,0.987 -8.317,2.321c-0.02,0.011 -0.043,0.023 -0.066,0.034c-0.359,0.167 -0.717,0.347 -1.042,0.537c-0.528,0.247 -0.987,0.393 -1.537,0.459c-4.347,-1.67 -9.826,-2.264 -12.314,-2.307c-6.388,-0.1 -12.585,-1.11 -18.762,-2.645c-6.151,-1.535 -11.576,-1.4 -17.021,1.469c-0.135,-0.316 -0.169,-0.686 -0.1,-1.11c-0.27,-0.169 -0.459,-0.393 -0.528,-0.706c-0.123,-0.47 -0.158,-0.898 -0.135,-1.277c-2.264,-1.009 -4.45,-2.298 -6.644,-3.62c-7.477,-4.496 -17.248,-6.019 -26.101,-4.08c0.046,-0.169 -5.58,0.752 -5.526,0.571c0.204,-0.728 -0.378,-1.546 0.328,-2.498c-0.629,-0.313 -1.323,-0.672 -1.94,-1.076c0.212,3.216 1.894,6.767 2.668,8.259c0.043,0.066 0.089,0.146 0.155,0.224c-0.37,0.528 -0.671,1.099 -0.883,1.693c-0.224,0.639 -0.371,1.187 -0.451,1.646c-3.27,-1.781 -5.502,-7.485 -6.24,-14.109c0,-0.043 -0.82,-2.14 -0.046,-2.811c2.106,-1.816 4.045,-3.543 5.761,-5.29c-1.446,-0.416 -3.273,-0.964 -5.603,-1.67c-9.527,-2.846 -15.667,-5.345 -14.444,-16.06l0.76,-6.733c0.751,4.862 0.37,13.01 5.344,15.497c3.208,1.604 3.208,1.604 5.595,2.152c2.398,0.559 8.101,1.535 11.229,3.609c0.177,-0.158 0.381,-0.281 0.616,-0.327c5.861,-1.265 9.054,5.56 12.236,-3.764c2.117,-6.231 3.44,-14.58 3.52,-14.938c1.816,-7.743 5.098,-26.325 -5.414,-35.502c-2.174,-1.905 -7.341,-5.549 -13.021,-7.609c-9.717,-3.531 -23.611,-4.796 -29.831,5.288c-2.501,4.056 -3.362,9.929 -3.767,14.591c-0.212,2.398 -1.48,8.102 -0.806,10.58c0.695,2.588 2.307,4.258 3.016,6.128c2.788,7.387 1.546,11.722 -1.446,18.346c-0.852,1.782 -2.221,8.025 -5.29,11.353c-5.179,5.568 -9.649,3.362 -14.939,10.029c-1.121,1.391 -1.985,2.826 -2.711,4.28c7.674,-2.24 15.991,-2.329 22.905,0.393c4.562,1.805 4.562,1.805 11.24,6.871l3.575,2.723c1.064,-0.181 2.275,-0.316 3.598,-0.37c9.335,-0.471 6.859,-1.458 12.628,-0.64c5.761,0.829 13.404,0.336 20.263,2.332c1.736,0.494 4.693,2.072 7.338,3.721c0.27,0.02 0.528,0.032 0.787,0.055Zm-43.584,-31.735c-0.313,-0.798 -3.988,-7.766 -3.687,-3.34c0.058,0.849 1.57,5.973 3.374,11.364c3.262,9.803 3.262,9.803 4.326,13.581c2.422,8.538 0.896,-5.683 0.27,-8.082c-2.298,-8.626 -2.298,-8.626 -4.283,-13.523Z"/></svg>