<?xml version="1.0" encoding="UTF-8" standalone="no"?><!DOCTYPE svg PUBLIC "-//W3C//DTD SVG 1.1//EN" "http://www.w3.org/Graphics/SVG/1.1/DTD/svg11.dtd"><svg width="100%" height="100%" viewBox="0 0 483 119" version="1.1" xmlns="http://www.w3.org/2000/svg" xmlns:xlink="http://www.w3.org/1999/xlink" xml:space="preserve" xmlns:serif="http://www.serif.com/" style="fill-rule:evenodd;clip-rule:evenodd;stroke-linejoin:round;stroke-miterlimit:1.41421;"><path d="M162.355,84.664c0.325,0.024 0.594,0.032 0.743,0.032c0.84,0 1.996,0.089 3.222,0.308c0.801,0.305 1.559,0.688 3.203,1.52c1.989,1.004 2.684,1.359 3.118,1.554c0.031,0.051 0.062,0.106 0.089,0.157c0.145,0.269 0.301,0.453 0.454,0.57c-0.231,0.516 -0.465,1.078 -0.512,1.594c-0.02,0.226 -0.031,0.414 -0.031,0.574c-1.813,-0.406 -4.082,-0.594 -4.465,-0.293c-0.344,0.27 -0.477,0.48 -0.602,0.938c-0.16,0.589 -0.16,0.589 -1.363,1.179c-2.059,1.008 1.434,1.028 2.16,-0.09c0.621,-0.965 0.848,-0.996 2.981,-0.425c0.781,0.21 1.472,0.324 2.039,0.339c1.066,0.809 3.152,1.204 6.078,-1.406c1.297,-1.16 0.203,-1.355 2.043,-0.922c8.734,2.059 11.808,2.102 14.621,0.551c0.121,-0.07 0.219,-0.141 0.297,-0.215c0.933,0.367 1.98,0.711 2.675,0.934c1.125,0.433 2.235,0.894 2.895,1.332c2.633,1.758 4.227,2.515 4.883,2.316c0.441,-0.136 0.644,-0.258 0.679,-0.367c0.45,0.102 0.793,0.074 1.036,-0.039c1.234,0.145 2.461,0.277 3.027,0.363c1.723,0.25 1.727,0.254 3.242,1.098c-1.347,0.199 -2.293,0.398 -2.168,0.734c0.086,0.235 2.184,0.297 4.668,0.141l0.598,-0.039c2.723,0.656 6.383,-0.195 8.961,-0.852c3.422,-0.879 8.402,5.883 8.945,8.696c-0.742,0.058 -1.656,0.246 -2.355,0.101c-1.235,-0.254 -3.278,-0.347 -4.539,-0.211c-1.747,0.196 -2.653,0.012 -3.817,-0.761c-1.183,-0.79 -2.672,-1.079 -6.617,-1.274c-2.797,-0.141 -7.387,-0.711 -10.203,-1.273c-0.906,-0.18 -1.699,-0.336 -2.375,-0.461c0.121,-0.016 0.242,-0.032 0.367,-0.047c-3.027,-0.863 -6.027,-0.899 -9.176,-0.75c-3.086,0.148 -6.863,0.035 -8.398,-0.254c-2.785,-0.524 -2.785,-0.524 -6.117,-1.793c-0.336,-0.129 -0.641,-0.242 -0.926,-0.344c0.066,-0.027 0.133,-0.058 0.199,-0.09c1.215,-0.55 2.289,-0.714 4.746,-0.714c0.945,0 1.625,0 2.098,-0.024c0.66,0.137 1.332,0.293 2.027,0.457c3.258,0.777 6.481,1.297 9.82,1.438l-1.324,-0.809c-0.734,-0.441 -4.691,-1.242 -8.801,-1.773c-0.378,-0.051 -0.742,-0.094 -1.097,-0.133c-0.379,-0.125 -1.117,-0.176 -2.496,-0.192c-0.532,-0.023 -1.043,-0.023 -1.539,-0.007c-2.637,0 -4.313,0.062 -6.711,1.027c-0.102,0.043 -0.407,0.18 -0.785,0.367c-0.032,0.012 -0.063,0.02 -0.098,0.031c-0.266,0.086 -0.43,0.184 -0.516,0.285c-0.347,0.184 -0.707,0.383 -1.008,0.579c-2.39,0.785 -2.804,0.777 -6.375,-0.039c-2.105,-0.481 -6.214,-0.977 -9.125,-1.102c-4.816,-0.211 -5.253,-0.23 -6.074,-0.422c0.43,-0.769 0.965,-1.816 1.664,-3.226c1.614,-3.266 3.719,-5.934 5.668,-8.895c0.129,0.012 0.25,0.02 0.367,0.027Zm-81.582,8.496c0.114,0.211 0.223,0.43 0.332,0.649c0.661,1.332 1.172,2.344 1.594,3.098c-1.265,0.003 -2.855,0.332 -3.41,0.332c-0.652,0 -3,0.269 -5.652,0.648c-2.129,0.211 -4.282,0.52 -5.649,0.828c-2.402,0.324 -2.817,0.262 -3.57,-0.019c-1.281,-0.489 -2.559,-0.653 -3.918,-0.731c-0.125,-0.012 -0.238,-0.008 -0.34,0c-0.051,-0.019 -0.101,-0.039 -0.16,-0.055c-0.027,-0.011 -0.059,-0.019 -0.09,-0.031c-0.383,-0.187 -0.687,-0.328 -0.789,-0.367c-2.402,-0.969 -4.074,-1.027 -6.711,-1.031c-0.5,-0.016 -1.012,-0.012 -1.543,0.008c-1.375,0.015 -2.113,0.07 -2.492,0.195c-0.355,0.035 -0.723,0.082 -1.102,0.129c-4.105,0.535 -8.066,1.332 -8.796,1.777l-1.325,0.805c3.34,-0.137 6.559,-0.656 9.821,-1.434c0.691,-0.168 1.363,-0.324 2.023,-0.461c0.477,0.028 1.152,0.028 2.102,0.028c2.457,0 3.527,0.16 4.742,0.714c0.07,0.028 0.137,0.059 0.203,0.086c-0.285,0.102 -0.59,0.215 -0.926,0.344c-3.332,1.274 -3.332,1.274 -6.121,1.797c-1.531,0.285 -5.308,0.402 -8.394,0.254c-3.149,-0.152 -6.153,-0.113 -9.176,0.75c0.121,0.012 0.242,0.027 0.363,0.043c-0.672,0.125 -1.469,0.285 -2.371,0.465c-2.816,0.558 -7.406,1.133 -10.207,1.269c-3.941,0.2 -5.434,0.485 -6.613,1.274c-1.164,0.777 -2.075,0.957 -3.817,0.765c-1.261,-0.14 -3.304,-0.047 -4.539,0.211c-0.703,0.145 -1.613,-0.043 -2.355,-0.105c0.543,-2.813 5.523,-9.57 8.945,-8.695c2.578,0.66 6.234,1.507 8.961,0.855l0.598,0.035c2.48,0.16 4.582,0.098 4.668,-0.137c0.121,-0.335 -0.825,-0.539 -2.168,-0.734c1.511,-0.848 1.519,-0.848 3.242,-1.101c0.734,-0.106 2.597,-0.301 4.129,-0.5c-0.18,0.164 -0.071,0.335 0.613,0.542c0.652,0.2 3.84,-0.933 6.477,-2.695c0.238,-0.16 0.55,-0.34 0.906,-0.531c1.242,-0.395 2.562,-0.758 3.672,-0.992c0.699,-0.145 1.285,-0.27 1.769,-0.379c2.582,0.902 5.906,0.605 13.278,-1.141c1.832,-0.433 0.738,-0.238 2.066,0.922c1.629,1.422 2.992,1.949 4.059,2.008c0.015,0.012 0.035,0.019 0.05,0.027c0.61,0.305 1.766,0.254 3.25,-0.144c2.137,-0.575 2.364,-0.539 2.985,0.422c0.722,1.121 4.218,1.097 2.16,0.089c-1.203,-0.589 -1.203,-0.589 -1.363,-1.175c-0.125,-0.461 -0.262,-0.668 -0.602,-0.938c-0.332,-0.262 -2.051,-0.156 -3.68,0.133c0.024,-0.078 0.036,-0.148 0.036,-0.207c0.007,-0.059 0.007,-0.117 0.011,-0.172c0.012,-0.164 -0.031,-0.289 -0.09,-0.41c-0.007,-0.129 -0.019,-0.277 -0.039,-0.445c-0.054,-0.454 -0.246,-0.934 -0.457,-1.391c0.153,-0.164 0.449,-0.406 1.184,-0.824l0.008,-0.004c0.14,-0.063 0.285,-0.133 0.425,-0.211c0.2,-0.113 0.399,-0.231 0.602,-0.34c0.066,-0.035 0.137,-0.07 0.207,-0.105c1.891,-0.957 2.668,-1.348 3.606,-1.692c0.011,-0.004 0.023,-0.008 0.039,-0.012c1.308,-0.445 2.664,-0.687 4.015,-0.519c1.817,2.754 3.762,5.254 5.324,8.226Zm69.415,-52.722c2.085,1.144 5.554,4.316 5.363,7.109c0.215,0.43 0.422,0.856 0.613,1.262c0.184,0.293 0.441,0.598 0.742,0.914c1.903,0.59 4.34,2.086 4.86,2.898c0.414,0.641 1.148,2.094 1.636,3.227c0.086,0.203 0.157,0.387 0.215,0.559c1.563,1.132 3.442,2.765 5.438,5.882c0.777,1.215 1.816,3.153 2.691,4.864c0.102,0.043 0.215,0.101 0.34,0.168c0.535,0.304 0.535,0.304 0.684,0.605c0.093,0.184 0.484,0.719 1.039,1.422c1.918,2.434 4.996,5.105 5.117,8.453c0,0.051 0.004,0.102 0.004,0.152c1.105,0.528 2.066,1.215 2.3,1.95c0.125,0.386 0.332,0.73 0.602,1.039c0.043,-0.012 0.082,-0.016 0.125,-0.016c0.414,0 0.414,0 2.152,0.801c1.739,0.801 1.739,0.801 3.618,1.308c0.14,0.036 0.386,0.125 0.66,0.25c0.14,-0.136 0.34,-0.222 0.613,-0.222c0.242,0 0.242,0 0.953,0.547c0.262,0.207 0.594,0.55 0.949,0.547c1.102,1.234 2.184,2.414 3.477,3.453c0.055,0.043 0.262,0.191 0.523,0.39c0.696,0.309 1.516,0.676 2.328,1.055c0.36,0.07 0.879,0.187 1.719,0.383c2.797,0.637 5.528,1.492 8.141,2.68c0.797,0.363 1.336,0.828 1.629,1.273c2.554,-0.258 5.281,0.137 7.289,1.379l1.601,0.992c3.715,-1.383 8.493,-1.91 12.219,-0.625c1.262,0.438 2.285,1.168 2.52,1.805c0.214,0.59 1.461,1.91 2.761,2.926c2.067,1.621 2.395,2.144 2.625,4.183c0.114,1.024 -0.211,1.926 -0.629,2.277c-0.203,1 -0.421,0.946 -2.55,0.395c-1.387,-0.359 -3.473,-0.477 -5.028,-0.285c-1.906,0.238 -3.273,0.094 -4.836,-0.508c-1.195,-0.461 -3.355,-0.824 -4.804,-0.805c-4.563,0.059 -11.387,-0.855 -15.379,-3.109c-0.602,-0.344 -0.875,-0.496 -1.008,-0.641c-6.574,0.817 -13.461,1.489 -19.695,-0.863c-0.672,-0.254 -3.453,-0.93 -5.192,-1.625c-0.425,0.086 -0.847,0.156 -1.273,0.203c-2.52,0.82 -5.082,1.168 -7.891,0.774c-0.648,0.019 -1.816,-0.059 -6.25,-0.352c-6.015,-0.402 -6.015,-0.402 -7.594,-0.656c-0.179,-0.031 -0.449,-0.063 -0.753,-0.106c0.171,0.676 -0.618,1.082 -2.106,0.528c-2.73,-1.012 -5.781,-1.254 -8.664,-1.371c-3.535,-0.149 -7.969,-0.231 -11.297,-1.594c-0.031,-0.012 -0.066,-0.031 -0.101,-0.055c-0.973,-0.156 -1.841,-0.32 -2.524,-0.469c-0.774,0.051 -1.75,0.102 -2.984,0.168c-2.59,0.141 -5.11,0.34 -7.645,0.25c-0.004,0.129 -0.109,0.153 -0.504,-0.019c-0.839,-0.043 -1.675,-0.121 -2.523,-0.242c-0.816,-0.121 -2.172,-0.118 -3.531,-0.012c-2.289,0.656 -4.282,1.402 -6.864,1.582c-3.55,0.25 -7.363,-0.047 -11.047,0.168c-0.75,0.07 -1.5,0.141 -2.253,0.207c-1.364,0.172 -2.7,0.453 -3.981,0.894c-0.836,0.286 -5.355,2.129 -5.101,0.364c0.023,-0.172 0.058,-0.321 0.117,-0.457c-0.473,0.312 -1.149,0.418 -2.645,0.418c-1.156,0 -3.844,0.304 -5.976,0.679c-3.446,0.606 -7.774,1.625 -11.305,0.555c-1.191,-0.152 -2.356,-0.43 -3.508,-0.805c-0.426,-0.047 -0.848,-0.117 -1.262,-0.203c-1.742,0.696 -4.523,1.371 -5.199,1.625c-6.23,2.356 -13.117,1.684 -19.691,0.864c-0.137,0.144 -0.406,0.296 -1.012,0.64c-3.988,2.258 -10.812,3.172 -15.379,3.11c-1.445,-0.016 -3.605,0.343 -4.805,0.808c-1.562,0.598 -2.925,0.742 -4.832,0.508c-1.558,-0.195 -3.64,-0.074 -5.031,0.281c-2.125,0.551 -2.344,0.606 -2.551,-0.39c-0.414,-0.356 -0.738,-1.254 -0.625,-2.282c0.227,-2.035 0.558,-2.562 2.625,-4.179c1.301,-1.02 2.543,-2.336 2.762,-2.926c0.235,-0.641 1.258,-1.371 2.52,-1.809c3.726,-1.285 8.504,-0.758 12.218,0.625l1.602,-0.992c2.352,-1.457 5.703,-1.75 8.602,-1.187c1.05,-0.461 2.066,-1 3.086,-1.551c1.605,-0.879 4.519,-2.024 6.468,-2.543c0.469,-0.129 1.227,-0.418 2.055,-0.653c0.012,-0.023 0.027,-0.05 0.043,-0.07c-0.141,-1.48 2.375,-2.828 3.457,-3.367c1.23,-0.617 2.434,-1.207 3.582,-1.969c0.676,-0.449 2.062,-1.094 3.078,-1.429c1.25,-0.418 2.371,-0.778 3.461,-1.512c0.227,-0.156 0.543,-0.297 0.844,-0.375c0.258,-0.305 0.453,-0.649 0.57,-1.031c0.254,-0.868 1.527,-1.672 2.856,-2.219c0.14,-1.403 1.648,-3.414 2.261,-4.121c0.422,-0.489 0.844,-0.965 1.262,-1.453c0.902,-1.414 1.75,-2.801 2.258,-3.864c0.359,-0.754 0.773,-1.605 1.199,-2.453c0.066,-0.211 0.129,-0.426 0.191,-0.637c0.649,-2.269 2.438,-5.191 4.364,-6.617c0.058,-0.047 0.117,-0.09 0.179,-0.133c0.614,-0.625 2.692,-2.667 4.161,-3.207c0.109,-0.078 0.214,-0.156 0.316,-0.23c0.422,-2.059 1.492,-4.07 3.129,-5.406c0.242,-0.196 1.215,-0.653 2.207,-0.926l0,-0.004c0.019,-0.039 0.039,-0.082 0.059,-0.121c0.117,-0.281 0.242,-0.551 0.378,-0.816c0.157,-0.649 0.407,-1.266 0.719,-1.852c0.469,-1.703 1.86,-3.305 3.274,-4.231c0.332,-0.218 1.168,-1.089 1.988,-1.73c0,-0.187 0.008,-0.375 0.023,-0.57c0.133,-2.141 1.992,-7.379 4.684,-8.227c0.488,-0.379 0.934,-0.695 1.141,-0.836c0.468,-0.472 0.98,-0.847 1.41,-1.011c0.023,-0.008 0.047,-0.016 0.074,-0.028c1.086,-0.758 2.148,-1.16 3.68,-1.398c1.105,-0.168 1.996,-0.528 2.882,-0.996c0.508,-0.418 0.965,-0.743 1.282,-0.875c0.304,-0.133 0.617,-0.282 0.937,-0.43c1.801,-1.129 4.57,-2.867 6.567,-2.547c0.191,-0.68 0.378,-1.398 0.543,-2.023c-0.082,-0.321 -0.153,-0.657 -0.219,-1.008c-1.024,-2.387 -1.918,-4.145 -1.918,-6.379c0,-3.984 0.199,-10.305 4.347,-12.012c3.161,-1.297 6.528,-1.734 9.825,-0.183c1.566,0.734 3.64,3.07 4.004,4.8c0.41,1.981 0.296,6.649 0.086,6.703c0.429,4.493 -1.602,6.305 -1.739,6.848c0,0.004 -0.004,0.012 -0.004,0.016c0.121,1.191 0.387,2.25 0.703,3.176c0.157,-0.055 0.329,-0.071 0.5,-0.036c0.684,0.133 0.684,0.133 2.152,0.668c2.845,1.036 6.493,2.239 8.259,4.895c0.004,0.008 0.015,0.019 0.019,0.031c0.836,0.067 1.844,0.391 2.633,0.684c0.887,0.066 1.844,0.316 2.227,0.465c0.367,0.14 0.796,0.425 1.21,0.8c1.165,0.129 2.696,1.149 3.227,1.594c0.445,0.371 0.84,0.789 1.188,1.235c1.292,1.652 1.937,3.746 2.097,5.851c0.067,0.285 0.129,0.594 0.192,0.934c0.039,0.222 0.07,0.433 0.093,0.629c0.082,0.043 0.176,0.097 0.286,0.156Zm-17.801,34.066c-0.657,1.11 -1.399,2.149 -2.242,3.063c-0.606,2.711 -2.083,4.886 -5.262,6.191c-4.469,1.824 -11.274,2.305 -15.547,0.027c-2.488,-1.328 -3.297,-0.906 -2.609,0.055c-0.774,-0.687 -1.59,-1.476 -2.262,-2.207c-2.477,-2.699 -2.477,-2.699 -3.36,-3.535c-0.882,-0.84 -0.882,-0.84 -1.039,-1.406c-0.32,-1.172 -0.816,-0.203 -0.652,0.597c0.598,2.934 4.84,7.664 7.43,9.008c1.461,0.758 4.777,1.024 2.242,-0.648c3.742,1.871 8.875,0.914 12.789,0.269c0.723,-0.117 1.527,-0.289 2.359,-0.523c-0.476,0.441 -0.64,0.613 -1.007,0.992c-1.668,1.723 -4.2,2.863 -6.477,3.551c2.988,0.363 4.137,-0.957 6.766,-2c1.554,-0.613 4.414,-2.836 5.574,-4.723c1.051,-0.746 1.914,-1.66 2.414,-2.769c0.547,-1.207 0.863,-3.598 0.883,-5.942Zm2.785,-10.539c0.113,-0.351 0.234,-0.699 0.359,-1.047c-0.058,0.016 -0.121,0.032 -0.183,0.047c1.66,-2.582 1.09,-6.555 1.242,-9.152c1.094,-1.274 2.301,-3.621 3.008,-5.445c1.039,1.96 2.699,3.558 4.316,5.152c0.18,0.351 0.297,0.582 0.406,0.789c0.227,0.226 0.473,0.492 0.739,0.801c0.945,1.086 2.078,2.023 3.211,2.652c0.96,0.531 1.855,1.203 1.988,1.492c0.176,0.387 0.383,0.696 0.801,1.215c0.023,0.027 0.046,0.055 0.07,0.09c0.254,0.883 0.66,1.75 0.988,2.422c0.758,1.558 2.168,3.16 3.598,4.531c0.347,0.527 0.719,1.047 1.109,1.551c1.145,1.488 3.106,2.008 4.926,2.582c1.043,0.664 2.09,1.226 3.074,1.668c0.27,0.129 0.551,0.254 0.832,0.371c0.61,0.789 1.297,1.535 1.477,1.726l2.742,2.903c0.246,0.203 0.496,0.406 0.75,0.601c0.129,0.164 0.289,0.344 0.473,0.536c-0.047,0.238 -0.078,0.546 -0.098,0.949c-0.051,1.199 0.188,3.191 0.895,4.719c-0.457,-0.219 -1.008,-0.458 -1.68,-0.727c-2.262,-0.918 -5.844,-2.106 -8.559,-1.5c-0.746,-2.316 -6.269,-2.906 -8.242,-3.152c-1.121,-0.141 -3.41,-0.711 -5.09,-1.27c-0.496,-0.168 -1.273,-0.336 -2.082,-0.457c-0.398,-0.035 -0.797,-0.144 -1.152,-0.344c-0.11,-0.062 -0.203,-0.133 -0.289,-0.218c-0.176,0.058 -0.352,0.117 -0.531,0.191c-0.348,-1.484 -1,-2.426 -2.633,-2.656c-1.168,-0.164 -1.434,-0.2 -1.75,-0.211c-0.078,-0.153 -0.149,-0.324 -0.219,-0.516c-0.32,-0.875 -1.297,-1.898 -2.356,-2.461c-0.652,-0.351 -1.527,-0.66 -2.281,-0.828c-0.015,-0.215 -0.039,-0.43 -0.062,-0.625c0.051,-0.644 0.101,-1.441 0.156,-2.445c0.109,-1.918 0.129,-3.172 0.047,-3.934Zm-4.954,-13.851c-0.28,0.105 -0.519,0.168 -0.683,0.183c-2.683,-0.043 -7.519,1.762 -9.867,-0.605c0.027,-0.297 0.004,-0.641 -0.07,-1.016c-0.418,-2.031 -0.418,-2.031 -0.485,-4.199c-0.097,-3.274 -1.363,-1.863 -1.363,0.668c0,1.558 0.195,3.504 0.438,4.32c0.023,0.09 0.05,0.176 0.082,0.258c-0.098,0.102 -0.215,0.238 -0.356,0.391c-2.269,2.492 -7.414,0.367 -10.211,0.281c-0.887,-0.098 -4.047,-1.914 -4.234,-2.137c-0.957,-1.172 -2.211,-3.39 -2.785,-4.933c-0.227,-0.602 -0.059,-1.895 0.238,-3.215c0.148,-0.278 0.305,-0.559 0.465,-0.797c1.101,-1.598 2.543,-2.84 4.215,-3.719c0.445,-0.43 0.894,-0.773 1.296,-0.992c0.266,-0.145 1.207,-0.699 2.114,-1.035c-0.574,-0.856 -3.239,-0.094 -3.86,0.148c-0.609,0.235 -1.566,0.805 -2.531,1.543c-0.055,0.031 -0.109,0.063 -0.164,0.098c0.172,-0.531 0.105,-0.77 -0.355,-0.84c-0.93,-0.148 -2.192,1.812 -2.973,3.598c1.726,2.504 -0.309,7.14 -2.219,8.863c-0.629,0.566 -1.293,1.293 -1.988,2.035c-1.996,2.844 -4.301,5.676 -7.789,6.129c-0.055,0.531 0.179,1.262 -0.379,2.367c-0.871,1.086 -1.586,2.231 -2.336,2.629c-0.242,0.129 -2.625,3.875 -2.898,4.691c-0.778,2.313 -4.688,4.04 -6.965,5.379c-0.133,0.055 -0.258,0.106 -0.379,0.157c-0.555,0.23 -1.055,0.617 -1.524,1.07c-0.054,0.035 -0.105,0.07 -0.152,0.098c-0.082,-0.043 -0.172,-0.067 -0.266,-0.079c-0.472,0.567 -0.98,1.239 -1.386,1.856c-0.743,1.113 -2.422,3.07 -3.731,4.344c-0.074,0.066 -0.179,0.175 -0.312,0.312c-0.469,0.809 -0.914,1.629 -1.325,2.453c0.055,-0.027 0.118,-0.062 0.18,-0.097c-0.113,0.339 -0.207,0.675 -0.273,0.976c-0.387,1.692 -1.326,3.86 -2.082,4.817c-0.821,1.043 -0.403,1.828 0.246,2.636c0.574,0.637 1.163,1.524 1.609,2.035c0,0.024 0,0.051 0.004,0.075c0.004,0.039 0.004,0.074 0.004,0.105c-2.586,0.656 -4.754,0.121 -5.125,-2.832c-0.367,-2.953 -3.664,-1.289 -5.676,-0.168c-1.406,0.781 -3.836,1.524 -5.398,1.645c-1.442,0.113 -2.621,0.132 -3.434,-0.008c-0.273,-0.375 -0.683,-0.563 -1.168,-0.625c-0.015,-0.027 -0.027,-0.051 -0.035,-0.082c0.063,-0.055 0.117,-0.11 0.164,-0.156c0.664,-0.637 1.703,-1.297 2.383,-1.516c0.66,-0.215 1.695,-0.762 2.301,-1.215c0.597,-0.457 1.218,-0.797 1.863,-1.09c1.543,-0.375 2.785,-0.933 3.887,-1.605c0.484,-0.223 0.925,-0.442 1.218,-0.598c0.672,-0.375 1.04,-0.726 1.188,-1.148c1.105,-0.903 2.207,-1.879 3.535,-2.84c0.16,0.027 0.313,0.008 0.457,-0.039c0.004,-0.024 0.004,-0.043 0.008,-0.067c0.609,-3.742 3.975,-7.793 7.008,-10.734c0.242,-0.574 0.449,-1.145 0.617,-1.707c0.379,-1.273 0.883,-2.422 1.504,-3.465c1.238,-2.601 3.805,-4.902 6.258,-6.394c0.062,-0.039 0.132,-0.082 0.211,-0.129c0.605,-1.867 2.019,-3.645 3.449,-4.657c0.949,-0.667 2.047,-1.71 3.305,-1.48c0.328,0.055 0.523,0.09 0.73,0.109c0.434,-0.234 0.77,-0.406 0.949,-0.472l1.949,-0.715c-0.613,-0.121 -1.175,-0.164 -1.699,-0.149c-0.105,0.024 -0.207,0.032 -0.305,0.02c-0.624,0.051 -1.203,0.199 -1.753,0.422c0.136,-0.172 0.218,-0.328 0.218,-0.445c0,-0.016 0,-0.036 -0.004,-0.051c0.122,-0.172 0.235,-0.364 0.34,-0.571c0.078,-0.156 0.16,-0.316 0.246,-0.472c-0.05,-0.25 -0.043,-0.539 0.016,-0.836c-0.238,-1.277 0.535,-3.09 1.426,-3.758c0.328,-0.246 1.355,-1 2.375,-1.519c0.062,-0.051 0.125,-0.102 0.187,-0.153c0.246,-0.207 0.453,-0.383 0.629,-0.535c0.27,-0.16 0.551,-0.301 0.84,-0.406c0.051,-0.211 0.102,-0.438 0.148,-0.684c0.391,-2.008 0.75,-3.707 1.653,-5.265c1.094,-2.426 4.562,-5.375 7.262,-4.368c0.097,0.008 0.191,0.02 0.285,0.035c0.55,-0.179 1.082,-0.386 1.57,-0.66c0.504,-0.281 0.824,-0.82 0.703,-1.199c0,-0.008 -0.004,-0.015 -0.004,-0.019c1.578,-0.575 3.031,-1.45 4.516,-2.289c0.187,-0.079 0.379,-0.161 0.582,-0.243l2.715,-1.132c0.136,-0.036 0.281,-0.075 0.441,-0.114c0.031,-0.011 0.078,-0.023 0.133,-0.039c-0.094,0.215 -0.18,0.379 -0.254,0.473c-0.535,0.625 -1.047,1.254 -1.48,1.953c1.898,-0.57 3.375,-1.66 4.128,-3.387c1.192,1.895 2.926,2.688 5.102,2.84c3.715,0.254 5.566,-0.914 6.742,-3.18c0.192,0.989 0.442,1.86 0.614,2.168c0.5,0.911 1.953,1.454 2.703,1.559c0.945,0.137 0.445,-0.598 -0.297,-2.105l3.23,1.335c1.735,0.711 2.789,1.149 3.571,1.512c0.453,0.395 0.878,0.836 1.265,1.332c1.18,1.52 1.387,1.676 2.086,1.547c0.102,-0.019 0.192,-0.047 0.266,-0.078c0.097,0.031 0.195,0.062 0.293,0.094c1.406,-0.203 2.769,0.097 4.004,0.746c0.031,0.066 0.078,0.129 0.132,0.191c1.032,0.164 2.036,0.965 2.719,1.692c1.945,2.078 3.625,5.867 3.379,8.847c0.063,0.043 0.133,0.09 0.203,0.141c0.008,0.004 0.012,0.012 0.02,0.015c0.031,0.043 0.066,0.083 0.097,0.114c0.262,0.117 0.582,0.273 0.911,0.449c1.507,0.805 3.156,1.488 3.941,3.102c0.207,0.421 0.363,1.07 0.398,1.726c0.43,0.399 0.801,0.879 0.95,1.09c0.566,0.777 1.402,1.875 2.136,3.039c0.383,0.121 0.75,0.285 1.063,0.465c1.969,1.133 3.539,2.719 4.344,4.867c0.054,0.148 0.121,0.313 0.195,0.484c0.039,0.024 0.082,0.043 0.121,0.067c0.414,0.461 0.828,1.055 1.437,1.988c0.172,0.133 0.34,0.266 0.497,0.399c0.55,0.46 1.105,1.003 1.625,1.609c0.39,0.254 0.734,0.469 0.941,0.668c2,1.902 2.676,4.547 3.012,5.328c0.105,0.238 0.222,0.477 0.351,0.715c0.344,0.203 0.774,0.512 1.188,0.851c0.777,0.649 1.883,1.993 2.621,3.196c1.617,2.633 3.398,4.793 4.422,7.578c2.91,2.269 4.949,4.465 9.113,5.383c0.133,0.027 0.617,0.269 1.27,0.613c1.105,1.465 3.039,3.121 4.96,3.66c-0.628,0.477 -2.191,0.516 -4.347,0.348c-1.563,-0.125 -4.008,-0.863 -5.434,-1.649c-2.039,-1.117 -5.383,-2.785 -5.676,0.172c-0.253,2.516 -1.855,3.278 -3.937,3.035c-0.285,-0.14 -0.668,-0.273 -1.106,-0.394c0.43,-0.512 0.997,-1.391 1.555,-2.024c0.629,-0.808 1.024,-1.597 0.176,-2.636c-0.781,-0.957 -1.774,-3.125 -2.199,-4.817c-0.078,-0.3 -0.18,-0.64 -0.301,-0.976c0.609,0.347 0.98,0.281 0.805,-0.414c0.019,-0.008 0.035,-0.016 0.054,-0.028c-0.156,-0.191 -0.32,-0.41 -0.578,-0.769c-0.988,-1.36 -2.375,-3.067 -3.195,-4.758c-0.254,-0.25 -0.512,-0.496 -0.77,-0.742c-1.207,-1.164 -2.402,-2.043 -3.09,-2.289c-0.199,-0.071 -0.371,-0.117 -0.515,-0.145c-0.488,-0.293 -1.067,-0.539 -1.465,-0.734c-0.203,-0.125 -0.426,-0.258 -0.664,-0.387c-0.883,-0.562 -1.531,-0.91 -2.266,-1.242c-0.769,-0.43 -1.55,-0.895 -2.246,-1.391c-0.129,-0.105 -0.258,-0.218 -0.383,-0.328c-0.488,-1.16 -1.16,-2.293 -1.921,-3.242c0.011,-0.004 0.015,-0.012 0.023,-0.016c-0.023,-0.011 -0.043,-0.023 -0.063,-0.039c-0.062,-0.074 -0.124,-0.148 -0.187,-0.222c-0.773,-0.918 -1.461,-1.786 -2.234,-2.746c-0.637,-0.793 -1.129,-1.54 -1.426,-2.161c-0.153,-0.523 -0.176,-1.129 -0.074,-1.55c-0.207,-0.086 -0.426,-0.161 -0.641,-0.223c-0.02,-0.09 -0.035,-0.18 -0.051,-0.274c-2.371,-0.425 -4.722,-1.882 -5.808,-3.863c-2.024,-3.695 -6.434,-5.949 -6.871,-10.011c-0.149,-0.391 -0.305,-0.821 -0.465,-1.313c-0.055,-0.172 -0.153,-0.395 -0.274,-0.613c0.539,-0.625 -2.144,-6.668 -3.695,-6.496c-0.688,0.074 -0.461,0.586 0.137,1.937c0.023,0.051 0.047,0.113 0.074,0.184c-0.238,-0.196 -0.434,-0.332 -0.543,-0.391c-1.832,-0.949 -1.832,-0.949 -3.692,-1.344c-2.555,-0.539 -1.726,0.735 0.094,1.34c1.762,0.586 3.875,1.563 5.032,3.129c0.433,1.578 0.773,3.301 0.527,4.012c-0.52,1.512 -1.688,3.668 -2.59,4.793c-0.145,0.176 -2.184,1.308 -3.407,1.758Zm4.489,22.589c0.043,-0.039 0.086,-0.089 0.121,-0.14c1.668,0.375 3.078,1.547 3.672,3.203c-0.008,0.09 -0.004,0.18 0.02,0.269c0.125,0.461 0.621,0.692 1.144,0.813c0.211,0.07 0.441,0.125 0.676,0.16c0.621,0.086 1.234,0.371 1.68,0.758c0.031,0.09 0.066,0.199 0.101,0.312c0.055,0.188 0.145,0.348 0.258,0.485c-2.707,1.547 -5.504,3.976 -7.082,4.996c-0.711,0.457 -0.711,0.457 -2.289,2.035c-1.578,1.574 -1.578,1.574 -1.77,1.656c-0.981,0.43 -1.8,2.996 -2.352,3.989l2.087,-1.832c4.05,-3.555 8.336,-7.024 12.914,-10.043l0.613,-0.403c0.18,0.071 0.375,0.149 0.59,0.235c3.972,1.519 8.222,2.363 12.344,3.367c0.863,0.211 1.949,0.586 2.711,0.926c-0.551,0.355 -0.422,0.609 0,0.789c-0.442,0.191 -0.805,0.379 -0.915,0.484c-2.882,2.758 -4.308,7.512 -6.199,11.012c-0.246,0.457 -0.453,0.832 -0.613,1.144c-2.992,-1.179 -6.75,-1.144 -9.781,-1.3c-0.699,-0.036 -1.301,-0.067 -1.817,-0.094c-1.281,-0.11 -2.605,-0.203 -3.886,-0.278c-0.282,-0.039 -0.579,-0.082 -0.957,-0.136c-0.957,-0.137 -2.172,-0.504 -2.7,-0.817c-0.965,-0.558 -0.965,-0.558 -1.351,-0.547c-0.242,0.008 -0.406,0.067 -0.508,0.161c-2.34,-0.762 -6.898,0.261 -8.313,0.593c-2.277,0.528 -3.55,0.606 -4.171,0.25c-0.336,-0.187 -0.727,-0.336 -1.157,-0.449c-1.965,-1.301 -4.992,-2.562 -5.839,-3.062c-4.329,-2.543 -4.329,-2.543 -5.543,-3.633c-1.219,-1.086 -1.219,-1.086 -1.415,-1.805c-0.363,-1.344 -0.937,-0.41 -0.8,0.559c0.461,3.269 7.828,5.98 10.152,7.277c0.129,0.074 0.258,0.145 0.383,0.215c-0.324,0 -0.723,0.082 -1.11,0.195c-1.632,0.106 -3.23,0.387 -4.324,0.653c-1.082,0.261 -1.601,0.542 -1.726,0.796c-1.145,0.071 -2.305,0.028 -3.348,-0.183c-1.023,0.051 -2.203,0.117 -3.535,0.195c-0.043,-0.004 -0.086,-0.008 -0.125,-0.012c-3.996,-0.332 -8.688,0.246 -12.57,1.192c-0.969,0.238 -2.102,0.605 -2.774,0.898c-0.18,-0.375 -0.449,-0.871 -0.808,-1.535c-1.891,-3.504 -3.321,-8.254 -6.204,-11.016c-0.086,-0.085 -0.343,-0.226 -0.675,-0.378c0.148,-0.239 0.031,-0.559 -0.328,-0.852c0.761,-0.352 1.902,-0.75 2.8,-0.965c4.121,-1.008 8.375,-1.851 12.344,-3.371c0.215,-0.082 0.414,-0.16 0.59,-0.234l0.617,0.406c2.191,1.445 4.324,3 6.391,4.617c-0.035,-0.094 -0.071,-0.18 -0.106,-0.266c-0.308,-0.738 -0.488,-1.507 -0.551,-2.261c-1.32,-0.996 -2.816,-2.094 -4.289,-2.93c0.2,-0.598 0.719,-1.019 1.317,-1.305c0.25,-0.105 0.511,-0.179 0.781,-0.214c0.254,-0.04 0.504,-0.098 0.73,-0.176c0.262,0.082 0.567,0.023 0.821,-0.238c0.582,-0.133 0.594,-0.286 0.496,-0.825c0,-0.004 -0.004,-0.008 -0.004,-0.011c0.891,-1.567 2.34,-2.649 4.047,-3.219c0.281,-0.094 0.523,-0.176 0.73,-0.25c0.004,0.004 0.008,0.004 0.016,0.008c0.086,0.156 0.199,0.269 0.344,0.375c0.367,1.125 2.742,1.937 3.574,2.507c2.141,1.473 4.48,2.122 6.934,2.407c0.003,0 0.007,0 0.011,0.004c0.449,0.113 0.957,0.144 1.465,0.128c0.801,0.051 1.609,0.075 2.426,0.086c4.211,0.059 6.781,-0.375 10.066,-2.925c0.715,-0.551 1.219,-1.098 1.495,-1.535c0.724,0.109 2.076,-0.012 2.997,-0.301c0.454,-0.145 0.778,-0.258 1.02,-0.461c0.191,0.004 0.34,-0.051 0.457,-0.153Zm-0.988,10.786c0.613,-0.793 3.816,-7.106 2.09,-4.286c-2.946,4.813 -6.817,8.825 -10.997,12.543c3.292,-2.449 6.376,-4.972 8.907,-8.257Zm-0.414,-18.719c-0.258,2.004 -0.442,3.988 -0.192,6.012c0.012,0.109 0.024,0.207 0.035,0.304c-0.304,0.727 -0.855,0.942 -2.015,1.391c-0.285,0.113 -0.525,0.215 -0.715,0.308c-0.211,-0.261 -1,-0.085 -2.453,0.879c-0.61,0.407 -1.231,0.774 -1.863,1.106c1.23,-2.008 0.136,-5.488 -0.684,-6.082c1.023,-0.238 2.398,-1.102 2.684,-2.34c0.289,-1.281 0.46,-2.023 -0.11,-1.734c-0.316,0.156 -1.34,0.953 -2.277,1.769c-1.945,1.692 -1.672,2.387 -0.77,2.363c-0.125,0.184 -0.211,0.539 -0.23,1.11c1.543,1.715 -0.43,5.804 -2.133,6.551c-0.641,0.281 -1.289,0.328 -1.746,0.203c-0.516,0.093 -1.039,0.164 -1.559,0.207c-0.089,-0.114 -0.226,-0.223 -0.398,-0.328c-0.149,0.035 -0.309,0.066 -0.481,0.086c-4.226,0.574 -7.402,-5.688 -5.527,-9.247c-0.238,-0.269 -0.559,-0.582 -0.973,-0.933c-0.964,-0.817 -2.015,-1.613 -2.332,-1.77c-0.582,-0.285 -0.386,0.453 -0.054,1.735c0.218,0.851 0.953,1.527 1.726,1.945c-0.023,0.082 -0.047,0.168 -0.062,0.258c-0.238,1.152 -0.215,2.242 -0.004,3.285c-0.094,1.387 0.207,2.883 1.34,3.715c0.07,0.055 0.14,0.105 0.211,0.156c0.082,0.141 0.164,0.285 0.254,0.426c-0.989,-0.301 -1.969,-0.699 -2.934,-1.199c-0.629,-0.325 -1.227,-0.61 -1.703,-0.825c-0.36,-0.089 -0.723,-0.214 -1.063,-0.379l-0.047,0c-0.191,-0.015 -0.628,-0.191 -1.148,-0.464c0,-0.02 0,-0.043 0,-0.067c0.129,0.016 0.262,0.031 0.391,0.043c-0.551,-0.422 -0.973,-0.976 -1.137,-1.664c-0.043,-0.18 -0.078,-0.363 -0.098,-0.551c-0.468,-1.656 -0.406,-3.73 -0.574,-5.222c-0.047,-0.434 -0.102,-0.856 -0.16,-1.258c0.008,-0.035 0.016,-0.07 0.019,-0.106c0.407,0.227 0.872,0.372 1.399,0.426c4.566,0.43 4.418,-5.043 10.16,-6.097c1.211,-0.219 2.098,-1.403 2.516,-2.43c0.281,0.832 0.91,1.828 1.843,2.43c1.852,1.199 4.414,2.101 6.383,3.566c1.808,1.348 0.75,3.969 5.145,2.898c0.496,-0.121 0.941,-0.281 1.336,-0.476Zm-25.633,11.348c-1.184,-0.95 -4.86,-3.879 -2.36,-0.969c3.813,4.441 8.321,5.457 14.106,5.957c2.25,0.195 2.828,0.109 3.699,-0.543c1.031,-0.77 1.031,-0.77 -0.449,-0.824c-1.484,-0.051 -1.484,-0.051 -6.043,-0.399c-3.75,-0.285 -6.078,-0.906 -8.953,-3.222Zm11.633,-12.473c-0.18,-2.863 -0.922,-6.07 -1.317,-1.356c-0.023,0.243 -0.121,2.008 0.012,3.512c-0.793,0.258 -1.797,0.863 -2.188,0.906c-2.082,0.219 1.149,2.18 2.622,0.969c0.148,0.254 0.343,0.375 0.589,0.309c0.379,-0.106 0.465,-1.414 0.282,-4.34Zm13.972,-1.551c-1.183,1.137 -3.082,1.109 -5.703,-1.242c-2.601,-2.34 -2.5,-1.117 -4.722,-2.668c-2.207,-1.543 -2.223,-1.555 -2.664,-2.109c-0.618,-0.778 -1.067,-1.114 -1.356,-1.153c-0.125,-0.355 -0.559,-0.258 -1.359,0.781c-0.426,0.555 -2.598,0.938 -4.766,2.481c-2.184,1.551 -0.832,0.328 -3.375,2.668c-0.609,0.555 -1.164,0.996 -1.676,1.324c-0.035,0.348 -0.289,0.555 -0.914,0.508c-0.058,0.027 -0.117,0.051 -0.176,0.074c-0.019,-0.035 -0.035,-0.07 -0.05,-0.101c-0.008,-0.004 -0.016,-0.004 -0.02,-0.004c-1.711,-0.274 -2.672,-2.426 -2.414,-4.086c-0.098,-0.172 -0.164,-0.321 -0.191,-0.422c-0.149,-0.516 -0.286,-0.961 -0.438,-1.367c0.34,-0.032 0.402,-0.325 -0.023,-0.957c0.445,-1.602 -1.434,-3.969 -1.547,-1.731c-2.321,-2.25 -1.656,-2.75 -3.426,-5.18c-0.113,-0.156 -0.227,-0.304 -0.328,-0.441c0.691,-0.898 1.34,-1.812 1.891,-2.809c0.828,1.192 2.082,2.774 3.937,5.461c0.625,0.598 0.367,1.063 2.262,1.442c3.511,0.699 7.285,0.363 10.074,-0.133c2.086,-0.371 2.519,-0.961 2.559,-1.609c0.293,0.414 0.945,0.793 2.328,1.109c2.746,0.621 6.449,1.133 9.87,0.598c1.848,-0.289 1.583,-0.762 2.177,-1.332c2.359,-3.52 3.695,-5.067 4.386,-6.379c0.102,0.304 0.262,0.644 0.481,0.98c0.238,0.363 0.492,0.77 0.718,1.145c-0.214,0.269 -0.449,0.59 -0.714,0.968c-1.707,2.434 -1.352,2.649 -3.297,5.18c-0.77,1 -0.918,2.039 -0.289,2.082c0.554,2.664 0.148,5.59 -1.235,6.922Zm-7.093,-7.703c-1.559,-1.941 -5.848,-0.328 -2.883,0.398c1.492,0.371 2.054,1.664 2.277,3.067c0.336,2.078 1.969,0.359 1.617,-1.137c-0.351,-1.504 -0.351,-1.504 -1.011,-2.328Zm-12.614,0.512c1.844,-1.164 1.844,-1.164 0.633,-1.399c-2.133,-0.418 -4.226,1.649 -4.793,3.516c-1.301,4.301 3.211,-1.516 4.16,-2.117Zm-10.617,8.652c0.043,0.266 0.09,0.641 0.137,1.086c-0.199,0.863 -0.375,1.891 -0.293,2.887c0.121,1.453 0.207,2.476 0.32,3.211c-0.312,0.082 -0.609,0.195 -0.847,0.281c-0.493,0.172 -0.954,0.41 -1.387,0.695c-0.278,0.11 -0.539,0.231 -0.774,0.356c-1.054,0.562 -2.031,1.586 -2.351,2.461c-0.11,0.293 -0.223,0.539 -0.352,0.746c-0.648,0.078 -1.32,0.293 -1.703,0.441c-1.137,0.43 -1.879,1.223 -2.324,2.285c-0.254,-0.109 -0.508,-0.203 -0.754,-0.277c-0.086,0.082 -0.184,0.156 -0.293,0.215c-0.352,0.203 -0.75,0.308 -1.148,0.34c-0.809,0.125 -1.586,0.293 -2.086,0.457c-1.68,0.562 -3.969,1.132 -5.09,1.277c-1.973,0.246 -7.5,0.836 -8.242,3.152c-3.266,-0.824 -6.621,0.516 -9.575,2.125c0.789,-1.386 1.075,-3.394 1.063,-4.769c0.008,-0.008 0.016,-0.016 0.023,-0.028c1.809,-2.691 3.93,-4.906 6.075,-7.312c0.187,-0.211 0.394,-0.406 0.617,-0.59c0.883,-0.445 1.797,-0.976 2.703,-1.586c1.109,-0.512 2.262,-0.949 3.226,-1.433c2.176,-1.083 4.192,-4.52 4.801,-7.04c0.172,-0.027 0.36,-0.093 0.563,-0.21c2.578,-1.473 4.113,-4.192 5.75,-6.579c0.078,-0.117 0.144,-0.222 0.187,-0.316c0.399,-0.215 0.785,-0.438 1.156,-0.621c2.286,-1.137 3.262,-3.129 4.77,-5.07c0.145,0.336 0.309,0.691 0.48,1.043c0.415,1.226 0.891,2.445 1.11,2.832c0.492,0.867 0.496,0.871 1.805,1.613c0.039,0.039 0.078,0.07 0.117,0.105c0.242,0.2 0.492,0.391 0.738,0.555l0,0.004c0.18,0.199 0.328,0.43 0.449,0.699c0.012,1.996 0.219,4.278 1.02,5.945c0.015,0.348 0.047,0.657 0.082,0.848c0.008,0.051 0.019,0.106 0.027,0.172Zm41.379,-18.125c-0.613,-0.797 -3.598,-4.328 -2.078,-1.238c0.637,1.3 1.426,2.41 2.316,3.394c0.821,0.723 1.621,1.473 2.399,2.242c1.789,1.457 3.761,2.731 5.672,4.219c-0.243,-0.898 -0.586,-1.238 -1.364,-1.82c-2.64,-1.981 -4.933,-4.192 -6.945,-6.797Zm-55.453,3.25c0.539,-0.027 1.336,-0.23 2.027,-0.496c2.332,-0.899 5.926,-4.219 6.91,-6.832c0,-0.047 0,-0.098 -0.004,-0.145c-0.007,-0.238 -0.16,-0.734 -0.332,-1.308c-0.433,0.414 -0.98,1.156 -1.332,1.609c-1.878,2.414 -4.257,4.024 -6.734,5.777c-1.535,1.086 -1.316,1.43 -0.535,1.395Zm23.336,-17.547c-1.707,-0.09 -3.774,-0.387 -4.59,-0.656c-2.004,-0.66 -4.09,-0.238 -6.098,0.164c1.774,0.176 3.489,0.398 5.133,1.16c2.094,0.973 4.367,1.481 6.68,1.391c1.156,-0.047 1.937,0.109 2.492,0.5c0.336,0.234 0.695,0.406 0.965,0.41c0.297,0.281 0.609,0.449 0.871,0.496c-0.699,1.324 1.879,1.289 2.457,0.402c0.148,-0.23 0.309,-0.496 0.473,-0.785c1.476,-0.883 2.293,-1.18 4.531,-1.18c1.969,0 4.354,-0.226 5.725,-0.539c1.298,-0.296 2.591,-0.726 2.876,-0.953c0.477,-0.371 0.465,-0.441 -0.105,-0.765c-1.336,-0.758 -2.887,-0.028 -4.254,0.297c-1.519,0.359 -4.144,0.687 -5.832,0.726c-0.824,0.02 -1.43,0.039 -1.887,0.078c0.301,-0.898 0.469,-1.793 0.344,-2.504c-0.406,-2.297 -2.058,0.821 -2.316,1.481c-0.809,2.047 -0.914,2.316 -1.477,3.023c-0.078,-0.304 -0.265,-0.707 -0.617,-1.211c-1.242,-1.8 -1.242,-1.8 -1.606,-3.222c-0.507,-1.969 -1.597,-1.547 -1.089,0.457c0.191,0.75 0.304,1.199 0.425,1.566c-1.046,-0.297 -2.289,-0.293 -3.101,-0.336Zm9.965,-28.613c-1.2,-0.563 -3.625,-1.152 -5.36,-0.574c-0.422,0.14 -1.758,0.394 -2.429,0.718c-3.653,1.77 -3.188,4.93 -3.969,8.668c-0.942,4.504 2.379,7.254 2.289,7.567c0.23,3.754 2.187,6.062 5.16,5.742c3.262,-0.356 5.988,-2.344 5.906,-5.633c2.301,-3.277 1.661,-6.469 1.629,-8.055c-0.054,-2.957 -0.051,-6.945 -3.226,-8.433Z"/><path d="M377.356,68.881c-0.02,0.008 -0.035,0.012 -0.055,0.016c-0.703,-2.703 -2.027,-5.066 -3.929,-7.156c-0.457,-0.504 -0.832,-0.801 -1.125,-0.938c-0.352,-2.449 -3.129,-5.531 -4.508,-6.66c-2.801,-2.293 -6.653,-4.246 -10.293,-4.613c-2.293,-0.231 -2.293,-0.231 -4.352,-0.762c-1.621,-0.418 -2.242,-0.387 -3.05,0.188c-0.141,-0.137 -0.313,-0.293 -0.524,-0.465c-2.535,-2.063 -5.941,-2.336 -9.008,-1.61c-1.152,0.274 -1.883,0.508 -2.32,0.77c-1.629,-0.996 -4.961,-1.453 -5.965,-1.453c-5.812,0 -12.023,4.695 -13.906,10.258c-1.871,0.949 -3.672,2.961 -5.145,4.879c-1.464,0.398 -3.304,1.699 -3.695,2.007c-1.695,1.352 -3.461,3.047 -3.527,5.293c-2.524,1.09 -4.887,2.887 -7.133,4.758l-0.004,0c-0.07,0.031 -0.145,0.067 -0.219,0.106c-3.301,1.691 -5.426,4.605 -7.613,7.488c-0.035,0.043 -0.07,0.094 -0.106,0.156c-0.003,0.004 -0.007,0.008 -0.011,0.008c-0.84,0.91 -1.723,1.785 -2.68,2.602c-0.992,1.226 -2.137,1.746 -4.125,2.32c-1.355,0.394 -2.676,1.164 -3.055,1.785c-1.57,2.559 -5.875,5.148 -9.351,6.285c-3.66,-1.289 -8.254,-1.742 -11.863,-0.496c-1.262,0.434 -2.282,1.168 -2.52,1.805c-0.219,0.59 -1.461,1.906 -2.762,2.925c-2.066,1.618 -2.394,2.145 -2.625,4.184c-0.113,1.024 0.211,1.926 0.625,2.277c0.207,0.997 0.426,0.946 2.555,0.395c1.387,-0.359 3.473,-0.48 5.027,-0.285c1.907,0.238 3.274,0.09 4.836,-0.508c1.196,-0.461 3.36,-0.824 4.804,-0.805c3.782,0.051 9.118,-0.57 13.106,-2.07l0.008,0.004c0.668,0.156 1.801,-0.156 2.699,-0.477c0.258,0.012 0.579,0.024 0.969,0.035c3.938,0.118 7.895,-0.011 11.781,-0.562c2.567,-0.172 5.09,-0.629 7.52,-1.543c0.699,-0.269 3.707,-0.992 5.422,-1.723c3.355,1.235 6.742,1.684 10.656,0.704c0.406,-0.102 1.141,-0.227 2.067,-0.356c0.003,0 0.003,0 0.007,0c1.094,0.02 2.375,-0.25 3.008,-0.375c0.957,-0.105 1.957,-0.203 2.934,-0.285c1.633,-0.137 2.859,-0.262 3.769,-0.391c0.094,-0.008 0.184,-0.015 0.274,-0.019c-0.008,0.121 0.015,0.246 0.082,0.367c0.468,0.875 4.172,-0.012 6.273,-0.895c0.11,-0.281 0.356,-0.386 0.809,-0.214c0.168,-0.668 0.847,-0.274 1.32,0.843c0.484,0.438 0.629,0.887 0.777,1.938c0.043,0.304 0.047,0.742 0.02,1.222c0.062,0.289 0.133,0.622 0.191,0.965l0,0.004c0.008,0.055 0.02,0.113 0.028,0.172l0,0.008c0.015,0.098 0.031,0.199 0.043,0.297c0.058,0.062 0.117,0.121 0.179,0.183c0.09,0.09 0.176,0.168 0.258,0.243c0.149,0.683 0.293,1.46 0.406,2.16c0.071,0.429 0.145,0.816 0.219,1.152c-0.008,0.012 -0.015,0.023 -0.023,0.035c-1.262,0.555 -2.813,1.942 -3.278,2.34c-1.64,1.387 -1.683,1.422 -2.703,2.051c-0.355,0.215 -0.797,0.777 -0.961,1.25c-0.304,0.301 -0.351,0.586 0.004,0.875c0.778,0.629 1.906,1.457 4.035,0.797c0.254,-0.078 0.52,-0.215 0.789,-0.371c0.008,0 0.02,-0.004 0.028,-0.004c-0.395,0.582 -0.696,1.086 -0.805,1.304c-0.086,0.164 -0.211,0.59 -0.258,1.008c-0.035,0.043 -0.058,0.094 -0.074,0.149c-0.043,0.14 -0.012,0.285 0.078,0.425c0.043,0.266 0.164,0.446 0.418,0.434c0.012,0.012 0.02,0.023 0.031,0.035c0.278,0.93 1.114,1.012 1.942,0.801c0.023,0.004 0.051,0.008 0.078,0.008c0.039,-0.028 0.086,-0.051 0.133,-0.074c0.035,-0.012 0.07,-0.02 0.105,-0.036c0.946,0.094 1.793,-0.101 1.91,-0.785c1.297,-0.664 2.539,-2.027 3.379,-3.406c0.012,-0.008 0.024,-0.016 0.035,-0.023c-0.058,0.574 -0.066,1.117 -0.007,1.406c0.039,0.211 0.043,0.582 0.015,1.008c-0.066,0.484 -0.109,0.675 -0.211,1.132c-0.117,0.52 -0.121,0.926 -0.011,1.278c0.074,0.48 0.296,0.797 0.546,0.855c0.161,0.301 0.442,0.477 0.786,0.563c0.632,0.324 1.3,0.265 1.851,-0.188c0.77,-0.289 1.363,-0.777 1.219,-1.195c0.176,-0.348 0.336,-0.899 0.519,-1.742c0.297,-1.344 0.403,-1.836 0.52,-2.516c0.367,1.004 0.777,1.949 0.984,2.617c0.496,1.598 0.657,1.907 1.219,1.907c0.606,0.929 3.399,0.898 3.61,-0.387c0.445,-0.094 0.39,-0.344 0.042,-1.871c-0.023,-0.094 -0.046,-0.199 -0.07,-0.313c0,-0.012 0,-0.023 0,-0.031c-0.066,-0.66 -0.187,-1.328 -0.281,-1.996c0.344,-0.832 -0.109,-2.899 -0.219,-3.422c-0.043,-0.211 -0.125,-0.41 -0.234,-0.59c0.633,-0.859 1.664,-0.793 2.601,-0.574c0.196,0.316 0.407,0.582 0.5,0.66c0.528,0.438 0.871,0.652 1.301,0.719c0.024,0.043 0.047,0.094 0.07,0.14c2.085,0.766 7.176,1.075 6.594,-2.093c-0.125,-0.68 -0.465,-0.969 -0.859,-0.996c-0.793,-0.516 -2.086,-1.039 -2.395,-1.114c-0.434,-0.105 -0.8,-0.195 -1.109,-0.273c-0.305,-0.477 -0.906,-1.113 -1.574,-1.664c-0.075,-0.125 -0.145,-0.238 -0.203,-0.332c-0.418,-0.66 -0.766,-0.871 -1.032,-0.801c-0.191,-0.559 -0.711,-0.734 -3.172,-1.348c-0.882,-0.222 -1.511,-0.379 -1.968,-0.488c-1.168,-1.363 -3.36,-2.68 -4.305,-3.535c-0.328,-0.297 -0.676,-0.582 -1.004,-0.832c-0.211,-0.371 -0.402,-0.688 -0.512,-0.879c-0.629,-1.133 -1.175,-2.313 -1.691,-3.496c-0.359,-2.496 -0.402,-2.766 -0.738,-4.402c2.207,2.402 7.269,4.335 9.125,5.371c0.222,0.125 0.437,0.246 0.644,0.359c-2.07,0 -4.293,0.367 -5.691,0.703c-3.567,0.86 -1.012,1.93 1.512,1.496c1.871,-0.324 4.441,-0.437 5.707,-0.254c0.847,0.125 1.687,0.2 2.527,0.243c0.394,0.175 0.5,0.152 0.5,0.023c2.539,0.09 5.055,-0.109 7.644,-0.25c1.235,-0.066 2.215,-0.121 2.985,-0.168c0.73,0.16 1.672,0.332 2.726,0.5c0.93,0.215 1.84,0.332 2.77,0.387c4.465,0.566 8.941,0.953 13.426,1.304c0.336,0.176 0.672,0.364 1.007,0.575c0.637,0.402 3.422,1.242 3.418,0.019c0.77,0.133 1.735,0.176 2.172,0.149c1.993,-0.118 3.864,-0.012 5.598,0.308c1.438,0.266 4.895,0.653 7.691,0.86c4.934,0.363 5.129,0.355 6.926,-0.34c0.133,-0.051 0.27,-0.102 0.41,-0.153c0.348,-0.093 0.696,-0.195 1.043,-0.308c0.422,-0.051 0.848,-0.121 1.266,-0.207c1.738,0.699 4.519,1.371 5.195,1.629c6.231,2.351 13.117,1.679 19.692,0.863c0.136,0.144 0.402,0.297 1.011,0.637c3.989,2.257 10.813,3.172 15.379,3.113c1.446,-0.02 3.606,0.344 4.805,0.805c1.559,0.601 2.926,0.742 4.832,0.507c1.559,-0.191 3.641,-0.074 5.031,0.286c1.574,0.406 2.102,0.539 2.356,0.175c0.648,-0.047 0.894,-0.078 0.984,-0.488c0.113,-0.137 0.117,-0.336 0.055,-0.703c0,-0.133 0.004,-0.289 0.004,-0.457c0,-0.57 -0.098,-0.996 -0.235,-1.293c-0.226,-1.961 -0.578,-2.496 -2.613,-4.09c-1.301,-1.019 -2.543,-2.336 -2.762,-2.926c-0.234,-0.636 -1.258,-1.367 -2.519,-1.804c-3.727,-1.289 -8.504,-0.758 -12.219,0.625l-1.602,-0.993c-0.351,-0.218 -0.722,-0.41 -1.113,-0.574c-3.496,-2.086 -5.133,-1.211 -8.73,-0.64c-0.207,-0.082 -0.434,-0.172 -0.684,-0.262c-0.945,-0.344 -1.875,-0.731 -2.797,-1.145c-0.594,-0.371 -1.25,-0.8 -2,-1.308c-2.347,-1.578 -4.664,-2.766 -7.234,-3.516c-1.16,-0.613 -2.754,-1.277 -3.656,-1.519c-3.985,-1.067 -8.282,-0.036 -12.094,1.238c-0.555,0.18 -1.031,0.441 -1.391,0.719c-0.078,-0.028 -0.16,-0.055 -0.238,-0.086c-1.281,-1.426 -4.145,-2.321 -5.449,-2.821c-2.867,-1.097 -2.867,-1.097 -4.641,-1.918c-0.961,-0.445 -3.437,-1.371 -4.637,-0.628c-1.398,-1.836 -6.132,-2.348 -7.929,-2.571c-1.117,-0.14 -3.41,-0.711 -5.09,-1.273c-0.496,-0.168 -1.274,-0.332 -2.082,-0.457c-0.399,-0.035 -0.797,-0.137 -1.153,-0.34c-0.105,-0.059 -0.203,-0.133 -0.289,-0.215c-0.269,0.082 -0.546,0.184 -0.824,0.305c-0.035,-0.25 -0.125,-0.535 -0.281,-0.848c-0.09,-0.172 -0.18,-0.324 -0.273,-0.457c0.23,-0.312 0.199,-0.656 -0.274,-0.98c-0.629,-0.438 -2.074,-0.707 -3.101,-0.43l-0.004,-0.004c-0.141,-0.211 -0.262,-0.469 -0.375,-0.781c-0.133,-0.356 -0.368,-0.735 -0.672,-1.098c-0.235,-0.422 -0.5,-0.859 -0.817,-1.336c-0.304,-0.453 -1.043,-1.449 -1.531,-1.211c-1.176,-0.543 -3.07,-0.789 -4.289,-0.508Zm-1.871,2.672c-0.004,-0.379 -0.008,-0.859 0.004,-1.359c-0.156,-0.176 -0.34,-0.453 -0.563,-0.84c-1.148,-2.023 -2.382,-4.027 -3.429,-6.109c-0.18,0.144 -0.301,-0.098 -0.59,-0.711c-3.18,-6.684 -9.895,-11.473 -17.5,-11.676c-0.703,-0.02 -3.551,-0.137 -3.965,-0.891c-0.613,-0.109 -1.363,-0.402 -1.863,-0.797c-2.039,-1.597 -6.133,-1.523 -8.485,-0.433c0.075,0.555 -0.011,0.683 -0.949,0.426c-0.277,0.086 -0.41,0.047 -0.469,-0.137c-0.332,-0.106 -0.742,-0.238 -1.234,-0.402c-6.961,-2.27 -12.758,1.347 -15.875,7.277c0.547,0.019 1.094,0.168 1.633,0.476c0.89,0.508 0.89,0.508 -0.793,0.993c-3.043,0.879 -6.16,3.988 -8.078,6.414c-0.493,0.617 -1.239,2.433 -2.102,3.398c-0.012,0.141 -0.051,0.281 -0.117,0.418c0.605,0.067 1.098,0.293 1.172,0.559c0.078,0.281 -0.817,0.793 -2.156,1.265c-2.536,0.075 -5.043,1.461 -6.93,3.071c-0.277,0.234 -0.578,0.5 -0.891,0.789c-1.761,0.843 -3.219,2.121 -4.828,3.57c-0.023,0.02 -0.047,0.039 -0.07,0.059c-1.36,1.543 -1.367,1.547 -1.547,1.691c-0.121,0.094 -0.984,0.887 -2.457,2.262c-0.574,0.539 -1.113,1.082 -1.676,1.566c-1.391,2.278 -2.965,4.145 -5.648,5.059c-2.215,0.754 -3.051,1.289 -4.77,2.73c-2.734,2.289 -6.195,4.582 -9.68,5.699c-0.027,0.079 -0.058,0.161 -0.089,0.25c-0.047,0.125 -0.11,0.254 -0.188,0.383c2.207,-0.195 3.43,-0.101 4.16,0.317c0.379,0.215 0.817,0.355 1.297,0.433c0.219,-0.136 0.52,-0.269 0.903,-0.402c1.66,-0.574 1.66,-0.574 3.253,-0.957c0.832,-0.203 3.051,-1.004 4.707,-1.102c0.977,-0.562 1.793,-1.14 2.332,-1.656c0.547,-0.523 2.399,-3.449 3.61,-4.234c1.398,-1.379 3.211,-2.571 4.816,-3.387c0.106,-0.051 0.211,-0.109 0.317,-0.16c0.328,-0.383 0.879,-0.707 1.265,-0.844c1.782,-0.637 3.821,-0.957 5.801,-1.398c0.016,-0.012 0.027,-0.02 0.047,-0.028c0.406,-0.222 0.894,-0.429 1.41,-0.644l0.004,0c1.547,-0.879 2.984,-1.864 4.16,-2.957c0.059,-0.172 0.168,-0.266 0.317,-0.301c0.351,-0.356 0.675,-0.715 0.968,-1.086c-0.324,-0.047 -0.633,-0.144 -0.914,-0.305c-1.062,-0.601 -1.062,-0.601 1.02,-1.363c1.918,-0.699 3.847,-1.539 4.601,-3.613c0.301,-0.828 1.047,-1.461 2.051,-1.742c3.715,-1.032 6.555,-4.801 8.719,-7.711c0.93,-1.25 2.566,-4.176 4.457,-5.649c0,-0.273 0.273,-0.519 0.945,-0.594c0.395,-0.183 0.789,-0.285 1.192,-0.285l0.105,0c1.727,-0.605 3.305,-2.05 4.383,-3.359c0.492,-0.598 2.535,-2.754 2.422,-0.695c-0.059,0.984 -0.645,1.968 -1.492,2.843c0.074,0.016 0.152,0.028 0.234,0.043c2.758,0.477 5.262,0.059 7.91,-0.773c0.238,-0.078 2.305,-0.867 3.664,-1.051c0.047,-0.031 0.094,-0.066 0.137,-0.098c3.301,-2.406 8.711,-2.656 11.965,0.102c1.574,1.336 2.324,1.777 0.031,0.793c-2.871,-1.238 -6.309,-2.422 -9.039,-0.523c-1.024,0.707 -2.027,1.25 -3.051,1.652c-0.082,0.058 -0.168,0.121 -0.254,0.176c0.129,0.05 0.27,0.117 0.422,0.207c0.348,0.195 0.77,0.988 0.938,1.758c0.171,0.773 0.468,1.644 0.66,1.929c0.629,0.946 0.328,3.981 -0.352,2.598c-0.469,-0.961 -0.722,-1.418 -1.644,-2.031c-0.914,-0.602 -0.953,-0.711 -0.508,-1.496c0.41,-0.727 0.398,-0.954 -0.078,-1.645c-0.219,-0.316 -0.348,-0.59 -0.399,-0.816c-2.226,0.972 -5.379,1.199 -6.875,1.199c-0.324,0 -0.925,0.039 -1.625,0.047c1.539,1.082 3.094,2.144 4.7,3.121c0.542,0.328 2.574,3.183 1.023,2.574c-0.813,-0.32 -0.813,-0.32 -4.426,-3.172c-0.972,-0.765 -2.769,-1.598 -3.746,-2.68c-0.559,-0.105 -1.035,-0.281 -1.332,-0.558c-1.348,0.894 -2.883,1.512 -4.09,1.617c-0.551,0.555 -0.941,1.051 -2.5,3.293c0.199,0.23 0.528,0.641 1.16,1.434c0.379,0.48 0.778,0.902 1.192,1.269c1.246,1.102 2.66,1.75 4.402,2.219c0.582,0.156 1.227,0.492 1.606,0.824c2.359,0.094 4.222,0.457 5.218,1.008c0.258,-0.324 0.465,-1.004 0.629,-2.067c0.149,-0.937 1.239,-3.339 1.649,-1.109c0.168,0.918 -0.098,3.121 -0.93,3.93l0.234,0.133l-0.339,-0.043c-0.051,0.039 -0.102,0.074 -0.157,0.105c-0.308,0.164 -1.199,-0.039 -1.527,-0.301l-3.258,-0.382c-2.398,-0.282 -4.465,-0.645 -5.137,-0.883c-0.078,0.414 -0.168,0.996 -0.281,1.672c-0.812,0.722 -1.336,1.808 -1.578,2.933c-0.144,0.051 -0.262,0.11 -0.336,0.176c-0.016,0.016 -0.035,0.031 -0.055,0.051c-0.039,1.097 -0.355,2.207 -0.953,2.883c-0.984,1.101 -2.226,2.324 -3.629,3.507c0.246,0.094 0.551,0.211 0.942,0.36c0.176,0.066 0.41,0.176 0.66,0.312c0.375,0.004 0.742,0.024 1.101,0.063c0.454,0.047 0.743,0.156 0.93,0.367c0.32,0.066 0.715,0.176 1.367,0.363c0.871,0.25 2.286,1.215 3.203,2.18c0.11,-0.738 0.309,-1.5 0.61,-2.293c0.609,-1.602 3.301,-4.59 2.187,-1.094c-0.769,2.418 -1.664,5.512 -0.363,7.879c0.578,1.055 1.231,2.098 1.879,3.149c0.449,0.343 0.965,0.902 1.066,1.042c1.422,2.024 3.329,4.153 4.059,6.547c0.188,0.614 0.156,0.985 0.008,1.164c0.031,0.051 0.058,0.098 0.086,0.141c-0.301,1.184 0.285,3.746 1.355,5.274c0.063,1.039 -0.129,1.878 -0.863,1.972c-0.184,0.223 -0.504,0.442 -1.027,0.766c-1.692,1.035 -3.368,2.504 -5.219,3.363c0.031,0.055 0.082,0.106 0.148,0.141c0.043,0.027 0.094,0.047 0.141,0.07c0.144,-0.047 0.324,-0.082 0.547,-0.102c0.519,-0.046 1.336,-0.324 2,-0.66c0.074,-0.058 0.144,-0.117 0.215,-0.176c0.031,0.004 0.058,0.008 0.086,0.012c0.05,-0.031 0.097,-0.058 0.144,-0.09c0.652,-0.41 1.371,-0.812 2.109,-0.773c0.024,-0.023 0.043,-0.047 0.063,-0.07c0.012,0 0.023,0 0.031,0c0.02,-0.032 0.035,-0.063 0.051,-0.098c0.141,-0.172 0.27,-0.359 0.391,-0.543c0.422,-0.406 0.832,-0.844 1.207,-1.301c0.183,-0.015 0.363,0.031 0.441,0.18c0.066,0.125 -0.027,0.457 -0.316,1.125c-0.164,0.379 -0.407,0.93 -0.711,1.422c-0.028,0.019 -0.055,0.039 -0.082,0.062c-0.008,0.024 -0.02,0.051 -0.035,0.074c-0.129,0.208 -0.321,0.403 -0.551,0.583c-0.168,0.242 -0.313,0.507 -0.379,0.761c-0.352,0.512 -0.727,0.981 -1.184,1.36c-0.293,0.402 -0.531,0.73 -0.726,0.996l0.008,0c0.417,0.023 0.843,0.078 1.222,0.168c0.203,-0.18 0.508,-0.469 1.028,-0.961c1.253,-1.18 1.253,-1.18 2.558,-2.485c0.059,-0.058 0.633,-0.562 1.164,-0.914c0.028,-0.047 0.047,-0.09 0.078,-0.144c0.25,-0.504 0.637,-1.832 1.336,-1.785c-0.219,0.808 0.035,1.906 0.082,2.582c0.039,0.566 0.086,1.136 0.141,1.632c-0.027,0.118 -0.051,0.235 -0.074,0.344c0.023,0.797 -0.039,1.602 -0.153,2.387c-0.043,0.512 -0.117,1.023 -0.211,1.523c0.559,-0.14 1.254,-0.148 1.821,-0.066c0.066,-0.117 0.125,-0.242 0.175,-0.371c0.036,-0.238 0.075,-0.512 0.122,-0.828c0.242,-1.633 0.324,-2.188 0.492,-2.93c0.011,-0.078 0.019,-0.164 0.031,-0.258c0.082,-0.726 0.141,-1.851 0.645,-2.515c0.007,-0.34 0.066,-0.653 0.191,-0.922c0.035,-0.082 0.074,-0.16 0.113,-0.223c0.008,-0.187 0.031,-0.324 0.113,-0.316c0.024,-0.043 0.067,-0.035 0.126,0.008c0.214,-0.172 0.468,-0.11 0.902,0.117c0.242,0.133 0.777,1.14 1.191,2.242c0.414,1.098 0.887,3.074 1.051,4.379c0.027,0.234 0.055,0.445 0.078,0.636c0.117,0.106 0.266,0.176 0.449,0.196c0.184,-0.039 0.371,-0.063 0.559,-0.07c0.066,-0.028 0.125,-0.063 0.176,-0.106c-0.766,-2.434 -1.078,-4.883 -0.77,-7.43c-0.054,-0.183 -0.062,-0.382 -0.008,-0.59c0.039,-0.164 0.114,-0.312 0.219,-0.437c0.086,-0.219 0.188,-0.293 0.289,-0.262c0.91,-0.633 2.781,-0.566 4.141,-0.086c0.023,0.024 0.051,0.051 0.074,0.078c0.141,0.075 0.34,0.231 0.75,0.555c0.051,0.039 0.109,0.082 0.176,0.125c0.137,0.067 0.277,0.117 0.418,0.145l0,0.004c0.039,0.058 0.07,0.117 0.101,0.175c0,0 0.004,0.004 0.008,0.008c1.485,0.383 3.137,0.91 4.11,-0.226c-1.157,-0.168 -2.684,-0.575 -3.629,-1.153c-0.039,-0.07 -0.078,-0.144 -0.118,-0.215c-0.16,-0.039 -0.296,-0.078 -0.39,-0.105c-0.887,-0.273 -2.067,-1.344 -2.317,-2.422c-0.031,-0.016 -0.058,-0.031 -0.086,-0.043c-0.203,-0.101 -0.46,-0.219 -0.753,-0.34c-0.903,-0.105 -2.223,-0.293 -3.227,-0.66l-0.004,0c-0.223,-0.058 -0.43,-0.129 -0.59,-0.195l-0.008,0c-0.402,0.054 -0.89,-0.031 -1.089,-0.199c-0.86,-0.711 -2.95,-2.485 -3.465,-3.922c-0.727,-0.692 -1.383,-1.446 -1.758,-2.242c-0.422,-0.336 -0.805,-0.625 -1.109,-0.829c-0.164,-0.742 -0.344,-1.683 -0.559,-2.855c-0.129,-0.43 -0.238,-0.863 -0.34,-1.305c-0.195,-0.742 -0.379,-1.562 -0.504,-2.285c-0.484,-2.84 -1.371,-5.875 -3.558,-7.883c-0.157,-0.144 -0.41,-0.383 -0.668,-0.66c-0.2,-0.09 -0.364,-0.199 -0.481,-0.336c-0.887,-0.18 -1.664,-1.402 -2.086,-2.394c-1.879,-1.293 -2.465,-1.438 -4.539,-1.184c-2.402,0.297 -2.402,0.297 -0.597,-0.746c1.863,-1.078 3.433,-0.859 5.125,-0.094c0.441,-0.961 0.492,-1.172 0.96,-3.183c0.629,-2.703 1.708,-2.219 1.5,0.316c-0.109,1.305 -0.46,2.516 -0.96,3.309c-0.059,0.093 -0.125,0.187 -0.2,0.277c0.489,0.453 1.387,1.605 1.774,2.375c0.144,0.051 0.293,0.125 0.441,0.215c0.692,0.172 1.778,0.234 2.481,0.133c1.132,-0.161 1.617,0 3.101,1.031c0.008,0.004 0.016,0.008 0.028,0.012c0.41,0.054 0.929,0.367 1.296,0.773c0.145,0.156 0.375,0.344 0.649,0.547c0.195,0.125 0.394,0.246 0.695,0.422c0.461,0.277 0.621,0.445 0.586,0.535c0.41,0.324 0.742,0.637 0.832,0.894c1.274,0.598 2.742,0.969 4.289,1.153c-0.207,-0.137 -0.386,-0.383 -0.601,-0.781c-0.172,-0.317 -0.68,-1.348 -0.918,-2.219c-1.735,-0.278 -3.239,-1.332 -4.625,-2.867c-0.149,-0.164 -0.711,-0.758 -1.172,-1.375c-2.207,0.386 -5.504,-1.329 -6.336,-2.981c-1.27,-2.519 -0.008,-1.781 1.359,-0.375c0.742,0.758 2.344,1.578 3.883,1.988c0.117,0.032 0.27,0.063 0.441,0.094c0,-0.25 0.196,-0.387 0.707,-0.305c0.606,0.098 0.606,0.098 2.547,1.958c1.118,1.07 2.371,1.859 3.7,2.531l0.007,0.004c0.27,0.035 0.524,0.156 0.618,0.293c0.004,0.004 0.007,0.011 0.011,0.019c0.575,0.274 1.164,0.528 1.758,0.785c-0.375,0.114 -0.742,0.192 -1.098,0.243c0.7,1.171 1.481,2.789 0.661,3.078c3.406,0.238 7.07,-0.375 9.839,-1.508c1.243,-0.504 2.223,-1.149 2.997,-1.903c-0.309,0.137 -0.664,0.196 -0.973,0.118c-1.481,-0.364 -2.402,-2.317 -2.215,-3.676c0.141,-1.016 0.438,-1.832 1.117,-0.668c0.52,0.883 0.957,2.539 2.082,2.816c0.5,0.125 0.719,0.325 0.746,0.547c1.485,-1.98 1.883,-4.554 1.864,-7.457c0,-0.097 -0.008,-0.375 -0.012,-0.754Zm28.734,15.903c-1.039,1.535 -2.043,3.109 -2.902,4.851c-0.699,1.41 -1.234,2.461 -1.664,3.223c0.301,0.074 0.551,0.121 0.988,0.164c2.332,-0.309 4.926,-0.043 7.281,0.406c2.524,0.211 5.313,0.59 6.93,0.957c0.363,0.086 0.692,0.156 0.996,0.223c1.903,-0.051 3.781,-0.418 5.504,-1.18c0.68,-0.305 2.813,-1.664 3.641,-0.738c1.742,-0.516 3.238,-0.555 5.351,-0.555c0.5,-0.019 1.008,-0.015 1.543,0.008c1.375,0.012 2.114,0.066 2.492,0.191c0.356,0.036 0.723,0.082 1.098,0.133c4.109,0.531 8.07,1.328 8.797,1.774l1.328,0.804c-3.34,-0.136 -6.558,-0.656 -9.82,-1.433c-0.692,-0.164 -1.363,-0.321 -2.024,-0.457c-0.476,0.023 -1.152,0.023 -2.101,0.023c-2.457,0 -3.531,0.164 -4.746,0.715c-0.067,0.031 -0.133,0.059 -0.199,0.09c0.285,0.098 0.589,0.211 0.925,0.34c3.332,1.273 3.332,1.273 6.121,1.797c1.532,0.285 5.309,0.402 8.395,0.253c3.148,-0.148 6.152,-0.113 9.172,0.75c-0.117,0.016 -0.239,0.032 -0.36,0.047c0.672,0.125 1.469,0.282 2.371,0.461c2.813,0.559 7.407,1.133 10.208,1.274c3.941,0.199 5.429,0.484 6.613,1.273c1.164,0.774 2.074,0.957 3.816,0.762c1.262,-0.137 3.305,-0.043 4.539,0.211c0.703,0.144 1.614,-0.043 2.356,-0.102c-0.543,-2.812 -5.524,-9.574 -8.946,-8.695c-2.578,0.656 -6.234,1.504 -8.96,0.851l-0.508,0.032l-0.004,0.004c-0.223,0.168 -0.606,0.156 -1.031,0.05c-2.051,0.09 -3.649,0.02 -3.723,-0.187c-0.11,-0.301 0.637,-0.496 1.758,-0.672c-0.078,-0.047 -0.137,-0.09 -0.18,-0.121c-0.305,-0.238 -0.555,-0.453 -0.77,-0.648c-0.468,-0.184 -0.894,-0.25 -1.882,-0.391c-0.41,-0.063 -1.168,-0.152 -2.024,-0.246c-0.539,0.105 -1.105,0.191 -1.617,0.25c0.023,1.387 -2.555,0.168 -3.105,-0.113c-1.141,-0.579 -2.473,-1.165 -2.961,-1.301c-0.887,-0.25 -0.887,-0.25 -2.543,-1.258c-2.133,-1.293 -4.707,-3.031 -7.387,-4.113c-2.164,-0.539 -4.387,-0.813 -6.602,-0.758c-0.156,0.043 -0.308,0.09 -0.461,0.144c-2.382,0.817 -4.824,1.407 -7.328,1.7c-0.39,0.043 -0.718,0.054 -0.988,0.035c-0.258,0.433 -0.953,0.414 -1.527,0.066c-1.035,-0.621 -2.059,-1.25 -3.098,-1.855c-0.48,-0.242 -1.125,-0.563 -2.016,-1.016c-1.164,-0.59 -1.906,-0.965 -2.523,-1.246c-0.438,-0.172 -0.875,-0.328 -1.328,-0.469c-0.574,-0.187 -2.59,-0.203 -3.985,-0.57c-0.953,1.461 -1.949,2.848 -2.91,4.262Zm-70.789,0.867c-0.363,-0.965 -0.769,-1.852 -1.168,-2.567c-0.64,-1.156 -0.976,-1.933 -0.988,-3.195c-0.359,-0.199 -0.711,-0.402 -1.031,-0.598c-0.047,0.02 -0.094,0.036 -0.149,0.055c-0.273,0.09 -0.597,0.121 -0.945,0.098c-0.559,0.09 -1.234,0.195 -2.043,0.32c-1.504,0.227 -2.562,0.399 -3.383,0.574c-0.051,0.012 -0.097,0.028 -0.14,0.043c-1.532,0.5 -1.965,0.735 -4.282,1.996c-0.246,0.137 -0.472,0.258 -0.679,0.371c-1.575,1.028 -3.262,2.129 -5.008,2.446c-0.621,0.109 -0.969,0.058 -1.125,-0.09c-0.516,-0.066 -1.059,-0.184 -1.516,-0.356c-3.168,-1.175 -6.457,-1.496 -9.696,-1.164c-0.878,0.325 -1.792,0.602 -2.593,0.692c-1.082,0.222 -1.609,0.332 -2.144,0.515c-0.368,0.231 -0.715,0.52 -1.602,1.266c-1.269,1.059 -1.43,1.195 -2.273,1.891c-0.305,1.715 -1.895,3.453 -3.657,4.687c-0.476,0.633 -1.035,1.168 -1.418,1.383c-0.121,0.687 -0.363,0.734 -1.75,0.887c-1.679,0.191 -1.679,0.191 -3.621,0.773c-1.16,0.348 -2.117,0.485 -3.234,0.449c-1.508,0.383 -2.813,0.321 -6.332,-0.023c-3.387,-0.328 -5.266,-0.731 -5.379,-1.149c-0.043,-0.156 0.059,-0.3 0.32,-0.425c-0.008,-0.016 -0.011,-0.035 -0.019,-0.055c-0.145,-0.437 0.023,-0.922 0.375,-1.375c-1.852,-0.176 -3.738,-0.629 -5.25,-1.016c-3.426,-0.875 -8.403,5.887 -8.949,8.7c0.742,0.058 1.656,0.246 2.355,0.101c1.238,-0.254 3.277,-0.351 4.539,-0.211c1.746,0.196 2.652,0.012 3.817,-0.765c1.183,-0.786 2.671,-1.075 6.617,-1.27c2.797,-0.141 7.39,-0.711 10.203,-1.273c0.902,-0.18 1.699,-0.34 2.375,-0.465c-0.121,-0.012 -0.242,-0.028 -0.363,-0.043c3.023,-0.863 6.023,-0.903 9.171,-0.75c3.086,0.148 6.868,0.035 8.399,-0.254c2.785,-0.523 2.785,-0.523 6.121,-1.793c0.316,-0.125 0.609,-0.234 0.887,-0.332c-0.735,-0.113 -1.371,-0.293 -1.965,-0.547c-0.024,-0.012 -0.047,-0.023 -0.071,-0.031c-0.355,-0.031 -0.753,-0.063 -1.199,-0.098c-3.293,-0.269 -4.449,-0.246 -6.09,0.129c-0.3,0.066 -0.562,0.113 -0.789,0.137c-0.109,0.027 -0.214,0.058 -0.324,0.086c-3.234,0.871 -6.441,1.48 -9.773,1.711l1.301,-0.844c0.714,-0.461 4.601,-1.363 8.667,-2.008c0.165,-0.078 0.356,-0.152 0.567,-0.223c2.793,-0.953 6.402,-1.453 9.293,-0.632c0.023,0.007 0.047,0.015 0.07,0.023c0.985,0 2.563,0.137 3.516,0.305c0.957,0.168 2.187,0.613 2.738,0.984c1.949,1.32 3.832,0.926 6.055,0.383c2.316,-0.574 2.886,-0.711 3.086,-0.32c1.586,-0.715 4.843,-0.688 5.855,-0.547c1.145,0.16 1.145,0.16 4.375,0.051c0.508,-0.016 0.934,-0.032 1.297,-0.04c0.305,-1.957 -0.258,-4.472 -1.051,-6.597Zm44.11,-16.867c-0.071,-0.028 -0.141,-0.055 -0.207,-0.086c0.191,2.843 -0.133,6.312 -0.829,7.851c-1.519,3.367 -6.398,4.942 -9.632,5.477c-4.125,0.676 -9.602,1.699 -13.383,-0.602c-0.672,-0.406 -1.18,-0.816 -1.512,-1.176c-0.855,-0.468 -1.562,-1.242 -1.801,-2.14c-0.742,-0.25 -1.617,-0.383 -2.914,-0.488c-0.062,-0.004 -0.136,-0.008 -0.222,-0.012c0.984,1.18 1.757,2.387 2.316,3.75c0.023,-0.035 0.047,-0.059 0.074,-0.082c-0.094,-0.149 -0.168,-0.317 -0.222,-0.504c-0.153,-0.516 -0.278,-0.941 -0.133,-0.957c0.082,-0.008 1.465,0.723 3.078,1.629c1.609,0.902 3.293,1.707 3.734,1.789c0.805,0.144 0.805,0.144 1.61,0.644c0.445,0.274 1.75,0.852 2.902,1.286c1.27,0.48 2.313,0.953 3.383,1.757c-1.586,0 -3.313,0.172 -4.735,-0.66c-0.664,-0.387 -1.25,-0.648 -1.418,-0.629c-0.16,0.02 -0.812,-0.191 -1.453,-0.468c-0.867,-0.375 -1.519,-0.743 -2.605,-1.481c-1.453,-0.98 -1.453,-0.98 -2.77,-1.48c-0.355,-0.133 -0.636,-0.266 -0.855,-0.418c0.008,0.039 0.019,0.078 0.031,0.121c0.195,0.715 0.195,0.715 1.414,1.804c1.219,1.09 1.219,1.09 5.543,3.633c0.848,0.5 3.875,1.762 5.844,3.059c0.43,0.117 0.816,0.262 1.152,0.457c0.621,0.351 1.894,0.273 4.176,-0.254c1.551,-0.363 6.895,-1.566 8.93,-0.32c0.269,0.054 0.57,0.113 0.906,0.183c2.516,0.5 4.027,0.606 6.781,0.481c3.367,-0.153 6.844,-0.266 9.895,1.367c0.515,0.273 1.707,0.59 2.633,1.031c0.179,-0.363 0.437,-0.84 0.777,-1.469c1.891,-3.5 3.316,-8.254 6.199,-11.011c0.176,-0.172 1.02,-0.559 1.797,-0.821c-0.105,-0.054 -0.223,-0.117 -0.352,-0.191c-0.691,-0.387 -2.148,-0.922 -3.238,-1.188c-4.121,-1.003 -8.375,-1.847 -12.344,-3.367c-0.214,-0.082 -0.414,-0.16 -0.589,-0.234l-0.618,0.406c-4.308,2.836 -8.355,6.078 -12.195,9.414c-0.094,0.172 -0.211,0.348 -0.344,0.516c-0.539,0.691 -1.39,1.32 -2.351,1.844l-0.11,0.097c0.008,-0.015 0.02,-0.031 0.028,-0.051c-1.375,0.739 -2.961,1.27 -4.164,1.457c-0.094,0.016 -0.18,0.028 -0.262,0.036c-0.145,0.031 -0.27,0.035 -0.367,0.031c-0.844,0.019 -0.684,-0.375 -0.192,-0.813c0.157,-0.222 0.407,-0.457 0.731,-0.66c0.89,-0.554 1.926,-1.429 3.035,-2.285c0.293,-0.375 0.652,-0.793 1.047,-1.211c2.687,-2.891 4.949,-5.91 6.726,-9.445c0.176,-0.352 1.852,-3.383 2.247,-1.926c0.058,0.207 -0.208,0.793 -0.586,1.305c-0.422,0.57 -0.875,1.301 -1.172,1.898c-0.782,1.555 -1.27,2.965 -2.328,4.449c-0.641,0.899 -1.297,1.739 -1.993,2.528c0.188,-0.063 0.375,-0.117 0.567,-0.157c0.207,-0.207 0.472,-0.468 0.804,-0.804c1.579,-1.574 1.579,-1.574 2.29,-2.035c1.589,-1.02 4.41,-3.473 7.132,-5.024c-0.191,-0.199 -0.359,-0.48 -0.496,-0.84c-0.148,-0.117 -0.308,-0.222 -0.48,-0.312c-1.16,0.207 -2.395,0.031 -2.528,-0.883c-0.164,-0.117 -0.273,-0.238 -0.304,-0.359c-0.047,-0.164 -0.102,-0.328 -0.16,-0.481c-0.489,-0.527 -1.051,-1.277 -1.485,-2.047c-0.293,-0.238 -0.609,-0.445 -0.949,-0.617c-1.082,0.18 -2.469,0.067 -3.484,-0.312Zm-62.696,19.484c-2.144,-1.074 5.684,-2.332 6.426,-1.75c0.344,0.27 0.477,0.48 0.602,0.937c0.164,0.59 0.164,0.59 1.367,1.18c2.058,1.008 -1.438,1.028 -2.16,-0.09c-0.625,-0.964 -0.852,-0.996 -2.985,-0.425c-1.484,0.398 -2.644,0.449 -3.25,0.148Zm104.758,0.266c2.145,-1.075 -5.683,-2.336 -6.43,-1.75c-0.343,0.273 -0.476,0.48 -0.601,0.937c-0.16,0.59 -0.16,0.59 -1.363,1.18c-2.059,1.008 1.437,1.027 2.16,-0.09c0.621,-0.965 0.851,-0.996 2.98,-0.426c1.488,0.399 2.645,0.449 3.254,0.149Zm17.473,-1.082c-3.922,-0.977 -8.235,-0.813 -12.262,-1.016l5.063,0.762c0.828,0.125 11.347,1.293 7.199,0.254Zm-139.707,-0.262c3.922,-0.985 8.238,-0.82 12.265,-1.02l-5.066,0.766c-0.824,0.125 -11.348,1.289 -7.199,0.254Zm76.992,-4.942l1.621,-1.128c-0.922,0 -1.43,0.304 -2.234,0.816c-0.774,0.496 -2.293,0.996 -3.852,1.273c-1.414,0.25 -3.168,0.668 -3.898,0.926c-1.008,0.352 -1.762,1.18 -0.244,1.383c2.826,0.375 6.384,-1.723 8.607,-3.27Zm-38.34,0.192c-0.516,-0.141 -1.137,-0.461 -1.715,-0.93c-0.219,-0.179 -1.609,-0.84 -2.937,-1.57c1.906,2.445 3.359,4.754 4.097,7.859c0.516,2.18 0.692,3.438 0.567,4.383c1.312,-0.527 2.984,-0.836 4.207,-0.66c-0.305,-0.625 -0.629,-1.203 -0.945,-1.649c-1.735,-2.457 -3.051,-4.82 -3.274,-7.433Zm-21.012,-0.176c-0.363,0.215 -0.714,0.426 -1.05,0.637c-0.254,0.16 -0.563,0.414 -0.836,0.699c-0.239,0.09 -0.477,0.18 -0.715,0.27c-2.738,-0.95 -5.285,-1.508 -7.938,-1.637c1.082,-0.453 2.457,-0.953 3.063,-1.113c1.097,-0.289 2.012,-0.93 2.75,-1.75c1.137,1.41 3.14,2.57 4.726,2.894Zm38.926,-12.984c-1.074,-0.297 -2.394,-0.825 -2.933,-1.164c-0.844,-0.535 -0.969,-0.473 -0.895,0.429c0.188,2.239 5.043,2.707 6.656,2.356c0.047,-0.008 0.094,-0.024 0.141,-0.035l0.004,0.004c0.293,0.683 1.57,1.589 3.265,2.316c2.844,1.219 3.743,0.109 0.985,-1.227c-1.762,-0.851 -1.762,-0.851 -2.59,-1.461c-0.152,-0.105 -0.324,-0.218 -0.5,-0.312c0.727,-0.676 0.855,-1.477 -0.742,-0.891c-0.906,0.332 -2.153,0.328 -3.391,-0.015Zm-43.09,1.066c-2.164,-1.219 -5.273,-0.191 -7.32,0.801c-0.969,0.473 -0.32,1.289 0.688,0.781c1.832,-0.914 4.289,-1.058 6.304,-1.058c1.254,0 1.254,0 0.328,-0.524Zm20.434,-2.891c-0.473,-0.16 -1.266,-0.496 -2.922,-1.203c-1.617,-0.687 -2.414,-1.027 -2.727,-1.242c-1.757,1.942 -3.746,3.637 -6.101,4.903c-1.176,0.628 -2.633,1.855 -3.238,2.718c-0.606,0.864 -1.801,1.832 -3.094,2.395c-0.375,0.594 -0.793,1.195 -1.262,1.75c-0.012,0.015 -0.027,0.035 -0.039,0.055c-0.023,0.046 -0.047,0.097 -0.066,0.148c-0.063,0.129 -0.125,0.262 -0.192,0.394c0.555,0.407 1.043,0.856 1.235,1.079c3.144,3.738 8.023,0.57 11.07,-1.922c2.777,-2.278 7.113,-3.449 7.113,-7.547c0,-0.442 0.059,-1.164 0.223,-1.528Zm0.445,-0.632c-0.039,-0.024 -0.078,-0.047 -0.113,-0.075c-0.914,-0.64 -3.863,-2.621 -5.395,-2.41c0.821,-0.957 1.59,-1.968 2.325,-3.007c0.222,0.496 0.566,1.035 0.711,1.152c1.253,1.015 2.753,1.992 4.359,2.48c-0.481,0.649 -1,1.504 -1.371,2.172c-0.164,-0.101 -0.356,-0.207 -0.516,-0.312Zm21.801,-2.496c1.348,-2.379 -5.277,1.957 -6.25,2.511c1.949,0 5.215,-0.679 6.25,-2.511Zm-42.703,-2.422c-0.035,0.019 -0.067,0.039 -0.098,0.058c-1.191,0.727 -2.308,1.922 -2.551,3.246c0.219,-0.054 0.442,-0.101 0.668,-0.14c0.098,-0.246 0.258,-0.528 0.45,-0.785c0.089,-0.387 0.511,-0.996 1.355,-2.137c0.055,-0.078 0.113,-0.16 0.176,-0.242Zm58.449,3.867c-0.195,-2.637 -0.453,-4.301 -0.668,-4.301c-0.195,0 -0.41,1.012 -0.504,2.399c-0.091,1.32 -0.039,3.222 0.106,4.226c0.203,1.359 0.41,1.844 0.828,1.899c0.558,0.074 0.539,-0.219 0.238,-4.223Zm-4.676,-4.039c0.586,-0.789 0.973,-1.387 1.168,-1.848c-0.066,2.012 -0.418,3.992 -0.8,5.969c-0.649,-0.906 -1.219,-1.391 -1.219,-0.313c0,0.739 0,0.739 1.648,4.387c1.024,2.262 1.606,3.215 2.14,3.399c-0.089,0.285 -0.062,0.664 0.168,1.074c0.743,1.32 0.563,3.14 0.032,4.492c-0.853,2.172 1.141,1.062 1.531,-0.215c0.489,-1.613 0.235,-3.558 -0.34,-5.113c-0.125,-0.332 -0.289,-0.543 -0.46,-0.656c0.011,-0.438 -0.459,-1.426 -1.666,-3.957c-0.061,-0.129 -0.834,-1.61 -1.584,-2.735c1.554,-2.426 3.117,-5.984 1.761,-8.687c-0.938,-1.875 -1.156,0.09 -1.192,1.285c-0.741,-0.899 -1.159,1.062 -1.53,1.637c-0.946,1.461 -2.336,2.441 -3.735,3.441c-0.082,-0.035 -0.176,-0.07 -0.289,-0.109c-1.023,-0.34 -4.945,-1.368 -5.316,0.289c-0.125,0.566 5.437,0.699 5.949,0.187l0.004,0c1.527,-0.359 2.598,-1.015 3.73,-2.527Zm-10.191,-9.512c-1.141,-1.523 -1.563,-0.437 -0.852,0.805c0.231,0.406 0.176,0.867 -0.179,1.492c-0.473,0.828 -0.461,0.941 0.148,1.367c0.375,0.258 0.719,0.969 0.777,1.602c0.098,1.035 0.172,1.105 0.836,0.746c0.684,-0.367 0.7,-0.485 0.278,-2.043c-0.246,-0.91 -0.442,-2 -0.434,-2.418c0.008,-0.418 -0.25,-1.117 -0.574,-1.551Zm3.691,-0.246c-0.449,-0.316 -0.902,-0.543 -1.082,-0.543c-0.816,0 0.223,1.691 0.375,1.984c0.68,1.325 0.68,1.325 0.871,2.301c0.309,1.598 1.528,-2.558 -0.164,-3.742Z"/></svg>